<svg id="Layer_1" data-name="Layer 1" xmlns="http://www.w3.org/2000/svg" viewBox="0 0 1822.46 1041"><defs><style>.cls-1,.cls-2{fill:none;stroke:#4057A1;}.cls-1{stroke-miterlimit:10;}</style></defs><path class="cls-1" d="M37,1054V14H1858.46V1054ZM1179.63,394c-1.26,4-3.57,7.92-3.61,11.9-.31,28.91-.18,57.82-.16,86.73,0,9.92,3.94,13.85,13.86,13.85h554c9.93,0,13.86-3.93,13.86-13.85,0-28.91.16-57.82-.16-86.73,0-4-2.35-7.93-3.6-11.9,4.91.2,3.74-3.46,3.74-6.15,0-38.87,0-77.75.09-116.62,0-6.36.1-12.48-6.22-16.86,5.81-4.39,6.26-10,6.24-16.1-.16-37.51-.07-75-.08-112.52,0-9-3-12-11.82-12q-279,0-558.1,0c-8.85,0-11.81,3-11.81,12,0,36.72.05,73.45-.06,110.17,0,6.93-.32,13.72,4,17-1.58,6.29-3.77,11.09-3.84,15.92-.34,26.37-.16,52.75-.16,79.12,0,13.67,0,27.35,0,41C1175.82,391.73,1175.82,394.24,1179.63,394Zm286.8,308.29h276.79c10.69,0,14.37-3.71,14.37-14.5q0-43.38,0-86.77c0-11.24-3.55-14.8-14.65-14.8H1190.51c-11.1,0-14.64,3.56-14.65,14.8q0,42.81,0,85.6c0,12.44,3.2,15.67,15.54,15.67ZM385.62,85.72v95.71h17.32c.45-1.9.84-3.6,1.32-5.62,12,12.16,35.87,10.16,43.56-8a55.91,55.91,0,0,0,2.87-36.6c-3.84-14.76-12.17-21.78-26-22.68-7.93-.52-14.68,2.18-21.05,9V85.72h-18Zm236.83.45v95.14h17c3-9.72-4.43-21.88,8.09-29.09,4.7,8.82,9.19,17.43,13.92,25.92.83,1.47,2.63,3.28,4.07,3.36,6.53.36,13.08.16,20.67.16-7.67-13.4-14.58-26-22.08-38.24-2.57-4.2-2-6.6,1.15-10,6.68-7.15,12.84-14.79,20.07-23.24-5.26,0-9.17.47-12.93-.1-7.87-1.19-13.29,1.79-17.68,8.2-4,5.83-8.68,11.18-13.05,16.75l-1.55-.59V86.17Zm-390.4,95.5c-7-8.85-4.74-17.94-5-26.66-.24-8.57.11-17.17-.13-25.75-.29-10.31-4.15-15.48-13.74-18.62a48.71,48.71,0,0,0-29.36-.34c-10.31,3-16.26,12.63-15,23.91,4.78,0,9.63.16,14.47-.1a4.54,4.54,0,0,0,3.38-2.34c2.08-6.53,7.21-7,12.7-6.72,4.09.17,8.25.94,8.62,6s-3.86,5.59-7.54,6.34c-7.24,1.46-14.7,2.22-21.64,4.54-10,3.36-14,12-12.84,24.72.82,8.63,6.66,14.7,16.26,16.69,10.18,2.11,18.67-1.69,27.27-9-1.31,7.76,3.06,7.6,7.65,7.43C221.49,181.54,225.77,181.67,232.05,181.67ZM574.3,184c17.74.09,27.34-6.31,33.25-22.73,5.26-14.6,3-28.58-5.31-41.33-8.06-12.38-30.6-16.34-45.24-8.43-13,7-17.41,19.45-17.6,32.87C539.07,167.82,550.2,184.23,574.3,184ZM374.18,151.09a53.12,53.12,0,0,0-4.26-26c-5.56-12.85-16.31-16.93-28.8-16.92s-22.75,4.67-28.22,17c-3.91,8.83-4.79,17.9-4,27.41,1.83,21.6,18,34.4,39.44,31,13.86-2.21,23.27-11.13,24.72-24.13-8.3,1.33-18-4.12-23.64,6.79-.43.82-2,1.16-3.07,1.52-9.83,3.23-19-5-18-16.66Zm121.56,34c5.95-1.57,12.4-2.18,17.78-4.9,14.4-7.3,17.8-21,17.54-35.56-.23-12.87-4-24.91-15.85-32-22-13.22-48.24-1.78-53.63,23.18C456.82,157.76,466.3,184.91,495.74,185.07ZM301.83,136.63c.25-15.33-7.47-25-21.13-27.49a45.09,45.09,0,0,0-7.57-.84c-10.78,0-21.26,2-27.22,11.76-9.93,16.33-10.55,33.88-1.69,50.76,7.25,13.82,29.86,17.75,44.17,8.76,8.94-5.63,12.95-13.94,13.7-24.82-4.19,0-7.9.28-11.55-.06-4.8-.45-7.38.61-9.19,5.92-3.11,9.14-13.05,10-18.9,2.31-5.3-7-5.81-24.59-.87-31.89a11.84,11.84,0,0,1,11.58-5.47c4.41.43,7.41,2.88,9.19,7.13.67,1.59,2.55,3.61,4,3.75C291.4,136.92,296.48,136.63,301.83,136.63ZM366,384.07c3.1-11.64,6.15-23,9.27-34.75h-7.55c-1.81,7.47-3.55,14.69-5.3,21.91a55,55,0,0,1-5.49-16c-1-5.73-3.7-7.55-9.36-5.66l-6,22.06h-1.11c-1.8-7.46-3.6-14.91-5.39-22.28h-7.65l9.36,34.76h7.71c1.13-4.13,2.14-7.86,3.16-11.59s2.06-7.43,3.08-11.14c2.81,5.69,5,11,5.69,16.52C357.24,384.25,360.25,385.62,366,384.07Zm701.86-111c-5.5-4.55-11.07-6.12-17-2.82-5.77,3.19-7.4,8.72-7.58,14.86a35.49,35.49,0,0,0,.13,5.26c1.68,14.24,11.88,19,24,11.29,1.54,3.76,1.54,3.76,7.87,2.42V257h-7.41Zm-544.21,28c10.5,8,20.86,3.42,23.22-4.73a41.54,41.54,0,0,0,1.29-13.26c-.27-5.68-2.58-10.72-8.16-13.25-5.75-2.6-11-1.37-14.07,1.45l-9.66-2.38v46.75h7.38Zm54.41,47.29v47h7.65V379.62c5.3,6.29,15.1,7.28,19,2.3a24.52,24.52,0,0,0,5.43-19.09c-1.92-13.62-12-18.35-22.17-11.86Zm110.32.11v46.86h7.45V380c5.81,5.93,15.45,6.78,19.26,1.77,4.12-5.42,6.22-11.59,5.35-18.57-1.75-14-11.86-18.78-22.25-12.26ZM278,302.72c6.83,5.66,18.07,2.63,20.65-5.55a36,36,0,0,0,1.7-13.75c-1.3-13.77-11.28-18.48-23.14-11.41-.21.12-.68-.21-1.46-.48v-14.6H268.5v48.71Zm-109.72-45.3-16.65,46.74c8.59,1.31,9.11,1.42,10.69-6.49,1.14-5.72,3.77-7.59,9.14-6.7a8.42,8.42,0,0,0,2.92,0c5.45-1,7.88,1.19,9.12,6.67,1.79,8,2.24,7.88,10.59,6.46-4.77-13.45-9.69-26.77-14.17-40.23C178.12,258.41,175.92,254.64,168.29,257.42Zm249.46,78v48.71h7.44c0-7-.12-13.64,0-20.25.12-5.32,3.18-8.78,7.43-8.69,5.34.1,6.8,3.81,7.22,8.21.25,2.51.16,5.06.17,7.59,0,4.42,0,8.84,0,13.16h7.47c0-8.18.3-16-.07-23.75-.47-9.71-9.23-14.9-17.92-10.93a51.15,51.15,0,0,0-4.57,2.76V335.4Zm-200.25,49c0-8.21.35-15.81-.08-23.37-.62-10.8-9.7-15.88-19-11-1,.5-1.86,1.11-3.48,2.09V335.47h-7.31v48.85H195c0-2.11,0-4,0-5.91,0-4.87-.06-9.75.07-14.62s2.16-8.49,7.51-8.54,6.83,3.68,7,8.23c.11,2.53.09,5.06.09,7.6,0,4.39,0,8.79,0,13.29Zm280.89-48.82H491.1v48.79h7.19c0-6.76-.16-13.36,0-20,.19-5.88,3.21-9.26,7.68-9.22,4.67,0,7.06,3.07,7.16,9.42.11,6.57,0,13.16,0,19.53h7.31c0-8.78.59-17.2-.17-25.49s-8.6-12.48-16.51-9.49c-1.71.65-3.3,1.64-5.45,2.73Zm-62.5-31c0-7.24-.21-14.06.07-20.85.18-4.49,2.35-8,7.34-8.28,4.59-.28,6.61,2.76,7.34,6.8a31.64,31.64,0,0,1,.26,5.25c0,5.63,0,11.25,0,16.95h7.47c0-6.56,0-12.79,0-19,0-1.75,0-3.52-.18-5.26-.91-9.8-10.22-14.67-18.83-9.85-1.07.6-2.09,1.29-3.79,2.34V256.87h-7v47.71ZM380,304.43h7.38l1.11-14.68,2-.28c2.44,3.58,5.18,7,7.25,10.79,2.81,5.14,7,5.15,12.27,4.08L396.24,284l13.08-14c-11.74-3.85-14.09,7.92-21.76,11.86V257H380v47.39Zm-127.7,79.93c0-7.69,0-14.9,0-22.1,0-5.13-.7-9.94-6-12.31-6.09-2.72-12.33-2.74-17.75,1.36-2.15,1.63-3.18,4.73-4.73,7.17l1.66,2a63.13,63.13,0,0,1,7.43-3.45c2.62-.87,5.67-2.05,8.08-1.41,1.79.48,2.86,3.66,4.68,6.25-6.07.89-10.77,1.19-15.25,2.33-6.34,1.61-9.21,6.54-6.81,12.48,1.23,3.05,4,6.45,6.95,7.58,4.31,1.66,9.29,1.22,12.72-3.11.29-.36.63-.67,1.1-1.18.16,1.64.3,2.94.44,4.38Zm57.87-16.14c.21-12.54-4.64-19.14-14.11-19.93-9.26-.78-16,5.15-17.18,15.18s4.33,19.8,12,21.19c10.11,1.83,16.42-2.07,18.92-13.21a93.93,93.93,0,0,1-9.11,3.84c-2.81.84-6.29,2.27-8.58,1.31-2.6-1.08-4.2-4.53-6.24-7l1.25-1.42Zm311.15,1.55,1.64-1.8h22.55c.51-12-4.41-18.8-13.88-19.67-9.05-.83-15.76,4.8-17.23,14.46-1.53,10.15,4,20.41,11.81,21.88,10.05,1.9,16.3-1.89,19.09-12.8-3.37,1.18-6,2.22-8.65,3-3,.85-6.48,2.65-9,1.8S623.36,372.16,621.28,369.77Zm373.5-87.72c-6.45,1-11.13,1.32-15.6,2.47-5.92,1.52-8,5.18-7.37,11.42.54,5.33,4,9,9.59,9.05,3.71,0,7.42-1.23,10.48-1.79l9.18,2.21c0-9.58.28-18.12-.09-26.64-.29-6.55-5.87-10.36-13.89-10.29-8.31.07-12.89,3.82-13.53,12.58a84.44,84.44,0,0,1,8.17-3.7c2.61-.86,5.57-2,8-1.46C991.48,276.26,992.62,279.24,994.78,282.05Zm-98.42,6.42c-.21-13.45-5.73-20.11-15.74-20-9.78.12-15.84,7.31-15.68,18.62.17,11.82,5.68,18.13,15.89,18.17,9.09,0,14.44-4.38,14.41-12.94-2.61.8-6.27.83-7.18,2.42-2.36,4.11-5.6,4.79-9.31,3.75-4.66-1.32-5.52-5.35-5.67-10h23.28Zm-401.28-.08c.33-12.62-4.95-19.48-14.72-19.89-9.28-.38-15.92,6.07-16.48,16-.71,12.78,4.31,20,14.39,20.71,9.65.68,15.48-3.57,16.18-12.95-2.92,1-6.61,1.06-7.69,2.78-2.52,4-5.78,4.55-9.42,3.37-4.5-1.46-5.36-5.37-5.22-10Zm62.81,83.2c-3.75,1.34-6.23,2.41-8.82,3.11-3.15.85-6.78,2.59-9.48,1.72-2.51-.81-4.07-4.56-7-8.23h24.86c1.43-14.72-8.36-23.37-20.79-18.93-6.19,2.21-9.82,8-10.18,16.24-.4,9.31,5.25,18,12.49,19.18C548.79,386.32,554.32,382.92,557.89,371.59ZM747,369.77l1.47-1.77H771c.73-10.24-2.48-16.39-9.57-18.81-11.39-3.89-21.06,3.49-21.52,16.44-.33,9.08,6,18.52,12.6,19.21,10,1,15.47-2,18.67-13-3.42,1.18-6,2.2-8.73,3-3,.85-6.49,2.69-9,1.84S749.08,372.17,747,369.77Zm-485-81.18c.55-12.56-4.67-19.52-14.43-20.07-9.6-.55-16.33,6.17-16.88,16.83-.6,11.95,4.83,19.26,14.79,19.87,9.57.59,15.28-3.69,15.79-12.8-2.66.74-6.35.69-7.21,2.22-2.3,4.12-5.55,4.89-9.29,3.92-4.67-1.21-5.51-5.34-6-10ZM233.71,450.27c.71-12.08-4.28-19-13.79-19.9s-16.35,5.33-17.37,15.7c-1.09,11.1,5.58,20,15.64,20.92,6.17.56,13.81-5.57,15-13.55-3.55,1.66-6.14,3.3-9,4.06s-6.59,1.79-9.16.77c-2.32-.92-3.59-4.44-6.19-8ZM904.85,385c10.69.93,16.58-10,16.51-19-.07-10.83-6.59-17.88-16.55-17.79-9.72.09-16.09,7-16.25,17.54C888.43,374.74,894.17,385.84,904.85,385ZM858,395c9.38,1.53,13.39-.53,16.51-9s5.81-16.89,8.7-25.35c1.28-3.72,2.57-7.44,4-11.53h-8c-2.62,8.15-5.22,16.25-8.33,25.95-3.14-10-5.7-18.05-8.13-25.76h-8.4c3.63,9.92,7.18,19.33,10.51,28.83,2.88,8.21,1.71,10.09-6.83,11.84ZM337.27,286.24c0-10.85-6.67-17.92-16.65-17.76-9.73.15-16.07,7.1-16.16,17.72-.1,12.13,5.89,19.11,16.41,19.11S337.32,298.46,337.27,286.24Zm450.38.23c.05-10.9-6.43-18-16.42-18s-16.48,7.24-16.4,18.06c.09,11.93,5.88,18.64,16.19,18.77C781.62,305.45,787.59,298.68,787.65,286.47ZM947.8,383.36l8.38,1.59v-35.6h-7.61c0,6.72.19,13.11-.06,19.49-.22,5.37-3.45,8.73-7.76,8.36-5.27-.46-6.5-4.18-6.49-8.72q0-9.54,0-19.08h-7.61c0,7.55-.28,14.74.07,21.9C927.34,384.26,936.18,388.75,947.8,383.36ZM598.24,269.54c3.67,10.72,7,20.64,10.48,30.53,2.34,6.77,1.19,8.71-5.83,9.65a6.74,6.74,0,0,0-1.72.87c.16,1.66.32,3.3.46,4.84,8.52,1.05,12.7,0,14.9-5.61,5.18-13.12,9.63-26.52,14.52-40.24H622.8l-8.18,25.92-8.18-26Zm94.3,0v8.79c0,2.93.05,5.86,0,8.78-.16,7.3-3.16,11.68-7.89,11.61-4.41-.07-6.52-3.45-6.66-11.1-.12-6,0-12,0-17.92h-7.49c0,8.36-.27,16.37.08,24.36s5.23,12,13.22,11c3-.38,5.77-1.84,8.65-2.81l-.42,1.27,7.72,1.53v-35.5Zm-42.49,96.77c.08,11.21,6.61,18.37,16.24,18.81,10.37.47,16.48-9.65,16.28-19.38-.23-10.8-6.44-17.51-16.28-17.51C656.25,348.21,650,355.21,650.05,366.29Zm143.4-97.5v35.6h7.18c0-6.6-.06-12.82,0-19s2.91-9.85,7.5-10c4.91-.11,7,2.64,7.07,9.88.1,6.39,0,12.78,0,19.18h7.6c0-7.12,0-13.92,0-20.71,0-1.17,0-2.35-.08-3.51-.73-8.26-6.44-13-14.24-11.46-2.59.5-5,2-7.48,3,.14-.35.28-.7.43-1.05Zm20.86,115.59c0-7-.1-13.38,0-19.77s3-9.73,7.84-9.42c5.88.37,6.47,4.61,6.48,9.19,0,6.58,0,13.16,0,19.88h7.55c0-8.21.42-16.19-.11-24.11-.71-10.59-9.15-14.87-18.79-10-.87.43-2,1-2.81.82-2.45-.66-4.8-1.7-7.7-2.78v36.24ZM632.46,286.27c0,12.37,5.67,19,16.28,19s16.34-6.81,16.24-19.08c-.09-10.8-6.21-17.56-16-17.7C638.89,268.35,632.49,275.24,632.46,286.27Zm-290.87,0c-.06,12.37,5.64,19,16.23,19.06s16.37-6.76,16.29-19c-.07-10.81-6.17-17.58-16-17.75C348.06,268.32,341.64,275.2,341.59,286.22Zm-187.2,85.41-1.15,1.71c2.08,10.69,14.87,16.2,23.18,9.33,2.79-2.3,4.64-7.37,4.46-11.06-.12-2.53-4.16-5.38-7-7.12-2.56-1.55-6-1.5-8.88-2.7-1.34-.56-3.05-2.49-2.94-3.64s2.18-3.18,3.41-3.2c2.28,0,4.65.93,6.83,1.84,2.45,1,4.72,2.45,7.74,4.06,0-10.29-8.37-14.85-18.32-11.76-4.81,1.49-7.61,4.42-7.72,9.68s3,7.8,7.4,9.22c3.14,1,6.45,1.55,9.55,2.67,1.05.38,2.45,2,2.34,2.87-.15,1.29-1.52,3.44-2.37,3.44a27.39,27.39,0,0,1-8.72-1.34C159.42,374.72,157,373,154.39,371.63ZM579.77,281.2c.89-10.91-10.5-14.24-17.8-12.07-5.06,1.5-8.28,4.4-8.43,9.79s3.12,8.1,7.89,9.46c2.8.8,5.78,1.18,8.38,2.38,1.39.65,3.2,2.87,3,4a6.32,6.32,0,0,1-3.76,4.05c-4.58,1.19-8.08-.39-8.91-5.5H553c.45,10.52,12.35,15.78,22.55,10.27,4.28-2.31,5.92-6,5.63-10.67-.29-4.54-3-7-7.13-8.16-3.17-.92-6.48-1.47-9.52-2.71-1.32-.54-3-2.5-2.9-3.65s2.19-3.13,3.42-3.14a18.23,18.23,0,0,1,6.84,1.82C574.35,278.08,576.64,279.52,579.77,281.2Zm457.87,23.48c0-8.08.16-15.66,0-23.22-.29-10.95-8.63-15.91-18.56-11.29a5.75,5.75,0,0,1-3.28.66c-2.4-.47-4.73-1.32-7.36-2.09v35.82h7.24c0-7.22-.36-14.25.1-21.22.45-6.77,7.06-10.6,11.31-6.65,1.94,1.8,2.84,5.42,3,8.29.44,6.52.14,13.09.14,19.7Zm-178.26-.11c0-8,.14-15.44,0-22.84-.27-11.41-8.38-16.23-18.81-11.37a5.19,5.19,0,0,1-2.92.72c-2.47-.58-4.86-1.51-7.56-2.39v35.73h7.21c0-6.79-.15-13.23,0-19.65.19-6.17,3.33-9.65,8.09-9.33,5.92.39,6.45,4.78,6.53,9.26.11,6.57,0,13.14,0,19.87ZM750.85,281.09c.53-7.89-8.07-13.5-16.43-12.5-9.3,1.12-14.95,8.34-14.42,18.66q.93,17.89,16.16,18.05c9.11.08,14.1-4.51,14.58-13.49-3.73-.61-7-1.23-8.78,3.81-1.45,4.07-7.94,4.3-10.86,1-3.54-4-4.32-12.4-1.59-17.12,2.92-5,9.62-6.12,12.53-1.38C744.55,282.18,747.46,281.46,750.85,281.09Zm180.8,0c-1.75-9.18-8.23-13.73-17.32-12.35s-14.51,9-13.62,19.26c1,12.18,6.73,17.83,17.38,17.3,8.48-.42,13.06-5.1,13.14-13.5-3.76-.57-6.94-1.06-8.69,4-1.39,4-8.09,4.12-10.92.75-3.5-4.16-4.19-12.49-1.42-17.14,3-5,9.67-6,12.54-1.16C925.28,282.48,928.27,281.29,931.65,281.05Zm-704.92,0c-.67-8.3-6.87-13.21-15.68-12.53-10.09.79-15.51,8.09-14.76,19.89S203.17,306,214,305.22c8.2-.59,12.94-5.69,12.46-13.4-5.27-.46-5.27-.46-8.37,4.17-2.42,3.62-8.44,3.82-11.2.36-3.25-4.09-3.95-12-1.46-16.65,2.79-5.17,9.51-6.45,12.47-1.76C220.42,281.89,223.22,281.63,226.73,281.08ZM201.38,437c-.16-2.26-.27-3.94-.38-5.53l-8.08-1.22c2.07-3.1,3.17-6.69,5.06-7.17,4.09-1,3.73-3,3-5.85-9.06-1.35-14.13-.68-15.31,12.32L181,436.51l6.28,1.25V465.2h7.33V437.48Zm269.25-80c0,5.63-.31,11.88.07,18.09.54,8.85,5.08,11.64,13.66,8.91v-5.69c-2.81-1.22-5.7-3-5.93-5.05-.66-5.89-.23-11.89-.23-17.73l6.55-.89c-.22-2.07-.39-3.71-.56-5.31l-5.75-.72c-.19-2.86-.37-5.5-.56-8.22h-6.52a65.86,65.86,0,0,1-2.39,8.41c-.65,1.51-2.24,2.62-3.41,3.92Zm-73.55-1.8c0,6.94-.23,13,.06,19,.44,9.32,4.58,12.2,13.77,10V378l-1.42.78c-1.46-1.76-4-3.43-4.18-5.32-.55-5.95-.2-12-.2-17.9l6.22-.92c-.16-2.05-.29-3.72-.42-5.33l-5.6-.76c-.21-2.87-.41-5.52-.61-8.23h-7.53v8l-4.45,1.11C391.82,353.06,391.61,356.05,397.08,355.21Zm541.85-79.34c0,6.59-.09,12.43,0,18.27.17,9.63,4.31,12.69,13.91,10.36.2-2.57,1.4-5.46-3.16-5.78-1-.07-2.49-2.4-2.54-3.74-.27-6.35-.12-12.73-.12-19.18l6.1-.79c-.11-2-.2-3.7-.29-5.42l-5.62-.66c-.22-2.78-.44-5.43-.66-8.16h-7.49c-.13,2.93-.24,5.43-.36,8l-4.41,1v5.25ZM409,957.5l1,.08c0,4.68-.1,9.36.1,14,0,.91,1.27,1.78,2,2.66.51-.84,1.46-1.68,1.48-2.53.11-8.08.06-16.17.06-26.06-9.22,5.83-7.86,16-13.28,21.79-5.46-5.84-3.82-16.13-13.26-21.39,0,9.78-.07,17.92.1,26.06,0,.83,1.47,1.63,2.25,2.45l1.62-.74V959c2.86,3.8,4.38,7.74,6.18,11.55a20.21,20.21,0,0,0,3,3.76c1.07-1.17,2.48-2.18,3.13-3.56C405.3,966.4,407.07,961.92,409,957.5Zm-27.68-11.36c-8.84,5.58-8,15.59-13.23,22.27-2.49-6-4.75-12-7.48-17.82-.75-1.58-2.91-2.49-5.62-4.68,0,9.82-.08,17.43.08,25,0,1.22,1.19,2.41,1.82,3.62l1.81-.66V957.6c2.79,4.15,4.47,8.48,6.47,12.65.73,1.53,2.22,2.7,3.36,4a22.06,22.06,0,0,0,2.93-3.82c1.88-3.89,3.52-7.9,5.26-11.87l1.43.34v15C382.12,973.29,382.75,967.74,381.28,946.14ZM155,417.42v47.66h7.13V417.42Zm104.82-68.66v35.37h6.79a3.94,3.94,0,0,0,.33-.91q0-8.19.08-16.38c0-9,1.57-10.84,10.12-12.07v-7.33L267.17,351l.4-1.15Zm704.27.47v35.08h7.41c0-6,0-11.85,0-17.66.06-9.24,1.17-10.55,9.9-11.8V346.7C975.53,351.75,969.61,348.32,964.05,349.23ZM726.8,335.48v48.67h6.81V335.48ZM1232.58,840.8l1.67,1.29c.69-1.16,1.86-2.27,2-3.48.32-3.09-.33-6.36.4-9.3.45-1.77,2.75-3.08,4.22-4.6,1.21,1.52,3.26,2.92,3.47,4.57.51,4,.17,8.07.17,12.12l1.46.69c.77-1,2.12-2,2.21-3a69.7,69.7,0,0,0,0-10.52c-.5-6.55-4.48-8.81-10.5-6.2-1,.42-2,1.14-2.94,1-4.6-.52-9.17-1.28-13.8-2-1,18.85-.87,19.61,3.59,19.78,0-3.9-.44-7.86.19-11.64.3-1.78,2.67-3.21,4.11-4.8,1.24,1.65,3.27,3.17,3.55,5C1233,833.35,1232.58,837.11,1232.58,840.8ZM508.41,304.56V256.94h-6.79v47.62Zm758.31,537.55,1.66-.73c0-1.92,0-3.84,0-5.76,0-2.15-.52-4.51.23-6.36s2.77-3.06,4.23-4.55c1.22,1.5,3.23,2.88,3.51,4.53.56,3.42.12,7,.28,10.49,0,.7.92,1.35,1.41,2,.72-.65,2-1.26,2.07-2,.23-3.09.15-6.22.11-9.33-.12-8.61-3.33-10.73-11.33-7.53a4.4,4.4,0,0,1-2,.56c-4.57-.63-9.11-1.36-13.88-2.08v19.93l1.39.78c.7-1.17,1.87-2.29,2-3.52.32-3.08-.33-6.34.41-9.28.45-1.78,2.74-3.09,4.21-4.61,1.2,1.54,3.12,2.94,3.45,4.64.57,3,0,6.22.28,9.31C1264.9,839.87,1266,841,1266.72,842.11Zm107.63-55.71c2,4,4.87,5.5,9.48,4.72,4-.67,7.25-2.43,7.4-6.92.22-6.91.06-13.85.06-20.91-4.82,0-9.41-1-13.19.26-5,1.75-5.61,7.07-5.07,11.87.75,6.66,5.55,8.85,14.75,6.6-.53,1.67-.86,4.16-1.4,4.2C1382.33,786.56,1378.24,786.4,1374.35,786.4Zm-860,188.21,1.65-.93V970.2c0-2.93.1-5.86,0-8.78-.31-7-4.25-9.35-10.53-6.44-.82.38-1.66,1.34-2.38,1.23-4.72-.7-9.41-1.61-14.45-2.51,0,6.41-.1,11.67.08,16.92,0,1.23,1,2.43,1.61,3.64.66-1.29,1.74-2.53,1.9-3.89.33-2.89-.38-6,.42-8.7.52-1.76,2.94-3,4.51-4.41,1.1,1.58,2.87,3,3.14,4.75.52,3.23,0,6.63.29,9.91.1,1,1.65,1.76,3.57,3.65,0-5.52-.48-9.31.19-12.88.37-2,2.65-3.65,4.08-5.46,1.3,1.78,3.27,3.39,3.73,5.36.65,2.78,0,5.83.28,8.73C512.47,972.47,513.62,973.51,514.3,974.61ZM380.18,349.26v34.92h7.23V349.26Zm418.63,35.11v-35h-7.3v35Zm682.51,378.16c-4.45.91-10.18.52-11.38,2.67-2.19,3.91-2.49,9.39-2,14.08.38,4.09,4.24,5.65,8.45,5.19,2.83-.31,5.65-.57,8.86-.88,0-8.3.08-16.83-.1-25.35,0-1.16-1.32-2.3-2-3.45l-1.34.74C1481.56,758.38,1481.39,761.24,1481.32,762.53Zm-1304.08-331H170V465h7.29Zm4.65,529.1a14.76,14.76,0,0,0-14.59-14.45,14.68,14.68,0,1,0,14.59,14.45ZM1200.64,765c-1.54-7.11-5.76-9.9-12.51-9s-10.21,6.44-9.91,15.5c.28,8.31,4.5,13.18,11.6,13.4,6,.18,9.69-2.64,10.48-8.42-3.79,1.64-7.39,4.43-11,4.48-5.63.09-7.12-5-7-9.69.11-3.3.9-7.37,3-9.66C1191.13,755.09,1195.25,763.7,1200.64,765ZM236.77,961.55c-.52-2.82-.79-5.34-1.48-7.73-1.17-4.06-3.63-6.79-8.21-6.91-4.87-.12-8.18,2.58-8.66,6.94a44.32,44.32,0,0,0,.89,15.84c.58,2.2,4.91,4.72,7.53,4.71s5.82-2.53,7.6-4.84C236.05,967.45,236.09,964.13,236.77,961.55ZM1332.3,763.81v27.07l2.09.32c.49-2.74,1-5.48,1.48-8.23,7.94,3,12.81,1,13.69-5.91a27.81,27.81,0,0,0-.62-8.65c-.87-4.42-4.12-5.88-8.3-5.56C1337.84,763.06,1335.06,763.49,1332.3,763.81ZM349.92,974.87l1.45-1.45c-2.86-7.83-5.68-15.68-8.65-23.47a4.63,4.63,0,0,0-2.53-2.52,3.14,3.14,0,0,0-2.66,1.52c-3.14,8.23-6.09,16.53-9.1,24.8l1.79,1.13c1.09-1.3,2.81-2.46,3.14-3.92.82-3.74,3-4.27,6.36-4.29,3.48,0,5.91.53,6.91,4.43C347,972.54,348.78,973.62,349.92,974.87ZM1585,784.66l1.61-.7c0-4.45-.42-9,.21-13.34.24-1.7,2.84-3.06,4.37-4.58,1.38,1.58,3.59,3,4,4.78.71,3.38.23,7,.51,10.48.08,1,1,2,1.61,3,.65-.93,1.77-1.81,1.86-2.8a69.7,69.7,0,0,0,.09-8.18c-.25-9.9-3.19-12.07-12.52-9.38-2-2.49,2.17-7.58-4.06-9.25,0,9.58-.08,18.33.1,27.07C1582.75,782.75,1584.2,783.7,1585,784.66Zm35.11-9.25c.56-7.94-1.31-11.49-6.2-12.46-5.42-1.06-8.7,1.09-10.3,6.74-1.87,6.64-.11,12.24,4.47,14.22,4.79,2.07,9.38.29,11.92-4.62-11.92-.18-11.92-.18-12.53-3.88Zm-207.61,0c.61-8.17-1.46-11.82-6.75-12.56-5.86-.81-9.28,2.15-10.43,9-1,6.23,1.86,11.52,6.82,12.49,5.39,1.05,8.59-.72,9.86-5.44-11.19,2-11.19,2-12.14-3.53Zm-124.56.14c.67-8-1.45-11.84-6.62-12.67-5.51-.89-9,1.66-10.3,7.62-1.48,6.51.9,12.26,5.67,13.71,5.18,1.59,9.1-.27,11-5.56-4.55.37-10.41,6.5-13.14-3.1ZM247,970.25c3.45-4.26,7.28-7.86,9.5-12.26,1.11-2.19.28-7.1-1.5-8.57-2.21-1.83-6.53-2.33-9.53-1.64s-5.66,3.34-3.95,8.7c1.46-1.58,2.16-2.94,3.25-3.39a56,56,0,0,1,7-2c.28,2.41,1.45,5.22.6,7.14-1.21,2.71-4,4.73-6,7.09-2.16,2.52-4.25,5.09-7.1,8.51H258c.11-.72.23-1.44.34-2.16ZM202,970c3-3.31,6.43-6,8.24-9.45,1.48-2.87,2.37-7.47,1-10-1.16-2.15-5.84-3.35-8.94-3.29-4,.08-6.37,3.16-6.76,8.89,2-1.38,3.55-1.91,4.22-3,2-3.18,4.94-4,7.21-1.66,1.25,1.29,1.18,5.22.13,7-1.91,3.31-5.06,5.89-7.59,8.86-1.53,1.8-2.87,3.78-4.9,6.48h20.13C210.71,968.81,205.9,972.06,202,970Zm1115.72-186.3c-.27-5.18-.52-10.37-.83-15.55-.3-4.83-3.94-5.42-7.53-5.34-3.78.09-7.31,1.09-7.24,6.8,3.83.25,9.94-9.16,11.53,2.37-2.24.21-3.95.34-5.64.54-4.06.48-7.4,1.86-6.8,6.82s4.31,5.34,8.28,5C1311.8,784.22,1314.15,784,1317.68,783.72Zm-83.15-5c-4.45-.15-10.65,6.33-13.27-3.45h13.35c.31-8.56-1.57-11.78-6.95-12.49s-8.44,1.6-9.85,7.47c-1.6,6.69.51,12.29,5.24,13.88C1228,785.83,1232,784.05,1234.53,778.77Zm-770,186.48c0-7.65-2.41-11-7.73-11.38s-9,2.71-9.67,8.56c-.77,6.69,2,11.23,7.27,12s8.22-.93,9.2-5.51c-11,2.12-11,2.12-12.26-3.64ZM1439,770.2l-1,1.79c-2,.21-4.12.31-6.15.64-3.88.64-6.84,2.43-6.1,6.93s4.15,5.2,8,4.86c2.55-.23,5.08-.58,7.79-.89,0-4.77.4-10.19-.11-15.53s-4.79-5.43-8.87-5c-3.6.37-6.21,1.84-5.61,7.25,2.75-1.68,4.79-3.87,6.89-3.93C1435.51,766.27,1437.26,768.81,1439,770.2Zm-73.3,1.89c-2.45.19-4.35.25-6.23.51-3.85.53-7,2.11-6.45,6.64.58,4.82,4.21,5.53,8.28,5.16l8.24-.76c-.23-5.1-.22-10.53-.82-15.9-.52-4.58-4.32-5.1-8-4.86s-6.92,1.29-6.68,6.46C1357.86,770.27,1363.69,760,1365.68,772.09Zm-111.8,11.46c0-4.78.39-10.2-.11-15.53s-4.78-5.45-8.86-5c-3.59.37-6.23,1.82-5.62,7.24,2.73-1.67,4.77-3.86,6.87-3.92,1.68,0,3.44,2.49,5.16,3.87-.32.6-.64,1.2-1,1.8-2,.21-4.11.32-6.15.65-3.87.63-6.84,2.41-6.11,6.91s4.13,5.22,8,4.88C1248.61,784.19,1251.15,783.86,1253.88,783.55ZM325.28,974.07l.7-2.35-12.83-1.49v-7.36l12.26-1.53c-.11-.79-.21-1.57-.32-2.35h-12v-8.3h12.44c.12-1,.23-2,.34-2.92-5.34-.83-10.85-.46-16.49-.19v26.49ZM1516.84,784.53c5.87,0,9.36-3.84,9.36-10.29,0-7.55-3.26-11.57-9.42-11.56s-9.23,3.93-9.2,11.6C1507.6,780.91,1510.88,784.53,1516.84,784.53Zm-215.91,57.14c0-5.91.09-11.53-.09-17.13,0-1-1.21-1.89-1.86-2.83-.6,1-1.61,2-1.71,3-.32,3.29.23,6.75-.6,9.86-.44,1.64-2.93,3.43-4.74,3.74-1,.17-3.28-2.34-3.66-3.95-.65-2.78-.07-5.83-.41-8.71-.17-1.37-1.27-2.63-1.95-3.94-.57,1.22-1.51,2.41-1.64,3.68a51.94,51.94,0,0,0,0,7.59c.35,8,2.55,9.65,10.72,8.37C1296.52,841.1,1298.21,841.5,1300.93,841.67ZM480.85,960.14l-1.12,2c-1.72.13-3.46.2-5.18.39-4.11.45-7.46,2.14-6.77,6.86s4.32,5.45,8.43,5c2.42-.28,4.85-.44,7.72-.69,0-4.24.13-8.88,0-13.5-.17-4.32-3-6.15-7-6.18-3.61,0-7.25.29-8.3,6.07,2.85-1.16,4.91-2.66,6.95-2.63C477.34,957.42,479.09,959.16,480.85,960.14Zm867.54-138.8-1.55,1.12q1.88,5.16,3.74,10.31c1.89,5.27,6.28,10.85-3.92,15.05,5.33,1.42,8.22.48,9.52-2.59,3.19-7.56,5.88-15.33,8.77-23l-1.82-.92c-5.32,3.06-3.63,10.37-7.27,14.46C1352,831.78,1354.09,824.19,1348.39,821.34ZM1217,831.41c-.09-6.46-3.54-10.16-9.39-10.09s-9.27,4-9.28,10.36c0,6.59,3.7,10.49,9.83,10.3C1214,841.81,1217.11,838,1217,831.41Zm335.88-46.73,1.55-.69a7.54,7.54,0,0,0,.4-1.64c0-3.51.1-7,0-10.54-.2-8.16-2.34-9.76-10.56-8.33a30.89,30.89,0,0,1-5.36,0c-2,11-.89,20,2.75,20.2.24-4.24,0-8.6.9-12.7.43-1.92,3.05-3.37,4.68-5,1.3,1.88,3.29,3.62,3.75,5.68.66,3,0,6.23.3,9.33C1551.41,782.27,1552.34,783.46,1552.89,784.68Zm-357.16,43.37c-2.85-5.91-6.53-7.72-11.5-6.33-4.64,1.29-7.08,6.08-6.08,12.33.76,4.76,3.37,7.77,8.49,7.91,4.35.11,7.65-1.22,8.77-6.49-4.59-.26-8.46,6.75-12.05.78a10.35,10.35,0,0,1-.36-8.62C1186.59,820.53,1191,828.27,1195.73,828.05Zm251.24-44,1.52.6c.6-1.24,1.59-2.45,1.72-3.74.35-3.47-.16-7.1.66-10.43.43-1.76,2.92-3,4.48-4.5,1.35,1.61,3.52,3,3.89,4.85.67,3.38.18,7,.45,10.47.07,1,1,2,1.61,3,.64-.92,1.79-1.82,1.83-2.76a98.15,98.15,0,0,0-.18-12.25c-.46-5.16-3.26-7.06-8.35-6.3-2.42.36-4.86.53-7.63.82Zm-141,38.29c0,5.48-.07,11.13.06,16.78,0,.88.92,1.74,1.41,2.61.71-.87,1.94-1.68,2-2.6.27-2.91-.48-6,.32-8.73.64-2.17,3-3.86,4.52-5.76,1.52,1.85,3.74,3.48,4.39,5.59.77,2.5,0,5.43.28,8.14.12,1.18,1.19,2.26,1.83,3.38.56-1.19,1.54-2.36,1.62-3.58a70.44,70.44,0,0,0,0-10c-.43-5.37-3.44-7.44-8.81-6.56C1311.34,822,1309.07,822.08,1305.94,822.35Zm272.7-38.89c-5.8-8.46-5.78-15.28-.6-18.58l-4.22-6.72c-2,1.85-4,3.68-6,5.57-.22.21-.16.71-.23,1.08a12.28,12.28,0,0,1,3.06,6.57c.34,2.28,0,4.66.1,7C1571.06,783.83,1572.9,785,1578.64,783.46ZM1345.28,823c-6.35-2.94-8.35-3.06-11.18-.82-.24.19-.25.68-.49,1.37,5.6,2.57,2.43,7.58,2.89,11.61.67,5.84,2.1,7.14,8.2,5.89C1338.63,830.4,1338.63,826.72,1345.28,823ZM447.89,950.5c-1.31-3.25-7.55-4.3-17.7-3.08-1.07.13-2,1.36-3,2.07l.68,1.31h7.92c0,6.81-.11,13.21.09,19.59,0,1.3,1.27,2.57,1.94,3.85.55-1.22,1.54-2.42,1.57-3.66.16-6.4.07-12.81.07-19.44Zm-159.8,17c-.21,5.12,2.6,6.83,6.67,7.17,4.6.39,7.78-1.82,8.16-6.34.53-6.17.33-12.41.27-18.61,0-.81-1.07-1.6-1.65-2.39-.64.92-1.79,1.82-1.84,2.78-.22,3.87.22,7.8-.2,11.64-.33,3-1.55,6-2.37,9-2.39-1.08-4.77-2.18-7.18-3.22A7,7,0,0,0,288.09,967.54Zm969.8-203.62c.93,2.69,2,4.69,2.25,6.8.35,2.68,0,5.45.12,8.17.31,5.07,3.13,6.47,8,4.11-6.18-6-6.18-14.21-.69-18.27-1.3-1.93-2.52-3.82-3.84-5.62-.39-.54-1.27-1.29-1.63-1.15a4.19,4.19,0,0,0-1.84,1.68C1259.29,761.2,1258.47,762.86,1257.89,763.92Zm237,26.48c6.37,1.05,8.54-.88,8.64-5.12q.23-9.59,0-19.18c0-1-1.07-2-1.65-3-.67,1.11-1.81,2.18-1.91,3.35-.27,3.07.07,6.2-.13,9.29C1499.57,780.57,1501.83,786.05,1494.91,790.4ZM269.13,952c0,7.13-.08,13.35.09,19.56,0,.91,1.24,1.79,1.9,2.69.54-.81,1.55-1.62,1.56-2.44.12-8.08.08-16.16.08-24.29-6.54.54-10,3.4-10.23,8.35ZM1205.2,763.47c0,4.67-.24,9.14.09,13.56.19,2.46,1.33,4.85,2,7.27.5-2.42,1.39-4.83,1.43-7.26.08-5.2.07-10.18,6.75-11.47.24,0,.17-1.62.25-2.56ZM167.34,420.88l6,5.61c1.5-1.84,3.69-3.51,4.2-5.59.25-1-2.5-3.75-4.12-4C171.92,416.75,170.15,418.94,167.34,420.88Zm621.33-81.49c3.11,2.4,4.81,4.71,6.53,4.72,1.39,0,4-2.81,3.92-4.22-.13-1.86-2.14-4.54-3.85-5C794,334.53,791.87,337.08,788.67,339.39Zm-398.51.33c-3.11-2.48-5.06-5.1-6.41-4.82-1.7.36-3.85,3-4,4.8-.14,1.43,2.34,4.35,3.76,4.42C385.17,344.2,387,342,390.16,339.72ZM244.11,468c2-3.26,4.22-5.33,3.83-6.63-.52-1.77-3-3-4.68-4.41-1.34,1.58-3.67,3.13-3.73,4.76S241.75,464.93,244.11,468ZM1533.58,773.75c0-2.72.12-5.44-.08-8.15-.06-.85-1-1.65-1.53-2.47-.66.71-1.86,1.4-1.88,2.12-.15,5.62-.15,11.26,0,16.88,0,.74,1.18,1.45,1.82,2.17.55-.8,1.53-1.57,1.59-2.41C1533.71,779.19,1533.58,776.47,1533.58,773.75ZM1330.66,832.2h0c0-2.91.1-5.83-.07-8.73a1.69,1.69,0,0,0-3.37,0c-.13,5.42-.16,10.86,0,16.28,0,.68,1.29,1.33,2,2,.49-.66,1.37-1.29,1.41-2C1330.77,837.25,1330.66,834.72,1330.66,832.2Z" transform="translate(-36.5 -13.5)"/><path class="cls-2" d="M1753.82,394c1.25,4,3.56,7.92,3.6,11.9.32,28.91.19,57.82.16,86.73,0,9.92-3.93,13.85-13.86,13.85h-554c-9.92,0-13.85-3.93-13.86-13.85,0-28.91-.15-57.82.16-86.73,0-4,2.35-7.93,3.61-11.9,2.73,0,5.46-.07,8.2-.07h522C1724.52,393.89,1739.17,393.94,1753.82,394Zm-315.69,72.87c1.46,7.91,6.65,8.24,11.34,8.55,5.74.39,10-2.79,10.5-7.9a90.33,90.33,0,0,0,.32-17.47c-.36-3.72,4.28-12.78-6.74-8.52-.12,0-.32-.22-.5-.26-11.16-2.8-16.62,1.84-15.68,13.28.71,8.56,6.58,11.49,18.63,8.29-1.31,2.85-1.76,6-3.36,6.76-2.1,1.05-5.17.58-7.72.16C1442.92,469.38,1441.07,468.13,1438.13,466.83Zm-38.24-11.39c2.18,11.72,10.67,15,19.56,8.82a12.23,12.23,0,0,0,4.59-9.09c-.13-2.66-3.32-5.76-5.92-7.55-2.42-1.67-6.06-1.47-8.77-2.87-1.75-.89-2.78-3.17-4.14-4.83,1.74-1.29,3.45-3.56,5.24-3.64,2.38-.1,4.86,1.45,7.24,2.42,1.74.71,3.39,1.63,6.09,2.95-1-7.37-4.5-9.82-9.65-10.41-5.53-.64-10.68,0-13.52,5.65a8.45,8.45,0,0,0,4.09,11.85c2.78,1.3,6.13,1.43,8.83,2.84,2.1,1.1,3.57,3.38,5.32,5.14-2.18,1.55-4.24,4.06-6.59,4.37s-4.91-1.57-7.29-2.68C1403.2,457.58,1401.58,456.44,1399.89,455.44Zm65.82,9.15,1.73,1.38c.93-1.39,2.51-2.7,2.68-4.17.4-3.66,0-7.41.23-11.1s2.41-6.84,6.23-6c1.87.4,3.85,3.77,4.38,6.12.76,3.34.36,7,.21,10.48-.16,3.72,1.17,5.07,5.14,3.51,0-5.54.31-11.18-.1-16.76-.37-5.1-3.41-8.36-8.78-8.25-3.82.07-7.63.84-11.72,1.33Zm48.1,0,1.67,1.41c1-1.37,2.56-2.66,2.72-4.12.41-3.66,0-7.41.24-11.09s2.35-6.87,6.19-6.09c1.87.38,3.92,3.74,4.41,6.07.76,3.55.34,7.37.23,11.07s1.77,4.2,5.13,3c0-5.54.31-11.18-.09-16.76-.37-5.09-3.37-8.38-8.75-8.29-3.82.06-7.63.84-11.75,1.34Zm-7.59,1.46,1.55-1.33c0-9.9.11-19.8-.14-29.69,0-1.32-1.85-2.6-2.85-3.9l-1.78,1c0,10.27-.09,20.54.14,30.8C1503.17,464,1505.15,465,1506.22,466Zm-74.48.05,1.93-1.14c0-7.18.13-14.36-.13-21.54,0-1.15-1.81-2.25-2.78-3.37-.85,1.25-2.37,2.47-2.43,3.75a171.5,171.5,0,0,0,.05,18.14C1428.47,463.35,1430.57,464.68,1431.74,466.06Z" transform="translate(-36.5 -13.5)"/><path class="cls-1" d="M1466.43,702.25h-275c-12.34,0-15.54-3.23-15.54-15.67q0-42.8,0-85.6c0-11.24,3.55-14.8,14.65-14.8h552.42c11.1,0,14.65,3.56,14.65,14.8q0,43.38,0,86.77c0,10.79-3.68,14.5-14.37,14.5Zm-56.61-40.47,1.92-1.45V636.47c5.35,7.7,10,14.74,15.09,21.5,1.33,1.77,3.83,2.67,7,4.79,0-12.51.1-23-.15-33.55,0-1.14-2.15-2.23-3.3-3.34l-1.39,1.26v25c-1.88-2.42-3.11-3.8-4.12-5.34-3.85-5.84-7.47-11.84-11.53-17.53-1.18-1.65-3.54-2.47-6.56-4.45,0,12.38-.09,22.9.13,33.42C1407,659.42,1408.82,660.59,1409.82,661.78Zm69.44-18c1.77,6,3,10.51,4.45,14.88a4.11,4.11,0,0,0,2.63,2.4c1.06.18,3.14-.53,3.36-1.27,2.39-8.07,4.51-16.22,6.7-24.35l-2.67-1.13c-6,3.77-2.89,12.43-7.5,18-1.27-4.83-2.16-9.13-3.59-13.26-.58-1.66-2.32-2.93-3.53-4.38-1,1.39-2.46,2.63-3,4.19-1.49,4.49-2.62,9.12-4.33,15.28-1.55-6.24-3-10.86-3.77-15.6-.61-3.74-2.08-4.63-5.84-3,2,7.62,3.88,15.11,6.08,22.51a4.79,4.79,0,0,0,3.33,2.93c1.08,0,2.82-1.59,3.29-2.84C1476.43,654,1477.52,649.65,1479.26,643.8Zm-193.39,8.14-1.07-1.63c-1.73,1.21-3.72,2.18-5.16,3.68-4.58,4.79-12.83,4.25-15.08-1.88a27.54,27.54,0,0,1-.84-14.08c.53-2.75,3.84-5.8,6.64-7,3.53-1.56,7,.16,9.65,3.52,1.17,1.5,3.4,2.17,5.15,3.22-.26-7.41-3.85-10.86-9.91-11.79-7-1.08-12.64,1.07-15.43,6.71-3.63,7.36-3.83,15.08,0,22.44,3,5.62,8.27,7.53,14.33,7C1280.6,661.62,1284.22,658.26,1285.87,651.94Zm251.39,8.55c-3.72-10.69-7.35-21.34-11.21-31.9-.41-1.11-2.38-2.55-3.29-2.35a5.55,5.55,0,0,0-3.42,3c-3.84,10.38-7.45,20.85-11.13,31.29,3.62,1.67,5.72.45,6.5-3.16.82-3.84,2.39-5.91,7-5.74s8.45.3,9.29,6C1531.56,661.27,1533.78,662,1537.26,660.49Zm-163.26-10c4.79,0,9.06.19,13.3-.1,1.35-.1,3.84-1.89,3.74-2.14-1.57-4.21-2.6-9.12-5.53-12.19s-8-2.48-11.88.21c-6.51,4.54-7,17.83-1,23s15.87,2.35,17.33-4.73C1375.2,654.27,1375.2,654.27,1374,650.53Zm-43.5-6.29c3.57-1.63,6.08-3.35,8.83-3.9,3.79-.77,5.64,1.27,5.27,5.18-3.27.52-6.14.89-9,1.43-4.5.86-6.78,3.47-6.27,8.21.53,5,4.18,6.4,8.23,6.49s8-.72,12-1.13c0-6.11.17-12.31,0-18.5-.21-5.64-4-7.61-9.07-7.68C1334.46,634.25,1331.47,636.88,1330.5,644.24ZM1460,653.47c-3.64,1.38-6.43,2.91-9.39,3.45-4.16.74-6.39-1.69-7.33-6.47h16.85c1-8.89-2.56-15-8.78-16s-11.29,2.94-12.88,10.43c-1.77,8.32,1.38,14.9,7.88,16.47S1457.77,660.56,1460,653.47Zm-133.51-2.91c.79-9.22-2.7-15.15-8.93-16.15-6.5-1-11.45,3.22-12.89,11.11-1.48,8.13,1.67,14.31,8.06,15.81,6.65,1.57,11.44-.86,13.38-7.46-5.69.31-13,8.15-16.72-3.31Zm308.76,10c0-7.46.13-15-.14-22.6,0-1.12-1.92-2.17-3-3.25-.77,1.12-2.12,2.2-2.19,3.36-.29,4.47.42,9.08-.45,13.39-.42,2.14-3.19,4.85-5.36,5.36-3.53.84-5-2-5-5.46,0-4.49.14-9-.14-13.45-.07-1.11-1.51-2.14-2.31-3.21-.92,1-2.61,1.93-2.63,2.92-.12,5.83,0,11.68.36,17.5.33,4.76,3.83,6.73,8.08,6.74C1626.61,661.84,1630.68,661,1635.27,660.53Zm-47.83-11.64c0,8.15,4.47,13.05,11.73,13,7-.06,11.74-5.39,11.73-13.28,0-8.6-4.88-14.37-12-14.3C1591.45,634.37,1587.39,639.55,1587.44,648.89Zm52.8-13.19c0,7.36-.14,14.94.15,22.49,0,1.17,2.11,2.26,3.24,3.39l1.44-1.2c0-4.65-.65-9.43.26-13.9a9.35,9.35,0,0,1,5.65-6c3.6-1,4.77,2.38,4.85,5.59.1,3.7.21,7.4.07,11.1s1.35,4.92,5.7,3.22c-.41-6.35-.61-12.91-1.33-19.41-.6-5.38-4.62-6.83-9.36-6.57C1647.62,634.57,1644.35,635.18,1640.24,635.7Zm-55.16,10.2c-1.18-10.07-7.87-12.32-12.85-11.46-6.1,1-9.41,6-9.41,14.15,0,7.72,3.18,12,9.74,13,6.26,1,10-1.43,12.63-9.63-2.88,1.42-4.93,2-6.42,3.27q-4.66,3.93-8.8-.13c-3-2.92-2.85-9.82.13-13,2.81-2.95,5.7-2.69,8.74-.08C1580.31,643.37,1582.18,644.17,1585.08,645.9Zm-24.56,6c-2.88,1.49-4.91,2.15-6.45,3.42-3.14,2.6-6.08,2.45-8.79-.26-2.93-2.94-2.74-9.91.25-13s5.74-2.55,8.75.06c1.45,1.26,3.35,2,6.12,3.61-2-9-5.48-12-11.73-11.43s-10.07,5.11-10.44,12.59c-.44,8.86,2.73,13.62,9.79,14.71C1554.26,662.6,1558,660.08,1560.52,651.9Zm109.18-23.15s-2.13.74-2.22,1.67c-.36,3.9-7.48,7.77-.29,11.88.43.24.09,1.85.09,2.82,0,2.93-.07,5.85,0,8.77.23,6.91,3.4,8.85,11.41,5.94-8.91-4.54-6.09-12-6.06-18.14a38.11,38.11,0,0,0,4.94-3.93c.3-.33-.52-2.07-1.21-2.81C1674.7,633.16,1672.79,631.59,1669.7,628.75Zm-308.62,3.86c-.28-1.16,1.22-5.81-4.47-3.61-.09,1.41.34,3.44-.36,4-3.81,2.94-6.21,5.47,0,8.44.49.24.19,2.21.2,3.38,0,3.51,0,7,0,10.52,0,5,3.07,6.35,7.34,6,1-.07,1.85-1,2.77-1.45-.54-.9-1-2.44-1.65-2.58-4.1-.83-3.75-3.83-3.72-6.8,0-3.28,0-6.56,0-8.35l5.45-4.78Zm-67.39,29.62c4.49-8.7-4.37-20.22,10-22.58-.09-1.69-.18-3.34-.27-5.21-3.29.24-6.23,1-9,.53-3.2-.54-4.36.26-4.34,3.37,0,6.39-.19,12.81.16,19.19C1290.33,659,1292.28,660.39,1293.69,662.23Z" transform="translate(-36.5 -13.5)"/><path class="cls-1" d="M1753.82,394c-14.65,0-29.3-.07-44-.07h-522c-2.74,0-5.47.05-8.2.07-3.81.28-3.81-2.23-3.8-5,.05-13.67,0-27.35,0-41,0-26.37-.18-52.75.16-79.12.07-4.83,2.26-9.63,3.84-15.92-4.37-3.32-4.08-10.11-4-17,.11-36.72,0-73.45.06-110.17,0-9,3-12,11.81-12q279,0,558.1,0c8.85,0,11.81,3,11.82,12,0,37.5-.08,75,.08,112.52,0,6.11-.43,11.71-6.24,16.1,6.32,4.38,6.24,10.5,6.22,16.86-.12,38.87-.05,77.75-.09,116.62C1757.56,390.5,1758.73,394.16,1753.82,394Zm-287.09-2.42q141,0,282,.1c5,0,6.71-1,6.67-6.39-.23-39.26-.12-78.52-.13-117.79,0-8.55-2.18-10.75-10.67-10.75H1188.85c-8.47,0-10.65,2.21-10.65,10.78q0,58.31,0,116.62c0,7.43,0,7.43,7.74,7.43Zm.65-275.53q-139.52,0-279,0c-8.29,0-10.15,1.78-10.15,9.76q0,57.72,0,115.45c0,7.71,1.93,9.62,9.71,9.62h557.47c8.12,0,9.86-1.79,9.86-10.06q0-56.84,0-113.68c0-9.8-1.31-11.09-11.18-11.09Q1605.73,116,1467.38,116Z" transform="translate(-36.5 -13.5)"/><path class="cls-1" d="M385.62,85.72h18v31.82c6.37-6.8,13.12-9.5,21.05-9,13.82.9,22.15,7.92,26,22.68a55.91,55.91,0,0,1-2.87,36.6c-7.69,18.13-31.57,20.13-43.56,8-.48,2-.87,3.72-1.32,5.62H385.62Zm47.67,60.8c-1.15-4.45-1.86-9.08-3.56-13.32-1.91-4.76-6.13-6.73-11.25-6.85-5.3-.12-9.42,1.74-12.17,6.45-5.54,9.47-3.86,23.42,3.86,31.33,4.88,5,11.21,4.82,16,.08C431.19,159.29,432.76,153.4,433.29,146.52Z" transform="translate(-36.5 -13.5)"/><path class="cls-1" d="M622.45,86.17h17.68v48.26l1.55.59c4.37-5.57,9.06-10.92,13.05-16.75,4.39-6.41,9.81-9.39,17.68-8.2,3.76.57,7.67.1,12.93.1-7.23,8.45-13.39,16.09-20.07,23.24-3.19,3.41-3.72,5.81-1.15,10,7.5,12.24,14.41,24.84,22.08,38.24-7.59,0-14.14.2-20.67-.16-1.44-.08-3.24-1.89-4.07-3.36-4.73-8.49-9.22-17.1-13.92-25.92-12.52,7.21-5,19.37-8.09,29.09h-17Z" transform="translate(-36.5 -13.5)"/><path class="cls-1" d="M232.05,181.67c-6.28,0-10.56-.13-14.83,0-4.59.17-9,.33-7.65-7.43-8.6,7.34-17.09,11.14-27.27,9-9.6-2-15.44-8.06-16.26-16.69-1.21-12.75,2.8-21.36,12.84-24.72,6.94-2.32,14.4-3.08,21.64-4.54,3.68-.75,7.91-1.33,7.54-6.34s-4.53-5.8-8.62-6c-5.49-.23-10.62.19-12.7,6.72a4.54,4.54,0,0,1-3.38,2.34c-4.84.26-9.69.1-14.47.1-1.31-11.28,4.64-20.87,15-23.91a48.71,48.71,0,0,1,29.36.34c9.59,3.14,13.45,8.31,13.74,18.62.24,8.58-.11,17.18.13,25.75C227.31,163.73,225,172.82,232.05,181.67Zm-24.27-33.32c-2.64.61-5.29,1.21-7.93,1.84s-5.34,1.14-7.92,2c-6.39,2.08-8.4,5.93-6.48,12.06,1.55,5,5.68,6.78,11.74,5.11C205.62,167,209.32,159.69,207.78,148.35Z" transform="translate(-36.5 -13.5)"/><path class="cls-1" d="M574.3,184c-24.1.21-35.23-16.2-34.9-39.62.19-13.42,4.58-25.83,17.6-32.87,14.64-7.91,37.18-4,45.24,8.43,8.3,12.75,10.57,26.73,5.31,41.33C601.64,177.71,592,184.11,574.3,184Zm-16.15-38.27c.56,7.26,2.23,13.54,7.61,18.71,4.75,4.56,12.81,4.87,17.4.09,7.81-8.13,9.87-21.36,4.82-31.34-2.72-5.36-7.05-8.05-13.16-8.08-6.31,0-11.13,2.49-13.49,8.33C559.76,137.35,559.18,141.64,558.15,145.75Z" transform="translate(-36.5 -13.5)"/><path class="cls-1" d="M374.18,151.09H328.32c-1,11.67,8.21,19.89,18,16.66,1.09-.36,2.64-.7,3.07-1.52,5.64-10.91,15.34-5.46,23.64-6.79-1.45,13-10.86,21.92-24.72,24.13-21.45,3.44-37.61-9.36-39.44-31-.8-9.51.08-18.58,4-27.41,5.47-12.36,15.83-17,28.22-17s23.24,4.07,28.8,16.92A53.12,53.12,0,0,1,374.18,151.09Zm-19.92-12.86c-1.36-9.25-5.66-13.23-13.7-13.07-6.9.14-11.17,4.82-11.78,13.07Z" transform="translate(-36.5 -13.5)"/><path class="cls-1" d="M495.74,185.07c-29.44-.16-38.92-27.31-34.16-49.31,5.39-25,31.68-36.4,53.63-23.18,11.82,7.12,15.62,19.16,15.85,32,.26,14.59-3.14,28.26-17.54,35.56C508.14,182.89,501.69,183.5,495.74,185.07Zm-16.32-39.8c.49,9.59,1.8,13.06,7.95,19.63,3.64,3.89,12.64,4.24,16.4.64,8.11-7.76,10.49-22.27,5.27-32.37-2.88-5.56-7.41-8.2-13.76-8-6.14.14-10.6,2.91-12.87,8.41C480.88,137.22,480.38,141.34,479.42,145.27Z" transform="translate(-36.5 -13.5)"/><path class="cls-1" d="M301.83,136.63c-5.35,0-10.43.29-15.44-.18-1.49-.14-3.37-2.16-4-3.75-1.78-4.25-4.78-6.7-9.19-7.13A11.84,11.84,0,0,0,261.58,131c-4.94,7.3-4.43,24.92.87,31.89,5.85,7.7,15.79,6.83,18.9-2.31,1.81-5.31,4.39-6.37,9.19-5.92,3.65.34,7.36.06,11.55.06-.75,10.88-4.76,19.19-13.7,24.82-14.31,9-36.92,5.06-44.17-8.76-8.86-16.88-8.24-34.43,1.69-50.76,6-9.78,16.44-11.81,27.22-11.76a45.09,45.09,0,0,1,7.57.84C294.36,111.58,302.08,121.3,301.83,136.63Z" transform="translate(-36.5 -13.5)"/><path class="cls-1" d="M366,384.07c-5.76,1.55-8.77.18-9.57-6.15-.69-5.51-2.88-10.83-5.69-16.52-1,3.71-2.06,7.43-3.08,11.14s-2,7.46-3.16,11.59H336.8l-9.36-34.76h7.65c1.79,7.37,3.59,14.82,5.39,22.28h1.11l6-22.06c5.66-1.89,8.36-.07,9.36,5.66a55,55,0,0,0,5.49,16c1.75-7.22,3.49-14.44,5.3-21.91h7.55C372.16,361,369.11,372.43,366,384.07Z" transform="translate(-36.5 -13.5)"/><path class="cls-1" d="M1067.87,273V257h7.41v47c-6.33,1.34-6.33,1.34-7.87-2.42-12.15,7.72-22.35,2.95-24-11.29a35.49,35.49,0,0,1-.13-5.26c.18-6.14,1.81-11.67,7.58-14.86C1056.8,266.92,1062.37,268.49,1067.87,273ZM1051,288a46.36,46.36,0,0,0,2.77,7.54c2.12,4,8.51,4.51,10.79.73a23.11,23.11,0,0,0,3.19-9.76c.51-6.44-3.47-11.13-8.51-11.07S1051.12,279.73,1051,288Z" transform="translate(-36.5 -13.5)"/><path class="cls-1" d="M523.66,301.05v14.58h-7.38V268.88l9.66,2.38c3-2.82,8.32-4.05,14.07-1.45,5.58,2.53,7.89,7.57,8.16,13.25a41.54,41.54,0,0,1-1.29,13.26C544.52,304.47,534.16,309.07,523.66,301.05Zm16.82-14.74c0-6.51-3.17-10.77-8-10.9-5.11-.14-8.69,4.37-8.7,10.95,0,7.09,3.83,12.52,8.74,12.32C537.17,298.49,540.5,293.33,540.48,286.31Z" transform="translate(-36.5 -13.5)"/><path class="cls-1" d="M578.07,348.34,588,351c10.17-6.49,20.25-1.76,22.17,11.86a24.52,24.52,0,0,1-5.43,19.09c-3.9,5-13.7,4-19-2.3v15.76h-7.65Zm24.3,17.87c0-6.78-3.26-11.13-8.39-11.07-4.87.06-8.23,4.33-8.35,10.63-.13,6.47,3.32,11.3,8.2,11.48S602.33,372.87,602.37,366.21Z" transform="translate(-36.5 -13.5)"/><path class="cls-1" d="M688.39,348.45,698.2,351c10.39-6.52,20.5-1.69,22.25,12.26.87,7-1.23,13.15-5.35,18.57-3.81,5-13.45,4.16-19.26-1.77v15.28h-7.45Zm24.22,17.63c0-6.75-3.36-11.07-8.51-10.94-4.84.13-8.15,4.46-8.23,10.75-.08,6.47,3.45,11.27,8.33,11.36S712.62,372.77,712.61,366.08Z" transform="translate(-36.5 -13.5)"/><path class="cls-1" d="M278,302.72l-9.51,2.92V256.93h7.26v14.6c.78.27,1.25.6,1.46.48,11.86-7.07,21.84-2.36,23.14,11.41a36,36,0,0,1-1.7,13.75C296.08,305.35,284.84,308.38,278,302.72Zm14.71-16c.1-6.81-3.16-11.27-8.26-11.29-4.91,0-8.34,4.27-8.48,10.59-.16,7,3.54,12.63,8.36,12.69S292.61,293.8,292.72,286.7Z" transform="translate(-36.5 -13.5)"/><path class="cls-1" d="M168.29,257.42c7.63-2.78,9.83,1,11.64,6.45,4.48,13.46,9.4,26.78,14.17,40.23-8.35,1.42-8.8,1.53-10.59-6.46-1.24-5.48-3.67-7.68-9.12-6.67a8.42,8.42,0,0,1-2.92,0c-5.37-.89-8,1-9.14,6.7-1.58,7.91-2.1,7.8-10.69,6.49Zm4.6,8.36-6.27,18.68h12.62C177.19,278.44,175.3,272.88,172.89,265.78Z" transform="translate(-36.5 -13.5)"/><path class="cls-1" d="M417.75,335.4H425v16.81a51.15,51.15,0,0,1,4.57-2.76c8.69-4,17.45,1.22,17.92,10.93.37,7.77.07,15.57.07,23.75h-7.47c0-4.32,0-8.74,0-13.16,0-2.53.08-5.08-.17-7.59-.42-4.4-1.88-8.11-7.22-8.21-4.25-.09-7.31,3.37-7.43,8.69-.15,6.61,0,13.23,0,20.25h-7.44Z" transform="translate(-36.5 -13.5)"/><path class="cls-1" d="M217.5,384.37h-7.8c0-4.5,0-8.9,0-13.29,0-2.54,0-5.07-.09-7.6-.2-4.55-1.76-8.28-7-8.23s-7.37,3.69-7.51,8.54-.06,9.75-.07,14.62c0,1.9,0,3.8,0,5.91h-7.41V335.47h7.31v16.59c1.62-1,2.52-1.59,3.48-2.09,9.35-4.85,18.43.23,19,11C217.85,368.56,217.5,376.16,217.5,384.37Z" transform="translate(-36.5 -13.5)"/><path class="cls-1" d="M498.39,335.55v16.31c2.15-1.09,3.74-2.08,5.45-2.73,7.91-3,15.75,1.11,16.51,9.49s.17,16.71.17,25.49h-7.31c0-6.37.08-13,0-19.53-.1-6.35-2.49-9.38-7.16-9.42-4.47,0-7.49,3.34-7.68,9.22-.21,6.6,0,13.2,0,20H491.1V335.55Z" transform="translate(-36.5 -13.5)"/><path class="cls-1" d="M435.89,304.58h-7.31V256.87h7v15.78c1.7-1,2.72-1.74,3.79-2.34,8.61-4.82,17.92.05,18.83,9.85.16,1.74.18,3.51.18,5.26,0,6.24,0,12.47,0,19h-7.47c0-5.7,0-11.32,0-16.95a31.64,31.64,0,0,0-.26-5.25c-.73-4-2.75-7.08-7.34-6.8-5,.31-7.16,3.79-7.34,8.28C435.68,290.52,435.89,297.34,435.89,304.58Z" transform="translate(-36.5 -13.5)"/><path class="cls-1" d="M380,304.43V257h7.6v24.8c7.67-3.94,10-15.71,21.76-11.86l-13.08,14L410,304.34c-5.27,1.07-9.46,1.06-12.27-4.08-2.07-3.79-4.81-7.21-7.25-10.79l-2,.28-1.11,14.68Z" transform="translate(-36.5 -13.5)"/><path class="cls-1" d="M252.26,384.36H244.8c-.14-1.44-.28-2.74-.44-4.38-.47.51-.81.82-1.1,1.18-3.43,4.33-8.41,4.77-12.72,3.11-2.91-1.13-5.72-4.53-6.95-7.58-2.4-5.94.47-10.87,6.81-12.48,4.48-1.14,9.18-1.44,15.25-2.33-1.82-2.59-2.89-5.77-4.68-6.25-2.41-.64-5.46.54-8.08,1.41a63.13,63.13,0,0,0-7.43,3.45l-1.66-2c1.55-2.44,2.58-5.54,4.73-7.17,5.42-4.1,11.66-4.08,17.75-1.36,5.3,2.37,6,7.18,6,12.31C252.22,369.46,252.26,376.67,252.26,384.36Zm-7.83-16.45c-3.52.44-7,.51-10.27,1.47-1.44.42-3.54,3-3.25,3.95a6.89,6.89,0,0,0,4.14,4C240.13,378.69,244.11,374.75,244.43,367.91Z" transform="translate(-36.5 -13.5)"/><path class="cls-1" d="M310.13,368.22h-23l-1.25,1.42c2,2.43,3.64,5.88,6.24,7,2.29,1,5.77-.47,8.58-1.31a93.93,93.93,0,0,0,9.11-3.84c-2.5,11.14-8.81,15-18.92,13.21-7.69-1.39-13.23-11.17-12-21.19s7.92-16,17.18-15.18C305.49,349.08,310.34,355.68,310.13,368.22Zm-23.45-6h15.64c-.86-4.52-3-7.11-7.29-7.29C290.47,354.71,288,357.32,286.68,362.18Z" transform="translate(-36.5 -13.5)"/><path class="cls-1" d="M621.28,369.77c2.08,2.39,3.75,6,6.35,6.85s6-.95,9-1.8c2.68-.76,5.28-1.8,8.65-3-2.79,10.91-9,14.7-19.09,12.8-7.8-1.47-13.34-11.73-11.81-21.88,1.47-9.66,8.18-15.29,17.23-14.46,9.47.87,14.39,7.67,13.88,19.67H622.92Zm16.34-7.45c-.69-5-3.18-7.55-7.69-7.43s-6.94,2.7-7.54,7.43Z" transform="translate(-36.5 -13.5)"/><path class="cls-1" d="M994.78,282.05c-2.16-2.81-3.3-5.79-5-6.15-2.48-.53-5.44.6-8,1.46a84.44,84.44,0,0,0-8.17,3.7c.64-8.76,5.22-12.51,13.53-12.58,8-.07,13.6,3.74,13.89,10.29.37,8.52.09,17.06.09,26.64l-9.18-2.21c-3.06.56-6.77,1.8-10.48,1.79-5.56,0-9-3.72-9.59-9.05-.64-6.24,1.45-9.9,7.37-11.42C983.65,283.37,988.33,283,994.78,282.05Zm-1.36,6.12c-3.64.43-6.94.21-9.67,1.36-1.74.72-3.85,3.67-3.57,5.23s3.09,3.76,5,4C990.05,299.46,992.55,296.11,993.42,288.17Z" transform="translate(-36.5 -13.5)"/><path class="cls-1" d="M896.36,288.47H873.08c.15,4.68,1,8.71,5.67,10,3.71,1,7,.36,9.31-3.75.91-1.59,4.57-1.62,7.18-2.42,0,8.56-5.32,13-14.41,12.94-10.21,0-15.72-6.35-15.89-18.17-.16-11.31,5.9-18.5,15.68-18.62C890.63,268.36,896.15,275,896.36,288.47Zm-7.73-5.85c-1.27-5.31-3.91-8-8.73-7.38-4,.48-6.49,2.75-6.5,7.38Z" transform="translate(-36.5 -13.5)"/><path class="cls-1" d="M495.08,288.39h-23c-.14,4.63.72,8.54,5.22,10,3.64,1.18,6.9.66,9.42-3.37,1.08-1.72,4.77-1.81,7.69-2.78-.7,9.38-6.53,13.63-16.18,12.95-10.08-.7-15.1-7.93-14.39-20.71.56-9.91,7.2-16.36,16.48-16C490.13,268.91,495.41,275.77,495.08,288.39Zm-7.76-5.87c-.72-4.73-3.1-7.4-7.64-7.37s-7,2.53-7.59,7.37Z" transform="translate(-36.5 -13.5)"/><path class="cls-1" d="M557.89,371.59c-3.57,11.33-9.1,14.73-18.94,13.09-7.24-1.2-12.89-9.87-12.49-19.18.36-8.24,4-14,10.18-16.24,12.43-4.44,22.22,4.21,20.79,18.93H532.57c2.95,3.67,4.51,7.42,7,8.23,2.7.87,6.33-.87,9.48-1.72C551.66,374,554.14,372.93,557.89,371.59Zm-7.76-9.26c-1.13-5.07-3.5-7.68-8.07-7.44-4.41.23-6.75,2.84-7.36,7.44Z" transform="translate(-36.5 -13.5)"/><path class="cls-1" d="M747,369.77c2.13,2.4,3.87,6,6.51,6.87s6-1,9-1.84c2.7-.76,5.31-1.78,8.73-3-3.2,11-8.72,14-18.67,13-6.59-.69-12.93-10.13-12.6-19.21.46-12.95,10.13-20.33,21.52-16.44,7.09,2.42,10.3,8.57,9.57,18.81H748.42Zm.92-7.46h15.27c0-4.7-2.45-7-6.6-7.4C751.72,354.5,749.22,357.34,747.87,362.31Z" transform="translate(-36.5 -13.5)"/><path class="cls-1" d="M261.92,288.59H238.67c.51,4.63,1.35,8.76,6,10,3.74,1,7,.2,9.29-3.92.86-1.53,4.55-1.48,7.21-2.22-.51,9.11-6.22,13.39-15.79,12.8-10-.61-15.39-7.92-14.79-19.87.55-10.66,7.28-17.38,16.88-16.83C257.25,269.07,262.47,276,261.92,288.59Zm-7.62-6c-1.12-5.08-3.54-7.69-8.1-7.43-4.37.26-6.78,2.8-7.25,7.43Z" transform="translate(-36.5 -13.5)"/><path class="cls-1" d="M233.71,450.27H208.88c2.6,3.56,3.87,7.08,6.19,8,2.57,1,6.18,0,9.16-.77s5.42-2.4,9-4.06c-1.2,8-8.84,14.11-15,13.55-10.06-.9-16.73-9.82-15.64-20.92,1-10.37,7.87-16.57,17.37-15.7S234.42,438.19,233.71,450.27Zm-7.61-5.86c-1-5.08-3.46-7.67-8-7.43-4.39.22-6.84,2.75-7.31,7.43Z" transform="translate(-36.5 -13.5)"/><path class="cls-1" d="M904.85,385c-10.68.8-16.42-10.3-16.29-19.29.16-10.58,6.53-17.45,16.25-17.54,10-.09,16.48,7,16.55,17.79C921.43,375,915.54,386,904.85,385Zm-8.29-18.92c0,7.78,5,12.85,10.69,11,4.86-1.6,7.47-8.14,5.75-15-1.17-4.63-3.91-7.62-9.16-7C899.31,355.61,896.56,359.88,896.56,366.12Z" transform="translate(-36.5 -13.5)"/><path class="cls-1" d="M858,395v-5c8.54-1.75,9.71-3.63,6.83-11.84-3.33-9.5-6.88-18.91-10.51-28.83h8.4c2.43,7.71,5,15.8,8.13,25.76,3.11-9.7,5.71-17.8,8.33-25.95h8c-1.41,4.09-2.7,7.81-4,11.53-2.89,8.46-5.6,17-8.7,25.35S867.38,396.56,858,395Z" transform="translate(-36.5 -13.5)"/><path class="cls-1" d="M337.27,286.24c.05,12.22-5.85,19.08-16.4,19.07s-16.51-7-16.41-19.11c.09-10.62,6.43-17.57,16.16-17.72C330.6,268.32,337.23,275.39,337.27,286.24Zm-8,.6c0-7.3-3.24-11.6-8.45-11.56s-8.42,4.44-8.35,11.28a11.18,11.18,0,0,0,.31,3.49c1.49,4.16,2.48,9,8.45,8.75,5.54-.25,6.43-4.84,7.73-8.88A12.91,12.91,0,0,0,329.28,286.84Z" transform="translate(-36.5 -13.5)"/><path class="cls-1" d="M787.65,286.47c-.06,12.21-6,19-16.63,18.84-10.31-.13-16.1-6.84-16.19-18.77-.08-10.82,6.49-18.05,16.4-18.06S787.7,275.57,787.65,286.47Zm-8,.36c0-7.3-3.25-11.6-8.46-11.55s-8.41,4.45-8.34,11.29a11.18,11.18,0,0,0,.31,3.49c1.49,4.16,2.49,9,8.46,8.74,5.54-.26,6.42-4.85,7.72-8.89A13,13,0,0,0,779.66,286.83Z" transform="translate(-36.5 -13.5)"/><path class="cls-1" d="M947.8,383.36c-11.62,5.39-20.46.9-21.08-12.06-.35-7.16-.07-14.35-.07-21.9h7.61q0,9.54,0,19.08c0,4.54,1.22,8.26,6.49,8.72,4.31.37,7.54-3,7.76-8.36.25-6.38.06-12.77.06-19.49h7.61V385Z" transform="translate(-36.5 -13.5)"/><path class="cls-1" d="M598.24,269.54h8.2l8.18,26,8.18-25.92h8.25c-4.89,13.72-9.34,27.12-14.52,40.24-2.2,5.6-6.38,6.66-14.9,5.61-.14-1.54-.3-3.18-.46-4.84a6.74,6.74,0,0,1,1.72-.87c7-.94,8.17-2.88,5.83-9.65C605.28,290.18,601.91,280.26,598.24,269.54Z" transform="translate(-36.5 -13.5)"/><path class="cls-1" d="M692.54,269.52h7.17V305L692,303.49l.42-1.27c-2.88,1-5.7,2.43-8.65,2.81-8,1-12.87-3-13.22-11s-.08-16-.08-24.36H678c0,6-.09,11.94,0,17.92.14,7.65,2.25,11,6.66,11.1,4.73.07,7.73-4.31,7.89-11.61.06-2.92,0-5.85,0-8.78Z" transform="translate(-36.5 -13.5)"/><path class="cls-1" d="M650.05,366.29c-.09-11.08,6.2-18.08,16.24-18.08,9.84,0,16.05,6.71,16.28,17.51.2,9.73-5.91,19.85-16.28,19.38C656.66,384.66,650.13,377.5,650.05,366.29Zm7.62,0c.09,6.51,3.79,11.21,8.77,11.13s8.49-4.83,8.45-11.39-3.59-11.13-8.73-11S657.58,359.74,657.67,366.28Z" transform="translate(-36.5 -13.5)"/><path class="cls-1" d="M793.45,268.79l8,1.92c-.15.35-.29.7-.43,1.05,2.49-1,4.89-2.49,7.48-3,7.8-1.53,13.51,3.2,14.24,11.46.11,1.16.08,2.34.08,3.51,0,6.79,0,13.59,0,20.71h-7.6c0-6.4.08-12.79,0-19.18-.12-7.24-2.16-10-7.07-9.88-4.59.11-7.42,3.77-7.5,10s0,12.44,0,19h-7.18Z" transform="translate(-36.5 -13.5)"/><path class="cls-1" d="M814.31,384.38h-7.52V348.14c2.9,1.08,5.25,2.12,7.7,2.78.81.22,1.94-.39,2.81-.82,9.64-4.82,18.08-.54,18.79,10,.53,7.92.11,15.9.11,24.11h-7.55c0-6.72,0-13.3,0-19.88,0-4.58-.6-8.82-6.48-9.19-4.79-.31-7.71,3.16-7.84,9.42S814.31,377.4,814.31,384.38Z" transform="translate(-36.5 -13.5)"/><path class="cls-1" d="M632.46,286.27c0-11,6.43-17.92,16.49-17.77,9.82.14,15.94,6.9,16,17.7.1,12.27-5.68,19.06-16.24,19.08S632.42,298.64,632.46,286.27Zm24.83-.06c-.07-6.61-3.61-11-8.73-11S640,280,640.08,286.5c.07,7.1,3.87,12.44,8.79,12.35S657.37,293.34,657.29,286.21Z" transform="translate(-36.5 -13.5)"/><path class="cls-1" d="M341.59,286.22c.05-11,6.47-17.9,16.54-17.72,9.81.17,15.91,6.94,16,17.75.08,12.27-5.71,19-16.29,19S341.53,298.59,341.59,286.22Zm24.84.25c0-6.58-3.42-11.16-8.49-11.22s-8.67,4.43-8.73,11c-.06,6.83,3.8,12.53,8.54,12.61S366.39,293.59,366.43,286.47Z" transform="translate(-36.5 -13.5)"/><path class="cls-1" d="M154.39,371.63c2.57,1.37,5,3.09,7.77,4a27.39,27.39,0,0,0,8.72,1.34c.85,0,2.22-2.15,2.37-3.44.11-.88-1.29-2.49-2.34-2.87-3.1-1.12-6.41-1.65-9.55-2.67-4.43-1.42-7.51-4-7.4-9.22s2.91-8.19,7.72-9.68C171.63,346,180,350.56,180,360.85c-3-1.61-5.29-3-7.74-4.06-2.18-.91-4.55-1.87-6.83-1.84-1.23,0-3.28,2-3.41,3.2s1.6,3.08,2.94,3.64c2.84,1.2,6.32,1.15,8.88,2.7,2.88,1.74,6.92,4.59,7,7.12.18,3.69-1.67,8.76-4.46,11.06-8.31,6.87-21.1,1.36-23.18-9.33Z" transform="translate(-36.5 -13.5)"/><path class="cls-1" d="M579.77,281.2c-3.13-1.68-5.42-3.12-7.87-4.15a18.23,18.23,0,0,0-6.84-1.82c-1.23,0-3.29,1.93-3.42,3.14s1.58,3.11,2.9,3.65c3,1.24,6.35,1.79,9.52,2.71,4.1,1.19,6.84,3.62,7.13,8.16.29,4.7-1.35,8.36-5.63,10.67-10.2,5.51-22.1.25-22.55-10.27h7.09c.83,5.11,4.33,6.69,8.91,5.5a6.32,6.32,0,0,0,3.76-4.05c.24-1.11-1.57-3.33-3-4-2.6-1.2-5.58-1.58-8.38-2.38-4.77-1.36-8-4.16-7.89-9.46s3.37-8.29,8.43-9.79C569.27,267,580.66,270.29,579.77,281.2Z" transform="translate(-36.5 -13.5)"/><path class="cls-1" d="M1037.64,304.68h-7.41c0-6.61.3-13.18-.14-19.7-.19-2.87-1.09-6.49-3-8.29-4.25-3.95-10.86-.12-11.31,6.65-.46,7-.1,14-.1,21.22h-7.24V268.74c2.63.77,5,1.62,7.36,2.09a5.75,5.75,0,0,0,3.28-.66c9.93-4.62,18.27.34,18.56,11.29C1037.8,289,1037.64,296.6,1037.64,304.68Z" transform="translate(-36.5 -13.5)"/><path class="cls-1" d="M859.38,304.57H852c0-6.73.09-13.3,0-19.87-.08-4.48-.61-8.87-6.53-9.26-4.76-.32-7.9,3.16-8.09,9.33-.2,6.42,0,12.86,0,19.65h-7.21V268.69c2.7.88,5.09,1.81,7.56,2.39a5.19,5.19,0,0,0,2.92-.72c10.43-4.86,18.54,0,18.81,11.37C859.52,289.13,859.38,296.54,859.38,304.57Z" transform="translate(-36.5 -13.5)"/><path class="cls-1" d="M750.85,281.09c-3.39.37-6.3,1.09-8.81-3-2.91-4.74-9.61-3.66-12.53,1.38-2.73,4.72-2,13.09,1.59,17.12,2.92,3.32,9.41,3.09,10.86-1,1.81-5,5-4.42,8.78-3.81-.48,9-5.47,13.57-14.58,13.49q-15.23-.15-16.16-18.05c-.53-10.32,5.12-17.54,14.42-18.66C742.78,267.59,751.38,273.2,750.85,281.09Z" transform="translate(-36.5 -13.5)"/><path class="cls-1" d="M931.65,281.05c-3.38.24-6.37,1.43-8.91-2.85-2.87-4.81-9.55-3.85-12.54,1.16-2.77,4.65-2.08,13,1.42,17.14,2.83,3.37,9.53,3.27,10.92-.75,1.75-5.05,4.93-4.56,8.69-4-.08,8.4-4.66,13.08-13.14,13.5-10.65.53-16.33-5.12-17.38-17.3-.89-10.3,4.47-17.88,13.62-19.26S929.9,271.87,931.65,281.05Z" transform="translate(-36.5 -13.5)"/><path class="cls-1" d="M226.73,281.08c-3.51.55-6.31.81-8.81-3.14-3-4.69-9.68-3.41-12.47,1.76-2.49,4.61-1.79,12.56,1.46,16.65,2.76,3.46,8.78,3.26,11.2-.36,3.1-4.63,3.1-4.63,8.37-4.17.48,7.71-4.26,12.81-12.46,13.4-10.85.79-17-5-17.73-16.78s4.67-19.1,14.76-19.89C219.86,267.87,226.06,272.78,226.73,281.08Z" transform="translate(-36.5 -13.5)"/><path class="cls-1" d="M201.38,437l-6.8.44V465.2h-7.33V437.76L181,436.51l4.65-6.92c1.18-13,6.25-13.67,15.31-12.32.78,2.81,1.14,4.81-3,5.85-1.89.48-3,4.07-5.06,7.17l8.08,1.22C201.11,433.1,201.22,434.78,201.38,437Z" transform="translate(-36.5 -13.5)"/><path class="cls-1" d="M470.63,357l-5.07-4.28c1.17-1.3,2.76-2.41,3.41-3.92a65.86,65.86,0,0,0,2.39-8.41h6.52c.19,2.72.37,5.36.56,8.22l5.75.72c.17,1.6.34,3.24.56,5.31l-6.55.89c0,5.84-.43,11.84.23,17.73.23,2.06,3.12,3.83,5.93,5.05,0,1.9,0,3.79,0,5.69-8.57,2.73-13.11-.06-13.65-8.91C470.32,368.89,470.63,362.64,470.63,357Z" transform="translate(-36.5 -13.5)"/><path class="cls-1" d="M397.08,355.21c-5.47.84-5.26-2.15-4.36-5.74l4.45-1.11v-8h7.53c.2,2.71.4,5.36.61,8.23l5.6.76c.13,1.61.26,3.28.42,5.33l-6.22.92c0,5.93-.35,11.95.2,17.9.17,1.89,2.72,3.56,4.18,5.32l1.42-.78v6.24c-9.19,2.17-13.33-.71-13.77-10C396.85,368.21,397.08,362.15,397.08,355.21Z" transform="translate(-36.5 -13.5)"/><path class="cls-1" d="M938.93,275.87l-4.62-.82V269.8l4.41-1c.12-2.57.23-5.07.36-8h7.49c.22,2.73.44,5.38.66,8.16l5.62.66c.09,1.72.18,3.42.29,5.42l-6.1.79c0,6.45-.15,12.83.12,19.18.05,1.34,1.57,3.67,2.54,3.74,4.56.32,3.36,3.21,3.16,5.78-9.6,2.33-13.74-.73-13.91-10.36C938.84,288.3,938.93,282.46,938.93,275.87Z" transform="translate(-36.5 -13.5)"/><path class="cls-1" d="M409,957.5c-1.89,4.42-3.66,8.9-5.72,13.23-.65,1.38-2.06,2.39-3.13,3.56a20.21,20.21,0,0,1-3-3.76c-1.8-3.81-3.32-7.75-6.18-11.55v14.86l-1.62.74c-.78-.82-2.23-1.62-2.25-2.45-.17-8.14-.1-16.28-.1-26.06,9.44,5.26,7.8,15.55,13.26,21.39,5.42-5.75,4.06-16,13.28-21.79,0,9.89.05,18-.06,26.06,0,.85-1,1.69-1.48,2.53-.69-.88-1.92-1.75-2-2.66-.2-4.66-.1-9.34-.1-14Z" transform="translate(-36.5 -13.5)"/><path class="cls-1" d="M381.28,946.14c1.47,21.6.84,27.15-3.17,27.8v-15l-1.43-.34c-1.74,4-3.38,8-5.26,11.87a22.06,22.06,0,0,1-2.93,3.82c-1.14-1.34-2.63-2.51-3.36-4-2-4.17-3.68-8.5-6.47-12.65v16.3l-1.81.66c-.63-1.21-1.79-2.4-1.82-3.62-.16-7.6-.08-15.21-.08-25,2.71,2.19,4.87,3.1,5.62,4.68,2.73,5.78,5,11.78,7.48,17.82C373.28,961.73,372.44,951.72,381.28,946.14Z" transform="translate(-36.5 -13.5)"/><path class="cls-1" d="M155,417.42h7.13v47.66H155Z" transform="translate(-36.5 -13.5)"/><path class="cls-1" d="M259.78,348.76l7.79,1.1-.4,1.15,9.93-3.57v7.33c-8.55,1.23-10.07,3-10.12,12.07q0,8.19-.08,16.38a3.94,3.94,0,0,1-.33.91h-6.79Z" transform="translate(-36.5 -13.5)"/><path class="cls-1" d="M964.05,349.23c5.56-.91,11.48,2.52,17.32-2.53v8.15c-8.73,1.25-9.84,2.56-9.9,11.8,0,5.81,0,11.63,0,17.66h-7.41Z" transform="translate(-36.5 -13.5)"/><path class="cls-1" d="M726.8,335.48h6.81v48.67H726.8Z" transform="translate(-36.5 -13.5)"/><path class="cls-1" d="M1232.58,840.8c0-3.69.39-7.45-.17-11.06-.28-1.8-2.31-3.32-3.55-5-1.44,1.59-3.81,3-4.11,4.8-.63,3.78-.19,7.74-.19,11.64-4.46-.17-4.59-.93-3.59-19.78,4.63.68,9.2,1.44,13.8,2,.93.11,2-.61,2.94-1,6-2.61,10-.35,10.5,6.2a69.7,69.7,0,0,1,0,10.52c-.09,1.06-1.44,2-2.21,3l-1.46-.69c0-4,.34-8.14-.17-12.12-.21-1.65-2.26-3-3.47-4.57-1.47,1.52-3.77,2.83-4.22,4.6-.73,2.94-.08,6.21-.4,9.3-.13,1.21-1.3,2.32-2,3.48Z" transform="translate(-36.5 -13.5)"/><path class="cls-1" d="M508.41,304.56h-6.79V256.94h6.79Z" transform="translate(-36.5 -13.5)"/><path class="cls-1" d="M1266.72,842.11c-.68-1.14-1.82-2.24-1.93-3.44-.29-3.09.29-6.3-.28-9.31-.33-1.7-2.25-3.1-3.45-4.64-1.47,1.52-3.76,2.83-4.21,4.61-.74,2.94-.09,6.2-.41,9.28-.14,1.23-1.31,2.35-2,3.52l-1.39-.78V821.42c4.77.72,9.31,1.45,13.88,2.08a4.4,4.4,0,0,0,2-.56c8-3.2,11.21-1.08,11.33,7.53,0,3.11.12,6.24-.11,9.33-.06.7-1.35,1.31-2.07,2-.49-.68-1.38-1.33-1.41-2-.16-3.5.28-7.07-.28-10.49-.28-1.65-2.29-3-3.51-4.53-1.46,1.49-3.51,2.75-4.23,4.55s-.22,4.21-.23,6.36c0,1.92,0,3.84,0,5.76Z" transform="translate(-36.5 -13.5)"/><path class="cls-1" d="M1374.35,786.4c3.89,0,8,.16,12-.18.54,0,.87-2.53,1.4-4.2-9.2,2.25-14,.06-14.75-6.6-.54-4.8,0-10.12,5.07-11.87,3.78-1.31,8.37-.26,13.19-.26,0,7.06.16,14-.06,20.91-.15,4.49-3.43,6.25-7.4,6.92C1379.22,791.9,1376.35,790.35,1374.35,786.4ZM1390,773.5l-8.17-7.45c-1.72,2.49-4.37,4.78-4.93,7.5-.62,3.09,1.27,6.71,5.21,5.94C1384.47,779,1386.41,776.33,1390,773.5Z" transform="translate(-36.5 -13.5)"/><path class="cls-1" d="M514.3,974.61c-.68-1.1-1.83-2.14-1.94-3.29-.29-2.9.37-6-.28-8.73-.46-2-2.43-3.58-3.73-5.36-1.43,1.81-3.71,3.45-4.08,5.46-.67,3.57-.19,7.36-.19,12.88-1.92-1.89-3.47-2.7-3.57-3.65-.32-3.28.23-6.68-.29-9.91-.27-1.71-2-3.17-3.14-4.75-1.57,1.45-4,2.65-4.51,4.41-.8,2.7-.09,5.81-.42,8.7-.16,1.36-1.24,2.6-1.9,3.89-.57-1.21-1.57-2.41-1.61-3.64-.18-5.25-.08-10.51-.08-16.92,5,.9,9.73,1.81,14.45,2.51.72.11,1.56-.85,2.38-1.23,6.28-2.91,10.22-.53,10.53,6.44.13,2.92,0,5.85,0,8.78v3.48Z" transform="translate(-36.5 -13.5)"/><path class="cls-1" d="M380.18,349.26h7.23v34.92h-7.23Z" transform="translate(-36.5 -13.5)"/><path class="cls-1" d="M798.81,384.37h-7.3v-35h7.3Z" transform="translate(-36.5 -13.5)"/><path class="cls-1" d="M1481.32,762.53c.07-1.29.24-4.15.41-7l1.34-.74c.71,1.15,2,2.29,2,3.45.18,8.52.1,17,.1,25.35-3.21.31-6,.57-8.86.88-4.21.46-8.07-1.1-8.45-5.19-.44-4.69-.14-10.17,2-14.08C1471.14,763.05,1476.87,763.44,1481.32,762.53Zm2.19,11.66c-3.18-3.44-5.14-7.46-7.49-7.7-4.64-.47-5.26,4.38-5.43,7.85s1.17,7.34,5.47,6.44C1478.48,780.27,1480.35,777.12,1483.51,774.19Z" transform="translate(-36.5 -13.5)"/><path class="cls-1" d="M177.24,431.49V465H170V431.49Z" transform="translate(-36.5 -13.5)"/><path class="cls-1" d="M181.89,960.59a14.65,14.65,0,0,1-14.09,14.89,14.67,14.67,0,1,1-.5-29.34A14.76,14.76,0,0,1,181.89,960.59Zm-14.41,11.86a11.6,11.6,0,1,0-11.92-11.24A11.72,11.72,0,0,0,167.48,972.45Z" transform="translate(-36.5 -13.5)"/><path class="cls-1" d="M1200.64,765c-5.39-1.25-9.51-9.86-15.37-3.39-2.07,2.29-2.86,6.36-3,9.66-.15,4.64,1.34,9.78,7,9.69,3.64,0,7.24-2.84,11-4.48-.79,5.78-4.44,8.6-10.48,8.42-7.1-.22-11.32-5.09-11.6-13.4-.3-9.06,3.24-14.6,9.91-15.5S1199.1,757.84,1200.64,765Z" transform="translate(-36.5 -13.5)"/><path class="cls-1" d="M236.77,961.55c-.68,2.58-.72,5.9-2.33,8-1.78,2.31-5,4.83-7.6,4.84s-7-2.51-7.53-4.71a44.32,44.32,0,0,1-.89-15.84c.48-4.36,3.79-7.06,8.66-6.94,4.58.12,7,2.85,8.21,6.91C236,956.21,236.25,958.73,236.77,961.55Zm-4.13-.31c0-6.77-2.61-11.55-6-10.85-5.59,1.13-5.38,6.06-5.37,10.25,0,4.35-.38,10.38,5.51,10.51C232.84,971.28,231.56,964.84,232.64,961.24Z" transform="translate(-36.5 -13.5)"/><path class="cls-1" d="M1332.3,763.81c2.76-.32,5.54-.75,8.34-1,4.18-.32,7.43,1.14,8.3,5.56a27.81,27.81,0,0,1,.62,8.65c-.88,7-5.75,8.93-13.69,5.91-.49,2.75-1,5.49-1.48,8.23l-2.09-.32Zm16.25,10.91-7.79-8.65c-1.79,2.61-4.39,5-5.15,7.87-.88,3.31.66,7.25,4.83,6.84C1342.81,780.55,1344.91,777.57,1348.55,774.72Z" transform="translate(-36.5 -13.5)"/><path class="cls-1" d="M349.92,974.87c-1.14-1.25-2.92-2.33-3.29-3.77-1-3.9-3.43-4.44-6.91-4.43-3.32,0-5.54.55-6.36,4.29-.33,1.46-2.05,2.62-3.14,3.92l-1.79-1.13c3-8.27,6-16.57,9.1-24.8a3.14,3.14,0,0,1,2.66-1.52,4.63,4.63,0,0,1,2.53,2.52c3,7.79,5.79,15.64,8.65,23.47ZM340,952.4l-3.85,10.7h7.49Z" transform="translate(-36.5 -13.5)"/><path class="cls-1" d="M1585,784.66c-.79-1-2.24-1.91-2.26-2.89-.18-8.74-.1-17.49-.1-27.07,6.23,1.67,2.06,6.76,4.06,9.25,9.33-2.69,12.27-.52,12.52,9.38a69.7,69.7,0,0,1-.09,8.18c-.09,1-1.21,1.87-1.86,2.8-.56-1-1.53-2-1.61-3-.28-3.5.2-7.1-.51-10.48-.37-1.79-2.58-3.2-4-4.78-1.53,1.52-4.13,2.88-4.37,4.58-.63,4.37-.21,8.89-.21,13.34Z" transform="translate(-36.5 -13.5)"/><path class="cls-1" d="M1620.1,775.41h-12.64c.61,3.7.61,3.7,12.53,3.88-2.54,4.91-7.13,6.69-11.92,4.62-4.58-2-6.34-7.58-4.47-14.22,1.6-5.65,4.88-7.8,10.3-6.74C1618.79,763.92,1620.66,767.47,1620.1,775.41Zm-4-3.16,1.25-1.47c-2-1.58-3.83-4.18-5.92-4.37-1.45-.13-3.2,3.06-5.84,5.84Z" transform="translate(-36.5 -13.5)"/><path class="cls-1" d="M1412.49,775.42h-12.64c1,5.57,1,5.57,12.14,3.53-1.27,4.72-4.47,6.49-9.86,5.44-5-1-7.85-6.26-6.82-12.49,1.15-6.89,4.57-9.85,10.43-9C1411,763.6,1413.1,767.25,1412.49,775.42ZM1399,770.84l1.14,1.21h8.78l.75-1.32c-1.82-1.56-3.62-4.3-5.48-4.34C1402.47,766.35,1400.72,769.24,1399,770.84Z" transform="translate(-36.5 -13.5)"/><path class="cls-1" d="M1287.93,775.56h-13.42c2.73,9.6,8.59,3.47,13.14,3.1-1.87,5.29-5.79,7.15-11,5.56-4.77-1.45-7.15-7.2-5.67-13.71,1.34-6,4.79-8.51,10.3-7.62C1286.48,763.72,1288.6,767.57,1287.93,775.56Zm-4.13-3.26c.38-.49.75-1,1.12-1.48-1.79-1.59-3.75-4.61-5.32-4.42-2,.23-3.6,3.12-6.44,5.9Z" transform="translate(-36.5 -13.5)"/><path class="cls-1" d="M247,970.25l11.36,1.44c-.11.72-.23,1.44-.34,2.16H239.22c2.85-3.42,4.94-6,7.1-8.51,2-2.36,4.77-4.38,6-7.09.85-1.92-.32-4.73-.6-7.14a56,56,0,0,0-7,2c-1.09.45-1.79,1.81-3.25,3.39-1.71-5.36,1.08-8.05,3.95-8.7s7.32-.19,9.53,1.64c1.78,1.47,2.61,6.38,1.5,8.57C254.25,962.39,250.42,966,247,970.25Z" transform="translate(-36.5 -13.5)"/><path class="cls-1" d="M202,970c3.94,2,8.75-1.21,12.77,3.92H194.6c2-2.7,3.37-4.68,4.9-6.48,2.53-3,5.68-5.55,7.59-8.86,1-1.82,1.12-5.75-.13-7-2.27-2.34-5.24-1.52-7.21,1.66-.67,1.08-2.21,1.61-4.22,3,.39-5.73,2.77-8.81,6.76-8.89,3.1-.06,7.78,1.14,8.94,3.29,1.34,2.49.45,7.09-1,10C208.39,964.06,205,966.71,202,970Z" transform="translate(-36.5 -13.5)"/><path class="cls-1" d="M1317.68,783.72c-3.53.29-5.88.5-8.23.68-4,.3-7.68-.07-8.28-5s2.74-6.34,6.8-6.82c1.69-.2,3.4-.33,5.64-.54-1.59-11.53-7.7-2.12-11.53-2.37-.07-5.71,3.46-6.71,7.24-6.8,3.59-.08,7.23.51,7.53,5.34C1317.16,773.35,1317.41,778.54,1317.68,783.72Zm-4.23-9.87-8.59,4.26c.92,1,1.72,2.68,2.77,2.84C1311.26,781.52,1313.41,779.87,1313.45,773.85Z" transform="translate(-36.5 -13.5)"/><path class="cls-1" d="M1234.53,778.77c-2.5,5.28-6.57,7.06-11.48,5.41-4.73-1.59-6.84-7.19-5.24-13.88,1.41-5.87,4.46-8.18,9.85-7.47s7.26,3.93,6.95,12.49h-13.35C1223.88,785.1,1230.08,778.62,1234.53,778.77Zm-13.6-8.07c.34.46.69.91,1,1.36h8.79l.82-1.31c-1.77-1.56-3.54-4.31-5.32-4.33S1222.71,769.16,1220.93,770.7Z" transform="translate(-36.5 -13.5)"/><path class="cls-1" d="M464.54,965.25H451.35c1.27,5.76,1.27,5.76,12.26,3.64-1,4.58-3.79,6.26-9.2,5.51s-8-5.28-7.27-12c.67-5.85,4.22-9,9.67-8.56S464.52,957.6,464.54,965.25Zm-13.88-4.63.85,1.33h8.87l.66-1.56c-1.71-1.06-3.46-3-5.14-2.95S452.4,959.48,450.66,960.62Z" transform="translate(-36.5 -13.5)"/><path class="cls-1" d="M1439,770.2c-1.72-1.39-3.47-3.93-5.15-3.89-2.1.06-4.14,2.25-6.89,3.93-.6-5.41,2-6.88,5.61-7.25,4.08-.42,8.37-.26,8.87,5s.11,10.76.11,15.53c-2.71.31-5.24.66-7.79.89-3.84.34-7.25-.43-8-4.86s2.22-6.29,6.1-6.93c2-.33,4.1-.43,6.15-.64Zm-.45,3.54-9.2,4.48c1,1,1.85,2.58,3,2.76C1436,781.59,1438,779.67,1438.53,773.74Z" transform="translate(-36.5 -13.5)"/><path class="cls-1" d="M1365.68,772.09c-2-12.09-7.82-1.82-11.63-2.75-.24-5.17,3-6.23,6.68-6.46s7.45.28,8,4.86c.6,5.37.59,10.8.82,15.9l-8.24.76c-4.07.37-7.7-.34-8.28-5.16-.55-4.53,2.6-6.11,6.45-6.64C1361.33,772.34,1363.23,772.28,1365.68,772.09ZM1366,774l-9.31,4c.89,1,1.62,2.7,2.68,2.93C1363,781.74,1365.06,779.85,1366,774Z" transform="translate(-36.5 -13.5)"/><path class="cls-1" d="M1253.88,783.55c-2.73.31-5.27.64-7.81.87-3.85.34-7.26-.44-8-4.88s2.24-6.28,6.11-6.91c2-.33,4.1-.44,6.15-.65.33-.6.65-1.2,1-1.8-1.72-1.38-3.48-3.91-5.16-3.87-2.1.06-4.14,2.25-6.87,3.92-.61-5.42,2-6.87,5.62-7.24,4.08-.42,8.36-.24,8.86,5S1253.88,778.77,1253.88,783.55Zm-2.74-9.46-9.35,3.73c.8,1.06,1.43,2.79,2.44,3.06C1247.87,781.82,1250,780,1251.14,774.09Z" transform="translate(-36.5 -13.5)"/><path class="cls-1" d="M325.28,974.07H309.37V947.58c5.64-.27,11.15-.64,16.49.19-.11,1-.22,1.94-.34,2.92H313.08V959h12c.11.78.21,1.56.32,2.35l-12.26,1.53v7.36L326,971.72Z" transform="translate(-36.5 -13.5)"/><path class="cls-1" d="M1516.84,784.53c-6,0-9.24-3.62-9.26-10.25,0-7.67,3.08-11.59,9.2-11.6s9.43,4,9.42,11.56C1526.2,780.69,1522.71,784.53,1516.84,784.53Zm7.86-10.14-8.08-8.31c-1.76,2.66-4.35,5.12-5.06,8-.82,3.36.87,7.26,5.06,6.68C1519,780.46,1521.07,777.4,1524.7,774.39Z" transform="translate(-36.5 -13.5)"/><path class="cls-1" d="M1300.93,841.67c-2.72-.17-4.41-.57-6-.32-8.17,1.28-10.37-.35-10.72-8.37a51.94,51.94,0,0,1,0-7.59c.13-1.27,1.07-2.46,1.64-3.68.68,1.31,1.78,2.57,1.95,3.94.34,2.88-.24,5.93.41,8.71.38,1.61,2.64,4.12,3.66,3.95,1.81-.31,4.3-2.1,4.74-3.74.83-3.11.28-6.57.6-9.86.1-1,1.11-2,1.71-3,.65.94,1.83,1.86,1.86,2.83C1301,830.14,1300.93,835.76,1300.93,841.67Z" transform="translate(-36.5 -13.5)"/><path class="cls-1" d="M480.85,960.14c-1.76-1-3.51-2.72-5.28-2.74-2,0-4.1,1.47-6.95,2.63,1.05-5.78,4.69-6.09,8.3-6.07,4,0,6.8,1.86,7,6.18.17,4.62,0,9.26,0,13.5-2.87.25-5.3.41-7.72.69-4.11.48-7.75-.34-8.43-5s2.66-6.41,6.77-6.86c1.72-.19,3.46-.26,5.18-.39Zm-.49,3.63-9,4.38c1,1,1.84,2.59,2.94,2.76C477.93,971.49,480.12,969.8,480.36,963.77Z" transform="translate(-36.5 -13.5)"/><path class="cls-1" d="M1348.39,821.34c5.7,2.85,3.63,10.44,7.48,14.42,3.63-4.09,1.94-11.4,7.26-14.46l1.82.92c-2.89,7.68-5.58,15.45-8.77,23-1.3,3.07-4.19,4-9.52,2.59,10.2-4.2,5.81-9.78,3.92-15.05q-1.86-5.16-3.74-10.31Z" transform="translate(-36.5 -13.5)"/><path class="cls-1" d="M1217,831.41c.1,6.61-3.06,10.4-8.84,10.57-6.13.19-9.84-3.71-9.83-10.3,0-6.32,3.56-10.29,9.28-10.36S1216.92,825,1217,831.41Zm-1.26.1c-3.64-3.06-5.7-6.21-8.14-6.54-4.16-.56-5.34,3.33-5.27,6.81s1.19,7.35,5.51,6.49C1210.3,837.77,1212.22,834.67,1215.75,831.51Z" transform="translate(-36.5 -13.5)"/><path class="cls-1" d="M1552.89,784.68c-.55-1.22-1.48-2.41-1.58-3.67-.25-3.1.36-6.34-.3-9.33-.46-2.06-2.45-3.8-3.75-5.68-1.63,1.66-4.25,3.11-4.68,5-.9,4.1-.66,8.46-.9,12.7-3.64-.17-4.8-9.18-2.75-20.2a30.89,30.89,0,0,0,5.36,0c8.22-1.43,10.36.17,10.56,8.33.09,3.51,0,7,0,10.54a7.54,7.54,0,0,1-.4,1.64Z" transform="translate(-36.5 -13.5)"/><path class="cls-1" d="M1195.73,828.05c-4.77.22-9.14-7.52-12.73-.42a10.35,10.35,0,0,0,.36,8.62c3.59,6,7.46-1,12.05-.78-1.12,5.27-4.42,6.6-8.77,6.49-5.12-.14-7.73-3.15-8.49-7.91-1-6.25,1.44-11,6.08-12.33C1189.2,820.33,1192.88,822.14,1195.73,828.05Z" transform="translate(-36.5 -13.5)"/><path class="cls-1" d="M1447,784.06V763.82c2.77-.29,5.21-.46,7.63-.82,5.09-.76,7.89,1.14,8.35,6.3a98.15,98.15,0,0,1,.18,12.25c0,.94-1.19,1.84-1.83,2.76-.56-1-1.54-2-1.61-3-.27-3.49.22-7.09-.45-10.47-.37-1.8-2.54-3.24-3.89-4.85-1.56,1.49-4,2.74-4.48,4.5-.82,3.33-.31,7-.66,10.43-.13,1.29-1.12,2.5-1.72,3.74Z" transform="translate(-36.5 -13.5)"/><path class="cls-1" d="M1305.94,822.35c3.13-.27,5.4-.32,7.62-.69,5.37-.88,8.38,1.19,8.81,6.56a70.44,70.44,0,0,1,0,10c-.08,1.22-1.06,2.39-1.62,3.58-.64-1.12-1.71-2.2-1.83-3.38-.28-2.71.49-5.64-.28-8.14-.65-2.11-2.87-3.74-4.39-5.59-1.57,1.9-3.88,3.59-4.52,5.76-.8,2.7,0,5.82-.32,8.73-.09.92-1.32,1.73-2,2.6-.49-.87-1.39-1.73-1.41-2.61C1305.87,833.48,1305.94,827.83,1305.94,822.35Z" transform="translate(-36.5 -13.5)"/><path class="cls-1" d="M1578.64,783.46c-5.74,1.54-7.58.37-7.84-5.1-.11-2.32.24-4.7-.1-7a12.28,12.28,0,0,0-3.06-6.57c.07-.37,0-.87.23-1.08,2-1.89,4-3.72,6-5.57l4.22,6.72C1572.86,768.18,1572.84,775,1578.64,783.46Z" transform="translate(-36.5 -13.5)"/><path class="cls-1" d="M1345.28,823c-6.65,3.7-6.65,7.38-.58,18.05-6.1,1.25-7.53-.05-8.2-5.89-.46-4,2.71-9-2.89-11.61.24-.69.25-1.18.49-1.37C1336.93,820,1338.93,820.08,1345.28,823Z" transform="translate(-36.5 -13.5)"/><path class="cls-1" d="M447.89,950.5l-8.43.64c0,6.63.09,13-.07,19.44,0,1.24-1,2.44-1.57,3.66-.67-1.28-1.9-2.55-1.94-3.85-.2-6.38-.09-12.78-.09-19.59h-7.92l-.68-1.31c1-.71,1.93-1.94,3-2.07C440.34,946.2,446.58,947.25,447.89,950.5Z" transform="translate(-36.5 -13.5)"/><path class="cls-1" d="M288.09,967.54a7,7,0,0,1,1.86,0c2.41,1,4.79,2.14,7.18,3.22.82-3,2-5.95,2.37-9,.42-3.84,0-7.77.2-11.64.05-1,1.2-1.86,1.84-2.78.58.79,1.64,1.58,1.65,2.39.06,6.2.26,12.44-.27,18.61-.38,4.52-3.56,6.73-8.16,6.34C290.69,974.37,287.88,972.66,288.09,967.54Z" transform="translate(-36.5 -13.5)"/><path class="cls-1" d="M1257.89,763.92c.58-1.06,1.4-2.72,2.38-4.28a4.19,4.19,0,0,1,1.84-1.68c.36-.14,1.24.61,1.63,1.15,1.32,1.8,2.54,3.69,3.84,5.62-5.49,4.06-5.49,12.3.69,18.27-4.88,2.36-7.7,1-8-4.11-.16-2.72.23-5.49-.12-8.17C1259.86,768.61,1258.82,766.61,1257.89,763.92Z" transform="translate(-36.5 -13.5)"/><path class="cls-1" d="M1494.91,790.4c6.92-4.35,4.66-9.83,5-14.68.2-3.09-.14-6.22.13-9.29.1-1.17,1.24-2.24,1.91-3.35.58,1,1.63,2,1.65,3q.2,9.58,0,19.18C1503.45,789.52,1501.28,791.45,1494.91,790.4Z" transform="translate(-36.5 -13.5)"/><path class="cls-1" d="M269.13,952l-6.6,3.87c.23-5,3.69-7.81,10.23-8.35,0,8.13,0,16.21-.08,24.29,0,.82-1,1.63-1.56,2.44-.66-.9-1.87-1.78-1.9-2.69C269.05,965.34,269.13,959.12,269.13,952Z" transform="translate(-36.5 -13.5)"/><path class="cls-1" d="M1205.2,763.47l10.56-.46c-.08.94,0,2.52-.25,2.56-6.68,1.29-6.67,6.27-6.75,11.47,0,2.43-.93,4.84-1.43,7.26-.71-2.42-1.85-4.81-2-7.27C1205,772.61,1205.2,768.14,1205.2,763.47Z" transform="translate(-36.5 -13.5)"/><path class="cls-1" d="M167.34,420.88c2.81-1.94,4.58-4.13,6-3.94,1.62.21,4.37,2.94,4.12,4-.51,2.08-2.7,3.75-4.2,5.59Z" transform="translate(-36.5 -13.5)"/><path class="cls-1" d="M788.67,339.39c3.2-2.31,5.29-4.86,6.6-4.5,1.71.46,3.72,3.14,3.85,5,.11,1.41-2.53,4.24-3.92,4.22C793.48,344.1,791.78,341.79,788.67,339.39Z" transform="translate(-36.5 -13.5)"/><path class="cls-1" d="M390.16,339.72c-3.18,2.23-5,4.48-6.69,4.4-1.42-.07-3.9-3-3.76-4.42.19-1.82,2.34-4.44,4-4.8C385.1,334.62,387.05,337.24,390.16,339.72Z" transform="translate(-36.5 -13.5)"/><path class="cls-1" d="M244.11,468c-2.36-3.05-4.65-4.71-4.58-6.28s2.39-3.18,3.73-4.76c1.66,1.44,4.16,2.64,4.68,4.41C248.33,462.65,246.11,464.72,244.11,468Z" transform="translate(-36.5 -13.5)"/><path class="cls-1" d="M1533.58,773.75c0,2.72.13,5.44-.08,8.14-.06.84-1,1.61-1.59,2.41-.64-.72-1.8-1.43-1.82-2.17-.15-5.62-.15-11.26,0-16.88,0-.72,1.22-1.41,1.88-2.12.53.82,1.47,1.62,1.53,2.47C1533.7,768.31,1533.58,771,1533.58,773.75Z" transform="translate(-36.5 -13.5)"/><path class="cls-1" d="M1330.66,832.2c0,2.52.11,5-.07,7.56,0,.69-.92,1.32-1.41,2-.69-.66-2-1.31-2-2-.16-5.42-.13-10.86,0-16.28a1.69,1.69,0,0,1,3.37,0c.17,2.9.07,5.82.07,8.73Z" transform="translate(-36.5 -13.5)"/><path class="cls-1" d="M1438.13,466.83c2.94,1.3,4.79,2.55,6.79,2.89,2.55.42,5.62.89,7.72-.16,1.6-.8,2-3.91,3.36-6.76-12,3.2-17.92.27-18.63-8.29-.94-11.44,4.52-16.08,15.68-13.28.18,0,.38.3.5.26,11-4.26,6.38,4.8,6.74,8.52a90.33,90.33,0,0,1-.32,17.47c-.5,5.11-4.76,8.29-10.5,7.9C1444.78,475.07,1439.59,474.74,1438.13,466.83Zm17-13.86c0-5-1.66-8.06-6.1-8.58-3.65-.42-7.11,3.45-6.78,7.8.29,3.8,1.49,7.53,6.29,7.63C1453.6,459.93,1455,456.46,1455.12,453Z" transform="translate(-36.5 -13.5)"/><path class="cls-1" d="M1399.89,455.44c1.69,1,3.31,2.14,5.08,3,2.38,1.11,5,3,7.29,2.68s4.41-2.82,6.59-4.37c-1.75-1.76-3.22-4-5.32-5.14-2.7-1.41-6-1.54-8.83-2.84a8.45,8.45,0,0,1-4.09-11.85c2.84-5.64,8-6.29,13.52-5.65,5.15.59,8.68,3,9.65,10.41-2.7-1.32-4.35-2.24-6.09-2.95-2.38-1-4.86-2.52-7.24-2.42-1.79.08-3.5,2.35-5.24,3.64,1.36,1.66,2.39,3.94,4.14,4.83,2.71,1.4,6.35,1.2,8.77,2.87,2.6,1.79,5.79,4.89,5.92,7.55a12.23,12.23,0,0,1-4.59,9.09C1410.56,470.46,1402.07,467.16,1399.89,455.44Z" transform="translate(-36.5 -13.5)"/><path class="cls-1" d="M1465.71,464.59v-23.5c4.09-.49,7.9-1.26,11.72-1.33,5.37-.11,8.41,3.15,8.78,8.25.41,5.58.1,11.22.1,16.76-4,1.56-5.3.21-5.14-3.51.15-3.5.55-7.14-.21-10.48-.53-2.35-2.51-5.72-4.38-6.12-3.82-.8-6,2.31-6.23,6s.17,7.44-.23,11.1c-.17,1.47-1.75,2.78-2.68,4.17Z" transform="translate(-36.5 -13.5)"/><path class="cls-1" d="M1513.81,464.55V441.1c4.12-.5,7.93-1.28,11.75-1.34,5.38-.09,8.38,3.2,8.75,8.29.4,5.58.09,11.22.09,16.76-3.36,1.19-5.25.82-5.13-3s.53-7.52-.23-11.07c-.49-2.33-2.54-5.69-4.41-6.07-3.84-.78-5.93,2.36-6.19,6.09s.17,7.43-.24,11.09c-.16,1.46-1.77,2.75-2.72,4.12Z" transform="translate(-36.5 -13.5)"/><path class="cls-1" d="M1506.22,466c-1.07-1-3-2.06-3.08-3.13-.23-10.26-.14-20.53-.14-30.8l1.78-1c1,1.3,2.82,2.58,2.85,3.9.25,9.89.14,19.79.14,29.69Z" transform="translate(-36.5 -13.5)"/><path class="cls-1" d="M1431.74,466.06c-1.17-1.38-3.27-2.71-3.36-4.16a171.5,171.5,0,0,1-.05-18.14c.06-1.28,1.58-2.5,2.43-3.75,1,1.12,2.74,2.22,2.78,3.37.26,7.18.13,14.36.13,21.54Z" transform="translate(-36.5 -13.5)"/><path class="cls-1" d="M1409.82,661.78c-1-1.19-2.84-2.36-2.87-3.57-.22-10.52-.13-21-.13-33.42,3,2,5.38,2.8,6.56,4.45,4.06,5.69,7.68,11.69,11.53,17.53,1,1.54,2.24,2.92,4.12,5.34v-25l1.39-1.26c1.15,1.11,3.27,2.2,3.3,3.34.25,10.52.15,21,.15,33.55-3.21-2.12-5.71-3-7-4.79-5.06-6.76-9.74-13.8-15.09-21.5v23.86Z" transform="translate(-36.5 -13.5)"/><path class="cls-1" d="M1479.26,643.8c-1.74,5.85-2.83,10.18-4.37,14.36-.47,1.25-2.21,2.89-3.29,2.84a4.79,4.79,0,0,1-3.33-2.93c-2.2-7.4-4.06-14.89-6.08-22.51,3.76-1.63,5.23-.74,5.84,3,.77,4.74,2.22,9.36,3.77,15.6,1.71-6.16,2.84-10.79,4.33-15.28.52-1.56,2-2.8,3-4.19,1.21,1.45,3,2.72,3.53,4.38,1.43,4.13,2.32,8.43,3.59,13.26,4.61-5.57,1.45-14.23,7.5-18l2.67,1.13c-2.19,8.13-4.31,16.28-6.7,24.35-.22.74-2.3,1.45-3.36,1.27a4.11,4.11,0,0,1-2.63-2.4C1482.22,654.31,1481,649.84,1479.26,643.8Z" transform="translate(-36.5 -13.5)"/><path class="cls-1" d="M1285.87,651.94c-1.65,6.32-5.27,9.68-11.69,10.19-6.06.49-11.38-1.42-14.33-7-3.86-7.36-3.66-15.08,0-22.44,2.79-5.64,8.39-7.79,15.43-6.71,6.06.93,9.65,4.38,9.91,11.79-1.75-1.05-4-1.72-5.15-3.22-2.61-3.36-6.12-5.08-9.65-3.52-2.8,1.24-6.11,4.29-6.64,7a27.54,27.54,0,0,0,.84,14.08c2.25,6.13,10.5,6.67,15.08,1.88,1.44-1.5,3.43-2.47,5.16-3.68Z" transform="translate(-36.5 -13.5)"/><path class="cls-1" d="M1537.26,660.49c-3.48,1.53-5.7.78-6.23-2.81-.84-5.7-4.59-5.84-9.29-6s-6.21,1.9-7,5.74c-.78,3.61-2.88,4.83-6.5,3.16,3.68-10.44,7.29-20.91,11.13-31.29a5.55,5.55,0,0,1,3.42-3c.91-.2,2.88,1.24,3.29,2.35C1529.91,639.15,1533.54,649.8,1537.26,660.49ZM1527,647l-4.35-13.81c-1.64,5.51-2.84,9.5-4.13,13.81Z" transform="translate(-36.5 -13.5)"/><path class="cls-1" d="M1374,650.53c1.2,3.74,1.2,3.74,16,4-1.46,7.08-11.39,9.79-17.33,4.73s-5.51-18.42,1-23c3.87-2.69,8.82-3.42,11.88-.21s4,8,5.53,12.19c.1.25-2.39,2-3.74,2.14C1383.06,650.72,1378.79,650.53,1374,650.53Zm-.35-6.54,1,1.75h10.77l.79-1.34c-1.93-1.41-3.87-3.94-5.8-3.93C1378.13,640.49,1375.89,642.72,1373.65,644Z" transform="translate(-36.5 -13.5)"/><path class="cls-1" d="M1330.5,644.24c1-7.36,4-10,9.93-9.9,5,.07,8.86,2,9.07,7.68.22,6.19,0,12.39,0,18.5-4,.41-8,1.21-12,1.13s-7.7-1.5-8.23-6.49c-.51-4.74,1.77-7.35,6.27-8.21,2.83-.54,5.7-.91,9-1.43.37-3.91-1.48-5.95-5.27-5.18C1336.58,640.89,1334.07,642.61,1330.5,644.24Zm14,5.06-10.16,4.29c1.22,1.26,2.44,3.59,3.66,3.59C1341.63,657.17,1344.8,655.75,1344.47,649.3Z" transform="translate(-36.5 -13.5)"/><path class="cls-1" d="M1460,653.47c-2.25,7.09-7,9.45-13.65,7.85s-9.65-8.15-7.88-16.47c1.59-7.49,6.55-11.5,12.88-10.43s9.74,7.14,8.78,16H1443.3c.94,4.78,3.17,7.21,7.33,6.47C1453.59,656.38,1456.38,654.85,1460,653.47Zm-5.54-7.62c.36-.64.73-1.27,1.09-1.9-2.18-1.26-4.4-3.57-6.52-3.47s-3.88,2.7-5.82,4.2l1,1.17Z" transform="translate(-36.5 -13.5)"/><path class="cls-1" d="M1326.51,650.56h-17.1c3.69,11.46,11,3.62,16.72,3.31-1.94,6.6-6.73,9-13.38,7.46-6.39-1.5-9.54-7.68-8.06-15.81,1.44-7.89,6.39-12.15,12.89-11.11C1323.81,635.41,1327.3,641.34,1326.51,650.56Zm-5.76-4.71c.37-.62.73-1.25,1.1-1.88-2.16-1.27-4.37-3.59-6.48-3.5s-3.9,2.7-5.85,4.19l.93,1.19Z" transform="translate(-36.5 -13.5)"/><path class="cls-1" d="M1635.27,660.53c-4.59.5-8.66,1.31-12.73,1.3-4.25,0-7.75-2-8.08-6.74-.41-5.82-.48-11.67-.36-17.5,0-1,1.71-2,2.63-2.92.8,1.07,2.24,2.1,2.31,3.21.28,4.47.15,9,.14,13.45,0,3.43,1.47,6.3,5,5.46,2.17-.51,4.94-3.22,5.36-5.36.87-4.31.16-8.92.45-13.39.07-1.16,1.42-2.24,2.19-3.36,1,1.08,2.91,2.13,3,3.25C1635.4,645.49,1635.27,653.07,1635.27,660.53Z" transform="translate(-36.5 -13.5)"/><path class="cls-1" d="M1587.44,648.89c0-9.34,4-14.52,11.42-14.58,7.16-.07,12,5.7,12,14.3,0,7.89-4.7,13.22-11.73,13.28C1591.91,661.94,1587.48,657,1587.44,648.89Zm17.93,1.13c-.07-7-2.52-10.18-6.71-9.85-5.19.4-6,4.48-6.3,8.41-.38,4.82,2.89,9,6.63,8.69C1604.3,656.84,1605.49,653.08,1605.37,650Z" transform="translate(-36.5 -13.5)"/><path class="cls-1" d="M1640.24,635.7c4.11-.52,7.38-1.13,10.67-1.31,4.74-.26,8.76,1.19,9.36,6.57.72,6.5.92,13.06,1.33,19.41-4.35,1.7-5.85.6-5.7-3.22s0-7.4-.07-11.1c-.08-3.21-1.25-6.55-4.85-5.59a9.35,9.35,0,0,0-5.65,6c-.91,4.47-.26,9.25-.26,13.9l-1.44,1.2c-1.13-1.13-3.19-2.22-3.24-3.39C1640.1,650.64,1640.24,643.06,1640.24,635.7Z" transform="translate(-36.5 -13.5)"/><path class="cls-1" d="M1585.08,645.9c-2.9-1.73-4.77-2.53-6.24-3.8-3-2.61-5.93-2.87-8.74.08-3,3.13-3.1,10-.13,13q4.14,4.05,8.8.13c1.49-1.26,3.54-1.85,6.42-3.27-2.67,8.2-6.37,10.63-12.63,9.63-6.56-1.06-9.74-5.31-9.74-13,0-8.1,3.31-13.11,9.41-14.15C1577.21,633.58,1583.9,635.83,1585.08,645.9Z" transform="translate(-36.5 -13.5)"/><path class="cls-1" d="M1560.52,651.9c-2.52,8.18-6.26,10.7-12.5,9.74-7.06-1.09-10.23-5.85-9.79-14.71.37-7.48,4.17-12.06,10.44-12.59s9.78,2.45,11.73,11.43c-2.77-1.6-4.67-2.35-6.12-3.61-3-2.61-5.9-3-8.75-.06s-3.18,10-.25,13c2.71,2.71,5.65,2.86,8.79.26C1555.61,654.05,1557.64,653.39,1560.52,651.9Z" transform="translate(-36.5 -13.5)"/><path class="cls-1" d="M1669.7,628.75c3.09,2.84,5,4.41,6.68,6.2.69.74,1.51,2.48,1.21,2.81a38.11,38.11,0,0,1-4.94,3.93c0,6.11-2.85,13.6,6.06,18.14-8,2.91-11.18,1-11.41-5.94-.09-2.92,0-5.84,0-8.77,0-1,.34-2.58-.09-2.82-7.19-4.11-.07-8,.29-11.88C1667.57,629.49,1669.69,628.76,1669.7,628.75Z" transform="translate(-36.5 -13.5)"/><path class="cls-1" d="M1361.08,632.61l5.56,4.78-5.45,4.78c0,1.79,0,5.07,0,8.35,0,3-.38,6,3.72,6.8.7.14,1.11,1.68,1.65,2.58-.92.5-1.82,1.38-2.77,1.45-4.27.32-7.33-1.06-7.34-6,0-3.51,0-7,0-10.52,0-1.17.29-3.14-.2-3.38-6.17-3-3.77-5.5,0-8.44.7-.54.27-2.57.36-4C1362.3,626.8,1360.8,631.45,1361.08,632.61Z" transform="translate(-36.5 -13.5)"/><path class="cls-1" d="M1293.69,662.23c-1.41-1.84-3.36-3.22-3.44-4.7-.35-6.38-.12-12.8-.16-19.19,0-3.11,1.14-3.91,4.34-3.37,2.73.47,5.67-.29,9-.53.09,1.87.18,3.52.27,5.21C1289.32,642,1298.18,653.53,1293.69,662.23Z" transform="translate(-36.5 -13.5)"/><path class="cls-1" d="M1466.73,391.54H1185.94c-7.74,0-7.74,0-7.74-7.43q0-58.32,0-116.62c0-8.57,2.18-10.78,10.65-10.78h555.72c8.49,0,10.67,2.2,10.67,10.75,0,39.27-.1,78.53.13,117.79,0,5.38-1.71,6.4-6.67,6.39Q1607.72,391.45,1466.73,391.54ZM1287.21,318c1.65,6.05,3.21,12.06,5,18,.31,1.06,1.48,1.86,2.25,2.77.8-1,1.91-2,2.33-3.16,1.29-3.61,2.31-7.31,3.86-12.35,1.56,5.11,2.58,8.82,3.87,12.43.42,1.16,1.57,2.07,2.38,3.09.75-.94,1.86-1.77,2.18-2.83,1.76-5.93,3.34-11.92,5-17.89l-1.73-1a49.85,49.85,0,0,0-3,5.53c-1,2.52-1.59,5.18-2.78,9.19-1.24-4.13-1.84-6.79-2.84-9.29a36.27,36.27,0,0,0-2.93-5,44.74,44.74,0,0,0-3.16,4.77,32.52,32.52,0,0,0-1.32,4.47c-.4,1.24-.91,2.44-1.63,4.34C1289.88,318.08,1289.88,318.08,1287.21,318Zm81,22.05c0-10.41,0-19.35-.09-28.29,0-.76-1.21-1.5-1.85-2.25-.57.81-1.54,1.58-1.63,2.44a68.16,68.16,0,0,0-.08,7.08c-5.3-2.26-9.79-3.22-13.1,1.8a12,12,0,0,0,2.94,16.18c2.18,1.63,6.25.72,9.46,1l-.09-1.34Zm-120.85-.37c0-6,.2-10.89-.06-15.72-.2-3.61-1.92-6.28-6-6.57s-7.7-.18-9.68,5.92c3-1.17,5-2.54,7-2.51s3.69,1.52,5.54,2.37l-.63,1.87c-2.79.45-5.7.53-8.34,1.41a6.33,6.33,0,0,0-.53,11.75c2.32,1,5.75-.39,9.23-.76Zm-37.51-28.81c0,8.65-.06,17,.09,25.27,0,.88,1.28,1.73,2,2.59.53-.83,1.44-1.63,1.51-2.5.2-2.61.07-5.25.07-7.82,11.56-.55,15.62-3.05,15.12-9.34C1228.09,313.06,1225.51,309.5,1209.82,310.89Zm124.32,16.55c0-6.41-3.64-10.32-9.46-10.28s-9.31,3.95-9.29,10.41,4.5,11.57,9.71,11.42C1329.92,338.84,1334.18,333.4,1334.14,327.44Zm-68.71-4.36.91-1.75c-2.13-4.53-6.31-4.82-10.47-3.47-1.77.58-3.9,3.09-4,4.85s2,3.78,3.46,5.28c.85.85,2.7.62,3.78,1.34a26.85,26.85,0,0,1,3.59,3.49c-1.89.45-3.82,1.36-5.66,1.2s-3.5-1.42-5.24-2.2l-.92,1.23c1.05,1.26,1.85,3.12,3.18,3.65,2.59,1,5.89,2.4,8.12,1.56s4.6-4.28,4.5-6.47c-.09-2-3.4-3.88-5.42-5.67-.5-.44-1.66-.12-2.21-.55a37.9,37.9,0,0,1-3.34-3.25c1.81-.46,3.64-1.34,5.42-1.25C1262.58,321.14,1264,322.37,1265.43,323.08Zm18.66,0c-1.09-6-5.09-6.6-9.12-5.33-2,.63-4.56,3-4.83,4.9-.65,4.54,3.49,5.22,6.77,6.54,1.66.66,2.92,2.3,4.36,3.5a38.63,38.63,0,0,1-6.68,1c-1.47,0-2.94-1-4.4-1.61l-.75,1.34c1,1.09,1.77,2.72,3,3.18,2.63,1,5.89,2.49,8.14,1.68s4.51-4.27,4.42-6.47c-.09-2-3.3-3.91-5.31-5.67-.64-.57-2-.24-2.75-.78a20.26,20.26,0,0,1-2.72-3.09c1.47-.57,3-1.76,4.39-1.58C1280.51,320.94,1282.27,322.23,1284.09,323.08Zm53.65-5.08V321c0,4.84-.12,9.69.09,14.52.05,1.12,1.24,2.19,1.9,3.29.55-1.2,1.42-2.36,1.56-3.6a47.54,47.54,0,0,0,.06-7c-.12-3.84.63-6.92,5.23-7.63.8-.13,1.39-1.62,2.64-3.19Z" transform="translate(-36.5 -13.5)"/><path class="cls-1" d="M1467.38,116q138.34,0,276.69,0c9.87,0,11.17,1.29,11.18,11.09q0,56.84,0,113.68c0,8.27-1.74,10.06-9.86,10.06H1187.91c-7.78,0-9.71-1.91-9.71-9.62q0-57.72,0-115.45c0-8,1.86-9.76,10.15-9.76Q1327.86,116,1467.38,116Zm-210.85,82.41,1.54-.77a12.62,12.62,0,0,0,.26-1.71c0-3.12.07-6.24,0-9.35-.13-8.57-3.35-10.61-11.33-7.22-.51.22-1,.91-1.44.83-4.59-.89-9.16-1.88-14.58-3,0,6.82-.07,12.61.07,18.39,0,.85,1,1.67,1.55,2.51.68-.88,1.86-1.72,1.94-2.65.27-3.1-.43-6.38.36-9.3.53-2,2.93-3.39,4.5-5.06,1.13,1.74,2.87,3.36,3.24,5.25.56,2.81-.05,5.84.25,8.73.12,1.19,1.32,2.26,2,3.39l1.65-.78c0-4.08-.44-8.22.21-12.19.28-1.68,2.87-3,4.4-4.45,1.15,1.54,3,3,3.29,4.63.55,3,0,6.23.28,9.32C1254.87,196.16,1255.92,197.27,1256.53,198.42ZM1343.15,179c-1.54-.44-3.19-1.52-4.41-1.16-2.77.82-7.15,1.87-7.61,3.67a25.94,25.94,0,0,0,.22,13.21c.51,1.75,5,2.81,7.78,3.29,2.47.41,5.15-.43,8-.75v-27l-2-.35C1344.46,172.85,1343.84,175.79,1343.15,179Zm26.19,18.73v-27.6l-2-.44c-.59,3.06-1.18,6.11-1.82,9.44a16.61,16.61,0,0,0-2.37-1c-3.84-1-8.39-1.05-9.55,3a25.31,25.31,0,0,0,.09,13.73c1.21,4,5.71,3.76,9.6,2.93C1365.05,197.45,1367,197.77,1369.34,197.77Zm-91-.37c0-3.73,0-7.78,0-11.82,0-3.79-.91-7-5.46-7.62-4.27-.57-8.06-.25-10.48,5.82,3.27-1.18,5.46-2.59,7.64-2.56,1.68,0,3.34,1.85,5,2.88l-.83,1.73c-1.71.15-3.41.29-5.11.46-4.12.39-7.3,1.9-7,6.73.28,3.95,4.1,6,8.9,5.09C1273,197.74,1275.17,197.69,1278.3,197.4Zm-68.49-26.47v26.88h17.63c-4-6-10-1.18-13.65-4v-7.12c4-2,9.11,1.5,13.57-4.1h-13.65V174.5h12.68l.18-2.11C1221.55,169.66,1215.81,172,1209.81,170.93Zm100,12.65a37.37,37.37,0,0,1,4.8-1.42,23.55,23.55,0,0,1,5.92-.24c.47.05.73,1.9,1.09,2.93a45.29,45.29,0,0,1-5.32,1.4c-4.32.61-7.74,2.11-6.79,7.31.9,4.89,4.74,4.89,8.62,4.53,2.3-.21,4.61-.39,7.52-.63,0-4.19.21-8.6-.06-13-.22-3.56-1.81-6.28-6-6.58S1311.88,177.75,1309.76,183.58Zm94.49,8.49c-5.43,1.55-10.81,5.9-13.91-3h13.93c.07-7.38-2.11-10.62-7.17-11.27s-8.89,2-10.06,6.79c-1.46,6,.92,11.79,5.49,13.35C1397.44,199.57,1401.59,197.77,1404.25,192.07Zm23,.3-1.15,1.19c.86,1.13,1.6,3.08,2.61,3.24,3.29.5,6.82.94,10,.18,1.47-.35,3.63-4.47,3.12-5.2-1.61-2.26-4.27-3.84-6.69-5.43a34.68,34.68,0,0,0-5-2.3c3.48-7.33,7.69,1,11.38-1.59-1.68-4.78-5.49-5.5-9.33-4.32-2.13.66-4.77,3-5.25,5-1,4.3,2.82,5.3,6.07,6.24.75.21,1.71.17,2.22.64a27.26,27.26,0,0,1,2.68,3.16c-1.32.64-2.77,2-3.94,1.77C1431.62,194.54,1429.46,193.28,1427.23,192.37Zm-4-9.4c-1.7-5.22-5.53-6.05-9.34-4.83-2.27.72-3.89,3.49-5.79,5.34,2.27,2,4.43,4.15,6.84,6a34,34,0,0,0,5.17,2.7c-4.25,6.45-8-.44-12.1.73.93,5.43,5,6,8.69,5.1,2.53-.61,5.8-2.87,6.54-5.11,1.35-4.13-2.59-5.32-5.8-6.47-2-.7-3.8-1.68-5.69-2.53.24-.89.49-1.78.74-2.67Zm-48.13,14.51,2.11.74a42.68,42.68,0,0,0,1.3-5.39c.57-4.8-2.12-11.19,6.22-12,.35,0,1-1.53.81-1.76a3.2,3.2,0,0,0-2.14-1.26c-2.68.14-5.35.55-8.3.89Zm-83,.65c3.51-1.39,4.44-8.92,3.26-24.68-.09-1.29-1.17-2.5-1.79-3.75l-1.47.6Zm-7.27.28,1.89-.77c0-5.6.09-11.21-.08-16.81,0-1-1.21-1.88-1.86-2.82-.59,1-1.66,2-1.69,3-.19,4.65-.2,9.32,0,14C1283.12,196.13,1284.2,197.26,1284.8,198.41Z" transform="translate(-36.5 -13.5)"/><path class="cls-1" d="M433.29,146.52c-.53,6.88-2.1,12.77-7.1,17.69-4.81,4.74-11.14,4.92-16-.08-7.72-7.91-9.4-21.86-3.86-31.33,2.75-4.71,6.87-6.57,12.17-6.45,5.12.12,9.34,2.09,11.25,6.85C431.43,137.44,432.14,142.07,433.29,146.52Z" transform="translate(-36.5 -13.5)"/><path class="cls-1" d="M207.78,148.35c1.54,11.34-2.16,18.66-10.59,21-6.06,1.67-10.19-.12-11.74-5.11-1.92-6.13.09-10,6.48-12.06,2.58-.84,5.27-1.34,7.92-2S205.14,149,207.78,148.35Z" transform="translate(-36.5 -13.5)"/><path class="cls-1" d="M558.15,145.75c1-4.11,1.61-8.4,3.18-12.29,2.36-5.84,7.18-8.35,13.49-8.33,6.11,0,10.44,2.72,13.16,8.08,5,10,3,23.21-4.82,31.34-4.59,4.78-12.65,4.47-17.4-.09C560.38,159.29,558.71,153,558.15,145.75Z" transform="translate(-36.5 -13.5)"/><path class="cls-1" d="M354.26,138.23H328.78c.61-8.25,4.88-12.93,11.78-13.07C348.6,125,352.9,129,354.26,138.23Z" transform="translate(-36.5 -13.5)"/><path class="cls-1" d="M479.42,145.27c1-3.93,1.46-8.05,3-11.74,2.27-5.5,6.73-8.27,12.87-8.41,6.35-.15,10.88,2.49,13.76,8,5.22,10.1,2.84,24.61-5.27,32.37-3.76,3.6-12.76,3.25-16.4-.64C481.22,158.33,479.91,154.86,479.42,145.27Z" transform="translate(-36.5 -13.5)"/><path class="cls-1" d="M1051,288c.09-8.24,3.34-12.51,8.24-12.56s9,4.63,8.51,11.07a23.11,23.11,0,0,1-3.19,9.76c-2.28,3.78-8.67,3.26-10.79-.73A46.36,46.36,0,0,1,1051,288Z" transform="translate(-36.5 -13.5)"/><path class="cls-1" d="M540.48,286.31c0,7-3.31,12.18-8,12.37-4.91.2-8.76-5.23-8.74-12.32,0-6.58,3.59-11.09,8.7-10.95C537.31,275.54,540.45,279.8,540.48,286.31Z" transform="translate(-36.5 -13.5)"/><path class="cls-1" d="M602.37,366.21c0,6.66-3.57,11.22-8.54,11s-8.33-5-8.2-11.48c.12-6.3,3.48-10.57,8.35-10.63C599.11,355.08,602.4,359.43,602.37,366.21Z" transform="translate(-36.5 -13.5)"/><path class="cls-1" d="M712.61,366.08c0,6.69-3.44,11.26-8.41,11.17s-8.41-4.89-8.33-11.36c.08-6.29,3.39-10.62,8.23-10.75C709.25,355,712.61,359.33,712.61,366.08Z" transform="translate(-36.5 -13.5)"/><path class="cls-1" d="M292.72,286.7c-.11,7.1-3.57,12.05-8.38,12S275.82,293,276,286c.14-6.32,3.57-10.61,8.48-10.59C289.56,275.43,292.82,279.89,292.72,286.7Z" transform="translate(-36.5 -13.5)"/><path class="cls-1" d="M172.89,265.78c2.41,7.1,4.3,12.66,6.35,18.68H166.62Z" transform="translate(-36.5 -13.5)"/><path class="cls-1" d="M244.43,367.91c-.32,6.84-4.3,10.78-9.38,9.41a6.89,6.89,0,0,1-4.14-4c-.29-1,1.81-3.53,3.25-3.95C237.4,368.42,240.91,368.35,244.43,367.91Z" transform="translate(-36.5 -13.5)"/><path class="cls-1" d="M286.68,362.18c1.36-4.86,3.79-7.47,8.35-7.29,4.31.18,6.43,2.77,7.29,7.29Z" transform="translate(-36.5 -13.5)"/><path class="cls-1" d="M637.62,362.32H622.39c.6-4.73,3.08-7.32,7.54-7.43S636.93,357.31,637.62,362.32Z" transform="translate(-36.5 -13.5)"/><path class="cls-1" d="M993.42,288.17c-.87,7.94-3.37,11.29-8.22,10.62-1.93-.27-4.73-2.38-5-4s1.83-4.51,3.57-5.23C986.48,288.38,989.78,288.6,993.42,288.17Z" transform="translate(-36.5 -13.5)"/><path class="cls-1" d="M888.63,282.62H873.4c0-4.63,2.48-6.9,6.5-7.38C884.72,274.65,887.36,277.31,888.63,282.62Z" transform="translate(-36.5 -13.5)"/><path class="cls-1" d="M487.32,282.52H472.09c.6-4.84,3.13-7.34,7.59-7.37S486.6,277.79,487.32,282.52Z" transform="translate(-36.5 -13.5)"/><path class="cls-1" d="M550.13,362.33H534.7c.61-4.6,2.95-7.21,7.36-7.44C546.63,354.65,549,357.26,550.13,362.33Z" transform="translate(-36.5 -13.5)"/><path class="cls-1" d="M747.87,362.31c1.35-5,3.85-7.81,8.67-7.4,4.15.36,6.58,2.7,6.6,7.4Z" transform="translate(-36.5 -13.5)"/><path class="cls-1" d="M254.3,282.6H239c.47-4.63,2.88-7.17,7.25-7.43C250.76,274.91,253.18,277.52,254.3,282.6Z" transform="translate(-36.5 -13.5)"/><path class="cls-1" d="M226.1,444.41H210.79c.47-4.68,2.92-7.21,7.31-7.43C222.64,436.74,225.09,439.33,226.1,444.41Z" transform="translate(-36.5 -13.5)"/><path class="cls-1" d="M896.56,366.12c0-6.24,2.75-10.51,7.28-11,5.25-.6,8,2.39,9.16,7,1.72,6.83-.89,13.37-5.75,15C901.51,379,896.56,373.9,896.56,366.12Z" transform="translate(-36.5 -13.5)"/><path class="cls-1" d="M329.28,286.84a12.91,12.91,0,0,1-.31,3.08c-1.3,4-2.19,8.63-7.73,8.88-6,.27-7-4.59-8.45-8.75a11.18,11.18,0,0,1-.31-3.49c-.07-6.84,3.19-11.24,8.35-11.28S329.3,279.54,329.28,286.84Z" transform="translate(-36.5 -13.5)"/><path class="cls-1" d="M779.66,286.83a13,13,0,0,1-.31,3.08c-1.3,4-2.18,8.63-7.72,8.89-6,.28-7-4.58-8.46-8.74a11.18,11.18,0,0,1-.31-3.49c-.07-6.84,3.19-11.25,8.34-11.29S779.68,279.53,779.66,286.83Z" transform="translate(-36.5 -13.5)"/><path class="cls-1" d="M657.67,366.28c-.09-6.54,3.42-11.22,8.49-11.3s8.69,4.4,8.73,11-3.48,11.31-8.45,11.39S657.76,372.79,657.67,366.28Z" transform="translate(-36.5 -13.5)"/><path class="cls-1" d="M657.29,286.21c.08,7.13-3.53,12.55-8.42,12.64s-8.72-5.25-8.79-12.35c-.07-6.53,3.42-11.16,8.48-11.25S657.22,279.6,657.29,286.21Z" transform="translate(-36.5 -13.5)"/><path class="cls-1" d="M366.43,286.47c0,7.12-3.79,12.47-8.68,12.39s-8.6-5.78-8.54-12.61c.06-6.57,3.62-11.06,8.73-11S366.47,279.89,366.43,286.47Z" transform="translate(-36.5 -13.5)"/><path class="cls-1" d="M1390,773.5c-3.57,2.83-5.51,5.53-7.89,6-3.94.77-5.83-2.85-5.21-5.94.56-2.72,3.21-5,4.93-7.5Z" transform="translate(-36.5 -13.5)"/><path class="cls-1" d="M1483.51,774.19c-3.16,2.93-5,6.08-7.45,6.59-4.3.9-5.63-3.09-5.47-6.44s.79-8.32,5.43-7.85C1478.37,766.73,1480.33,770.75,1483.51,774.19Z" transform="translate(-36.5 -13.5)"/><path class="cls-1" d="M167.48,972.45a11.6,11.6,0,0,1-.76-23.18,11.6,11.6,0,1,1,.76,23.18ZM173,958.32c-.77-4.13-3.88-4.65-7.28-4-4.21.78-4.75,4.11-4.47,7.67.33,4.11,2.87,6.09,6.71,5.42,1.92-.33,3.57-2.19,6.5-4.11-4.53.24-7,.63-9.28.25-.4-.07-.26-3.39-.38-5.21Z" transform="translate(-36.5 -13.5)"/><path class="cls-1" d="M232.64,961.24c-1.08,3.6.2,10-5.91,9.91-5.89-.13-5.51-6.16-5.51-10.51,0-4.19-.22-9.12,5.37-10.25C230,949.69,232.63,954.47,232.64,961.24Z" transform="translate(-36.5 -13.5)"/><path class="cls-1" d="M1348.55,774.72c-3.64,2.85-5.74,5.83-8.11,6.06-4.17.41-5.71-3.53-4.83-6.84.76-2.88,3.36-5.26,5.15-7.87Z" transform="translate(-36.5 -13.5)"/><path class="cls-1" d="M340,952.4l3.64,10.7h-7.49Z" transform="translate(-36.5 -13.5)"/><path class="cls-1" d="M1616.08,772.25h-10.51c2.64-2.78,4.39-6,5.84-5.84,2.09.19,4,2.79,5.92,4.37Z" transform="translate(-36.5 -13.5)"/><path class="cls-1" d="M1399,770.84c1.74-1.6,3.49-4.49,5.19-4.45,1.86,0,3.66,2.78,5.48,4.34l-.75,1.32h-8.78Z" transform="translate(-36.5 -13.5)"/><path class="cls-1" d="M1283.8,772.3h-10.64c2.84-2.78,4.48-5.67,6.44-5.9,1.57-.19,3.53,2.83,5.32,4.42C1284.55,771.31,1284.18,771.81,1283.8,772.3Z" transform="translate(-36.5 -13.5)"/><path class="cls-1" d="M1313.45,773.85c0,6-2.19,7.67-5.82,7.1-1.05-.16-1.85-1.85-2.77-2.84Z" transform="translate(-36.5 -13.5)"/><path class="cls-1" d="M1220.93,770.7c1.78-1.54,3.56-4.29,5.33-4.28s3.55,2.77,5.32,4.33l-.82,1.31H1222C1221.62,771.61,1221.27,771.16,1220.93,770.7Z" transform="translate(-36.5 -13.5)"/><path class="cls-1" d="M450.66,960.62c1.74-1.14,3.46-3.11,5.24-3.18s3.43,1.89,5.14,2.95l-.66,1.56h-8.87Z" transform="translate(-36.5 -13.5)"/><path class="cls-1" d="M1438.53,773.74c-.57,5.93-2.56,7.85-6.24,7.24-1.11-.18-2-1.8-3-2.76Z" transform="translate(-36.5 -13.5)"/><path class="cls-1" d="M1366,774c-.91,5.89-3,7.78-6.63,7-1.06-.23-1.79-1.91-2.68-2.93Z" transform="translate(-36.5 -13.5)"/><path class="cls-1" d="M1251.14,774.09c-1.15,5.9-3.27,7.73-6.91,6.79-1-.27-1.64-2-2.44-3.06Z" transform="translate(-36.5 -13.5)"/><path class="cls-1" d="M1524.7,774.39c-3.63,3-5.66,6.07-8.08,6.4-4.19.58-5.88-3.32-5.06-6.68.71-2.91,3.3-5.37,5.06-8Z" transform="translate(-36.5 -13.5)"/><path class="cls-1" d="M480.36,963.77c-.24,6-2.43,7.72-6,7.14-1.1-.17-2-1.79-2.94-2.76Z" transform="translate(-36.5 -13.5)"/><path class="cls-1" d="M1215.75,831.51c-3.53,3.16-5.45,6.26-7.9,6.76-4.32.86-5.45-3-5.51-6.49s1.11-7.37,5.27-6.81C1210.05,825.3,1212.11,828.45,1215.75,831.51Z" transform="translate(-36.5 -13.5)"/><path class="cls-1" d="M1455.12,453c-.14,3.49-1.52,7-6.59,6.85-4.8-.1-6-3.83-6.29-7.63-.33-4.35,3.13-8.22,6.78-7.8C1453.46,444.91,1455.12,448,1455.12,453Z" transform="translate(-36.5 -13.5)"/><path class="cls-1" d="M1527,647h-8.48c1.29-4.31,2.49-8.3,4.13-13.81Z" transform="translate(-36.5 -13.5)"/><path class="cls-1" d="M1373.65,644c2.24-1.27,4.48-3.5,6.72-3.52,1.93,0,3.87,2.52,5.8,3.93l-.79,1.34h-10.77Z" transform="translate(-36.5 -13.5)"/><path class="cls-1" d="M1344.47,649.3c.33,6.45-2.84,7.87-6.5,7.88-1.22,0-2.44-2.33-3.66-3.59Z" transform="translate(-36.5 -13.5)"/><path class="cls-1" d="M1454.48,645.85h-10.3l-1-1.17c1.94-1.5,3.82-4.12,5.82-4.2s4.34,2.21,6.52,3.47C1455.21,644.58,1454.84,645.21,1454.48,645.85Z" transform="translate(-36.5 -13.5)"/><path class="cls-1" d="M1320.75,645.85h-10.3l-.93-1.19c2-1.49,3.84-4.1,5.85-4.19s4.32,2.23,6.48,3.5C1321.48,644.6,1321.12,645.23,1320.75,645.85Z" transform="translate(-36.5 -13.5)"/><path class="cls-1" d="M1605.37,650c.12,3.06-1.07,6.82-6.38,7.25-3.74.31-7-3.87-6.63-8.69.32-3.93,1.11-8,6.3-8.41C1602.85,639.84,1605.3,643,1605.37,650Z" transform="translate(-36.5 -13.5)"/><path class="cls-1" d="M1287.21,318c2.67.06,2.67.06,7.49,13.06.72-1.9,1.23-3.1,1.63-4.34a32.52,32.52,0,0,1,1.32-4.47,44.74,44.74,0,0,1,3.16-4.77,36.27,36.27,0,0,1,2.93,5c1,2.5,1.6,5.16,2.84,9.29,1.19-4,1.81-6.67,2.78-9.19a49.85,49.85,0,0,1,3-5.53l1.73,1c-1.64,6-3.22,12-5,17.89-.32,1.06-1.43,1.89-2.18,2.83-.81-1-2-1.93-2.38-3.09-1.29-3.61-2.31-7.32-3.87-12.43-1.55,5-2.57,8.74-3.86,12.35-.42,1.18-1.53,2.12-2.33,3.16-.77-.91-1.94-1.71-2.25-2.77C1290.42,330.08,1288.86,324.07,1287.21,318Z" transform="translate(-36.5 -13.5)"/><path class="cls-1" d="M1368.18,340.07l-4.44-3.41.09,1.34c-3.21-.25-7.28.66-9.46-1a12,12,0,0,1-2.94-16.18c3.31-5,7.8-4.06,13.1-1.8a68.16,68.16,0,0,1,.08-7.08c.09-.86,1.06-1.63,1.63-2.44.64.75,1.84,1.49,1.85,2.25C1368.22,320.72,1368.18,329.66,1368.18,340.07Zm-1.35-12.85c-3.59-3-5.67-6.1-8.09-6.39-4.15-.49-5.19,3.48-5.11,6.87s1.24,7.32,5.52,6.37C1361.58,333.54,1363.44,330.38,1366.83,327.22Z" transform="translate(-36.5 -13.5)"/><path class="cls-1" d="M1247.33,339.7l-3.54-2.24c-3.48.37-6.91,1.81-9.23.76a6.33,6.33,0,0,1,.53-11.75c2.64-.88,5.55-1,8.34-1.41l.63-1.87c-1.85-.85-3.68-2.35-5.54-2.37s-4,1.34-7,2.51c2-6.1,5.7-6.2,9.68-5.92s5.84,3,6,6.57C1247.53,328.81,1247.33,333.66,1247.33,339.7Zm-3.64-12.3-9,3.82c1,1.08,2,2.93,3.18,3.08C1241.56,334.79,1243.4,332.7,1243.69,327.4Z" transform="translate(-36.5 -13.5)"/><path class="cls-1" d="M1209.82,310.89c15.69-1.39,18.27,2.17,18.76,8.2.5,6.29-3.56,8.79-15.12,9.34,0,2.57.13,5.21-.07,7.82-.07.87-1,1.67-1.51,2.5-.69-.86-2-1.71-2-2.59C1209.76,327.85,1209.82,319.54,1209.82,310.89Zm4,3.62V324.7c4.71-.17,10.06,1.57,10.94-5.13C1225.35,315.32,1221.78,313.77,1213.85,314.51Z" transform="translate(-36.5 -13.5)"/><path class="cls-1" d="M1334.14,327.44c0,6-4.22,11.4-9,11.55-5.21.15-9.68-5.11-9.71-11.42s3.47-10.37,9.29-10.41S1334.1,321,1334.14,327.44Zm-17.41-.16c3.51,3.17,5.42,6.26,7.9,6.81,4.36,1,5.53-3,5.63-6.41s-1.16-7.39-5.29-6.88C1322.51,321.11,1320.41,324.25,1316.73,327.28Z" transform="translate(-36.5 -13.5)"/><path class="cls-1" d="M1265.43,323.08c-1.43-.71-2.85-1.94-4.32-2-1.78-.09-3.61.79-5.42,1.25a37.9,37.9,0,0,0,3.34,3.25c.55.43,1.71.11,2.21.55,2,1.79,5.33,3.69,5.42,5.67.1,2.19-2.36,5.67-4.5,6.47s-5.53-.54-8.12-1.56c-1.33-.53-2.13-2.39-3.18-3.65l.92-1.23c1.74.78,3.44,2,5.24,2.2s3.77-.75,5.66-1.2a26.85,26.85,0,0,0-3.59-3.49c-1.08-.72-2.93-.49-3.78-1.34-1.51-1.5-3.56-3.57-3.46-5.28s2.25-4.27,4-4.85c4.16-1.35,8.34-1.06,10.47,3.47Z" transform="translate(-36.5 -13.5)"/><path class="cls-1" d="M1284.09,323.08c-1.82-.85-3.58-2.14-5.49-2.4-1.36-.18-2.92,1-4.39,1.58a20.26,20.26,0,0,0,2.72,3.09c.71.54,2.11.21,2.75.78,2,1.76,5.22,3.69,5.31,5.67.09,2.2-2.32,5.72-4.42,6.47s-5.51-.69-8.14-1.68c-1.22-.46-2-2.09-3-3.18l.75-1.34c1.46.57,2.93,1.59,4.4,1.61a38.63,38.63,0,0,0,6.68-1c-1.44-1.2-2.7-2.84-4.36-3.5-3.28-1.32-7.42-2-6.77-6.54.27-1.88,2.83-4.27,4.83-4.9C1279,316.48,1283,317,1284.09,323.08Z" transform="translate(-36.5 -13.5)"/><path class="cls-1" d="M1337.74,318l11.48-.62c-1.25,1.57-1.84,3.06-2.64,3.19-4.6.71-5.35,3.79-5.23,7.63a47.54,47.54,0,0,1-.06,7c-.14,1.24-1,2.4-1.56,3.6-.66-1.1-1.85-2.17-1.9-3.29-.21-4.83-.09-9.68-.09-14.52Z" transform="translate(-36.5 -13.5)"/><path class="cls-1" d="M1256.53,198.42c-.61-1.15-1.66-2.26-1.76-3.46-.27-3.09.27-6.3-.28-9.32-.31-1.68-2.14-3.09-3.29-4.63-1.53,1.48-4.12,2.77-4.4,4.45-.65,4-.21,8.11-.21,12.19l-1.65.78c-.71-1.13-1.91-2.2-2-3.39-.3-2.89.31-5.92-.25-8.73-.37-1.89-2.11-3.51-3.24-5.25-1.57,1.67-4,3.11-4.5,5.06-.79,2.92-.09,6.2-.36,9.3-.08.93-1.26,1.77-1.94,2.65-.54-.84-1.53-1.66-1.55-2.51-.14-5.78-.07-11.57-.07-18.39,5.42,1.15,10,2.14,14.58,3,.41.08.93-.61,1.44-.83,8-3.39,11.2-1.35,11.33,7.22.05,3.11,0,6.23,0,9.35a12.62,12.62,0,0,1-.26,1.71Z" transform="translate(-36.5 -13.5)"/><path class="cls-1" d="M1343.15,179c.69-3.25,1.31-6.19,1.94-9.13l2,.35v27c-2.85.32-5.53,1.16-8,.75-2.82-.48-7.27-1.54-7.78-3.29a25.94,25.94,0,0,1-.22-13.21c.46-1.8,4.84-2.85,7.61-3.67C1340,177.52,1341.61,178.6,1343.15,179Zm3.16,8.55-8.28-6.52c-1.66,2.29-4.23,4.4-4.76,6.93-.71,3.42,1,7.28,5.23,6.53C1340.88,194.1,1342.77,190.88,1346.31,187.59Z" transform="translate(-36.5 -13.5)"/><path class="cls-1" d="M1369.34,197.77c-2.35,0-4.29-.32-6.09.07-3.89.83-8.39,1-9.6-2.93a25.31,25.31,0,0,1-.09-13.73c1.16-4,5.71-4,9.55-3a16.61,16.61,0,0,1,2.37,1c.64-3.33,1.23-6.38,1.82-9.44l2,.44Zm-16.31-11c3.11,3.54,4.66,6.85,7.07,7.68,3.65,1.27,5.56-1.73,5.85-5.34.3-3.78-.31-7.74-4.82-7.76C1358.9,181.36,1356.66,184.23,1353,186.79Z" transform="translate(-36.5 -13.5)"/><path class="cls-1" d="M1278.3,197.4c-3.13.29-5.26.34-7.32.71-4.8.87-8.62-1.14-8.9-5.09-.33-4.83,2.85-6.34,7-6.73,1.7-.17,3.4-.31,5.11-.46l.83-1.73c-1.66-1-3.32-2.86-5-2.88-2.18,0-4.37,1.38-7.64,2.56,2.42-6.07,6.21-6.39,10.48-5.82,4.55.61,5.43,3.83,5.46,7.62C1278.32,189.62,1278.3,193.67,1278.3,197.4Zm-4.1-9.57-8.35,4.21c1,1,1.91,2.66,3,2.75C1272.4,195.13,1274.73,193.62,1274.2,187.83Z" transform="translate(-36.5 -13.5)"/><path class="cls-1" d="M1209.81,170.93c6,1,11.74-1.27,16.76,1.46l-.18,2.11h-12.68v8.13h13.65c-4.46,5.6-9.6,2.11-13.57,4.1v7.12c3.7,2.78,9.62-2,13.65,4h-17.63V170.93Z" transform="translate(-36.5 -13.5)"/><path class="cls-1" d="M1309.76,183.58c2.12-5.83,5.8-6,9.82-5.69s5.74,3,6,6.58c.27,4.39.06,8.8.06,13-2.91.24-5.22.42-7.52.63-3.88.36-7.72.36-8.62-4.53-1-5.2,2.47-6.7,6.79-7.31a45.29,45.29,0,0,0,5.32-1.4c-.36-1-.62-2.88-1.09-2.93a23.55,23.55,0,0,0-5.92.24A37.37,37.37,0,0,0,1309.76,183.58Zm12.17,4-8.84,4.1c.85,1,1.57,2.79,2.6,3C1319.36,195.42,1321.49,193.7,1321.93,187.61Z" transform="translate(-36.5 -13.5)"/><path class="cls-1" d="M1404.25,192.07c-2.66,5.7-6.81,7.5-11.72,5.83-4.57-1.56-7-7.35-5.49-13.35,1.17-4.78,5.1-7.43,10.06-6.79s7.24,3.89,7.17,11.27h-13.93C1393.44,198,1398.82,193.62,1404.25,192.07Zm-4.21-6.13.92-1.54c-1.71-1.16-3.46-3.31-5.1-3.22-1.89.1-3.68,2.17-5.51,3.39l.73,1.37Z" transform="translate(-36.5 -13.5)"/><path class="cls-1" d="M1427.23,192.37c2.23.91,4.39,2.17,6.7,2.57,1.17.21,2.62-1.13,3.94-1.77a27.26,27.26,0,0,0-2.68-3.16c-.51-.47-1.47-.43-2.22-.64-3.25-.94-7.09-1.94-6.07-6.24.48-2,3.12-4.33,5.25-5,3.84-1.18,7.65-.46,9.33,4.32-3.69,2.59-7.9-5.74-11.38,1.59a34.68,34.68,0,0,1,5,2.3c2.42,1.59,5.08,3.17,6.69,5.43.51.73-1.65,4.85-3.12,5.2-3.15.76-6.68.32-10-.18-1-.16-1.75-2.11-2.61-3.24Z" transform="translate(-36.5 -13.5)"/><path class="cls-1" d="M1423.19,183l-10.74-1.77c-.25.89-.5,1.78-.74,2.67,1.89.85,3.74,1.83,5.69,2.53,3.21,1.15,7.15,2.34,5.8,6.47-.74,2.24-4,4.5-6.54,5.11-3.7.91-7.76.33-8.69-5.1,4.09-1.17,7.85,5.72,12.1-.73a34,34,0,0,1-5.17-2.7c-2.41-1.82-4.57-4-6.84-6,1.9-1.85,3.52-4.62,5.79-5.34C1417.66,176.92,1421.49,177.75,1423.19,183Z" transform="translate(-36.5 -13.5)"/><path class="cls-1" d="M1375.06,197.48v-18.8c3-.34,5.62-.75,8.3-.89a3.2,3.2,0,0,1,2.14,1.26c.19.23-.46,1.73-.81,1.76-8.34.83-5.65,7.22-6.22,12a42.68,42.68,0,0,1-1.3,5.39Z" transform="translate(-36.5 -13.5)"/><path class="cls-1" d="M1292.07,198.13V170.3l1.47-.6c.62,1.25,1.7,2.46,1.79,3.75C1296.51,189.21,1295.58,196.74,1292.07,198.13Z" transform="translate(-36.5 -13.5)"/><path class="cls-1" d="M1284.8,198.41c-.6-1.15-1.68-2.28-1.74-3.45-.2-4.65-.19-9.32,0-14,0-1,1.1-2,1.69-3,.65.94,1.82,1.86,1.86,2.82.17,5.6.08,11.21.08,16.81Z" transform="translate(-36.5 -13.5)"/><path class="cls-1" d="M173,958.32h-8.2c.12,1.82,0,5.14.38,5.21,2.31.38,4.75,0,9.28-.25-2.93,1.92-4.58,3.78-6.5,4.11-3.84.67-6.38-1.31-6.71-5.42-.28-3.56.26-6.89,4.47-7.67C169.14,953.67,172.25,954.19,173,958.32Z" transform="translate(-36.5 -13.5)"/><path class="cls-1" d="M1366.83,327.22c-3.39,3.16-5.25,6.32-7.68,6.85-4.28.95-5.43-3-5.52-6.37s1-7.36,5.11-6.87C1361.16,321.12,1363.24,324.25,1366.83,327.22Z" transform="translate(-36.5 -13.5)"/><path class="cls-1" d="M1243.69,327.4c-.29,5.3-2.13,7.39-5.82,6.9-1.18-.15-2.13-2-3.18-3.08Z" transform="translate(-36.5 -13.5)"/><path class="cls-1" d="M1213.85,314.51c7.93-.74,11.5.81,10.94,5.06-.88,6.7-6.23,5-10.94,5.13Z" transform="translate(-36.5 -13.5)"/><path class="cls-1" d="M1316.73,327.28c3.68-3,5.78-6.17,8.24-6.48,4.13-.51,5.4,3.43,5.29,6.88s-1.27,7.38-5.63,6.41C1322.15,333.54,1320.24,330.45,1316.73,327.28Z" transform="translate(-36.5 -13.5)"/><path class="cls-1" d="M1346.31,187.59c-3.54,3.29-5.43,6.51-7.81,6.94-4.21.75-5.94-3.11-5.23-6.53.53-2.53,3.1-4.64,4.76-6.93Z" transform="translate(-36.5 -13.5)"/><path class="cls-1" d="M1353,186.79c3.63-2.56,5.87-5.43,8.1-5.42,4.51,0,5.12,4,4.82,7.76-.29,3.61-2.2,6.61-5.85,5.34C1357.69,193.64,1356.14,190.33,1353,186.79Z" transform="translate(-36.5 -13.5)"/><path class="cls-1" d="M1274.2,187.83c.53,5.79-1.8,7.3-5.38,7-1.06-.09-2-1.79-3-2.75Z" transform="translate(-36.5 -13.5)"/><path class="cls-1" d="M1321.93,187.61c-.44,6.09-2.57,7.81-6.24,7.09-1-.2-1.75-1.95-2.6-3Z" transform="translate(-36.5 -13.5)"/><path class="cls-1" d="M1400,185.94h-9l-.73-1.37c1.83-1.22,3.62-3.29,5.51-3.39,1.64-.09,3.39,2.06,5.1,3.22Z" transform="translate(-36.5 -13.5)"/></svg>