<svg id="Layer_1" data-name="Layer 1" xmlns="http://www.w3.org/2000/svg" viewBox="0 0 937.5 535.5"><defs><style>.cls-1,.cls-2,.cls-3,.cls-4{fill:none;}.cls-1,.cls-2,.cls-4{stroke:#4057A1;}.cls-1,.cls-4{stroke-miterlimit:10;}.cls-1,.cls-2{stroke-width:0.5px;}</style></defs><path class="cls-1" d="M16.32,548.93v-535h937v535ZM604.11,209.39c-.65,2-1.83,4.07-1.86,6.12-.16,14.87-.09,29.75-.08,44.62,0,5.1,2,7.12,7.13,7.12h285c5.11,0,7.13-2,7.13-7.12,0-14.87.08-29.75-.08-44.62,0-2-1.21-4.08-1.85-6.12,2.53.1,1.92-1.78,1.92-3.16,0-20,0-40,.05-60,0-3.27,0-6.42-3.2-8.67,3-2.26,3.22-5.14,3.21-8.28-.08-19.3,0-38.59,0-57.89,0-4.63-1.53-6.19-6.08-6.19H608.25c-4.56,0-6.08,1.56-6.08,6.19,0,18.9,0,37.79,0,56.68,0,3.56-.16,7.06,2.09,8.76-.82,3.24-2,5.71-2,8.2-.18,13.56-.08,27.13-.08,40.7,0,7,0,14.07,0,21.1C602.15,208.24,602.15,209.53,604.11,209.39ZM751.65,368H894c5.5,0,7.38-1.91,7.39-7.46q0-22.32,0-44.63c0-5.79-1.83-7.62-7.54-7.62H609.71c-5.71,0-7.53,1.83-7.54,7.62q0,22,0,44c0,6.4,1.64,8.06,8,8.06Zm-556-317.16v49.24h8.92l.67-2.89c6.17,6.26,18.45,5.23,22.41-4.1a28.76,28.76,0,0,0,1.48-18.83c-2-7.59-6.27-11.2-13.37-11.67-4.08-.27-7.56,1.13-10.83,4.62V50.82h-9.28Zm121.84.23v49h8.74c1.56-5-2.28-11.26,4.16-15,2.42,4.54,4.73,9,7.16,13.33.43.76,1.36,1.7,2.1,1.74,3.35.18,6.73.08,10.63.08-3.95-6.89-7.5-13.38-11.36-19.68-1.32-2.15-1.05-3.39.59-5.14,3.44-3.68,6.61-7.61,10.33-12a47.89,47.89,0,0,1-6.65,0c-4.06-.61-6.84.92-9.1,4.22-2,3-4.46,5.75-6.72,8.61l-.79-.3V51.05ZM116.65,100.18c-3.6-4.55-2.43-9.22-2.56-13.71s.06-8.83-.07-13.25c-.14-5.3-2.13-8-7.06-9.57a25,25,0,0,0-15.11-.18c-5.3,1.56-8.36,6.5-7.69,12.3,2.46,0,5,.08,7.44-.06a2.34,2.34,0,0,0,1.75-1.19c1.07-3.37,3.7-3.58,6.53-3.46,2.1.08,4.24.48,4.43,3.07s-2,2.87-3.88,3.26c-3.72.75-7.56,1.14-11.13,2.34-5.16,1.72-7.23,6.15-6.6,12.71.42,4.44,3.42,7.56,8.36,8.59,5.24,1.08,9.61-.87,14-4.65-.67,4,1.57,3.91,3.94,3.82C111.22,100.12,113.42,100.18,116.65,100.18Zm176.06,1.21c9.13,0,14.07-3.25,17.11-11.69,2.7-7.51,1.54-14.71-2.73-21.26-4.15-6.37-15.74-8.41-23.27-4.34-6.7,3.62-9,10-9.06,16.91C274.59,93.06,280.32,101.5,292.71,101.39ZM189.77,84.45a27.32,27.32,0,0,0-2.19-13.37c-2.86-6.61-8.39-8.71-14.82-8.71s-11.7,2.4-14.52,8.76a28.13,28.13,0,0,0-2.05,14.1c.94,11.11,9.26,17.7,20.29,15.93,7.13-1.14,12-5.73,12.72-12.41-4.27.68-9.26-2.12-12.16,3.49-.22.42-1,.6-1.58.78-5.06,1.66-9.79-2.56-9.28-8.57Zm62.53,17.48c3.07-.81,6.38-1.12,9.15-2.52,7.4-3.76,9.16-10.79,9-18.29-.12-6.62-2.07-12.82-8.15-16.48-11.29-6.8-24.82-.92-27.59,11.93C232.28,87.88,237.16,101.85,252.3,101.93ZM152.55,77c.13-7.88-3.84-12.89-10.87-14.14a24.37,24.37,0,0,0-3.89-.43c-5.55,0-10.94,1-14,6a25.33,25.33,0,0,0-.88,26.11c3.73,7.11,15.37,9.13,22.73,4.51,4.6-2.9,6.66-7.17,7.05-12.77-2.16,0-4.07.14-5.95,0-2.47-.23-3.79.31-4.72,3-1.6,4.71-6.72,5.15-9.73,1.19-2.72-3.58-3-12.65-.45-16.4a6.11,6.11,0,0,1,6-2.82A5.49,5.49,0,0,1,142.53,75a3.34,3.34,0,0,0,2.08,1.93C147.18,77.16,149.8,77,152.55,77Zm33,127.29,4.78-17.87h-3.89c-.93,3.84-1.83,7.55-2.72,11.27a28.15,28.15,0,0,1-2.83-8.23c-.51-2.95-1.9-3.88-4.81-2.91q-1.54,5.66-3.08,11.35h-.58c-.92-3.83-1.85-7.67-2.77-11.46h-3.94c1.65,6.09,3.22,12,4.82,17.88h4c.58-2.12,1.1-4,1.62-6l1.59-5.73a27,27,0,0,1,2.92,8.5C181.06,204.4,182.6,205.1,185.56,204.3Zm361.06-57.11c-2.83-2.35-5.69-3.15-8.77-1.45s-3.8,4.48-3.9,7.64a20.44,20.44,0,0,0,.07,2.71c.86,7.32,6.11,9.78,12.36,5.8.8,1.94.8,1.94,4,1.25v-24.2h-3.81ZM266.67,161.6c5.39,4.12,10.73,1.75,11.94-2.44a21.08,21.08,0,0,0,.66-6.82c-.14-2.92-1.32-5.52-4.19-6.81s-5.68-.71-7.24.74l-5-1.22v24h3.8Zm28,24.32v24.2h3.94V202c2.73,3.24,7.77,3.75,9.77,1.19a12.62,12.62,0,0,0,2.8-9.82c-1-7-6.18-9.44-11.41-6.1Zm56.75.06v24.11h3.84v-7.86c3,3,7.95,3.48,9.91.9a12.73,12.73,0,0,0,2.75-9.55c-.9-7.17-6.11-9.66-11.45-6.3ZM140.3,162.45c3.51,2.91,9.29,1.36,10.62-2.85a18.5,18.5,0,0,0,.87-7.07c-.67-7.09-5.8-9.51-11.9-5.87-.11.06-.35-.11-.75-.25V138.9h-3.73V164Zm-56.45-23.3-8.56,24c4.42.68,4.69.73,5.5-3.34.59-2.94,1.94-3.9,4.7-3.44a4.44,4.44,0,0,0,1.5,0c2.8-.52,4.06.61,4.69,3.43.92,4.11,1.15,4.06,5.45,3.32-2.45-6.92-5-13.77-7.29-20.69C88.91,139.66,87.78,137.72,83.85,139.15Zm128.33,40.11v25.06H216c0-3.61-.06-7,0-10.41.06-2.74,1.63-4.52,3.82-4.48,2.74.06,3.49,2,3.71,4.23.13,1.29.08,2.6.09,3.9,0,2.28,0,4.55,0,6.77h3.85c0-4.21.15-8.22,0-12.21-.24-5-4.75-7.67-9.22-5.63a26.12,26.12,0,0,0-2.35,1.42v-8.65Zm-103,25.2c0-4.23.18-8.14,0-12-.32-5.56-5-8.18-9.8-5.68-.49.26-1,.57-1.79,1.08V179.3H93.78v25.13h3.81v-3c0-2.51,0-5,0-7.52s1.1-4.37,3.86-4.39,3.51,1.89,3.61,4.23c.06,1.3.05,2.6.05,3.91,0,2.26,0,4.52,0,6.84Zm144.5-25.12h-3.75v25.1h3.69c0-3.48-.08-6.87,0-10.27.1-3,1.65-4.76,3.95-4.74s3.63,1.58,3.69,4.84,0,6.77,0,10h3.76c0-4.52.3-8.85-.09-13.11s-4.42-6.42-8.49-4.88a30.3,30.3,0,0,0-2.8,1.4Zm-32.16-15.93c0-3.72-.1-7.23,0-10.73.09-2.3,1.21-4.09,3.78-4.25,2.36-.15,3.4,1.42,3.77,3.49a15.25,15.25,0,0,1,.13,2.71c0,2.89,0,5.78,0,8.72h3.84c0-3.38,0-6.59,0-9.79,0-.91,0-1.82-.09-2.71-.47-5-5.26-7.55-9.69-5.07-.55.31-1.08.67-2,1.21v-8.12h-3.6v24.54Zm-28.77-.08h3.8c.2-2.64.38-5.09.57-7.55l1-.14a65.6,65.6,0,0,1,3.73,5.55c1.44,2.64,3.6,2.65,6.31,2.1l-7.07-10.48,6.73-7.2c-6-2-7.25,4.08-11.2,6.1V139h-3.91v24.37Zm-65.69,41.12c0-4,0-7.66,0-11.37,0-2.64-.36-5.11-3.09-6.33-3.13-1.4-6.34-1.41-9.12.7-1.11.84-1.64,2.43-2.44,3.69l.86,1a32.82,32.82,0,0,1,3.81-1.77c1.35-.45,2.92-1.06,4.16-.73.92.25,1.47,1.88,2.41,3.22-3.12.45-5.54.61-7.85,1.2-3.26.83-4.73,3.36-3.5,6.42a7.39,7.39,0,0,0,3.58,3.89,5.45,5.45,0,0,0,6.54-1.59c.15-.19.32-.35.57-.61l.22,2.25Zm29.77-8.3c.11-6.45-2.39-9.85-7.26-10.26s-8.21,2.65-8.84,7.81,2.23,10.19,6.19,10.9c5.2,1,8.44-1.06,9.73-6.79a45.71,45.71,0,0,1-4.69,2c-1.44.44-3.23,1.17-4.41.68-1.34-.56-2.16-2.33-3.21-3.58l.64-.73Zm160.06.79.84-.92h11.61c.26-6.17-2.27-9.67-7.15-10.12-4.65-.43-8.1,2.47-8.85,7.44-.8,5.22,2.05,10.5,6.07,11.26,5.17,1,8.38-1,9.82-6.59-1.73.61-3.07,1.14-4.45,1.53-1.54.44-3.33,1.37-4.62.93S318,198.18,316.88,196.94ZM509,151.82c-3.32.51-5.72.68-8,1.27-3.05.78-4.13,2.67-3.8,5.87a4.78,4.78,0,0,0,4.94,4.66,28.26,28.26,0,0,0,5.39-.92l4.72,1.14c0-4.93.15-9.33,0-13.71-.15-3.36-3-5.33-7.14-5.29-4.28,0-6.63,2-7,6.47a44.45,44.45,0,0,1,4.2-1.9c1.35-.44,2.87-1,4.14-.76C507.32,148.84,507.91,150.38,509,151.82Zm-50.63,3.3c-.11-6.92-2.95-10.34-8.1-10.28s-8.14,3.76-8.06,9.58c.08,6.08,2.92,9.32,8.17,9.34,4.68,0,7.43-2.25,7.41-6.65-1.34.41-3.22.42-3.69,1.24a3.76,3.76,0,0,1-4.79,1.93c-2.4-.67-2.84-2.75-2.92-5.16h12Zm-206.43,0c.17-6.49-2.54-10-7.57-10.23-4.77-.19-8.19,3.12-8.47,8.22-.37,6.58,2.21,10.29,7.4,10.66,5,.34,8-1.84,8.32-6.67-1.5.5-3.4.55-4,1.43a3.75,3.75,0,0,1-4.84,1.74c-2.32-.76-2.76-2.77-2.69-5.15Zm32.31,42.8c-1.92.69-3.2,1.24-4.53,1.6-1.63.44-3.49,1.34-4.88.89s-2.09-2.35-3.61-4.24H284c.73-7.57-4.3-12-10.7-9.74-3.18,1.14-5,4.12-5.23,8.36-.21,4.79,2.7,9.25,6.42,9.87C279.59,205.46,282.44,203.71,284.27,197.88Zm97.26-.93.75-.92h11.63c.37-5.26-1.28-8.43-4.92-9.67-5.86-2-10.84,1.8-11.08,8.45-.16,4.68,3.09,9.53,6.49,9.89,5.11.53,8-1.06,9.6-6.69-1.76.61-3.1,1.13-4.49,1.53s-3.34,1.38-4.63.94S382.63,198.18,381.53,197ZM132,155.18c.28-6.45-2.4-10-7.43-10.32s-8.4,3.18-8.68,8.66c-.31,6.15,2.49,9.9,7.61,10.22,4.92.31,7.86-1.9,8.13-6.59-1.37.39-3.27.36-3.71,1.15a3.84,3.84,0,0,1-4.78,2c-2.41-.63-2.84-2.75-3.1-5.14Zm-14.51,83.18c.36-6.22-2.2-9.79-7.1-10.24s-8.41,2.74-8.93,8.07c-.56,5.72,2.87,10.31,8,10.77,3.17.28,7.1-2.87,7.72-7a32,32,0,0,1-4.62,2.09c-1.53.41-3.39.92-4.71.39s-1.85-2.28-3.19-4.11ZM462.76,204.8c5.5.48,8.53-5.15,8.49-9.79,0-5.57-3.39-9.2-8.51-9.15s-8.28,3.57-8.36,9C454.31,199.5,457.27,205.21,462.76,204.8Zm-24.1,5.14c4.82.79,6.89-.27,8.49-4.61s3-8.69,4.48-13c.65-1.92,1.32-3.83,2-5.94h-4.12c-1.35,4.2-2.68,8.36-4.28,13.35-1.62-5.12-2.93-9.28-4.19-13.25h-4.32c1.87,5.1,3.7,10,5.41,14.83,1.48,4.23.88,5.19-3.51,6.1ZM170.78,154c0-5.58-3.43-9.21-8.57-9.13S154,148.49,153.9,154c-.05,6.24,3,9.83,8.45,9.84S170.81,160.26,170.78,154Zm231.69.13c0-5.61-3.31-9.27-8.45-9.26s-8.48,3.72-8.43,9.29c0,6.14,3,9.59,8.32,9.66S402.44,160.38,402.47,154.1Zm82.38,49.84,4.31.81V186.44h-3.91c0,3.46.1,6.75,0,10-.12,2.76-1.78,4.49-4,4.3-2.71-.24-3.35-2.15-3.34-4.49v-9.82H474c0,3.89-.14,7.59,0,11.27C474.33,204.4,478.88,206.71,484.85,203.94ZM305,145.39c1.89,5.51,3.62,10.61,5.39,15.7,1.21,3.48.62,4.48-3,5a3.4,3.4,0,0,0-.88.44l.24,2.49c4.38.54,6.53,0,7.66-2.88,2.67-6.75,4.95-13.65,7.47-20.7h-4.24l-4.22,13.33c-1.53-4.88-2.85-9.07-4.2-13.35Zm48.51,0v4.53c0,1.5,0,3,0,4.51-.09,3.76-1.63,6-4.07,6-2.26,0-3.35-1.77-3.42-5.71-.06-3.07,0-6.14,0-9.22h-3.86c0,4.31-.14,8.43,0,12.54s2.69,6.18,6.8,5.65a24.12,24.12,0,0,0,4.46-1.44l-.22.65,4,.79V145.37Zm-21.86,49.79c0,5.76,3.4,9.45,8.36,9.67,5.33.25,8.48-5,8.37-10-.12-5.55-3.31-9-8.37-9S331.64,189.46,331.68,195.16ZM405.45,145v18.31h3.7c0-3.39,0-6.59,0-9.79s1.49-5.07,3.86-5.12c2.52-.06,3.57,1.35,3.63,5.08.05,3.28,0,6.57,0,9.86h3.91V152.69c0-.6,0-1.21,0-1.81-.38-4.25-3.31-6.68-7.33-5.89a22,22,0,0,0-3.84,1.53l.21-.53Zm10.73,59.46c0-3.59-.05-6.88,0-10.17s1.57-5,4-4.84c3,.19,3.33,2.37,3.33,4.72V204.4h3.88c0-4.23.22-8.33-.05-12.4-.37-5.45-4.71-7.65-9.67-5.17a2.5,2.5,0,0,1-1.44.42c-1.27-.34-2.48-.88-4-1.43v18.64ZM322.63,154c0,6.36,2.92,9.79,8.38,9.78s8.4-3.5,8.35-9.82c-.05-5.55-3.19-9-8.24-9.1S322.65,148.32,322.63,154ZM173,154c0,6.36,2.9,9.8,8.35,9.8s8.42-3.48,8.38-9.79c0-5.56-3.17-9-8.22-9.13S173,148.3,173,154ZM76.7,197.9l-.59.88c1.07,5.5,7.65,8.34,11.93,4.8a7.78,7.78,0,0,0,2.29-5.69c-.06-1.3-2.14-2.77-3.62-3.66-1.32-.8-3.11-.77-4.57-1.39-.69-.29-1.57-1.28-1.51-1.87a2.43,2.43,0,0,1,1.75-1.65,9.39,9.39,0,0,1,3.52,1c1.26.52,2.43,1.26,4,2.09,0-5.3-4.31-7.64-9.43-6.05-2.47.76-3.91,2.27-4,5s1.53,4,3.81,4.74c1.62.52,3.32.8,4.91,1.37.54.2,1.26,1,1.21,1.48-.08.66-.79,1.77-1.23,1.77A13.89,13.89,0,0,1,80.7,200,28,28,0,0,1,76.7,197.9Zm218.83-46.52c.46-5.61-5.4-7.32-9.16-6.21-2.6.77-4.25,2.27-4.34,5s1.61,4.17,4.06,4.87a29.34,29.34,0,0,1,4.32,1.22c.71.33,1.64,1.48,1.52,2a3.25,3.25,0,0,1-1.93,2.08c-2.36.62-4.16-.2-4.59-2.83h-3.65c.23,5.41,6.36,8.12,11.61,5.29a5.36,5.36,0,0,0,2.89-5.49c-.15-2.34-1.56-3.59-3.67-4.2a49.82,49.82,0,0,1-4.89-1.39c-.69-.28-1.56-1.29-1.5-1.88a2.44,2.44,0,0,1,1.76-1.62,9.32,9.32,0,0,1,3.52.94C292.74,149.78,293.92,150.52,295.53,151.38Zm235.54,12.08c0-4.15.08-8.05,0-12-.15-5.63-4.43-8.18-9.54-5.8a3,3,0,0,1-1.69.34c-1.24-.24-2.44-.68-3.79-1.08V163.4h3.73c0-3.71-.19-7.33,0-10.92s3.63-5.45,5.81-3.42a6.86,6.86,0,0,1,1.57,4.27c.22,3.35.07,6.73.07,10.13Zm-91.7-.05c0-4.13.07-7.95,0-11.75-.14-5.88-4.31-8.35-9.68-5.85a2.65,2.65,0,0,1-1.5.37c-1.27-.3-2.5-.78-3.89-1.23v18.38H428c0-3.5-.08-6.81,0-10.11s1.71-5,4.17-4.8c3,.2,3.31,2.46,3.35,4.76.06,3.38,0,6.76,0,10.23Zm-55.83-12.08c.27-4.06-4.15-7-8.45-6.43-4.79.57-7.7,4.29-7.42,9.59.31,6.14,3.09,9.24,8.31,9.29,4.69,0,7.25-2.32,7.5-6.94-1.92-.31-3.59-.63-4.51,2-.75,2.09-4.09,2.22-5.59.5a8.6,8.6,0,0,1-.82-8.8c1.5-2.59,4.95-3.15,6.44-.71C380.3,151.89,381.79,151.52,383.54,151.33Zm93,0c-.89-4.73-4.23-7.07-8.91-6.36s-7.46,4.61-7,9.91c.54,6.27,3.46,9.17,8.94,8.9,4.36-.21,6.72-2.62,6.76-6.95-1.94-.29-3.57-.54-4.47,2.06-.72,2.06-4.16,2.12-5.62.39a8.67,8.67,0,0,1-.73-8.82c1.54-2.58,5-3.08,6.45-.6C473.27,152,474.81,151.43,476.54,151.31Zm-362.62,0c-.35-4.27-3.54-6.79-8.07-6.44-5.19.4-8,4.16-7.59,10.23s3.53,9,9.12,8.63c4.21-.31,6.65-2.93,6.41-6.89-2.71-.24-2.71-.24-4.31,2.14a3.72,3.72,0,0,1-5.76.19,8.89,8.89,0,0,1-.75-8.57c1.43-2.66,4.89-3.32,6.42-.91C110.67,151.74,112.11,151.6,113.92,151.32Zm-13,80.23-.2-2.85-4.16-.62c1.07-1.6,1.64-3.44,2.61-3.69,2.1-.53,1.91-1.56,1.52-3-4.66-.69-7.28-.35-7.88,6.34-.72,1.06-1.43,2.12-2.39,3.56l3.23.64V246h3.77V231.78Zm138.5-41.17c0,2.9-.15,6.11,0,9.31.28,4.55,2.61,6,7,4.58v-2.93c-1.45-.62-2.94-1.53-3-2.59a81.72,81.72,0,0,1-.12-9.12l3.37-.46-.29-2.73-3-.37c-.1-1.48-.19-2.83-.28-4.23h-3.36a32.88,32.88,0,0,1-1.23,4.32,8.49,8.49,0,0,1-1.76,2C237.5,188.79,238.23,189.4,239.38,190.38Zm-37.83-.92c0,3.57-.12,6.68,0,9.79.23,4.79,2.36,6.28,7.08,5.16V201.2l-.73.4c-.75-.91-2.06-1.77-2.15-2.74-.28-3.05-.1-6.15-.1-9.21l3.2-.47-.21-2.74-2.89-.39c-.11-1.48-.21-2.84-.31-4.23H201.6v4.11l-2.3.57C198.84,188.35,198.73,189.89,201.55,189.46Zm278.74-40.82c0,3.39-.05,6.4,0,9.4.09,5,2.22,6.53,7.16,5.33.1-1.32.72-2.81-1.63-3-.5,0-1.28-1.24-1.31-1.93-.14-3.27-.06-6.54-.06-9.86l3.14-.41c-.05-1-.1-1.91-.15-2.79l-2.89-.34c-.12-1.43-.23-2.79-.34-4.2h-3.85c-.07,1.51-.13,2.8-.19,4.12l-2.27.53v2.7ZM207.66,499.29l.5,0c0,2.4,0,4.81.05,7.21,0,.47.66.91,1,1.37.26-.43.75-.87.76-1.3.06-4.16,0-8.32,0-13.41-4.74,3-4,8.25-6.83,11.21-2.81-3-2-8.29-6.82-11,0,5,0,9.22,0,13.4,0,.43.75.84,1.16,1.26l.83-.38v-7.64a31.54,31.54,0,0,1,3.18,5.94,10.36,10.36,0,0,0,1.53,1.94,8.85,8.85,0,0,0,1.61-1.83C205.78,503.86,206.69,501.56,207.66,499.29Zm-14.24-5.84c-4.55,2.86-4.11,8-6.81,11.45-1.28-3.11-2.44-6.19-3.84-9.16-.39-.82-1.5-1.29-2.89-2.42,0,5.06,0,9,0,12.88,0,.63.61,1.24.94,1.86l.93-.34v-8.38a49.38,49.38,0,0,1,3.32,6.51,11.58,11.58,0,0,0,1.73,2.08,11.72,11.72,0,0,0,1.51-2c1-2,1.81-4.07,2.7-6.11l.74.18v7.72C193.85,507.41,194.18,504.55,193.42,493.45ZM77,221.46V246h3.67V221.46Zm53.92-35.32v18.19h3.49a1.92,1.92,0,0,0,.17-.46q0-4.22,0-8.43c0-4.65.81-5.58,5.21-6.21v-3.77l-5.11,1.83.21-.58Zm362.29.24v18H497c0-3.1,0-6.09,0-9.08,0-4.75.6-5.42,5.09-6.07v-4.19C499.12,187.68,496.07,185.91,493.21,186.38Zm-122-7.07v25h3.51v-25Zm260.19,260,.86.66c.35-.6,1-1.17,1-1.79.17-1.59-.17-3.27.21-4.79.23-.91,1.41-1.58,2.17-2.36.62.78,1.68,1.5,1.78,2.35a47.91,47.91,0,0,1,.09,6.23l.75.36c.4-.52,1.1-1,1.14-1.55a36.18,36.18,0,0,0,0-5.41c-.26-3.37-2.3-4.53-5.4-3.19a3.65,3.65,0,0,1-1.52.53c-2.36-.27-4.71-.66-7.09-1-.52,9.7-.45,10.09,1.84,10.17a37.21,37.21,0,0,1,.1-6c.16-.92,1.38-1.66,2.12-2.47.63.85,1.68,1.63,1.82,2.56A37.18,37.18,0,0,1,631.35,439.26ZM258.82,163.4V138.9h-3.49v24.5ZM648.91,439.93l.86-.38c0-1,0-2,0-3a9.34,9.34,0,0,1,.11-3.27c.37-.93,1.43-1.57,2.18-2.34.63.77,1.66,1.48,1.8,2.33a46,46,0,0,1,.15,5.39c0,.36.47.7.72,1.05.38-.34,1-.65,1.07-1,.12-1.59.08-3.2.06-4.8-.07-4.43-1.72-5.52-5.83-3.87a2.21,2.21,0,0,1-1,.28c-2.34-.32-4.68-.69-7.14-1.07v10.26l.72.4c.36-.6,1-1.18,1-1.81.17-1.59-.16-3.26.22-4.78.22-.91,1.41-1.59,2.16-2.37.62.79,1.61,1.51,1.77,2.39.3,1.55,0,3.2.15,4.79C648,438.77,648.56,439.34,648.91,439.93Zm55.37-28.66a4.09,4.09,0,0,0,4.88,2.43c2-.35,3.72-1.25,3.8-3.56.12-3.56,0-7.12,0-10.76-2.47,0-4.84-.54-6.78.14-2.59.9-2.89,3.63-2.61,6.1.39,3.43,2.85,4.55,7.59,3.4-.27.86-.45,2.14-.72,2.16C708.38,411.35,706.28,411.27,704.28,411.27ZM261.85,508.09l.85-.48v-1.79c0-1.5.05-3,0-4.51-.15-3.59-2.18-4.82-5.41-3.32-.43.2-.86.69-1.23.63-2.43-.35-4.84-.82-7.43-1.29,0,3.3-.05,6,0,8.71a5.6,5.6,0,0,0,.83,1.87,6.37,6.37,0,0,0,1-2c.17-1.49-.19-3.09.22-4.48.27-.9,1.51-1.52,2.32-2.27.57.82,1.48,1.57,1.62,2.45.26,1.66,0,3.41.15,5.1.05.48.84.9,1.83,1.87,0-2.84-.25-4.79.1-6.62.19-1,1.37-1.88,2.1-2.81.67.91,1.68,1.74,1.92,2.76.33,1.43,0,3,.14,4.49C260.91,507,261.5,507.53,261.85,508.09Zm-69-321.69v18h3.71v-18Zm215.35,18.06v-18h-3.76v18ZM759.31,399c-2.29.47-5.24.27-5.86,1.37-1.12,2-1.28,4.84-1.05,7.24.19,2.11,2.18,2.91,4.35,2.68,1.45-.16,2.9-.29,4.55-.46,0-4.26,0-8.65,0-13,0-.6-.68-1.18-1-1.77l-.69.38C759.43,396.86,759.34,398.32,759.31,399ZM88.46,228.7H84.71V246h3.75Zm2.39,272.18a7.6,7.6,0,0,0-7.5-7.44,7.55,7.55,0,1,0,7.5,7.44ZM614.92,400.24c-.79-3.66-3-5.1-6.44-4.63s-5.25,3.31-5.09,8c.14,4.27,2.31,6.78,6,6.89,3.11.09,5-1.36,5.39-4.33-1.94.84-3.8,2.28-5.67,2.31-2.89,0-3.66-2.6-3.58-5a8.26,8.26,0,0,1,1.52-5C610,395.16,612.15,399.59,614.92,400.24ZM119.08,501.37c-.27-1.45-.4-2.75-.76-4-.6-2.08-1.87-3.49-4.22-3.55-2.51-.06-4.21,1.32-4.46,3.57a22.75,22.75,0,0,0,.46,8.15c.3,1.13,2.53,2.43,3.87,2.42s3-1.3,3.91-2.49S118.73,502.7,119.08,501.37ZM682.65,399.65v13.93l1.07.16c.26-1.41.51-2.82.76-4.23,4.09,1.55,6.59.53,7-3a14.55,14.55,0,0,0-.32-4.45c-.45-2.28-2.12-3-4.27-2.87C685.5,399.26,684.07,399.48,682.65,399.65ZM177.29,508.22l.75-.74c-1.48-4-2.92-8.07-4.46-12.07a2.32,2.32,0,0,0-1.29-1.3,1.59,1.59,0,0,0-1.37.78c-1.62,4.23-3.14,8.5-4.68,12.76l.91.58c.56-.67,1.45-1.26,1.62-2,.42-1.92,1.56-2.2,3.27-2.2s3,.27,3.56,2.27C175.79,507,176.7,507.58,177.29,508.22Zm635.35-97.85.82-.35a49.12,49.12,0,0,1,.11-6.87c.13-.87,1.47-1.57,2.25-2.35.71.81,1.85,1.53,2,2.45a43.73,43.73,0,0,1,.26,5.39c0,.54.54,1,.83,1.56.33-.48.91-.94,1-1.44a37.11,37.11,0,0,0,0-4.22c-.12-5.09-1.64-6.2-6.44-4.82-1-1.28,1.12-3.9-2.09-4.76,0,4.93,0,9.43.06,13.93C811.49,409.39,812.23,409.88,812.64,410.37Zm18.06-4.75c.29-4.09-.67-5.92-3.19-6.41-2.79-.55-4.48.56-5.3,3.46-1,3.42-.06,6.3,2.3,7.32s4.83.15,6.13-2.38c-6.13-.09-6.13-.09-6.44-2Zm-106.8,0c.31-4.2-.75-6.08-3.47-6.46-3-.42-4.78,1.11-5.37,4.65-.53,3.21,1,5.93,3.51,6.43,2.77.54,4.42-.37,5.07-2.8-5.75,1.05-5.75,1.05-6.24-1.82Zm-64.07.07c.34-4.11-.75-6.09-3.41-6.51q-4.26-.69-5.3,3.92c-.76,3.34.46,6.3,2.91,7,2.67.82,4.69-.14,5.65-2.86-2.34.19-5.35,3.34-6.76-1.6ZM124.33,505.85c1.77-2.2,3.74-4,4.89-6.31a4.65,4.65,0,0,0-.78-4.41,6.34,6.34,0,0,0-4.9-.84c-1.48.33-2.91,1.72-2,4.47.75-.81,1.11-1.51,1.67-1.74a28.77,28.77,0,0,1,3.58-1c.14,1.24.75,2.69.31,3.67-.62,1.4-2,2.43-3.07,3.65s-2.19,2.62-3.66,4.38H130l.17-1.11Zm-23.16-.12c1.55-1.71,3.32-3.07,4.24-4.86.77-1.48,1.22-3.84.53-5.13-.59-1.1-3-1.72-4.59-1.69-2.06,0-3.28,1.63-3.48,4.57,1-.7,1.83-1,2.17-1.54,1-1.63,2.54-2.05,3.71-.85.64.66.61,2.69.06,3.63-1,1.7-2.6,3-3.9,4.55-.79.93-1.48,1.95-2.52,3.34h10.36C105.67,505.1,103.2,506.78,101.17,505.73Zm574-95.84c-.14-2.67-.27-5.33-.43-8-.15-2.48-2-2.79-3.87-2.74s-3.76.55-3.73,3.49c2,.13,5.12-4.71,5.93,1.22-1.15.11-2,.18-2.9.28-2.09.24-3.81,1-3.5,3.51s2.22,2.75,4.26,2.59Zm-42.78-2.55c-2.28-.07-5.47,3.26-6.83-1.77h6.88c.15-4.4-.82-6.06-3.58-6.42s-4.34.82-5.07,3.84c-.82,3.44.26,6.32,2.7,7.14S631.07,410.06,632.35,407.34Zm-396.1,95.94c0-3.94-1.24-5.65-4-5.86s-4.63,1.39-5,4.4c-.4,3.44,1,5.78,3.74,6.16s4.23-.48,4.73-2.83c-5.65,1.09-5.65,1.09-6.3-1.87ZM737.52,402.94l-.5.92c-1,.1-2.12.16-3.16.33-2,.33-3.52,1.25-3.14,3.56s2.14,2.68,4.11,2.5c1.31-.12,2.62-.3,4-.46,0-2.45.2-5.24-.06-8s-2.46-2.79-4.56-2.57c-1.85.19-3.19.95-2.89,3.73,1.42-.87,2.47-2,3.55-2C735.74,400.91,736.64,402.22,737.52,402.94Zm-37.7,1c-1.26.1-2.24.13-3.2.26-2,.27-3.6,1.09-3.32,3.41.3,2.49,2.16,2.85,4.26,2.66l4.24-.39c-.13-2.62-.12-5.42-.43-8.18-.26-2.36-2.22-2.62-4.1-2.5s-3.55.66-3.43,3.32C695.8,403,698.8,397.69,699.82,403.91Zm-57.52,5.9c0-2.47.2-5.25,0-8s-2.46-2.8-4.56-2.58c-1.85.19-3.2.93-2.89,3.72,1.41-.86,2.45-2,3.53-2,.87,0,1.77,1.27,2.66,2-.16.31-.33.62-.5.92-1,.11-2.12.17-3.16.34-2,.32-3.52,1.23-3.14,3.55s2.12,2.69,4.1,2.51C639.6,410.13,640.9,410,642.3,409.81Zm-477.68,98,.35-1.2-6.6-.77v-3.79l6.31-.79-.16-1.21h-6.18v-4.27h6.4l.17-1.5a42.79,42.79,0,0,0-8.48-.09v13.62Zm613-97.5c3,0,4.81-2,4.82-5.29,0-3.89-1.68-6-4.85-5.95s-4.75,2-4.73,6C772.83,408.44,774.51,410.31,777.58,410.31ZM666.51,439.7c0-3,0-5.93,0-8.81,0-.5-.62-1-1-1.46-.31.52-.83,1-.88,1.55-.16,1.69.12,3.47-.31,5.07a3.5,3.5,0,0,1-2.44,1.92c-.53.09-1.69-1.2-1.88-2-.34-1.43,0-3-.21-4.48a7,7,0,0,0-1-2,6.6,6.6,0,0,0-.84,1.89,28.19,28.19,0,0,0,0,3.9c.18,4.13,1.31,5,5.52,4.31A17.36,17.36,0,0,1,666.51,439.7ZM244.64,500.65l-.57,1c-.89.06-1.78.1-2.67.2-2.11.23-3.84,1.1-3.48,3.53s2.22,2.8,4.34,2.56c1.24-.15,2.49-.23,4-.36,0-2.18.07-4.57,0-6.95-.08-2.22-1.53-3.16-3.58-3.17-1.86,0-3.73.14-4.27,3.12,1.47-.6,2.53-1.37,3.57-1.35S243.74,500.14,244.64,500.65Zm446.29-71.41-.8.58,1.92,5.3c1,2.71,3.23,5.58-2,7.74,2.73.74,4.23.25,4.89-1.33,1.64-3.88,3-7.88,4.51-11.84l-.93-.46c-2.74,1.57-1.87,5.33-3.74,7.43C692.79,434.61,693.86,430.71,690.93,429.24Zm-67.59,5.19c-.05-3.33-1.82-5.23-4.83-5.2s-4.77,2.08-4.77,5.33,1.9,5.4,5,5.3C621.76,439.77,623.39,437.83,623.34,434.43Zm172.79-24,.79-.36a4.3,4.3,0,0,0,.21-.84c0-1.81,0-3.62,0-5.43-.1-4.2-1.2-5-5.43-4.28a15.87,15.87,0,0,1-2.76,0c-1.05,5.67-.45,10.31,1.42,10.4a41.62,41.62,0,0,1,.46-6.54c.22-1,1.57-1.73,2.41-2.58.67,1,1.69,1.86,1.93,2.92.33,1.53,0,3.2.15,4.8A6.24,6.24,0,0,0,796.13,410.39Zm-183.74,22.3c-1.46-3-3.36-4-5.91-3.25-2.39.66-3.64,3.13-3.13,6.34.39,2.45,1.73,4,4.37,4.07,2.23.06,3.93-.62,4.51-3.34-2.36-.13-4.35,3.47-6.2.4a5.32,5.32,0,0,1-.19-4.43C607.69,428.83,609.94,432.81,612.39,432.69Zm129.25-22.62.78.31a6.54,6.54,0,0,0,.88-1.93c.18-1.79-.08-3.65.34-5.36.22-.91,1.5-1.56,2.31-2.32.69.83,1.81,1.57,2,2.5a45.64,45.64,0,0,1,.23,5.38c0,.53.54,1,.83,1.54.33-.47.92-.93.94-1.42a51,51,0,0,0-.09-6.3c-.24-2.65-1.68-3.63-4.3-3.24-1.24.19-2.5.27-3.92.42Zm-72.55,19.69c0,2.82,0,5.73,0,8.63,0,.46.47.9.72,1.35.37-.45,1-.87,1-1.34.14-1.5-.25-3.1.16-4.49.33-1.12,1.52-2,2.33-3,.78.95,1.92,1.79,2.26,2.87.39,1.29,0,2.8.14,4.19.06.61.61,1.16.94,1.74a5.79,5.79,0,0,0,.83-1.84,36.59,36.59,0,0,0,0-5.13c-.22-2.76-1.77-3.83-4.53-3.37C671.87,429.6,670.7,429.62,669.09,429.76Zm140.28-20c-3-4.36-3-7.86-.31-9.56l-2.17-3.46c-1,.95-2,1.9-3.06,2.87-.11.11-.08.37-.12.55a6.35,6.35,0,0,1,1.58,3.38c.17,1.18,0,2.4.05,3.59C805.47,410,806.42,410.55,809.37,409.76Zm-120,20.35c-3.27-1.51-4.3-1.57-5.76-.42-.12.1-.13.35-.25.7,2.88,1.32,1.25,3.9,1.49,6,.34,3,1.08,3.68,4.21,3C685.9,433.91,685.9,432,689.33,430.11ZM227.69,495.69c-.68-1.68-3.89-2.21-9.11-1.59-.55.07-1,.7-1.54,1.07l.35.67h4.07c0,3.5-.05,6.79,0,10.08,0,.67.65,1.32,1,2a5.64,5.64,0,0,0,.8-1.88c.09-3.3,0-6.59,0-10Zm-82.21,8.76c-.1,2.64,1.34,3.52,3.43,3.69,2.37.2,4-.94,4.2-3.26.27-3.17.17-6.38.14-9.58,0-.41-.55-.81-.85-1.22-.33.47-.92.93-1,1.43-.11,2,.12,4-.1,6a29.55,29.55,0,0,1-1.22,4.63c-1.23-.56-2.45-1.12-3.69-1.66A3.76,3.76,0,0,0,145.48,504.45ZM644.37,399.71a19.57,19.57,0,0,1,1.15,3.49c.19,1.38,0,2.81.07,4.21.16,2.6,1.61,3.32,4.12,2.11-3.18-3.07-3.18-7.31-.35-9.4-.68-1-1.3-2-2-2.89-.2-.27-.65-.66-.84-.59a2.2,2.2,0,0,0-.95.87C645.09,398.31,644.67,399.16,644.37,399.71ZM766.3,413.33c3.27.54,4.39-.46,4.44-2.64q.12-4.92,0-9.86c0-.53-.55-1-.85-1.55-.34.57-.92,1.12-1,1.71-.14,1.59,0,3.2-.06,4.78C768.69,408.27,769.86,411.09,766.3,413.33ZM135.73,496.45c0,3.67,0,6.87.05,10.06,0,.47.63.93,1,1.39.28-.42.8-.83.81-1.25.06-4.16,0-8.32,0-12.5-3.36.28-5.14,1.75-5.26,4.29Zm481.54-97c0,2.41-.13,4.71,0,7a19.2,19.2,0,0,0,1.05,3.74,20.65,20.65,0,0,0,.73-3.73c0-2.68,0-5.24,3.48-5.9.12,0,.09-.84.13-1.32ZM83.37,223.24l3.07,2.88c.77-.94,1.89-1.8,2.16-2.87.12-.53-1.29-1.93-2.12-2S84.81,222.24,83.37,223.24ZM403,181.32c1.6,1.23,2.48,2.42,3.36,2.43a3,3,0,0,0,2-2.17,3.46,3.46,0,0,0-2-2.58C405.71,178.82,404.64,180.13,403,181.32Zm-205,.17c-1.6-1.28-2.61-2.63-3.3-2.48a3.39,3.39,0,0,0-2.07,2.47,3,3,0,0,0,1.93,2.27C195.42,183.79,196.35,182.64,198,181.49Zm-75.13,66c1-1.68,2.17-2.74,2-3.41-.27-.92-1.56-1.53-2.41-2.27-.69.81-1.89,1.61-1.92,2.45S121.64,245.9,122.86,247.47ZM786.19,404.76c0-1.4.06-2.8,0-4.19,0-.44-.51-.85-.79-1.27-.33.36-1,.72-1,1.09-.08,2.89-.08,5.79,0,8.68,0,.38.6.75.93,1.12.29-.41.79-.81.82-1.24C786.26,407.56,786.19,406.16,786.19,404.76ZM681.81,434.83h0c0-1.5.05-3,0-4.49a1.23,1.23,0,0,0-.87-.83c-.3,0-.86.52-.86.83-.07,2.79-.09,5.58,0,8.38,0,.35.67.68,1,1,.26-.34.71-.67.73-1C681.86,437.43,681.81,436.13,681.81,434.83Z" transform="translate(-16.07 -13.68)"/><path class="cls-2" d="M899.49,209.39c.64,2,1.83,4.07,1.85,6.12.16,14.87.1,29.75.08,44.62,0,5.1-2,7.12-7.13,7.12h-285c-5.1,0-7.12-2-7.13-7.12,0-14.87-.08-29.75.08-44.62,0-2,1.21-4.08,1.86-6.12,1.41,0,2.81,0,4.22,0H876.88C884.42,209.35,892,209.38,899.49,209.39Zm-162.4,37.49c.75,4.06,3.42,4.23,5.83,4.4,3,.19,5.15-1.44,5.41-4.07a46.59,46.59,0,0,0,.16-9c-.19-1.91,2.2-6.57-3.47-4.38-.06,0-.16-.11-.26-.14-5.73-1.43-8.54,1-8.06,6.84.36,4.4,3.38,5.91,9.58,4.26-.67,1.47-.9,3.07-1.73,3.48-1.08.54-2.65.3-4,.08A17.93,17.93,0,0,1,737.09,246.88ZM717.42,241c1.12,6,5.49,7.72,10.06,4.53a6.29,6.29,0,0,0,2.36-4.67c-.06-1.37-1.7-3-3-3.88s-3.12-.76-4.51-1.48c-.9-.46-1.44-1.63-2.14-2.49.9-.66,1.78-1.83,2.7-1.87,1.23,0,2.5.75,3.73,1.25.89.36,1.74.84,3.13,1.51-.5-3.79-2.32-5-5-5.35-2.84-.33-5.49,0-7,2.9a4.35,4.35,0,0,0,2.1,6.1c1.43.67,3.16.73,4.54,1.46a13.17,13.17,0,0,1,2.74,2.65c-1.12.79-2.18,2.08-3.39,2.24s-2.52-.81-3.75-1.38C719.12,242.12,718.29,241.53,717.42,241Zm33.86,4.7.89.71c.48-.71,1.29-1.39,1.37-2.14.21-1.89,0-3.81.13-5.71s1.23-3.52,3.2-3.11c1,.2,2,1.94,2.25,3.15a20.63,20.63,0,0,1,.11,5.39c-.08,1.91.6,2.61,2.64,1.81,0-2.86.16-5.75,0-8.63-.19-2.62-1.75-4.3-4.51-4.24a60.27,60.27,0,0,0-6,.69Zm24.74,0,.86.73c.49-.71,1.32-1.37,1.4-2.12.21-1.88,0-3.81.12-5.71s1.21-3.53,3.19-3.13c1,.2,2,1.93,2.27,3.12a24.09,24.09,0,0,1,.11,5.7c-.06,2,.92,2.16,2.64,1.55,0-2.86.16-5.75,0-8.62-.19-2.62-1.74-4.32-4.5-4.27a58.44,58.44,0,0,0-6.05.69Zm-3.9.75.79-.68c0-5.09.06-10.18-.07-15.27,0-.68-1-1.34-1.46-2l-.92.51c0,5.28-.05,10.56.07,15.84C770.55,245.39,771.56,245.92,772.12,246.45Zm-38.32,0,1-.59c0-3.69.07-7.39-.06-11.07,0-.6-.93-1.16-1.43-1.74-.44.64-1.22,1.27-1.25,1.93a90.74,90.74,0,0,0,0,9.33C732.12,245.09,733.2,245.77,733.8,246.48Z" transform="translate(-16.07 -13.68)"/><path class="cls-1" d="M751.65,368H610.16c-6.35,0-8-1.66-8-8.06q0-22,0-44c0-5.79,1.83-7.62,7.54-7.62H893.88c5.71,0,7.54,1.83,7.54,7.62q0,22.32,0,44.63c0,5.55-1.89,7.46-7.39,7.46Zm-29.12-20.82,1-.74V334.14c2.76,4,5.16,7.58,7.77,11.06.68.91,2,1.38,3.62,2.47,0-6.44.05-11.85-.08-17.26,0-.59-1.11-1.15-1.7-1.72l-.71.65v12.85c-1-1.24-1.6-2-2.12-2.75-2-3-3.84-6.09-5.93-9-.61-.85-1.82-1.27-3.38-2.29,0,6.37-.05,11.79.07,17.19C721.07,346,722,346.55,722.53,347.16Zm35.72-9.24c.91,3.1,1.52,5.4,2.29,7.65a2.11,2.11,0,0,0,1.35,1.23c.55.09,1.61-.27,1.73-.65,1.23-4.15,2.32-8.35,3.44-12.53l-1.37-.58c-3.11,1.94-1.49,6.4-3.86,9.26-.65-2.48-1.11-4.7-1.84-6.82a8.46,8.46,0,0,0-1.82-2.25,8.84,8.84,0,0,0-1.53,2.15c-.77,2.31-1.35,4.69-2.23,7.86-.8-3.21-1.54-5.58-1.94-8-.31-1.93-1.07-2.38-3-1.54,1,3.91,2,7.77,3.12,11.57a2.47,2.47,0,0,0,1.72,1.51c.55,0,1.45-.82,1.69-1.46C756.79,343.15,757.35,340.92,758.25,337.92Zm-99.49,4.18c-.18-.28-.36-.56-.55-.84a16.34,16.34,0,0,0-2.65,1.9c-2.36,2.46-6.6,2.18-7.76-1a14.14,14.14,0,0,1-.43-7.25c.27-1.41,2-3,3.41-3.62,1.82-.8,3.63.08,5,1.81.6.78,1.75,1.12,2.65,1.66-.14-3.81-2-5.58-5.1-6.06-3.62-.56-6.5.55-7.94,3.45a12.22,12.22,0,0,0,0,11.54c1.52,2.89,4.25,3.88,7.37,3.62C656.05,347.08,657.91,345.35,658.76,342.1Zm129.32,4.4c-1.91-5.5-3.78-11-5.76-16.41-.21-.57-1.22-1.31-1.7-1.21a2.83,2.83,0,0,0-1.75,1.57c-2,5.34-3.84,10.73-5.73,16.1,1.86.85,3,.22,3.34-1.63s1.23-3,3.62-2.95,4.34.15,4.78,3.08C785.15,346.9,786.29,347.29,788.08,346.5Zm-84-5.12c2.47,0,4.66.09,6.84-.06a3.71,3.71,0,0,0,1.93-1.1c-.81-2.16-1.34-4.69-2.85-6.27s-4.12-1.28-6.11.11c-3.35,2.34-3.62,9.17-.51,11.81s8.16,1.21,8.91-2.43C704.72,343.3,704.72,343.3,704.1,341.38Zm-22.38-3.24c1.84-.84,3.13-1.72,4.54-2,2-.39,2.91.65,2.71,2.67-1.67.26-3.15.46-4.61.74-2.31.44-3.49,1.78-3.22,4.22s2.14,3.29,4.23,3.34a49,49,0,0,0,6.15-.59c0-3.14.09-6.33,0-9.51-.11-2.91-2.08-3.92-4.67-3.95C683.76,333,682.22,334.35,681.72,338.14Zm66.63,4.75a30,30,0,0,1-4.83,1.77c-2.14.38-3.29-.87-3.77-3.32h8.66c.5-4.58-1.31-7.71-4.51-8.25s-5.81,1.51-6.63,5.36c-.91,4.28.72,7.67,4.06,8.48S747.19,346.53,748.35,342.89Zm-68.68-1.5c.41-4.74-1.39-7.79-4.6-8.31s-5.88,1.66-6.62,5.72.85,7.36,4.14,8.13,5.89-.44,6.88-3.84c-2.92.16-6.7,4.19-8.6-1.7Zm158.83,5.13c0-3.84.07-7.74-.07-11.63,0-.57-1-1.11-1.52-1.67-.39.58-1.09,1.13-1.13,1.73-.14,2.3.22,4.67-.22,6.89a4.4,4.4,0,0,1-2.76,2.76c-1.82.43-2.58-1.05-2.58-2.82,0-2.3.08-4.61-.07-6.91,0-.57-.77-1.1-1.19-1.65-.47.5-1.34,1-1.35,1.5-.06,3,0,6,.19,9,.17,2.45,2,3.46,4.15,3.47A59.66,59.66,0,0,0,838.5,346.52Zm-24.6-6c0,4.19,2.3,6.72,6,6.69s6-2.77,6-6.83c0-4.43-2.5-7.39-6.19-7.36S813.87,335.73,813.9,340.53Zm27.16-6.79c0,3.79-.07,7.69.08,11.58,0,.6,1.08,1.16,1.67,1.74l.73-.62c0-2.39-.33-4.85.14-7.15a4.83,4.83,0,0,1,2.9-3.1c1.86-.49,2.46,1.23,2.5,2.88,0,1.9.11,3.81,0,5.71s.69,2.53,2.93,1.66c-.22-3.27-.32-6.65-.69-10-.31-2.76-2.37-3.51-4.81-3.38C844.86,333.17,843.17,333.48,841.06,333.74ZM812.68,339c-.6-5.17-4-6.33-6.61-5.89-3.14.54-4.84,3.11-4.84,7.28,0,4,1.64,6.16,5,6.7s5.13-.74,6.5-4.95a17.61,17.61,0,0,0-3.3,1.68c-1.6,1.35-3.11,1.32-4.53-.07s-1.47-5.05.07-6.66,2.93-1.38,4.49,0A26.47,26.47,0,0,0,812.68,339Zm-12.63,3.09a21.33,21.33,0,0,0-3.32,1.76c-1.61,1.34-3.13,1.26-4.52-.14s-1.41-5.09.13-6.66,2.95-1.32,4.5,0a22.37,22.37,0,0,0,3.15,1.86c-1-4.62-2.82-6.16-6-5.89s-5.18,2.64-5.37,6.48c-.22,4.56,1.41,7,5,7.57C796.83,347.59,798.75,346.29,800.05,342.08Zm56.16-11.91s-1.09.38-1.14.86c-.19,2-3.85,4-.15,6.11.22.13.05.95.05,1.45,0,1.51,0,3,0,4.52.12,3.55,1.75,4.55,5.87,3.05-4.59-2.34-3.13-6.19-3.12-9.33a18.4,18.4,0,0,0,2.54-2c.16-.16-.26-1.06-.62-1.44C858.78,332.44,857.8,331.63,856.21,330.17Zm-158.76,2c-.14-.6.63-3-2.3-1.86,0,.73.18,1.77-.18,2.05-2,1.51-3.19,2.81,0,4.34.25.12.09,1.14.1,1.74,0,1.8,0,3.61,0,5.41,0,2.55,1.58,3.27,3.77,3.1.49,0,.95-.49,1.43-.75-.28-.46-.49-1.25-.85-1.32-2.11-.43-1.93-2-1.91-3.5,0-1.69,0-3.38,0-4.3l2.8-2.45Zm-34.67,15.23c2.32-4.47-2.24-10.4,5.13-11.61,0-.87-.09-1.72-.14-2.68a20.71,20.71,0,0,1-4.61.27c-1.64-.28-2.24.13-2.23,1.73,0,3.29-.09,6.59.09,9.87C661.06,345.74,662.06,346.45,662.78,347.39Z" transform="translate(-16.07 -13.68)"/><path class="cls-3" d="M602.16,206.83c0-7,0-14.07,0-21.1,0-13.57-.1-27.14.08-40.7,0-2.49,1.16-5,2-8.2-2.25-1.7-2.1-5.2-2.09-8.76.06-18.89,0-37.78,0-56.68,0-4.63,1.52-6.19,6.08-6.19h287.1c4.55,0,6.07,1.56,6.08,6.19,0,19.3,0,38.59,0,57.89,0,3.14-.22,6-3.21,8.28,3.25,2.25,3.21,5.4,3.2,8.67-.06,20,0,40-.05,60,0,1.38.61,3.26-1.92,3.16-7.54,0-15.07,0-22.61,0H608.33c-1.41,0-2.81,0-4.22,0m147.69-1.24q72.53,0,145.05,0c2.56,0,3.45-.52,3.44-3.29-.13-20.2-.07-40.4-.07-60.59,0-4.4-1.12-5.53-5.49-5.53H608.85c-4.36,0-5.47,1.13-5.47,5.54q0,30,0,60c0,3.82,0,3.83,4,3.83Zm.34-141.75H608.6c-4.27,0-5.22.91-5.22,5q0,29.68,0,59.39c0,4,1,5,5,5H895.15c4.17,0,5.07-.92,5.07-5.18V72.11c0-5-.67-5.71-5.75-5.71Z" transform="translate(-16.07 -13.68)"/><path class="cls-4" d="M195.65,50.82h9.28V67.19c3.27-3.49,6.75-4.89,10.83-4.62,7.1.47,11.39,4.08,13.37,11.67a28.76,28.76,0,0,1-1.48,18.83c-4,9.33-16.24,10.36-22.41,4.1l-.67,2.89h-8.92ZM220.18,82.1a54.4,54.4,0,0,0-1.84-6.85c-1-2.45-3.15-3.46-5.78-3.52A6.46,6.46,0,0,0,206.3,75a14.09,14.09,0,0,0,2,16.12,5.46,5.46,0,0,0,8.24,0C219.1,88.67,219.9,85.64,220.18,82.1Z" transform="translate(-16.07 -13.68)"/><path class="cls-4" d="M317.49,51.05h9.09V75.88l.79.3c2.26-2.86,4.67-5.61,6.72-8.61,2.26-3.3,5-4.83,9.1-4.22a47.89,47.89,0,0,0,6.65,0c-3.72,4.35-6.89,8.28-10.33,12-1.64,1.75-1.91,3-.59,5.14,3.86,6.3,7.41,12.79,11.36,19.68-3.9,0-7.28.1-10.63-.08-.74,0-1.67-1-2.1-1.74-2.43-4.36-4.74-8.79-7.16-13.33-6.44,3.71-2.6,10-4.16,15h-8.74Z" transform="translate(-16.07 -13.68)"/><path class="cls-4" d="M116.65,100.18c-3.23,0-5.43-.06-7.62,0-2.37.09-4.61.17-3.94-3.82-4.42,3.78-8.79,5.73-14,4.65-4.94-1-7.94-4.15-8.36-8.59-.63-6.56,1.44-11,6.6-12.71,3.57-1.2,7.41-1.59,11.13-2.34,1.9-.39,4.07-.69,3.88-3.26s-2.33-3-4.43-3.07c-2.83-.12-5.46.09-6.53,3.46a2.34,2.34,0,0,1-1.75,1.19c-2.48.14-5,.06-7.44.06C83.49,70,86.55,65,91.85,63.47a25,25,0,0,1,15.11.18c4.93,1.61,6.92,4.27,7.06,9.57.13,4.42,0,8.84.07,13.25S113.05,95.63,116.65,100.18ZM104.17,83l-4.08.95c-1.36.33-2.75.59-4.08,1-3.28,1.07-4.31,3-3.33,6.2.8,2.57,2.92,3.49,6,2.63C103.06,92.64,105,88.88,104.17,83Z" transform="translate(-16.07 -13.68)"/><path class="cls-4" d="M292.71,101.39c-12.39.11-18.12-8.33-17.95-20.38.1-6.9,2.36-13.29,9.06-16.91,7.53-4.07,19.12-2,23.27,4.34,4.27,6.55,5.43,13.75,2.73,21.26C306.78,98.14,301.84,101.44,292.71,101.39Zm-8.3-19.69c.28,3.74,1.14,7,3.91,9.63a6.46,6.46,0,0,0,8.95,0,14.53,14.53,0,0,0,2.48-16.13A7.08,7.08,0,0,0,293,71.1c-3.24,0-5.73,1.28-6.94,4.28A48,48,0,0,0,284.41,81.7Z" transform="translate(-16.07 -13.68)"/><path class="cls-4" d="M189.77,84.45H166.18c-.51,6,4.22,10.23,9.28,8.57.56-.18,1.36-.36,1.58-.78,2.9-5.61,7.89-2.81,12.16-3.49-.75,6.68-5.59,11.27-12.72,12.41-11,1.77-19.35-4.82-20.29-15.93a28.13,28.13,0,0,1,2.05-14.1c2.82-6.36,8.15-8.75,14.52-8.76s12,2.1,14.82,8.71A27.32,27.32,0,0,1,189.77,84.45Zm-10.25-6.61c-.7-4.76-2.91-6.81-7.05-6.73-3.55.08-5.74,2.48-6.06,6.73Z" transform="translate(-16.07 -13.68)"/><path class="cls-4" d="M252.3,101.93c-15.14-.08-20-14.05-17.57-25.36,2.77-12.85,16.3-18.73,27.59-11.93,6.08,3.66,8,9.86,8.15,16.48.14,7.5-1.62,14.53-9,18.29C258.68,100.81,255.37,101.12,252.3,101.93Zm-8.39-20.47c.25,4.93.92,6.71,4.09,10.1,1.87,2,6.5,2.18,8.43.33a14.94,14.94,0,0,0,2.71-16.66,7.17,7.17,0,0,0-7.07-4.14,6.8,6.8,0,0,0-6.63,4.33A41.72,41.72,0,0,0,243.91,81.46Z" transform="translate(-16.07 -13.68)"/><path class="cls-4" d="M152.55,77c-2.75,0-5.37.15-7.94-.09A3.34,3.34,0,0,1,142.53,75a5.49,5.49,0,0,0-4.73-3.67,6.11,6.11,0,0,0-6,2.82c-2.54,3.75-2.27,12.82.45,16.4,3,4,8.13,3.52,9.73-1.19.93-2.73,2.25-3.27,4.72-3,1.88.17,3.79,0,5.95,0-.39,5.6-2.45,9.87-7.05,12.77-7.36,4.62-19,2.6-22.73-4.51a25.33,25.33,0,0,1,.88-26.11c3.06-5,8.45-6.08,14-6a24.37,24.37,0,0,1,3.89.43C148.71,64.12,152.68,69.13,152.55,77Z" transform="translate(-16.07 -13.68)"/><path class="cls-4" d="M185.56,204.3c-3,.8-4.5.1-4.92-3.16a27,27,0,0,0-2.92-8.5l-1.59,5.73c-.52,1.92-1,3.84-1.62,6h-4c-1.6-5.93-3.17-11.79-4.82-17.88h3.94c.92,3.79,1.85,7.63,2.77,11.46H173q1.53-5.68,3.08-11.35c2.91-1,4.3,0,4.81,2.91a28.15,28.15,0,0,0,2.83,8.23c.89-3.72,1.79-7.43,2.72-11.27h3.89Z" transform="translate(-16.07 -13.68)"/><path class="cls-4" d="M546.62,147.19v-8.25h3.81v24.2c-3.25.69-3.25.69-4-1.25-6.25,4-11.5,1.52-12.36-5.8a20.44,20.44,0,0,1-.07-2.71c.1-3.16.94-6,3.9-7.64S543.79,144.84,546.62,147.19ZM538,154.87a24.33,24.33,0,0,0,1.42,3.88c1.09,2.05,4.38,2.31,5.55.37a11.68,11.68,0,0,0,1.64-5c.27-3.31-1.78-5.73-4.38-5.7S538,150.63,538,154.87Z" transform="translate(-16.07 -13.68)"/><path class="cls-4" d="M266.67,161.6v7.49h-3.8v-24l5,1.22c1.56-1.45,4.28-2.08,7.24-.74s4.05,3.89,4.19,6.81a21.08,21.08,0,0,1-.66,6.82C277.4,163.35,272.06,165.72,266.67,161.6Zm8.65-7.59c0-3.35-1.63-5.54-4.14-5.6s-4.47,2.24-4.48,5.63c0,3.65,2,6.44,4.5,6.34S275.33,157.62,275.32,154Z" transform="translate(-16.07 -13.68)"/><path class="cls-4" d="M294.65,185.92l5.1,1.36c5.23-3.34,10.42-.91,11.41,6.1a12.62,12.62,0,0,1-2.8,9.82c-2,2.56-7,2.05-9.77-1.19v8.11h-3.94Zm12.5,9.2c0-3.49-1.67-5.73-4.31-5.7s-4.24,2.23-4.3,5.47,1.71,5.81,4.22,5.9S307.14,198.54,307.15,195.12Z" transform="translate(-16.07 -13.68)"/><path class="cls-4" d="M351.4,186l5.05,1.3c5.34-3.36,10.55-.87,11.45,6.3a12.73,12.73,0,0,1-2.75,9.55c-2,2.58-6.92,2.14-9.91-.9v7.86H351.4Zm12.47,9.07c0-3.48-1.73-5.7-4.38-5.63-2.49.07-4.2,2.3-4.24,5.53s1.78,5.8,4.29,5.84S363.87,198.49,363.87,195.05Z" transform="translate(-16.07 -13.68)"/><path class="cls-4" d="M140.3,162.45,135.41,164V138.9h3.73v7.51c.4.14.64.31.75.25,6.1-3.64,11.23-1.22,11.9,5.87a18.5,18.5,0,0,1-.87,7.07C149.59,163.81,143.81,165.36,140.3,162.45Zm7.56-8.24c0-3.5-1.62-5.8-4.25-5.81s-4.29,2.2-4.36,5.45c-.08,3.61,1.82,6.5,4.3,6.53S147.81,157.86,147.86,154.21Z" transform="translate(-16.07 -13.68)"/><path class="cls-4" d="M83.85,139.15c3.93-1.43,5.06.51,6,3.32,2.3,6.92,4.84,13.77,7.29,20.69-4.3.74-4.53.79-5.45-3.32-.63-2.82-1.89-4-4.69-3.43a4.44,4.44,0,0,1-1.5,0c-2.76-.46-4.11.5-4.7,3.44-.81,4.07-1.08,4-5.5,3.34Zm2.37,4.3L83,153.06h6.49Z" transform="translate(-16.07 -13.68)"/><path class="cls-4" d="M212.18,179.26h3.71v8.65a26.12,26.12,0,0,1,2.35-1.42c4.47-2,9,.63,9.22,5.63.19,4,0,8,0,12.21h-3.85c0-2.22,0-4.49,0-6.77,0-1.3,0-2.61-.09-3.9-.22-2.26-1-4.17-3.71-4.23-2.19,0-3.76,1.74-3.82,4.48-.08,3.4,0,6.8,0,10.41h-3.83Z" transform="translate(-16.07 -13.68)"/><path class="cls-4" d="M109.17,204.46h-4c0-2.32,0-4.58,0-6.84,0-1.31,0-2.61-.05-3.91-.1-2.34-.9-4.26-3.61-4.23s-3.79,1.9-3.86,4.39,0,5,0,7.52v3H93.78V179.3h3.76v8.54c.83-.51,1.3-.82,1.79-1.08,4.81-2.5,9.48.12,9.8,5.68C109.35,196.32,109.17,200.23,109.17,204.46Z" transform="translate(-16.07 -13.68)"/><path class="cls-4" d="M253.67,179.34v8.39a30.3,30.3,0,0,1,2.8-1.4c4.07-1.54,8.1.57,8.49,4.88s.09,8.59.09,13.11h-3.76c0-3.28,0-6.66,0-10s-1.29-4.82-3.69-4.84-3.85,1.72-3.95,4.74c-.11,3.4,0,6.79,0,10.27h-3.69v-25.1Z" transform="translate(-16.07 -13.68)"/><path class="cls-4" d="M221.51,163.41h-3.76V138.87h3.6V147c.87-.54,1.4-.9,2-1.21,4.43-2.48,9.22,0,9.69,5.07.08.89.09,1.8.09,2.71,0,3.2,0,6.41,0,9.79h-3.84c0-2.94,0-5.83,0-8.72a15.25,15.25,0,0,0-.13-2.71c-.37-2.07-1.41-3.64-3.77-3.49-2.57.16-3.69,1.95-3.78,4.25C221.41,156.18,221.51,159.69,221.51,163.41Z" transform="translate(-16.07 -13.68)"/><path class="cls-4" d="M192.74,163.33V139h3.91v12.75c3.95-2,5.16-8.08,11.2-6.1l-6.73,7.2,7.07,10.48c-2.71.55-4.87.54-6.31-2.1a65.6,65.6,0,0,0-3.73-5.55l-1,.14c-.19,2.46-.37,4.91-.57,7.55Z" transform="translate(-16.07 -13.68)"/><path class="cls-4" d="M127.05,204.45h-3.84L123,202.2c-.25.26-.42.42-.57.61a5.45,5.45,0,0,1-6.54,1.59,7.39,7.39,0,0,1-3.58-3.89c-1.23-3.06.24-5.59,3.5-6.42,2.31-.59,4.73-.75,7.85-1.2-.94-1.34-1.49-3-2.41-3.22-1.24-.33-2.81.28-4.16.73a32.82,32.82,0,0,0-3.81,1.77l-.86-1c.8-1.26,1.33-2.85,2.44-3.69,2.78-2.11,6-2.1,9.12-.7,2.73,1.22,3.11,3.69,3.09,6.33C127,196.79,127.05,200.49,127.05,204.45ZM123,196a34.26,34.26,0,0,0-5.28.75c-.74.22-1.82,1.54-1.67,2a3.54,3.54,0,0,0,2.13,2.05C120.81,201.53,122.86,199.51,123,196Z" transform="translate(-16.07 -13.68)"/><path class="cls-4" d="M156.82,196.15H145l-.64.73c1,1.25,1.87,3,3.21,3.58,1.18.49,3-.24,4.41-.68a45.71,45.71,0,0,0,4.69-2c-1.29,5.73-4.53,7.74-9.73,6.79-4-.71-6.81-5.74-6.19-10.9s4.08-8.21,8.84-7.81S156.93,189.7,156.82,196.15ZM144.76,193h8c-.44-2.33-1.53-3.66-3.75-3.75S145.46,190.54,144.76,193Z" transform="translate(-16.07 -13.68)"/><path class="cls-4" d="M316.88,196.94c1.07,1.24,1.93,3.08,3.27,3.53s3.08-.49,4.62-.93c1.38-.39,2.72-.92,4.45-1.53-1.44,5.61-4.65,7.56-9.82,6.59-4-.76-6.87-6-6.07-11.26.75-5,4.2-7.87,8.85-7.44,4.88.45,7.41,3.95,7.15,10.12H317.72Zm8.41-3.83c-.36-2.57-1.64-3.88-4-3.82s-3.57,1.39-3.88,3.82Z" transform="translate(-16.07 -13.68)"/><path class="cls-4" d="M509,151.82c-1.11-1.44-1.7-3-2.58-3.17-1.27-.27-2.79.32-4.14.76a44.45,44.45,0,0,0-4.2,1.9c.33-4.51,2.68-6.43,7-6.47,4.12,0,7,1.93,7.14,5.29.2,4.38,0,8.78,0,13.71l-4.72-1.14a28.26,28.26,0,0,1-5.39.92A4.78,4.78,0,0,1,497.2,159c-.33-3.2.75-5.09,3.8-5.87C503.3,152.5,505.7,152.33,509,151.82Zm-.7,3.15c-1.87.22-3.57.11-5,.7a3.41,3.41,0,0,0-1.84,2.69,3.57,3.57,0,0,0,2.58,2.07C506.59,160.78,507.87,159.05,508.32,155Z" transform="translate(-16.07 -13.68)"/><path class="cls-4" d="M458.39,155.12h-12c.08,2.41.52,4.49,2.92,5.16a3.76,3.76,0,0,0,4.79-1.93c.47-.82,2.35-.83,3.69-1.24,0,4.4-2.73,6.67-7.41,6.65-5.25,0-8.09-3.26-8.17-9.34-.08-5.82,3-9.52,8.06-9.58S458.28,148.2,458.39,155.12Zm-4-3c-.65-2.73-2-4.09-4.49-3.79a3.43,3.43,0,0,0-3.34,3.79Z" transform="translate(-16.07 -13.68)"/><path class="cls-4" d="M252,155.08H240.15c-.07,2.38.37,4.39,2.69,5.15a3.75,3.75,0,0,0,4.84-1.74c.56-.88,2.46-.93,4-1.43-.36,4.83-3.36,7-8.32,6.67-5.19-.37-7.77-4.08-7.4-10.66.28-5.1,3.7-8.41,8.47-8.22C249.42,145.06,252.13,148.59,252,155.08Zm-4-3c-.37-2.43-1.6-3.8-3.93-3.79s-3.59,1.3-3.9,3.79Z" transform="translate(-16.07 -13.68)"/><path class="cls-4" d="M284.27,197.88c-1.83,5.83-4.68,7.58-9.74,6.74-3.72-.62-6.63-5.08-6.42-9.87.18-4.24,2.05-7.22,5.23-8.36,6.4-2.28,11.43,2.17,10.7,9.74H271.25c1.52,1.89,2.32,3.82,3.61,4.24s3.25-.45,4.88-.89C281.07,199.12,282.35,198.57,284.27,197.88Zm-4-4.76c-.58-2.61-1.8-4-4.15-3.83s-3.47,1.46-3.79,3.83Z" transform="translate(-16.07 -13.68)"/><path class="cls-4" d="M381.53,197c1.1,1.23,2,3.07,3.35,3.53s3.09-.51,4.63-.94,2.73-.92,4.49-1.53c-1.64,5.63-4.49,7.22-9.6,6.69-3.4-.36-6.65-5.21-6.49-9.89.24-6.65,5.22-10.45,11.08-8.45,3.64,1.24,5.29,4.41,4.92,9.67H382.28Zm.47-3.84h7.86c0-2.42-1.26-3.62-3.39-3.81C384,189.09,382.7,190.55,382,193.11Z" transform="translate(-16.07 -13.68)"/><path class="cls-4" d="M132,155.18h-12c.26,2.39.69,4.51,3.1,5.14a3.84,3.84,0,0,0,4.78-2c.44-.79,2.34-.76,3.71-1.15-.27,4.69-3.21,6.9-8.13,6.59-5.12-.32-7.92-4.07-7.61-10.22.28-5.48,3.75-8.94,8.68-8.66S132.3,148.73,132,155.18Zm-3.92-3.08c-.57-2.61-1.82-3.95-4.17-3.82s-3.48,1.44-3.72,3.82Z" transform="translate(-16.07 -13.68)"/><path class="cls-4" d="M117.51,238.36H104.73c1.34,1.83,2,3.64,3.19,4.11s3.18,0,4.71-.39a32,32,0,0,0,4.62-2.09c-.62,4.1-4.55,7.25-7.72,7-5.18-.46-8.61-5.05-8-10.77.52-5.33,4-8.52,8.93-8.07S117.87,232.14,117.51,238.36Zm-3.92-3c-.52-2.61-1.77-3.94-4.11-3.82s-3.52,1.42-3.76,3.82Z" transform="translate(-16.07 -13.68)"/><path class="cls-4" d="M462.76,204.8c-5.49.41-8.45-5.3-8.38-9.92.08-5.45,3.36-9,8.36-9s8.48,3.58,8.51,9.15C471.29,199.65,468.26,205.28,462.76,204.8Zm-4.27-9.73c0,4,2.55,6.61,5.5,5.64,2.5-.83,3.84-4.19,3-7.7-.6-2.39-2-3.93-4.71-3.62C459.91,189.66,458.49,191.86,458.49,195.07Z" transform="translate(-16.07 -13.68)"/><path class="cls-4" d="M438.66,209.94v-2.56c4.39-.91,5-1.87,3.51-6.1-1.71-4.88-3.54-9.73-5.41-14.83h4.32c1.26,4,2.57,8.13,4.19,13.25,1.6-5,2.93-9.15,4.28-13.35h4.12c-.72,2.11-1.39,4-2,5.94-1.49,4.35-2.88,8.73-4.48,13S443.48,210.73,438.66,209.94Z" transform="translate(-16.07 -13.68)"/><path class="cls-4" d="M170.78,154c0,6.29-3,9.82-8.43,9.82s-8.5-3.6-8.45-9.84c0-5.46,3.31-9,8.31-9.11S170.76,148.39,170.78,154Zm-4.11.31c0-3.75-1.67-6-4.35-5.94s-4.33,2.28-4.29,5.8a5.66,5.66,0,0,0,.16,1.8c.76,2.14,1.27,4.64,4.35,4.5,2.85-.13,3.3-2.49,4-4.57A6.37,6.37,0,0,0,166.67,154.28Z" transform="translate(-16.07 -13.68)"/><path class="cls-4" d="M402.47,154.1c0,6.28-3.11,9.76-8.56,9.69s-8.28-3.52-8.32-9.66c0-5.57,3.33-9.28,8.43-9.29S402.5,148.49,402.47,154.1Zm-4.11.18c0-3.76-1.67-6-4.36-5.94s-4.32,2.28-4.28,5.81a5.59,5.59,0,0,0,.15,1.79c.77,2.14,1.28,4.64,4.36,4.5,2.85-.14,3.3-2.5,4-4.57A6.93,6.93,0,0,0,398.36,154.28Z" transform="translate(-16.07 -13.68)"/><path class="cls-4" d="M484.85,203.94c-6,2.77-10.52.46-10.84-6.21-.18-3.68,0-7.38,0-11.27h3.92v9.82c0,2.34.63,4.25,3.34,4.49,2.21.19,3.87-1.54,4-4.3.13-3.28,0-6.57,0-10h3.91v18.31Z" transform="translate(-16.07 -13.68)"/><path class="cls-4" d="M305,145.39h4.22c1.35,4.28,2.67,8.47,4.2,13.35l4.22-13.33h4.24c-2.52,7.05-4.8,14-7.47,20.7-1.13,2.88-3.28,3.42-7.66,2.88l-.24-2.49a3.4,3.4,0,0,1,.88-.44c3.62-.49,4.21-1.49,3-5C308.65,156,306.92,150.9,305,145.39Z" transform="translate(-16.07 -13.68)"/><path class="cls-4" d="M353.54,145.37h3.69v18.27l-4-.79.22-.65a24.12,24.12,0,0,1-4.46,1.44c-4.11.53-6.62-1.53-6.8-5.65s0-8.23,0-12.54H346c0,3.08-.05,6.15,0,9.22.07,3.94,1.16,5.68,3.42,5.71,2.44,0,4-2.21,4.07-6,0-1.5,0-3,0-4.51Z" transform="translate(-16.07 -13.68)"/><path class="cls-4" d="M331.68,195.16c0-5.7,3.19-9.3,8.36-9.3s8.25,3.45,8.37,9c.11,5-3,10.22-8.37,10C335.08,204.61,331.72,200.92,331.68,195.16Zm3.92,0c0,3.35,1.95,5.76,4.52,5.73s4.36-2.49,4.34-5.86-1.85-5.73-4.49-5.68S335.56,191.79,335.6,195.15Z" transform="translate(-16.07 -13.68)"/><path class="cls-4" d="M405.45,145l4.12,1-.21.53A22,22,0,0,1,413.2,145c4-.79,6.95,1.64,7.33,5.89.05.6,0,1.21,0,1.81v10.65h-3.91c0-3.29,0-6.58,0-9.86-.06-3.73-1.11-5.14-3.63-5.08-2.37,0-3.82,1.93-3.86,5.12s0,6.4,0,9.79h-3.7Z" transform="translate(-16.07 -13.68)"/><path class="cls-4" d="M416.18,204.46h-3.87V185.82c1.49.55,2.7,1.09,4,1.43a2.5,2.5,0,0,0,1.44-.42c5-2.48,9.3-.28,9.67,5.17.27,4.07.05,8.17.05,12.4h-3.88V194.17c0-2.35-.31-4.53-3.33-4.72-2.47-.16-4,1.62-4,4.84S416.18,200.87,416.18,204.46Z" transform="translate(-16.07 -13.68)"/><path class="cls-4" d="M322.63,154c0-5.67,3.31-9.22,8.49-9.14s8.19,3.55,8.24,9.1c.05,6.32-2.92,9.81-8.35,9.82S322.61,160.35,322.63,154Zm12.78,0c0-3.4-1.86-5.68-4.49-5.64s-4.4,2.43-4.37,5.79c0,3.65,2,6.4,4.53,6.35S335.45,157.63,335.41,154Z" transform="translate(-16.07 -13.68)"/><path class="cls-4" d="M173,154c0-5.67,3.33-9.21,8.51-9.12s8.19,3.57,8.22,9.13c0,6.31-2.94,9.79-8.38,9.79S173,160.33,173,154Zm12.78.12c0-3.38-1.76-5.73-4.36-5.77S177,150.6,176.93,154s1.95,6.45,4.39,6.49S185.76,157.76,185.78,154.09Z" transform="translate(-16.07 -13.68)"/><path class="cls-4" d="M76.7,197.9a28,28,0,0,0,4,2.06,13.89,13.89,0,0,0,4.48.69c.44,0,1.15-1.11,1.23-1.77,0-.45-.67-1.28-1.21-1.48-1.59-.57-3.29-.85-4.91-1.37-2.28-.73-3.87-2.07-3.81-4.74s1.5-4.22,4-5c5.12-1.59,9.43.75,9.43,6.05-1.55-.83-2.72-1.57-4-2.09a9.39,9.39,0,0,0-3.52-1A2.43,2.43,0,0,0,80.63,191c-.06.59.82,1.58,1.51,1.87,1.46.62,3.25.59,4.57,1.39,1.48.89,3.56,2.36,3.62,3.66A7.78,7.78,0,0,1,88,203.58c-4.28,3.54-10.86.7-11.93-4.8Z" transform="translate(-16.07 -13.68)"/><path class="cls-4" d="M295.53,151.38c-1.61-.86-2.79-1.6-4-2.13a9.32,9.32,0,0,0-3.52-.94,2.44,2.44,0,0,0-1.76,1.62c-.06.59.81,1.6,1.5,1.88a49.82,49.82,0,0,0,4.89,1.39c2.11.61,3.52,1.86,3.67,4.2a5.36,5.36,0,0,1-2.89,5.49c-5.25,2.83-11.38.12-11.61-5.29h3.65c.43,2.63,2.23,3.45,4.59,2.83a3.25,3.25,0,0,0,1.93-2.08c.12-.57-.81-1.72-1.52-2a29.34,29.34,0,0,0-4.32-1.22c-2.45-.7-4.13-2.14-4.06-4.87s1.74-4.27,4.34-5C290.13,144.06,296,145.77,295.53,151.38Z" transform="translate(-16.07 -13.68)"/><path class="cls-4" d="M531.07,163.46h-3.81c0-3.4.15-6.78-.07-10.13a6.86,6.86,0,0,0-1.57-4.27c-2.18-2-5.58-.06-5.81,3.42s0,7.21,0,10.92H516V145c1.35.4,2.55.84,3.79,1.08a3,3,0,0,0,1.69-.34c5.11-2.38,9.39.17,9.54,5.8C531.15,155.41,531.07,159.31,531.07,163.46Z" transform="translate(-16.07 -13.68)"/><path class="cls-4" d="M439.37,163.41h-3.82c0-3.47,0-6.85,0-10.23,0-2.3-.31-4.56-3.35-4.76-2.46-.16-4.07,1.62-4.17,4.8s0,6.61,0,10.11h-3.71V145c1.39.45,2.62.93,3.89,1.23a2.65,2.65,0,0,0,1.5-.37c5.37-2.5,9.54,0,9.68,5.85C439.44,155.46,439.37,159.28,439.37,163.41Z" transform="translate(-16.07 -13.68)"/><path class="cls-4" d="M383.54,151.33c-1.75.19-3.24.56-4.54-1.54-1.49-2.44-4.94-1.88-6.44.71a8.6,8.6,0,0,0,.82,8.8c1.5,1.72,4.84,1.59,5.59-.5.92-2.59,2.59-2.27,4.51-2-.25,4.62-2.81,7-7.5,6.94-5.22-.05-8-3.15-8.31-9.29-.28-5.3,2.63-9,7.42-9.59C379.39,144.38,383.81,147.27,383.54,151.33Z" transform="translate(-16.07 -13.68)"/><path class="cls-4" d="M476.54,151.31c-1.73.12-3.27.73-4.58-1.47-1.47-2.48-4.91-2-6.45.6a8.67,8.67,0,0,0,.73,8.82c1.46,1.73,4.9,1.67,5.62-.39.9-2.6,2.53-2.35,4.47-2.06,0,4.33-2.4,6.74-6.76,6.95-5.48.27-8.4-2.63-8.94-8.9-.46-5.3,2.3-9.2,7-9.91S475.65,146.58,476.54,151.31Z" transform="translate(-16.07 -13.68)"/><path class="cls-4" d="M113.92,151.32c-1.81.28-3.25.42-4.53-1.62-1.53-2.41-5-1.75-6.42.91a8.89,8.89,0,0,0,.75,8.57,3.72,3.72,0,0,0,5.76-.19c1.6-2.38,1.6-2.38,4.31-2.14.24,4-2.2,6.58-6.41,6.89-5.59.4-8.74-2.58-9.12-8.63s2.4-9.83,7.59-10.23C110.38,144.53,113.57,147.05,113.92,151.32Z" transform="translate(-16.07 -13.68)"/><path class="cls-4" d="M100.88,231.55l-3.5.23V246H93.61V231.92l-3.23-.64c1-1.44,1.67-2.5,2.39-3.56.6-6.69,3.22-7,7.88-6.34.39,1.45.58,2.48-1.52,3-1,.25-1.54,2.09-2.61,3.69l4.16.62Z" transform="translate(-16.07 -13.68)"/><path class="cls-4" d="M239.38,190.38c-1.15-1-1.88-1.59-2.61-2.2a8.49,8.49,0,0,0,1.76-2,32.88,32.88,0,0,0,1.23-4.32h3.36c.09,1.4.18,2.75.28,4.23l3,.37.29,2.73-3.37.46a81.72,81.72,0,0,0,.12,9.12c.11,1.06,1.6,2,3,2.59,0,1,0,2,0,2.93-4.41,1.41-6.74,0-7-4.58C239.23,196.49,239.38,193.28,239.38,190.38Z" transform="translate(-16.07 -13.68)"/><path class="cls-4" d="M201.55,189.46c-2.82.43-2.71-1.11-2.25-3l2.3-.57v-4.11h3.87c.1,1.39.2,2.75.31,4.23l2.89.39.21,2.74-3.2.47c0,3.06-.18,6.16.1,9.21.09,1,1.4,1.83,2.15,2.74l.73-.4v3.21c-4.72,1.12-6.85-.37-7.08-5.16C201.43,196.14,201.55,193,201.55,189.46Z" transform="translate(-16.07 -13.68)"/><path class="cls-4" d="M480.29,148.64l-2.38-.42v-2.7l2.27-.53c.06-1.32.12-2.61.19-4.12h3.85c.11,1.41.22,2.77.34,4.2l2.89.34c.05.88.1,1.76.15,2.79l-3.14.41c0,3.32-.08,6.59.06,9.86,0,.69.81,1.89,1.31,1.93,2.35.16,1.73,1.65,1.63,3-4.94,1.2-7.07-.38-7.16-5.33C480.24,155,480.29,152,480.29,148.64Z" transform="translate(-16.07 -13.68)"/><path class="cls-1" d="M207.66,499.29c-1,2.27-1.88,4.57-2.94,6.81a8.85,8.85,0,0,1-1.61,1.83,10.36,10.36,0,0,1-1.53-1.94,31.54,31.54,0,0,0-3.18-5.94v7.64l-.83.38c-.41-.42-1.15-.83-1.16-1.26-.09-4.18,0-8.37,0-13.4,4.86,2.71,4,8,6.82,11,2.79-3,2.09-8.21,6.83-11.21,0,5.09,0,9.25,0,13.41,0,.43-.5.87-.76,1.3-.35-.46-1-.9-1-1.37-.1-2.4-.05-4.81-.05-7.21Z" transform="translate(-16.07 -13.68)"/><path class="cls-1" d="M193.42,493.45c.76,11.1.43,14-1.63,14.3V500l-.74-.18c-.89,2-1.74,4.11-2.7,6.11a11.72,11.72,0,0,1-1.51,2,11.58,11.58,0,0,1-1.73-2.08,49.38,49.38,0,0,0-3.32-6.51v8.38l-.93.34c-.33-.62-.93-1.23-.94-1.86-.09-3.91,0-7.82,0-12.88,1.39,1.13,2.5,1.6,2.89,2.42,1.4,3,2.56,6.05,3.84,9.16C189.31,501.47,188.87,496.31,193.42,493.45Z" transform="translate(-16.07 -13.68)"/><path class="cls-4" d="M77,221.46h3.67V246H77Z" transform="translate(-16.07 -13.68)"/><path class="cls-4" d="M130.92,186.14l4,.57-.21.58,5.11-1.83v3.77c-4.4.63-5.18,1.56-5.21,6.21q0,4.22,0,8.43a1.92,1.92,0,0,1-.17.46h-3.49Z" transform="translate(-16.07 -13.68)"/><path class="cls-4" d="M493.21,186.38c2.86-.47,5.91,1.3,8.91-1.3v4.19c-4.49.65-5.06,1.32-5.09,6.07,0,3,0,6,0,9.08h-3.81Z" transform="translate(-16.07 -13.68)"/><path class="cls-4" d="M371.16,179.31h3.51v25h-3.51Z" transform="translate(-16.07 -13.68)"/><path class="cls-1" d="M631.35,439.26a37.18,37.18,0,0,0-.09-5.69c-.14-.93-1.19-1.71-1.82-2.56-.74.81-2,1.55-2.12,2.47a37.21,37.21,0,0,0-.1,6c-2.29-.08-2.36-.47-1.84-10.17,2.38.35,4.73.74,7.09,1a3.65,3.65,0,0,0,1.52-.53c3.1-1.34,5.14-.18,5.4,3.19a36.18,36.18,0,0,1,0,5.41c0,.54-.74,1-1.14,1.55l-.75-.36a47.91,47.91,0,0,0-.09-6.23c-.1-.85-1.16-1.57-1.78-2.35-.76.78-1.94,1.45-2.17,2.36-.38,1.52,0,3.2-.21,4.79-.06.62-.67,1.19-1,1.79Z" transform="translate(-16.07 -13.68)"/><path class="cls-4" d="M258.82,163.4h-3.49V138.9h3.49Z" transform="translate(-16.07 -13.68)"/><path class="cls-1" d="M648.91,439.93c-.35-.59-.93-1.16-1-1.77-.15-1.59.15-3.24-.15-4.79-.16-.88-1.15-1.6-1.77-2.39-.75.78-1.94,1.46-2.16,2.37-.38,1.52-.05,3.19-.22,4.78-.07.63-.67,1.21-1,1.81l-.72-.4V429.28c2.46.38,4.8.75,7.14,1.07a2.21,2.21,0,0,0,1-.28c4.11-1.65,5.76-.56,5.83,3.87,0,1.6.06,3.21-.06,4.8,0,.36-.69.67-1.07,1-.25-.35-.7-.69-.72-1.05a46,46,0,0,0-.15-5.39c-.14-.85-1.17-1.56-1.8-2.33-.75.77-1.81,1.41-2.18,2.34a9.34,9.34,0,0,0-.11,3.27c0,1,0,2,0,3Z" transform="translate(-16.07 -13.68)"/><path class="cls-1" d="M704.28,411.27c2,0,4.1.08,6.19-.09.27,0,.45-1.3.72-2.16-4.74,1.15-7.2,0-7.59-3.4-.28-2.47,0-5.2,2.61-6.1,1.94-.68,4.31-.14,6.78-.14,0,3.64.09,7.2,0,10.76-.08,2.31-1.76,3.21-3.8,3.56A4.09,4.09,0,0,1,704.28,411.27Zm8-6.64c-1.85-1.68-3-2.75-4.2-3.83-.89,1.28-2.25,2.46-2.54,3.86-.32,1.59.65,3.45,2.68,3C709.49,407.48,710.48,406.09,712.32,404.63Z" transform="translate(-16.07 -13.68)"/><path class="cls-1" d="M261.85,508.09c-.35-.56-.94-1.1-1-1.69-.15-1.49.19-3.06-.14-4.49-.24-1-1.25-1.85-1.92-2.76-.73.93-1.91,1.78-2.1,2.81-.35,1.83-.1,3.78-.1,6.62-1-1-1.78-1.39-1.83-1.87-.17-1.69.11-3.44-.15-5.1-.14-.88-1.05-1.63-1.62-2.45-.81.75-2.05,1.37-2.32,2.27-.41,1.39,0,3-.22,4.48a6.37,6.37,0,0,1-1,2,5.6,5.6,0,0,1-.83-1.87c-.09-2.7,0-5.41,0-8.71,2.59.47,5,.94,7.43,1.29.37.06.8-.43,1.23-.63,3.23-1.5,5.26-.27,5.41,3.32.07,1.5,0,3,0,4.51v1.79Z" transform="translate(-16.07 -13.68)"/><path class="cls-4" d="M192.86,186.4h3.71v18h-3.71Z" transform="translate(-16.07 -13.68)"/><path class="cls-4" d="M408.21,204.46h-3.76v-18h3.76Z" transform="translate(-16.07 -13.68)"/><path class="cls-1" d="M759.31,399c0-.67.12-2.13.21-3.6l.69-.38c.36.59,1,1.17,1,1.77.09,4.39,0,8.78,0,13-1.65.17-3.1.3-4.55.46-2.17.23-4.16-.57-4.35-2.68-.23-2.4-.07-5.23,1.05-7.24C754.07,399.26,757,399.46,759.31,399Zm1.13,6c-1.64-1.77-2.65-3.84-3.86-4-2.39-.24-2.7,2.25-2.79,4s.6,3.77,2.81,3.31C757.85,408.12,758.81,406.49,760.44,405Z" transform="translate(-16.07 -13.68)"/><path class="cls-4" d="M88.46,228.7V246H84.71V228.7Z" transform="translate(-16.07 -13.68)"/><path class="cls-1" d="M90.85,500.88a7.52,7.52,0,0,1-7.25,7.65,7.55,7.55,0,1,1-.25-15.09A7.6,7.6,0,0,1,90.85,500.88ZM83.44,507a6,6,0,1,0-6.14-5.78A6.1,6.1,0,0,0,83.44,507Z" transform="translate(-16.07 -13.68)"/><path class="cls-1" d="M614.92,400.24c-2.77-.65-4.9-5.08-7.91-1.75a8.26,8.26,0,0,0-1.52,5c-.08,2.39.69,5,3.58,5,1.87,0,3.73-1.47,5.67-2.31-.4,3-2.28,4.42-5.39,4.33-3.65-.11-5.82-2.62-6-6.89-.16-4.66,1.66-7.51,5.09-8S614.13,396.58,614.92,400.24Z" transform="translate(-16.07 -13.68)"/><path class="cls-1" d="M119.08,501.37c-.35,1.33-.37,3-1.2,4.12S115.31,508,114,508s-3.57-1.29-3.87-2.42a22.75,22.75,0,0,1-.46-8.15c.25-2.25,2-3.63,4.46-3.57,2.35.06,3.62,1.47,4.22,3.55C118.68,498.62,118.81,499.92,119.08,501.37Zm-2.12-.16c0-3.48-1.35-5.94-3.11-5.58-2.88.58-2.77,3.12-2.77,5.27s-.19,5.34,2.84,5.41S116.4,503.06,117,501.21Z" transform="translate(-16.07 -13.68)"/><path class="cls-1" d="M682.65,399.65c1.42-.17,2.85-.39,4.29-.5,2.15-.16,3.82.59,4.27,2.87a14.55,14.55,0,0,1,.32,4.45c-.46,3.57-3,4.59-7,3-.25,1.41-.5,2.82-.76,4.23l-1.07-.16Zm8.36,5.61-4-4.45c-.92,1.34-2.26,2.57-2.65,4.05-.45,1.7.34,3.73,2.48,3.52C688.06,408.26,689.14,406.73,691,405.26Z" transform="translate(-16.07 -13.68)"/><path class="cls-1" d="M177.29,508.22c-.59-.64-1.5-1.19-1.69-1.94-.52-2-1.77-2.28-3.56-2.27s-2.85.28-3.27,2.2c-.17.76-1.06,1.35-1.62,2l-.91-.58c1.54-4.26,3.06-8.53,4.68-12.76a1.59,1.59,0,0,1,1.37-.78,2.32,2.32,0,0,1,1.29,1.3c1.54,4,3,8,4.46,12.07Zm-5.11-11.56-2,5.51h3.85Z" transform="translate(-16.07 -13.68)"/><path class="cls-1" d="M812.64,410.37c-.41-.49-1.15-1-1.16-1.48-.1-4.5-.06-9-.06-13.93,3.21.86,1.06,3.48,2.09,4.76,4.8-1.38,6.32-.27,6.44,4.82a37.11,37.11,0,0,1,0,4.22c0,.5-.63,1-1,1.44-.29-.52-.79-1-.83-1.56a43.73,43.73,0,0,0-.26-5.39c-.19-.92-1.33-1.64-2-2.45-.78.78-2.12,1.48-2.25,2.35a49.12,49.12,0,0,0-.11,6.87Z" transform="translate(-16.07 -13.68)"/><path class="cls-1" d="M830.7,405.62h-6.5c.31,1.9.31,1.9,6.44,2-1.3,2.53-3.67,3.45-6.13,2.38s-3.26-3.9-2.3-7.32c.82-2.9,2.51-4,5.3-3.46C830,399.7,831,401.53,830.7,405.62ZM828.63,404c.21-.25.43-.5.64-.76-1-.81-2-2.15-3-2.24-.75-.07-1.65,1.57-3,3Z" transform="translate(-16.07 -13.68)"/><path class="cls-1" d="M723.9,405.62h-6.5c.49,2.87.49,2.87,6.24,1.82-.65,2.43-2.3,3.34-5.07,2.8-2.55-.5-4-3.22-3.51-6.43.59-3.54,2.35-5.07,5.37-4.65C723.15,399.54,724.21,401.42,723.9,405.62ZM717,403.27l.59.62h4.51l.39-.68c-.94-.8-1.86-2.22-2.82-2.24S717.84,402.44,717,403.27Z" transform="translate(-16.07 -13.68)"/><path class="cls-1" d="M659.83,405.69h-6.91c1.41,4.94,4.42,1.79,6.76,1.6-1,2.72-3,3.68-5.65,2.86-2.45-.75-3.67-3.71-2.91-7q1-4.61,5.3-3.92C659.08,399.6,660.17,401.58,659.83,405.69ZM657.7,404l.58-.76c-.92-.82-1.93-2.38-2.74-2.28-1,.12-1.85,1.61-3.31,3Z" transform="translate(-16.07 -13.68)"/><path class="cls-1" d="M124.33,505.85l5.84.74L130,507.7h-9.66c1.47-1.76,2.54-3.08,3.66-4.38s2.45-2.25,3.07-3.65c.44-1-.17-2.43-.31-3.67a28.77,28.77,0,0,0-3.58,1c-.56.23-.92.93-1.67,1.74-.88-2.75.55-4.14,2-4.47a6.34,6.34,0,0,1,4.9.84,4.65,4.65,0,0,1,.78,4.41C128.07,501.81,126.1,503.65,124.33,505.85Z" transform="translate(-16.07 -13.68)"/><path class="cls-1" d="M101.17,505.73c2,1,4.5-.63,6.58,2H97.39c1-1.39,1.73-2.41,2.52-3.34,1.3-1.53,2.92-2.85,3.9-4.55.55-.94.58-3-.06-3.63-1.17-1.2-2.7-.78-3.71.85-.34.56-1.14.84-2.17,1.54.2-2.94,1.42-4.53,3.48-4.57,1.59,0,4,.59,4.59,1.69.69,1.29.24,3.65-.53,5.13C104.49,502.66,102.72,504,101.17,505.73Z" transform="translate(-16.07 -13.68)"/><path class="cls-1" d="M675.13,409.89l-4.24.35c-2,.16-3.95,0-4.26-2.59s1.41-3.27,3.5-3.51c.87-.1,1.75-.17,2.9-.28-.81-5.93-4-1.09-5.93-1.22,0-2.94,1.78-3.45,3.73-3.49s3.72.26,3.87,2.74C674.86,404.56,675,407.22,675.13,409.89ZM673,404.81l-4.42,2.2c.47.5.89,1.37,1.43,1.46C671.82,408.76,672.93,407.91,673,404.81Z" transform="translate(-16.07 -13.68)"/><path class="cls-1" d="M632.35,407.34c-1.28,2.72-3.38,3.64-5.9,2.79s-3.52-3.7-2.7-7.14c.73-3,2.3-4.21,5.07-3.84s3.73,2,3.58,6.42h-6.88C626.88,410.6,630.07,407.27,632.35,407.34Zm-7-4.14.53.69h4.52l.42-.67c-.91-.8-1.81-2.22-2.73-2.23S626.27,402.4,625.36,403.2Z" transform="translate(-16.07 -13.68)"/><path class="cls-1" d="M236.25,503.28h-6.78c.65,3,.65,3,6.3,1.87-.5,2.35-2,3.22-4.73,2.83s-4.14-2.72-3.74-6.16c.35-3,2.17-4.62,5-4.4S236.24,499.34,236.25,503.28Zm-7.14-2.39.44.69h4.56l.34-.8c-.88-.55-1.78-1.56-2.64-1.52S230,500.31,229.11,500.89Z" transform="translate(-16.07 -13.68)"/><path class="cls-1" d="M737.52,402.94c-.88-.72-1.78-2-2.64-2-1.08,0-2.13,1.15-3.55,2-.3-2.78,1-3.54,2.89-3.73,2.1-.22,4.3-.13,4.56,2.57s.06,5.54.06,8c-1.39.16-2.7.34-4,.46-2,.18-3.73-.22-4.11-2.5s1.14-3.23,3.14-3.56c1-.17,2.11-.23,3.16-.33Zm-.23,1.82-4.73,2.3c.51.5,1,1.33,1.52,1.42C736,408.8,737,407.81,737.29,404.76Z" transform="translate(-16.07 -13.68)"/><path class="cls-1" d="M699.82,403.91c-1-6.22-4-.94-6-1.42-.12-2.66,1.56-3.2,3.43-3.32s3.84.14,4.1,2.5c.31,2.76.3,5.56.43,8.18l-4.24.39c-2.1.19-4-.17-4.26-2.66-.28-2.32,1.33-3.14,3.32-3.41C697.58,404,698.56,404,699.82,403.91Zm.15,1-4.79,2.07c.46.53.83,1.39,1.38,1.51C698.45,408.87,699.5,407.9,700,404.87Z" transform="translate(-16.07 -13.68)"/><path class="cls-1" d="M642.3,409.81c-1.4.15-2.7.32-4,.44-2,.18-3.73-.23-4.1-2.51s1.14-3.23,3.14-3.55c1-.17,2.11-.23,3.16-.34.17-.3.34-.61.5-.92-.89-.72-1.79-2-2.66-2-1.08,0-2.12,1.15-3.53,2-.31-2.79,1-3.53,2.89-3.72,2.1-.22,4.3-.13,4.56,2.58S642.3,407.34,642.3,409.81Zm-1.4-4.87-4.81,1.91c.41.55.73,1.44,1.25,1.58C639.21,408.92,640.3,408,640.9,404.94Z" transform="translate(-16.07 -13.68)"/><path class="cls-1" d="M164.62,507.81h-8.19V494.19a42.79,42.79,0,0,1,8.48.09l-.17,1.5h-6.4v4.27h6.18l.16,1.21-6.31.79v3.79l6.6.77Z" transform="translate(-16.07 -13.68)"/><path class="cls-1" d="M777.58,410.31c-3.07,0-4.75-1.87-4.76-5.27,0-4,1.58-6,4.73-6s4.85,2.06,4.85,5.95C782.39,408.34,780.6,410.31,777.58,410.31Zm4-5.22-4.16-4.27c-.91,1.37-2.24,2.63-2.61,4.13-.42,1.73.45,3.73,2.61,3.43C778.71,408.21,779.76,406.64,781.63,405.09Z" transform="translate(-16.07 -13.68)"/><path class="cls-1" d="M666.51,439.7a17.36,17.36,0,0,0-3.08-.16c-4.21.65-5.34-.18-5.52-4.31a28.19,28.19,0,0,1,0-3.9,6.6,6.6,0,0,1,.84-1.89,7,7,0,0,1,1,2c.17,1.49-.13,3.05.21,4.48.19.83,1.35,2.12,1.88,2a3.5,3.5,0,0,0,2.44-1.92c.43-1.6.15-3.38.31-5.07,0-.54.57-1,.88-1.55.33.49.94,1,1,1.46C666.56,433.77,666.51,436.66,666.51,439.7Z" transform="translate(-16.07 -13.68)"/><path class="cls-1" d="M244.64,500.65c-.9-.51-1.8-1.4-2.72-1.41s-2.1.75-3.57,1.35c.54-3,2.41-3.13,4.27-3.12,2,0,3.5.95,3.58,3.17.09,2.38,0,4.77,0,6.95-1.47.13-2.72.21-4,.36-2.12.24-4-.18-4.34-2.56s1.37-3.3,3.48-3.53c.89-.1,1.78-.14,2.67-.2Zm-.25,1.86-4.62,2.26c.5.49.95,1.33,1.51,1.42C243.14,506.48,244.26,505.62,244.39,502.51Z" transform="translate(-16.07 -13.68)"/><path class="cls-1" d="M690.93,429.24c2.93,1.47,1.86,5.37,3.84,7.42,1.87-2.1,1-5.86,3.74-7.43l.93.46c-1.48,4-2.87,8-4.51,11.84-.66,1.58-2.16,2.07-4.89,1.33,5.24-2.16,3-5,2-7.74l-1.92-5.3Z" transform="translate(-16.07 -13.68)"/><path class="cls-1" d="M623.34,434.43c0,3.4-1.58,5.34-4.55,5.43-3.15.1-5.06-1.9-5-5.3s1.83-5.29,4.77-5.33S623.29,431.1,623.34,434.43Zm-.65.05c-1.87-1.58-2.93-3.2-4.18-3.37-2.15-.29-2.75,1.71-2.72,3.5s.62,3.79,2.84,3.34C619.89,437.7,620.88,436.1,622.69,434.48Z" transform="translate(-16.07 -13.68)"/><path class="cls-1" d="M796.13,410.39a6.24,6.24,0,0,1-.82-1.89c-.13-1.6.18-3.27-.15-4.8-.24-1.06-1.26-1.95-1.93-2.92-.84.85-2.19,1.59-2.41,2.58a41.62,41.62,0,0,0-.46,6.54c-1.87-.09-2.47-4.73-1.42-10.4a15.87,15.87,0,0,0,2.76,0c4.23-.74,5.33.08,5.43,4.28,0,1.81,0,3.62,0,5.43a4.3,4.3,0,0,1-.21.84Z" transform="translate(-16.07 -13.68)"/><path class="cls-1" d="M612.39,432.69c-2.45.12-4.7-3.86-6.55-.21a5.32,5.32,0,0,0,.19,4.43c1.85,3.07,3.84-.53,6.2-.4-.58,2.72-2.28,3.4-4.51,3.34-2.64-.07-4-1.62-4.37-4.07-.51-3.21.74-5.68,3.13-6.34C609,428.73,610.93,429.66,612.39,432.69Z" transform="translate(-16.07 -13.68)"/><path class="cls-1" d="M741.64,410.07V399.65c1.42-.15,2.68-.23,3.92-.42,2.62-.39,4.06.59,4.3,3.24a51,51,0,0,1,.09,6.3c0,.49-.61,1-.94,1.42-.29-.51-.79-1-.83-1.54a45.64,45.64,0,0,0-.23-5.38c-.19-.93-1.31-1.67-2-2.5-.81.76-2.09,1.41-2.31,2.32-.42,1.71-.16,3.57-.34,5.36a6.54,6.54,0,0,1-.88,1.93Z" transform="translate(-16.07 -13.68)"/><path class="cls-1" d="M669.09,429.76c1.61-.14,2.78-.16,3.92-.35,2.76-.46,4.31.61,4.53,3.37a36.59,36.59,0,0,1,0,5.13,5.79,5.79,0,0,1-.83,1.84c-.33-.58-.88-1.13-.94-1.74-.14-1.39.25-2.9-.14-4.19-.34-1.08-1.48-1.92-2.26-2.87-.81,1-2,1.84-2.33,3-.41,1.39,0,3-.16,4.49,0,.47-.68.89-1,1.34-.25-.45-.71-.89-.72-1.35C669.05,435.49,669.09,432.58,669.09,429.76Z" transform="translate(-16.07 -13.68)"/><path class="cls-1" d="M809.37,409.76c-3,.79-3.9.19-4-2.63-.06-1.19.12-2.41-.05-3.59a6.35,6.35,0,0,0-1.58-3.38c0-.18,0-.44.12-.55,1-1,2-1.92,3.06-2.87l2.17,3.46C806.4,401.9,806.39,405.4,809.37,409.76Z" transform="translate(-16.07 -13.68)"/><path class="cls-1" d="M689.33,430.11c-3.43,1.9-3.43,3.8-.31,9.28-3.13.65-3.87,0-4.21-3-.24-2.07,1.39-4.65-1.49-6,.12-.35.13-.6.25-.7C685,428.54,686.06,428.6,689.33,430.11Z" transform="translate(-16.07 -13.68)"/><path class="cls-1" d="M227.69,495.69l-4.34.33c0,3.41.05,6.7,0,10a5.64,5.64,0,0,1-.8,1.88c-.35-.66-1-1.31-1-2-.1-3.29,0-6.58,0-10.08h-4.07l-.35-.67c.51-.37,1-1,1.54-1.07C223.8,493.48,227,494,227.69,495.69Z" transform="translate(-16.07 -13.68)"/><path class="cls-1" d="M145.48,504.45a3.76,3.76,0,0,1,1,0c1.24.54,2.46,1.1,3.69,1.66a29.55,29.55,0,0,0,1.22-4.63c.22-2,0-4,.1-6,0-.5.62-1,1-1.43.3.41.84.81.85,1.22,0,3.2.13,6.41-.14,9.58-.19,2.32-1.83,3.46-4.2,3.26C146.82,508,145.38,507.09,145.48,504.45Z" transform="translate(-16.07 -13.68)"/><path class="cls-1" d="M644.37,399.71c.3-.55.72-1.4,1.22-2.2a2.2,2.2,0,0,1,.95-.87c.19-.07.64.32.84.59.68.93,1.3,1.9,2,2.89-2.83,2.09-2.83,6.33.35,9.4-2.51,1.21-4,.49-4.12-2.11-.08-1.4.12-2.83-.07-4.21A19.57,19.57,0,0,0,644.37,399.71Z" transform="translate(-16.07 -13.68)"/><path class="cls-1" d="M766.3,413.33c3.56-2.24,2.39-5.06,2.56-7.56.1-1.58-.08-3.19.06-4.78.06-.59.64-1.14,1-1.71.3.51.84,1,.85,1.55q.11,4.94,0,9.86C770.69,412.87,769.57,413.87,766.3,413.33Z" transform="translate(-16.07 -13.68)"/><path class="cls-1" d="M135.73,496.45l-3.4,2c.12-2.54,1.9-4,5.26-4.29,0,4.18,0,8.34,0,12.5,0,.42-.53.83-.81,1.25-.34-.46-1-.92-1-1.39C135.69,503.32,135.73,500.12,135.73,496.45Z" transform="translate(-16.07 -13.68)"/><path class="cls-1" d="M617.27,399.47l5.43-.23c0,.48,0,1.29-.13,1.32-3.44.66-3.43,3.22-3.48,5.9a20.65,20.65,0,0,1-.73,3.73,19.2,19.2,0,0,1-1.05-3.74C617.14,404.18,617.27,401.88,617.27,399.47Z" transform="translate(-16.07 -13.68)"/><path class="cls-4" d="M83.37,223.24c1.44-1,2.35-2.12,3.11-2s2.24,1.51,2.12,2c-.27,1.07-1.39,1.93-2.16,2.87Z" transform="translate(-16.07 -13.68)"/><path class="cls-4" d="M403,181.32c1.65-1.19,2.72-2.5,3.4-2.32a3.46,3.46,0,0,1,2,2.58,3,3,0,0,1-2,2.17C405.47,183.74,404.59,182.55,403,181.32Z" transform="translate(-16.07 -13.68)"/><path class="cls-4" d="M198,181.49c-1.64,1.15-2.57,2.3-3.44,2.26a3,3,0,0,1-1.93-2.27,3.39,3.39,0,0,1,2.07-2.47C195.38,178.86,196.39,180.21,198,181.49Z" transform="translate(-16.07 -13.68)"/><path class="cls-4" d="M122.86,247.47c-1.22-1.57-2.39-2.43-2.36-3.23s1.23-1.64,1.92-2.45c.85.74,2.14,1.35,2.41,2.27C125,244.73,123.89,245.79,122.86,247.47Z" transform="translate(-16.07 -13.68)"/><path class="cls-1" d="M786.19,404.76c0,1.4.07,2.8,0,4.19,0,.43-.53.83-.82,1.24-.33-.37-.92-.74-.93-1.12-.08-2.89-.08-5.79,0-8.68,0-.37.63-.73,1-1.09.28.42.76.83.79,1.27C786.25,402,786.19,403.36,786.19,404.76Z" transform="translate(-16.07 -13.68)"/><path class="cls-1" d="M681.81,434.83c0,1.3.05,2.6,0,3.89,0,.35-.47.68-.73,1-.35-.34-1-.67-1-1-.08-2.8-.06-5.59,0-8.38,0-.31.56-.82.86-.83a1.23,1.23,0,0,1,.87.83c.09,1.49,0,3,0,4.49Z" transform="translate(-16.07 -13.68)"/><path class="cls-1" d="M737.09,246.88a17.93,17.93,0,0,0,3.49,1.48c1.32.22,2.89.46,4-.08.83-.41,1.06-2,1.73-3.48-6.2,1.65-9.22.14-9.58-4.26-.48-5.89,2.33-8.27,8.06-6.84.1,0,.2.16.26.14,5.67-2.19,3.28,2.47,3.47,4.38a46.59,46.59,0,0,1-.16,9c-.26,2.63-2.45,4.26-5.41,4.07C740.51,251.11,737.84,250.94,737.09,246.88Zm8.74-7.13c0-2.59-.85-4.15-3.14-4.42-1.88-.21-3.66,1.77-3.49,4,.15,2,.77,3.88,3.24,3.93S745.75,241.54,745.83,239.75Z" transform="translate(-16.07 -13.68)"/><path class="cls-1" d="M717.42,241c.87.51,1.7,1.1,2.61,1.52,1.23.57,2.58,1.53,3.75,1.38s2.27-1.45,3.39-2.24a13.17,13.17,0,0,0-2.74-2.65c-1.38-.73-3.11-.79-4.54-1.46a4.35,4.35,0,0,1-2.1-6.1c1.46-2.9,4.11-3.23,7-2.9,2.65.3,4.47,1.56,5,5.35-1.39-.67-2.24-1.15-3.13-1.51-1.23-.5-2.5-1.3-3.73-1.25-.92,0-1.8,1.21-2.7,1.87.7.86,1.24,2,2.14,2.49,1.39.72,3.26.62,4.51,1.48s3,2.51,3,3.88a6.29,6.29,0,0,1-2.36,4.67C722.91,248.74,718.54,247,717.42,241Z" transform="translate(-16.07 -13.68)"/><path class="cls-1" d="M751.28,245.72V233.64a60.27,60.27,0,0,1,6-.69c2.76-.06,4.32,1.62,4.51,4.24.21,2.88,0,5.77,0,8.63-2,.8-2.72.1-2.64-1.81a20.63,20.63,0,0,0-.11-5.39c-.27-1.21-1.29-3-2.25-3.15-2-.41-3.07,1.19-3.2,3.11s.08,3.82-.13,5.71c-.08.75-.89,1.43-1.37,2.14Z" transform="translate(-16.07 -13.68)"/><path class="cls-1" d="M776,245.7V233.64a58.44,58.44,0,0,1,6.05-.69c2.76,0,4.31,1.65,4.5,4.27.2,2.87,0,5.76,0,8.62-1.72.61-2.7.42-2.64-1.55a24.09,24.09,0,0,0-.11-5.7c-.26-1.19-1.31-2.92-2.27-3.12-2-.4-3.06,1.21-3.19,3.13s.09,3.83-.12,5.71c-.08.75-.91,1.41-1.4,2.12Z" transform="translate(-16.07 -13.68)"/><path class="cls-1" d="M772.12,246.45c-.56-.53-1.57-1.06-1.59-1.61-.12-5.28-.07-10.56-.07-15.84l.92-.51c.51.67,1.45,1.33,1.46,2,.13,5.09.07,10.18.07,15.27Z" transform="translate(-16.07 -13.68)"/><path class="cls-1" d="M733.8,246.48c-.6-.71-1.68-1.39-1.73-2.14a90.74,90.74,0,0,1,0-9.33c0-.66.81-1.29,1.25-1.93.5.58,1.41,1.14,1.43,1.74.13,3.68.06,7.38.06,11.07Z" transform="translate(-16.07 -13.68)"/><path class="cls-1" d="M722.53,347.16c-.52-.61-1.46-1.21-1.48-1.84-.12-5.4-.07-10.82-.07-17.19,1.56,1,2.77,1.44,3.38,2.29,2.09,2.93,3.95,6,5.93,9,.52.79,1.15,1.51,2.12,2.75V329.34l.71-.65c.59.57,1.68,1.13,1.7,1.72.13,5.41.08,10.82.08,17.26-1.65-1.09-2.94-1.56-3.62-2.47-2.61-3.48-5-7.1-7.77-11.06v12.28Z" transform="translate(-16.07 -13.68)"/><path class="cls-1" d="M758.25,337.92c-.9,3-1.46,5.23-2.25,7.38-.24.64-1.14,1.49-1.69,1.46a2.47,2.47,0,0,1-1.72-1.51c-1.13-3.8-2.09-7.66-3.12-11.57,1.93-.84,2.69-.39,3,1.54.4,2.44,1.14,4.81,1.94,8,.88-3.17,1.46-5.55,2.23-7.86a8.84,8.84,0,0,1,1.53-2.15,8.46,8.46,0,0,1,1.82,2.25c.73,2.12,1.19,4.34,1.84,6.82,2.37-2.86.75-7.32,3.86-9.26l1.37.58c-1.12,4.18-2.21,8.38-3.44,12.53-.12.38-1.18.74-1.73.65a2.11,2.11,0,0,1-1.35-1.23C759.77,343.32,759.16,341,758.25,337.92Z" transform="translate(-16.07 -13.68)"/><path class="cls-1" d="M658.76,342.1c-.85,3.25-2.71,5-6,5.24-3.12.26-5.85-.73-7.37-3.62a12.22,12.22,0,0,1,0-11.54c1.44-2.9,4.32-4,7.94-3.45,3.12.48,5,2.25,5.1,6.06-.9-.54-2-.88-2.65-1.66-1.34-1.73-3.15-2.61-5-1.81-1.44.64-3.14,2.21-3.41,3.62a14.14,14.14,0,0,0,.43,7.25c1.16,3.15,5.4,3.43,7.76,1a16.34,16.34,0,0,1,2.65-1.9C658.4,341.54,658.58,341.82,658.76,342.1Z" transform="translate(-16.07 -13.68)"/><path class="cls-1" d="M788.08,346.5c-1.79.79-2.93.4-3.2-1.45-.44-2.93-2.36-3-4.78-3.08s-3.19,1-3.62,2.95-1.48,2.48-3.34,1.63c1.89-5.37,3.75-10.76,5.73-16.1a2.83,2.83,0,0,1,1.75-1.57c.48-.1,1.49.64,1.7,1.21C784.3,335.52,786.17,341,788.08,346.5Zm-5.26-6.92c-.75-2.39-1.38-4.4-2.24-7.11-.84,2.83-1.46,4.89-2.12,7.11Z" transform="translate(-16.07 -13.68)"/><path class="cls-1" d="M704.1,341.38c.62,1.92.62,1.92,8.21,2.06-.75,3.64-5.86,5-8.91,2.43s-2.84-9.47.51-11.81c2-1.39,4.53-1.76,6.11-.11s2,4.11,2.85,6.27a3.71,3.71,0,0,1-1.93,1.1C708.76,341.47,706.57,341.38,704.1,341.38Zm-.18-3.37.49.9H710l.4-.69c-1-.72-2-2-3-2C706.22,336.21,705.07,337.36,703.92,338Z" transform="translate(-16.07 -13.68)"/><path class="cls-1" d="M681.72,338.14c.5-3.79,2-5.14,5.11-5.09,2.59,0,4.56,1,4.67,3.95.11,3.18,0,6.37,0,9.51a49,49,0,0,1-6.15.59c-2.09-.05-4-.78-4.23-3.34s.91-3.78,3.22-4.22c1.46-.28,2.94-.48,4.61-.74.2-2-.76-3.06-2.71-2.67C684.85,336.42,683.56,337.3,681.72,338.14Zm7.19,2.6L683.68,343c.63.65,1.26,1.85,1.88,1.85C687.45,344.79,689.08,344.06,688.91,340.74Z" transform="translate(-16.07 -13.68)"/><path class="cls-1" d="M748.35,342.89c-1.16,3.64-3.61,4.86-7,4s-5-4.2-4.06-8.48c.82-3.85,3.37-5.91,6.63-5.36s5,3.67,4.51,8.25h-8.66c.48,2.45,1.63,3.7,3.77,3.32A30,30,0,0,0,748.35,342.89ZM745.5,339l.56-1c-1.12-.65-2.26-1.83-3.35-1.79s-2,1.39-3,2.17l.48.6Z" transform="translate(-16.07 -13.68)"/><path class="cls-1" d="M679.67,341.39h-8.8c1.9,5.89,5.68,1.86,8.6,1.7-1,3.4-3.46,4.65-6.88,3.84s-4.91-3.95-4.14-8.13,3.28-6.25,6.62-5.72S680.08,336.65,679.67,341.39Zm-3-2.42.56-1c-1.11-.65-2.25-1.84-3.33-1.8s-2,1.39-3,2.16l.48.61Z" transform="translate(-16.07 -13.68)"/><path class="cls-1" d="M838.5,346.52a59.66,59.66,0,0,1-6.55.67c-2.18,0-4-1-4.15-3.47-.21-3-.25-6-.19-9,0-.51.88-1,1.35-1.5.42.55,1.16,1.08,1.19,1.65.15,2.3.08,4.61.07,6.91,0,1.77.76,3.25,2.58,2.82a4.4,4.4,0,0,0,2.76-2.76c.44-2.22.08-4.59.22-6.89,0-.6.74-1.15,1.13-1.73.53.56,1.5,1.1,1.52,1.67C838.57,338.78,838.5,342.68,838.5,346.52Z" transform="translate(-16.07 -13.68)"/><path class="cls-1" d="M813.9,340.53c0-4.8,2.06-7.47,5.87-7.5S826,336,826,340.39c0,4.06-2.41,6.8-6,6.83S813.92,344.72,813.9,340.53Zm9.22.58c0-3.61-1.29-5.23-3.45-5.06-2.67.2-3.08,2.3-3.24,4.32-.2,2.48,1.48,4.63,3.41,4.48A3.29,3.29,0,0,0,823.12,341.11Z" transform="translate(-16.07 -13.68)"/><path class="cls-1" d="M841.06,333.74c2.11-.26,3.8-.57,5.49-.67,2.44-.13,4.5.62,4.81,3.38.37,3.34.47,6.72.69,10-2.24.87-3,.3-2.93-1.66s0-3.81,0-5.71c0-1.65-.64-3.37-2.5-2.88a4.83,4.83,0,0,0-2.9,3.1c-.47,2.3-.14,4.76-.14,7.15l-.73.62c-.59-.58-1.65-1.14-1.67-1.74C841,341.43,841.06,337.53,841.06,333.74Z" transform="translate(-16.07 -13.68)"/><path class="cls-1" d="M812.68,339a26.47,26.47,0,0,1-3.21-1.95c-1.56-1.34-3.05-1.48-4.49,0s-1.6,5.16-.07,6.66,2.93,1.42,4.53.07a17.61,17.61,0,0,1,3.3-1.68c-1.37,4.21-3.28,5.47-6.5,4.95s-5-2.73-5-6.7c0-4.17,1.7-6.74,4.84-7.28C808.63,332.66,812.08,333.82,812.68,339Z" transform="translate(-16.07 -13.68)"/><path class="cls-1" d="M800.05,342.08c-1.3,4.21-3.22,5.51-6.43,5-3.63-.56-5.26-3-5-7.57.19-3.84,2.15-6.2,5.37-6.48s5,1.27,6,5.89a22.37,22.37,0,0,1-3.15-1.86c-1.55-1.35-3-1.52-4.5,0s-1.64,5.15-.13,6.66,2.91,1.48,4.52.14A21.33,21.33,0,0,1,800.05,342.08Z" transform="translate(-16.07 -13.68)"/><path class="cls-1" d="M856.21,330.17c1.59,1.46,2.57,2.27,3.44,3.19.36.38.78,1.28.62,1.44a18.4,18.4,0,0,1-2.54,2c0,3.14-1.47,7,3.12,9.33-4.12,1.5-5.75.5-5.87-3.05-.05-1.51,0-3,0-4.52,0-.5.17-1.32-.05-1.45-3.7-2.11,0-4.1.15-6.11C855.12,330.55,856.21,330.17,856.21,330.17Z" transform="translate(-16.07 -13.68)"/><path class="cls-1" d="M697.45,332.16l2.86,2.46-2.8,2.45c0,.92,0,2.61,0,4.3,0,1.53-.2,3.07,1.91,3.5.36.07.57.86.85,1.32-.48.26-.94.72-1.43.75-2.19.17-3.77-.55-3.77-3.1,0-1.8,0-3.61,0-5.41,0-.6.15-1.62-.1-1.74-3.17-1.53-1.94-2.83,0-4.34.36-.28.13-1.32.18-2.05C698.08,329.17,697.31,331.56,697.45,332.16Z" transform="translate(-16.07 -13.68)"/><path class="cls-1" d="M662.78,347.39c-.72-.94-1.72-1.65-1.76-2.42-.18-3.28-.06-6.58-.09-9.87,0-1.6.59-2,2.23-1.73a20.71,20.71,0,0,0,4.61-.27c.05,1,.1,1.81.14,2.68C660.54,337,665.1,342.92,662.78,347.39Z" transform="translate(-16.07 -13.68)"/><path class="cls-1" d="M751.8,208.15H607.36c-4,0-4,0-4-3.83q0-30,0-60c0-4.41,1.11-5.54,5.47-5.54H894.73c4.37,0,5.49,1.13,5.49,5.53,0,20.19-.06,40.39.07,60.59,0,2.77-.88,3.29-3.44,3.29Q824.33,208.1,751.8,208.15Zm-92.35-37.82c.85,3.11,1.65,6.2,2.56,9.26.16.54.77.95,1.16,1.42a6.78,6.78,0,0,0,1.2-1.63c.66-1.85,1.19-3.76,2-6.35.8,2.63,1.32,4.54,2,6.39a6.26,6.26,0,0,0,1.22,1.59c.39-.48,1-.9,1.12-1.45.91-3.05,1.72-6.13,2.56-9.2l-.89-.51a25,25,0,0,0-1.51,2.84c-.5,1.3-.82,2.66-1.43,4.73-.64-2.13-.95-3.49-1.46-4.78a19.85,19.85,0,0,0-1.51-2.59,24.35,24.35,0,0,0-1.63,2.46,17.44,17.44,0,0,0-.68,2.3c-.2.64-.46,1.26-.83,2.23C660.83,170.35,660.83,170.35,659.45,170.33Zm41.65,11.34c0-5.36,0-9.95,0-14.55,0-.39-.62-.78-.95-1.16-.3.41-.8.81-.84,1.25a36.07,36.07,0,0,0,0,3.64c-2.73-1.16-5-1.65-6.74.93A6.17,6.17,0,0,0,694,180.1c1.12.84,3.21.38,4.87.5,0-.23,0-.46,0-.69Zm-62.16-.19c0-3.11.1-5.6,0-8.09-.1-1.86-1-3.23-3.11-3.38s-4-.09-5,3c1.55-.59,2.58-1.3,3.59-1.29s1.89.79,2.84,1.22l-.32,1a27.64,27.64,0,0,0-4.29.72,3.26,3.26,0,0,0-.27,6.05c1.19.53,3-.21,4.75-.4Zm-19.3-14.82c0,4.45,0,8.72.05,13,0,.45.66.89,1,1.33.27-.43.74-.84.78-1.29.1-1.34,0-2.7,0-4,6-.28,8-1.57,7.78-4.81S627.71,165.94,619.64,166.66Zm64,8.51c0-3.3-1.88-5.31-4.87-5.29s-4.79,2-4.78,5.36,2.32,5.95,5,5.87C681.42,181,683.61,178.23,683.6,175.17Zm-35.35-2.24.46-.9c-1.09-2.33-3.24-2.48-5.38-1.79a3.52,3.52,0,0,0-2.06,2.5c-.06.88,1,1.94,1.77,2.71.44.44,1.39.32,2,.69a13.58,13.58,0,0,1,1.84,1.8,9.59,9.59,0,0,1-2.91.61,9.74,9.74,0,0,1-2.7-1.12l-.46.62c.53.65.94,1.61,1.63,1.88,1.33.53,3,1.24,4.18.81a4.31,4.31,0,0,0,2.31-3.33c0-1-1.75-2-2.79-2.92-.25-.23-.85-.06-1.13-.28a19.37,19.37,0,0,1-1.72-1.67,9.81,9.81,0,0,1,2.79-.65A6.66,6.66,0,0,1,648.25,172.93Zm9.6,0c-.56-3.11-2.62-3.4-4.69-2.74a4,4,0,0,0-2.49,2.52c-.33,2.33,1.8,2.68,3.48,3.36a9.48,9.48,0,0,1,2.25,1.8,19.58,19.58,0,0,1-3.44.51,7.3,7.3,0,0,1-2.26-.83l-.39.69c.51.56.91,1.4,1.54,1.64,1.35.51,3,1.28,4.18.86a4.22,4.22,0,0,0,2.28-3.32c0-1-1.7-2-2.73-2.92-.33-.3-1.05-.13-1.41-.4a9.72,9.72,0,0,1-1.4-1.59c.75-.3,1.55-.91,2.25-.82A11,11,0,0,1,657.85,172.93Zm27.59-2.62v1.52c0,2.49-.06,5,0,7.47,0,.58.64,1.13,1,1.69a6.65,6.65,0,0,0,.8-1.85,26.72,26.72,0,0,0,0-3.58c-.07-2,.32-3.56,2.68-3.93.41-.06.72-.83,1.36-1.64Z" transform="translate(-16.07 -13.68)"/><path class="cls-1" d="M752.14,66.4H894.47c5.08,0,5.75.67,5.75,5.71v58.48c0,4.26-.9,5.18-5.07,5.18H608.37c-4,0-5-1-5-5q0-29.7,0-59.39c0-4.11,1-5,5.22-5ZM643.67,108.8l.79-.4a6.56,6.56,0,0,0,.14-.87c0-1.61,0-3.21,0-4.82-.07-4.41-1.72-5.45-5.83-3.71-.26.11-.53.47-.74.43-2.36-.46-4.71-1-7.51-1.56,0,3.5,0,6.48,0,9.46,0,.43.52.86.8,1.29.35-.45,1-.89,1-1.37.13-1.59-.22-3.28.18-4.78.27-1,1.51-1.74,2.32-2.6.58.89,1.47,1.73,1.67,2.7.28,1.45,0,3,.12,4.49.07.61.68,1.16,1.05,1.74l.85-.4a38.52,38.52,0,0,1,.11-6.27c.14-.86,1.47-1.53,2.26-2.28.59.78,1.53,1.51,1.69,2.38.28,1.55,0,3.2.14,4.79A5.57,5.57,0,0,0,643.67,108.8Zm44.56-10c-.79-.23-1.64-.78-2.27-.6-1.42.42-3.68,1-3.91,1.89a13.24,13.24,0,0,0,.11,6.79c.26.91,2.55,1.45,4,1.7a15.92,15.92,0,0,0,4.12-.39V94.31l-1-.17C688.91,95.65,688.58,97.16,688.23,98.83Zm13.47,9.64V94.27L700.65,94c-.3,1.57-.6,3.14-.94,4.86a8.16,8.16,0,0,0-1.21-.51c-2-.51-4.32-.54-4.92,1.54a13,13,0,0,0,0,7.06c.62,2.05,2.94,1.94,4.94,1.51A16.07,16.07,0,0,1,701.7,108.47Zm-46.83-.2c0-1.91,0-4,0-6.08s-.46-3.6-2.8-3.91-4.15-.13-5.4,3c1.69-.61,2.81-1.34,3.93-1.32.87,0,1.72,1,2.58,1.48l-.43.89c-.88.08-1.76.15-2.63.24-2.12.2-3.75,1-3.58,3.46.14,2,2.1,3.07,4.57,2.62C652.17,108.45,653.26,108.42,654.87,108.27ZM619.64,94.66v13.83h9.07c-2.08-3.07-5.12-.61-7-2v-3.66c2.05-1,4.69.77,7-2.11h-7V96.49h6.52c0-.36.07-.72.1-1.08C625.68,94,622.72,95.19,619.64,94.66Zm51.41,6.5a20.4,20.4,0,0,1,2.47-.72,12,12,0,0,1,3.05-.13c.24,0,.37,1,.56,1.51a24,24,0,0,1-2.74.72c-2.22.31-4,1.08-3.49,3.76.46,2.51,2.44,2.52,4.43,2.33l3.87-.33c0-2.15.11-4.42,0-6.68-.11-1.83-.93-3.23-3.07-3.38S672.14,98.17,671.05,101.16Zm48.61,4.37c-2.79.8-5.56,3-7.15-1.56h7.16c0-3.8-1.08-5.46-3.69-5.8a4.46,4.46,0,0,0-5.17,3.49c-.76,3.09.47,6.07,2.82,6.87C716.15,109.39,718.29,108.47,719.66,105.53Zm11.82.16-.59.61c.44.58.82,1.58,1.34,1.66a13.65,13.65,0,0,0,5.13.1c.76-.18,1.87-2.3,1.6-2.68a12.42,12.42,0,0,0-3.43-2.79,16.85,16.85,0,0,0-2.57-1.18c1.79-3.78,3.95.51,5.85-.82-.86-2.46-2.82-2.83-4.8-2.22a4.41,4.41,0,0,0-2.7,2.57c-.52,2.2,1.45,2.72,3.13,3.2.38.11.87.09,1.14.33A14.4,14.4,0,0,1,737,106.1c-.68.33-1.42,1-2,.91A18.4,18.4,0,0,1,731.48,105.69Zm-2.08-4.84c-.87-2.68-2.84-3.11-4.8-2.49-1.17.38-2,1.8-3,2.75,1.17,1,2.28,2.14,3.52,3.08a17.49,17.49,0,0,0,2.66,1.38c-2.19,3.32-4.12-.22-6.23.38.49,2.79,2.57,3.09,4.48,2.62a5.13,5.13,0,0,0,3.36-2.63c.69-2.12-1.34-2.73-3-3.33-1-.35-2-.86-2.93-1.3.12-.46.25-.91.38-1.37Zm-24.75,7.47,1.08.38a22.93,22.93,0,0,0,.67-2.78c.29-2.47-1.09-5.75,3.2-6.18.18,0,.51-.78.42-.9a1.66,1.66,0,0,0-1.11-.65c-1.37.07-2.75.28-4.26.46Zm-42.7.33c1.81-.71,2.29-4.59,1.68-12.69a6.13,6.13,0,0,0-.92-1.94l-.76.32Zm-3.73.14,1-.39c0-2.88,0-5.77-.05-8.65,0-.49-.62-1-.95-1.45-.31.51-.85,1-.87,1.53-.1,2.4-.11,4.8,0,7.19C657.35,107.62,657.9,108.2,658.22,108.79Z" transform="translate(-16.07 -13.68)"/><path class="cls-4" d="M220.18,82.1c-.28,3.54-1.08,6.57-3.66,9.1a5.46,5.46,0,0,1-8.24,0,14.09,14.09,0,0,1-2-16.12,6.46,6.46,0,0,1,6.26-3.31c2.63.06,4.8,1.07,5.78,3.52A54.4,54.4,0,0,1,220.18,82.1Z" transform="translate(-16.07 -13.68)"/><path class="cls-4" d="M104.17,83c.79,5.84-1.11,9.6-5.45,10.8-3.12.86-5.24-.06-6-2.63-1-3.15,0-5.13,3.33-6.2,1.33-.43,2.72-.69,4.08-1Z" transform="translate(-16.07 -13.68)"/><path class="cls-4" d="M284.41,81.7A48,48,0,0,1,286,75.38c1.21-3,3.7-4.29,6.94-4.28a7.08,7.08,0,0,1,6.77,4.15,14.53,14.53,0,0,1-2.48,16.13,6.46,6.46,0,0,1-8.95,0C285.55,88.67,284.69,85.44,284.41,81.7Z" transform="translate(-16.07 -13.68)"/><path class="cls-4" d="M179.52,77.84H166.41c.32-4.25,2.51-6.65,6.06-6.73C176.61,71,178.82,73.08,179.52,77.84Z" transform="translate(-16.07 -13.68)"/><path class="cls-4" d="M243.91,81.46a41.72,41.72,0,0,1,1.53-6,6.8,6.8,0,0,1,6.63-4.33,7.17,7.17,0,0,1,7.07,4.14,14.94,14.94,0,0,1-2.71,16.66c-1.93,1.85-6.56,1.67-8.43-.33C244.83,88.17,244.16,86.39,243.91,81.46Z" transform="translate(-16.07 -13.68)"/><path class="cls-4" d="M538,154.87c0-4.24,1.72-6.44,4.23-6.47s4.65,2.39,4.38,5.7a11.68,11.68,0,0,1-1.64,5c-1.17,1.94-4.46,1.68-5.55-.37A24.33,24.33,0,0,1,538,154.87Z" transform="translate(-16.07 -13.68)"/><path class="cls-4" d="M275.32,154c0,3.61-1.7,6.27-4.12,6.37s-4.51-2.69-4.5-6.34c0-3.39,1.85-5.71,4.48-5.63S275.3,150.66,275.32,154Z" transform="translate(-16.07 -13.68)"/><path class="cls-4" d="M307.15,195.12c0,3.42-1.83,5.77-4.39,5.67s-4.28-2.57-4.22-5.9,1.79-5.44,4.3-5.47S307.17,191.63,307.15,195.12Z" transform="translate(-16.07 -13.68)"/><path class="cls-4" d="M363.87,195.05c0,3.44-1.77,5.79-4.33,5.74s-4.33-2.51-4.29-5.84,1.75-5.46,4.24-5.53C362.14,189.35,363.87,191.57,363.87,195.05Z" transform="translate(-16.07 -13.68)"/><path class="cls-4" d="M147.86,154.21c-.05,3.65-1.83,6.2-4.31,6.17s-4.38-2.92-4.3-6.53c.07-3.25,1.84-5.46,4.36-5.45S147.91,150.71,147.86,154.21Z" transform="translate(-16.07 -13.68)"/><path class="cls-4" d="M86.22,143.45l3.26,9.61H83Z" transform="translate(-16.07 -13.68)"/><path class="cls-4" d="M123,196c-.16,3.52-2.21,5.54-4.82,4.84a3.54,3.54,0,0,1-2.13-2.05c-.15-.5.93-1.82,1.67-2A34.26,34.26,0,0,1,123,196Z" transform="translate(-16.07 -13.68)"/><path class="cls-4" d="M144.76,193c.7-2.5,2-3.84,4.29-3.75s3.31,1.42,3.75,3.75Z" transform="translate(-16.07 -13.68)"/><path class="cls-4" d="M325.29,193.11h-7.84c.31-2.43,1.59-3.76,3.88-3.82S324.93,190.54,325.29,193.11Z" transform="translate(-16.07 -13.68)"/><path class="cls-4" d="M508.32,155c-.45,4.08-1.73,5.81-4.23,5.46a3.57,3.57,0,0,1-2.58-2.07,3.41,3.41,0,0,1,1.84-2.69C504.75,155.08,506.45,155.19,508.32,155Z" transform="translate(-16.07 -13.68)"/><path class="cls-4" d="M454.41,152.11h-7.83a3.43,3.43,0,0,1,3.34-3.79C452.4,148,453.76,149.38,454.41,152.11Z" transform="translate(-16.07 -13.68)"/><path class="cls-4" d="M248,152.06h-7.83c.31-2.49,1.6-3.77,3.9-3.79S247.6,149.63,248,152.06Z" transform="translate(-16.07 -13.68)"/><path class="cls-4" d="M280.28,193.12h-7.94c.32-2.37,1.52-3.71,3.79-3.83S279.7,190.51,280.28,193.12Z" transform="translate(-16.07 -13.68)"/><path class="cls-4" d="M382,193.11c.7-2.56,2-4,4.47-3.81,2.13.19,3.38,1.39,3.39,3.81Z" transform="translate(-16.07 -13.68)"/><path class="cls-4" d="M128.1,152.1h-7.89c.24-2.38,1.47-3.69,3.72-3.82S127.53,149.49,128.1,152.1Z" transform="translate(-16.07 -13.68)"/><path class="cls-4" d="M113.59,235.34h-7.87c.24-2.4,1.5-3.71,3.76-3.82S113.07,232.73,113.59,235.34Z" transform="translate(-16.07 -13.68)"/><path class="cls-4" d="M458.49,195.07c0-3.21,1.42-5.41,3.75-5.68,2.7-.31,4.11,1.23,4.71,3.62.88,3.51-.46,6.87-3,7.7C461,201.68,458.49,199.07,458.49,195.07Z" transform="translate(-16.07 -13.68)"/><path class="cls-4" d="M166.67,154.28a6.37,6.37,0,0,1-.16,1.59c-.67,2.08-1.12,4.44-4,4.57-3.08.14-3.59-2.36-4.35-4.5a5.66,5.66,0,0,1-.16-1.8c0-3.52,1.64-5.78,4.29-5.8S166.68,150.53,166.67,154.28Z" transform="translate(-16.07 -13.68)"/><path class="cls-4" d="M398.36,154.28a6.93,6.93,0,0,1-.16,1.59c-.67,2.07-1.12,4.43-4,4.57-3.08.14-3.59-2.36-4.36-4.5a5.59,5.59,0,0,1-.15-1.79c0-3.53,1.63-5.79,4.28-5.81S398.37,150.52,398.36,154.28Z" transform="translate(-16.07 -13.68)"/><path class="cls-4" d="M335.6,195.15c0-3.36,1.76-5.77,4.37-5.81s4.47,2.26,4.49,5.68-1.79,5.82-4.34,5.86S335.65,198.5,335.6,195.15Z" transform="translate(-16.07 -13.68)"/><path class="cls-4" d="M335.41,154c0,3.67-1.82,6.46-4.33,6.5s-4.49-2.7-4.53-6.35c0-3.36,1.76-5.74,4.37-5.79S335.37,150.56,335.41,154Z" transform="translate(-16.07 -13.68)"/><path class="cls-4" d="M185.78,154.09c0,3.67-1.95,6.42-4.46,6.38s-4.42-3-4.39-6.49,1.86-5.69,4.49-5.66S185.8,150.71,185.78,154.09Z" transform="translate(-16.07 -13.68)"/><path class="cls-1" d="M712.32,404.63c-1.84,1.46-2.83,2.85-4.06,3.08-2,.4-3-1.46-2.68-3,.29-1.4,1.65-2.58,2.54-3.86C709.29,401.88,710.47,403,712.32,404.63Z" transform="translate(-16.07 -13.68)"/><path class="cls-1" d="M760.44,405c-1.63,1.5-2.59,3.13-3.84,3.39-2.21.46-2.9-1.59-2.81-3.31s.4-4.28,2.79-4C757.79,401.15,758.8,403.22,760.44,405Z" transform="translate(-16.07 -13.68)"/><path class="cls-1" d="M83.44,507a6,6,0,0,1-.39-11.93A6,6,0,1,1,83.44,507Zm2.85-7.27c-.4-2.12-2-2.39-3.75-2.07-2.16.4-2.44,2.12-2.3,3.95.17,2.11,1.48,3.13,3.45,2.79,1-.17,1.84-1.13,3.35-2.12a24.64,24.64,0,0,1-4.77.13c-.21,0-.14-1.74-.2-2.68Z" transform="translate(-16.07 -13.68)"/><path class="cls-1" d="M117,501.21c-.56,1.85.1,5.17-3,5.1s-2.84-3.17-2.84-5.41-.11-4.69,2.77-5.27C115.61,495.27,117,497.73,117,501.21Z" transform="translate(-16.07 -13.68)"/><path class="cls-1" d="M691,405.26c-1.87,1.47-3,3-4.18,3.12-2.14.21-2.93-1.82-2.48-3.52.39-1.48,1.73-2.71,2.65-4.05Z" transform="translate(-16.07 -13.68)"/><path class="cls-1" d="M172.18,496.66l1.88,5.51h-3.85Z" transform="translate(-16.07 -13.68)"/><path class="cls-1" d="M828.63,404h-5.4c1.35-1.43,2.25-3.07,3-3,1.07.09,2,1.43,3,2.24C829.06,403.49,828.84,403.74,828.63,404Z" transform="translate(-16.07 -13.68)"/><path class="cls-1" d="M717,403.27c.89-.83,1.8-2.31,2.67-2.3s1.88,1.44,2.82,2.24l-.39.68h-4.51Z" transform="translate(-16.07 -13.68)"/><path class="cls-1" d="M657.7,404h-5.47c1.46-1.43,2.3-2.92,3.31-3,.81-.1,1.82,1.46,2.74,2.28Z" transform="translate(-16.07 -13.68)"/><path class="cls-1" d="M673,404.81c0,3.1-1.13,3.95-3,3.66-.54-.09-1-1-1.43-1.46Z" transform="translate(-16.07 -13.68)"/><path class="cls-1" d="M625.36,403.2c.91-.8,1.83-2.21,2.74-2.21s1.82,1.43,2.73,2.23l-.42.67h-4.52Z" transform="translate(-16.07 -13.68)"/><path class="cls-1" d="M229.11,500.89c.9-.58,1.78-1.6,2.7-1.63s1.76,1,2.64,1.52l-.34.8h-4.56Z" transform="translate(-16.07 -13.68)"/><path class="cls-1" d="M737.29,404.76c-.29,3.05-1.31,4-3.21,3.72-.57-.09-1-.92-1.52-1.42Z" transform="translate(-16.07 -13.68)"/><path class="cls-1" d="M700,404.87c-.47,3-1.52,4-3.41,3.58-.55-.12-.92-1-1.38-1.51Z" transform="translate(-16.07 -13.68)"/><path class="cls-1" d="M640.9,404.94c-.6,3-1.69,4-3.56,3.49-.52-.14-.84-1-1.25-1.58Z" transform="translate(-16.07 -13.68)"/><path class="cls-1" d="M781.63,405.09c-1.87,1.55-2.92,3.12-4.16,3.29-2.16.3-3-1.7-2.61-3.43.37-1.5,1.7-2.76,2.61-4.13Z" transform="translate(-16.07 -13.68)"/><path class="cls-1" d="M244.39,502.51c-.13,3.11-1.25,4-3.11,3.68-.56-.09-1-.93-1.51-1.42Z" transform="translate(-16.07 -13.68)"/><path class="cls-1" d="M622.69,434.48c-1.81,1.62-2.8,3.22-4.06,3.47-2.22.45-2.8-1.56-2.84-3.34s.57-3.79,2.72-3.5C619.76,431.28,620.82,432.9,622.69,434.48Z" transform="translate(-16.07 -13.68)"/><path class="cls-1" d="M745.83,239.75c-.08,1.79-.78,3.57-3.39,3.52s-3.09-2-3.24-3.93c-.17-2.24,1.61-4.22,3.49-4C745,235.6,745.83,237.16,745.83,239.75Z" transform="translate(-16.07 -13.68)"/><path class="cls-1" d="M782.82,339.58h-4.36c.66-2.22,1.28-4.28,2.12-7.11C781.44,335.18,782.07,337.19,782.82,339.58Z" transform="translate(-16.07 -13.68)"/><path class="cls-1" d="M703.92,338c1.15-.65,2.3-1.8,3.46-1.81,1,0,2,1.3,3,2l-.4.69h-5.55Z" transform="translate(-16.07 -13.68)"/><path class="cls-1" d="M688.91,340.74c.17,3.32-1.46,4.05-3.35,4.06-.62,0-1.25-1.2-1.88-1.85Z" transform="translate(-16.07 -13.68)"/><path class="cls-1" d="M745.5,339h-5.3l-.48-.6c1-.78,2-2.12,3-2.17s2.23,1.14,3.35,1.79Z" transform="translate(-16.07 -13.68)"/><path class="cls-1" d="M676.71,339h-5.3l-.48-.61c1-.77,2-2.11,3-2.16s2.22,1.15,3.33,1.8Z" transform="translate(-16.07 -13.68)"/><path class="cls-1" d="M823.12,341.11a3.29,3.29,0,0,1-3.28,3.74c-1.93.15-3.61-2-3.41-4.48.16-2,.57-4.12,3.24-4.32C821.83,335.88,823.09,337.5,823.12,341.11Z" transform="translate(-16.07 -13.68)"/><path class="cls-1" d="M659.45,170.33c1.38,0,1.38,0,3.86,6.71.37-1,.63-1.59.83-2.23a17.44,17.44,0,0,1,.68-2.3,24.35,24.35,0,0,1,1.63-2.46,19.85,19.85,0,0,1,1.51,2.59c.51,1.29.82,2.65,1.46,4.78.61-2.07.93-3.43,1.43-4.73a25,25,0,0,1,1.51-2.84l.89.51c-.84,3.07-1.65,6.15-2.56,9.2-.16.55-.73,1-1.12,1.45a6.26,6.26,0,0,1-1.22-1.59c-.67-1.85-1.19-3.76-2-6.39-.8,2.59-1.33,4.5-2,6.35a6.78,6.78,0,0,1-1.2,1.63c-.39-.47-1-.88-1.16-1.42C661.1,176.53,660.3,173.44,659.45,170.33Z" transform="translate(-16.07 -13.68)"/><path class="cls-1" d="M701.1,181.67l-2.28-1.76c0,.23,0,.46,0,.69-1.66-.12-3.75.34-4.87-.5a6.17,6.17,0,0,1-1.51-8.32c1.7-2.58,4-2.09,6.74-.93a36.07,36.07,0,0,1,0-3.64c0-.44.54-.84.84-1.25.33.38.95.77.95,1.16C701.13,171.72,701.1,176.31,701.1,181.67Zm-.69-6.61c-1.84-1.53-2.92-3.14-4.16-3.29-2.13-.25-2.67,1.79-2.63,3.53s.64,3.77,2.84,3.28C697.71,178.31,698.67,176.68,700.41,175.06Z" transform="translate(-16.07 -13.68)"/><path class="cls-1" d="M638.94,181.48l-1.82-1.16c-1.79.19-3.56.93-4.75.4a3.26,3.26,0,0,1,.27-6.05,27.64,27.64,0,0,1,4.29-.72l.32-1c-1-.43-1.89-1.2-2.84-1.22s-2,.7-3.59,1.29c1-3.13,2.93-3.18,5-3s3,1.52,3.11,3.38C639,175.88,638.94,178.37,638.94,181.48Zm-1.88-6.33-4.63,2c.55.55,1,1.5,1.64,1.58C636,179,636.92,177.88,637.06,175.15Z" transform="translate(-16.07 -13.68)"/><path class="cls-1" d="M619.64,166.66c8.07-.72,9.4,1.11,9.65,4.21s-1.83,4.53-7.78,4.81c0,1.32.07,2.68,0,4,0,.45-.51.86-.78,1.29-.35-.44-1-.88-1-1.33C619.61,175.38,619.64,171.11,619.64,166.66Zm2.08,1.86v5.24c2.42-.09,5.17.81,5.62-2.64C627.63,168.93,625.8,168.14,621.72,168.52Z" transform="translate(-16.07 -13.68)"/><path class="cls-1" d="M683.6,175.17c0,3.06-2.18,5.87-4.65,5.94-2.68.08-5-2.63-5-5.87s1.78-5.34,4.78-5.36S683.57,171.87,683.6,175.17Zm-9-.08c1.81,1.63,2.79,3.22,4.06,3.5,2.24.5,2.84-1.56,2.9-3.3s-.6-3.8-2.72-3.54C677.61,171.91,676.53,173.53,674.64,175.09Z" transform="translate(-16.07 -13.68)"/><path class="cls-1" d="M648.25,172.93a6.66,6.66,0,0,0-2.22-1,9.81,9.81,0,0,0-2.79.65,19.37,19.37,0,0,0,1.72,1.67c.28.22.88,0,1.13.28,1,.92,2.74,1.9,2.79,2.92a4.31,4.31,0,0,1-2.31,3.33c-1.15.43-2.85-.28-4.18-.81-.69-.27-1.1-1.23-1.63-1.88l.46-.62a9.74,9.74,0,0,0,2.7,1.12,9.59,9.59,0,0,0,2.91-.61,13.58,13.58,0,0,0-1.84-1.8c-.56-.37-1.51-.25-2-.69-.77-.77-1.83-1.83-1.77-2.71a3.52,3.52,0,0,1,2.06-2.5c2.14-.69,4.29-.54,5.38,1.79Z" transform="translate(-16.07 -13.68)"/><path class="cls-1" d="M657.85,172.93a11,11,0,0,0-2.83-1.24c-.7-.09-1.5.52-2.25.82a9.72,9.72,0,0,0,1.4,1.59c.36.27,1.08.1,1.41.4,1,.9,2.69,1.9,2.73,2.92a4.22,4.22,0,0,1-2.28,3.32c-1.15.42-2.83-.35-4.18-.86-.63-.24-1-1.08-1.54-1.64l.39-.69a7.3,7.3,0,0,0,2.26.83,19.58,19.58,0,0,0,3.44-.51,9.48,9.48,0,0,0-2.25-1.8c-1.68-.68-3.81-1-3.48-3.36a4,4,0,0,1,2.49-2.52C655.23,169.53,657.29,169.82,657.85,172.93Z" transform="translate(-16.07 -13.68)"/><path class="cls-1" d="M685.44,170.31l5.91-.32c-.64.81-1,1.58-1.36,1.64-2.36.37-2.75,2-2.68,3.93a26.72,26.72,0,0,1,0,3.58,6.65,6.65,0,0,1-.8,1.85c-.34-.56-1-1.11-1-1.69-.11-2.48,0-5,0-7.47Z" transform="translate(-16.07 -13.68)"/><path class="cls-1" d="M643.67,108.8a5.57,5.57,0,0,1-.91-1.78c-.13-1.59.14-3.24-.14-4.79-.16-.87-1.1-1.6-1.69-2.38-.79.75-2.12,1.42-2.26,2.28a38.52,38.52,0,0,0-.11,6.27l-.85.4c-.37-.58-1-1.13-1.05-1.74-.15-1.49.16-3-.12-4.49-.2-1-1.09-1.81-1.67-2.7-.81.86-2,1.6-2.32,2.6-.4,1.5,0,3.19-.18,4.78,0,.48-.65.92-1,1.37-.28-.43-.79-.86-.8-1.29-.07-3,0-6,0-9.46,2.8.59,5.15,1.1,7.51,1.56.21,0,.48-.32.74-.43,4.11-1.74,5.76-.7,5.83,3.71,0,1.61,0,3.21,0,4.82a6.56,6.56,0,0,1-.14.87Z" transform="translate(-16.07 -13.68)"/><path class="cls-1" d="M688.23,98.83c.35-1.67.68-3.18,1-4.69l1,.17v13.91a15.92,15.92,0,0,1-4.12.39c-1.45-.25-3.74-.79-4-1.7a13.24,13.24,0,0,1-.11-6.79c.23-.92,2.49-1.47,3.91-1.89C686.59,98.05,687.44,98.6,688.23,98.83Zm1.63,4.4-4.26-3.36c-.86,1.18-2.18,2.27-2.45,3.57-.37,1.76.52,3.75,2.69,3.36C687.06,106.58,688,104.92,689.86,103.23Z" transform="translate(-16.07 -13.68)"/><path class="cls-1" d="M701.7,108.47a16.07,16.07,0,0,0-3.13,0c-2,.43-4.32.54-4.94-1.51a13,13,0,0,1,0-7.06c.6-2.08,2.94-2.05,4.92-1.54a8.16,8.16,0,0,1,1.21.51c.34-1.72.64-3.29.94-4.86l1.05.23Zm-8.39-5.65c1.6,1.82,2.4,3.52,3.64,4,1.88.65,2.86-.89,3-2.75s-.16-4-2.48-4C696.33,100,695.18,101.5,693.31,102.82Z" transform="translate(-16.07 -13.68)"/><path class="cls-1" d="M654.87,108.27c-1.61.15-2.7.18-3.77.37-2.47.45-4.43-.59-4.57-2.62-.17-2.48,1.46-3.26,3.58-3.46.87-.09,1.75-.16,2.63-.24l.43-.89c-.86-.53-1.71-1.47-2.58-1.48-1.12,0-2.24.71-3.93,1.32,1.25-3.12,3.2-3.29,5.4-3s2.79,2,2.8,3.91S654.87,106.36,654.87,108.27Zm-2.11-4.92-4.3,2.17c.51.49,1,1.36,1.53,1.41C651.83,107.11,653,106.33,652.76,103.35Z" transform="translate(-16.07 -13.68)"/><path class="cls-1" d="M619.64,94.66c3.08.53,6-.66,8.62.75,0,.36-.06.72-.1,1.08h-6.52v4.19h7c-2.29,2.88-4.93,1.08-7,2.11v3.66c1.91,1.43,5-1,7,2h-9.07V94.66Z" transform="translate(-16.07 -13.68)"/><path class="cls-1" d="M671.05,101.16c1.09-3,3-3.07,5.05-2.92s3,1.55,3.07,3.38c.14,2.26,0,4.53,0,6.68l-3.87.33c-2,.19-4,.18-4.43-2.33-.49-2.68,1.27-3.45,3.49-3.76a24,24,0,0,0,2.74-.72c-.19-.53-.32-1.48-.56-1.51a12,12,0,0,0-3.05.13A20.4,20.4,0,0,0,671.05,101.16Zm6.26,2.08-4.55,2.11c.45.53.82,1.43,1.34,1.54C676,107.26,677.09,106.37,677.31,103.24Z" transform="translate(-16.07 -13.68)"/><path class="cls-1" d="M719.66,105.53c-1.37,2.94-3.51,3.86-6,3-2.35-.8-3.58-3.78-2.82-6.87A4.46,4.46,0,0,1,716,98.17c2.61.34,3.73,2,3.69,5.8h-7.16C714.1,108.57,716.87,106.33,719.66,105.53Zm-2.17-3.15.48-.79c-.88-.6-1.78-1.7-2.62-1.66s-1.9,1.12-2.84,1.75l.37.7Z" transform="translate(-16.07 -13.68)"/><path class="cls-1" d="M731.48,105.69a18.4,18.4,0,0,0,3.45,1.32c.6.11,1.34-.58,2-.91a14.4,14.4,0,0,0-1.37-1.63c-.27-.24-.76-.22-1.14-.33-1.68-.48-3.65-1-3.13-3.2a4.41,4.41,0,0,1,2.7-2.57c2-.61,3.94-.24,4.8,2.22-1.9,1.33-4.06-3-5.85.82a16.85,16.85,0,0,1,2.57,1.18,12.42,12.42,0,0,1,3.43,2.79c.27.38-.84,2.5-1.6,2.68a13.65,13.65,0,0,1-5.13-.1c-.52-.08-.9-1.08-1.34-1.66Z" transform="translate(-16.07 -13.68)"/><path class="cls-1" d="M729.4,100.85l-5.52-.91c-.13.46-.26.91-.38,1.37,1,.44,1.92,1,2.93,1.3,1.64.6,3.67,1.21,3,3.33a5.13,5.13,0,0,1-3.36,2.63c-1.91.47-4,.17-4.48-2.62,2.11-.6,4,2.94,6.23-.38a17.49,17.49,0,0,1-2.66-1.38c-1.24-.94-2.35-2-3.52-3.08,1-1,1.81-2.37,3-2.75C726.56,97.74,728.53,98.17,729.4,100.85Z" transform="translate(-16.07 -13.68)"/><path class="cls-1" d="M704.65,108.32V98.65c1.51-.18,2.89-.39,4.26-.46a1.66,1.66,0,0,1,1.11.65c.09.12-.24.88-.42.9-4.29.43-2.91,3.71-3.2,6.18a22.93,22.93,0,0,1-.67,2.78Z" transform="translate(-16.07 -13.68)"/><path class="cls-1" d="M662,108.65V94.34l.76-.32a6.13,6.13,0,0,1,.92,1.94C664.24,104.06,663.76,107.94,662,108.65Z" transform="translate(-16.07 -13.68)"/><path class="cls-1" d="M658.22,108.79c-.32-.59-.87-1.17-.9-1.77-.11-2.39-.1-4.79,0-7.19,0-.52.56-1,.87-1.53.33.48.94,1,.95,1.45.09,2.88.05,5.77.05,8.65Z" transform="translate(-16.07 -13.68)"/><path class="cls-1" d="M86.29,499.71H82.07c.06.94,0,2.65.2,2.68a24.64,24.64,0,0,0,4.77-.13c-1.51,1-2.36,1.95-3.35,2.12-2,.34-3.28-.68-3.45-2.79-.14-1.83.14-3.55,2.3-3.95C84.29,497.32,85.89,497.59,86.29,499.71Z" transform="translate(-16.07 -13.68)"/><path class="cls-1" d="M700.41,175.06c-1.74,1.62-2.7,3.25-3.95,3.52-2.2.49-2.79-1.53-2.84-3.28s.5-3.78,2.63-3.53C697.49,171.92,698.57,173.53,700.41,175.06Z" transform="translate(-16.07 -13.68)"/><path class="cls-1" d="M637.06,175.15c-.14,2.73-1.09,3.8-3,3.55-.6-.08-1.09-1-1.64-1.58Z" transform="translate(-16.07 -13.68)"/><path class="cls-1" d="M621.72,168.52c4.08-.38,5.91.41,5.62,2.6-.45,3.45-3.2,2.55-5.62,2.64Z" transform="translate(-16.07 -13.68)"/><path class="cls-1" d="M674.64,175.09c1.89-1.56,3-3.18,4.24-3.34,2.12-.26,2.77,1.77,2.72,3.54s-.66,3.8-2.9,3.3C677.43,178.31,676.45,176.72,674.64,175.09Z" transform="translate(-16.07 -13.68)"/><path class="cls-1" d="M689.86,103.23c-1.83,1.69-2.8,3.35-4,3.57-2.17.39-3.06-1.6-2.69-3.36.27-1.3,1.59-2.39,2.45-3.57Z" transform="translate(-16.07 -13.68)"/><path class="cls-1" d="M693.31,102.82c1.87-1.32,3-2.8,4.17-2.79,2.32,0,2.63,2,2.48,4s-1.13,3.4-3,2.75C695.71,106.34,694.91,104.64,693.31,102.82Z" transform="translate(-16.07 -13.68)"/><path class="cls-1" d="M652.76,103.35c.27,3-.93,3.76-2.77,3.58-.54-.05-1-.92-1.53-1.41Z" transform="translate(-16.07 -13.68)"/><path class="cls-1" d="M677.31,103.24c-.22,3.13-1.32,4-3.21,3.65-.52-.11-.89-1-1.34-1.54Z" transform="translate(-16.07 -13.68)"/><path class="cls-1" d="M717.49,102.38h-4.61l-.37-.7c.94-.63,1.86-1.7,2.84-1.75s1.74,1.06,2.62,1.66Z" transform="translate(-16.07 -13.68)"/></svg>