<svg id="Layer_1" data-name="Layer 1" xmlns="http://www.w3.org/2000/svg" viewBox="0 0 196.35 396.6"><defs><style>.cls-1{fill:none;stroke:#C5CBE3;stroke-miterlimit:10;}</style></defs><path class="cls-1" d="M207,402.29" transform="translate(-8.52 -5.7)"/><path class="cls-1" d="M179,401.78l-144.47,0C19,399.2,10,388.69,10,372.92q0-114.33,0-228.64c0-1.5,0-3-.06-4.5a8.24,8.24,0,0,0,1-2.59q.12-10.17,0-20.34a8.31,8.31,0,0,0-1-2.61c0-1.82,0-3.64,0-5.46a8.51,8.51,0,0,0,1-2.63c.08-6.5.06-13,0-19.49a11.74,11.74,0,0,0-.45-2.32l-1,.11v23.82a22.65,22.65,0,0,1-.41-2.42c-.07-1.08,0-2.17,0-3.25Q9.52,86.33,10,70c0-1.25-.05-2.5-.08-3.75,1.5-1.85,1.54-12.1.06-14,.14-7.41-.17-14.86.5-22.22C11.7,16.69,23.31,6.39,36.74,6.26c10.57-.11,21.15,0,31.73,0q53.23,0,106.47,0c9.67,0,17.46,3.71,23.18,11.55A25.63,25.63,0,0,1,203,34.22a23.1,23.1,0,0,0-.47,3.17q0,35,0,70a23.67,23.67,0,0,0,.49,3.42c0,.91.1,1.83.1,2.74q0,129.59,0,259.16c0,10-3.35,18.22-11.48,24.25A28.06,28.06,0,0,1,179,401.78Zm-166-22.38,2,6,3.54,5.47c5.14,6.25,11.92,8.81,19.83,8.81h52q42.49,0,85,0c12.35,0,22.11-7.47,24.82-19.17a44.44,44.44,0,0,0,.76-9.93q.06-121.77,0-243.52,0-46.5,0-93c0-10.14-5.6-19.3-13.88-22.76C183,8.8,178.65,8.6,174.2,8.6H39a41.54,41.54,0,0,0-5,.17,23.36,23.36,0,0,0-13.78,6.43A24.57,24.57,0,0,0,12.4,33.75q0,51.24,0,102.49,0,117.36,0,234.72C12.42,373.77,12.75,376.59,12.93,379.4Z" transform="translate(-8.52 -5.7)"/><path class="cls-1" d="M203,110.78a23.67,23.67,0,0,1-.49-3.42q0-35,0-70a23.1,23.1,0,0,1,.47-3.17c0,15.7,0,31.4.08,47.1a14.62,14.62,0,0,0,.89,3.45q0,12,0,24Z" transform="translate(-8.52 -5.7)"/><path class="cls-1" d="M10,114.24a8.31,8.31,0,0,1,1,2.61q.12,10.17,0,20.34a8.24,8.24,0,0,1-1,2.59,10.32,10.32,0,0,1-.79-2.73q-.11-9.9,0-19.82A12.29,12.29,0,0,1,10,114.24Z" transform="translate(-8.52 -5.7)"/><path class="cls-1" d="M9.48,108.27V84.45l1-.11a11.74,11.74,0,0,1,.45,2.32c0,6.5.06,13,0,19.49a8.51,8.51,0,0,1-1,2.63Z" transform="translate(-8.52 -5.7)"/><path class="cls-1" d="M10,52.25c1.48,1.94,1.44,12.19-.06,14a6.43,6.43,0,0,1-.75-2q-.12-5.06,0-10.11A6.13,6.13,0,0,1,10,52.25Z" transform="translate(-8.52 -5.7)"/><path class="cls-1" d="M204,108.76q0-12,0-24a5,5,0,0,1,.42,1.41q0,10.57,0,21.17A5.34,5.34,0,0,1,204,108.76Z" transform="translate(-8.52 -5.7)"/><path class="cls-1" d="M107.05,27.75c-3.65,0-7.31-.08-11,.06-.81,0-1.59.79-2.38,1.22.78.4,1.55,1.14,2.34,1.16,5.56.1,11.12.06,16.69,0a43.24,43.24,0,0,0,5.22-.09c.76-.09,1.45-.84,2.17-1.29-.71-.37-1.41-1.05-2.12-1.07C114.36,27.68,110.7,27.74,107.05,27.75Zm-4,363.33c3,2.06,8.15,1.3,11.54-1.27,4.44-3.36,6.36-8.37,4.66-12.82a15.5,15.5,0,0,1-4.44,10.94C111.72,391.05,107.48,390.75,103.07,391.08Z" transform="translate(-8.52 -5.7)"/><path class="cls-1" d="M12.93,379.4l.16-3.59.76-.07,1.05,9.62Z" transform="translate(-8.52 -5.7)"/><path class="cls-1" d="M19.9,51.76c.7-.51,1.38-1.42,2.1-1.45a33.62,33.62,0,0,1,5,.44l-.5,0c-6-.06-6-.06-5.95,5.87,0,3.59,0,3.59,3.72,3.59q81.56,0,163.13,0a29.67,29.67,0,0,1,3.61.45l-55.83.1-18.29,0-27.93,0q-32.67,0-65.34,0a8.06,8.06,0,0,0-2.52.93c-.34,1.87.42,2.72,2.33,2.63a6.56,6.56,0,0,1,1.63.36L21,64.82A10.41,10.41,0,0,0,20.48,67c0,9.94,0,19.88.07,29.81,0,.41-.05.82-.06,1.24-.07,3.6-.07,3.54,3.44,3.66,2.7.1,5.39.37,8.09.55l-10.6.92,0,.69a15.29,15.29,0,0,0,2,.33c5.79.21,11.58.26,17.36.63,3.59.24,7.14,1,10.71,1.47l0,.5c-8.87-.5-17.73-1.08-26.61-1.48-3.8-.18-3.84.12-3.89,3.88,0,2.21,1,3,3,3l4.49.1c-1.29.48-2.58,1-3.88,1.44s-2.35.71-3.53,1.06L21,117.25l0,1.54c0,1.07,0,2.15,0,3.23,0,3.79,0,3.74,3.89,3.79s7.75.23,11.63.35l-4.05.17c-3.08,0-6.16.09-9.22-.1-2.24-.14-2.88.71-2.8,2.85.15,4.38.08,8.76.1,13.13a34.71,34.71,0,0,0,0,4.89c.1.77.94,1.44,1.44,2.15,0,.15,0,.31,0,.47A8.29,8.29,0,0,0,21,152c-.18,1.6-.1,3.23-.13,4.85l-.36,4.94c-.09,3.89-.09,3.89,3.72,3.87.41,0,.81.06,1.22.09-1.43.45-3.43.5-4.12,1.47s-.28,3-.35,4.55a16.58,16.58,0,0,1,.42,2.28c0,.39-.28.8-.44,1.2l-.92,0Q20,140.38,20,105.5,19.94,78.64,19.9,51.76Z" transform="translate(-8.52 -5.7)"/><path class="cls-1" d="M20.07,175.24l.92,0v5.05l.76.88c3.32-4.87,8-4.61,12.73-4.4a2.85,2.85,0,0,1-.91.35c-2.94,0-5.2.64-5.07,4.25,0,.29-.29.58-.44.87-.21-1.22-.75-1.2-1.73-.65-1.14.64-2.51.9-3.6,1.61a3.59,3.59,0,0,0-1.64,2.22c-.19,2.72-.05,5.47,0,8.21v17.67c0,.5,0,1,0,1.49l0,4.87-.6.62q0,18.87,0,37.73,0,38.36.06,76.71v1.1l-.07,21.44-.51,0Q20,286.63,20,218C20,203.71,20,189.48,20.07,175.24Z" transform="translate(-8.52 -5.7)"/><path class="cls-1" d="M107.05,27.75c3.65,0,7.31-.07,11,0,.71,0,1.41.7,2.12,1.07-.72.45-1.41,1.2-2.17,1.29a43.24,43.24,0,0,1-5.22.09c-5.57,0-11.13.05-16.69,0-.79,0-1.56-.76-2.34-1.16.79-.43,1.57-1.19,2.38-1.22C99.74,27.67,103.4,27.75,107.05,27.75Z" transform="translate(-8.52 -5.7)"/><path class="cls-1" d="M103.07,391.08c4.41-.33,8.65,0,11.76-3.15A15.5,15.5,0,0,0,119.27,377c1.7,4.45-.22,9.46-4.66,12.82C111.22,392.38,106.06,393.14,103.07,391.08Z" transform="translate(-8.52 -5.7)"/><path class="cls-1" d="M20.56,332.74q0-38.36-.06-76.71,0-18.85,0-37.73c.83,0,1.67-.08,2.5-.08q61.49,0,123-.05c6.31,0,12.63-.23,18.95-.36a20.93,20.93,0,0,0,2.92.41c8,.05,16,.05,24.08.07q0,34.25.06,68.48,0,23-.06,46c-.41,0-.83.07-1.24.07q-68.75,0-137.48,0a7.4,7.4,0,0,1-1.45-.16c-.89-1.45-1.26-2.68-2.08-3.16-.51-.31-1.69.51-2.56.81-.72-2.16-2.51-.18-3.67-.65-1.83-.76-2.31.13-2.82,1.61-.23.65-1.07,1.09-1.63,1.63l-.58-.52.29-2.06a9.63,9.63,0,0,0-2.26-.64c-2.16,0-4.35-1.94-6.43-.21-.88.73-1.25,2.09-2.14,3.67a17.83,17.83,0,0,0-.82-2.1,19.47,19.47,0,0,0-1.23-1.64c-.48.46-1.24.83-1.39,1.38C23.83,333,22.39,333.19,20.56,332.74Zm13.87-62.57a4.39,4.39,0,0,0-.93-.24c-1.06,0-2.61-.46-3.06.05-.58.67-.27,2.1-.34,3.21l.69,0,.86-2.72.64,0,.85,2.86,1.29-.51,2.52.05-1.08-2.48h1l-.08-.8ZM44,272.81c1.09,1.11,2.06,1.07,2.88,0l-2.22-1.33,2-1.35,0-.6-2.68.67c-1.21.14-2.55-2.07-3.76.26l.91.19L40,272.83a18.09,18.09,0,0,0,2.66.58C43.07,273.45,43.53,273,44,272.81Zm-7-26-2.34-1v4.33l1.79-.3,5.07-.05,2.66.07c0-.87.29-2.08-.15-2.5s-1.65-.11-2.52-.11ZM52.58,312c1.36,1.1,2.7,1.85,3.93-.16,2.59-.3.06,1.87,1.8,2.6l2.09-4.67a12,12,0,0,0-2.57-.1c-.47.1-.86.59-1.29.91l-2.91-2.43-1.13,2-3-2.06v5.21ZM71,259.33c.18,1,.37,1.92.56,2.89,2.1.1,5,1.76,4.9-2.49l1.3,3.14,1.41-1.48,1.5,1.62,1.11-3.93-.48-.22-1,1.21-1-1.33-.25.64a12.38,12.38,0,0,0-2-.39c-.18,0-.38.52-.58.8-1.53-2.2-3.77-.07-5.53-.9l-1.83,1.6L68,258.84l-.55.33,1.52,3.52.66-.06C70.06,261.53,70.53,260.43,71,259.33Zm40.49-.09,1.75,3.72,1.61-1.8,0,.76,3.33.42c0-1,.49-2.34,0-3.1-.72-1.24-3.53-.55-4.62.68l-2.11-.63c-.23-.1-.47-.18-.69-.29-1.43-.71-2.59-.29-2.85,1.2a2.76,2.76,0,0,0,1.15,2.33c1.64.79,1.8-.78,2.14-1.83A8.7,8.7,0,0,0,111.49,259.24Zm23.48,3,1.58-2.57c.3.78.6,1.57.93,2.35,0,.11.23.16.35.24,1.13-2.82.32-3.78-2.84-3.41h-7.31l2.42,3.63ZM74.56,310.42c.35,3.26,2.6,2.65,4.74,2.25l.78-2.41.72,2.46,2.13-.24v-2.42L81,308.71l.14.51-6.14.06c0-.09,0-.17,0-.25a2.18,2.18,0,0,0-.09-.23l-1.48,1.29-1.2-1.82-1.25,2-1.12-1.58-.49.23,1.39,4.51,1.46-2.47,1.62,2.34Zm-44.1,6.94,3.59-.49c2.88-1.75,3.86-4.65,2.51-7.41a5.22,5.22,0,0,0-6.27-2.8,5.45,5.45,0,0,0-3.69,6.53A5.24,5.24,0,0,0,30.46,317.36Zm3.1-26c4.66-1.62,5.92-5.73,2.93-9.61a11.7,11.7,0,0,1-3-.94c-1.51-1-2.8-1.8-4.28,0-1,1.24-2.58,2.18-3.19,3.57a4.75,4.75,0,0,0,1.7,5.77C29.38,291.53,31.26,292.69,33.56,291.38Zm139.88.4c.46,1.19.93,2.38,1.42,3.65,1.7-.15,3.73-.26,5.74-.54a5.51,5.51,0,0,0,4.9-5.38,5.63,5.63,0,0,0-5.11-5.19,7.12,7.12,0,0,0-6.44,2.46l-1.51,1.28c0-2.13.05-3.94,0-5.76-.1-3.06-1.06-4-4.12-4-5.92,0-11.83,0-17.74,0H60.64C56.7,278.27,56,279,56,283q0,6.26,0,12.5c0,4.8.51,5.33,5.27,5.33H166.67l2,0c2.36,0,3.52-1.27,3.69-3.5.12-1.58,0-3.17.15-4.74C172.52,292.25,173.11,292,173.44,291.78ZM29.14,225.59c-2.56-.52-4.77,2-3.61,4.24s3.42,4.32,5.25,6.39a1.34,1.34,0,0,0,1.3,0c1.8-1.9,4-3.65,5.16-5.89a3.55,3.55,0,0,0-3.41-5.18C32.26,225.25,30.7,225.44,29.14,225.59Zm16.68,11.68a53.94,53.94,0,0,0,6.28-.62c3.51-.75,5.36-3.8,4.43-6.84s-4.82-4.72-8.26-3.62a5.43,5.43,0,0,0-3.68,7.09C45.05,234.53,45.39,235.83,45.82,237.27Zm56.07,74.28L105,313c.41-1.4.81-2.8,1.16-4a60,60,0,0,0-6.86.45c-.71.12-1.48,1.18-1.74,2-.13.38.84,1.56,1.39,1.62C100.42,313.22,102,313.13,101.89,311.55Zm-47.21-49.5a13,13,0,0,0,2.13.41c.75,0,2,.05,2.16-.32a3.92,3.92,0,0,0,.1-2.74c-.14-.39-1.37-.43-2.12-.52a12.2,12.2,0,0,0-2.18-.08,17.78,17.78,0,0,0-4.53.43c-.37.12-.18,2-.24,3.06l.61.07.86-2.61.5.08c.24.84.48,1.69.85,3,.47-1.27.75-2,1.26-3.39Zm-13,50.7a36.48,36.48,0,0,0,5.64.21c.64-.07,1.16-1.28,1.73-2-.71-.55-1.77-1.73-2.07-1.56-2.08,1.16-3.52-.29-5.3-1.27Zm44.93-2.19.53.12c.09.38,0,.88.27,1.13A13.88,13.88,0,0,0,90,314.15a1.82,1.82,0,0,0,1.59-.72,6.74,6.74,0,0,0,.13-3.36c-.09-.33-1.66-.25-2.56-.37a7.26,7.26,0,0,0-1.83-.22c-.75.1-1.75.22-2.13.73s-.08,1.47-.08,2.23l.56,0ZM32.47,260.27c-1.82-.56-2.21-4.77-4.93-2.09a3.85,3.85,0,0,0,0,3.75C29.84,264.41,30.69,260.75,32.47,260.27Zm9.22,24a25.25,25.25,0,0,0,3.9,3.13c.23.12,1.82-1.36,1.88-2.17s-1-2.31-1.63-2.38C44.78,282.69,43.61,283.51,41.69,284.23ZM29.26,268.82c-1.39,0-3.16-.5-3.73.11-.89,1-1,2.67-1.38,4.06l.79.52,3.43-2.44.52,1.55.37-.09Zm36.51,40.86-1.1,3.1.82.34,2.31-4.57H60.16l2,1.33L60.91,313C63.39,312.6,62.54,308.57,65.77,309.68Zm42.12-51.74-.84-.1c-.84.39-2,.56-2.46,1.22-1.48,2.21-1.13,4,1.91,3.34C107.27,262.22,107.45,259.49,107.89,257.94Zm11.73,2.39,0,1c.92.45,1.87,1.31,2.74,1.24s1.4-1.18,2.1-1.83c-.67-.69-1.36-1.95-2-1.93C121.51,258.84,120.57,259.78,119.62,260.33Zm-83.19-.57,1,2.86.81-.12c-.12-1.11.14-2.85-.44-3.21-1.06-.65-2.62-.49-4.65-.76l1.58,4.1Zm110.86.79c-1.4-.87-2.25-1.8-3-1.74s-1.72,1.41-1.59,2a3,3,0,0,0,2,1.81C145.31,262.67,146.07,261.57,147.29,260.55Zm-96.63,7.83c-.9,1.6-1.84,2.51-1.71,3.24s1.3,1.31,2,2c.57-.7,1.57-1.4,1.57-2.1S51.64,269.9,50.66,268.38Zm8.08.13C57.86,270,57,270.78,57,271.57s1.09,1.33,1.69,2c.66-.72,1.7-1.36,1.84-2.17C60.65,270.76,59.67,269.92,58.74,268.51Zm29.55-7.69c-1.19-1-2-2.1-2.54-2a2.84,2.84,0,0,0-1.81,1.95c-.09.54,1,1.73,1.67,1.8S87,261.69,88.29,260.82Zm-25.95-1.74c.43,1.4-1.58,3.29,1.14,3.61a2.46,2.46,0,0,0,1.94-1.46C65.89,259,64.07,259.3,62.34,259.08Zm-19,3.56c1.11-.63,1.7-1.23,2.27-1.21s1.28.6,2.42,1.2c-.79-2.09-1.38-3.65-2-5.22l-.83,0Zm118.23-3.75c-2.13-.3-3.24-.09-3.33,1.77-.06,1.36.57,2.16,1.85,2C163.31,262.34,160.34,260.13,161.6,258.89Zm-66.72-1-.84-.24a10.17,10.17,0,0,0-1.37,2.92c-.07.6.87,1.31,1.35,2a6,6,0,0,0,1-1.87A12.61,12.61,0,0,0,94.88,257.87Zm7.58,3.05c-1.34-.77-2-1.52-2.65-1.44s-1.22.94-1.82,1.46c.69.61,1.3,1.46,2.1,1.72C100.5,262.79,101.26,261.84,102.46,260.92ZM55.87,273.23l1-.22a16.38,16.38,0,0,0-1.37-3.43c-.19-.29-2.05-.06-2.15.26a13.27,13.27,0,0,0-.3,3.36h.66l.84-2.69.58.08Zm97.41-15.72v5.42l1.74-4,1.13,3.63C157.89,259.12,154.88,258.92,153.28,257.51Zm-129.19-7.4H27c0-.87,0-1.43,0-2-.06-.78-.17-1.55-.26-2.32l-2.36.33.13.77h2Zm2.22,12.45-.64-4.75C23.73,259.86,24.28,262.07,26.31,262.56ZM51.91,287l.68-.13c-.21-.93-.14-2.14-.71-2.72s-1.72-.34-2.75-.5l.45,3.74L51,284.38Zm-11-29.88-1.75.91,1.24,4.42.51-.06ZM32,250.26l-2-4.38a7.29,7.29,0,0,0-.11,4.13C30,250.3,31.47,250.21,32,250.26Zm56.25,12,.6,0,.49-4.78-1.09-.06Zm-49.33,6.62-1.22.12c.2,1.49.41,3,.61,4.48l.84-.12Z" transform="translate(-8.52 -5.7)"/><path class="cls-1" d="M20.49,355.28q0-10.72.07-21.44c1.58,0,3.16,0,4.74,0H191.93v21.43c-1.05.06-1.93.16-2.81.16H23C22.15,355.39,21.32,355.32,20.49,355.28Zm21.39-5.17L40,339.48c-1.85,3-2.46.16-3.63.09-4.86,3.61-5.93,6.1-4.55,10.5h2.6l1.92-3.19,2,3.23Zm99-11.46c-3.78,0-5.51,1.15-5.51,3.74,0,3.93,3,8.63,5.46,8.64s5.56-4.76,5.57-8.6C146.39,339.84,144.67,338.67,140.86,338.65Zm-34.91,11c6.64,0,6.66,0,6.45-5.2-.07-1.59-.43-2.72-2.34-2.83-.67,0-1.28-.86-2-.93a19.21,19.21,0,0,0-4.22,0c-.68.07-1.29.86-2,.91-1.78.12-2.14,1.13-2.2,2.66-.23,5.26-.17,5.35,5,5.36Zm-34.82-8.79-1-.09-1.57,7.72.84.22L71,346.4l1.08,2.65c1.34-2.87,2.52-5.3,1.56-8.44l-2,2.69Zm104.19,8.73a22.92,22.92,0,0,0,3,0c.65-.09,1.69-.41,1.78-.81a2.63,2.63,0,0,0-.75-1.92c-1.57-1.68-5.76-1.73-7.35-.07a6.58,6.58,0,0,0-.91,2.16,12.28,12.28,0,0,0,2,.65A15.2,15.2,0,0,0,175.32,349.6Zm.36-3.61c1.1-1.67,2.26-2.66,2.15-3.48a3.14,3.14,0,0,0-2.26-2.14c-.76,0-2.06,1.37-2.14,2.22S174.53,344.36,175.68,346Z" transform="translate(-8.52 -5.7)"/><path class="cls-1" d="M191,60.71a29.67,29.67,0,0,0-3.61-.45q-81.57,0-163.13,0c-3.71,0-3.71,0-3.72-3.59,0-5.93,0-5.93,5.95-5.87l.5,0h0l2.58,1.92a7.2,7.2,0,0,0,6.81-1.21,6.65,6.65,0,0,1,3.71-.86q70.4-.06,140.8,0c3,0,6,.06,9,0,1.64,0,2.21.58,2.14,2.19-.11,2.49-.06,5-.08,7.49l-.48.63-.49-.1Z" transform="translate(-8.52 -5.7)"/><path class="cls-1" d="M191.93,333.8H25.3c-1.58,0-3.16,0-4.74,0v-1.1c1.83.45,3.27.23,3.87-1.94.15-.55.91-.92,1.39-1.38a19.47,19.47,0,0,1,1.23,1.64,17.83,17.83,0,0,1,.82,2.1c.89-1.58,1.26-2.94,2.14-3.67,2.08-1.73,4.27.2,6.43.21a9.63,9.63,0,0,1,2.26.64l-.29,2.06.58.52c.56-.54,1.4-1,1.63-1.63.51-1.48,1-2.37,2.82-1.61,1.16.47,3-1.51,3.67.65.87-.3,2-1.12,2.56-.81.82.48,1.19,1.71,2.08,3.16a7.4,7.4,0,0,0,1.45.16q68.75,0,137.48,0c.41,0,.83,0,1.24-.07Z" transform="translate(-8.52 -5.7)"/><path class="cls-1" d="M191.44,60.87l.48-.63c.05.83.13,1.66.14,2.49q0,76.41,0,152.82c0,.91-.08,1.82-.13,2.74-8,0-16,0-24.08-.07a20.93,20.93,0,0,1-2.92-.41l2.61-.12,4.94,0h18.47a18.41,18.41,0,0,0,.41-2.63c0-4.5-.21-9,.08-13.49.23-3.71-.7-6.67-3.68-9a7.61,7.61,0,0,1-1.16-1.45l.41-.59,3.84,2.14c.1-.13.37-.32.38-.51.07-3.41.11-6.82.16-10.23V163.52c-.28-1.75-.55-3.51-.82-5.26l-1,.11v6l0,0a11.75,11.75,0,0,0-1.1,2.83c-.45,3.77-.71,7.57-1.13,11.35a5.61,5.61,0,0,1-.89,1.71c0-.91-.12-1.83-.07-2.74q.53-8.84,1.11-17.66c.45-5.14.86-10.27,1.39-15.4a8.76,8.76,0,0,1,1.08-2.59c.41-.86,1.22-1.69,1.25-2.54.14-5,.11-10,.12-15Q191.4,92.6,191.44,60.87Z" transform="translate(-8.52 -5.7)"/><path class="cls-1" d="M29.56,52.67,27,50.75c2.17.23,4.49-1.28,6.64,1.08Z" transform="translate(-8.52 -5.7)"/><path class="cls-1" d="M20.55,96.77c0-9.93-.07-19.87-.07-29.81A10.41,10.41,0,0,1,21,64.82l21,3.93c3.16.66,6.3,1.43,9.48,2,5.3.92,10.63,1.7,15.94,2.54l.15,0q-.06,13.77-.11,27.54c-.89-.5-1.75-1.36-2.67-1.43-14.1-1.06-28.2-2-42.3-3A7.39,7.39,0,0,0,20.55,96.77Z" transform="translate(-8.52 -5.7)"/><path class="cls-1" d="M67.44,100.77q0-13.77.11-27.54l.38,0c0,6.9,0,13.81.12,20.72,0,2.84-.69,5.85,1.59,8.29a1.8,1.8,0,0,1,.28,1.19c0,2.74.06,5.5-.22,8.22-.64,6.33-1.92,12.64-2.1,19-.35,11.73-.09,23.47-.11,35.2,0,3.1-.33,3.28-3.46,3.47a17.46,17.46,0,0,0-4.24,1c-1.28.4-2.49,1-3.74,1.55a15.88,15.88,0,0,1,.34-3.18c.51-1.64,1.48-3.15,1.89-4.81.95-3.86-.73-5.6-4.73-5.13,0-5-.06-10-.06-14.95,0-10.87,0-21.74,0-32.61,0-1.62.22-3.46-2-4,0-.14,0-.28,0-.42l0-.5H66.63l.81-2.61Z" transform="translate(-8.52 -5.7)"/><path class="cls-1" d="M20.56,142.21c0-4.37.05-8.75-.1-13.13-.08-2.14.56-3,2.8-2.85,3.06.19,6.14.08,9.22.1a31.2,31.2,0,0,0,3.19.39c4.24.07,8.49.13,12.73.06,2,0,2.68.75,2.62,2.67-.09,3.33-.1,6.66,0,10,.06,2-.66,2.85-2.74,2.83C39,142.2,29.8,142.22,20.56,142.21Z" transform="translate(-8.52 -5.7)"/><path class="cls-1" d="M21.08,61.72a8.06,8.06,0,0,1,2.52-.93q32.67-.07,65.34,0l27.93,0c.4,1.58,1.55,2,3,1.9l9.06-.47c7.68.06,15.36.2,23,.14,4.8,0,9.61-.48,14.42-.56,2.81,0,5.63.42,8.44.33,3.89-.12,7.77-.64,11.67-.83a26.6,26.6,0,0,1,4.4.5c0,.81,0,1.62,0,2.43a27.56,27.56,0,0,0-5.22-1.09c-2.48,0-5,.53-7.44.57-6,.1-12.07,0-18.11,0-3.72,0-7.44,0-11.16.1-5.39.22-10.78.52-16.16.93-2.94.23-6-1.16-8.84.65-1.89-1.77-4.1-.7-6.19-.69q-15.83,0-31.65,0H68l3.27-.92a2.3,2.3,0,0,0-1.55-.57C53.48,63.12,37.24,63.84,21.08,61.72Z" transform="translate(-8.52 -5.7)"/><path class="cls-1" d="M36.53,126.16c-3.88-.12-7.75-.29-11.63-.35S21,125.81,21,122c0-1.08,0-2.16,0-3.23l14-.9c-.1,2.24,1.06,3.41,3,3,.8-.19,1.29-1.68,1.93-2.58-.06-.47.37-.55.7-.39a8,8,0,0,0,7.37,0c2.14-1.19,2.75-.06,3.52,1.39l.09,15c0-1.75-.17-3.5,0-5.24.12-1.92-.53-2.66-2.53-2.63C44.85,126.41,40.69,126.24,36.53,126.16Z" transform="translate(-8.52 -5.7)"/><path class="cls-1" d="M36.53,126.16c4.16.08,8.32.25,12.47.2,2,0,2.65.71,2.53,2.63-.12,1.74,0,3.49,0,5.24-.06,3-.11,6-.17,9a55.19,55.19,0,0,1-.51,5.91c-.16.86-1.25,2.33-1.59,2.24-2.82-.72-5.93-1.21-8.24-2.81-3-2.1-7.46-2.35-10.23.34a3.32,3.32,0,0,1-2.21.66c-2.22,0-4.43-.22-6.64-.35-.5-.71-1.34-1.38-1.44-2.15a34.71,34.71,0,0,1,0-4.89c9.24,0,18.47,0,27.71.06,2.08,0,2.8-.83,2.74-2.83-.09-3.33-.08-6.66,0-10,.06-1.92-.66-2.7-2.62-2.67-4.24.07-8.49,0-12.73-.06a31.2,31.2,0,0,1-3.19-.39Z" transform="translate(-8.52 -5.7)"/><path class="cls-1" d="M51.41,143.26c.06-3,.11-6,.17-9l-.09-15q0-3.23-.08-6.47l1,0,.06,15q0,19.11-.12,38.23a21.73,21.73,0,0,1-.45,3.18l-8.44,2.09a7.11,7.11,0,0,0-2.36-.75c-6.71.36-13.41.82-20.12,1.25.07-1.55-.4-3.48.35-4.55s2.69-1,4.12-1.47l25.5-1.5.47-5.88v-2.71Q51.42,149.46,51.41,143.26Z" transform="translate(-8.52 -5.7)"/><path class="cls-1" d="M67.44,100.77v2.88L32,102.22c-2.7-.18-5.39-.45-8.09-.55-3.51-.12-3.51-.06-3.44-3.66,0-.42,0-.83.06-1.24a7.39,7.39,0,0,1,1.92-.4c14.1.95,28.2,1.91,42.3,3C65.69,99.41,66.55,100.27,67.44,100.77Z" transform="translate(-8.52 -5.7)"/><path class="cls-1" d="M52.44,112.75l-1,0-23-.48-4.49-.1c-2-.06-3-.84-3-3,.05-3.76.09-4.06,3.89-3.88,8.88.4,17.74,1,26.61,1.48,0,.14,0,.28,0,.42l1,3.55Z" transform="translate(-8.52 -5.7)"/><path class="cls-1" d="M28.45,112.31l23,.48c0,2.16,0,4.32.07,6.47-.77-1.45-1.38-2.58-3.52-1.39a8,8,0,0,1-7.37,0c-.33-.16-.76-.08-.7.39-.64.9-1.13,2.39-1.93,2.58-1.92.45-3.08-.72-3-3l-14,.9c0-.52,0-1,0-1.54l8.91-.65a6.05,6.05,0,0,0-3.41-2.17,28.79,28.79,0,0,0-5.45.38c1.18-.35,2.36-.67,3.53-1.06S27.16,112.79,28.45,112.31Z" transform="translate(-8.52 -5.7)"/><path class="cls-1" d="M51.41,143.26q0,6.21,0,12.41c-1.3-1.56-2.74-1.45-3.87,0-.51.64-.69,2.49-.44,2.61,1.33.66,2.86,2.61,4.31.1L51,164.26c.11-4,.11-4-3.87-3.94-2.71.06-5.42.29-8.13.44.7-.82,1.36-1.68,2.1-2.47,1.15-1.2,1.14-2.19-.1-2.53-2.08-.36-4.15-.81-6.24-1a6.63,6.63,0,0,0-2.28.61l0,.47-3.18-2.39.47,2.56-2.29-.77,2.41-4.81L22,149.71c0-.15,0-.31,0-.46,2.21.13,4.42.32,6.64.35a3.32,3.32,0,0,0,2.21-.66c2.77-2.69,7.2-2.44,10.23-.34,2.31,1.6,5.42,2.09,8.24,2.81.34.09,1.43-1.38,1.59-2.24A55.19,55.19,0,0,0,51.41,143.26Zm-12.26,9.08.24.57c.49-.4,1.23-.7,1.4-1.2.48-1.37-1.84-4-3.29-3.91-1,.06-2.28-.33-3.07.12a5.62,5.62,0,0,0-2.56,2.79c-.44,1.36.9,1.65,2.09,1.64C35.69,152.33,37.42,152.34,39.15,152.34Z" transform="translate(-8.52 -5.7)"/><path class="cls-1" d="M21,171.78c6.71-.43,13.41-.89,20.12-1.25a7.11,7.11,0,0,1,2.36.75l0,1c-.37,4.45-.51,4.58-4.84,4.54-1.41,0-2.81,0-4.22,0-4.7-.21-9.41-.47-12.73,4.4l-.76-.88v-5.05c.16-.4.47-.81.44-1.2A16.58,16.58,0,0,0,21,171.78Z" transform="translate(-8.52 -5.7)"/><path class="cls-1" d="M39,160.76c2.71-.15,5.42-.38,8.13-.44,4-.09,4,0,3.87,3.94l-25.5,1.5c-.41,0-.81-.09-1.22-.09-3.81,0-3.81,0-3.72-3.87l11-.63,2.47,0Z" transform="translate(-8.52 -5.7)"/><path class="cls-1" d="M32,102.22l35.42,1.43-.81,2.61H51.45c-3.57-.5-7.12-1.23-10.71-1.47-5.78-.37-11.57-.42-17.36-.63a15.29,15.29,0,0,1-2-.33l0-.69Z" transform="translate(-8.52 -5.7)"/><path class="cls-1" d="M42,68.75,21,64.82,25,64.71c5-.34,10-.68,15-1,1-.06,2,0,3,.05a23.4,23.4,0,0,0,3.29,1.46c5.3,1.51,10.63,2.93,15.94,4.38l-.12.84c-1.17-.11-2.34-.22-3.51-.31Z" transform="translate(-8.52 -5.7)"/><path class="cls-1" d="M39,160.76l-5,.45L37.84,160l0-.84-6.64-.63-.12.58,1.27.77-.8,1.3-11,.63.36-5,6.53-1.64,2.29.77-.47-2.56,3.18,2.39c-.09.41-.37,1.08-.22,1.2,1.55,1.26,6.1.78,7.78-.74l1-.51c1.24.34,1.25,1.33.1,2.53C40.34,159.08,39.68,159.94,39,160.76Z" transform="translate(-8.52 -5.7)"/><path class="cls-1" d="M190.89,61.8a26.6,26.6,0,0,0-4.4-.5c-3.9.19-7.78.71-11.67.83-2.81.09-5.63-.38-8.44-.33-4.81.08-9.62.52-14.42.56-7.68.06-15.36-.08-23-.14l6.24-1.41,55.83-.1,0,.06Z" transform="translate(-8.52 -5.7)"/><path class="cls-1" d="M43,63.77c-1,0-2-.11-3-.05-5,.31-10,.65-15,1a6.56,6.56,0,0,0-1.63-.36c-1.91.09-2.67-.76-2.33-2.63,16.16,2.12,32.4,1.4,48.62,1.55a2.3,2.3,0,0,1,1.55.57L68,64.76q0,4.24,0,8.5l-.38,0-.15,0c0-2.33,0-4.66.06-7,.05-1.47-.54-2.1-2-2.12C58,64.06,50.47,63.91,43,63.77Z" transform="translate(-8.52 -5.7)"/><path class="cls-1" d="M27.43,155.21l-6.53,1.64c0-1.61,0-3.24.13-4.84a8.29,8.29,0,0,1,1-2.29l7.83.68Z" transform="translate(-8.52 -5.7)"/><path class="cls-1" d="M135.16,60.81l-6.24,1.41-9.06.47c-1.44.07-2.59-.32-3-1.9Z" transform="translate(-8.52 -5.7)"/><path class="cls-1" d="M21,114.81a28.79,28.79,0,0,1,5.45-.38,6.05,6.05,0,0,1,3.41,2.17l-8.91.65C21,116.43,21,115.62,21,114.81Z" transform="translate(-8.52 -5.7)"/><path class="cls-1" d="M21.06,212.81c0-.49,0-1,0-1.49,4,.4,7.92.72,11.54-1.61.5-.32,1.32-.09,1.93-.3,1.4-.47,3.31-.66,4-1.67a18.1,18.1,0,0,1,7.11-5.92A14,14,0,0,0,48.34,200c1.81-1.47,1.83-3.16-.06-4.52a12.91,12.91,0,0,0-3-1.23c-2.48-.93-5.19-1.48-7.37-2.88a8.16,8.16,0,0,0-5-1.62l2.33-4.88c1-.13,2.77-.28,4.48-.59,1.25-.22,2.46-.63,3.69-1l1,2.5c2.72.16,5.72,1.13,8.1.3,3.82-1.33,7.56-1.31,11.4-1.3,2,.27,4.31.06,6.06.91,4.61,2.24,9.12,4.79,12.39,9l-7.52.33v.82l2.2.71-3.23.75,0,.62,2.85.88-3.82,1,.12,1a17,17,0,0,0,4.28-.08c1.22-.33,2.24-1.36,3.77-2.34l-.72,1.91c2.54,2.08,3.35-1,5.13-1.73-.61,2.58-.19,2.87,3.35,2.72v-2.55l2.53.58-1.25,1.12c.39.24.81.71,1.16.67a10.22,10.22,0,0,0,2.18-.69l-1-1.12.45-.49H95.5L95,200.31c2.67,2.53,3-2.12,4.86-1.51.15.85.12,1.95.41,2a4.69,4.69,0,0,0,2.6,0c.27-.07.24-1.17.37-2l2,.15-.28,1.93,2.88.1v-2l2,.24a6.63,6.63,0,0,0,.11,1.66,6.8,6.8,0,0,0,2.65.14c.23,0,.26-1.14.55-2.57a9.65,9.65,0,0,0,1.45,1.86,18,18,0,0,0,2.36,1.19c.14-.6.29-1.2.43-1.8,0-.14.08-.27.14-.5l1.58.09c.6,1,.83,1.85,1.37,2.11a2.47,2.47,0,0,0,2.07-.17c.29-.19,0-1.21,0-1.92h2.32l-.78,1.89c1,0,1.61-.18,1.86-.6,1-1.64,1.58-1.63,3.38-.54,1.54.93,4.08.22,6.18.15.15,0,.28-.71.42-1.09l8.46.43L139,200.81l1.44,1,5,1h-9.19l-.13.78,1.28.74a20.55,20.55,0,0,0,2.43.41c1.74.08,3.62-.35,5.18.2a4,4,0,0,0,3.94-.36c1.43-.91,2.3-.25,2.83,1.16.16.43.38.83.76,1.65,1-1.06,1.71-1.87,2.46-2.69l2,2c-1.16,1.69-3.27,3.2-1.05,5.55l-1,1-1.05-.92-2.42-2.07,2.39-.48-.06-1.14a36.57,36.57,0,0,0-3.78.08,11.21,11.21,0,0,0-.1,1.93l0,2.58c-1.78-.62-3.24-1.31-5.52-.73-1.8.45-4.27-.8-6.47.22-.07,0-.25-.25-.39-.26-1.15-.12-2.31-.19-3.46-.33a16.16,16.16,0,0,1-1.68-.35l-.56-2.09c-.44-.6-.76-1.51-1.35-1.73s-1.47.2-2.22.34l.75,1.38-1.5.58-.64-2-3.46-.89.06-1.22,3.69.52.05-1.05c-1.26-.5-2.54-1.65-3.73.54l-1.14.5c-.56-.63-1.1-1.74-1.67-1.76-.75,0-1.53.83-2.29,1.31l-1.06-.87c-1.31-.75-2.62-1.16-4.07,0,1.21,1.84,2.63,1.37,4.09.72l.07,1.15-28-.13.51-.87,1.23-1.25a5.11,5.11,0,0,0-1.44-.72,12,12,0,0,0-2.24,0H86.43l-4.36.56-1.67.82c.77-1.5-.35-1.45-1.26-1.46-2.2,0-4.42-.1-6.61.08-.67.06-1.27.87-1.9,1.34l-1.1,1.25c.53.47,1,1.32,1.6,1.34a21.38,21.38,0,0,0,3.85-.5l1,2-.7,1.51-.21-.71c-1.49.07-3,0-4.47.22a2.81,2.81,0,0,0-2.71,3.26c.17,1.94,1.81,1.64,3.08,1.67,5.8.13,11.6.21,17.4.32,12.73.22,25.45.38,38.17.68,7.14.17,14.27.59,21.41.89-1.08,0-2.16.09-3.24.09l-49.92,0-64.4-.05a9.3,9.3,0,0,0-2.12-1.92C25.94,214.65,23.48,213.77,21.06,212.81Zm120.82-5.6.07-1.45-7.53-.33-.07,1.3Zm-69.79-5.15v.66h6.84v-.66Zm76.19,8.09.2-1c-1.18-1.35-2.57-1-4-.42l-.12.86ZM97.72,201.4l-2,1.37c.58.32,1.14.87,1.72.88s1.21-.51,1.81-.8Zm-5,3.47.1,1.25,3.46-.27-.06-1Zm-2-2.76,0,1.26c1.06,0,2.12,0,3.17-.05a7.28,7.28,0,0,0,.13-1.21Zm30.17.44-.08,1.24c1,.06,2.08.15,3.12.14a7.16,7.16,0,0,0,.16-1.21Zm-20.24.14,0,.77c1.07,0,2.15,0,3.21-.05.14,0,.22-.67.32-1-.94-.07-1.87-.18-2.81-.19C101.16,202.18,100.91,202.51,100.67,202.69Zm15.25-.2,0,1.26c1,0,2.08,0,3.11,0a4.53,4.53,0,0,0,.14-1Zm13.4,2.53-.23,1.35,3.46.29.14-1.16Zm-23.49-2.53c2.12,1.69,2.76,1.55,3.45-.41Zm31.25,7.23.18-1.2-3.74-.45-.17,1.06ZM111.66,206v-.89H108.3V206Zm27.7,2.7-.08.75H143l0-.75Zm-12.9-6.11-.33,1.29c1,.1,2,.23,3.05.26.09,0,.2-.65.3-1Zm-19.83,3.36-.06-1.12-3.4.17,0,.95Z" transform="translate(-8.52 -5.7)"/><path class="cls-1" d="M33,189.73a8.16,8.16,0,0,1,5,1.62c2.18,1.4,4.89,2,7.37,2.88a12.91,12.91,0,0,1,3,1.23c1.89,1.36,1.87,3,.06,4.52a14,14,0,0,1-2.66,1.84,18.1,18.1,0,0,0-7.11,5.92c-.74,1-2.65,1.2-4,1.67-.61.21-1.43,0-1.93.3-3.62,2.33-7.57,2-11.54,1.61V193.65Z" transform="translate(-8.52 -5.7)"/><path class="cls-1" d="M33,189.73l-11.91,3.92c0-2.74-.15-5.49,0-8.21a3.59,3.59,0,0,1,1.64-2.22c1.09-.71,2.46-1,3.6-1.61,1-.55,1.52-.57,1.73.65.71.41,1.41,1.17,2.12,1.17,3.31,0,6.62-.28,9.93-.37a29,29,0,0,1,3.35.24c-1.23.33-2.44.74-3.69,1-1.71.31-3.44.46-4.48.59Z" transform="translate(-8.52 -5.7)"/><path class="cls-1" d="M43.46,183.3a29,29,0,0,0-3.35-.24c-3.31.09-6.62.35-9.93.37-.71,0-1.41-.76-2.12-1.17.15-.29.45-.58.44-.87-.13-3.61,2.13-4.3,5.07-4.25a2.85,2.85,0,0,0,.91-.35c1.41,0,2.81,0,4.22,0,4.33,0,4.47-.09,4.84-4.54a17.81,17.81,0,0,1,4.46.23c1,.31,1.81,1.45,2.71,2.21L49,176.29c.84-2.85-1.67-2.28-3-2.95.57,1.41.64,3.34,3,2.95v.45L47,177.2c-1.83-.13-2.57.74-2.46,2.53.07,1,0,2,0,3l0,3.08Z" transform="translate(-8.52 -5.7)"/><path class="cls-1" d="M30.42,217.66l64.4.05,49.92,0c1.08,0,2.16-.06,3.24-.09h14c-1.35-1.37-2.35-2.45-3.43-3.45s-1.51-2.12-.72-3.5l.64-.91,7.44,4a8.82,8.82,0,0,0-.67.7c-.5.62-1,1.26-1.45,1.89a18.45,18.45,0,0,0,2.12.86,5.73,5.73,0,0,0,1.44.08c.06.13.11.25.17.37l-2.61.12c-6.32.13-12.64.36-18.95.36q-61.5.06-123,.05c-.83,0-1.67.05-2.5.08l.6-.62Z" transform="translate(-8.52 -5.7)"/><path class="cls-1" d="M30.42,217.66l-9.33,0,0-4.87c2.42,1,4.88,1.84,7.24,2.93A9.3,9.3,0,0,1,30.42,217.66Z" transform="translate(-8.52 -5.7)"/><path class="cls-1" d="M173.44,291.78c-.33.25-.92.47-.93.74-.12,1.57,0,3.16-.15,4.74-.17,2.23-1.33,3.53-3.69,3.5l-2,0H61.25c-4.76,0-5.27-.53-5.27-5.33q0-6.26,0-12.5c0-3.95.73-4.68,4.67-4.68h89.93c5.91,0,11.82,0,17.74,0,3.06,0,4,1,4.12,4,.06,1.82,0,3.63,0,5.76l1.51-1.28Zm-59.22-11.5H61.48c-3.12,0-3.45.3-3.47,3.15,0,3.67,0,7.34,0,11,0,4.3,0,4.32,4.31,4.32H156c3.74,0,7.49,0,11.24,0,1.92,0,2.71-.82,2.68-2.71,0-4.08,0-8.17,0-12.25,0-3.43-.08-3.52-3.5-3.52Z" transform="translate(-8.52 -5.7)"/><path class="cls-1" d="M173.44,291.78l.51-5a7.12,7.12,0,0,1,6.44-2.46,5.63,5.63,0,0,1,5.11,5.19,5.51,5.51,0,0,1-4.9,5.38c-2,.28-4,.39-5.74.54C174.37,294.16,173.9,293,173.44,291.78Z" transform="translate(-8.52 -5.7)"/><path class="cls-1" d="M29.14,225.59c1.56-.15,3.12-.34,4.69-.42a3.55,3.55,0,0,1,3.41,5.18c-1.21,2.24-3.36,4-5.16,5.89a1.34,1.34,0,0,1-1.3,0c-1.83-2.07-4-4-5.25-6.39S26.58,225.07,29.14,225.59Z" transform="translate(-8.52 -5.7)"/><path class="cls-1" d="M33.56,291.38c-2.3,1.31-4.18.15-5.86-1.19a4.75,4.75,0,0,1-1.7-5.77c.61-1.39,2.18-2.33,3.19-3.57,1.48-1.82,2.77-1,4.28,0a11.7,11.7,0,0,0,3,.94c-.77.68-2.07,1.26-2.22,2.05A70.32,70.32,0,0,0,33.56,291.38Z" transform="translate(-8.52 -5.7)"/><path class="cls-1" d="M30.46,317.36a5.24,5.24,0,0,1-3.86-4.17,5.45,5.45,0,0,1,3.69-6.53,5.22,5.22,0,0,1,6.27,2.8c1.35,2.76.37,5.66-2.51,7.41L33,315.71l1.26-.65-.38-.73L29,313.8l.18-2.57c4.69-.07,4.69-.07,6,2.08.51-2.17.32-4.16-1.76-4.91-1.35-.48-3.83-.52-4.44.28-1,1.26-1.72,3.44,0,5.12l1.51,1.89Z" transform="translate(-8.52 -5.7)"/><path class="cls-1" d="M45.82,237.27c-.43-1.44-.77-2.74-1.23-4a5.43,5.43,0,0,1,3.68-7.09c3.44-1.1,7.33.6,8.26,3.62s-.92,6.09-4.43,6.84A53.94,53.94,0,0,1,45.82,237.27Zm1-1.44c1.49,0,2.8.07,4.1,0a4.77,4.77,0,0,0,4.68-3.73c.38-2.18-.66-3.66-2.5-4.67a5.73,5.73,0,0,0-6.47.84,4,4,0,0,0-.74,5.37A16.09,16.09,0,0,1,46.87,235.83Z" transform="translate(-8.52 -5.7)"/><path class="cls-1" d="M33.56,291.38a70.32,70.32,0,0,1,.71-7.56c.15-.79,1.45-1.37,2.22-2.05C39.48,285.65,38.22,289.76,33.56,291.38Z" transform="translate(-8.52 -5.7)"/><path class="cls-1" d="M101.89,311.55c.15,1.58-1.47,1.67-2.93,1.52-.55-.06-1.52-1.24-1.39-1.62.26-.79,1-1.85,1.74-2a60,60,0,0,1,6.86-.45c-.35,1.18-.75,2.58-1.16,4Z" transform="translate(-8.52 -5.7)"/><path class="cls-1" d="M54.68,262.05l-.6-2.64c-.51,1.36-.79,2.12-1.26,3.39-.37-1.28-.61-2.13-.85-3l-.5-.08-.86,2.61-.61-.07c.06-1.07-.13-2.94.24-3.06a17.78,17.78,0,0,1,4.53-.43,12.2,12.2,0,0,1,2.18.08c.75.09,2,.13,2.12.52a3.92,3.92,0,0,1-.1,2.74c-.17.37-1.41.32-2.16.32A13,13,0,0,1,54.68,262.05Z" transform="translate(-8.52 -5.7)"/><path class="cls-1" d="M41.69,312.75v-4.59c1.78,1,3.22,2.43,5.3,1.27.3-.17,1.36,1,2.07,1.56-.57.69-1.09,1.9-1.73,2A36.48,36.48,0,0,1,41.69,312.75Z" transform="translate(-8.52 -5.7)"/><path class="cls-1" d="M75,309.28l6.14-.06-.14-.51,1.93,1.35v2.42l-2.13.24-.72-2.46-.78,2.41c-2.14.4-4.39,1-4.74-2.25Z" transform="translate(-8.52 -5.7)"/><path class="cls-1" d="M86.62,310.56l-1,1.85-.56,0c0-.76-.28-1.74.08-2.23s1.38-.63,2.13-.73a7.26,7.26,0,0,1,1.83.22c.9.12,2.47,0,2.56.37a6.74,6.74,0,0,1-.13,3.36,1.82,1.82,0,0,1-1.59.72,13.88,13.88,0,0,1-2.57-2.34c-.23-.25-.18-.75-.27-1.13Z" transform="translate(-8.52 -5.7)"/><path class="cls-1" d="M135,262.25l-4.87.24-2.42-3.63H135C135,260,135,261.12,135,262.25Z" transform="translate(-8.52 -5.7)"/><path class="cls-1" d="M32.47,260.27c-1.78.48-2.63,4.14-4.94,1.66a3.85,3.85,0,0,1,0-3.75C30.26,255.5,30.65,259.71,32.47,260.27Z" transform="translate(-8.52 -5.7)"/><path class="cls-1" d="M111.53,259.28l2.11.64c1.09-1.23,3.9-1.92,4.62-.68.45.76,0,2.05,0,3.1l-3.33-.42,0-.76-1.61,1.8-1.75-3.72Z" transform="translate(-8.52 -5.7)"/><path class="cls-1" d="M41.69,284.23c1.92-.72,3.09-1.54,4.15-1.42.67.07,1.69,1.58,1.63,2.38s-1.65,2.29-1.88,2.17A25.25,25.25,0,0,1,41.69,284.23Z" transform="translate(-8.52 -5.7)"/><path class="cls-1" d="M29.26,268.82v3.71l-.37.09-.52-1.55-3.43,2.44-.79-.52c.42-1.39.49-3.1,1.38-4.06C26.1,268.32,27.87,268.82,29.26,268.82Z" transform="translate(-8.52 -5.7)"/><path class="cls-1" d="M65.77,309.68c-3.23-1.11-2.38,2.92-4.86,3.33l1.2-3.13-2-1.33H67.8l-2.31,4.57-.82-.34Z" transform="translate(-8.52 -5.7)"/><path class="cls-1" d="M71,258.89c1.76.83,4-1.3,5.53.9l0-.06c.1,4.25-2.8,2.59-4.91,2.49-.18-1-.37-1.93-.55-2.89C71,259.18,71,259,71,258.89Z" transform="translate(-8.52 -5.7)"/><path class="cls-1" d="M107.89,257.94c-.44,1.55-.62,4.28-1.39,4.46-3,.7-3.39-1.13-1.91-3.34.44-.66,1.62-.83,2.46-1.22Z" transform="translate(-8.52 -5.7)"/><path class="cls-1" d="M119.62,260.33c.95-.55,1.89-1.49,2.85-1.51.66,0,1.35,1.24,2,1.93-.7.65-1.36,1.77-2.1,1.83s-1.82-.79-2.74-1.24Z" transform="translate(-8.52 -5.7)"/><path class="cls-1" d="M56.51,311.85c-1.23,2-2.57,1.26-3.93.16,0-.6,0-1.2-.08-1.8l1.13-2,2.91,2.43Z" transform="translate(-8.52 -5.7)"/><path class="cls-1" d="M41.48,249.78l-5.07.05.55-3,4.51.41Z" transform="translate(-8.52 -5.7)"/><path class="cls-1" d="M44,272.81c-.44.22-.9.64-1.32.6a18.09,18.09,0,0,1-2.66-.58l1.12-2.17-.91-.19c1.21-2.33,2.55-.12,3.76-.26Z" transform="translate(-8.52 -5.7)"/><path class="cls-1" d="M75,309.28l-.44,1.14c-.2.77-.4,1.54-.73,2.83l-1.62-2.34-1.46,2.47-1.39-4.51.49-.23L71,310.22l1.25-2,1.2,1.82,1.48-1.29A2.18,2.18,0,0,1,75,309C75,309.11,75,309.19,75,309.28Z" transform="translate(-8.52 -5.7)"/><path class="cls-1" d="M36.43,259.76l-1.73,2.87-1.58-4.1c2,.27,3.59.11,4.65.76.58.36.32,2.1.44,3.21l-.81.12Z" transform="translate(-8.52 -5.7)"/><path class="cls-1" d="M147.29,260.55c-1.22,1-2,2.12-2.56,2a3,3,0,0,1-2-1.81c-.13-.55,1-1.91,1.59-2S145.89,259.68,147.29,260.55Z" transform="translate(-8.52 -5.7)"/><path class="cls-1" d="M50.66,268.38c1,1.52,1.88,2.31,1.87,3.1s-1,1.4-1.57,2.1c-.71-.65-1.88-1.21-2-2S49.76,270,50.66,268.38Z" transform="translate(-8.52 -5.7)"/><path class="cls-1" d="M58.74,268.51c.93,1.41,1.91,2.25,1.79,2.89-.14.81-1.18,1.45-1.84,2.17-.6-.67-1.66-1.32-1.69-2S57.86,270,58.74,268.51Z" transform="translate(-8.52 -5.7)"/><path class="cls-1" d="M76.49,259.79c.2-.28.4-.81.58-.8a12.38,12.38,0,0,1,2,.39l.25-.64,1,1.33,1-1.21.48.22L80.67,263l-1.5-1.62-1.41,1.48-1.3-3.14Z" transform="translate(-8.52 -5.7)"/><path class="cls-1" d="M111.49,259.24a8.7,8.7,0,0,1-.21,1.46c-.34,1.05-.5,2.62-2.14,1.83A2.76,2.76,0,0,1,108,260.2c.26-1.49,1.42-1.91,2.85-1.2.22.11.46.19.69.28Z" transform="translate(-8.52 -5.7)"/><path class="cls-1" d="M88.29,260.82c-1.25.87-2,1.82-2.68,1.76s-1.76-1.26-1.67-1.8a2.84,2.84,0,0,1,1.81-1.95C86.31,258.72,87.1,259.84,88.29,260.82Z" transform="translate(-8.52 -5.7)"/><path class="cls-1" d="M62.34,259.08c1.73.22,3.55-.05,3.08,2.15a2.46,2.46,0,0,1-1.94,1.46C60.76,262.37,62.77,260.48,62.34,259.08Z" transform="translate(-8.52 -5.7)"/><path class="cls-1" d="M43.37,262.64l1.9-5.26.83,0c.58,1.57,1.17,3.13,2,5.22-1.14-.6-1.77-1.18-2.42-1.2S44.48,262,43.37,262.64Z" transform="translate(-8.52 -5.7)"/><path class="cls-1" d="M52.5,310.21c0,.6.06,1.2.08,1.8l-3.1,1.35v-5.21Z" transform="translate(-8.52 -5.7)"/><path class="cls-1" d="M34.43,272.88l-1.29.51-.85-2.86-.64,0-.86,2.72-.69,0c.07-1.11-.24-2.54.34-3.21.45-.51,2-.09,3.06-.05a4.39,4.39,0,0,1,.93.24Z" transform="translate(-8.52 -5.7)"/><path class="cls-1" d="M161.6,258.89c-1.26,1.24,1.71,3.45-1.48,3.79-1.28.14-1.91-.66-1.85-2C158.36,258.8,159.47,258.59,161.6,258.89Z" transform="translate(-8.52 -5.7)"/><path class="cls-1" d="M94.88,257.87a12.61,12.61,0,0,1,.17,2.79,6,6,0,0,1-1,1.87c-.48-.67-1.42-1.38-1.35-2A10.17,10.17,0,0,1,94,257.63Z" transform="translate(-8.52 -5.7)"/><path class="cls-1" d="M102.46,260.92c-1.2.92-2,1.87-2.37,1.74-.8-.26-1.41-1.11-2.1-1.72.6-.52,1.16-1.37,1.82-1.46S101.12,260.15,102.46,260.92Z" transform="translate(-8.52 -5.7)"/><path class="cls-1" d="M56.51,311.85l0-1.26c.43-.32.82-.81,1.29-.91a12,12,0,0,1,2.57.1l-2.09,4.67C56.57,313.72,59.1,311.55,56.51,311.85Z" transform="translate(-8.52 -5.7)"/><path class="cls-1" d="M55.87,273.23l-.75-2.63-.58-.08-.84,2.69H53a13.27,13.27,0,0,1,.3-3.36c.1-.32,2-.55,2.15-.26A16.38,16.38,0,0,1,56.86,273Z" transform="translate(-8.52 -5.7)"/><path class="cls-1" d="M153.28,257.51c1.6,1.41,4.61,1.61,2.87,5L155,258.9l-1.74,4Z" transform="translate(-8.52 -5.7)"/><path class="cls-1" d="M41.48,249.78v-2.54c.87,0,2.06-.33,2.52.11s.13,1.63.15,2.5Z" transform="translate(-8.52 -5.7)"/><path class="cls-1" d="M34.43,272.88v-2.71l2.35-.52.08.8h-1L37,272.93Z" transform="translate(-8.52 -5.7)"/><path class="cls-1" d="M24.09,250.11l2.44-3.21h-2l-.13-.77,2.36-.33c.09.77.2,1.54.26,2.32,0,.56,0,1.12,0,2Z" transform="translate(-8.52 -5.7)"/><path class="cls-1" d="M26.31,262.56c-2-.49-2.58-2.7-.64-4.75Z" transform="translate(-8.52 -5.7)"/><path class="cls-1" d="M37,246.83l-.55,3-1.79.3V245.8Z" transform="translate(-8.52 -5.7)"/><path class="cls-1" d="M44,272.81v-2.6l2.68-.67,0,.6-2,1.35,2.22,1.33C46,273.88,45.06,273.92,44,272.81Z" transform="translate(-8.52 -5.7)"/><path class="cls-1" d="M51.91,287,51,284.38l-1.42,3.05-.45-3.74c1,.16,2.24,0,2.75.5s.5,1.79.71,2.72Z" transform="translate(-8.52 -5.7)"/><path class="cls-1" d="M40.88,257.16v5.27l-.51.06-1.24-4.42Z" transform="translate(-8.52 -5.7)"/><path class="cls-1" d="M71,258.89c0,.15,0,.29,0,.44-.47,1.1-.94,2.2-1.4,3.3l-.66.06-1.52-3.52.55-.33,1.16,1.65Z" transform="translate(-8.52 -5.7)"/><path class="cls-1" d="M32,250.26c-.55,0-2,0-2.08-.25a7.29,7.29,0,0,1,.11-4.13Z" transform="translate(-8.52 -5.7)"/><path class="cls-1" d="M33,315.71l1.09,1.16-3.59.49.05-1.67Z" transform="translate(-8.52 -5.7)"/><path class="cls-1" d="M88.27,262.26v-4.8l1.09.06-.49,4.78Z" transform="translate(-8.52 -5.7)"/><path class="cls-1" d="M135,262.25c0-1.13,0-2.26,0-3.39,3.16-.37,4,.59,2.84,3.41-.12-.08-.31-.13-.35-.24-.33-.78-.63-1.57-.93-2.35Z" transform="translate(-8.52 -5.7)"/><path class="cls-1" d="M38.94,268.88l.23,4.48-.84.12c-.2-1.49-.41-3-.61-4.48Z" transform="translate(-8.52 -5.7)"/><path class="cls-1" d="M41.88,350.11H38.35l-2-3.23-1.92,3.19h-2.6c-1.38-4.4-.31-6.89,4.55-10.5,1.17.07,1.78,2.95,3.63-.09Z" transform="translate(-8.52 -5.7)"/><path class="cls-1" d="M140.86,338.65c3.81,0,5.53,1.19,5.52,3.78,0,3.84-3.11,8.61-5.57,8.6s-5.47-4.71-5.46-8.64C135.35,339.8,137.08,338.63,140.86,338.65Zm-4.44,4.16c.05,3.14,2.54,7.14,4.44,7.1s4.47-4.31,4.45-7.41c0-1.82-1.86-2.95-4.63-2.87C137.65,339.73,136.39,340.67,136.42,342.81Z" transform="translate(-8.52 -5.7)"/><path class="cls-1" d="M106,349.66h-1.24c-5.15,0-5.21-.1-5-5.36.06-1.53.42-2.54,2.2-2.66.67-.05,1.28-.84,2-.91a19.21,19.21,0,0,1,4.22,0c.67.07,1.28.9,2,.93,1.91.11,2.27,1.24,2.34,2.83C112.61,349.63,112.59,349.67,106,349.66Zm.19-1v0a24.37,24.37,0,0,0,3.73-.06c.55-.09,1.37-.81,1.4-1.27.08-1.46.38-3.55-.41-4.25a9.82,9.82,0,0,0-5.17-1.88c-1-.12-2.18,1.12-3.36,1.34-1.45.27-1.62,1.08-1.66,2.28-.14,3.85-.16,3.85,3.73,3.86Z" transform="translate(-8.52 -5.7)"/><path class="cls-1" d="M71.13,340.87l.47,2.43,2-2.69c1,3.14-.22,5.57-1.56,8.44L71,346.4l-1.57,2.32-.84-.22,1.57-7.72Z" transform="translate(-8.52 -5.7)"/><path class="cls-1" d="M175.32,349.6a15.2,15.2,0,0,1-2.24,0,12.28,12.28,0,0,1-2-.65,6.58,6.58,0,0,1,.91-2.16c1.59-1.66,5.78-1.61,7.35.07a2.63,2.63,0,0,1,.75,1.92c-.09.4-1.13.72-1.78.81A22.92,22.92,0,0,1,175.32,349.6Zm-3.12-1.09h6.91C177.14,345.7,174,345.73,172.2,348.51Z" transform="translate(-8.52 -5.7)"/><path class="cls-1" d="M175.68,346c-1.15-1.63-2.33-2.57-2.25-3.4s1.38-2.22,2.14-2.22a3.14,3.14,0,0,1,2.26,2.14C177.94,343.33,176.78,344.32,175.68,346Z" transform="translate(-8.52 -5.7)"/><path class="cls-1" d="M190.89,61.8l.06-1,.49.1q0,31.74-.08,63.47c0,5,0,10-.12,15,0,.85-.84,1.68-1.25,2.54a8.76,8.76,0,0,0-1.08,2.59c-.53,5.13-.94,10.26-1.39,15.4-2.09-1.77-1.19-4.46-2.06-6.6l.51-26.48h1.5c3.41,0,3.45-.07,3.45-3.56,0-5.33,0-10.66,0-16q0-6.18,0-12.38l0-7.61c0-1,0-2,0-3v-20C190.88,63.42,190.89,62.61,190.89,61.8Z" transform="translate(-8.52 -5.7)"/><path class="cls-1" d="M190.94,217.7h-7v-.4a1.3,1.3,0,0,1,.32-.14c.12-.69.5-1.48.29-2a47.34,47.34,0,0,0-2.57-5.88c-1.42-2.69-2.76-5.53-6.08-6.46l-1.52-.93c1.67-1.89,4-3,5-5.77a4.66,4.66,0,0,1,5-3.27c3.25.5,6.45,3.87,6.47,7.16C191,205.88,190.94,211.79,190.94,217.7Z" transform="translate(-8.52 -5.7)"/><path class="cls-1" d="M190.94,217.7c0-5.91,0-11.82,0-17.73,0-3.29-3.22-6.66-6.47-7.16a4.66,4.66,0,0,0-5,3.27c-1,2.77-3.32,3.88-5,5.77L164,199.73l-.93-.33-2.37-.73a8.69,8.69,0,0,1,1.26-2.51,10.51,10.51,0,0,1,2.73-1.65c1.75-.91,3.6-1.66,5.28-2.68s3-2.42,4.7-3.37a18.31,18.31,0,0,1,3.82-1.21c2.93.34,5.86.79,8.8.95a3.18,3.18,0,0,0,2.56-1.16,18,18,0,0,0,1.07-4.23l-4.44-2.06,4.92,1.24c0,3.41-.09,6.82-.16,10.23,0,.19-.28.38-.38.51L187,190.59l-.41.59a7.61,7.61,0,0,0,1.16,1.45c3,2.28,3.91,5.24,3.68,9-.29,4.48,0,9-.08,13.49A18.41,18.41,0,0,1,190.94,217.7Z" transform="translate(-8.52 -5.7)"/><path class="cls-1" d="M158.48,209.8c-.21.3-.42.61-.64.91-2.57-.83-.24-2.71-.85-4l-2-2c-.38-2.19.65-3.07,2.75-3,.91,0,1.82,0,2.73,0l7.4,3.14c.56.36,1.13.71,1.67,1.08,4,2.68,8.84,4.54,9.43,10.35,0,.51.59,1,.9,1.47h-7.45c-3.06-4.28-7.56-6.52-12.22-8.5C159.82,209,159.08,209.59,158.48,209.8Z" transform="translate(-8.52 -5.7)"/><path class="cls-1" d="M186.46,180.75l4.44,2.06a6.25,6.25,0,0,1-5.64-1,5.84,5.84,0,0,0-3.87-.6c-2.63.49-5.17,1.38-7.62,2.08-1.12-4.34-5.42-3.91-8.31-6.45a24.23,24.23,0,0,1,3.58-.54c4.63.11,9.26.33,13.89.45.93,0,2.57-.06,2.66-.41a5.64,5.64,0,0,0-.25-3.32,4.21,4.21,0,0,0-4-2.8,31.81,31.81,0,0,1-4.86-.94,26.18,26.18,0,0,1,4.82-1.89c1.71-.32,2.27-1.07,2.19-2.66,0-.83,0-1.66,0-2.49a27.73,27.73,0,0,0,1.42-3.94,46.6,46.6,0,0,0,.55-5c.87,2.14,0,4.83,2.06,6.6q-.57,8.83-1.11,17.66c0,.91,0,1.83.07,2.74A1.35,1.35,0,0,0,186.46,180.75Z" transform="translate(-8.52 -5.7)"/><path class="cls-1" d="M179.92,217.71c-.31-.49-.85-1-.9-1.47-.59-5.81-5.45-7.67-9.43-10.35-.54-.37-1.11-.72-1.67-1.08,2.45-.45,4.58-2.66,7.38-1.34.08,0,.41-.45.63-.69,3.32.93,4.66,3.77,6.08,6.46a47.34,47.34,0,0,1,2.57,5.88c.21.57-.17,1.36-.28,2a15.77,15.77,0,0,0-1.19-2.93c-.37-.56-1.21-.82-1.84-1.22,0,.71-.41,1.68-.08,2.08a16.37,16.37,0,0,0,2.78,2.21v.4Z" transform="translate(-8.52 -5.7)"/><path class="cls-1" d="M186.46,180.75a1.35,1.35,0,0,1,0-.49,5.61,5.61,0,0,0,.89-1.71c.42-3.78.68-7.58,1.13-11.35a12.14,12.14,0,0,1,1.09-2.83c-.19,2.27-.72,4.58-.47,6.8.15,1.38,1.47,2.63,2.26,3.94V182Z" transform="translate(-8.52 -5.7)"/><path class="cls-1" d="M158.48,209.8c.6-.21,1.34-.76,1.77-.58,4.66,2,9.16,4.22,12.22,8.5l-4.94,0c-.06-.12-.11-.24-.16-.37-.49-1.18-1-2.35-1.45-3.53Z" transform="translate(-8.52 -5.7)"/><path class="cls-1" d="M191.38,175.11c-.79-1.31-2.11-2.56-2.26-3.94-.25-2.22.28-4.53.47-6.8v0l1.81-.81Z" transform="translate(-8.52 -5.7)"/><path class="cls-1" d="M191.39,163.52l-1.81.81v-6l1-.11C190.84,160,191.11,161.77,191.39,163.52Z" transform="translate(-8.52 -5.7)"/><path class="cls-1" d="M43,63.77c7.48.14,15,.29,22.43.39,1.5,0,2.09.65,2,2.12-.07,2.33,0,4.66-.06,7-5.31-.84-10.64-1.62-15.94-2.54-3.18-.55-6.32-1.32-9.48-2l16.61,1.39c1.17.09,2.34.2,3.51.31l.12-.84c-5.31-1.45-10.64-2.87-15.94-4.38A23.4,23.4,0,0,1,43,63.77Z" transform="translate(-8.52 -5.7)"/><path class="cls-1" d="M176.45,169.27a31.81,31.81,0,0,0,4.86.94,4.21,4.21,0,0,1,4,2.8,5.64,5.64,0,0,1,.25,3.32c-.09.35-1.73.43-2.66.41-4.63-.12-9.26-.34-13.89-.45a24.23,24.23,0,0,0-3.58.54c2.89,2.54,7.19,2.11,8.31,6.45,2.45-.7,5-1.59,7.62-2.08a5.84,5.84,0,0,1,3.87.6,6.25,6.25,0,0,0,5.64,1,18,18,0,0,1-1.07,4.23,3.18,3.18,0,0,1-2.56,1.16c-2.94-.16-5.87-.61-8.8-.95l-4,0-26.49-3c-.07-2.59-1.48-3.84-4-4.05-3.6-.31-7.21-.64-10.81-1-1.54-.14-3.08-.33-4.62-.51-2.3-.27-4.59-.69-6.9-.79a2.89,2.89,0,0,1-3.06-2.28l-.68-1.29c-.91-3.46-4.44-3.33-6.78-4.35-1.92-.83-4.71.09-7,.59-1.42.31-2.6,1.34-1.59,3.16-.07,2.89-2,5.11-5,5.92-.81-.58-2.26-1.09-2.33-1.75-.31-2.8-2-2.94-4.14-2.67l-12.44-.56c-4-.19-8-.25-11.94-.62-5.07-.47-6-.12-8.19,4.17l-2.32.49-.18-3.51v-2.41l.14-1c1.25-.53,2.46-1.15,3.74-1.55a17.46,17.46,0,0,1,4.24-1c3.13-.19,3.46-.37,3.46-3.47,0-11.73-.24-23.47.11-35.2.18-6.34,1.46-12.65,2.1-19,.28-2.72.18-5.48.22-8.22a1.8,1.8,0,0,0-.28-1.19c-2.28-2.44-1.55-5.45-1.59-8.29C68,87.07,68,80.16,67.93,73.26q0-4.26,0-8.5H81.47l4.27,1.12c-1,.69-1.47,1.21-2,1.34a51.76,51.76,0,0,0-5.77,1.21c-1.06.38-1.83,1.58-2.73,2.41a17.85,17.85,0,0,0,2.47,1.9,5.11,5.11,0,0,0,2.18.41c2.12.1,4.51-1.87,6.27.85,2.37-1.23,4.2-.42,5.76,1.49.12.15.47.15.71.15,2.16,0,4.33.22,6.47.05,4.34-.36,8.58-2,13-1a2.47,2.47,0,0,0,1.67-.4c2.08-1.37,3.73-.78,5.2,1,1.44,2.82,2.48,6,4.42,8.37,2.4,3,5.15,5.86,9,7.12l1.54,1c.24,1.1,1.24,2.9-1.1,2.38-2-.45-3.88-1.79-5.85-2.62-1.62-.68-3.28-1.61-5-1.71-4.93-.28-9.87-.27-14.81-.23-1.63,0-3.88-.11-4.77.84C99.14,94,95.7,93,92,91.53a2.57,2.57,0,0,0-.48-.11c-4.54-.59-8.8,1.93-9.53,5.72a29.43,29.43,0,0,0-2.94.2c-2.56.41-3.91,1.9-3.62,3.88l-3,.57h0c-.49.38-1.38.73-1.4,1.13a44.1,44.1,0,0,0,0,6.4c0,.51.88,1,1.36,1.44,0,5,0,10-.15,14.93-.24,10.53-.54,21-.82,31.57-.86,3.07-.67,3.41,2,3.47l15,.53a24.51,24.51,0,0,0,2.91.48q12.84.57,25.68,1.07c1.43,0,2.58.34,3,2,.12.43,1.22.87,1.83.84,3.2-.21,6.39-.83,9.58-.82,7.32,0,14.66.15,22,.63,3.72.24,7.39,1.35,10.84,2a45.77,45.77,0,0,1,5.76-1A8,8,0,0,1,176.45,169.27ZM74,168.3c.94.64,2.08,1,2.35,1.68.77,1.94,2.19,1.66,3.66,1.52a14,14,0,0,0,2.91-.41,14,14,0,0,0,2.45-1.35c-.63-.74-1.21-2-1.91-2.1a81,81,0,0,0-8.4-.19C74.74,167.46,74.45,167.91,74,168.3Zm35.46-80.58-.06-1.23c-1.74-.22-3.49-.53-5.24-.6-.45,0-.93.71-1.4,1.09.46.51.93,1.47,1.36,1.45C105.87,88.35,107.65,88,109.43,87.72Zm39.77,85.54c-.19,3.34.62,3.88,3.42,2.67Z" transform="translate(-8.52 -5.7)"/><path class="cls-1" d="M52.51,110.73l-1-3.55c2.26.52,2,2.36,2,4,0,10.87,0,21.74,0,32.61,0,5,0,10,.06,14.95-.19,3.51-.37,7-.56,10.52l-1.06-.05a21.73,21.73,0,0,0,.45-3.18q.09-19.12.12-38.23Q52.5,119.26,52.51,110.73Z" transform="translate(-8.52 -5.7)"/><path class="cls-1" d="M53,169.24c.19-3.5.37-7,.56-10.52,4-.47,5.68,1.27,4.73,5.13-.41,1.66-1.38,3.17-1.89,4.81a15.88,15.88,0,0,0-.34,3.18c0,.33-.09.66-.14,1C55.71,171,55.16,169.47,53,169.24Z" transform="translate(-8.52 -5.7)"/><path class="cls-1" d="M119,75.25c-1.47-1.75-3.12-2.34-5.2-1a2.47,2.47,0,0,1-1.67.4c-4.45-1-8.69.64-13,1-2.14.17-4.31,0-6.47-.05-.24,0-.59,0-.71-.15-1.56-1.91-3.39-2.72-5.76-1.49-1.76-2.72-4.15-.75-6.27-.85a5.11,5.11,0,0,1-2.18-.41,17.85,17.85,0,0,1-2.47-1.9c.9-.83,1.67-2,2.73-2.41a51.76,51.76,0,0,1,5.77-1.21c.56-.13,1-.65,2-1.34l-4.27-1.12h4.64q15.83,0,31.65,0c2.09,0,4.3-1.08,6.19.69,2.83-1.81,5.9-.42,8.84-.65,5.38-.41,10.77-.71,16.16-.93,3.72-.14,7.44-.09,11.16-.1,6,0,12.07.06,18.11,0,2.48,0,5-.62,7.44-.57a27.56,27.56,0,0,1,5.22,1.09v7a5.42,5.42,0,0,0-1.67-.46c-2.6,0-5.21.31-7.82.26-4.67-.1-9.26,0-13.64,2a12.24,12.24,0,0,1-4.57,1.16c-3,.06-6.05-.38-9.08-.37-3.38,0-6.76.35-10.15.44-3.17.09-6.45-2-9.53.46-.26.21-.82.1-1.23,0-3.5-.44-7-.81-10.5-1.4-1.53-.25-1.62.25-1.23,1.42Z" transform="translate(-8.52 -5.7)"/><path class="cls-1" d="M53,169.24c2.17.23,2.72,1.76,2.92,3.59,0,.8,0,1.61,0,2.41-1.94,2.13-4.52,1.33-6.88,1.5,0-.15,0-.3,0-.45h0l1.72-1.61c-.9-.76-1.68-1.9-2.71-2.21a17.81,17.81,0,0,0-4.46-.23l0-1,8.44-2.09Z" transform="translate(-8.52 -5.7)"/><path class="cls-1" d="M51.45,158.38c-1.45,2.51-3,.56-4.31-.1-.25-.12-.07-2,.44-2.61,1.13-1.45,2.57-1.56,3.87,0Z" transform="translate(-8.52 -5.7)"/><path class="cls-1" d="M52.51,110.73q0,8.53,0,17l-.06-15C52.46,112.08,52.48,111.4,52.51,110.73Z" transform="translate(-8.52 -5.7)"/><path class="cls-1" d="M39.15,152.34c-1.73,0-3.46,0-5.19,0-1.19,0-2.53-.28-2.09-1.64a5.62,5.62,0,0,1,2.56-2.79c.79-.45,2-.06,3.07-.12,1.45-.07,3.77,2.54,3.29,3.91-.17.5-.91.8-1.4,1.2Z" transform="translate(-8.52 -5.7)"/><path class="cls-1" d="M40,156.27c-1.68,1.52-6.23,2-7.78.74-.15-.12.13-.79.22-1.2l0-.47C35,155.48,37.3,157.4,40,156.27Z" transform="translate(-8.52 -5.7)"/><path class="cls-1" d="M40,156.27c-2.69,1.13-5-.79-7.53-.93a6.63,6.63,0,0,1,2.28-.61c2.09.22,4.16.67,6.24,1Z" transform="translate(-8.52 -5.7)"/><path class="cls-1" d="M31.51,161.17l.8-1.3L31,159.1l.12-.58,6.64.63,0,.84L34,161.21Z" transform="translate(-8.52 -5.7)"/><path class="cls-1" d="M148,184.28l26.49,3a6.36,6.36,0,0,1-1.66.43c-3.07,0-6.15-.06-9.2-.3-2.1-.16-3.77-.25-5,2.13a6.64,6.64,0,0,1-6,4.09c-3.49.07-5.45,3-8.11,4.64a47.36,47.36,0,0,0-4.91-.07,21.74,21.74,0,0,0-3.61,1c-.14.39-.27,1.1-.42,1.1-2.1.07-4.64.78-6.18-.15-1.8-1.09-2.41-1.1-3.38.54-.25.42-.88.62-1.86.6l.78-1.89c.54-.85.8-1.6-.65-1.62-3.34,0-6.67,0-10-.07-.7,0-1.4-.14-2.11-.22l.09-.43,2.79-.7-.12-.71h-7.31l-.09.67,2.76.71a14.88,14.88,0,0,1-4.73.28L93,196.84v-.6l4.9-2.63c-2.53-1.51-4.76-3-7.16-4.21-3-1.51-6.15-2.77-9.23-4.13l6,0,4,0,1,0c3,.17,6.09.24,9.11.57,1.38.15,2.68,1,4.07,1.21a13.91,13.91,0,0,0,3.26-.22,24.47,24.47,0,0,0,2.78,1c6.24,1.5,12.48,2.95,18.72,4.41.21-.83.42-1.67.62-2.5.76.35,1.54,1.06,2.25,1,3.44-.36,6.84-1,10.27-1.39a2.87,2.87,0,0,0,2.88-2.53l1.53-2.56Zm-16.86,9.15L127,195.52C130.28,196.91,131.21,196.41,131.09,193.43Z" transform="translate(-8.52 -5.7)"/><path class="cls-1" d="M154.45,217.66H148c-7.14-.3-14.27-.72-21.41-.89-12.72-.3-25.44-.46-38.17-.68-5.8-.11-11.6-.19-17.4-.32-1.27,0-2.91.27-3.08-1.67a2.81,2.81,0,0,1,2.71-3.26c1.48-.18,3-.15,4.47-.22l.21.71c.23-.5.46-1,.7-1.51,2.39.83,4.5,1.93,7.41,1,2.47-.79,5.34.11,8.2-.32,4.23-.62,8.69.34,13.06.6a7.65,7.65,0,0,0,2-.11c5.13-1,10.2-1.47,15,1.36a1.78,1.78,0,0,0,1,.14l9.85-.68a16.16,16.16,0,0,0,1.68.35c1.15.14,2.31.21,3.46.33.14,0,.32.29.39.26,2.2-1,4.67.23,6.47-.22,2.28-.58,3.74.11,5.52.73l3.93-.9,1.05.92C154.78,214.74,154.61,216.2,154.45,217.66Z" transform="translate(-8.52 -5.7)"/><path class="cls-1" d="M144.49,198.27c2.66-1.63,4.62-4.57,8.11-4.64a6.64,6.64,0,0,0,6-4.09c1.18-2.38,2.85-2.29,5-2.13,3,.24,6.13.26,9.2.3a6.36,6.36,0,0,0,1.66-.43l4,0a18.31,18.31,0,0,0-3.82,1.21c-1.67.95-3.06,2.37-4.7,3.37s-3.53,1.77-5.28,2.68a10.51,10.51,0,0,0-2.73,1.65,8.69,8.69,0,0,0-1.26,2.51l2.37.73.93.33-3.46,1.94c-.91,0-1.82.07-2.73,0-2.1-.07-3.13.81-2.75,3-.75.82-1.5,1.63-2.46,2.69-.38-.82-.6-1.22-.76-1.65-.53-1.41-1.4-2.07-2.83-1.16a4,4,0,0,1-3.94.36c-1.56-.55-3.44-.12-5.18-.2a20.55,20.55,0,0,1-2.43-.41c2.44,0,4.88,0,7.32,0,1,0,2-.24.72-1.48l-5-1,4.42-.23-.06-.81H139l5.43-1.19Z" transform="translate(-8.52 -5.7)"/><path class="cls-1" d="M87.49,185.24l-6,0L64,184.8c-3.84,0-7.58,0-11.4,1.3-2.38.83-5.38-.14-8.1-.3,0-1,0-2.06,0-3.08.57-.91,1.07-1.37,2-.25a2.84,2.84,0,0,0,2,.46c1.25-2.61,2.47-2.27,3.76.19,1.64-1.55,1-3.2.4-4.48-.3-.7-1.63-1.1-2.57-1.31A15.65,15.65,0,0,0,47,177.2l2.06-.46c2.37-.17,5,.63,6.89-1.5l.18,3.51c.51,1,1,2,1.74,3.43a7.4,7.4,0,0,0,1.32.15c6.72,0,13.45-.05,20.17,0,1.72,0,3.45.49,5.15.4,2.68-.14,5.34-.58,8-.89l0,3.42-1,0c-.86-2.17-1.84-2.48-5.23-1.58Z" transform="translate(-8.52 -5.7)"/><path class="cls-1" d="M64,184.8l17.49.47c3.08,1.36,6.22,2.62,9.23,4.13,2.4,1.19,4.63,2.7,7.16,4.21L93,196.24a15.68,15.68,0,0,0-2.78-.87c-2.58-.31-5.17-.48-7.75-.71C79.16,190.5,74.65,188,70,185.71,68.29,184.86,66,185.07,64,184.8Z" transform="translate(-8.52 -5.7)"/><path class="cls-1" d="M132.44,211.81l-9.85.68a1.78,1.78,0,0,1-1-.14c-4.79-2.83-9.86-2.33-15-1.36a7.65,7.65,0,0,1-2,.11c-4.37-.26-8.83-1.22-13.06-.6-2.86.43-5.73-.47-8.2.32-2.91.92-5-.18-7.41-1-.35-.68-.69-1.36-1-2l-5.45-.84c.37-.42.73-.84,1.1-1.25l9.77,0,1.67-.82c.5.62,1,1.25,1.48,1.88-.15.57-.61,1.43-.4,1.66.82.89,3.72.25,4.7-1l-2.13-1.07.71-2h1.09c-.86,2.76,1.43,1.55,2.45,2l-.51.87c-.86,2.14.8,1.7,1.83,1.72q13.72.26,27.47.42a21.16,21.16,0,0,0,2.51-.27l.12-1.07-3.93-.67c0-.38,0-.76-.07-1.14s0-.5,0-.75l1.06.87,4,.45,1.14-.5h0l-.06,1.22c-.14.56-.59,1.37-.37,1.65.87,1.11,2.88.65,3.83-.76l.64,2,1.5-.58h2.82Zm-50.71-5c-1.71,0-3.14,0-4.56,0a1.39,1.39,0,0,0-.88.73c-.1.17.11.64.32.82C77.61,209.3,80.62,208.58,81.73,206.83Z" transform="translate(-8.52 -5.7)"/><path class="cls-1" d="M93,196.84l12.58.45a14.88,14.88,0,0,0,4.73-.28l-2.76-.71.09-.67h7.31l.12.71-2.79.7-.09.43c.71.08,1.41.21,2.11.22,3.34,0,6.67,0,10,.07,1.45,0,1.19.77.65,1.62h-2.32c0,.71.24,1.73,0,1.92a2.47,2.47,0,0,1-2.07.17c-.54-.26-.77-1.12-1.37-2.11l-1.58-.09c-.06.23-.1.36-.14.5-.14.6-.29,1.2-.43,1.8a18,18,0,0,1-2.36-1.19,9.65,9.65,0,0,1-1.45-1.86c-.29,1.43-.32,2.53-.55,2.57a6.8,6.8,0,0,1-2.65-.14,6.63,6.63,0,0,1-.11-1.66l-2-.24v2l-2.88-.1.28-1.93-2-.15c-.13.8-.1,1.9-.37,2a4.69,4.69,0,0,1-2.6,0c-.29-.09-.26-1.19-.41-2-1.86-.61-2.19,4-4.86,1.51l.51-1.58H93Z" transform="translate(-8.52 -5.7)"/><path class="cls-1" d="M93,196.84l0,1.89-.45.49-1.1,0-2.53-.58v2.55c-3.54.15-4-.14-3.35-2.72-1.78.77-2.59,3.81-5.13,1.73l.72-1.91c-1.53,1-2.55,2-3.77,2.34a17,17,0,0,1-4.28.08l-.12-1,3.82-1-2.85-.88,0-.62,3.23-.75-2.2-.71V195l7.52-.33c2.58.22,5.17.39,7.75.7a15.68,15.68,0,0,1,2.78.87C93,196.44,93,196.64,93,196.84Z" transform="translate(-8.52 -5.7)"/><path class="cls-1" d="M117.46,207.3l3.93.67-.12,1.07a21.16,21.16,0,0,1-2.51.27q-13.74-.18-27.47-.42c-1,0-2.69.42-1.83-1.72Z" transform="translate(-8.52 -5.7)"/><path class="cls-1" d="M154.45,217.66c.16-1.46.33-2.92.49-4.38l1-1c-2.22-2.35-.11-3.86,1.05-5.55.61,1.25-1.72,3.13.85,4-.79,1.38-.39,2.48.72,3.5s2.08,2.08,3.43,3.45Z" transform="translate(-8.52 -5.7)"/><path class="cls-1" d="M80.4,205.72l-9.77,0c.63-.47,1.23-1.28,1.9-1.34,2.19-.18,4.41-.1,6.61-.08C80.05,204.27,81.17,204.22,80.4,205.72Z" transform="translate(-8.52 -5.7)"/><path class="cls-1" d="M145.48,202.82c1.29,1.24.29,1.46-.72,1.48-2.44.06-4.88,0-7.32,0l-1.28-.74.13-.78Z" transform="translate(-8.52 -5.7)"/><path class="cls-1" d="M141.88,207.21l-7.53-.48.07-1.3,7.53.33Z" transform="translate(-8.52 -5.7)"/><path class="cls-1" d="M144.49,198.27l-.06,1.35-8.46-.43a20.85,20.85,0,0,1,3.61-1A47.36,47.36,0,0,1,144.49,198.27Z" transform="translate(-8.52 -5.7)"/><path class="cls-1" d="M72.09,202.06h6.83v.66H72.09Z" transform="translate(-8.52 -5.7)"/><path class="cls-1" d="M83.55,206.78c-.49-.63-1-1.26-1.48-1.88l4.36-.56c-.23.67-.47,1.33-.71,2Z" transform="translate(-8.52 -5.7)"/><path class="cls-1" d="M90,206.3c-1-.4-3.31.81-2.45-2a12,12,0,0,1,2.24,0,5.11,5.11,0,0,1,1.44.72Z" transform="translate(-8.52 -5.7)"/><path class="cls-1" d="M126.92,208.33c-1,1.41-3,1.87-3.83.76-.22-.28.23-1.09.37-1.65Z" transform="translate(-8.52 -5.7)"/><path class="cls-1" d="M148.28,210.15l-3.9-.6.12-.86c1.41-.53,2.8-.93,4,.42Z" transform="translate(-8.52 -5.7)"/><path class="cls-1" d="M69.53,206.93l5.45.84a21.38,21.38,0,0,1-3.85.5C70.58,208.25,70.06,207.4,69.53,206.93Z" transform="translate(-8.52 -5.7)"/><path class="cls-1" d="M149.92,210.68a11.21,11.21,0,0,1,.1-1.93,36.57,36.57,0,0,1,3.78-.08l.06,1.14-2.39.48Z" transform="translate(-8.52 -5.7)"/><path class="cls-1" d="M97.72,201.4l1.53,1.45c-.6.29-1.21.81-1.81.8s-1.14-.56-1.72-.88Z" transform="translate(-8.52 -5.7)"/><path class="cls-1" d="M92.73,204.87h3.5l.06,1-3.46.27Z" transform="translate(-8.52 -5.7)"/><path class="cls-1" d="M90.74,202.11H94a7.28,7.28,0,0,1-.13,1.21c-1,.08-2.11.05-3.17.05Z" transform="translate(-8.52 -5.7)"/><path class="cls-1" d="M120.91,202.55l3.2.17a7.16,7.16,0,0,1-.16,1.21c-1,0-2.08-.08-3.12-.14Z" transform="translate(-8.52 -5.7)"/><path class="cls-1" d="M131.88,209.72h-2.82l-.75-1.38c.75-.14,1.61-.57,2.22-.34S131.44,209.12,131.88,209.72Z" transform="translate(-8.52 -5.7)"/><path class="cls-1" d="M117.37,205.41c0,.25,0,.5,0,.75-1.46.64-2.88,1.11-4.09-.73C114.75,204.25,116.06,204.66,117.37,205.41Z" transform="translate(-8.52 -5.7)"/><path class="cls-1" d="M122.39,206.73l-4-.45c.76-.48,1.54-1.32,2.29-1.31C121.29,205,121.83,206.1,122.39,206.73Z" transform="translate(-8.52 -5.7)"/><path class="cls-1" d="M149.92,210.68l1.55-.39,2.42,2.07-3.93.9C149.94,212.4,149.93,211.54,149.92,210.68Z" transform="translate(-8.52 -5.7)"/><path class="cls-1" d="M100.67,202.69c.24-.18.49-.51.74-.51.94,0,1.87.12,2.81.19-.1.37-.18,1-.32,1-1.06.09-2.14.05-3.21.05Z" transform="translate(-8.52 -5.7)"/><path class="cls-1" d="M115.92,202.49l3.2.18a4.53,4.53,0,0,1-.14,1c-1,.06-2.07,0-3.11,0Z" transform="translate(-8.52 -5.7)"/><path class="cls-1" d="M91.43,199.24l1.1,0,1,1.12a10.22,10.22,0,0,1-2.18.69c-.35,0-.77-.43-1.16-.67Z" transform="translate(-8.52 -5.7)"/><path class="cls-1" d="M129.32,205l3.37.48-.14,1.16-3.46-.29Z" transform="translate(-8.52 -5.7)"/><path class="cls-1" d="M105.83,202.49l3.45-.41C108.59,204,108,204.18,105.83,202.49Z" transform="translate(-8.52 -5.7)"/><path class="cls-1" d="M137.08,209.72l-3.73-.59.17-1.06,3.74.45Z" transform="translate(-8.52 -5.7)"/><path class="cls-1" d="M111.66,206H108.3v-.89h3.37Z" transform="translate(-8.52 -5.7)"/><path class="cls-1" d="M139.36,208.66H143l0,.75h-3.69Z" transform="translate(-8.52 -5.7)"/><path class="cls-1" d="M126.46,202.55l3,.55c-.1.35-.21,1-.3,1-1,0-2-.16-3.05-.26Z" transform="translate(-8.52 -5.7)"/><path class="cls-1" d="M123.53,206.23c1.19-2.19,2.47-1,3.73-.54l-.05,1.05-3.69-.52Z" transform="translate(-8.52 -5.7)"/><path class="cls-1" d="M106.63,205.91h-3.42l0-.95,3.4-.17Z" transform="translate(-8.52 -5.7)"/><path class="cls-1" d="M139,200.81h5.8l.06.81-4.42.23Z" transform="translate(-8.52 -5.7)"/><path class="cls-1" d="M47,177.2a15.65,15.65,0,0,1,3.22.13c.94.21,2.27.61,2.57,1.31.57,1.28,1.24,2.93-.4,4.48-1.29-2.46-2.51-2.8-3.76-.19a2.84,2.84,0,0,1-2-.46c-1-1.12-1.47-.66-2,.25,0-1,.06-2,0-3C44.38,177.94,45.12,177.07,47,177.2Z" transform="translate(-8.52 -5.7)"/><path class="cls-1" d="M49,176.29c-2.34.39-2.41-1.54-3-2.95,1.29.67,3.8.1,3,2.95Z" transform="translate(-8.52 -5.7)"/><path class="cls-1" d="M165.92,213.79c.48,1.18,1,2.35,1.45,3.53a5.78,5.78,0,0,1-1.45-.08,18.45,18.45,0,0,1-2.12-.86c.48-.63.95-1.27,1.45-1.89A8.82,8.82,0,0,1,165.92,213.79Z" transform="translate(-8.52 -5.7)"/><path class="cls-1" d="M114.22,280.28h52.23c3.42,0,3.5.09,3.5,3.52,0,4.08,0,8.17,0,12.25,0,1.89-.76,2.74-2.68,2.71-3.75-.05-7.5,0-11.24,0H62.31c-4.29,0-4.31,0-4.31-4.32,0-3.66,0-7.33,0-11,0-2.85.35-3.14,3.47-3.15ZM66.47,290.76c3.73,1.66,4.21,1.54,6-1.48l.41-.23-.9-.23c-1.91-1-3.8-1.62-5.53.34l-1.37-2-.5,2.28-2.86-3.13v5l.46,0,.44-2C64.12,289.56,64.24,293,66.47,290.76Zm20.36,1.48L88,288.89l.95,2.57.44-.07.52-4.38c-1.31-.11-2.63-.55-2.93-.18a24.31,24.31,0,0,0-2.17,4l.81.4c.18-.5.36-1,.55-1.48Zm-10.62-3,2.16,2.57c.64-.62,1.86-1.34,1.78-1.85-.12-.77-1.06-1.55-1.84-2C78.07,287.8,77.24,288.6,76.21,289.26Z" transform="translate(-8.52 -5.7)"/><path class="cls-1" d="M29,313.8c-1.76-1.68-1-3.86,0-5.12.61-.8,3.09-.76,4.44-.28,2.08.75,2.27,2.74,1.76,4.91-1.29-2.15-1.29-2.15-6-2.08L29,313.8Z" transform="translate(-8.52 -5.7)"/><path class="cls-1" d="M33,315.71l-2.45,0L29,313.8h0l4.84.53.38.73Z" transform="translate(-8.52 -5.7)"/><path class="cls-1" d="M46.87,235.83a16.09,16.09,0,0,0-.93-2.2,4,4,0,0,1,.74-5.37,5.73,5.73,0,0,1,6.47-.84c1.84,1,2.88,2.49,2.5,4.67A4.77,4.77,0,0,1,51,235.82C49.67,235.9,48.36,235.83,46.87,235.83Z" transform="translate(-8.52 -5.7)"/><path class="cls-1" d="M136.42,342.81c0-2.14,1.23-3.08,4.26-3.18,2.77-.08,4.61,1.05,4.63,2.87,0,3.1-2.54,7.38-4.45,7.41S136.47,346,136.42,342.81Zm4.12,4,.6-.05a27,27,0,0,0,.74-3.17c0-.29-.57-.95-.84-.93-.47,0-1.3.54-1.27.76A27.16,27.16,0,0,0,140.54,346.85Z" transform="translate(-8.52 -5.7)"/><path class="cls-1" d="M106.14,348.7H104.4c-3.89,0-3.87,0-3.73-3.86,0-1.2.21-2,1.66-2.28,1.18-.22,2.31-1.46,3.36-1.34a9.82,9.82,0,0,1,5.17,1.88c.79.7.49,2.79.41,4.25,0,.46-.85,1.18-1.4,1.27a24.37,24.37,0,0,1-3.73.06Zm-.1-7.34c-1.28,1.74-2.44,2.67-2.65,3.77-.33,1.7.89,2.83,2.62,2.85a2.43,2.43,0,0,0,2.69-2.82C108.53,344.06,107.33,343.12,106,341.36Z" transform="translate(-8.52 -5.7)"/><path class="cls-1" d="M172.2,348.51c1.75-2.78,4.94-2.81,6.91,0Z" transform="translate(-8.52 -5.7)"/><path class="cls-1" d="M75.47,101.22c-.29-2,1.06-3.47,3.62-3.88a29.43,29.43,0,0,1,2.94-.2c.73-3.79,5-6.31,9.53-5.72a2.57,2.57,0,0,1,.48.11C95.7,93,99.14,94,102.46,90.44c.89-1,3.14-.83,4.77-.84,4.94,0,9.88,0,14.81.23,1.69.1,3.35,1,5,1.71,2,.83,3.81,2.17,5.85,2.62,2.34.52,1.34-1.28,1.1-2.38.8.12,2,0,2.34.41,1.71,2.1,2.67.67,3.85-1v3c4.7-.06,9.24.24,13.63-1.94,3.13-1.56,6.51-2.49,6.19-7,.16.71.31,1.43.48,2.14.22,1-.57,2.65,1.39,2.42.32,0,.46-1.68.66-2.58a1.67,1.67,0,0,0-.05-.49,6.42,6.42,0,0,0,2.29.71,53.46,53.46,0,0,0,7.57-1.3,27.31,27.31,0,0,1,10.27-1.1c2.71.28,5.53-.51,8.3-.82,0,1,0,2,0,3l-4.4,2H184c.16.84.32,1.67.47,2.51l6.4,3.1q0,6.19,0,12.38c-.86,1-1.7,1.94-2.58,2.86-.64.66-1.34,1.26-2,1.88a9,9,0,0,1-.77-2.42,73.88,73.88,0,0,1,.08-8.42c.19-2.17-.68-2.9-2.64-2.84-2.54.08-5.08.22-7.62.24s-5.47,1.63-7.76-1.09c-.25-.29-1.1-.09-1.66-.11-1.74.12-3.47.34-5.2.36-9.8.17-19.61.26-29.41.46-2.62.05-5.24.4-7.86.62-5.2-.28-10.4-.75-15.59-.76s-10.42.45-15.63.7-10.24-.34-15.3.38v.9l1.09.26a1,1,0,0,1,.44.08ZM99,94.77c-1.27-.33-2.72-.38-3.77-1-4-2.53-9.44-1.65-11.44,2.51H99l13.42-.71C109.1,91.43,103.61,91.22,99,94.77Zm81.72-7.88a10.53,10.53,0,0,0-2.63-1c-.39,0-.8.68-1.21,1.06a9.7,9.7,0,0,0,2.08,1C179.29,88,179.76,87.47,180.7,86.89Z" transform="translate(-8.52 -5.7)"/><path class="cls-1" d="M190.88,84.25c-2.77.31-5.59,1.1-8.3.82a27.31,27.31,0,0,0-10.27,1.1,53.46,53.46,0,0,1-7.57,1.3,6.42,6.42,0,0,1-2.29-.71,17.41,17.41,0,0,1-.64-2.8c-.31-4.9-1.92-6.72-6.86-7.55-.81-.13-1.65-.11-2.48-.16a34.69,34.69,0,0,0-4,.37c-4.69,1-9.37,2.08-14,3.13a20.45,20.45,0,0,1-13-5c-.39-1.17-.3-1.67,1.23-1.42,3.48.59,7,1,10.5,1.4.41.05,1,.16,1.23,0,3.08-2.49,6.36-.37,9.53-.46,3.39-.09,6.77-.43,10.15-.44,3,0,6.06.43,9.08.37A12.24,12.24,0,0,0,167.75,73c4.38-2,9-2.06,13.64-2,2.61,0,5.22-.21,7.82-.26a5.42,5.42,0,0,1,1.67.46Z" transform="translate(-8.52 -5.7)"/><path class="cls-1" d="M182.94,98.27c2-.06,2.84.67,2.65,2.84a73.88,73.88,0,0,0-.08,8.42,9,9,0,0,0,.77,2.42c.67-.62,1.37-1.22,2-1.88.88-.92,1.72-1.9,2.58-2.86,0,5.34,0,10.67,0,16,0,3.49,0,3.52-3.45,3.56H186c0-2.48-.43-5.08.21-7.39,1-3.5-.8-5.94-2.21-8.63,0-2.83,0-5.66-.05-8.5l0-3Z" transform="translate(-8.52 -5.7)"/><path class="cls-1" d="M184,110.76c1.41,2.69,3.18,5.13,2.21,8.63-.64,2.31-.18,4.91-.21,7.39l-.51,26.48a46.6,46.6,0,0,1-.55,5,27.73,27.73,0,0,1-1.42,3.94q0-9.76-.07-19.51Q183.69,126.73,184,110.76Z" transform="translate(-8.52 -5.7)"/><path class="cls-1" d="M190.88,94.83l-6.4-3.1c.68-.83,1.35-1.67,2-2.5l4.4-2C190.89,89.75,190.89,92.29,190.88,94.83Z" transform="translate(-8.52 -5.7)"/><path class="cls-1" d="M160.52,201.67l3.46-1.94,10.43,2.12,1.52.93c-.22.24-.55.73-.63.69-2.8-1.32-4.93.89-7.38,1.34Z" transform="translate(-8.52 -5.7)"/><path class="cls-1" d="M184,217.31a16.37,16.37,0,0,1-2.78-2.21c-.33-.4,0-1.37.08-2.08.63.4,1.47.66,1.84,1.22a15.77,15.77,0,0,1,1.19,2.93A1.22,1.22,0,0,0,184,217.31Z" transform="translate(-8.52 -5.7)"/><path class="cls-1" d="M183.42,142.72q0,9.75.07,19.51c0,.83-.07,1.66,0,2.49.08,1.59-.48,2.34-2.19,2.66a26.18,26.18,0,0,0-4.82,1.89,8,8,0,0,0-6.38-2.83,45.77,45.77,0,0,0-5.76,1c-3.45-.66-7.12-1.77-10.84-2-7.3-.48-14.64-.6-22-.63-3.19,0-6.38.61-9.58.82-.61,0-1.71-.41-1.83-.84-.45-1.67-1.6-2-3-2q-12.84-.51-25.68-1.07a24.51,24.51,0,0,1-2.91-.48H107c6.12.38,12.24.72,18.35,1.14,7,.48,14.07,1,21.1,1.54q12,.93,24.05,1.9c3.51.3,7,.66,10.54.87.61,0,1.27-.57,1.9-.88l0-4.06c0-3.17,0-6.33,0-9.5S183.26,145.9,183.42,142.72Z" transform="translate(-8.52 -5.7)"/><path class="cls-1" d="M183,152.26c0,3.17,0,6.33,0,9.5-1.6.49-3.22,1.49-4.78,1.4-7.79-.44-15.57-1.18-23.36-1.75a12.63,12.63,0,0,0-2.88.43l-2.38-.65a7.44,7.44,0,0,0-1.45-.34C132,160,116,159.13,99.9,158.36c-1-.05-1.94.6-2.91.93l-19-1c-1.49,0-3-.11-4.47,0a5.9,5.9,0,0,0-1.82.86l1.75,1.2.06.38c-2.65-.06-2.84-.4-2-3.47.29-2,.58-4.07,1-6.8l2,3.12a8.59,8.59,0,0,0,.6-1.64c.27-2.56.35-5.15.82-7.68a3.11,3.11,0,0,1,2-1.89c1.27-.3,2.83-.36,3.52,1.69l-3.8.38,0,.2,3.58.34a4.59,4.59,0,0,1-2.26.4c-1.49.14-2,1-1.59,2.45.32,1.07.68,2.13,1,3.19l-.57.32,2.1.8-1.08,1.38c3.31,1.57,5.52.28,5.6-3.09,0-1.58.19-3.15.27-4.73.34-6.19.69-12.39,1-18.58.26-5.23.72-10.47.63-15.7s-3.33-7.93-8.69-7.61c-1.57.1-3.14.3-4.71.45l-.48-2.47h0l.57.06c.73.46,1.42,1.27,2.18,1.33,2.37.2,4.77.11,7.16.13,1.24.13,2.47.35,3.7.37q19.05.36,38.1.64a11.25,11.25,0,0,0,2.19-.41,23.49,23.49,0,0,1,3.4-.59c11.13-.4,22.27-.68,33.39-1.11,6-.23,11.95-.65,17.92-1a11.13,11.13,0,0,0,1.91-.48L183,100l-3-.3,4-.43,0,3-2.87,2.9.88,1.15c-2.21.31-4.41.87-6.41-.84-.39-.34-1.28-.16-1.94-.12-2.48.11-5,.26-7.44.41-.7,0-1.39.14-2.09.22l-.21.52,1.25.24-.43.33h-6v-.16l4-.38c-.77-.43-1-.65-1.17-.64-2.36.2-4.59.61-6.87-1-1.32-.92-2.36.57-2.6,2.07s.26,2.29,1.81,2.3,3.29,0,4.93,0a33.71,33.71,0,0,1-5.44.57,2.45,2.45,0,0,0-1.61,1.5,2.24,2.24,0,0,0,.65,2,2.63,2.63,0,0,0,2.08,0,19,19,0,0,0,2.69-1.53l.37.6-.55,1.06.32.78c3.84-3.94,8.74-3,13.42-3.09l-.09-.62-1.49-.44.05-.31h4.24l5,.12a15.91,15.91,0,0,0-2.39,1.71c-.88.91-2.12,2-2.22,3-.19,1.91-1.16,2.44-2.69,2.61-1.86.2-3.73.33-5.6.49l-.28.72c.78.31,1.91,1.11,2.28.84,3.16-2.28,5.77-.06,8.58,1a56.84,56.84,0,0,1-9.44.92c-1.82,0-3.65-.34-5.46-.3-.67,0-1.31.7-2,1.07.71.42,1.4,1.16,2.14,1.21,6.6.47,13.21.82,19.82,1.22.08,0,.16.24.48.72-4.1.28-8.3-.72-12.2,1.83,4,2.76,8.28,1.67,12.22,2.66l-21,.85-.24,1.83c-3,0-6.13.73-8.22-3.2a20.66,20.66,0,0,0-1.14,3.81,2.26,2.26,0,0,0,.94,1.69,22,22,0,0,0,3.22,1.46l1.62-1.2,0,.6,4.93,1.21a46.22,46.22,0,0,0-.53,5,2.06,2.06,0,0,0,1.35,1.47,3,3,0,0,0,2.14-.82,1.92,1.92,0,0,0,.18-1.79c-.29-.61-1-1-1.52-1.49l1.78-3-3.25-.72.11-1h5.41a12.23,12.23,0,0,1-.69,3.38c-.84,1.61-.52,2.86,1.14,2.91,3.31.12,4.52,2.61,6.26,4.64,1,1.2,2.22,2.92,3.52,3.1A6,6,0,0,1,183,152.26Zm-55.18-40.72.18-.79a13.46,13.46,0,0,0-3.46-1c-8.36-.08-16.72,0-25.08,0a28.23,28.23,0,0,0-3.8.12c-.49.08-.9.75-1.34,1.16l.3.51Zm-36.1,8.61.54.88H115.9v-.66c-3.2-.2-6.42-.29-9.61-.65-1-.12-2-1.31-3-1.37a62.46,62.46,0,0,0-9,0C93.39,118.46,92.55,119.54,91.67,120.15Zm.37,12-.1.92a6.3,6.3,0,0,0,1.9,1.08c7.6,1.11,15.13-.64,22.71-.59.07,0,.14-.24.25-.44a2.14,2.14,0,0,0-.66-.27l-18.48-1.18a6.56,6.56,0,0,0-1.23-.15C95,131.69,93.51,131.92,92,132.14Zm2.68-7,13.78,1.26c-.37-2.22-1.38-2.87-3.87-2.54-3.25.43-6.4.49-9.51-.86A3.85,3.85,0,0,0,92,123c-1,.62-1.49,2-2.2,3,.89.26,1.87.88,2.64.67A7.15,7.15,0,0,0,94.72,125.13Zm56.8,22.48c.35,2.73.6,3.11,2,3,2.29-.09,4.95,1.3,6.63-1.57.13-.22,1.05.06,1.61.07h5l0-.87Zm5.27,6.81,0-.78h10l0-.82-15.11-.68c-.2,2.28.65,3,2.23,3.18,1.33.12,2.66.28,4,.43l.11-.57ZM92.92,139.71l1.32-2.34c1.57,1.81,3.38,1.9,4.86.32-2.29-1.64-5.76-2.35-7.59-1.41-1.11.56-3.47,1.06-.56,2.58l-.57.85Zm58.14,16.91c1.34,2.85,10.62,3.19,14.4.79Zm5-39,.42,1,6.29-2.59-.24-.78c-2.89,0-5.78,0-8.67,0a4.13,4.13,0,0,0-2,.71,1.9,1.9,0,0,0,.46,1.43,7.94,7.94,0,0,0,2.16.71l.46-.81-1.55-.45.44-.63,4.23.33Zm3.81,20.87c-5.85-.76-5.9-.73-6.18,3.45l6.18-1Zm-23.58-27.2c-2.11-2.27-5.94-1.91-6.92.5ZM116.68,138v-.5h-8.49v.5Z" transform="translate(-8.52 -5.7)"/><path class="cls-1" d="M73,104.25c1.57-.15,3.14-.35,4.71-.45,5.36-.32,8.59,2.29,8.69,7.61s-.37,10.47-.63,15.7c-.31,6.19-.66,12.39-1,18.58-.08,1.58-.23,3.15-.27,4.73-.08,3.37-2.29,4.66-5.6,3.09L80,152.13l-2.1-.8.57-.32c-.34-1.06-.7-2.12-1-3.19-.4-1.4.1-2.31,1.59-2.45a4.59,4.59,0,0,0,2.26-.4l-3.58-.34,0-.2,3.8-.38c-.69-2.05-2.25-2-3.52-1.69a3.11,3.11,0,0,0-2,1.89c-.47,2.53-.55,5.12-.82,7.68a8.59,8.59,0,0,1-.6,1.64l-2-3.12c-.4,2.73-.69,4.77-1,6.8.28-10.52.58-21,.82-31.57.12-5,.1-10,.15-14.93Q72.72,107.51,73,104.25Zm8.89,4.23.11-.83-6-1.13a18.78,18.78,0,0,1,.86,2.81,33.63,33.63,0,0,0,.2,3.77c.08.41,1.09.64,1.68.94l2-5.2Zm2.6,9.09a8.9,8.9,0,0,0-1.23-.29c-1.48-.12-3.32.47-3.58-1.92-.67.08-1.53-.07-2,.28a8.68,8.68,0,0,0-1.44,2.1A5.83,5.83,0,0,0,84.47,117.57Zm-3.36,24.09c-1.3-2.63-2.45-2.63-4.54,0Zm-1.23-4.48L79,136.09a9,9,0,0,0-1.91,1.44c-.15.19.48,1,.76,1.53Z" transform="translate(-8.52 -5.7)"/><path class="cls-1" d="M160,85.27c.32,4.47-3.06,5.4-6.19,7-4.39,2.18-8.93,1.88-13.63,1.94v-3c-1.18,1.66-2.14,3.09-3.85,1-.37-.46-1.54-.29-2.34-.41l-1.54-1,3.38-1.59.13-.83-2.87-1.46c2.88-1.09,4.9-2,7-2.62,4.56-1.48,9.06-3.55,13.73-4.11C159.48,79.44,161,80.73,160,85.27Z" transform="translate(-8.52 -5.7)"/><path class="cls-1" d="M160,85.27c1-4.54-.49-5.83-6.21-5.14-4.67.56-9.17,2.63-13.73,4.11-2.07.67-4.09,1.53-7,2.62l2.87,1.46-.13.83-3.38,1.59c-3.88-1.26-6.63-4.15-9-7.12-1.94-2.41-3-5.55-4.42-8.37l2.49-.49a20.45,20.45,0,0,0,13,5,17.45,17.45,0,0,0,2.64.48c5.51.2,10.53-1.55,15.37-4,.83,0,1.67,0,2.48.16,4.94.83,6.55,2.65,6.86,7.55a17.41,17.41,0,0,0,.64,2.8,1.67,1.67,0,0,1,.05.49c-.2.9-.34,2.54-.66,2.58-2,.23-1.17-1.44-1.39-2.42C160.28,86.7,160.13,86,160,85.27Z" transform="translate(-8.52 -5.7)"/><path class="cls-1" d="M73.06,101.85l-.57-.06,3-.57,3-.91c.83,0,1.66,0,2.49,0l21.62-.47,6.48,0h6.35l-.06-.55H91.52c-3.93,0-7.85-.08-11.78,0-.58,0-1.15.6-1.72.93L76.93,100v-.9c5.06-.72,10.21-.14,15.3-.38s10.42-.71,15.63-.7,10.39.48,15.59.76a14.72,14.72,0,0,0,3.43.81c6.15,0,12.29-.24,18.43-.37,4.45,0,8.9,0,13.34.12a10.14,10.14,0,0,1,2.83,1,10.13,10.13,0,0,1-1.91.44c-11.12.33-22.25.62-33.37,1a21.58,21.58,0,0,0-2.86.47c-1.66,0-3.32.08-5,.07Z" transform="translate(-8.52 -5.7)"/><path class="cls-1" d="M58.4,178.26c2.23-4.29,3.12-4.64,8.19-4.17,4,.37,8,.43,11.94.62l12.44.56,3.2,1.85-.34,1-8,.37,0,.65,8.61.66.46.93-2,1c-.58-.47-1.14-1.3-1.75-1.34-2-.12-4,.12-5.94.07a7.29,7.29,0,0,1-2.4-.72c-1-.42-2-1.32-3-1.33-4.05-.05-8.1.24-12.15.24C64.64,178.62,61.52,178.39,58.4,178.26Z" transform="translate(-8.52 -5.7)"/><path class="cls-1" d="M58.4,178.26c3.12.13,6.24.36,9.35.35,4,0,8.1-.29,12.15-.24,1,0,1.95.91,3,1.33a7.29,7.29,0,0,0,2.4.72c2,.05,4-.19,5.94-.07.61,0,1.17.87,1.75,1.34l-.48.14c-2.67.31-5.33.75-8,.89-1.7.09-3.43-.39-5.15-.4-6.72,0-13.45,0-20.17,0a7.4,7.4,0,0,1-1.32-.15c-.72-1.43-1.23-2.43-1.74-3.43Z" transform="translate(-8.52 -5.7)"/><path class="cls-1" d="M94.94,180.7l-.46-.93,3-.08c3.09-.81,5-3,5-5.92l.52,0c0,3.27.57,3.94,3.68,3.9,3.32,0,6.65-.22,10-.54.68-.06,1.28-1,1.92-1.51a2.89,2.89,0,0,0,3.06,2.28c2.31.1,4.6.52,6.9.79-.92,0-1.84,0-2.75.05-2.65.12-5.45-1.11-7.87.94-.52-.32-1-.91-1.58-.93-2.49-.07-5,0-7.49,0-1.72,0-3.43.17-5.14.26l0,.78h9.78l-.06.35H107.8c.41,2.69,1.92,2.26,3.25,2.17a21.72,21.72,0,0,0,4,1.81c2.79.66,5.66,1,8.5,1.51l-3.56.56a34.23,34.23,0,0,0-3.58-.59c-1.3-.09-2.61,0-3.91.08-3.48-1.63-6.64-3.81-10.68-4.4-2.22-.31-2.87-.24-2.83,1.91C98.5,181,96.49,181.23,94.94,180.7Z" transform="translate(-8.52 -5.7)"/><path class="cls-1" d="M113.44,180.22l.06-.35,4.41-.15c2.42-2.05,5.22-.82,7.87-.94.91,0,1.83,0,2.75-.05,1.54.18,3.08.37,4.62.51,3.6.35,7.21.68,10.81,1,2.51.21,3.92,1.46,4,4.05l0,0-2,.48a3,3,0,0,0,0-.42,63.48,63.48,0,0,0-7.53-2.22c-2.24-.39-4.61,0-6.9-.21C125.46,181.39,119.45,180.78,113.44,180.22Z" transform="translate(-8.52 -5.7)"/><path class="cls-1" d="M103,173.81l-.52,0c-1-1.82.17-2.85,1.59-3.16,2.32-.5,5.11-1.42,7-.59,2.34,1,5.87.89,6.78,4.35l-2.43,0-4.42-.17Z" transform="translate(-8.52 -5.7)"/><path class="cls-1" d="M115.46,174.34l2.43,0,.68,1.29c-.64.53-1.24,1.45-1.92,1.51-3.31.32-6.64.51-10,.54-3.11,0-3.64-.63-3.68-3.9l8,.36-4.82.3C109.16,175.7,113.91,175.42,115.46,174.34Z" transform="translate(-8.52 -5.7)"/><path class="cls-1" d="M78,158.27l19,1c-.25,1.63.94,1.39,1.9,1.45l8.08.51H88.48l-15-.53-.06-.38h7.68l0-.58Z" transform="translate(-8.52 -5.7)"/><path class="cls-1" d="M74,168.3c.48-.39.77-.84,1.06-.85a81,81,0,0,1,8.4.19c.7.07,1.28,1.36,1.91,2.1a14,14,0,0,1-2.45,1.35,14,14,0,0,1-2.91.41c-1.47.14-2.89.42-3.66-1.52C76.05,169.29,74.91,168.94,74,168.3Z" transform="translate(-8.52 -5.7)"/><path class="cls-1" d="M97.44,179.69l-3,.08-8.61-.66,0-.65,8-.37.34-1L91,175.27c2.12-.27,3.83-.13,4.14,2.67C95.18,178.6,96.63,179.11,97.44,179.69Z" transform="translate(-8.52 -5.7)"/><path class="cls-1" d="M109.43,87.72c-1.78.26-3.56.63-5.34.71-.43,0-.9-.94-1.36-1.45.47-.38,1-1.11,1.4-1.09,1.75.07,3.5.38,5.24.6Z" transform="translate(-8.52 -5.7)"/><path class="cls-1" d="M73,104.25q-.26,3.25-.5,6.5c-.48-.48-1.32-.93-1.36-1.44a44.1,44.1,0,0,1,0-6.4c0-.4.91-.75,1.4-1.13Z" transform="translate(-8.52 -5.7)"/><path class="cls-1" d="M149.2,173.26l3.42,2.67C149.82,177.14,149,176.6,149.2,173.26Z" transform="translate(-8.52 -5.7)"/><path class="cls-1" d="M99,183.27c0-2.15.61-2.22,2.83-1.91,4,.59,7.2,2.77,10.68,4.4l17.72,4,.24,2.51c-6.24-1.46-12.48-2.91-18.72-4.41a23.64,23.64,0,0,1-2.77-1c-2.23-1.91-4.66-3.11-7.74-2.73C100.49,184.16,99.71,183.56,99,183.27Z" transform="translate(-8.52 -5.7)"/><path class="cls-1" d="M145.94,184.73l2-.48-1.53,2.56-22.93-1.1c-2.84-.49-5.71-.85-8.5-1.51a21.72,21.72,0,0,1-4-1.81l-.08-.13a28.54,28.54,0,0,0,3.16.53c4.3.31,8.61.55,12.92.81Z" transform="translate(-8.52 -5.7)"/><path class="cls-1" d="M123.52,185.71l22.93,1.1a2.87,2.87,0,0,1-2.88,2.53c-3.43.4-6.83,1-10.27,1.39-.71.07-1.49-.64-2.25-1-.48-.51-.88-1.33-1.45-1.47-3.2-.76-6.43-1.35-9.64-2Z" transform="translate(-8.52 -5.7)"/><path class="cls-1" d="M99,183.27c.75.29,1.53.89,2.24.81,3.08-.38,5.51.82,7.74,2.73a14,14,0,0,1-3.27.22c-1.39-.23-2.69-1.06-4.07-1.21-3-.33-6.07-.4-9.11-.57,0-1.14,0-2.28,0-3.42l.48-.14,2-1C96.49,181.23,98.5,181,99,183.27Z" transform="translate(-8.52 -5.7)"/><path class="cls-1" d="M120,186.27c3.21.65,6.44,1.24,9.64,2,.57.14,1,1,1.45,1.47-.2.83-.41,1.67-.62,2.5-.07-.81-.15-1.63-.24-2.51l-17.72-4c1.3,0,2.61-.17,3.91-.08A34.23,34.23,0,0,1,120,186.27Z" transform="translate(-8.52 -5.7)"/><path class="cls-1" d="M87.49,185.24l-1.24-1.55c3.39-.9,4.37-.59,5.23,1.58Z" transform="translate(-8.52 -5.7)"/><path class="cls-1" d="M131.09,193.43c.12,3-.81,3.48-4.06,2.09Z" transform="translate(-8.52 -5.7)"/><path class="cls-1" d="M83.55,206.78l2.17-.44,2.13,1.07c-1,1.28-3.88,1.92-4.7,1C82.94,208.21,83.4,207.35,83.55,206.78Z" transform="translate(-8.52 -5.7)"/><path class="cls-1" d="M81.73,206.83c-1.11,1.75-4.12,2.47-5.12,1.59-.21-.18-.42-.65-.32-.82a1.39,1.39,0,0,1,.88-.73C78.59,206.79,80,206.83,81.73,206.83Z" transform="translate(-8.52 -5.7)"/><path class="cls-1" d="M66.46,289.16c1.73-2,3.62-1.33,5.53-.34l.49.46c-1.8,3-2.28,3.14-6,1.48Z" transform="translate(-8.52 -5.7)"/><path class="cls-1" d="M86.83,292.24c-.34-1.28-.49-1.87-.65-2.46-.19.49-.37,1-.55,1.48l-.81-.4a24.31,24.31,0,0,1,2.17-4c.3-.37,1.62.07,2.93.18l-.52,4.38-.44.07L88,288.89Z" transform="translate(-8.52 -5.7)"/><path class="cls-1" d="M66.46,289.16v1.6c-2.23,2.24-2.35-1.2-3.84-1.41l-.44,2-.46,0v-5l2.86,3.13.5-2.28Z" transform="translate(-8.52 -5.7)"/><path class="cls-1" d="M76.21,289.26c1-.66,1.86-1.46,2.1-1.3.78.47,1.72,1.25,1.84,2,.08.51-1.14,1.23-1.78,1.85Z" transform="translate(-8.52 -5.7)"/><path class="cls-1" d="M72.48,289.28l-.49-.46.9.23Z" transform="translate(-8.52 -5.7)"/><path class="cls-1" d="M140.54,346.85a27.16,27.16,0,0,1-.77-3.39c0-.22.8-.72,1.27-.76.27,0,.88.64.84.93a27,27,0,0,1-.74,3.17Z" transform="translate(-8.52 -5.7)"/><path class="cls-1" d="M106,341.36c1.29,1.76,2.49,2.7,2.66,3.8A2.43,2.43,0,0,1,106,348c-1.73,0-3-1.15-2.62-2.85C103.6,344,104.76,343.1,106,341.36Zm-.15,1.3c-.73,1.24-1.53,2-1.44,2.62a2.26,2.26,0,0,0,1.65,1.51,2.29,2.29,0,0,0,1.54-1.66C107.66,344.49,106.77,343.83,105.89,342.66Z" transform="translate(-8.52 -5.7)"/><path class="cls-1" d="M145.3,99.19c-6.14.13-12.28.32-18.43.37a14.72,14.72,0,0,1-3.43-.81c2.62-.22,5.24-.57,7.86-.62,9.8-.2,19.61-.29,29.41-.46,1.73,0,3.46-.24,5.2-.36l1.42.7-.06.59Z" transform="translate(-8.52 -5.7)"/><path class="cls-1" d="M99,96.23H83.77c2-4.16,7.44-5,11.44-2.51,1.05.67,2.5.72,3.77,1Z" transform="translate(-8.52 -5.7)"/><path class="cls-1" d="M145.3,99.19l22-.59.06-.59-1.42-.7c.56,0,1.41-.18,1.66.11,2.29,2.72,5.14,1.1,7.76,1.09s5.08-.16,7.62-.24l1,1-4,.43-18.45.59a10.14,10.14,0,0,0-2.83-1C154.2,99.18,149.75,99.21,145.3,99.19Z" transform="translate(-8.52 -5.7)"/><path class="cls-1" d="M99,96.23V94.77c4.63-3.55,10.12-3.34,13.42.75Z" transform="translate(-8.52 -5.7)"/><path class="cls-1" d="M78,100.23c.57-.33,1.14-.92,1.72-.93,3.93-.07,7.85,0,11.78,0l11,.53L81,100.31c-.83,0-1.66,0-2.49,0A1,1,0,0,0,78,100.23Z" transform="translate(-8.52 -5.7)"/><path class="cls-1" d="M180.7,86.89c-.94.58-1.41,1.1-1.76,1a9.7,9.7,0,0,1-2.08-1c.41-.38.82-1.07,1.21-1.06A10.53,10.53,0,0,1,180.7,86.89Z" transform="translate(-8.52 -5.7)"/><path class="cls-1" d="M186.5,89.23c-.67.83-1.34,1.67-2,2.5-.15-.84-.31-1.67-.47-2.51Z" transform="translate(-8.52 -5.7)"/><path class="cls-1" d="M152.47,76.25c-4.84,2.43-9.86,4.18-15.37,4a17.45,17.45,0,0,1-2.64-.48c4.68-1,9.36-2.14,14-3.13A34.69,34.69,0,0,1,152.47,76.25Z" transform="translate(-8.52 -5.7)"/><path class="cls-1" d="M181.93,106.31l-.88-1.15,2.87-2.9c0,2.84,0,5.67.05,8.5q-.27,16-.55,32-.24,4.77-.47,9.54a6,6,0,0,0-5.26-4c-1.3-.18-2.49-1.9-3.52-3.1-1.74-2-2.95-4.52-6.26-4.64-1.66-.05-2-1.3-1.14-2.91a12.23,12.23,0,0,0,.69-3.38c5,.07,5.28,0,6.49-2H160.47l.24-1.83,21-.85c-3.94-1-8.21.1-12.22-2.66,3.9-2.55,8.1-1.55,12.2-1.83-.32-.48-.4-.71-.48-.72-6.61-.4-13.22-.75-19.82-1.22-.74-.05-1.43-.79-2.14-1.21.66-.37,1.3-1,2-1.07,1.81,0,3.64.34,5.46.3a56.84,56.84,0,0,0,9.44-.92c-2.81-1-5.42-3.24-8.58-1-.37.27-1.5-.53-2.28-.84l.28-.72c1.87-.16,3.74-.29,5.6-.49,1.53-.17,2.5-.7,2.69-2.61.1-1.08,1.34-2.13,2.22-3a15.91,15.91,0,0,1,2.39-1.71l3.46-1.06.51-1.55Zm-.77,9.19V115h-5.92v.49Z" transform="translate(-8.52 -5.7)"/><path class="cls-1" d="M107,161.25l-8.08-.51c-1-.06-2.15.18-1.9-1.45,1-.33,2-1,2.91-.93,16.07.77,32.13,1.63,48.19,2.49a7.44,7.44,0,0,1,1.45.34l-2.27.22c1.59.87,2.85,2,4.28,2.25,2.58.49,5.27.37,7.9.67,3.68.42,7.34,1,11,1.5q-12-1-24.05-1.9c-7-.53-14.06-1.06-21.1-1.54C119.21,162,113.09,161.63,107,161.25Z" transform="translate(-8.52 -5.7)"/><path class="cls-1" d="M151.92,161.84a12.63,12.63,0,0,1,2.88-.43c7.79.57,15.57,1.31,23.36,1.75,1.56.09,3.18-.91,4.78-1.4l0,4.06c-9.35-1-18.7-2-28-3.08A16,16,0,0,1,151.92,161.84Z" transform="translate(-8.52 -5.7)"/><path class="cls-1" d="M151.92,161.84a16,16,0,0,0,2.94.9c9.35,1.07,18.7,2.06,28,3.08-.63.31-1.29.92-1.9.88-3.52-.21-7-.57-10.54-.87-3.68-.51-7.34-1.08-11-1.5-2.63-.3-5.32-.18-7.9-.67-1.43-.26-2.69-1.38-4.28-2.25l2.27-.22Z" transform="translate(-8.52 -5.7)"/><path class="cls-1" d="M181.93,106.31l.52.93c-2,0-4,0-6,.11s-4.11.36-6.18.4c-4.22.06-4.22,0-5.36,1.53h8.51v.45h-4.24l-.05.31,1.49.44.09.62c-4.68.11-9.58-.85-13.42,3.09l-.32-.78.55-1.06-.37-.6a19,19,0,0,1-2.69,1.53,2.63,2.63,0,0,1-2.08,0,2.24,2.24,0,0,1-.65-2,2.45,2.45,0,0,1,1.61-1.5,33.71,33.71,0,0,0,5.44-.57c-1.64,0-3.29,0-4.93,0s-2-.89-1.81-2.3,1.28-3,2.6-2.07c2.28,1.6,4.51,1.19,6.87,1,.19,0,.4.21,1.17.64l-4,.38v.16h6l.43-.33-1.25-.24.21-.52c.7-.08,1.39-.17,2.09-.22,2.48-.15,5-.3,7.44-.41.66,0,1.55-.22,1.94.12C177.52,107.18,179.72,106.62,181.93,106.31Z" transform="translate(-8.52 -5.7)"/><path class="cls-1" d="M161.47,100.29l18.45-.59,3,.3.06.71a11.13,11.13,0,0,1-1.91.48c-6,.37-11.94.79-17.92,1-11.12.43-22.26.71-33.39,1.11a23.49,23.49,0,0,0-3.4.59,11.25,11.25,0,0,1-2.19.41q-19-.28-38.1-.64c-1.23,0-2.46-.24-3.7-.37h43.28l0-.84-2.38-.31a21.58,21.58,0,0,1,2.86-.47c11.12-.34,22.25-.63,33.37-1A10.13,10.13,0,0,0,161.47,100.29Z" transform="translate(-8.52 -5.7)"/><path class="cls-1" d="M160.47,132.23H174c-1.21,2-1.51,2.1-6.49,2h-5.41l-.11,1,3.25.72-1.78,3c.51.48,1.23.88,1.52,1.49a1.92,1.92,0,0,1-.18,1.79,3,3,0,0,1-2.14.82,2.06,2.06,0,0,1-1.35-1.47,46.22,46.22,0,0,1,.53-5l-4.93-1.21,0-.6-1.62,1.2a22,22,0,0,1-3.22-1.46,2.26,2.26,0,0,1-.94-1.69,20.66,20.66,0,0,1,1.14-3.81C154.34,133,157.5,132.25,160.47,132.23Z" transform="translate(-8.52 -5.7)"/><path class="cls-1" d="M127.77,111.54H94.57l-.3-.51c.44-.41.85-1.08,1.34-1.16a28.23,28.23,0,0,1,3.8-.12c8.36,0,16.72,0,25.08,0a13.46,13.46,0,0,1,3.46,1Z" transform="translate(-8.52 -5.7)"/><path class="cls-1" d="M123.33,102.16l2.38.31,0,.84H82.4c-2.39,0-4.79.07-7.16-.13-.76-.06-1.45-.87-2.18-1.33l45.29.38C120,102.24,121.67,102.19,123.33,102.16Z" transform="translate(-8.52 -5.7)"/><path class="cls-1" d="M91.67,120.15c.88-.61,1.72-1.69,2.64-1.76a62.46,62.46,0,0,1,9,0c1,.06,2,1.25,3,1.37,3.19.36,6.41.45,9.61.65V121H92.21Z" transform="translate(-8.52 -5.7)"/><path class="cls-1" d="M92,132.14c1.47-.22,2.92-.45,4.39-.63a6.56,6.56,0,0,1,1.23.15l18.48,1.18a2.14,2.14,0,0,1,.66.27c-.11.2-.18.44-.25.44-7.58-.05-15.11,1.7-22.71.59a6.3,6.3,0,0,1-1.9-1.08Z" transform="translate(-8.52 -5.7)"/><path class="cls-1" d="M94.72,125.13a7.15,7.15,0,0,1-2.28,1.51c-.77.21-1.75-.41-2.64-.67.71-1,1.23-2.36,2.2-3a3.85,3.85,0,0,1,3.12,0c3.11,1.35,6.26,1.29,9.51.86,2.49-.33,3.5.32,3.87,2.54Z" transform="translate(-8.52 -5.7)"/><path class="cls-1" d="M151.52,147.61l15.27.67,0,.87h-5c-.56,0-1.48-.29-1.61-.07-1.68,2.87-4.34,1.48-6.63,1.57C152.12,150.72,151.87,150.34,151.52,147.61Z" transform="translate(-8.52 -5.7)"/><path class="cls-1" d="M156.79,154.42l1.12.76-.11.57c-1.33-.15-2.66-.31-4-.43-1.58-.15-2.43-.9-2.23-3.18l15.11.68,0,.82h-10Z" transform="translate(-8.52 -5.7)"/><path class="cls-1" d="M92.92,139.71H90.38l.57-.85c-2.91-1.52-.55-2,.56-2.58,1.83-.94,5.3-.23,7.59,1.41-1.48,1.58-3.29,1.49-4.86-.32Z" transform="translate(-8.52 -5.7)"/><path class="cls-1" d="M151.06,156.62l14.4.79C161.68,159.81,152.4,159.47,151.06,156.62Z" transform="translate(-8.52 -5.7)"/><path class="cls-1" d="M156,117.63l2-1.06-4.23-.33-.44.63,1.55.45-.46.81a7.94,7.94,0,0,1-2.16-.71,1.9,1.9,0,0,1-.46-1.43,4.13,4.13,0,0,1,2-.71c2.89-.07,5.78,0,8.67,0l.24.78-6.29,2.59Z" transform="translate(-8.52 -5.7)"/><path class="cls-1" d="M159.83,138.5V141l-6.18,1C153.93,137.77,154,137.74,159.83,138.5Z" transform="translate(-8.52 -5.7)"/><path class="cls-1" d="M78,158.27l3.17,1.49,0,.58H73.43l-1.75-1.2a5.9,5.9,0,0,1,1.82-.86C75,158.16,76.48,158.26,78,158.27Z" transform="translate(-8.52 -5.7)"/><path class="cls-1" d="M136.25,111.3l-6.92.5C130.31,109.39,134.14,109,136.25,111.3Z" transform="translate(-8.52 -5.7)"/><path class="cls-1" d="M116.68,138h-8.49v-.5h8.49Z" transform="translate(-8.52 -5.7)"/><path class="cls-1" d="M173.46,109.73v-.45l8.48-.49-3.46,1.06Z" transform="translate(-8.52 -5.7)"/><path class="cls-1" d="M81.87,108.48l-1.18.36-2,5.2c-.59-.3-1.6-.53-1.68-.94a33.63,33.63,0,0,1-.2-3.77,18.78,18.78,0,0,0-.86-2.81l6,1.13Z" transform="translate(-8.52 -5.7)"/><path class="cls-1" d="M84.47,117.57a5.83,5.83,0,0,1-8.22.17,8.68,8.68,0,0,1,1.44-2.1c.44-.35,1.3-.2,2-.28.26,2.39,2.1,1.8,3.58,1.92A8.9,8.9,0,0,1,84.47,117.57Z" transform="translate(-8.52 -5.7)"/><path class="cls-1" d="M81.11,141.66H76.57C78.66,139,79.81,139,81.11,141.66Z" transform="translate(-8.52 -5.7)"/><path class="cls-1" d="M79.88,137.18l-2,1.88c-.28-.53-.91-1.34-.76-1.53A9,9,0,0,1,79,136.09Z" transform="translate(-8.52 -5.7)"/><path class="cls-1" d="M102.57,99.84l-11-.53h23.82l.06.55h-6.35Z" transform="translate(-8.52 -5.7)"/><path class="cls-1" d="M113.44,180.22c6,.56,12,1.17,18,1.66,2.29.19,4.66-.18,6.9.21a63.48,63.48,0,0,1,7.53,2.22l-35.78-3.52-.17.55,1,.92.08.13c-1.33.09-2.84.52-3.25-2.17Z" transform="translate(-8.52 -5.7)"/><path class="cls-1" d="M117.91,179.72l-4.41.15h-9.78l0-.78c1.71-.09,3.42-.22,5.14-.26,2.5-.06,5-.11,7.49,0C116.87,178.81,117.39,179.4,117.91,179.72Z" transform="translate(-8.52 -5.7)"/><path class="cls-1" d="M111,182.26l-1-.92.17-.55,35.78,3.52a3,3,0,0,1,0,.42l-18.89-1.13c-4.31-.26-8.62-.5-12.92-.81A28.54,28.54,0,0,1,111,182.26Z" transform="translate(-8.52 -5.7)"/><path class="cls-1" d="M115.46,174.34c-1.55,1.08-6.3,1.36-9.24.13l4.82-.3Z" transform="translate(-8.52 -5.7)"/><path class="cls-1" d="M105.89,342.66c.88,1.17,1.77,1.83,1.75,2.47a2.29,2.29,0,0,1-1.54,1.66,2.26,2.26,0,0,1-1.65-1.51C104.36,344.65,105.16,343.9,105.89,342.66Z" transform="translate(-8.52 -5.7)"/><path class="cls-1" d="M181.94,108.79l-8.48.49H165c1.14-1.51,1.14-1.47,5.36-1.53,2.07,0,4.12-.31,6.18-.4s4-.08,6-.11Z" transform="translate(-8.52 -5.7)"/><ellipse class="cls-1" cx="169.67" cy="109.55" rx="4.19" ry="0.35"/></svg>