
<svg width="100" height="auto" version="1.1" viewBox="0 0 1200 1200" xmlns="http://www.w3.org/2000/svg">
 <g fill="#FFFFFF" fill-rule="evenodd">
  <path d="m600 86.605c-283.09 0-513.39 230.31-513.39 513.39s230.3 513.39 513.39 513.39c283.09-0.003906 513.39-230.3 513.39-513.39s-230.31-513.39-513.39-513.39zm0 1043.1c-141.48 0-274.5-55.098-374.54-155.14-100.05-100.05-155.14-233.06-155.14-374.54 0-141.49 55.098-274.5 155.14-374.55 100.04-100.05 233.06-155.14 374.54-155.14 141.48-0.003906 274.5 55.098 374.55 155.14 100.04 100.04 155.14 233.06 155.14 374.55 0 141.48-55.109 274.5-155.14 374.54-100.05 100.04-233.06 155.14-374.55 155.14z"/>
  <path d="m600 227.68c-205.29 0-372.31 167.02-372.31 372.32 0 205.29 167.02 372.31 372.31 372.31 205.3-0.003906 372.32-167.02 372.32-372.31 0-205.3-167.03-372.32-372.32-372.32zm0 760.93c-214.28 0-388.61-174.33-388.61-388.61 0-214.29 174.33-388.61 388.61-388.61 214.28-0.003907 388.62 174.33 388.62 388.61 0 214.28-174.34 388.61-388.62 388.61z"/>
  <path d="m557.62 230.02c-2.8633 0-5.6367-1.5078-7.1289-4.1875-2.1914-3.9336-0.77734-8.8945 3.1562-11.082l101.56-56.531-99.805-71.645c-3.6562-2.6211-4.4922-7.7148-1.8711-11.367 2.625-3.6562 7.7148-4.4922 11.371-1.8672l110.24 79.133c2.2656 1.6289 3.543 4.3047 3.3828 7.0898s-1.7344 5.2969-4.1719 6.6523l-112.79 62.773c-1.2539 0.69531-2.6172 1.0312-3.957 1.0312z"/>
  <path d="m1009.9 431.2c-1.3359 0-2.6523-0.32422-3.8828-0.98438l-113.46-61.539c-3.957-2.1484-5.4258-7.0898-3.2773-11.047 2.1484-3.957 7.0938-5.4219 11.047-3.2773l102.18 55.414 6.9805-122.66c0.25391-4.4922 4.0742-7.9141 8.5938-7.6719 4.5 0.25391 7.9375 4.1055 7.6836 8.5977l-7.7031 135.49c-0.16797 2.7812-1.7422 5.2969-4.1797 6.6562-1.2305 0.68359-2.5898 1.0312-3.9688 1.0273z"/>
  <path d="m969.13 859.33c-1.3359 0-2.6758-0.32812-3.8828-0.98438-2.4609-1.332-4.0547-3.8203-4.2422-6.6055l-8.8477-128.6c-0.31641-4.4922 3.0781-8.3789 7.5547-8.6875 4.5-0.29297 8.3828 3.082 8.6992 7.5742l7.9609 115.78 107.44-59.953c3.9258-2.1914 8.8906-0.78125 11.098 3.1484 2.1875 3.9297 0.78516 8.8945-3.1602 11.086l-118.64 66.211c-1.2305 0.69141-2.6094 1.0352-3.9688 1.0352z"/>
  <path d="m705.32 1119c-1.3125 0-2.6367-0.3125-3.8711-0.98047l-119.46-64.633c-2.457-1.3281-4.0625-3.8203-4.2539-6.6016-0.19531-2.7852 1.0508-5.4727 3.2969-7.125l103.84-76.441c3.625-2.668 8.7266-1.8906 11.395 1.7344 2.668 3.6211 1.8945 8.7227-1.7305 11.391l-93.492 68.82 108.16 58.516c3.957 2.1445 5.4336 7.0898 3.2891 11.047-1.4766 2.7227-4.2812 4.2695-7.1758 4.2695z"/>
  <path d="m225.17 970.8c-4.2422 0-7.8203-3.2852-8.1211-7.582l-9.4766-135.34c-0.19141-2.7852 1.0469-5.4688 3.293-7.125 2.2461-1.6602 5.1836-2.0469 7.7852-1.0391l120.4 46.754c4.1992 1.6289 6.2734 6.3516 4.6445 10.547-1.6289 4.1953-6.3516 6.2734-10.547 4.6445l-108.43-42.109 8.582 122.52c0.3125 4.4883-3.0703 8.3828-7.5625 8.6992-0.19141 0.011719-0.38672 0.019531-0.57812 0.019531z"/>
  <path d="m227.12 532.13c-3.8125 0-7.2148-2.6836-7.9844-6.5664l-22.547-113.92-98.977 73.055c-3.6211 2.6719-8.7266 1.9062-11.398-1.7148-2.6719-3.625-1.9023-8.7227 1.7188-11.395l109.32-80.688c2.2461-1.6562 5.1797-2.0469 7.7812-1.0391 2.6016 1.0078 4.5078 3.2773 5.0469 6.0156l25.047 126.52c0.875 4.4141-1.9961 8.7031-6.4102 9.5781-0.53516 0.10156-1.0664 0.15625-1.5898 0.15234z"/>
 </g>
</svg>
