
<svg width="100" height="auto" viewBox="94.495 358.894 1073.155 508.462" xmlns="http://www.w3.org/2000/svg">
  <g fill="#fff">
    <path d="m403.32 810.84c0.039063-0.4375 0.039063-0.87891 0-1.3203-0.1875-0.50391-0.42969-0.98438-0.71875-1.4414l-0.83984-1.0781-1.1992-1.0781-1.3203-0.71875h-0.71875l-1.3242-0.003906-1.1992-1.1992-258.96-30.961h-4.082l-1.3203 0.71875-1.1992 0.96094-0.96094 1.1992 0.003907 0.003906c-0.28906 0.45312-0.53125 0.93359-0.71875 1.4375-0.023438 0.32031-0.023438 0.64062 0 0.96094-7.8008 30.84-11.281 51.48-12 52.441-0.35156 2.3086 0.32422 4.6562 1.8438 6.4297 1.5195 1.7734 3.7383 2.8008 6.0742 2.8086h264c1.4961-0.027344 2.957-0.48438 4.1992-1.3203h0.72266c1.1484-0.90234 2.0195-2.1055 2.5195-3.4805l6.7188-20.398c0.011718-0.24219 0.011718-0.48047 0-0.72266 0.011718-0.23828 0.011718-0.47656 0-0.71875v-0.71875c0.23047-0.57812 0.39453-1.1836 0.48047-1.8008zm-261.12-21 242.76 29.281-1.8008 5.6406h-248.76c1.5625-7.8008 4.082-20.043 7.8008-34.922z" style=""/>
    <path d="m409.2 778.92c1.5-0.03125 2.957-0.48828 4.1992-1.3203 1.1523-0.90234 2.0234-2.1094 2.5234-3.4805l14.277-42.121c1.4414-4.0781 34.32-99.719-1.6797-161.64-15.379-26.184-41.914-43.875-72-48-115.32-21.121-180 101.64-214.8 208.32-0.070312 0.59766-0.070312 1.2031 0 1.8008-1.4023 2.2734-1.5625 5.1055-0.42578 7.5234 1.1367 2.4219 3.418 4.1055 6.0664 4.4766l260.64 34.441zm-55.32-240c25.254 3.3281 47.633 17.938 60.84 39.719 32.281 55.441 0.71875 147.36 0 148.44l-11.398 34.68-244.32-30.602c33-99.238 93-210.72 194.76-191.88z" style=""/>
    <path d="m507.72 384c-22.5 0-44.078 8.9375-59.988 24.848-15.91 15.91-24.852 37.492-24.852 59.992s8.9414 44.082 24.852 59.992c15.91 15.91 37.488 24.848 59.988 24.848 22.504 0 44.082-8.9375 59.992-24.848 15.91-15.91 24.848-37.492 24.848-59.992s-8.9375-44.082-24.848-59.992c-15.91-15.91-37.488-24.848-59.992-24.848zm0 153.6c-18.281 0.125-35.863-7.0352-48.859-19.898-12.992-12.867-20.324-30.375-20.379-48.66-0.050781-18.285 7.1797-35.84 20.098-48.777 12.918-12.941 30.457-20.203 48.742-20.184 18.285 0.019531 35.809 7.3242 48.695 20.293 12.887 12.973 20.078 30.539 19.984 48.824-0.03125 18.145-7.2188 35.543-20.004 48.418s-30.133 20.184-48.277 20.344z" style=""/>
    <path d="m440.52 800.64c-8.5781-0.12891-16.852 3.1914-22.965 9.2109-6.1133 6.0234-9.5547 14.246-9.5547 22.828 0 4.4414 3.6016 8.0391 8.0391 8.0391h48c4.4414 0 8.0391-3.5977 8.0391-8.0391 0.003906-8.4141-3.3086-16.492-9.2109-22.488-5.9062-5.9922-13.934-9.4258-22.348-9.5508zm-13.922 24h0.003906c1.8672-3.2734 4.8359-5.7812 8.375-7.0742 3.543-1.2969 7.4258-1.2969 10.965 0 3.543 1.293 6.5078 3.8008 8.3789 7.0742z" style=""/>
    <path d="m1135.8 779.04c0.03125-0.39844 0.03125-0.80078 0-1.1992v-1.0781c-0.42578-0.67969-0.95312-1.2852-1.5625-1.8008-0.58984-0.40625-1.2383-0.73047-1.918-0.96094h-3.6016l-261.12 30h-2.2773l-1.3203 0.71875-1.1992 1.0781-0.83984 1.0781-0.003906 0.003906c-0.28906 0.45312-0.53125 0.9375-0.72266 1.4414-0.035156 0.4375-0.035156 0.87891 0 1.3203-0.058593 0.55859-0.058593 1.1211 0 1.6797v0.71875c-0.011719 0.24219-0.011719 0.48047 0 0.72266-0.011719 0.23828-0.011719 0.47656 0 0.71875l6.7188 20.398h0.003907c0.49609 1.375 1.3711 2.5781 2.5195 3.4805h0.71875c1.2461 0.83594 2.7031 1.293 4.1992 1.3203h264c2.3398-0.007813 4.5547-1.0312 6.0742-2.8086 1.5234-1.7734 2.1953-4.1211 1.8477-6.4297-0.24219 1.0781-3.7188-19.562-11.52-50.402zm-254.76 45.723-1.8008-5.6406 242.76-29.281c3.6016 14.879 6.2383 27.121 7.6797 34.922z" style=""/>
    <path d="m841.08 469.2c0-22.484-8.9258-44.055-24.82-59.961-15.891-15.91-37.449-24.855-59.938-24.879-22.488-0.019531-44.062 8.8867-59.988 24.766-15.922 15.879-24.891 37.43-24.934 59.914-0.039063 22.488 8.8477 44.074 24.711 60.012s37.402 24.926 59.891 24.988c22.543 0.066407 44.184-8.8438 60.145-24.762 15.965-15.918 24.938-37.535 24.934-60.078zm-85.078 68.762c-18.234 0-35.727-7.2461-48.621-20.141-12.895-12.895-20.141-30.383-20.141-48.621 0-18.234 7.2461-35.727 20.141-48.621 12.895-12.895 30.387-20.137 48.621-20.137s35.727 7.2422 48.621 20.137c12.895 12.895 20.141 30.387 20.141 48.621-0.035157 18.227-7.2891 35.699-20.176 48.586-12.887 12.887-30.359 20.145-48.586 20.176z" style=""/>
    <path d="m1123.7 736.92c-0.17578-1.207-0.625-2.3594-1.3203-3.3633 0.0625-0.55859 0.0625-1.1211 0-1.6797-34.32-106.8-99.602-229.32-214.8-208.32-30.086 4.1289-56.617 21.816-72 48-36 61.922-3.1211 157.56-1.6797 161.52l13.441 41.039v0.003906c0.50391 1.3672 1.375 2.5742 2.5195 3.4805 1.2461 0.83203 2.7031 1.2891 4.1992 1.3203h0.96094l260.76-33c2.2852-0.019531 4.4609-1.0117 5.9727-2.7305s2.2188-4 1.9453-6.2695zm-274.2-157.92c13.207-21.781 35.586-36.391 60.84-39.719 101.76-18.719 161.88 92.641 194.76 192l-244.56 30.84-12-34.922c0.24219-0.83984-31.32-92.758 0.96094-148.2z" style=""/>
    <path d="m823.68 800.64c-8.4336 0.09375-16.492 3.5117-22.422 9.5117-5.9336 5.9961-9.2578 14.094-9.2578 22.527 0 4.4414 3.6016 8.0391 8.0391 8.0391h48c4.4414 0 8.0391-3.5977 8.0391-8.0391 0.003906-8.5586-3.4219-16.766-9.5078-22.785-6.0898-6.0195-14.332-9.3516-22.891-9.2539zm-13.922 24h0.003907c1.8672-3.2734 4.8359-5.7812 8.375-7.0742 3.5391-1.2969 7.4258-1.2969 10.965 0 3.543 1.293 6.5078 3.8008 8.3789 7.0742z" style=""/>
  </g>
</svg>