
<svg width="100" height="auto" viewBox="223.549 168.8 752.801 864.696" xmlns="http://www.w3.org/2000/svg">
  <path d="m600 180c-94.309 0-179.61 14.227-242.25 38.25-31.324 12.012-56.801 26.605-75.375 43.5s-30.375 36.832-30.375 58.875v558.38c0 22.043 11.801 42.355 30.375 59.25s44.051 31.113 75.375 43.125c62.645 24.023 147.94 38.625 242.25 38.625s179.61-14.602 242.25-38.625c31.324-12.012 56.801-26.23 75.375-43.125s30.375-37.207 30.375-59.25v-558.38c0-22.043-11.801-41.98-30.375-58.875s-44.051-31.488-75.375-43.5c-62.645-24.023-147.94-38.25-242.25-38.25zm0 24c91.836 0 174.8 14.195 233.62 36.75 29.41 11.277 52.531 24.668 67.875 38.625 14.902 13.555 22.102 26.871 22.5 40.125-0.32422 0.72266-0.57422 1.4766-0.75 2.25-2.2891 12.938-11.156 26.523-27.75 39.75s-40.242 25.902-69.375 36.375c-58.266 20.945-138.15 34.125-226.12 34.125s-167.86-13.18-226.12-34.125c-29.133-10.473-52.781-23.148-69.375-36.375s-25.461-26.812-27.75-39.75c-0.17578-0.77344-0.42578-1.5273-0.75-2.25 0.39844-13.254 7.5977-26.57 22.5-40.125 15.344-13.957 38.465-27.348 67.875-38.625 58.82-22.555 141.79-36.75 233.62-36.75zm-324 164.25c4.0391 4.2148 8.6211 8.1094 13.5 12 19.512 15.555 45.605 29.016 76.5 40.125 61.793 22.215 143.66 35.625 234 35.625s172.21-13.41 234-35.625c30.895-11.109 56.988-24.57 76.5-40.125 4.8789-3.8906 9.4609-7.7852 13.5-12v141.75c-0.25 0.98047-0.37891 1.9883-0.375 3-1.957 13.027-10.957 26.41-27.375 39.75s-39.82 26.156-69 36.75c-58.363 21.184-138.7 34.5-227.25 34.5s-168.89-13.316-227.25-34.5c-29.18-10.594-52.582-23.41-69-36.75s-25.418-26.723-27.375-39.75c-0.054688-0.76172-0.17969-1.5117-0.375-2.25zm108 111.75c-13.254 0-24 10.746-24 24s10.746 24 24 24 24-10.746 24-24-10.746-24-24-24zm-108 80.25c3.8047 3.9883 7.832 7.5586 12.375 11.25 19.387 15.75 45.535 29.258 76.5 40.5 61.934 22.48 144.19 36 235.12 36s173.19-13.52 235.12-36c30.965-11.242 57.113-24.75 76.5-40.5 4.543-3.6914 8.5703-7.2617 12.375-11.25v129.75c-0.25 0.98047-0.37891 1.9883-0.375 3-1.957 13.027-10.957 26.41-27.375 39.75s-39.82 26.156-69 36.75c-58.363 21.184-138.7 34.5-227.25 34.5s-168.89-13.316-227.25-34.5c-29.18-10.594-52.582-23.41-69-36.75s-25.418-26.723-27.375-39.75c-0.054688-0.76172-0.17969-1.5117-0.375-2.25zm108 111.75c-13.254 0-24 10.746-24 24s10.746 24 24 24 24-10.746 24-24-10.746-24-24-24zm-108 68.25c3.8047 3.9883 7.832 7.5586 12.375 11.25 19.387 15.75 45.535 29.258 76.5 40.5 61.934 22.48 144.19 36 235.12 36s173.19-13.52 235.12-36c30.965-11.242 57.113-24.75 76.5-40.5 4.543-3.6914 8.5703-7.2617 12.375-11.25v138.75c0 13.645-7.1562 27.293-22.5 41.25s-38.465 27.348-67.875 38.625c-58.82 22.555-141.79 37.125-233.62 37.125s-174.8-14.57-233.62-37.125c-29.41-11.277-52.531-24.668-67.875-38.625s-22.5-27.605-22.5-41.25zm108 111.75c-13.254 0-24 10.746-24 24s10.746 24 24 24 24-10.746 24-24-10.746-24-24-24z" style="fill: #FFFFFF;"/>
</svg>