
<svg width="100" height="auto" viewBox="289.914 381.418 624.899 437.332" xmlns="http://www.w3.org/2000/svg">
  <path d="m300 407.99c0-6.6211 5.3711-11.988 11.984-11.988h576.03c6.6172 0 11.984 5.4609 11.984 11.988v384.02c0 6.6211-5.3711 11.988-11.984 11.988h-576.03c-6.6172 0-11.984-5.4609-11.984-11.988zm18.078 384.01h563.84c3.5117 0 6.0781-2.6484 6.0781-5.9102v-364.53c0-3.3047-2.1289-4.2227-4.7578-2.1445l-273.82 216.78c-5.125 4.0586-13.637 4.1172-18.836 0l-273.82-216.78c-2.6055-2.0625-4.7578-1.1172-4.7578 2.1445v364.53c0 3.3047 2.7227 5.9102 6.0781 5.9102zm8.3008-380.27 268.91 212.89c2.6328 2.082 6.8242 2.0586 9.4297 0l268.91-212.89c2.6328-2.082 2-3.7305-1.3477-3.7305h-544.55c-3.3281 0-3.9492 1.6719-1.3477 3.7305z" style="fill: #FFFFFF;"/>
</svg>