<svg width="100" height="auto" version="1.1" viewBox="0 0 1200 1200" xmlns="http://www.w3.org/2000/svg">
 <g fill="#fff">
  <path d="m1120.1 403.01c-4.918-87.77-77.254-345.46-336.09-376.87-52.441-6.3594-108.41-12.238-162.41-12.238-155.4 0-262.41 50.496-357.82 168.89-108.29 134.33-80.496 248.86-62.137 324.62 6.9609 28.609 12.938 53.328 6.9375 65.352-25.297 50.594-111.41 173.54-112.41 174.96-20.473 30.312-25.992 52.367-17.352 69.406 13.129 25.895 54.266 27.504 94.031 29.016 27.336 1.0781 58.32 2.2812 67.441 11.855 19.199 20.207 21.457 83.734 23.09 130.15 1.1523 32.496 2.0625 58.152 7.3203 72.84 3.1914 8.9531 11.762 19.586 34.488 19.586 15.047 0 33.625-4.1992 55.129-9.0469 33.48-7.5352 74.641-15.457 100.87-8.9297 11.496 2.8789 19.969 9.0977 25.871 19.008 19.031 32.039 4.6328 88.969 4.5117 89.52-0.9375 3.6016-0.14453 7.4414 2.1367 10.367 2.2578 2.9297 5.7617 4.6562 9.4805 4.6562h493.57c3.7422 0 7.2227-1.9688 9.4805-4.9453 2.2812-2.9766 2.9531-7.0547 1.9688-10.656-0.12109-0.48047-3.1211-11.93-3.1211-63.551 0-13.824-1.9219-27.336-3.9609-41.594-6.7422-47.52-15.168-106.66 40.008-229.97 12.215-27.266 22.945-49.344 32.281-68.566 47.305-97.465 60.023-123.65 46.68-363.86zm-68.277 353.33c-9.4336 19.414-20.281 41.711-32.566 69.266-58.031 129.6-48.672 195.24-41.855 243.14 1.9922 13.992 3.6953 26.09 3.6953 38.23 0 27.434 0.79297 44.52 1.7773 55.176h-465c3.6484-22.031 7.2227-63.504-10.129-92.734-9.2148-15.527-22.895-25.656-40.703-30.121-31.297-7.8242-75.77 0.64844-111.96 8.8086-30.215 6.8398-59.375 11.496-61.754 4.8008-4.0078-11.207-4.9453-37.633-5.9297-65.617-1.9922-55.801-4.2227-119.04-29.688-145.85-15.816-16.656-48.887-17.93-83.902-19.297-29.762-1.1523-66.816-2.5664-73.559-15.887-2.3516-4.6094-3.4062-16.633 15.695-44.93 3.5742-5.1133 88.031-125.66 114.1-177.84 9.9375-19.895 3.3125-47.184-5.0625-81.719-17.281-71.207-43.391-178.8 57.48-303.91 90.383-112.11 191.81-159.96 339.14-159.96 52.727 0 107.81 5.8086 159.5 12.07 246.72 29.953 311.28 287.16 315.05 354.38 12.984 234 1.9922 256.63-44.328 351.98z"/>
  <path d="m556.3 349.87c-4.5859-4.7266-12.168-4.9219-16.969-0.3125l-170.02 163.99c-0.046875 0.046875-0.070312 0.12109-0.12109 0.19141-0.046875 0.046874-0.12109 0.046874-0.16797 0.12109-0.52734 0.55078-0.79297 1.2461-1.1758 1.8477-0.43359 0.67187-0.98438 1.2734-1.2734 1.9922-0.3125 0.74219-0.33594 1.5117-0.50391 2.2812-0.14453 0.74219-0.38281 1.4648-0.38281 2.207 0 0.74219 0.23828 1.4648 0.38281 2.207 0.14453 0.76953 0.19141 1.5352 0.50391 2.2812 0.28906 0.71875 0.83984 1.3203 1.2734 1.9688 0.40625 0.625 0.64844 1.3203 1.1758 1.8711 0.046874 0.046875 0.12109 0.070313 0.16797 0.12109 0.046875 0.046875 0.070313 0.12109 0.12109 0.19141l170.02 163.99c2.3281 2.2578 5.3281 3.3828 8.3281 3.3828 3.1445 0 6.2891-1.2227 8.6406-3.6719 4.6094-4.7539 4.4648-12.359-0.3125-16.945l-161.06-155.38 161.06-155.35c4.7773-4.6328 4.918-12.215 0.3125-16.992z"/>
  <path d="m939.05 519.94c-0.14453-0.74219-0.19141-1.5117-0.48047-2.2305-0.3125-0.71875-0.83984-1.3438-1.2969-1.9922-0.40625-0.60156-0.64844-1.2969-1.1758-1.8242-0.046875-0.046875-0.12109-0.070313-0.19141-0.12109-0.046875-0.046875-0.070313-0.12109-0.12109-0.16797l-170.02-163.99c-4.7266-4.6094-12.336-4.4414-16.969 0.3125-4.5859 4.7773-4.4648 12.359 0.33594 16.969l161.06 155.35-161.06 155.38c-4.7773 4.5859-4.9219 12.191-0.3125 16.945 2.3516 2.4727 5.4961 3.6719 8.6172 3.6719 3 0 6-1.1289 8.3281-3.3828l170.02-163.99c0.046875-0.046875 0.070312-0.097656 0.097656-0.14453 0.070313-0.070313 0.16797-0.070313 0.23828-0.14453 0.60156-0.625 0.9375-1.4414 1.3672-2.1602 0.35938-0.55078 0.81641-1.0547 1.0781-1.6562 0.3125-0.79297 0.38281-1.6328 0.50391-2.4727 0.12109-0.69531 0.35938-1.3672 0.35938-2.0391 0.03125-0.81641-0.21094-1.5625-0.37891-2.3047z"/>
  <path d="m729.53 304.08c-6.168-2.0898-13.105 1.0781-15.312 7.3203l-145.97 413.59c-2.207 6.2383 1.0781 13.105 7.3203 15.312 1.3203 0.48047 2.6641 0.67187 4.0078 0.67187 4.9453 0 9.5742-3.0703 11.328-8.0156l145.97-413.57c2.207-6.2422-1.0781-13.082-7.3438-15.316z"/>
 </g>
</svg>
