
<svg width="100" height="auto" viewBox="121.947 166.232 961.719 859.856" xmlns="http://www.w3.org/2000/svg">
  <g fill="#FFFFFF">
    <path d="m818.4 381.6-15.602 18 225.6 200.4-225.6 200.4 15.602 18 225.6-200.4c5.1641-4.5547 8.125-11.113 8.125-18s-2.9609-13.445-8.125-18z" style="fill: #FFFFFF;"/>
    <path d="m397.2 800.4-225.6-200.4 225.6-200.4-15.602-18-225.6 200.4c-5.1641 4.5547-8.125 11.113-8.125 18s2.9609 13.445 8.125 18l225.6 200.4z" style="fill: #FFFFFF;"/>
    <path d="m517.2 1014c5.793 0.11719 10.844-3.9219 12-9.6016l165.6-804c1.3242-6.625-2.9727-13.074-9.6016-14.398-6.625-1.3242-13.074 2.9727-14.398 9.6016l-165.6 804c-0.70312 3.1875-0.078125 6.5273 1.7344 9.2422 1.8125 2.7188 4.6523 4.5781 7.8672 5.1562z" style="fill: #FFFFFF;"/>
  </g>
</svg>