<svg width="100" height="auto" version="1.1" viewBox="0 0 1200 1200" xmlns="http://www.w3.org/2000/svg">
 <g fill="#FFFFFF" fill-rule="evenodd">
  <path d="m40 1160h1120v-1120h-1120zm1140 40h-1160c-11.059 0-20-8.9609-20-20v-1160c0-11.039 8.9414-20 20-20h1160c11.059 0 20 8.9609 20 20v1160c0 11.039-8.9414 20-20 20z"/>
  <path d="m920 1100c-99.262 0-180-80.762-180-180 0-11.039 8.9414-20 20-20s20 8.9609 20 20c0 77.199 62.82 140 140 140s140-62.801 140-140-62.82-140-140-140c-99.262 0-180-80.762-180-180s80.738-180 180-180 180 80.762 180 180c0 11.039-8.9414 20-20 20s-20-8.9609-20-20c0-77.199-62.82-140-140-140s-140 62.801-140 140 62.82 140 140 140c99.262 0 180 80.762 180 180s-80.738 180-180 180"/>
  <path d="m500 1100c-99.262 0-180-80.762-180-180 0-11.039 8.9414-20 20-20s20 8.9609 20 20c0 77.199 62.82 140 140 140s140-62.801 140-140v-480c0-11.039 8.9414-20 20-20s20 8.9609 20 20v480c0 99.238-80.738 180-180 180"/>
 </g>
</svg>
