
<svg width="100" height="auto" viewBox="191.508 86.304 817.963 1037.945" xmlns="http://www.w3.org/2000/svg">
  <path d="m599.62 96c-132.58 0-239.62 110.22-239.62 246 0 32.008 8.793 70.289 19.125 97.875 29.242 61.297 58.512 122.76 87.75 184.12h-154.88c-6.8359 0.13281-10.438 5.0742-11.625 9.375l-96 456c-1.5625 6.9648 4.4883 14.574 11.625 14.625h768c7.1367 0 13.188-7.6602 11.625-14.625l-96-456c-1.1758-5.2422-6.2539-9.3359-11.625-9.375h-154.88c29.254-61.352 58.496-122.84 87.75-184.12 10.402-27.621 19.125-65.867 19.125-97.875 0-135.81-107.79-246-240.38-246zm0 24c119.29 0 216.38 98.832 216.38 222 0 27.242-8.0547 63.801-17.25 88.5-66.258 139.08-132.51 278.25-198.75 417.38-69.465-145.28-139.5-292.94-198.75-417.38-9.1133-24.715-17.25-61.391-17.25-88.5 0-123.2 96.344-222 215.62-222zm0.37109 108c-59.504 0-108 48.496-108 108s48.496 108 108 108 108-48.496 108-108-48.496-108-108-108zm0 24c46.535 0 84 37.465 84 84s-37.465 84-84 84-84-37.465-84-84 37.465-84 84-84zm-278.62 396h156.75l111 232.88c3.8359 8.2227 17.914 8.2227 21.75 0l111-232.88h156.75l90.375 432h-738z" style="fill: #FFFFFF;"/>
</svg>