<svg height='100px' width='100px'  fill="#535353" xmlns="http://www.w3.org/2000/svg" data-name="Layer 1" viewBox="0 0 100 100" x="0px" y="0px"><path d="M24.67385,5.86023c2.091,1.23505-.04672,3.53753,1.00858,5.05108,3.22793,6.83219,9.43929,12.0425,15.55881,15.99211.18942-.49369-.173-.83263-.34673-1.212C38.87536,22.96862,37.66912,7.004,43.21594,9.89353c6.03671,3.14469,2.56459,11.10768-.422,16.03978-.1985.63423-.20163.74748.61244.68345a6.50965,6.50965,0,0,0,4.53567-2.696c1.53245-2.335,6.60878-5.29045,6.80412-1.56648a3.774,3.774,0,0,1-.9079,2.67058c-1.8395,2.09452-5.32307,2.10411-7.97129,2.31346-2.68839-.05007-3.73933.85479-.99789,2.63951,6.27779,4.08692,11.01807,9.984,15.20376,16.21032.576.85675.80744.66389,1.2474-.0784,1.209-3.21065-.76281-7.00192-.52056-10.44429a14.98358,14.98358,0,0,1,1.89236-9.00163c2.03152-2.66487,4.7897.38792,4.65886,2.84873a25.76566,25.76566,0,0,1-4.3398,16.14464c-.86527.84625.22815,1.38255.62582.28143,1.01865-2.20567,4.98337-6.60847,6.88365-4.69669a1.68737,1.68737,0,0,1,.15976,2.431,6.51524,6.51524,0,0,1-1.4724,1.48083c-8.22614,6.01671-9.50042-1.61984-3.52259,11.57031.16876,2.92449,8.61592-10.75666,8.85289-11.84474.88286-2.36248,1.959-5.04891.91641-7.52907a1.50937,1.50937,0,0,1,.58616-2.26229c1.825-1.006,3.7355,2.18331,1.74625,3.21866a1.17583,1.17583,0,0,0-.65571.919,22.25373,22.25373,0,0,1-2.25976,7.7771A1.96527,1.96527,0,0,0,76.778,45.90094a18.2069,18.2069,0,0,1,5.21848-5.87127c3.55543-2.8941,5.07365,3.10452,2.19925,4.22921C80.77819,46.04672,77.11038,47.515,73.671,49.10923c-1.13792,1.67859-2.28206,3.35264-3.52446,5.17516,5.267-.04847,8.94124-3.43058,13.441-5.21753a3.24291,3.24291,0,0,1,2.26683-.09013,2.50532,2.50532,0,0,1,1.52793,1.37778c1.10209,3.585-4.13869,5.37736-6.97318,4.48261-1.98675-.36476-3.01562-1.4802-5.0879-.33207,2.60673,1.27,8.46994,2.8791,8.73058,6.1462a2.15938,2.15938,0,0,1-1.10459,2.12724,3.32691,3.32691,0,0,1-2.713.11138c-3.847-1.08786-2.948-6.87391-6.72379-7.66908-2.67444-.67924-7.48943,1.79763-6.60928,4.9325a43.642,43.642,0,0,1,.50648,25.381c-1.13618,2.87547,1.34911,8.90746.88443,8.90746a1.463,1.463,0,0,1-1.35733-.70924c-.508-.98881-.56347-2.88254-.98117-3.8253-.79871,1.522-1.74982,3.93448-2.22264,4.316-.63059.50882-.84641-1.15489-.51574-1.62779,2.19116-4.2968-1.66089-6.72567-2.1011-15.82349-.16758-3.4633.89108-5.502-.55013-8.7037-2.86105-4.3813-12.05553-12.89648-17.32081-11.93947-2.89571,2.05639-3.36271,3.37906-2.351,6.91882.32061,2.12349,3.21674,7.10685.033,7.46676-5.65572.63936-.66039-7.19118-1.6551-10.40986-2.97166,2.71522-3.8786,7.40193-6.99207,9.83824a2.49252,2.49252,0,0,1-2.05857.54936c-2.52558-.58491-2.134-4.68493.10122-6.37068,2.09234-1.578,4.52457-2.18379,6.7033-3.31092A24.849,24.849,0,0,1,42.45517,55.198c-3.17009-.70345-9.87165-2.053-11.61071,1.08746-.35311.87665-1.4194.98761-2.306.46981-2.02375-.74014-.67435-4.3141,1.12665-3.55044,1.51362.896,2.94816.29153,4.39438.11555,5.96988-.72261,11.42711,1.05354,16.6103,3.90731-1.43007-6.66324-5.54239-10.87644-10.0347-15.53109-2.87672-4.06539,3.25065-5.82616,5.30023-2.47538,3.74187,3.62843,2.01459,8.8002,4.32028,13.01959.55307-.454.37628-.96674.31408-1.4467-2.90308-11.92244,8.41934-9.48733,2.23791-.04275a5.73588,5.73588,0,0,0-.2485,7.74694,33.14583,33.14583,0,0,1,8.9287,8.7475c1.18049-2.14672,1.49117-4.90586,3.03878-7.00017a2.74245,2.74245,0,0,0,.19569-2.70532c-3.01221-7.76471-7.9011-14.44867-13.64416-20.3985-2.36972-2.5521-5.51627-1.53309-8.97279-2.87-3.60471-1.39427-8.57825.117-11.93976-2.62513-3.01484-2.45935.94031-4.25241,4.0083-3.62665,5.59849,1.14189,7.41608,6.41541,13.63068,6.22627-4.42637-4.59919-9.7466-7.5187-14.43838-11.801-1.43194-1.47747-2.63488-2.67677-4.782-2.03193-3.64457,1.208-3.64118,7.40164-8.41721,6.68022a2.69269,2.69269,0,0,1-2.49426-1.90806c.12543-3.42457,5.99181-3.52681,8.31979-5.28747a1.98652,1.98652,0,0,0-2.03528-.62383c-3.90655.78337-6.27791,1.10105-9.40834-.63537a3.67552,3.67552,0,0,1-2.05005-2.67561A3.1025,3.1025,0,0,1,13.571,13.21741c5.18516-4.68757,10.53823,6.90415,15.95072,5.86077.20857-.35882-.20333-.5571-.395-.78143-2.50189-2.43838-3.10073-6.10193-5.57792-8.3156C22.39939,8.954,20.782,7.18894,22.47276,5.99474A1.83792,1.83792,0,0,1,24.67385,5.86023ZM65.74226,60.55056c-1.44765,2.998-3.46646,6.10627-2.80624,9.27183,2.17642,4.34,2.63385,9.22055,3.54339,13.924A42.147,42.147,0,0,0,65.74226,60.55056ZM62.8596,43.28877c2.62744-3.9883,4.32149-11.05013,2.845-15.40359A1.18954,1.18954,0,0,0,63.4077,27.76C61.054,32.6393,62.25018,37.95143,62.8596,43.28877ZM41.878,24.83442c2.89081-3.86005,4.5134-9.45166,2.04318-12.5788-1.55276-1.9657-2.01634-.92533-2.44565-.1386C39.57839,15.59351,40.2564,21.27875,41.878,24.83442ZM15.9761,13.844l-.02725-.00011A1.80343,1.80343,0,0,0,14.599,16.87012c1.77264,1.76075,5.89531,1.80615,8.01856,1.40973C24.51127,17.85433,17.9483,13.78842,15.9761,13.844ZM62.47548,71.61473c-.73278,6.11406.554,11.5638,2.482,17.03006C66.02464,86.74,64.48175,75.6063,62.47548,71.61473ZM47.68588,47.59637c-.2167-3.63525-1.29106-7.86306-4.88231-8.97546a1.34533,1.34533,0,0,0-1.29957,2.1907C43.48627,43.02307,45.50116,45.20543,47.68588,47.59637ZM39.60517,32.57213c-1.71152-1.74661-6.41694-4.90757-8.69314-3.13946a.70052.70052,0,0,0-.17092.91845C32.12454,32.51669,37.28477,32.4655,39.60517,32.57213ZM35.74474,62.94086c-2.60942.584-5.69432,1.8729-6.21683,4.70471-.24883,1.31737,1.36216,1.99794,2.51767,1.04465C34.0021,67.07609,34.48276,64.90057,35.74474,62.94086Zm43.01847-9.86762c2.406.95619,5.24729,1.34744,7.0801-.66726a1.4129,1.4129,0,0,0-1.29055-2.40467C82.4111,50.48,80.82329,52.023,78.76321,53.07324Zm-1.6671,3.49524c.64315,2.21834,2.69394,6.46218,5.16031,5.1a1.10049,1.10049,0,0,0,.5212-1.31628C82.13166,58.66362,78.59678,57.31215,77.09611,56.56848ZM24.69388,21.83388c-1.445.96874-5.6075,1.39125-5.7245,3.23761.28823.96355,1.56031.9759,2.37023.76532C23.35676,25.3622,24.01584,23.63874,24.69388,21.83388ZM48.03,26.00254c1.86792-.2871,5.94154-.98376,5.46572-3.41291a.87445.87445,0,0,0-.73735-.71454C50.9771,21.70751,49.10515,24.75219,48.03,26.00254ZM78.702,45.60131c1.42343-1.17978,6.06448-1.83081,5.77357-3.98228a1.015,1.015,0,0,0-1.27965-.88476C81.56084,41.25661,79.20065,44.5077,78.702,45.60131ZM51.73165,49.98308c1.2-1.57473,2.98931-4.85283.82387-6.03227C50.65975,44.49637,51.67907,48.17755,51.73165,49.98308Zm13.24728-3.96682c2.10105-.6114,6.21354-2.83948,4.67066-3.8579S66.12781,44.19487,64.97893,46.01626ZM40.10361,64.56814c-.56074,1.58573-1.61185,5.15125.47856,4.76575C42.12279,69.04978,40.27294,66.11519,40.10361,64.56814Z"></path></svg>