<svg height='auto' width='200' viewBox="25.728 528.418 1150.796 147.837" xmlns="http://www.w3.org/2000/svg">
  <g fill="#fff">
    <path d="m118.02 596.29c-7.0781-0.92578-14.375-1.3203-21.695-1.5234-0.30078-7.6328-0.83984-15.203-1.9453-22.465-0.83984-5.4492-8.7852-3.6602-9.1211 1.2344-0.46875 6.8281-0.37109 13.934-0.058593 21.047-6.9844-0.011719-13.945 0.070312-20.734 0.15625-6.0352 0.070312-5.832 8.7109 0 9.2383 7.0078 0.625 14.207 1.2852 21.422 1.8359 0.58984 7.2109 1.3203 14.398 2.1484 21.289 0.61328 5.125 8.0273 5.4258 8.2188 0 0.23828-6.707 0.34766-13.668 0.33594-20.641 7.2227 0.34766 14.426 0.51562 21.445 0.15625 6.7891-0.38281 6.418-9.4883-0.015625-10.328z" style=""/>
    <path d="m204.21 596.29c-7.0781-0.92578-14.375-1.3203-21.695-1.5234-0.30078-7.6328-0.83984-15.203-1.9453-22.465-0.83984-5.4492-8.7852-3.6602-9.1211 1.2344-0.48047 6.8281-0.37109 13.934-0.058594 21.047-6.9844-0.011719-13.945 0.070312-20.734 0.15625-6.0352 0.070312-5.832 8.7109 0 9.2383 7.0078 0.625 14.207 1.2852 21.422 1.8359 0.58984 7.2109 1.3203 14.398 2.1484 21.289 0.61328 5.125 8.0273 5.4258 8.2188 0 0.23828-6.707 0.34766-13.668 0.33594-20.641 7.2227 0.34766 14.426 0.51562 21.445 0.15625 6.7891-0.38281 6.418-9.4883-0.015625-10.328z" style=""/>
    <path d="m310.68 596.29c-7.0781-0.92578-14.375-1.3203-21.695-1.5234-0.30078-7.6328-0.83984-15.203-1.9453-22.465-0.83984-5.4492-8.7852-3.6602-9.1211 1.2344-0.48047 6.8281-0.37109 13.934-0.058594 21.047-6.9844-0.011719-13.945 0.070312-20.734 0.15625-6.0352 0.070312-5.832 8.7109 0 9.2383 7.0078 0.625 14.207 1.2852 21.422 1.8359 0.58984 7.2109 1.3203 14.398 2.1484 21.289 0.61328 5.125 8.0273 5.4258 8.2188 0 0.23828-6.707 0.34766-13.668 0.33594-20.641 7.2227 0.34766 14.426 0.51562 21.445 0.15625 6.7773-0.38281 6.418-9.4883-0.015624-10.328z" style=""/>
    <path d="m396.88 596.29c-7.0781-0.92578-14.375-1.3203-21.695-1.5234-0.30078-7.6328-0.83984-15.203-1.9453-22.465-0.83984-5.4492-8.7852-3.6602-9.1211 1.2344-0.48047 6.8281-0.37109 13.934-0.058593 21.047-6.9844-0.011719-13.945 0.070312-20.734 0.15625-6.0352 0.070312-5.832 8.7109 0 9.2383 7.0078 0.625 14.207 1.2852 21.422 1.8359 0.58984 7.2109 1.3203 14.398 2.1484 21.289 0.61328 5.125 8.0273 5.4258 8.2188 0 0.23828-6.707 0.34766-13.668 0.33594-20.641 7.2227 0.34766 14.426 0.51562 21.445 0.15625 6.7891-0.38281 6.418-9.4883-0.015625-10.328z" style=""/>
    <path d="m489.95 596.29c-7.0781-0.92578-14.375-1.3203-21.695-1.5234-0.30078-7.6328-0.83984-15.203-1.9453-22.465-0.83984-5.4492-8.7852-3.6602-9.1211 1.2344-0.48047 6.8281-0.37109 13.934-0.058594 21.047-6.9844-0.011719-13.945 0.070312-20.734 0.15625-6.0352 0.070312-5.832 8.7109 0 9.2383 7.0078 0.625 14.207 1.2852 21.422 1.8359 0.58984 7.2109 1.3203 14.398 2.1484 21.289 0.61328 5.125 8.0273 5.4258 8.2188 0 0.23828-6.707 0.34766-13.668 0.33594-20.641 7.2227 0.34766 14.426 0.51562 21.445 0.15625 6.7891-0.38281 6.4141-9.4883-0.015625-10.328z" style=""/>
    <path d="m576.14 596.29c-7.0781-0.92578-14.375-1.3203-21.695-1.5234-0.30078-7.6328-0.83984-15.203-1.9453-22.465-0.83984-5.4492-8.7852-3.6602-9.1211 1.2344-0.48047 6.8281-0.37109 13.934-0.058593 21.047-6.9844-0.011719-13.945 0.070312-20.734 0.15625-6.0352 0.070312-5.832 8.7109 0 9.2383 7.0078 0.625 14.207 1.2852 21.422 1.8359 0.58984 7.2109 1.3203 14.398 2.1484 21.289 0.61328 5.125 8.0273 5.4258 8.2188 0 0.23828-6.707 0.34766-13.668 0.33594-20.641 7.2227 0.34766 14.426 0.51562 21.445 0.15625 6.7891-0.38281 6.4141-9.4883-0.015625-10.328z" style=""/>
    <path d="m682.61 596.29c-7.0781-0.92578-14.375-1.3203-21.695-1.5234-0.30078-7.6328-0.83984-15.203-1.9453-22.465-0.83984-5.4492-8.7852-3.6602-9.1211 1.2344-0.48047 6.8281-0.37109 13.934-0.058594 21.047-6.9844-0.011719-13.945 0.070312-20.734 0.15625-6.0352 0.070312-5.832 8.7109 0 9.2383 7.0078 0.625 14.207 1.2852 21.422 1.8359 0.58984 7.2109 1.3203 14.398 2.1484 21.289 0.61328 5.125 8.0273 5.4258 8.2188 0 0.23828-6.707 0.34766-13.668 0.33594-20.641 7.2227 0.34766 14.426 0.51562 21.445 0.15625 6.7734-0.38281 6.4023-9.4883-0.015625-10.328z" style=""/>
    <path d="m768.8 596.29c-7.0781-0.92578-14.375-1.3203-21.695-1.5234-0.30078-7.6328-0.83984-15.203-1.9453-22.465-0.83984-5.4492-8.7852-3.6602-9.1211 1.2344-0.48047 6.8281-0.37109 13.934-0.058594 21.047-6.9844-0.011719-13.945 0.070312-20.734 0.15625-6.0352 0.070312-5.832 8.7109 0 9.2383 7.0078 0.625 14.207 1.2852 21.422 1.8359 0.58984 7.2109 1.3203 14.398 2.1484 21.289 0.61328 5.125 8.0273 5.4258 8.2188 0 0.23828-6.707 0.34766-13.668 0.33594-20.641 7.2227 0.34766 14.426 0.51562 21.445 0.15625 6.7773-0.38281 6.4023-9.4883-0.015624-10.328z" style=""/>
    <path d="m856.19 596.29c-7.0781-0.92578-14.375-1.3203-21.695-1.5234-0.30078-7.6328-0.83984-15.203-1.9453-22.465-0.83984-5.4492-8.7852-3.6602-9.1211 1.2344-0.48047 6.8281-0.37109 13.934-0.058593 21.047-6.9844-0.011719-13.945 0.070312-20.734 0.15625-6.0352 0.070312-5.832 8.7109 0 9.2383 7.0078 0.625 14.207 1.2852 21.422 1.8359 0.58984 7.2109 1.3203 14.398 2.1484 21.289 0.61328 5.125 8.0273 5.4258 8.2188 0 0.23828-6.707 0.34766-13.668 0.33594-20.641 7.2227 0.34766 14.426 0.51562 21.445 0.15625 6.7773-0.38281 6.4062-9.4883-0.015625-10.328z" style=""/>
    <path d="m942.38 596.29c-7.0781-0.92578-14.375-1.3203-21.695-1.5234-0.30078-7.6328-0.83984-15.203-1.9453-22.465-0.83984-5.4492-8.7852-3.6602-9.1211 1.2344-0.46875 6.8281-0.37109 13.934-0.058594 21.047-6.9844-0.011719-13.945 0.070312-20.746 0.15625-6.0352 0.070312-5.832 8.7109 0 9.2383 7.0078 0.625 14.207 1.2852 21.422 1.8359 0.58984 7.2109 1.3203 14.398 2.1484 21.289 0.61328 5.125 8.0273 5.4258 8.2188 0 0.23828-6.707 0.34766-13.668 0.33594-20.641 7.2227 0.34766 14.426 0.51562 21.445 0.15625 6.7891-0.38281 6.418-9.4883-0.003907-10.328z" style=""/>
    <path d="m1048.8 596.29c-7.0781-0.92578-14.375-1.3203-21.695-1.5234-0.30078-7.6328-0.83984-15.203-1.9453-22.465-0.83984-5.4492-8.7852-3.6602-9.1211 1.2344-0.48047 6.8281-0.37109 13.934-0.058594 21.047-6.9844-0.011719-13.945 0.070312-20.734 0.15625-6.0352 0.070312-5.832 8.7109 0 9.2383 7.0078 0.625 14.207 1.2852 21.422 1.8359 0.58984 7.2109 1.3203 14.398 2.1484 21.289 0.61328 5.125 8.0273 5.4258 8.2188 0 0.23828-6.707 0.34766-13.668 0.33594-20.641 7.2227 0.34766 14.426 0.51562 21.445 0.15625 6.7891-0.38281 6.418-9.4883-0.015624-10.328z" style=""/>
    <path d="m1135 596.29c-7.0781-0.92578-14.375-1.3203-21.695-1.5234-0.30078-7.6328-0.83984-15.203-1.9453-22.465-0.83984-5.4492-8.7852-3.6602-9.1211 1.2344-0.48047 6.8281-0.37109 13.934-0.058593 21.047-6.9844-0.011719-13.945 0.070312-20.734 0.15625-6.0352 0.070312-5.832 8.7109 0 9.2383 7.0078 0.625 14.207 1.2852 21.422 1.8359 0.58984 7.2109 1.3203 14.398 2.1484 21.289 0.61328 5.125 8.0273 5.4258 8.2188 0 0.23828-6.707 0.34766-13.668 0.33594-20.641 7.2227 0.34766 14.426 0.51562 21.445 0.15625 6.7891-0.38281 6.418-9.4883-0.015625-10.328z" style=""/>
  </g>
</svg>