
<svg width="100" height="auto" version="1.1" viewBox="0 0 1200 1200" xmlns="http://www.w3.org/2000/svg">
 <g fill="#FFFFFF">
  <path d="m597.11 759.69c-153.61 0-297.97-22.258-396.07-61.062-7.2109-2.8516-10.75-11-7.9141-18.215 1.457-3.7109 3.3945-9.1719 3.3945-13.773 0-18.012-14.754-32.664-32.887-32.664-10.668 0-20.309 5.3867-26.449 14.773-2.2148 3.3828-5.7812 5.6523-9.7891 6.2227-4 0.57031-8.0664-0.61719-11.137-3.2539-23.93-20.527-36.574-44.223-36.574-68.523 0-49.738 55.758-95.184 157-127.97 96.621-31.293 224.62-48.523 360.43-48.523 164.27 0 319.9 25.832 416.3 69.098 3.4766 1.5625 6.1719 4.4688 7.4688 8.0547 1.2969 3.5859 1.0781 7.543-0.60156 10.969-1.082 2.2031-1.8359 5.6055-1.8359 8.2695 0 10.035 7.8945 18.203 17.605 18.203 5.9258 0 11.242-2.8984 14.215-7.75 2.0703-3.3789 5.4727-5.7266 9.3672-6.4648 3.8828-0.74219 7.918 0.19531 11.082 2.582 29.797 22.441 44.906 47.188 44.906 73.539 0 50.145-55.961 95.742-157.57 128.39-96.512 31.02-224.7 48.098-360.94 48.098zm-373.59-82.594c94.559 34.695 229.66 54.469 373.59 54.469 133.4 0 258.53-16.602 352.34-46.746 87.734-28.195 138.05-65.238 138.05-101.62 0-16.824-11.512-31.789-23.945-43.035-7.6953 5.9375-17.289 9.2539-27.508 9.2539-25.215 0-45.73-20.781-45.73-46.328 0-2.1172 0.15625-4.2773 0.45312-6.4297-93.641-38.828-239.41-61.836-393.66-61.836-132.94 0-257.86 16.75-351.76 47.156-86.117 27.895-137.54 65.73-137.54 101.21 0 12.496 5.7578 25.285 16.781 37.508 10.777-9.4805 24.555-14.852 39.039-14.852 33.641 0 61.012 27.27 61.012 60.789 0 3.6367-0.4375 7.1484-1.125 10.457z"/>
  <path d="m596.02 1111.2c-0.12109 0-0.23828-0.003906-0.35938-0.003906-49.508-1.2617-92.734-57.199-125-161.77-30.328-98.293-47.031-228.38-47.031-366.28 0-185.54 31.621-358.64 82.523-451.76 3.6484-6.6758 11.941-9.2383 18.723-5.7852 3.2656 1.6641 7.5625 2.918 9.9922 2.918 9.707 0 17.602-8.1641 17.602-18.203 0-5.25-1.8633-10.094-4.8672-12.641-3.1484-2.6719-4.9609-6.5898-4.9648-10.719-0.003907-4.1289 1.8125-8.0469 4.9609-10.723 15.871-13.48 32.066-20.031 49.504-20.031 50.141 0 93.816 55.309 126.3 159.95 30.418 97.984 47.176 228.32 47.176 367 0 103.17-9.1602 202.53-26.492 287.35-17.27 84.531-41.875 150.74-71.145 191.46-2.4219 3.3711-6.207 5.5-10.344 5.8125-4.1445 0.32031-8.207-1.2109-11.109-4.168-4.25-4.332-10.703-6.9141-17.262-6.9141-14.523 0-26.336 12.156-26.336 27.102 0 2.7578 0.86328 6.2734 1.7773 10 1.043 4.2578 0.046875 8.7578-2.7031 12.172-2.6641 3.3164-6.6953 5.2383-10.945 5.2383zm-70.707-955.73c-45.531 91.52-73.555 253.51-73.555 427.68 0 135.17 16.258 262.3 45.781 357.99 22.91 74.254 52.797 123.64 82.445 137.78 2.4414-28.176 25.84-50.348 54.25-50.348 8.2734 0 16.363 1.9102 23.562 5.4453 51.703-83.422 84.664-257.44 84.664-450.86 0-135.93-16.305-263.3-45.91-358.66-27.246-87.773-64.422-140.17-99.441-140.17-7.0977 0-13.887 1.8906-20.805 5.8555 2.7969 6.0508 4.2969 12.918 4.2969 20.133 0 25.543-20.512 46.328-45.727 46.328-3.3086 0-6.5664-0.48047-9.5625-1.1758z"/>
  <path d="m291.64 978.87c-25.812 0-46.18-7.4141-60.523-22.031-35.176-35.84-27.496-106.42 22.211-204.11 46.688-91.754 125.27-196.16 221.29-293.98 158.57-161.57 330.95-270.12 428.95-270.12 25.879 0 46.273 7.4141 60.621 22.031 35.137 35.801 27.461 106.24-22.211 203.7-46.551 91.332-125.12 195.88-221.25 294.36-159.49 161.61-331.9 270.16-429.08 270.16zm611.93-762.12c-89.52 0-257.66 107.62-408.89 261.7-94.055 95.832-170.87 197.77-216.29 287.04-41.832 82.215-52.004 146.38-27.203 171.65 8.8594 9.0312 22.469 13.609 40.449 13.609 88.738 0 256.93-107.63 409.02-261.73 94.145-96.461 170.97-198.56 216.27-287.43 41.785-81.992 51.953-146 27.195-171.23-8.8555-9.0312-22.5-13.609-40.547-13.609z"/>
  <path d="m903.57 978.87c-98.004 0-270.39-108.55-428.96-270.12-96.156-98.516-174.73-203.06-221.28-294.39-49.668-97.457-57.348-167.89-22.211-203.7 14.348-14.617 34.711-22.027 60.523-22.027 97.18 0 269.6 108.54 429.03 270.1 96.039 97.852 174.62 202.26 221.31 294.01 49.707 97.688 57.383 168.27 22.211 204.11-14.348 14.613-34.742 22.027-60.625 22.027zm-611.93-762.12c-17.98 0-31.59 4.5781-40.449 13.605-24.758 25.227-14.59 89.234 27.195 171.23 45.297 88.879 122.12 190.98 216.32 287.49 151.2 154.06 319.34 261.67 408.86 261.67 18.043 0 31.691-4.5781 40.551-13.609 24.801-25.27 14.629-89.434-27.203-171.65-45.422-89.27-122.23-191.21-216.29-287.04-152.05-154.07-320.25-261.7-408.99-261.7z"/>
  <path d="m534.87 156.69c-25.215 0-45.727-20.781-45.727-46.328 0-25.543 20.512-46.328 45.727-46.328s45.727 20.781 45.727 46.328-20.512 46.328-45.727 46.328zm0-64.527c-9.707 0-17.602 8.1641-17.602 18.203 0 10.035 7.8945 18.203 17.602 18.203 9.707 0 17.602-8.1641 17.602-18.203 0-10.035-7.8945-18.203-17.602-18.203z"/>
  <path d="m1036.1 549.42c-25.215 0-45.73-20.781-45.73-46.328 0-25.543 20.516-46.328 45.73-46.328 25.215 0 45.727 20.781 45.727 46.328s-20.512 46.328-45.727 46.328zm0-64.527c-9.707 0-17.605 8.1641-17.605 18.203 0 10.035 7.8945 18.203 17.605 18.203 9.707 0 17.602-8.1641 17.602-18.203s-7.8984-18.203-17.602-18.203z"/>
  <path d="m634.23 1139.1c-30.031 0-54.461-24.773-54.461-55.227 0-30.449 24.43-55.227 54.461-55.227 29.523 0 54.461 25.289 54.461 55.227 0.003906 14.469-5.6914 28.238-16.035 38.777-10.41 10.609-24.055 16.449-38.426 16.449zm0-82.328c-14.52 0-26.336 12.156-26.336 27.102 0 14.945 11.816 27.102 26.336 27.102 6.7578 0 13.273-2.8516 18.355-8.0234 5.0742-5.1719 7.9844-12.125 7.9844-19.074 0-14.441-12.309-27.105-26.34-27.105z"/>
  <path d="m163.63 727.43c-33.043-0.003906-59.922-27.273-59.922-60.789 0-33.52 26.879-60.793 59.922-60.793 33.641 0 61.012 27.273 61.012 60.793s-27.371 60.789-61.012 60.789zm0-93.457c-17.234 0-31.797 14.961-31.797 32.668 0 17.703 14.562 32.664 31.797 32.664 18.133 0 32.887-14.652 32.887-32.664s-14.754-32.668-32.887-32.668z"/>
  <path d="m597.3 664.53c-43.664 0-79.188-36.398-79.188-81.137 0-43.59 36.262-80.418 79.188-80.418 44.051 0 79.891 36.074 79.891 80.418 0.003906 44.738-35.836 81.137-79.891 81.137zm0-133.43c-27.676 0-51.062 23.945-51.062 52.293 0 28.738 23.383 53.012 51.062 53.012 28.543 0 51.766-23.781 51.766-53.012 0.003906-28.348-23.703-52.293-51.766-52.293z"/>
  <path d="m164.06 1021.9c-3.7031 0-7.3125-1.5039-9.9375-4.125-2.625-2.6016-4.125-6.2344-4.125-9.9375s1.5-7.3359 4.125-9.9375c2.6016-2.625 6.2344-4.125 9.9375-4.125s7.3359 1.5 9.9375 4.125c2.625 2.6016 4.125 6.2344 4.125 9.9375s-1.5 7.3359-4.125 9.9375c-2.625 2.6211-6.2344 4.125-9.9375 4.125z"/>
  <path d="m328.12 1068.8c-3.7031 0-7.3359-1.5039-9.9375-4.125-2.625-2.6016-4.125-6.2344-4.125-9.9375s1.5-7.3125 4.125-9.9375c2.6016-2.625 6.2344-4.125 9.9375-4.125s7.3359 1.5 9.9375 4.125c2.625 2.6016 4.125 6.2344 4.125 9.9375s-1.5 7.3359-4.125 9.9375c-2.6016 2.6211-6.2344 4.125-9.9375 4.125z"/>
  <path d="m328.12 131.25c-3.7031 0-7.3125-1.5-9.9375-4.125-2.625-2.6016-4.125-6.2344-4.125-9.9375s1.5-7.3125 4.125-9.9375c2.6016-2.625 6.2344-4.125 9.9375-4.125s7.3359 1.5 9.9375 4.125c2.625 2.625 4.125 6.2344 4.125 9.9375s-1.5 7.3125-4.125 9.9375c-2.6016 2.625-6.2344 4.125-9.9375 4.125z"/>
  <path d="m164.06 178.12c-3.7031 0-7.3125-1.5-9.9375-4.125-2.625-2.6016-4.125-6.2344-4.125-9.9375s1.5-7.3125 4.125-9.9375 6.2344-4.125 9.9375-4.125 7.3359 1.5 9.9375 4.125c2.625 2.625 4.125 6.2344 4.125 9.9375s-1.5 7.3359-4.125 9.9375c-2.6016 2.625-6.2344 4.125-9.9375 4.125z"/>
  <path d="m1054.7 295.31c-3.7031 0-7.3359-1.5-9.9375-4.125-2.625-2.6016-4.125-6.2344-4.125-9.9375s1.5-7.3359 4.125-9.9375c2.625-2.625 6.2344-4.125 9.9375-4.125s7.3359 1.5 9.9375 4.125c2.6211 2.6016 4.125 6.2344 4.125 9.9375s-1.5039 7.3359-4.125 9.9375c-2.6016 2.625-6.2344 4.125-9.9375 4.125z"/>
  <path d="m1101.6 881.25c-3.7031 0-7.3359-1.5039-9.9375-4.125-2.625-2.6016-4.125-6.2344-4.125-9.9375s1.5-7.3359 4.125-9.9375c2.6016-2.625 6.2344-4.125 9.9375-4.125s7.3359 1.5 9.9375 4.125c2.6211 2.6016 4.125 6.2344 4.125 9.9375s-1.5039 7.3125-4.125 9.9375c-2.6016 2.6211-6.2344 4.125-9.9375 4.125z"/>
  <path d="m890.62 1068.8c-3.7031 0-7.3359-1.5039-9.9375-4.125-2.625-2.6016-4.125-6.2344-4.125-9.9375s1.5-7.3359 4.125-9.9375c2.6016-2.625 6.2344-4.125 9.9375-4.125s7.3359 1.5 9.9375 4.125c2.6211 2.625 4.125 6.2344 4.125 9.9375s-1.5039 7.3359-4.125 9.9375c-2.6016 2.6211-6.2344 4.125-9.9375 4.125z"/>
  <path d="m1054.7 178.12c-3.7031 0-7.3125-1.5-9.9375-4.125-2.625-2.6016-4.125-6.2344-4.125-9.9375s1.5-7.3359 4.125-9.9375c2.6016-2.625 6.2344-4.125 9.9375-4.125s7.3359 1.5 9.9375 4.125c2.6211 2.625 4.125 6.2344 4.125 9.9375s-1.5039 7.3125-4.125 9.9375c-2.6016 2.625-6.2344 4.125-9.9375 4.125z"/>
 </g>
</svg>
