
<svg width="100" height="auto" viewBox="98.888 197.909 1002.182 795.895" xmlns="http://www.w3.org/2000/svg">
  <g fill="#FFFFFF">
    <path d="m361.85 563.97c-0.56641 0-1.1367-0.082031-1.6992-0.24609-2.4414-0.72266-4.1602-2.8984-4.293-5.4414l-17.238-333.71c-0.082032-1.6445 0.50781-3.25 1.6406-4.4414 1.1367-1.1953 2.707-1.8711 4.3555-1.8711l258.63 0.003907c2.2539 0 4.3164 1.2656 5.3438 3.2695 1.0234 2.0078 0.83594 4.418-0.48047 6.2461l-241.4 333.71c-1.1445 1.5898-2.9688 2.4844-4.8594 2.4844zm-10.926-333.71 16.039 310.4 224.53-310.41z" style="fill: #FFFFFF;"/>
    <path d="m362.21 564.33c-0.27344 0-0.55859-0.019531-0.83203-0.058593l-225.59-31.613c-0.85547-0.11719-1.668-0.42188-2.3945-0.88281-10.668-6.8125-17.008-15.312-18.852-25.258-2.8359-15.328 6.4375-28.09 6.8359-28.629l218.66-257.16c1.5859-1.875 4.1523-2.5703 6.4922-1.7969 2.3281 0.78516 3.9375 2.9141 4.0703 5.3672l17.602 333.71c0.09375 1.7891-0.62109 3.5273-1.9375 4.7422-1.1133 1.0117-2.5586 1.5703-4.0547 1.5703zm-223.42-43.367 217.05 30.418-16.422-311.39-208.64 245.35h0.003907c0.023437 0-6.3203 9.0703-4.418 19.09 1.1797 6.207 5.3555 11.762 12.43 16.535z" style="fill: #FFFFFF;"/>
    <path d="m844.28 563.97h-482.43c-2.2539 0-4.3164-1.2656-5.3438-3.2695-1.0234-2.0078-0.83594-4.418 0.48047-6.2461l241.39-333.71c1.1289-1.5586 2.9414-2.4844 4.8633-2.4844 1.9297 0 3.7383 0.92578 4.8633 2.4844l241.04 333.71c1.3164 1.8281 1.5039 4.2422 0.48047 6.2461-1.0273 2.0117-3.0898 3.2695-5.3477 3.2695zm-470.68-12h458.95l-229.3-317.47z" style="fill: #FFFFFF;"/>
    <path d="m844.28 563.97c-1.8945 0-3.7148-0.89453-4.8633-2.4844l-241.04-333.71c-1.3164-1.8281-1.5039-4.2422-0.48047-6.2461 1.0234-2.0078 3.0859-3.2695 5.3438-3.2695h256.48c1.6406 0 3.207 0.66797 4.3398 1.8555 1.1289 1.1836 1.7305 2.7852 1.6523 4.418l-15.445 333.71c-0.11719 2.5469-1.832 4.7461-4.2852 5.4727-0.55469 0.16797-1.1328 0.25-1.7031 0.25zm-229.3-333.71 224.11 310.27 14.359-310.27z" style="fill: #FFFFFF;"/>
    <path d="m844.28 564.33c-1.4766 0-2.918-0.54297-4.0234-1.5547-1.332-1.207-2.0508-2.9414-1.9688-4.7305l15.805-333.71c0.11719-2.4648 1.7305-4.6094 4.0664-5.4023 2.3359-0.77344 4.918-0.0625 6.5078 1.8125l199 235.65c0.042969 0.046875 0.082031 0.09375 0.11719 0.14062 3.0039 3.793 29.133 37.652 20.434 59.809-3.5 8.9062-11.648 14.395-24.223 16.312l-214.85 31.617c-0.29297 0.039063-0.57813 0.0625-0.87109 0.0625zm21.078-324.18-14.738 311.18 207.6-30.551c12.086-1.8477 14.156-7.1016 14.832-8.832 5.2266-13.277-12.059-39.605-18.605-47.895z" style="fill: #FFFFFF;"/>
    <path d="m603.24 981.74c-1.5 0-3-0.55859-4.1602-1.6758l-466.62-449.02c-1.875-1.8047-2.375-4.6055-1.2344-6.9414 1.1367-2.332 3.5977-3.6875 6.2227-3.3203l225.23 31.254 481.61-0.058594 213.95-31.188 11.277-0.0625c2.4492 0 4.6445 1.4883 5.5664 3.7539 0.91406 2.2695 0.35547 4.8711-1.4062 6.5664l-466.27 449.02c-1.1562 1.1211-2.6562 1.6758-4.1562 1.6758zm-449.16-446.54 449.16 432.22 450.59-433.93-208.69 30.422-483.29 0.0625z" style="fill: #FFFFFF;"/>
    <path d="m603.24 981.74c-1.5039 0-3.0117-0.5625-4.1719-1.6875l-22.27-21.559c-0.42969-0.41797-0.79297-0.89062-1.0781-1.4062l-219.12-396.21c-1.0312-1.8633-0.99609-4.125 0.082032-5.9531 1.0781-1.8281 3.0469-2.9531 5.168-2.9531h482.43c2.1172 0 4.0781 1.1133 5.1562 2.9375 1.082 1.8164 1.125 4.0703 0.10938 5.9375l-211.94 389.38c-0.28906 0.51953-0.64844 1.0078-1.0781 1.4219l-29.098 28.383c-1.1641 1.1406-2.6797 1.707-4.1875 1.707zm-17.457-31.242 17.438 16.875 24.273-23.68 206.68-379.72h-462.16z" style="fill: #FFFFFF"/>
  </g>
</svg>