<svg id="Layer_1" data-name="Layer 1" xmlns="http://www.w3.org/2000/svg" viewBox="0 0 706.42 299.01"><path d="M686.25,101H623.74a53.18,53.18,0,0,0-21.55-28.27l35.62-47.23a2.2,2.2,0,0,0-3.51-2.64l-35.89,47.6a52.71,52.71,0,0,0-50.64,0l-35.9-47.6a2.19,2.19,0,0,0-3.5,2.64L544,72.74A53.16,53.16,0,0,0,522.44,101H459.93a41.88,41.88,0,0,0-41.84,41.84v131.3A41.89,41.89,0,0,0,459.93,316H686.25a41.89,41.89,0,0,0,41.84-41.84V142.85A41.88,41.88,0,0,0,686.25,101ZM573.09,68.38a49,49,0,0,1,46,32.63H527.06A49,49,0,0,1,573.09,68.38ZM723.7,274.15a37.49,37.49,0,0,1-37.45,37.45H459.93a37.5,37.5,0,0,1-37.46-37.45V142.85a37.51,37.51,0,0,1,37.46-37.46H686.25a37.5,37.5,0,0,1,37.45,37.46ZM554.64,135.23a743.77,743.77,0,0,0-99.15,6.36l-1.9.26V275.21l1.9.26a743.77,743.77,0,0,0,99.15,6.36,743.92,743.92,0,0,0,99.16-6.36l1.9-.26V141.85l-1.9-.26A743.82,743.82,0,0,0,554.64,135.23Zm96.67,136.14a740.46,740.46,0,0,1-96.67,6.07A740.2,740.2,0,0,1,458,271.37V145.69a772.73,772.73,0,0,1,193.33,0ZM689.7,141.58a17.55,17.55,0,1,0,17.55,17.55A17.55,17.55,0,0,0,689.7,141.58Zm0,30.71a13.16,13.16,0,1,1,13.16-13.16A13.16,13.16,0,0,1,689.7,172.29Zm0,17.79a17.55,17.55,0,1,0,17.55,17.55A17.55,17.55,0,0,0,689.7,190.08Zm0,30.71a13.16,13.16,0,1,1,13.16-13.16A13.16,13.16,0,0,1,689.7,220.79ZM528.27,188.23A26.38,26.38,0,0,0,543,211.85,42.86,42.86,0,0,0,511.84,253,2.19,2.19,0,0,0,514,255.2h81.22a2.2,2.2,0,0,0,2.2-2.19h0a42.87,42.87,0,0,0-31.18-41.16,26.35,26.35,0,1,0-38-23.62ZM593,250.81H516.29a38.42,38.42,0,0,1,76.71,0Zm-16.38-62.58a22,22,0,1,1-22-22A22,22,0,0,1,576.62,188.23Z" transform="translate(-21.67 -22)"/><path d="M248.16,263.47V317.7a3.31,3.31,0,1,0,6.62,0V263.47a3.31,3.31,0,0,0-6.62,0Z" transform="translate(-21.67 -22)"/><path d="M207.19,177.29c2.52,6.38,18.72,44.47,63.25,93.5a15.2,15.2,0,0,0,20.78,1.62c4.53-3.67,9.31-9.15,14.2-16.29,15.42-22.55,30.62-45.77,30.78-46a3.31,3.31,0,0,0-5.54-3.63c-.15.24-15.32,23.4-30.7,45.89-4.53,6.61-8.87,11.62-12.9,14.88a8.56,8.56,0,0,1-11.72-.92c-40.66-44.76-57.54-81-61.4-90.06l11.13-8.84,49,58.16a3.31,3.31,0,0,0,5.78-1.52c.84-4.44,11.26-21.67,17.63-31.49a3.31,3.31,0,0,0-5.55-3.6c-2.29,3.54-12,18.58-16.41,28L261.81,200.8l13.9-28.41.09-.21,3.21-7.92c3.54,3.81,7.55,5.63,12,5.45,13.08-.56,24.82-19.34,29.29-27.44a48.31,48.31,0,0,1,19.09,38.85V317.7a3.31,3.31,0,0,0,6.62,0V181.12a54.82,54.82,0,0,0-24.19-45.89c-2.23-5.87-6.85-19.45-6.55-25.74a3.84,3.84,0,0,0-.06-.76c3-.44,7.4-2,13.07-6.7,8.08-6.65,6.14-15.08,3.3-19.89,5-10.85,10.82-38.13-15.54-52.89a51.28,51.28,0,0,0-39.71-4c-31.21,9.41-31.1,37.34-31.06,49.27,0,1.73,0,3.22-.08,4.09-1,9.29,2.07,23.88,7.67,45.95,4,15.87,15.71,20.68,23.92,21.26L275,156.67l-5.25,12.91-12.56,25.68L229,161.88l2.81-17.37c1.47-9.06.8-15.1-2-18.48a5.47,5.47,0,0,0-5.44-1.8,5.72,5.72,0,0,0-4.25,4.19c-.57,2.32-1.9,6.23-4.43,6.31a.24.24,0,0,1-.11-.17l-1.43-6.87a7.4,7.4,0,0,0-9.72-5.46l-19,6.78a7.36,7.36,0,0,0-4.87,7.85,5,5,0,0,0,.11.53l.6,2.06A73.86,73.86,0,0,0,207.19,177.29ZM312.79,35c24.58,13.77,15.26,38.72,12.65,44.52-4.41,1.14-13.23,4-15.3,9.19a11.6,11.6,0,0,1-2.81,4.59,5.25,5.25,0,0,1-.79-1c-1-1.52-1.47-4.44-2-7.26-.85-4.86-1.73-9.89-5.43-12.36a8.56,8.56,0,0,0-6.87-1,16.78,16.78,0,0,0-8.93,5.09c-2,1.92-3.12,3.07-8.89,2.35-9.59-1.2-13.89-7-14.62-8.11-1.36-4.25-5.61-1.36-7.95-.11.18-12.14,2.43-32.07,26.34-39.28A44.66,44.66,0,0,1,312.79,35C337.37,48.79,302.59,29.3,312.79,35Zm11.27,61.9c-6.74,5.55-10.62,5.37-11.21,5.31a3.09,3.09,0,0,0-4,2c-.11.29-10.62,28.39-28.86,34.92-2.35.17-16.45.54-20.71-16.26-5.28-20.8-8.37-35.36-7.5-43.62.18-1.6,2.46-2.17,3.85-2.92,3,3.69,9.08,8.15,18,9.27,8.3,1,11.29-1.19,14.36-4.21a10.15,10.15,0,0,1,5.73-3.34,2.39,2.39,0,0,1,1.75.07c1.34.9,2.06,5,2.58,8,.6,3.45,1.22,7,2.88,9.65,2.15,3.4,4.54,4.21,6.33,4.21a4.93,4.93,0,0,0,.55,0c4.23-.38,6.94-5,8.47-8.83.47-1.18,3.68-2.91,7.6-4.27a2.54,2.54,0,0,1,3.3,1.79C327.74,91.12,327.41,94.17,324.06,96.92Zm-42.42,59.93,2-12c12.18-5,20.89-17.43,26-26.77a143.08,143.08,0,0,0,5.84,19.12c-4.25,8.13-15.26,25.47-24.77,25.87C287.47,163.19,284.48,161.16,281.64,156.85ZM209.92,171a67.18,67.18,0,0,1-22.34-33.43l-.49-1.69a.75.75,0,0,1,.51-.66l19-6.78a.77.77,0,0,1,1,.57l1.43,6.87a6.8,6.8,0,0,0,6.81,5.44c2.65-.09,7.18-1.39,9.8-8.56.37,1.94.49,5.22-.39,10.67l-2.85,17.6Z" transform="translate(-21.67 -22)"/><path d="M216.58,122.19a3.31,3.31,0,0,0,3.31-3.31v-9.55a3.31,3.31,0,1,0-6.62,0v9.55A3.31,3.31,0,0,0,216.58,122.19Z" transform="translate(-21.67 -22)"/><path d="M21.67,108v70.52a6.59,6.59,0,0,0,3.15,5.64,6.68,6.68,0,0,0,3.47,1,6.61,6.61,0,0,0,3-.71L71,164.35H85.68v6.06a16.8,16.8,0,0,0,16.78,16.78h9.75v8.44H96.09a6.63,6.63,0,0,0-6.62,6.62v8.43a6.63,6.63,0,0,0,6.62,6.62h33.28v18.11a3.31,3.31,0,0,0,3.31,3.31H134L93.58,316.17a3.31,3.31,0,0,0,1.4,4.47,3.35,3.35,0,0,0,1.53.37,3.3,3.3,0,0,0,2.93-1.77l42-80.52h5.79v79a3.31,3.31,0,0,0,6.62,0v-79h3.36l42,80.52A3.3,3.3,0,0,0,202.2,321a3.35,3.35,0,0,0,1.53-.37,3.31,3.31,0,0,0,1.4-4.47l-40.42-77.45h3.76a3.31,3.31,0,0,0,3.31-3.31V217.3h33.28a6.63,6.63,0,0,0,6.62-6.62v-8.43a6.63,6.63,0,0,0-6.62-6.62H194.62v-8.44H197a3.31,3.31,0,0,0,0-6.62H102.46A10.17,10.17,0,0,1,92.3,170.41V116.09a10.18,10.18,0,0,1,10.16-10.17h95.62a3.11,3.11,0,0,0,.81-.12l.21-.06a3.64,3.64,0,0,0,.69-.32l.08,0a3,3,0,0,0,.63-.55,2.09,2.09,0,0,0,.14-.17,3.59,3.59,0,0,0,.46-.75h0l3.62-8.65H219.1v3a3.32,3.32,0,0,0,3.31,3.31H235a3.31,3.31,0,0,0,3.31-3.31V65.41A3.31,3.31,0,0,0,235,62.1H222.41a3.32,3.32,0,0,0-3.31,3.31v3.28H194.53a6.63,6.63,0,0,0-5.8,3.42L174.2,98.49a3.51,3.51,0,0,0-.3.82h-15l-35.5-26.48a6.64,6.64,0,0,0-4-1.32H87.56v-6.1a3.31,3.31,0,0,0-3.31-3.31H57.09a12.79,12.79,0,0,0,0,25.58H84.25a3.31,3.31,0,0,0,3.31-3.31V78.13h31.91l28.39,21.18h-45.4a16.8,16.8,0,0,0-16.78,16.78v6H71L31.28,102.08A6.62,6.62,0,0,0,21.67,108ZM80.94,81.06H57.09a6.17,6.17,0,0,1,0-12.34H80.94ZM225.72,68.72h6V95h-6Zm-23.2,19.91a3.31,3.31,0,0,0-3.05,2l-3.62,8.65H181.31l13.22-24H219.1V88.63ZM136,217.3h29.17v14.81H136Zm-39.9-15.05h109v8.43h-109Zm22.74-6.62v-8.44H188v8.44Zm-33.15-37.9H73.56v-29H85.68Zm-57.4,20.78V108l38.65,19.5V159l-38.65,19.5h0Z" transform="translate(-21.67 -22)"/></svg>