<svg id="Layer_1" data-name="Layer 1" xmlns="http://www.w3.org/2000/svg" viewBox="0 0 702.74 332.37"><path d="M355.78,336.89c-4.15-1.5-12.07-6.41-23.39-14.33-2.64-1.89-4.15-3-5.28-3.77-2.27-1.89-3.77-3-9.43-5.66a34.22,34.22,0,0,0,.38-6c0-6.42-53.19-38.48-69.41-47.91-15.09-9.43-43.75-24.89-51.68-29.42a.82.82,0,0,0,.76-.76,1.39,1.39,0,0,0-.38-1.13c-8.67-7.16-13.2-13.58-15.09-20h0c-3.39-9.81,0-19.24,0-19.24v-.37h.38c5.66-6.42,12.45-14.34,14.33-17,1.89,1.51,5.28,3.4,10.57,6.79,7.16,4.15,42.62,23,50.54,23h1.13c1.13-.38,2.27-1.51,3.77-2.64l11.7,3.77c.37,0,.75.38,1.13.38a2.26,2.26,0,0,0,1.51-.38c1.88,3,4.52,5.28,7.16,6a8.29,8.29,0,0,0,3,.38,15.31,15.31,0,0,0,8.3-2.64c3.77-2.27,5.66-4.91,6-7.55.75-3.77-1.51-7.17-3.78-10.56-4.52-6.41-15.08-3.77-15.46-3.77h0c-.38,0-.38-.38-.76-.38L272.41,180a4.83,4.83,0,0,0-.37-2.26c-.76-1.51-4.91-3.78-12.83-7.93-5.66-3-12.45-6.41-17.73-9.8a148.64,148.64,0,0,1-25.27-20.75c-9.05-9.43-20.37-20.74-24.89-23-2.64-1.51-7.17-3.39-10.19-4.9-1.51-.76-8.3-4.53-10.94-5.66v-.75a23.71,23.71,0,0,0,2.64-.76c15.85-4.9,23.77-19.61,22.26-40.74,2.26-4.15-2.27-15.84-6.41-20.36A40.53,40.53,0,0,0,163.4,32.12h-6c-.38,0-13.2.75-22.63,10.56-6.42,6.79-9.06,16.22-8.68,27.91,0,6.41,2.26,12.83,6.79,18.86a40.61,40.61,0,0,0,5.28,6,4.11,4.11,0,0,0,2.64,1.13l2.26,3-1.13,2.64-14-.38c-.76,0-21.5-2.26-30.18-3.77C86.83,95.86,74,92.85,72.12,91.34c-.75-.76-3-7.17-4.9-12.45C62.69,66.44,59.67,58.52,57,57a10,10,0,0,0-4.15-.75L50.62,47.2a8.35,8.35,0,0,0-1.13-1.88.37.37,0,0,1,.38-.38c0-.38,3.77-9.43-2.27-14.71-3-2.64-6.41-5.28-9.8-4.9-3,0-5.66,1.88-8.3,5.28s-3.78,6.79-3.4,10.18,2.64,6.41,6,9.05a3.1,3.1,0,0,0-.38,2.65L34.4,60a9.87,9.87,0,0,0-4.53,4.15C27.23,71,40.06,103,45,109.82c4.91,6.41,52.43,31.31,58.09,34.32l4.9,32.44c-.75,1.89-6,12.83-8.29,16.22-8.68,14-9.81,18.11-10.94,22.64a20,20,0,0,1-1.89,5.65c-3.77,1.51-27.91,11.32-42.25,23.39C32.14,255,40.81,289,45.34,307.1c1.13,4.52,2.26,8.29,2.26,9.43a12.39,12.39,0,0,0,4.15,9.05A15.17,15.17,0,0,0,53.64,329a3.72,3.72,0,0,1-1.89,2.27l-1.13,1.13a42.26,42.26,0,0,1-9,6c-4.15,2.27-7.92,4.53-8.3,8.68-.38,2.26,1.88,4.9,4.9,6.41A15.54,15.54,0,0,0,45.34,355c4.9,0,11.32-1.89,19.24-9.05,0,0,3.39-2.27,9-5.66,4.9-3,3.77-9.05,2.26-12.45a33.75,33.75,0,0,0,3.4-3.77c2.64-3.77,3.77-33.95,3.77-41.49,5.66-2.64,47.9-20.75,63.37-18.49,24.89,4.15,81.47,37,82.23,37.35,48.66,25.27,66,31.31,66,31.31h.75a47,47,0,0,0,8.68-3c.75.37,3,1.88,6.41,3.77a10,10,0,0,1,.76,3.39,11.36,11.36,0,0,0,3.39,8.68c3.4,3.39,9,4.53,17.73,4.15a108.65,108.65,0,0,1,10.94.75,72.68,72.68,0,0,0,9.05.76,19.72,19.72,0,0,0,7.92-1.51c3.4-1.51,5.28-3.4,5.28-5.66C365.58,341,360.3,338.4,355.78,336.89ZM194.33,228.26c-6.79,2.26-30.55,10.18-56.58,14-1.13-2.64-5.65-12.45-6.41-19.24-.38-3.4.38-8.3,1.89-14,1.13.38,1.88.38,3,.76A107.73,107.73,0,0,0,158.12,212c11.32,0,19.62-1.51,22.26-2.26C182.26,215.44,186.79,221.47,194.33,228.26Zm-67.89,15.09c-1.13-1.13-4.91-6-5.66-21.12A45.64,45.64,0,0,1,122.29,206c2.64.75,5.66,1.88,8.67,2.64-1.51,5.65-2.26,10.93-1.88,14.71.75,6.79,4.52,15.84,6.41,19.61C132.47,243,129.45,243.35,126.44,243.35Zm-17-63.37c4.53,1.51,20.75,7.54,32.44,8.67,7.55.76,18.86,1.51,27.92,1.51a71.36,71.36,0,0,0,9.8-.37c-.75,3.39-2.26,10.18,0,17.72a94.26,94.26,0,0,1-21.5,2.27,134.29,134.29,0,0,1-21.5-1.89c-20.74-4.15-31.68-11.69-34.7-13.95C103.43,190.92,107.58,184.51,109.46,180ZM296.18,189c2.64,3.77,3.77,6,3.39,8.68-.37,1.88-1.88,3.77-5.28,6s-6.41,3-9.43,2.27a10.41,10.41,0,0,1-6.41-5.66,52.74,52.74,0,0,0,4.9-12.45v-1.51C286.37,185.64,293.16,184.51,296.18,189Zm-14.34-2.26c-1.13,3-3,8.67-5.28,12.45a1.39,1.39,0,0,1-1.13.37l-10.56-3.77A36.42,36.42,0,0,0,272,183.75a2.89,2.89,0,0,0,.37-1.51l8.68,3.4C281.47,186,281.84,186.39,281.84,186.77Zm-67.51-45.64a155.21,155.21,0,0,0,26,21.12c5.66,3.4,12.07,6.79,18.11,10.18,5.28,2.65,11.31,6,12.07,6.79,0,.38.75,1.14-.38,4.15-1.89,6-7.92,14-11.32,15.09-3,1.13-27.53-10.56-49.41-22.63-6-3.77-9.43-6-11.31-7.17l-.38-.37a5.51,5.51,0,0,0-1.13-.76h0c-.76-.38-1.13-.38-1.51.38-.38.38-.38.75.38,1.51h0l.37.37c-2.26,2.64-8.67,10.57-14.33,16.6-.76,0-.76.38-.76.76-1.13.37-3.77.75-10.93.75-9.06,0-20.37-.75-27.92-1.51h-.37c4.14-5.28,18.48-23,30.17-44.89l3.77-7.16c.76-1.51,5.66-13.2,5.66-19.62,2.64,1.13,6,3,8.3,3.78C194.33,120.76,206,132.45,214.33,141.13Zm-35.08-27.54c.37,4.53-3.78,15.47-5.66,19.62l-3.77,7.16A284.7,284.7,0,0,1,138.88,186a51.5,51.5,0,0,1-9.8-2.26c10.18-13.2,20.37-27.53,27.91-41.11h0a90.6,90.6,0,0,0,6.41-14l1.89-3.77c3-6.79,5.66-12.83,5.28-15.84C172.83,110.2,176.61,112.08,179.25,113.59Zm-7.55-10.94a10.92,10.92,0,0,1-3.39.76,1.34,1.34,0,0,0-.76.37c0,.38-.37.76,0,.76l.76,3h0v.75c.75,1.89-3.4,10.94-5.28,15.09-.76,1.88-1.51,3.39-1.89,4.15-1.13,3.39-3,7.16-4.9,11.31a346.11,346.11,0,0,0-12.45-35.45l1.51-3.77a1.4,1.4,0,0,0-.38-1.14L143,96.62a.37.37,0,0,0,.38-.38l1.89-1.51c.75-.38.75-1.13.75-1.88-.38-.76-.75-1.14-1.51-1.14-3-.37-5.28-1.88-6.79-5.28a7.51,7.51,0,0,1,.76-7.92A2.85,2.85,0,0,1,141.15,77c2.64,0,5.28,3.4,6.41,4.53a1.39,1.39,0,0,0,1.13.38c.38,0,.76-.38,1.13-.76l2.27-5.66c2.64-5.28,7.92-8.67,10.94-10.56a21.49,21.49,0,0,1,5.28-1.88,67.32,67.32,0,0,1,10.56-.76,54.24,54.24,0,0,1,13.95,1.89C193.58,84.55,186.41,98.13,171.7,102.65Zm-37.34-14A32.84,32.84,0,0,1,128,71c-.38-11.32,2.26-20,7.92-26.41,8.3-9.05,20.74-9.8,20.74-9.8h5.66C177,35.89,185.66,44.94,186,44.94c4.14,4.15,7.54,14,6.41,17A60,60,0,0,0,177.74,60c-4.53,0-8.68.38-10.94,1.13a19.75,19.75,0,0,0-5.66,1.89,29.85,29.85,0,0,0-12.07,11.31l-1.51,3.77c-1.51-1.5-4.15-4.14-6.79-4.14a6.52,6.52,0,0,0-4.53,2.26,9.84,9.84,0,0,0-1.13,10.18,10,10,0,0,0,7.17,6.42l-.75.37c-.76.76-2.27.38-3,0A16.6,16.6,0,0,1,134.36,88.7Zm7.54,16.22c1.51,3.77,8.68,22.63,12.83,37.34-2.27,4.53-5.28,8.67-7.92,13.2-6.79-27.91-12.45-44.89-16.22-50.92ZM28.37,40.41c-.38-2.64.75-5.65,3-8.29,2.27-3,4.53-4.53,6.42-4.53,2.64-.38,4.9,1.51,8.29,4.53C51,36.27,47.6,44.19,47.6,44.56v.76h-.37c-3,.75-8.68,1.88-12.83,3.77A16,16,0,0,1,28.37,40.41ZM34,51.73a1.38,1.38,0,0,1,.38-1.13,100.3,100.3,0,0,1,13.2-3.77c.38,0,1.13,0,1.13.75L51,56.26A39.13,39.13,0,0,0,37.8,58.9c-.38,0-.76.37-1.14.37Zm13.21,57c-5.66-7.17-17-38.1-14.72-43.38.76-1.51,3-3,6.42-4.53,6.79-2.26,15.46-3,17.35-1.88s6.41,12.82,9,20.74c3.4,9.06,4.53,12.45,5.66,13.21,3.39,2.64,26.4,7.16,26.4,7.16,8.3,1.51,27.92,3.77,30.18,3.77,2.26,1.51,8.3,16.22,17.35,53.57v.37c-5.66,8.68-12.07,17-18.11,25.28-7.54-2.27-14.33-4.53-16.59-5.28v-.38h0v-.76h0l-4.91-33.19h0v-.75h-.37C90.23,134.71,51.37,114,47.23,108.69ZM91,216.19c1.13-4.15,2.26-8.3,9.81-20.75,2.26,1.89,8.3,6,18.86,9.81a53.86,53.86,0,0,0-1.51,15.84h-29A16,16,0,0,0,91,216.19ZM72.5,338.4c-5.66,3.4-9.06,5.66-9.43,5.66-12.45,11.32-20.75,8.68-23.77,7.17-2.64-1.51-3.77-3.4-3.77-4.15.38-3,3.4-4.53,7.17-6.79a35.06,35.06,0,0,0,9.43-6.41l1.13-1.13a12.7,12.7,0,0,0,2.26-2.27,14.69,14.69,0,0,0,6,2.64h2.26c3.77,0,7.17-1.51,10.56-3.77C75.14,332,75.89,336.14,72.5,338.4Zm222.92-7.92c-2.64-.75-20.37-7.16-65.63-30.93-2.26-1.51-57.33-33.57-83-37.72-17-2.64-63.37,18.11-65.64,18.86-.37,0-.75.76-.75,1.13C80,296.53,78.53,320.3,77,322.94c-4.15,6-10.18,9.05-15.84,7.92-3.77-.76-6.79-3-7.92-6.41,0-.38-.38-.38-.38-.76a9.72,9.72,0,0,1-3.77-7.54c0-1.13-.75-4.15-2.26-9.81C42.7,290.12,33.65,255.8,45.34,246c14.33-12.45,39.23-22.26,41.87-23h30.55c1.13,17.73,6.79,21.88,6.79,22.25h0a1.33,1.33,0,0,0,.76.38h0c29.42-2.64,58.84-12.07,67.89-15.09,3.77,1.89,37,20,53.56,30.18,32.44,19.24,67.52,42.25,68.28,46C315.79,313.13,315.79,325.58,295.42,330.48Zm64.13,17.73c-4.53,1.89-10.19,1.13-15.84.38-3.78-.38-7.55-1.13-11.32-.76q-11.88.57-15.84-3.39c-1.89-1.51-2.64-3.77-2.64-7.17a38.82,38.82,0,0,0-1.14-4.15c0-.37-.37-.37-.37-.75q-4-2.26-5.66-3.4a20.63,20.63,0,0,0,10.56-13.58,28.84,28.84,0,0,1,8.3,5.28,41.42,41.42,0,0,0,5.28,4.15c7.92,5.66,18.48,12.83,24.14,14.71,6,2.27,8.3,4.53,8.3,6C363.32,346,361.81,347.08,359.55,348.21Z" transform="translate(-26.03 -22.63)"/><path d="M389.22,341.4c0,2.26,1.89,4.15,5.28,5.66a19.77,19.77,0,0,0,7.93,1.51,72.84,72.84,0,0,0,9.05-.76,105.8,105.8,0,0,1,10.94-.75c8.67.37,14.33-.76,17.73-4.15a11.38,11.38,0,0,0,3.39-8.68,10.11,10.11,0,0,1,.75-3.39c3.4-1.89,5.66-3.4,6.42-3.77a46.42,46.42,0,0,0,8.67,3h.76s17.35-6,66-31.3c.75-.38,57.33-33.2,82.23-37.35,15.46-2.26,57.71,15.85,63.37,18.49,0,7.54,1.13,37.72,3.77,41.49a33.71,33.71,0,0,0,3.39,3.77c-1.51,3.39-2.64,9.43,2.27,12.45,5.65,3.39,9.05,5.66,9.05,5.66,7.92,7.16,14.33,9,19.24,9a15.66,15.66,0,0,0,7.16-1.51c3-1.51,5.28-4.15,4.91-6.41-.38-4.15-4.15-6.42-8.3-8.68a41.78,41.78,0,0,1-9-6l-1.14-1.14a3.66,3.66,0,0,1-1.88-2.26,15.12,15.12,0,0,0,1.88-3.39,12.38,12.38,0,0,0,4.15-9.06c0-1.13,1.14-4.9,2.27-9.43,4.52-18.1,13.2-52.05.75-62.61-14.33-12.07-38.47-21.88-42.25-23.39a19.93,19.93,0,0,1-1.88-5.66c-1.13-4.52-2.26-8.67-10.94-22.63-2.26-3.39-7.54-14.33-8.3-16.22l4.91-32.44c5.65-3,53.18-27.91,58.08-34.32,4.91-6.79,17.73-38.85,15.09-45.64a9.79,9.79,0,0,0-4.52-4.15l2.64-7.55a3.12,3.12,0,0,0-.38-2.64c3.39-2.64,5.66-5.65,6-9S728,31.34,725.31,28,720,22.67,717,22.67c-3.39-.38-6.79,2.26-9.81,4.9-6,5.28-2.26,14.33-2.26,14.71a.37.37,0,0,1,.38.38,7.79,7.79,0,0,0-1.13,1.88l-2.27,9.06a10.11,10.11,0,0,0-4.15.75c-2.64,1.51-5.65,9.43-10.18,21.88-1.89,5.28-4.15,11.69-4.9,12.45C680.8,90.18,668,93.2,657,95.46c-8.68,1.51-29.43,3.78-30.18,3.78l-14,.37L611.77,97,614,94a4.08,4.08,0,0,0,2.65-1.14,40.6,40.6,0,0,0,5.28-6c4.52-6,6.79-12.45,6.79-18.86.37-11.69-2.27-21.12-8.68-27.91-9.43-9.81-22.25-10.57-22.63-10.57h-6a40.64,40.64,0,0,0-25.27,10.94c-4.15,4.53-8.68,16.22-6.41,20.37C558.21,81.89,566.13,96.6,582,101.5a22.48,22.48,0,0,0,2.64.75V103c-2.64,1.13-9.43,4.9-10.94,5.66-3,1.51-7.54,3.39-10.18,4.9-4.53,2.26-15.84,13.58-24.9,23a147.87,147.87,0,0,1-25.27,20.75c-5.28,3.39-12.07,6.79-17.73,9.8-7.92,4.15-12.07,6.42-12.82,7.92a4.78,4.78,0,0,0-.38,2.27L473,181.09c-.38,0-.38.38-.75.38h0c-.38,0-10.94-2.64-15.47,3.77-2.26,3.39-4.52,6.79-3.77,10.56.38,2.64,2.26,5.28,6,7.54A15.17,15.17,0,0,0,467.3,206a8.44,8.44,0,0,0,3-.37c2.64-.76,5.28-3,7.17-6A2.26,2.26,0,0,0,479,200c.37,0,.75-.38,1.13-.38l11.69-3.77c1.51,1.13,2.64,2.26,3.77,2.64h1.14c7.92,0,43.37-18.86,50.54-23,5.28-3.39,8.68-5.28,10.56-6.79,1.89,2.64,8.68,10.56,14.34,17h.37V186s3.4,9.43,0,19.24h0c-1.88,6.41-6.41,12.83-15.09,20a1.41,1.41,0,0,0-.37,1.13.81.81,0,0,0,.75.76c-7.92,4.52-36.59,20-51.67,29.42-16.22,9.43-69.41,41.49-69.41,47.9a34.28,34.28,0,0,0,.38,6c-5.66,2.64-7.17,3.77-9.43,5.66-1.13.75-2.64,1.88-5.28,3.77-11.32,7.92-19.24,12.82-23.39,14.33C394.5,335.74,389.22,338.38,389.22,341.4ZM574.43,207.12c2.64.75,10.94,2.26,22.25,2.26a107.66,107.66,0,0,0,21.88-2.26c1.13-.38,1.89-.38,3-.76,1.51,5.66,2.26,10.56,1.89,14-.76,6.79-5.29,16.6-6.42,19.24-26-3.78-49.79-11.7-56.58-14C568,218.81,572.54,212.77,574.43,207.12Zm44.89,33.19c1.88-3.77,5.65-12.82,6.41-19.61.38-3.78-.38-9.06-1.89-14.72,3-.75,6-1.88,8.68-2.64A45.92,45.92,0,0,1,634,219.56c-.76,15.09-4.53,20-5.66,21.13C625.35,240.69,622.33,240.31,619.32,240.31Zm33.57-49c-3,2.27-14,9.81-34.71,14a134.18,134.18,0,0,1-21.5,1.89,94.34,94.34,0,0,1-21.5-2.27c2.27-7.54.76-14.33,0-17.73a69.65,69.65,0,0,0,9.81.38c9,0,20.37-.75,27.91-1.51,11.7-1.13,27.92-7.16,32.44-8.67C647.23,181.84,651.38,188.26,652.89,191.27Zm-181.44-7.54v1.51a53,53,0,0,0,4.91,12.45,10.41,10.41,0,0,1-6.42,5.65c-3,.76-6,0-9.43-2.26s-4.9-4.15-5.28-6c-.37-2.64.76-4.91,3.4-8.68C461.65,181.84,468.44,183,471.45,183.73Zm2.27-.75,8.67-3.4a2.84,2.84,0,0,0,.38,1.51,36.52,36.52,0,0,0,7.17,12.07l-10.57,3.77a1.39,1.39,0,0,1-1.13-.38c-2.26-3.77-4.15-9.43-5.28-12.44C473,183.73,473.34,183.35,473.72,183Zm91.66-67.15c2.26-.75,5.65-2.64,8.29-3.77,0,6.41,4.91,18.11,5.66,19.62l3.77,7.16c11.7,21.88,26,39.61,30.18,44.89h-.38c-7.54.75-18.86,1.51-27.91,1.51-7.17,0-9.81-.38-10.94-.76,0-.37,0-.75-.75-.75-5.66-6-12.07-14-14.34-16.6l.38-.37h0c.76-.76.76-1.14.38-1.51-.38-.76-.76-.76-1.51-.38h0a5.46,5.46,0,0,0-1.13.75l-.38.38c-1.89,1.13-5.28,3.4-11.32,7.17C523.51,185.24,499,196.93,496,195.8c-3.39-1.13-9.43-9.05-11.31-15.09-1.14-3-.38-3.77-.38-4.15.75-.75,6.79-4.15,12.07-6.79,6-3.39,12.45-6.79,18.1-10.18a155.78,155.78,0,0,0,26-21.12C548.78,129.79,560.47,118.1,565.38,115.83Zm18.86-9.43c-.38,3,2.26,9.06,5.28,15.85.75,1.5,1.51,3,1.88,3.77a89.68,89.68,0,0,0,6.42,14h0c7.54,13.58,17.72,27.92,27.91,41.12a51.59,51.59,0,0,1-9.81,2.26A286.69,286.69,0,0,1,585,137.71l-3.77-7.17c-1.89-4.14-6-15.08-5.66-19.61C578.2,109.42,582,107.54,584.24,106.4ZM562,61.52a54.32,54.32,0,0,1,14-1.89,67.42,67.42,0,0,1,10.56.76,21.64,21.64,0,0,1,5.28,1.88c3,1.89,8.3,5.28,10.94,10.56L605,78.49c.38.38.76.76,1.13.76a1.4,1.4,0,0,0,1.14-.38c1.13-1.13,3.77-4.53,6.41-4.53a2.86,2.86,0,0,1,2.64,1.51,7.53,7.53,0,0,1,.75,7.92c-1.51,3.4-3.77,4.91-6.79,5.28-.75,0-1.13.38-1.51,1.13,0,.76,0,1.51.76,1.89l1.88,1.51a.37.37,0,0,0,.38.38l-1.88,1.88a1.39,1.39,0,0,0-.38,1.13l1.51,3.78a345.17,345.17,0,0,0-12.45,35.45c-1.89-4.15-3.77-7.92-4.9-11.31-.38-.76-1.14-2.27-1.89-4.15-1.89-4.15-6-13.2-5.28-15.09v-.76h0l.75-3c.38,0,0-.38,0-.76a1.3,1.3,0,0,0-.75-.37,11,11,0,0,1-3.4-.76C568.39,95.46,561.23,81.89,562,61.52Zm54.32,29c-.76.38-2.26.76-3,0l-.75-.38a10,10,0,0,0,7.16-6.41,9.84,9.84,0,0,0-1.13-10.18A6.53,6.53,0,0,0,614,71.32c-2.65,0-5.29,2.64-6.79,4.15l-1.51-3.77a29.9,29.9,0,0,0-12.07-11.31A19.85,19.85,0,0,0,588,58.5c-2.27-.76-6.41-1.13-10.94-1.13a60.39,60.39,0,0,0-14.71,1.88c-1.13-3,2.26-12.82,6.41-17,.38,0,9.05-9.05,23.76-10.18h5.66s12.45.75,20.75,9.8c5.66,6.41,8.3,15.09,7.92,26.41A32.86,32.86,0,0,1,620.45,86,16.52,16.52,0,0,1,616.3,90.56Zm7.92,11.32c-3.77,6-9.43,23-16.22,50.92-2.64-4.53-5.66-8.68-7.92-13.2,4.15-14.71,11.31-33.57,12.82-37.35Zm96.19-55.45c-4.15-1.89-9.81-3-12.83-3.77h-.38V41.9c0-.37-3.39-8.3,1.51-12.45,3.4-3,5.66-4.9,8.3-4.52,1.89,0,4.15,1.51,6.41,4.52,2.27,2.65,3.4,5.66,3,8.3A16,16,0,0,1,720.41,46.43Zm-2.27,10.18c-.37,0-.75-.37-1.13-.37a39.13,39.13,0,0,0-13.2-2.64l2.26-8.68c0-.75.76-.75,1.13-.75a100.42,100.42,0,0,1,13.21,3.77,1.39,1.39,0,0,1,.37,1.13ZM649.87,140h-.38v.76h0l-4.9,33.19h0v.76h0v.37c-2.26.76-9.05,3-16.6,5.28-6-8.29-12.45-16.59-18.1-25.27v-.37c9.05-37.35,15.08-52.06,17.35-53.57,2.26,0,21.87-2.26,30.17-3.77,0,0,23-4.53,26.41-7.17,1.13-.75,2.26-4.15,5.66-13.2,2.64-7.92,7.16-19.61,9-20.74s10.56-.38,17.35,1.88c3.39,1.51,5.66,3,6.41,4.53,2.26,5.28-9,36.21-14.71,43.38C703.43,111.31,664.58,132.05,649.87,140Zm15.84,78.46h-29a54.16,54.16,0,0,0-1.51-15.84c10.56-3.77,16.6-7.92,18.86-9.81,7.54,12.45,8.67,16.6,9.81,20.75A15.9,15.9,0,0,0,665.71,218.43Zm14.71,108.26c3.4,2.26,6.79,3.77,10.56,3.77h2.27a14.78,14.78,0,0,0,6-2.64,12.76,12.76,0,0,0,2.27,2.26l1.13,1.14a34.91,34.91,0,0,0,9.43,6.41c3.77,2.26,6.79,3.77,7.16,6.79,0,.75-1.13,2.64-3.77,4.15-3,1.51-11.31,4.15-23.76-7.17-.38,0-3.77-2.26-9.43-5.66C678.91,333.48,679.67,329.33,680.42,326.69ZM439.77,304.06c.75-3.78,35.83-26.78,68.27-46,16.6-10.19,49.79-28.29,53.56-30.18,9.06,3,38.48,12.45,67.9,15.09h0a1.29,1.29,0,0,0,.75-.38h0c0-.37,5.66-4.52,6.79-22.25H667.6c2.64.75,27.53,10.56,41.87,23,11.69,9.8,2.64,44.13-1.51,60.35-1.51,5.66-2.27,8.68-2.27,9.81a9.72,9.72,0,0,1-3.77,7.54c0,.38-.37.38-.37.76-1.14,3.39-4.15,5.65-7.93,6.41-5.65,1.13-11.69-1.89-15.84-7.92-1.51-2.64-3-26.41-3.39-41.12,0-.38-.38-1.13-.76-1.13-2.26-.75-48.66-21.5-65.63-18.86-25.65,4.15-80.72,36.21-83,37.72-45.27,23.76-63,30.18-65.64,30.93C439,322.92,439,310.47,439.77,304.06Zm-48.28,38.85c0-1.51,2.26-3.77,8.29-6,5.66-1.88,16.22-9.05,24.15-14.71a43.14,43.14,0,0,0,5.28-4.15,28.7,28.7,0,0,1,8.3-5.28,20.63,20.63,0,0,0,10.56,13.58q-1.69,1.14-5.66,3.4c0,.37-.38.37-.38.75a39.35,39.35,0,0,0-1.13,4.15c0,3.39-.75,5.66-2.64,7.17q-4,4-15.84,3.39c-3.77-.38-7.55.38-11.32.76-5.66.75-11.32,1.5-15.84-.38C393,344.42,391.49,343.29,391.49,342.91Z" transform="translate(-26.03 -22.63)"/></svg>