<svg xmlns="http://www.w3.org/2000/svg" xmlns:xlink="http://www.w3.org/1999/xlink" viewBox="0 0 931.76 768" xmlns:v="https://vecta.io/nano"><g fill="none" stroke="#4057A1" stroke-linecap="round" stroke-linejoin="round"><path d="M443.44 500.3a12.37 12.37 0 0 0 .25-1.8q0-79.67 0-159.33v-2.3h-58.41q-40.72 0-81.47 0c-4.87 0-9.73-.48-14.6-.46l-77.63.48h-12c-4-.07-7.86-.46-11.78-.46-4.27 0-8.54.43-12.81.45h-33.57-22-11.27a20.23 20.23 0 0 1-3.48-.75c-.71.93-1.82 1.46-2.89-.3-2 1.44-4 1.64-5.91 0-2.19 1.5-3.48 1.5-5.69 0-.49.34-1 1-1.5 1-2.82.1-5.64.05-8.46.05H48.64 27.89c-1.37 0-2.74-.21-4.23-.33v279.79h420V500.55M550.53 164l-.26-4.1c-.2-2.22-1.33-3.25-3.58-3.33H381.18v11q0 10.62 0 21.26c0 2.36 1 3.44 3.33 3.58h1.28q79.41 0 158.84.05c4.78 0 6-.92 5.63-5.8l2.31-1c-2.94-1.3-2.4-3.66-2.27-5.79.12-1.94-1.13-4.33 1.66-5.46-2.3-2.5-2.3-3.49 0-6l-1.5-.91c-.83-2.09.06-3.6 1.83-4.79M512.87 51.76c3.72-2 4.49-5.39 4.08-9.22a6.87 6.87 0 0 0-6.14-5.78c-4-.5-8.19-.11-12.29-.11h-1.41v29.46h5.38v-11.4c3.84-1.32 7 .42 7.82 4l1.9 7.56h5.93a60.27 60.27 0 0 1-1.87-7.31c-.37-2.77-2.34-4.58-3.4-6.91m-131.43-7.2l-4.87-.68v12.72c0 2.72-1.5 4.64-3.57 4.86-3 .32-4.55-1.11-4.6-4.35v-9.22c0-3.75-1.66-4.78-5.63-3.23 0 5.19-.24 10.5.09 15.77.2 3.17 2.66 5.09 5.55 6.13 2.34.83 6.41-.79 8.39-3.3l.56 2.56h4.6a13.23 13.23 0 0 0 .27-1.8V46.64a9.54 9.54 0 0 0-.49-2m11.49 1.74c-.77-.68-1.44-1.73-2.33-2-2.28-.63-3.1.39-3.07 3v16.65 2.18h5.63V55.6c0-4 0-4 3.08-6.66h2.64c2 1.23 2.6 3.07 2.51 5.39v9.22c0 .86.2 1.72.32 2.69h5.31c0-5.17.33-10.49-.09-15.75-.44-5.53-7.73-8.16-12.72-4.86a7.55 7.55 0 0 0-1 1M176.23 518.74a7.35 7.35 0 0 1-6.93 3.15c-9.89-.55-19.84-1.49-29.7-.94-17.6 1-35.19.77-52.79.81a48.39 48.39 0 0 1-8.44-1 13.09 13.09 0 0 1-3.09-1.49M675.81 261v-12h-5.38v31.38h4.14l.78-1.92c.38 0 .63-.07.71 0 4.71 4.95 13 2.44 15-4.39 1.33-4.46 1.23-9-1.92-13.07-2.51-3.26-9.86-3.55-12.33-.72-.12.15 0 .5 0 .75M373.5 470.58a52.66 52.66 0 0 1-5.62-1.82l-22.85-10.41a10.83 10.83 0 0 1-5.38-4.91l-9.7-16.42-2.32-4.16-23.63 8.3-7.22-10.77c-8.85 2.84-17.59 7.21-26.88 11l-34.08-11.23-3.46 6.45c-2.47-.29-4.68-2-6.72.47l-.42-.3c-.12 1.63-.28 3.26-.34 4.9s0 3.25 0 5.21l-4.82-.86-7.06 13.23a15.08 15.08 0 0 1 2.69 1.11c.79.52 1.88 1.29 1.94 2a3.59 3.59 0 0 1-1.45 2.49 7.51 7.51 0 0 1-3.3 1.53 17.13 17.13 0 0 1-4.85 0c-4.45-.59-8.89-1.29-13.33-2l-14.35-2.54c-1.6-.28-3.22-.47-4.69-.68-2.29 3-1.46 7.95-6.69 8.8l-1.82-2.38 4.06-.68v-.61l-2-.66 1.2-2m417.78-189.79l-1.3-5.88-1.75-5.65c-1-4-3.27-5.05-7.24-3.05q3.93 10.56 7.86 21.11h5.68l8.08-21c-1.11-1.49-2.77-1-4.15-.88-1.78.17-2.25 1.53-2.65 3.25-.94 4.08-2.31 8-3.5 12.06M724.49 279v-3.14l-2.82.32c-4.46.73-7.14.25-9.45-2.59a8.12 8.12 0 0 1-.8-2.28h14c2.13-5.28-1.46-12.7-7.32-12.94-6.63-.28-10.84 2.41-11.92 9.88s3.18 12.74 11.4 12.68c2.26 0 4.95.21 6.92-1.68M592.55 65.34c-4.7 2-9.3 2.23-13.84-.5-4.05-2.43-4.94-7.79-4.27-11.27s2.06-6.85 5.58-8.41a10.91 10.91 0 0 1 10 .2c3.06 1.64 4 4.51 4.34 7.69.12 1.18 0 2.4 0 4.09h-4.61-7.43a13.34 13.34 0 0 0-2.65.63c3.12 5.88 8.07 4.45 13.15 3.86v3.42m-54.07.29c-4.7 2-9.3 2.23-13.84-.5-4-2.43-4.94-7.79-4.27-11.27s2.06-6.85 5.58-8.41a10.91 10.91 0 0 1 10 .2c3.06 1.64 4 4.51 4.34 7.69.12 1.18 0 2.4 0 4.09h-4.61-7.43a13.18 13.18 0 0 0-2.65.63c3.12 5.88 8.07 4.45 13.15 3.86v3.42m109.12 195.23l.5 3.52c4-1 7.65-3.18 10.53 1.81l-5.39 1.06a9.1 9.1 0 0 0-6.7 4.34 6.36 6.36 0 0 0 .34 7.42c1.75 2.52 4.57 3 7.37 2.52 1.45-.23 2.78-1.2 4.21-1.86a4.14 4.14 0 0 0 5.91.52 27.82 27.82 0 0 1-.35-2.94v-9.48c0-7.15-4.83-9.53-10.52-8.79a15.76 15.76 0 0 0-6.13 1.62M428.84 46.13l.5 3.52c4-1 7.65-3.18 10.53 1.81l-5.4 1.07a9.08 9.08 0 0 0-6.7 4.33 6.37 6.37 0 0 0 .35 7.42c1.74 2.52 4.57 3 7.37 2.52 1.45-.23 2.78-1.2 4.21-1.86a4.13 4.13 0 0 0 5.9.52 27.52 27.52 0 0 1-.35-2.94v-10c0-3.34-1.36-6.1-4.39-7.62a9 9 0 0 0-4.83-1 55.09 55.09 0 0 0-7.44 1.95M614.32 279c-.1 1.33.68 1.59 1.8 1.54h3.56c-.25-5.3-.22-10.62-.82-15.87-.57-4.94-3.37-5.7-6.83-6.21s-6.29.3-9.7 1.52l1.08 3.47 8.09-1.14 2.06 3.26-7.94 2.17c-4.69 1.38-5.43 6.55-4.1 9.47 1.6 3.51 6.28 4.95 10 3.06a15.73 15.73 0 0 0 1.8-1.26M325.85 43.82l.72 22.42h5.63l-1.62-29.85h-7.53l-3.86 11.53q-1.54 4.61-3.08 9.22M842.6 259.51c-2.91-1.64-5.89-1.52-9-.54a6.05 6.05 0 0 0-4.5 5.92c-.06 2.72 1.6 4.8 4.25 5.9a32.41 32.41 0 0 0 3.09 1.49c2.1.62 1.84 2.07 1.71 3.66-3 1.52-5.69.19-8.59-.69l-.7 4.28c4.57 1.61 8.67 2.47 12.7-.54 3.09-2.3 3.31-7.54.23-9.72-1.17-.84-2.57-1.35-3.82-2.09s-2.41-1.58-3.77-2.48c2.39-3.88 5.61-1.1 8.36-1.73l.27-3.21M611 744.67c-.79 1.48.46 1 1 1h10 22.8c3.69 0 3.69 0 4.87-3.85l-.39-.48-1.67 1.5c-.82.63-1.69 1.71-2.55 1.72l-33.56.07c-.09 0-.18-.16-.26-.25m7.44-699.53l-.35 3.85 3.17.36v9.87a12.13 12.13 0 0 0 1.31 5.33c1.75 2.94 5.45 3.41 9.27 1.53v-3.41c-1.61-.71-4.54.1-4.7-2.93-.18-3.42 0-6.84 0-10.38h4.74v-4.41l-4.74-.53V39l-5.76 1.48v3.72l-2.69.39M789.82 259l-.35 3.86 3.17.36.05 9.87a12.13 12.13 0 0 0 1.31 5.33c1.75 2.94 5.45 3.41 9.27 1.53v-3.41c-1.61-.71-4.54.1-4.7-2.94-.18-3.41 0-6.83 0-10.5h4.61v-4.3l-4.61-.52v-5.14l-5.76 1.48v3.73l-2.69.39m-549.84 260l-.75-15.24h-2.84l.06 15c0 .63.9 1.24 1 1.37l7.39.46V503h-3.84v15.75M701.43 249l-5.24-.4-.38 4.76q-.06 11.4 0 22.8c0 1.36.21 2.73.34 4.22h5.42l.36-4.48q0-11.26 0-22.54c0-1.37-.16-2.73-.24-4.1M232.85 486.72c-.26.43-.46 1.17-.78 1.23-3.32.59-6.66 1-10 1.61-2.21.39-4.38 1-6.78 1.53 1.41 2.45 2.91 1.23 4.21 1l12.91-2.49a8.28 8.28 0 0 1 .64 2.25l.06 20.24c0 2 .38 4.07.6 6.24-6 1.56-11.66-.39-17.35.19-1.24-.65-2.47-1.49-1.26-3.39.31-.48 0-1.33 0-2V495.2a8.22 8.22 0 0 1 .74-2.3m20.85 27.89l-.88 2.81 2.42.25h13.57q15.38.21 30.75.52l9.22.43a92.78 92.78 0 0 0 11-1.27c1.44-.24 2.6-.35 3.59.82M565.13 47.92v-3.23l-3.07-.34c-1.61-.07-1.76 1.21-1.77 2.29v19.6h5.89V57.4a16.86 16.86 0 0 1 .05-3.83c.73-3.06 2.37-4.11 6.29-4.11l.4-4.5c-3.94-1.35-5.53-.59-6.74 3m-429.41 59.65l.77-5.77 2.13-1 1 7.46h1.67c.52-2.25-.75-5.11 1.74-7.34 2.86 2 .21 5.47 2.5 7.54.28-.13.91-.24 1.22-.61.73-.89.28-6.79-.49-7.66-1.78-2-3.58-.82-5.36-.61l-6.42-.42c-.51.93-1.2 7.81-.75 8.44.62.86 1.4 1.28 2.29.27m159.57 392.9l.84-3.19-4.39-.55-1.3-13.54 22.65 3.17v-2.36l-22.16-3.26M455 131.94c-.86-1.67-.28-4-2.26-5.3-2.53 1.31-1.77 3.93-2.67 6-2.06-1.43.08-5.43-4.12-5.93l2.5 9.51c3.79-.36 2.88-3.38 3.79-5.38 2.12 1.18 0 5.65 4.2 5.23l2.94-9.08h-2.72l-.64 5M221.83 477.24l-4.18-2.12c-4.59 1.61-9.61 3.68-14.8 5.11-3.87 1.06-7.75 2.37-12.06 1.25-2.18-.56-4.86 0-7.11.7-6.72 2.13-13.33 4.59-20.05 6.94-.72-1.73.65-1.8 1.58-2.14s1.71-.52 2.56-.77m93 23.79a9.54 9.54 0 0 1-.49-2v-18.44c-2.8-1.41-21.22-1.22-24.34 0v12m368.65 243.11h-23.07v.88l2.11.14h20c3.07 0 3.61-.51 4.1-3.85-1.7 0-1.7 0-2 2.31m-263.49-5.63l1.51 5.3h1q1-2.91 2.06-5.84h.44v5.68h1.41V735c-4.38-.53-2.57 3.76-4.45 5.1-1.13-1.82 0-5.32-3.93-5.22l-.76 8.61h1.71V739m-8.72-281.74c-4.7-1.71-9.46-3.26-14.07-5.18-2.61-1.09-4.93-.74-7.46 0l-32.53 9.77a3.62 3.62 0 0 0-.77.5M630 259l-4.74-.66v22.05h5.22a14.59 14.59 0 0 0 .28-1.92V260.8a9.4 9.4 0 0 0-.49-2.05M354.54 135.27c1.18-2.57.46-5.09-.63-7.37-.34-.71-2.09-.8-3.22-1.06a6.12 6.12 0 0 0-1.69.16v-4.15h-2.3v13.06h2c.94-2.16-1.24-5.37 1.87-7.2 2.64 1.18 1.76 3.43 1.86 5.28.09 1.69.35 2.84 2.33 1.54M303.81 98.9l-.47-4.28c-1 .53-1.77.72-1.78.95q-.24 5.88-.27 11.78c0 .51.47 1 .71 1.51 3.52-2-.15-6.44 3.92-7.86 2.22 2.06-.21 5.34 2 7.46.29-.14 1.2-.37 1.2-.6a43.81 43.81 0 0 0-.26-7.16c-.3-1.88-2.11-1.54-3.52-1.55h-1.28M677.35 745.7c3.55 1.35 5.53.19 5.63-3.33v-4.36c0-.17-.16-.34-.24-.51-2.2-.4-4.58-1.47-5.89 1.54v3.16l4.13 2v.46h-28.25l-.05.73a2.77 2.77 0 0 0 .84.28q11 0 22 0c.25 0 .51-.32.76-.49M326.61 459.82c0-2.43-1.13-3.81-3.58-4.11a8.65 8.65 0 0 1-1.54-.5c-7.22-2.44-7.17-2.27-16.16.46-7.09 2.15-14.33 3.81-21.5 5.69m411.45-352.99c.11 1.34-.67 1.6-1.79 1.55s-2.23 0-3.56 0c1 3.53 3.7 1.3 5.09 2.07l3-3v-9.84a34.54 34.54 0 0 1-3.71 0c-2.71-.31-4.51 1-5.13 3.86-.41 1.9 1.27 5 3.09 5.34a12.3 12.3 0 0 0 3.06-.21m-534.99 3.56l4.1.24c2.43-.06 3.33-1.91 3.52-3.83a67.79 67.79 0 0 0 0-8.19c0-.26-.47-.51-.45-.48l-5.65-.3c-3.95 3.28-3.63 7.08.81 9.26l2.51-.68c0 2.36 0 2.36-4.64 2.19l-.48 1.54m95.59 20.49l-1-3.84c-.45-1.53-1.2-1.84-2.5-.42l2.61 8.32c3.93.41 2.36-3.69 4-5.14 1.25 1.56.28 4.32 2.9 5.34 2.75-2.14 2.14-5.76 3.68-8.38-1.64-1.47-2.52-1.11-3.05 1.3l-.51 2.82M424.48 739c-1.53-.2-1.21.89-1.3 1.79s-.3 1.94-.47 2.91h-.94l-.91-4.88c-2.4.88-1.55 2.93-1.81 4.67h-1.36v-6.28h8.1c1.8 1.6.7 4.11 1 6.35l-.74.25a13.73 13.73 0 0 1-.83-2c-.25-1-.36-2.05-.53-3.07m98.68.26c-1.53-.2-1.21.89-1.29 1.79s-.31 1.94-.47 2.91h-.94l-.92-4.87c-2.55.87-1.42 3.21-1.83 4.79h-1.34v-6.41h8.13c2.12 1.4.47 4.12 1 6.33l-.77.27a14.94 14.94 0 0 1-.83-2c-.25-1-.36-2.05-.53-3.07M311.5 450.6l-13.32 3.6-28.18 8.19a7 7 0 0 0-1 .51m398.1-360.67v-7h-2.18v13.07h2.18v-3l.74-.34 2.61 3.33h2.74l-3.44-5.41 3-2.66M198.77 482.88l-.54 29.45c-.06 2.56-.46 5.12-.73 8a19.66 19.66 0 0 1-2.32.41c-1.91.13-3.71-.2-5.47 1.46s-5.64.38-7.08-1.44m42.79-393.43c-.36-1.56.89-3.56-1.47-4.9-.41.59-.95 1-1.06 1.58-.53 2.62 0 10.75.73 12a21 21 0 0 1 3.07 0c2.6.4 4.16-.57 5.13-3.35.74-2.11-.2-5.19-2.08-5.81-1-.31-2.19.26-3.3.43m444.76.05c-.35-1.56.89-3.56-1.46-4.9-.42.59-1 1-1.07 1.58-.53 2.62 0 10.75.57 11.72 1.21.12 2.23.28 3.24.29 1.62 0 3.33.34 4.37-1.51s1.1-5 0-6.41c-1.32-1.64-2.88-1.71-4.62-.77M296.64 521.3l-1.85 1.62-36.07-.59m383.79-414.21l-6.91.38c-.78-5.79-.43-11.59 1-13.21 1.79 3.55-.14 7.41 1.54 10.91h4.1l.52 1.66m73.53 637.84c3.55 1.35 5.53.19 5.63-3.33v-4.36a1.51 1.51 0 0 0-.25-.51c-4.29-.66-5.18-.36-5.89 2-.61 2.05.41 3.2 4.12 5.12h-22.59l-.06.73a2.92 2.92 0 0 0 .85.28q8.21 0 16.4 0c.25 0 .51-.32.77-.49M273.84 482.36l-6.41.52a39.14 39.14 0 0 0-4.85.57c-.7.15-1.26.9-1.85 1.37 1.33 2.56 3.18.59 4.65.51a62 62 0 0 0 8.71-1.44l12.56-2.54a10.08 10.08 0 0 1 1.66 0v-2c-1.77.13-3.85-.6-5 1.79a.71.71 0 0 1-.24.25c-2.7-1.84-4.85 1.66-7.44.78m84.29-349.72l4.64-.75c.54-4-.33-4.88-5.14-4.88-1.69 1.7-3.76 3.28-2.34 6.41 1.13 2.5 1.74 2.89 5.15 2.83 1.3 0 2.26-.19 2-1.82l-5.59-.86 1-1.18m322.58.25l4.64-.75c.54-4-.33-4.88-4.9-4.88-2.6 2.28-3.5 4.62-2.55 6.91s3 2.35 5.11 2.33c1.31 0 2.27-.19 2-1.82l-5.59-.86 1-1.18m104.81-33.05l-.83-4.19-1-.15a7.34 7.34 0 0 0-.91 2.29c-.1 3.67 0 7.35 0 11.08 2.25.73 2.56-.51 2.59-2.37 0-1.69-.82-3.84 2.1-4.79 2.13 2-.1 5 1.89 7.33.77.17 1.65.09 1.62-1.51v-3.59c0-3.57-1-4.36-4.61-3.61-.13 0-.34-.32-.51-.49m-594.71 7.69l-2.56-.52-2.42-.59v-.9L193 104v-2.83a10.91 10.91 0 0 0-3-2 4.18 4.18 0 0 0-5.1 3.77c-.37 3.21 1.21 5.4 4.09 5.33 1.23 0 3.06 1.05 3.59-1.23m421.49 276.45l3.62.71c2.82-2.51 2.9-2.94 1.19-5.4.42-1.44 1.46-3.23-.49-4.21a4.49 4.49 0 0 0-5.11.79l4.23 1v.62l-3 1.81 3.58 1.8v.81l-2.77 1c-.53.22-1 .51-1.54.76"/><use xlink:href="#B"/><path d="M653.78,631.45c2.7-2.54,3-3.26,1.93-6.79h-5.85l1.1,1.67,2.9-.61c1.41,4.16-3.37,5-3.8,8.16h6.15v-1.41h-2.43"/><use xlink:href="#B" y="-349.4"/><use xlink:href="#B" y="-250.01"/><path d="M653.78 481.85c2.7-2.53 3-3.26 1.93-6.79h-5.85l1.1 1.67 2.9-.6c1.41 4.16-3.37 5.05-3.8 8.16h6.15v-1.41h-2.43m0 49.18c2.7-2.54 3-3.26 1.93-6.79h-5.85l1.1 1.67 2.9-.6c1.41 4.15-3.37 5-3.8 8.15h6.15v-1.41h-2.43m0-151.64c2.7-2.54 3-3.26 1.93-6.79h-5.85l1.1 1.66 2.9-.6c1.41 4.16-3.37 5.05-3.8 8.16h6.15v-1.41h-2.43m0 199.81c2.7-2.54 3-3.26 1.93-6.79h-5.85l1.1 1.66 2.9-.6c1.41 4.16-3.37 5.05-3.8 8.16h6.28v-1.41h-2.56m-207.01-407.8c2-1.74 3.14-3.51 1.91-6.79h-5.83l1.1 1.66 2.9-.6c1.41 4.16-3.37 5.05-3.79 8.16h6.27v-1.41h-2.56m296.17 155.75a4.84 4.84 0 0 0 2.56-5.13c-.28-2.58-2.24-2-3.85-2.05s-2.08.58-1.6 2.16l2.09-.7.53-.43 1.48 2.35-4.86 5.26c1.78 2.31 4.38.41 6.59 1.31v-1.75h-2.94m36.38 248.99a4.84 4.84 0 0 0 2.56-5.13c-.28-2.58-2.24-2-3.85-2s-2.08.58-1.6 2.16l2.09-.7.53-.43 1.48 2.36-4.86 5.26c1.93 2.39 4.54.25 6.72 1.37v-1.82h-3.07m0 48.11a4.83 4.83 0 0 0 2.56-5.12c-.28-2.59-2.24-2-3.85-2.06s-2.08.58-1.6 2.16l2.09-.69.53-.43 1.48 2.35-4.86 5.25c1.78 2.31 4.38.41 6.59 1.31v-1.75h-2.94m-36.38-50.2a4.84 4.84 0 0 0 2.56-5.13c-.28-2.58-2.24-2-3.85-2s-2.08.58-1.6 2.16l2.09-.7.53-.43 1.48 2.35-4.86 5.26c1.78 2.31 4.38.41 6.59 1.31v-1.75h-2.94m36.38-201.9a4.84 4.84 0 0 0 2.56-5.13c-.28-2.58-2.24-2-3.85-2.05s-2.08.58-1.6 2.16l2.09-.69.53-.43 1.48 2.35-4.86 5.26c1.93 2.4 4.54.25 6.72 1.37v-1.82h-3.07m0 49.19a4.84 4.84 0 0 0 2.56-5.13c-.28-2.58-2.24-2-3.85-2s-2.08.58-1.6 2.16l2.09-.7.53-.43 1.48 2.35-4.86 5.26c1.78 2.31 4.38.41 6.59 1.31v-1.75h-2.94m0 49.13a4.82 4.82 0 0 0 2.56-5.12c-.28-2.59-2.24-2-3.85-2.05s-2.08.57-1.6 2.16l2.09-.7.53-.43 1.48 2.35-4.86 5.26c1.78 2.31 4.38.41 6.59 1.3v-1.74h-2.94m0-150.62a4.84 4.84 0 0 0 2.56-5.13c-.28-2.58-2.24-2-3.85-2.05s-2.08.58-1.6 2.16l2.09-.7.53-.43 1.48 2.35-4.86 5.26c1.78 2.31 4.38.41 6.59 1.31v-1.75h-2.94m0 198.78a4.83 4.83 0 0 0 2.56-5.12c-.28-2.59-2.24-2-3.85-2.05s-2.08.57-1.6 2.15l2.09-.69.53-.43 1.48 2.35-4.86 5.26c1.93 2.4 4.54.25 6.72 1.37v-1.82h-3.07M373.5 471.61l-3.34 1.51c-2.36.83-3 2.49-2.32 5.66 1 4.59 1.75 9.22 2.58 13.83l2.64 14.84a2.33 2.33 0 0 0 2.49 2.1c5.07-.39 9.85 1 14.61 2.5.29.09.71-.21 1.37-.43l-.58-1.75-8.48-1.87m23.82-401.93a9.8 9.8 0 0 0-1.53.27c-.76.23-1.49.55-2.6 1 3.48 1.92 5.68 1.32 7.5-2l-4.58-3.85 4-.75c-1.71-2.06-3.43-2.06-5.74-.32-.58 2.31.3 3.72 2.45 4.46.26.09.35.65.52 1m-35.89 29.9l4.1.37 2.19-2.19-.8-2.47-3.53-2.19 4-1.2c-1.85-1.54-4.6-1.82-5.34-.46a4.09 4.09 0 0 0 0 3.47c.58 1 2 1.48 3.08 2.19l-.12.7h-3.36l-.48 1.54m143.73 38.15l-.49 4.1c2.17 0 2.54-.77 2.54-5.4l-3.07-1.39v-2.15l-.76-.18c-2.19 2.59-1.42 6.27-3.09 9.22 1.47.34 2 .17 2.42-1.32.29-1.11-.27-3.35 2.2-3.1M197.23 488c-.34-.26-.88-.45-1-.78-.67-2-1.21-3.91-4.14-3.38-1.82.33-3.86-.35-5.6.14-5.61 1.59-11.14 3.46-16.66 5.35-1 .34-2.87-.38-2.84 1.74m46.64-389.87v-1.92h-3.82l-2.25 2.25 4.5 4.79h-3.81c0 2.46 2.34 2.88 5.77 1v-2.52l.45-.33a18.13 18.13 0 0 0-2.14-1.7 7.93 7.93 0 0 0-2-.58c.56-1.34 1-2.13 2.25-1M282.55 739l1.15 4.61h1.15a28.93 28.93 0 0 0 0-3.84 13.65 13.65 0 0 0-.86-2.7l-8.19.41v6h1.2c.91-1.35-1.12-3.94 1.89-4.8l.85 5h1l.57-3.41c.13-.49.65-.87 1-1.29m209.04-612.16c-2.61-.58-3.66 1.17-4.56 3.63-1.38-2.77.58-5.8-2-8.41-.54 1-1.12 1.65-1.09 2.21.22 3.94-.71 8 .56 11.83l.78.2a20.22 20.22 0 0 0 1.16-1.79 19.09 19.09 0 0 0 .76-2.24l2.48 3.79h2.41m140.92 602.74l.52 2.56.74 2.68c2.16-1.91 1.28-3.87.67-5.45-.35-.92-1.89-1.38-2.9-2l-.27.44-1.11-2.8c-1.69 2-1.69 7.7.22 10l.85-5.13c.08-.08.19-.25.25-.24a5 5 0 0 1 .77.25m-14.6-207.03c-1 1.09-3.2.27-3.77 2.37a4.55 4.55 0 0 0 5.28-1.88 5.71 5.71 0 0 0 0-6.64c-1-1.39-2.9-1.39-5.38 0-.64 3.87-.8 5.48 3.84 5.12m76.38 211.59a5.28 5.28 0 0 1-.48-1.54 8.65 8.65 0 0 1 .46-1.54 4.64 4.64 0 0 0-.07-1.13l-2.71 1.81c1-4.53 1-4.53-1.3-5.79-4.12.5-1.37 4.84-3.71 6.31l1 2.91h6.81m-142.45-2.57l2.05-1.78c0-4.59-.87-5.16-5.19-3.57l.88 1.33 1.94-.65c1.75 1.52.49 2.57-.45 3.65l-3.09 3.46h6.3v-1.41h-2.44m13.84-1.03l2.7-3c-1.8-3.67-2-3.74-5.84-2.32l.87 1.33 2-.65c1.75 1.52.49 2.57-.45 3.65l-3.09 3.46h6.29v-1.41h-2.43m-74.61-.03c1.42 1.75 1.42 1.75 4.87 1.28v-1.18l-3.14-.25v-.61l3.75-.68-.48-2.82c-2.24-1.29-4-1.27-5.38 1.41v2.85l-4.67-5.3 3.38-.95v-.56l-2.59-1.18c-.83.91-2.23 1.76-2.51 2.89-.66 2.63 2.39 2.45 3.53 3.88-.49 2.21-2.58.63-3.66 1.45 1.62 2 3.86 1.85 5.66-.49m124.47-257.44h1.94l4.34-9.6h-6.66v1.28h3.45c.12 3-1.84 5-3.07 7.3m182.42-377.83c.3-1.54 1.51-1.22 2.56-1.29l3.21-.31c-1.66-5.36-1.69-4.89-5.53-4.81l-2.81 2.8v4l2 2.35h5.36v-1.62l-4.49-.82m-482.98-.3c.3-1.54 1.51-1.22 2.56-1.29l3.22-.31c-1.67-5.36-1.69-4.89-5.78-4.81-3.77 3.32-3.77 5.91-.14 9.1h4.88v-1.62l-4.48-.82m289.76-.25c.68-1.55 2.07-1.17 3.32-1.31a17.09 17.09 0 0 0 2.55-.73c-2.05-4.46-1.24-4.47-5.87-4.37-3.77 3.35-3.77 5.91-.15 9.1h4.89v-1.61l-4.49-.83m-325.62.77c-2.73-1-1-3.41-1.6-5.09l2.3-.93-3.26-3.46c-2.5 1.27-2.81 2.3-1.85 4.63.4 1 .16 2.21.32 3.31s.5 2.3.74 3.33h3.12l.48-1.53m346.12.77c0-.18.07-.38 0-.51-1.52-2.61-1.52-2.6-1.52-5.63l2.24-.91-3.26-3.46c-2.5 1.27-2.81 2.3-1.85 4.63.4 1 .15 2.21.32 3.31s.5 2.3.81 3.68l3.53-.86m104.01-1.02c-2.76-2.16-2.48-4.49.86-6.47L726.63 97l-2.74 3.1h.62a28.71 28.71 0 0 1 1 4.69c.14 3.86.06 3.88 4.14 3.33v-1m52.23-.54c-2.73-1-1-3.41-1.6-5.09l2.3-.93-3.26-3.46c-2.5 1.27-2.81 2.3-1.85 4.63.4 1 .16 2.21.33 3.31s.49 2.3.73 3.33h3.12l.48-1.53m-405.56.77c0-.18.07-.38 0-.51-1.52-2.61-1.52-2.6-1.52-5.63l2.24-.91L374 97.1c-2.5 1.27-2.81 2.3-1.86 4.63.41 1 .16 2.21.33 3.31s.5 2.3.81 3.68l3.53-.86m62.79 25.36c.44-1.82 1.94-1.09 3.07-1.29.92-.16 1.81-.44 2.83-.7-2.08-4.51-1.27-4.51-5.66-4.42l-2.8 2.81v3.62l2.67 2.67h4.63v-1.62l-4.49-.81M563.6 256.43l-2.31 10.75c1.62 1.46 4.05 0 6.63.8l-3.3-11.55M220.29 737.5c-.34.17-1 .32-1 .52-.09 1.1 0 2.21-.05 3.32a2 2 0 0 0 2.31 2.31h3.21v-6h-1.26c-1 1.22 1.17 3.82-2.13 4.77l-.59-4.65m251.61-602.5a7 7 0 0 1-1.41-6.19l2.12-.86-3.26-3.46c-2.5 1.27-2.81 2.31-1.86 4.64.4 1 .16 2.21.33 3.31s.5 2.29.81 3.68l3.53-.86M212.61 508l-1.07.81c-1.62-2.15 1.33-2 1.58-3.11v-12.28l-13.42 2.24.08.92h4.12v1.47l-3.66.59c.55 3-.25 5.83.84 8.92.68 1.94 1.32 5-.9 7.45-.85.93-.3 3.13-.38 4.75m437.07 217.99a14.88 14.88 0 0 0 .1 4.07 3.54 3.54 0 0 0 2.23 1.75 8 8 0 0 0 2.78-.15c1-2.94.74-5.19-.93-6.58l-1.14 5.39h-1.07l-.66-4.71h-1M301.25 440.87c-.68-.77-1.43-1.49-2-2.32a2.88 2.88 0 0 0-3.59-1.08l.31.48-4.15 3.45-9 8.94-4.09 3.85-1.54 1.53m-37.68-20.23l-1.86.44-13.16 23.41.43.29-2.07.71m429.9-355.81c-.18-5-2.62-6.47-7.71-4.6-1.34 2-2.19 3.89-.82 6.44 1.17 2.15 2.85 2 4.69 2s2.67-1.12 3.33-2.56l.51-1m-307.69 22.52l-3.25-2.51-2.73 2.93h.66a28.93 28.93 0 0 1 .92 4.72c.14 3.87.06 3.88 4.35 3.31a5.52 5.52 0 0 0-.74-1.5c-2.21-2.28-2.15-3.77.27-5.92.17-.15.18-.5.26-.75m368.93-.54l-2.55-1.86c0-.27-.1-.54-.16-.82l-2.64 2.84a42.75 42.75 0 0 1 .71 4.46c.2 3.72 1.11 4.57 5.16 4l-2.57-2.65v-3.44l2.05-1.5M662 741.85c2.37 2.29 3 2.38 6.16.62-.29-1.62.88-3.83-1.34-4.88-1.12-.53-2.7-.09-3.89-.09l-1.28 4.7c-1.45-2.45.61-5.49-2-6.66-1.65-.74-3.7-.59-5.72-.85v8.58c2.85.89 5.2.47 7-1.93m84.57-261.79v-4.12c-1.59-.83-3.41-1.47-4.79-.15-.76.74-.66 2.37-1 3.6l.66.17-1.43 3.4 2.82 1.54-.37.63 5-.94-1.16-3.88M296.64 738v5.38h4l2.41-2.61 3.14 3.3c.73-3.53-1.47-6-1.86-9h-2.74l-1.86 8.32m-13.34-230.8l-1-12.55v-1c.42-.43.57-.72.77-.76 3.34-.65 3.4-.65 3.31-3.86l-.55-8.19a6.85 6.85 0 0 0-1.13-2.26l-8 1.48-16.13 2.61c-.57.1-1 .81-1.55 1.24m214.64-316.37a2.12 2.12 0 0 0-3.09-1.32 13.49 13.49 0 0 1-2.72.43l-1.87 8.47.84.34 1.88-2.63a21.22 21.22 0 0 0 3.15-.71c1.52-.55 1.53-1.94 1.59-3.3 0-.44.47-.86.74-1.28h.24a1.54 1.54 0 0 1 .26.25M261.28 489.54a6.91 6.91 0 0 1 1 2.3l.07 9.74.46 7.42c0 4.1-.31 8.2-.48 12.3m475.99-140.12l4.8.43.69 3.1 2.37-3.45-1.43-7.07c-.59.17-1.68.14-2 .63-1.34 2-3.49 3.6-3.39 6.36m-1.29-.25a25.85 25.85 0 0 0-.33-4.85c-.32-1.3-1.51-1.9-3-1.85a2.61 2.61 0 0 0-2.62 1.8 7.8 7.8 0 0 0-.19 5.92c.58 1.9 2 2.39 4.37 1.88l1.77-2.65m-505.48 56.61l-3.09 6.4c-2.6 4.89-5.41 9.68-7.85 14.64-.81 1.65-.76 3.73-1.1 5.6M745 424.73a3.46 3.46 0 0 0-4.57 1.81c-1 2-1.79 4.26-.5 6.36s5 1.7 6.1-.74l.74-1.86-4.11-3.42 2.34-1.89m-507.8 18.95l-5.13 10.26-.71-.06 1.54.82 5.33-3v-8.05M498 737.75v8.46l.67.2 1.35-2.76a6 6 0 0 0 2.32-.06c1.54-.57 2.17-2.63 1.55-4.3-.86-2.33-1.23-2.48-3.85-1.81a7.55 7.55 0 0 1-1.78 0M765.74 427c-2.12-.78-2.48-.63-4.87 2.05v3.19l1.94 1.94h3.05v-1l-3.58-2 1.14-2.61H766v-1.28m-.26-50.46c-2.12-.79-2.48-.64-4.87 2.05v3.18l1.94 1.94h3.05v-1l-3.58-2 1.14-2.62H766v-1.28m-.26 249.74c-2.12-.79-2.48-.64-4.87 2v3.18l1.94 1.94h3.05v-1l-3.58-2 1.14-2.61H766v-1.29M327.38 435.23a2.74 2.74 0 0 1-.27 1q-4.19 5.52-8.44 11l-2.22 2.66 11.21 4.2c.71.24 1.69-.29 2.54-.44.07 0 .19.14.25.25s0 .16 0 .25m435.29 73.3c-2.12-.79-2.48-.64-4.87 2v3.18l1.94 1.94h3.05v-1l-3.58-2 1.14-2.61H766v-1.26m-.26-50.46c-2.12-.79-2.48-.63-4.87 2.05v3.18l1.94 1.94h3.05v-1l-3.58-2 1.14-2.61H766v-1.3m-.26-149.85c-2.12-.79-2.48-.64-4.87 2v3.19l1.94 1.94h3.05v-1l-3.58-2 1.14-2.61H766v-1.27m-.26 249.76c-2.12-.79-2.48-.64-4.87 2.05v3.18l1.94 1.94h3.05v-1l-3.58-2 1.14-2.61H766v-1.28m-452.2-95.58l-11-1.53-2.82-.27a10.76 10.76 0 0 1-2.8-.53 8.28 8.28 0 0 0-6.68-.13v3.49m437.83 259.23l-3.36-.9v-.38h3.34c.59-4.36-.14-5-4.49-3.72l-.48 4.74c1.66 1.13 3.19 2.17 5 .52M575.13 99.66c-1-1-2.11-.67-2.24.52a55.67 55.67 0 0 0 0 7.42c0 .31.74.6 1.39 1.09 2.24-2 .15-4.83 1.94-6.82 1-.36 2.42-.81 1.51-2.79l-2.33.58M190.57 494.15l-17.88 12.67 2.26 5.26m97.35-16.65q.13 3.33.26 6.66l.46 15.37c0 .76-.63 1.54-1 2.3m56.9 219.79l-2.79.7c-.33 3.4-.33 3.4 4.58 3.4 1.19-2.36 1.07-4.91-.53-6.12-1.3-1-2.7-.9-4.37.76l4 .44-1.77 3c1 .72 1.56.67 1.41-.91m99.39-243.09l-1.45-2.52-1.82 2.46-.93-3.62.69-.24-3.35-4.85-.83.83.78-1.56-3.62-1a13.32 13.32 0 0 0-1.31-2.74 2.93 2.93 0 0 0-2-1 14.23 14.23 0 0 0-3.07.45m-138.35 11.23q.51 11.54 1 23.06v2m167.07 1.07a6.55 6.55 0 0 1-1.54.49l-9.73.57c-1.69.16-3.91-1.1-4.87 1.5h-6.92m189.07 153.19c.34.42 1 .83 1 1.28l.05 5.89h1.41v-9.78c-1.54.34-3.53-.13-3.46 2.61m-335.13 62.5c-2.07-.4-2.28 1.43-3.06 2.65 1.18 2.4 3.32 1.12 5 1.49 1.11-3.23.79-5-.92-6.19-1.35-.9-2.57-.88-4.05.77h3.41V742h-1.41l-.52-.64 1.54-.77m336.14-113.75c.34.43 1 .84 1 1.28l.05 5.89h1.41v-9.77c-1.54.33-3.53-.13-3.46 2.6m1-49.18c.34.42 1 .83 1 1.28l.05 5.89h1.41v-9.78c-1.54.34-3.53-.12-3.46 2.61m-209.59-51.24c-2.3-.19-4.63-1-6.75.93-.32.28-1.84-.79-2.87-1.27a4.33 4.33 0 0 1-1.65.31c-3.31-.68-6.46.92-9.74.6-.31 0-.68.63-1 1m-39.74-66.12l-5.89-.63v-3.51l-.73-.23-1.33 2.31-1.46.77c-2.65-.93-5.27-2.23-8-2.68-1.9-.32-2.77-.92-3.08-2.68 0-.2-.5-.32-1-.59-1.62 3.31-4.35 4.5-8 3.66M145.23 457c.34-1.2 1.41-1.2 2.3-1.25 1.12-.07 1.42.62 1.63 1.74.17.91 1.14 1.67 1.83 2.25 3.28.43 6.25.05 8.79-2.15l5.64 1.76-1.49 1.49m431.69 278.71c-2.6.23-2.79.45-2.82 3.71h5.27c-.59-2.2 1-4.72-1.48-6.17a2.36 2.36 0 0 0-3.46 1.25l2.71.28.74 3.36h-2.86l2.16-1.41M305.35 132.45l-.54-4.35c-.41-1.87-1.43-1.62-2.57-.5l2.42 8.24 2.46.25 1.3-5.17M375 739.8l2.23 1.87-3.23 1.26c2.93 1.12 3.4 1 5.52-1.21l-3-2.93 2.14-.46.48-.57a5.07 5.07 0 0 0-1.54-.74c-1.82-.21-2.45 1-2.81 2.53m-46.64-217.48c-.84 1.47.57 1.71 1.29 2.3a4.89 4.89 0 0 1 1.54 1.54h-9.23c-1.12 0-2.23.49-3.33.45l-15.37-.75a20.62 20.62 0 0 0-6.92.78m13.32-395.47l.74 4.81c1.9.78 2.66.05 3.12-1.48l2.21-6.7c-.37-.19-1.26-.81-1.4-.67a8.06 8.06 0 0 0-1.57 2.25 24.91 24.91 0 0 0-1.05 2.81"/><use xlink:href="#C"/><use xlink:href="#C" y="-99.39"/><path d="M301.25 512.59l-.28 1.29-3-3.34c-1.48 0-2.79.38-3.27-.09a5 5 0 0 1-1.07-3c-.16-1.77-.05-3.58-.05-5.57l3.15-.23c-.39 3.67.15 6.9 4.16 9.1l-.39-2m-37.68-50.21l-2.82-.31v8.89l1.63 3.68c-.32 2.14-.91 3.15-3.43 3.06-2.1-.08-4.23.7-6.42-.15-.54-.21-1.34.28-2.46.55l-.5-4.79-3.11.62-.82 4.08"/><use xlink:href="#C" y="-250.01"/><path d="M659.16 476.73c1.22.19 1.34 1 1.29 2v3.58c0 1.19.22 2.22 1.92 2v-9.27c-1.78-.92-2.82-.31-3.46 1.34"/><use xlink:href="#D"/><use xlink:href="#D" y="-99.39"/><path d="M659.16 376.32c1.22.18 1.34 1 1.29 2.05v3.58c0 1.19.22 2.22 1.92 2v-9.27c-1.78-.91-2.82-.3-3.46 1.35"/><use xlink:href="#C" y="-349.4"/><path d="M358.64 738.52v-4h-1.41v8.94c2.21 1 1-1.39 1.7-2l3.81 2.12m-56.37-273.51l-4.4-.59-.79-6.62 4.28-1.6 1.43 7.78m17.93-27.66l8.85 14.1-.48.44 6.08 2.54.41-1.2m-147.06 52.26v4.11l.45.15c.54-.66 1.5-1.29 1.53-2 .16-3.33.07-6.67.07-10.32-1.95 1.37-3.36 2.46-4.88 3.39-1.95 1.2-3.52 2.54-2.53 5.64l3.83 1.55M722.7 745.7h10v-1.13c-3.66.48-7.36-.66-11 .87m-2.85-613.5l-1-2.56c-1-2.9-1-2.9-4.36-2 2.89 2 3 5.41 4.25 8.07l-3 4.23c3.08 0 4.42-1.15 5.2-3.15l3.53-8.79c-.8-1.16-1.76-1.65-2.47.1a29.07 29.07 0 0 0-1.06 4.08M297.41 432.41l-2.56 2.32-15.39 15.86a5.56 5.56 0 0 1-1.38.71l-7.5-1.39.69 1.2-3.27 2.05M254.62 446c.09-.34.34-.92.23-1l-4.32-2.86-11-7.43c-1.24-.86-2.42-1.51-3.86-.5m405.81-5.89a17.83 17.83 0 0 1 1 3.33c.22 2.36.47 2.63 3.4 2.27-1.26-2.19-3.57-4.53.54-6.27l-3.42-2.57-1.75 3.49H641a1.45 1.45 0 0 1-.26-.24"/><use xlink:href="#E"/><use xlink:href="#E" y="-250.01"/><use xlink:href="#E" y="-99.39"/><path d="M171.1,99.15c.51.43,1.44.83,1.47,1.29a54.65,54.65,0,0,1,0,6.65c0,.5-.63,1-1.33,1.4-1.75-3-1.39-6-.67-9.08"/><use xlink:href="#F"/><path d="M293.05 739.55l-.93-4.65-2.93.3c1.25 3-1.43 5.78.62 8.7 1.86-1.49.95-3.3 1.19-4.86m350.48-160.1a17.83 17.83 0 0 1 1 3.33c.22 2.36.47 2.63 3.4 2.27-1.26-2.19-3.57-4.53.54-6.26L643 575.7l-1.75 3.49H641a2 2 0 0 1-.26-.25M291 463.41c-1.67-.6-3.39-1.41-4.34 1-4.17-.46-13.28 2.07-15.62 4.34l1 2.07h-1.28"/><use xlink:href="#F" y="-349.4"/><path d="M641.48 478.52a17.7 17.7 0 0 1 1 3.34c.22 2.35.47 2.62 3.4 2.26-1.26-2.19-3.57-4.52.54-6.26l-3.42-2.58-1.75 3.49H641a1.52 1.52 0 0 1-.26-.25m-54.6 261.03l-.93-4.65-2.93.3c1.25 3-1.43 5.78.62 8.7 1.86-1.49 1-3.3 1.19-4.86M570.51 736l2.69-1v8.58h-1.28v-5.36l-1.66-1.94M66.57 566.38c-5.06 2.74-11.44 4.33-15.49 3.83.42-2 1.85-2.15 3.45-2m344.84 171.34l-3.19 1.28 1 2.69h4.62c-.59-2.11 1.14-4.79-1.43-6.43a2.35 2.35 0 0 0-3.45 1.25l2.72.28.74 3.36h-2.86l2.15-1.41m-29.25-215.68l-2.27-2.83c-.08 2.77-1.42 2.93-3.11 2.85l-15.11-.59a5.74 5.74 0 0 1-3-1.27c-1.42-1.14-2.73-.79-4.74-.23l-3-3.57m-6.68 218.5l.79 5.64h2.79c-2.11-3-2.11-3.71.11-5.46l-2.45-2.23-1.5 1.8m129.38 2.05a3.55 3.55 0 0 0 1.94 4.07c1.88.14 3.71.11 4.16-2 .35-1.68.29-3.44-1.74-4.37-1.55-.71-2.83-.17-4.36 2.07M447 741.34c.48 2.34 2.21 2.57 4.09 2.28s2.08-1.9 2.28-3.31c.26-1.84-1-2.92-2.54-3.27-1.72-.38-2.94.57-3.59 2.25-.34.88-.84 1.71-1.27 2.56M348.9 484.67c.17.26.37.75.51.73l5.9-.8a17.31 17.31 0 0 0 0-2.49l-1.21-7.95c-.17-1.94-.55-3.26-2.87-3.1a5.68 5.68 0 0 1-1.79-.48M177 466.74l-6.38 15.63a14.51 14.51 0 0 0-.53 2.3m228 22.8a6.11 6.11 0 0 0 1.54.49 5.13 5.13 0 0 1 3.43 1.44c1.95 1.62 4.51 2.51 6.58 3.58l3.82-.43c.39-.08.69-.64 1-1m-242.85-40.46c-1.69 4-3.47 8.05-3.65 12.55 0 .7-.92 1.37-1.41 2.05l-.75-.46 1.2-2.35m188.56-12.3a31.53 31.53 0 0 0 0 4.35c.59 4.2 1.33 8.38 2 12.56 0 .19.33.34.5.51m-43.49 2.05l-1.3-1.18-1.43.95 1.2 2.58-2 .87-1.72-3.4-.81.09-.6 5a11.6 11.6 0 0 1-.75 2.06m-154.5-15.17l.67 1 3.95-.72c-1.28-4.24-3.76-5.48-7.16-3l3 1.69m60-3.07l.73 2.74-11.49 3.42c-1.51.47-1.67-1.1-2.56-1.55M374 738a4.43 4.43 0 0 0-1.82 5.51h-1.64v-6.15l4.23.38m224.69.01l1.06 2.49-1.19 3.27.5.28 2.24-1.8 1.33 1.78.76-.18-.46-3.81 1-2-.29-.45-2.41 1.13-2-1M390.41 533.08l.75.77 3.38-.41c-.57-1.89-.57-1.89-4.13-1.89-1.06.5-1.46 2.3-3.43 1.19-.68-.38-2.47 1.2-3.75 1.88m20.5-14.86a9.1 9.1 0 0 1-2.06 1c-1.25.27-2.55.35-4 .53l-1.36-1.53c-.42 0-.67-.07-.75 0-1.54 1.79-3.62 1.44-5.64 1.55l-17.18 1.11-.15.72 2.47.71M544.13 737l-2.44.78v5.88h1.24a7.08 7.08 0 0 1 .17-.77l1.29-3.84.76-2M149.84 586.62l-1-1-.34 1.67 5.17-.53v1.53l-6.29.94-.88-1.34m51.25-91.18l-5.89 4.1a59.82 59.82 0 0 1-5.41 3.79c-2 1.1-2.5 2.42-1.51 4.41m55.34-57.9l.27-8.19c0-.09.32-.17.46-.24l7 4.33m-71.27 53.8c-1.37 0-2.74-.09-4.1 0a10.43 10.43 0 0 0-2.31.88v3.35l5.9-3.24m296.16 236.47v-1.15l-2.95.52v6h1.32c.44-1.84-.88-4.63 2.54-5.15 2.12 1 .56 3.21 1.66 5.19l3.32-.3m-163.45-231.3a1.93 1.93 0 0 0 2.31 1.57 15.89 15.89 0 0 1 3 .29c2.57-2.13 2.82-4.3.48-6.53l-.93 1 1.18 1.72-2.24.57v1.85m6.7-76.81c-3.07 4-6.07 8.09-9.27 12-.86 1.05-2.34 1.58-3.54 2.35m-71.73 27.15v5h3.46V476c-2.4 1.48-1 3.64-1.41 5.36m-84.04 12.79c-3.17 3.89-5 8.17-4.22 13.54l2.07-1.08-.41-1.19M623.55 737l-3.46.67v5.47h1.4c.13-1.8-.63-4.23 2.52-4.63 1.81 1 .78 2.89 1.15 4.49l2.59 1c-.19-2.36-2.83-4.65.36-6.26l-2.54-2.11-1.25 2.93m-326.14 4.83v-6.4c0-1.67-.72-2.3-2.4-2l-1.71 4.56M272 480.32l.74-6.66h-2l1 6.66M589.73 738c.34 1.9-.79 4.13.86 5.73l.68-.08-.09-7.18c-.07-.69-1.19-1.29-2-2.16l-2 5.23M216.19 519.76c2.49.3 5.14-.61 7.5.57v.8a12.27 12.27 0 0 1-2.33.15c-3.08-.35-6.12.59-9.24.09a60.69 60.69 0 0 0-9-.55 51.42 51.42 0 0 0-5.38.48M359.15 468l-.51-1.34c-4.14.8-7-2.17-10.55-2.59l-.47-.69-1.21 1.21c1.5 2.89 3.75 3.22 5.8 4 .73.28 2.85-.13 1.82 2m-88.13-16.91l.56 9.72c.11 1.1.8 2.15 1.49 3.86 1.84-4.39 6-3.1 8.53-4.93l2.74.57m68.91 11.01l-.32 1.67h-2.37v1.53c.79.79 3-.2 5-2.42l1.8 3.06m-39.72-18.95l1.5 7.94c.64 5.71 1.05 11.44 1.59 17.16a14.93 14.93 0 0 0 .5 2.05m-139.37 5.64l-8.46 2.54a32.51 32.51 0 0 1-3.61.56l-.23-2.08m200.35-1.02l-4.69 4.68 1.09 2.49h6.16m137.83 238.99l.79 5.64h3.1c-2.28-1.88-2.47-3.84-.53-5.81l-2.11-1.88-1.5 1.8M47.62 582l-1.54 5.07 9.22-1.84v-.92M228 737.5c-.34.25-1 .5-1 .77a22.55 22.55 0 0 0 .3 5.42c2-2.19 1-4.77.93-7.22m49.45-263.84l-.5 3.84a12.44 12.44 0 0 1-.32 2.87c-2-1.65-.89-4-1.23-5.94M343 514.38l3.29-4.07 5.92 1.73c-1.75 2.11-4.69 2-7.42 0m-25.61-21.99v2.55h.47l-.87 2.76c-2.62-1.77-2.33-4.48-2.6-6.86-.12-1.07-.35-1.59-1.35-1.78m-175.5-11.02l1.67-.85 2.76 7.6-1.08 1.08c.74 3.39 4.89 3.18 6.76 5.66l.24-.74c1.59.19 3.41-.05 4.72.66 3.26 1.75 6.81 2.22 10.3 3 .41.09 1-.17 1.25 0 1.68 1.42 2.34.08 3.1-1.06M55.3 425.5c-1.66 2.16-1.93 2.16-5.72-.22l-4 6.37m177.53 48.92l-6.15 1-2.06.35-.76 4.51m-54.82-27.12l1.6 2.88 8.13.75a7 7 0 0 1 2 1m-92.69 18.42l-6.9 4.5c-.76-.57-1.13-1.05-1.56-1.13-1.6-.3-3.43-2-4.65.71-.29.65-1.15 1.05-1.75 1.56m266.44 18.44c1.63.57 3.13 2.07 5 .09.42-.45 2 .14 2.69.22l2 3.22 1.78-1.52c.8-1.19-4.65-5.68-7.36-6.09a11.41 11.41 0 0 0-1.67 0c1.36-2.62 5.5-5.19 7.57-4.87m51.99 17.15l1.7-2.54c.95-.55 2.12-.49 3.74.09 1.91.69 4.23.2 6.34.45a8 8 0 0 1 2.8 1.28c.12.07-.14.81-.23 1.23m-174.47-53.79l2-1.42c-1.74-1-2.74-.85-4.29.65v9.48m270.53-297.91l-1.73 6c3.78-.74 1.22-4.58 4.1-5.66l-2.31-.85.64-2.22h1.41l-.83 2.43M66.57 606.35a13.77 13.77 0 0 0-1.53.52c-.55.26-1.07.6-1.58.89l.83 2.06-5.69 1.92 3.36 2.8M365.3 505.93l-1.25-5.38h4.11c.36-1.53.51-2.72-1.07-3.32 0 0-.19.15-.25.25a.7.7 0 0 0 0 .25m-133.99-13.57c1.53.95.72 2-.28 2.24-2.68.71-5.58 1.85-8.14 1.4-3.06-.53-5.64 1.12-8.5.74-.31 0-.67.32-1.31.64.77 1.13-1.28 2.41.29 3.69m119.9 30.99c-1.25-2.33-1.25-2.33-3.94-2.92l-4.63-5.94c-1.67.56-3 1.16-4-.38M115 603.53l-3.57 3.68 1.65 2.89-2.49 1.83 1.22 1.22 2.93-2.71M249 460.85v-6.66a8.5 8.5 0 0 0-.81-2.27l-5.82 2.26a2.8 2.8 0 0 0-2.06 3.34c.15 1 .19 2.05.27 3.07m5.33 60.2l.09 1 .64.13.83-2.92c3.39.94 7.61-1.31 10.74 2.26"/><path d="M70.42 478.52l-2.59 1.94.25.62h3.62c-1.68.72-3.15 3.28-5.13.77M320.72 466v2.09c2-1.82.91-3.47.72-4.9-.26-1.92-1.68-2.58-3.54-2.28V467m124.26 49.18c-2.21-2.52-5.05-2.28-8-1.36l-.4-.74 1.83-2.89-.87-1.83 4-1c-1.51-2.73-2.34-6-6.24-6m-144.81-.27a5.86 5.86 0 0 0-.72 2.05l.73 6.66h2.81a68.31 68.31 0 0 0-.1-7.16c-.07-.59-1.44-1-2.21-1.55M238 461.62c1.51-1.8.55-3.59.06-5.63l-3.49 1.25-.16.8 2.82 1.27M111.92 609.16l-8.21 5.55-2.55-1.31-2.31 1.14m99.15-16.9l-2.16-2.22-.23 2.74-.62-.36-3 4-1.42-2.12m178.32-128.59l-7.19-2.52c-1.72-.51-2.66.84-3.57 2m-97.36-338.63l-1.12-5.65c-2.71 1.51-3 3.51-3 5.65M347.37 468v1.49l-2.91 2.51.37.64 3.52-.52.2.56-1.7 1m-274.38-5.4l2.57 1-2.35 6.43-1.5-1.5M179 517.71l1.16-5h-2.12l.71 5M256.67 448l3.06-1.14 7.18 1.68a3.07 3.07 0 0 1 2.32 2.79m-133.48 6.44c3.24 1.59 7.12 1.53 10.05 4 .42.35 1.71-.33 3.11-.64-1.18-1.09-1.36-2.76-2.91-1.34m89.66 63.05c-3.45-1.71-7.2-.32-10.76-1M63 474.68l-2.64 2 .88 2.25 5.06-2.71 2.33 1.55m288.47-3.86l1.07 9.47c.05.38.64.69 1 1m-58.94-13.8c-.77.34-1.68 1.14-2.29.95-2.7-.85-5.31-2-8-3m.55-3.07l6.41-1.46v4.3l-6.9-1.82m-43.58 35.35c-.34-.17-.7-.51-1-.48l-9.22 1m30.72-48.67c.17.34.47.67.49 1l.54 9.22M41.47 437.28c-1.42 0-3.09.41-3.21-1.28L32 433.44m350.21 71.47v1.46a13.9 13.9 0 0 0-9-1.21M34.29 596.1l-1.76-.88c-.13 2.71-1.21 4.45-4.1 5.1-1.28.29-2.25 1.93-3.36 2.95m340.74-110.15l-3.76 3c2.7 1 2.84.94 4.91-3l-1.29-2.91.94-.93.6.16.14 2.12m-185.49 27.18c-1.41-.82-1.41-1 0-3.07l-.52-.17 1.08-4.37-.53-.34-1.82 1.55m35.35-36.12l.31 3.92 6.1-1.87m126.05-16.91c-5.54-2.05-5.54-2.05-7.23-1.52l2.62 1.52M292 739l.88 5.11a6.73 6.73 0 0 0 2.7-5.11M73 467.76c2.3-.16 2.71-2.62 4.46-3.54l-.87-1.33-3.1.94c-.57-3.48-5.77-4.24-5.31-8.91l4.72-3.59-.67-1.75m218.26 20.49l1.28 1.29 2.25 2.76a2.56 2.56 0 0 0 3.39-2.26m56.1 21.78l-1.11 2.23 2.12 1.67-.64 2.25 3.25 2.83.66-.53-1.2-1.79m42.53-5.13c.17-.17.43-.52.5-.48l6.16 3.05 1.46-1.47 1.36.7M47.62 573.05l-7.7 2c-.42.09-1-.62-1.53-1m-13.32-150.6l2.91.41c.76 2.92 4 2.61 6.32 2.74a6.61 6.61 0 0 1 5 2.57c1.62 2 2.54 4.58 3.88 7.15l2.89-2.63m361.25 98.88l.65 1.63c-2.87-.67-5.35-1.05-7.83-.09M293.05 513.1l.5 5.38c.08 1.28 0 2.56 0 3.85m198.31-413.96c-2.14.38-3.14-1-4.05-3-1.06 1.86-2 3.41-4.15 3M300.48 471.35l3 1.28.16 3.65 4.19-.63c-1.06 2.63-3.2 2-5.08 2.1m-71.7-16.9a2.63 2.63 0 0 1 1 2.56c-.06 2-.43 3.91-.76 6.51l6.93-1.94c.46-3.05-1.48-3.35-3.29-3.8m-72.79 120.9l.88-1.28-.45-.53-3.94 1.16.9 1.36 2.35-.45M28.4 434.46c2.23 0 3.4-1.91 5.1-2.85a14 14 0 0 0 2.39-2.13l1 2.17m364.28 147.03l1.83 1.22c-.58-2.49-4.13-3.91-6.17-3l-1.79.77m-62.28-87.36l2.14.92.33-.55-1.44-1.68-3.41 3.4a6.23 6.23 0 0 0 4.18 3.27m-28.19 22.56l-2.85-2.54c-.56.79-1.16 1.27-1.19 1.77-.06 1 .54 1.06 1.5.86.49-.1 1.18.76 1.78 1.19M346.85 531c-1.93 1.55-4 1-6.15.52l-2.56-.52m-110.42-54.27l5.13-2.56c.77 6.7.46 8.95-1.29 9.48v-2.31m511.63-51.74c-2.28.68-2.33.91-.11 4l2.39-3.09-2-1.14M158.8 501.32l1 1.67 8.75-.84c0 4.25.34 8.33-3.06 11.47M646.6 737l-2.72.88.68 5.78M325.33 507.72l1.39 2.87-2.16 1.49.85 1.2-2.63.65 1.71-4.68-.69-.24m10.5-50.72l3.14 1.22c.66 2 2.18 2.84 5.31 2.87m25.62 69.17c-.8.82-3 .08-2.43 2.7-1.68-.56-3.49.81-4.74-1.17m-169.09-46.87l-.69 3.8c1.79-1 2.54-2.3 2.23-4.06m63.02-36.89c2.9 1.48 6.07 2 9.19 2.71 1.23.3 1.47-.22 2.09-.66m-41.77 158.05l-1.48-.76c1.31-1.55 2.42-1.34 3.53 0 1.57-1.3 1.57-1.3.26-2m245.44-433.47l-2.42 2.72c.9.36 1.87 1 2.1.79.93-.82 2.16-1.78.83-3.26M294.59 515.15l3.14.82-.44-3.58-3.21.71m29.72-51.23c-1.31 1.95.12 2.29 1.54 2.54a13.93 13.93 0 0 0 2.26 0c-1.15-1.38-1.15-1.38-2.27-1m-48.67-10.76c-1.64 2.77-3.88.89-5.9.79a9.27 9.27 0 0 0-1.79.24m37.4 53.79l-.76-.51c-.43 1.36-1.47 2.91-1.13 4.05.45 1.52 1.73 3.11 3.94 2.61m75.84-21.01c-1.84 1.48-4.67 1.93-5.3 5.16l2.4 2.1-.94 1.71m-94.8-31.51H288l-.7-3.15-7 1.67-1.39-1.93-1.51 1.87M371.45 510l-.76 2.82 2.24-.65 3.89 2.36c.72-2.9-1.72-2.74-3.07-3.51"/><path d="M368.37 512.59l4.5 3.55c1.32-.84.65-1.45-.4-2M312 508.75l-5.09 2.74c-1.77-2.4 2.2-5.81-1.68-7.25l-5.24.26.74 1.43m-125.02 99.39c-.08-.34-.35-.78-.22-1 .42-.75 1-1.43 1.72-2.45h-3.35L175 604m238.21-24c-1.2-1.37-2.55-.29-3.84-.26h-4.1m-56.37 23.02l-.4 1.16 1.53 1.92c-2.19 1.57-2.31-1.34-3.68-1.6a18.84 18.84 0 0 1-3.6-1.48M241.3 467l7.17-2.27c0-1.67.43-3.49-1.79-4.13-1.87-.54-3.59-.48-4.87 1.27M62 481.85l1.27.65.43-2.29-5.7 1.37-.34-.89 3-1.66m59.72 107.34l3.08 1c-1.28.9-2.25 2.12-3.35 2.26a63.55 63.55 0 0 1-7.69.1l-.24-1 2.56-1.28m192.92-87.92l-1.55-3.39-2.15 3.3 3 1.19-.58.69m-59.96-25.1h3v4.6l-1.92 1m132.15 52.8c-2-1.35-3.93-2.65-5.9 0l-1.28-1m-5.63-60.48l-7.94-2.3m33.04 24.33l.64.77h-6.65l-1.42 2.06M47.1 594.05c-1 .58-2.3.81-2.17 2.57 0 .45-1.39 1-2.19 1.52a17.92 17.92 0 0 1-1.79.78m133.23-79.67v-6.1l7.44-5.14c.3-.2.84 0 1.27 0M440.37 518l-2.23-2.21-3.93 2.21.25.63 1 .08m-74.77 8.23c-2.66 0-5.38-.25-7.69 1.53m-104.53 70.19l-2.29 3 .73.64 3.61-3.13m137.84-67.62c-3.07-.7-5.78 1-8.65 1.73l-.45-.79 1.92-2m110.17-402.65l-2.73 2.89 3.24 4.28M285.88 513.62l.72 3.23 4.76.76-.1.62-1.8 1.27v-.44l-13.08-.32M313 474.68l1 8.71m83.84 32.02a48.74 48.74 0 0 1-5.39 1.23c-1.42.17-2.23.54-2 2.1m333.78-385.26c-.51 1.19-.48 2.17 1.48 3l1.78-1.77-3-1.5M306.12 505.68c-3-.36-4.61 2.45-7.18 3.07M180.84 519v2.43l-5.38-1.15m233.14-10.76l2.45 1.35 4.72-.58m-189.59-35.1c-.94-1.58-1.79-3.3-4.14-3.07l-2 2.56M113 600.71l3.84-1.6v-3.51l-.53-.16-1.41 2.71h-1.67l-1.52 3.84M414 487.49l.85 2.13-2 2.56-2.67-1.36M208 507.47v6.15h1.29M388.36 130.4H392l-1.66-2.21-2 1.19M241.56 485.69c1.64 1.61 2.27.41 2.93-.7l-.34-.89-4.23 1.71-1.69-.88-2.57.51m564.15-382.7h-3.5l1.66-2.13 1.84 1.1m-192.66 1.03h-3.5l1.66-2.13 1.84 1.1M303.81 519.76l3 2 .57-.48v3.61m9.75-422.15h-3.5l1.67-2.13 1.83 1.1m-129.63 1.03h3.65l-1.66-2.22-2 1.19m304.37-1.53l-2.38 3.55 2.38 3.62m-7.68-7.17l2 3.66-2.52 3.51M163.42 520.79c.34-.34.69-1 1-1l6.41.47m217.02-7.67l1 7.17M730.64 737.5c.34.34 1 .67 1 1 .1 1.7 0 3.41 0 5.12m-496.23-265.1c-.4-3 1.77-1.21 2.65-1.84l.68.31-.05 5.12c0 .09-.63.17-1 .25m-6.89-51.23h1.79l.25-.59-2.36-1.72-.57.35.63 2.22m391.73-299.45l-3 .78 3.29 1.81v-2.33M233.61 605.83c-1.92-.86-2.08-.81-2.61.94l2.36.19v3.23m260.81-484.91h2.29L495 123c-1.64.63-2.17 1.31-1.08 2.53M342.75 515.15l-3.75-4.38c-1 3.87 1.79 4.75 3.13 6.67l3.18-2.8m-144.49-411.9H204c-.77-2.56-.8-2.57-2.64-1m-28.98-4.13l-.46-2.19-.88-.06-1.29 2 2.38.51m248.25 399.61l-2.5 1.24c-1.8-1.69-2.83.91-4.41 1.06m49.19-397.04h3.15c-.77-2.56-.81-2.57-2.64-1m-291.3 506.65l-3.12-5.19-2.1.62c-1.88-1-2.24-4.65-5.54-3.37m61.49-149.59l-4.1 6.66M681.45 130.4h3.15c-.77-2.55-.81-2.56-2.64-1M345.57 515.41l2.13 1.82 2-1.09-2.84-1.5m-34.34-1.54V512l2.62-.2.1-.93c-.82-.27-2-1-2.39-.73-1.52 1.28-4 1.85-3.91 4.53m50.21-384.27h3.15c-.77-2.55-.8-2.56-2.64-1m26.65 376.53l3.37 1.7 1-1-.17-.74h-2.11m-11.57 12.34l-2.47.17c.64 2.78 2.2.92 3.58 1.41l-1.41-3.63h-2m36.89-22.54c.31 2.39-1.31 4-4.62 4.61M154.45 104.27l-3 .79 3.29 1.81v-2.34M84.25 567.15c-2.12 1.42-4.53 1.28-6.92 1.28m247.49-51.74c-.2.93-.2.93-1.73.45-1.12 1.29-2.53 2.19-4.42 1.34M249 485.69l-2.77.39-.73-1.06 2.47-.76 2 2.2m-61.45 88.63l.76.77 2.82-.31c-.87 2.07-.78 3.62 1.19 4.72 1.37-1.17 2.67-.44 3.94.46m165 161.89L361 740.4l1.42-3.18c-2-.78-2.16.83-2.75 1.82m-36.39-271.53l2.21-.95 2.51 3.28-.62 1.25m83.52 31.26l1.76-2c.36 4.18-3.43 8.69-7.39 8.1m-45.86 21.82c-1 3.24-3.7 2.12-5.9 2.3m-260.8 79.67l2.43 1.36-2.19 1c-1.92-.44-2.16-4-4.86-2.11M647.63 737c-.09.51 0 1.24-.29 1.5-1.62 1.4-1.88 3.2-1.76 5.16M397.84 498c-.9-1.1-1.68-1.05-2.47.46 1.75.78 3.13 0 4.52-.72M63.5 586.88c-2.73.34-5.48 1-8.19.9-1.75-.06-3 .18-4.11 1.4M27.38 483.65l4.06 3.35-.44 2.79m222.6-13.57c1.86 1.41 3.59-.12 5.38-.25a2.39 2.39 0 0 1 .77.25M198 489.54l-6.4 4.1M271 587.9l-3.6 5.1c-1.47-1.1-2.67-2.39-4.36-.41l3.62 2.21m257.23-469.52l2-.67c0-.27-.05-.55-.07-.82l-2.14-.3v2.05M39.93 510l-1.5-1.8c-1-2.42-1.6-2.92-3.62-2.3m204.44 99.16l1.46 1.78-3 3.65 3.56 1.67v2.38m18.99-140.37l.51 8.71m-115.03-23.83c-1.93-1.89-3.66-4-6.41-4.86m179.34 15.88c2.23.77.25 2.45 1.28 3.48l-.57.21 3 1.8-.15.7-3-.56M247.45 448l-6.15 3.07m-12.3-9.18l-3.07 6.11m97.61 29.24c.5 3.77 4.1 3.47 6.77 5.06-.55-2.67 1.17-5.27-.88-7.62M358.64 529l2 2.33 5-.93c1.06 1 2-.58 3.23-.89m1.55-27.68c-.34.34-1 .73-1 1 .24 1.81.63 3.59 1 5.39M66.06 565.36l-6.92 2.31m177.04 41.75c.4-.85 1.77-1.71-.07-2.65l-2 2.65m-38.41-31.51l5.82-1c-1-2.87-2.17-1.42-3.26-.77m128.61-62.01c1.53-1.32 2.45.25 3.46.64H333l.26.66-2.82 1.39v-1.67m-111.17-50.72l4.1.79v2.1l-2.57.88v2.38m80.71 38.94l2.09 4.23-2.35-.39m430.41 223.11l-.68-1.73-1 .22.7 8.69M267.69 596.87l-2.32 3.13 2.13 2.56 1-2.39m174.68-99.87a11.87 11.87 0 0 0-2.8 0c-1.41.35-2.09 1.11-.53 2.26m-140.91 13.36l1.89 1.64c-1.46 2.48-2.18 2.73-3.68 1.44m70.2-17.17l.64 5.56-2.18 1.1m-222.89 96.83l1.29-2.68.46.09.42 3.55c2.3-2.35 3.67-5.6 7.31-3.26M319.44 468c-1.5.51-2.88 1.13-2.81 3.32l1.53.78M214.91 736.47l-1.51.85.23.56H216l-.79-1.66M39.67 508.75c1.08-1.8 2.68-1.4 4.08-.72a19.14 19.14 0 0 1 3.13 2.49L45.19 513l1.25 2.37.87-.14.31-2.13m188.04-51.23l-3.58 4.61m-8.2 144.99l-2.58-.39c-1.33-.17-.76 2.8-2.8 1.67M382.21 528v1.9l6.66.66m-33.31-1.06c-.68-.09-1.77.06-2-.3-1-1.72-2.53-1.3-3.91-1.21-3.59.25-7.17.71-10.76 1a11.74 11.74 0 0 1-2.82-.48M121.4 594.56l-1.53-1.54c-1.77-2.06-2.91-2.12-5.15-.24l-2-1.29m68.12 23.05l2.36-1.85-.27-.45h-3.09l-.06-.36-3.08 1.12c-1.72-.64-1.61-2.11-1.5-3.57m229.55-108.62l3 1.37-2.75 1.45M309.71 517l-.49 4.94 3.7 1.07.14-.89h-1.31m117.6-16.19l-5.12 3.59M43 600.2a24.4 24.4 0 0 0-8.71-3.08M245.4 476.73c.24 1.87 1.83 3.62.51 5.63m-81.47 36.38l-3.85-.7-2.3 1.72m192.15-5.12a8.58 8.58 0 0 0 1.55 1c1.93.75 3.3 1.72 3.7 4.09a3.6 3.6 0 0 0 3.72 3.12l-1.21-2.14-.84.84M171.1 510c-.08 3.48-.28 7 2.17 10.14l-1.22.35-1-1.27m208.6-17.39c1.66 1.24 4 1.55 4.86 3.85M262.82 605.83c1.64-.3 2 1.09 2.23 2.07s-.21 2-.39 3.31c1.47 1 4.37.87 4.31 3.84m128.1-125.51l-4.52 3.76-5.13-1 1.45 2.9m14.86 8.17l3.61 2.69 2-1.15m-101.43 10.24c1.8-.44 2.93.23 3.32 2.06l1.14-.57.61.05c-1.41 3.18 1.76 3.74 2.62 5.64M477.26 737.5l-2.41-2-1.18 3M335.58 518.23l1.71 1 1.1-1.42-2.81-.63m96.33-19.45c.52 1.49 2.68 2.3 1.79 4.36m-109.9 21.77l-4.36-3.86"/><path d="M166.49 504.39c.67 1.17.93 2.27-.31 3.11l-.73-.14.53-1.43m193.94 26.9c-1.67 1.13-3.37 2-5.38.77M184.94 487l-.77 3.58-.51.1-.27-1.89-.5-2.31m135.78-3.6l4.17 1 .38.71-1.47.83M672.74 99.15c-2.48-.38-3.76 1-4.61 3.08M155.47 596.36l-3.33 4.86M227 592l1.46 1.94a37.43 37.43 0 0 0-1.38 4.73c-.11.61.61 1.36.95 2m-183.49-18.4l3.68-.9v-.58l6 3m64.11-2.04a15.75 15.75 0 0 0 1.55 2c.78.76 1.69 1.39 2.54 2.07m213.67-65.54l1.93 1.78v3.26l-1.41-1.46m-27.67-51.23l1.49.82-.6.86-4.14-1.55.68 2.43m-49.7 44.32l1.12-.79 3 3.35m-213.94-10.5c1.62-.12 3.24 2.22 4.86 0m284.38-51.23v5.42l-1.79-1.07m-12.04 34.07l.45 2.27-.56.37-1.43-1.87m42.02 106.3c1-2.54.67-3.41-1.54-4.1m-195.73-97.34c-1.61.35-1.55 1.6-1.54 2.88l-6.66.71m235.19-2.82l2.16-.3.11-.69-1.34-1.35-.93 2.09m-82.24 11.01l-2.8 3.74-1.56.62m27.93-35.35l.58 1.16 1.33-1c-.19-.35-.26-.64-.38-.66-.53-.11-1.26-1.3-1.53.23M70.16 613.52l-2.18 1-2.17-2.31M341 482.62c1.18.69 2 1.53 1.85 3.08 0 .21.63.51 1 .76M245.4 592.51c-.94-1.32.83-1.26 1.06-2a27.32 27.32 0 0 1 1.46-3.29l-3.55.72M44.28 507.72l1.36-2.44 1.46 2.19m297.7-28.69l-2.24-1-5.44 4.84m49.44 256.93l.35-2.42c-1.67 1.77-1.68 1.82-.6 2.42M190.06 609.42l1-1.14c-1.41-2.16-2.17-.41-3.05.63m74.81-42.01c1.17 1.61 3.25.51 4.61 1.53m132.71-32.78a6.11 6.11 0 0 1 1.54-.49h4.61M145 601.73l.9-1.36 2.48 3.41h2.77m64.53 0l-.26-2-.51-2.31m115.03-125.81l-4.86-.25-.52 1.57c-.17 0-.4 0-.5-.05q-1.68-1.65-3.34-3.32"/><path d="M186.47 517.2l-1.29 2-1.52 1.8M352 491.59c-1.37-.71-2.69-1.73-4.87-.66l4.36 3.73m-142.98 81.97l-2.26-.66-5.43 2.71m-47.91-115.53l-4.61-1m180.62.75l2.05.8-3.07 4.32m14.85-2.02l-4.61 1M303.3 737.5l.52 1.82c-1.56.8-1.65-.14-1.54-1.31m431.18 5.12l1.68.59.35-.51-1.2-1.62-1.6 1.54M415.51 512.59c2.49-1.83-.13-3.1-.25-4.64h-.53l-.24 1.59m-84.29-25.38a2.47 2.47 0 0 1-3.59 1m19.73-4.84l7.85 1.81-.68 2.28M322.77 487l-1.47-2-3.82-.55c.51 2-.71 4.2 1.84 5.16.9.25 2.4-1 2.68 1.2m-165.76 98.63c1.18-1.28.43-2-.34-2.38l-2 1.61m174.25-105.02l-3.35 1.75c-.22.1-.66-.3-1-.47m29.46-1.28c-2.09-.82-3.79.5-5.64 1M58.89 568.43c-1.5-.9-2.89-.91-4.1.52m277.72-87.61c.51.34 1.15 1.08 1.51 1 1.9-.64 3.13.1 3.9 1.84l2-1.52M91.42 612.75l4.24-4.87c1-.29 2.67.5 4.22 1.54M398.09 489l-.7 5.3-2.46.62c1.8.77 3.87.67 4.7 2.79M245.4 603.78c1.23 1.65 1.69 3.34.16 5.38l-5-1M29.17 490.05h2.3c1.6.06 3.58-.54 3.85 2m6.4 102c-.17-.17-.38-.51-.5-.49l-5.38 1.29c-.23 0-.35.48-.52.74m149.36-96.06l.26 4.35m97.35 94.78c-.35-1.92.76-2.89 2.46-3.49l-.08-.6a11.81 11.81 0 0 0-1.87-.24 18.11 18.11 0 0 0-2.05.23M491.86 99.15c-1.92-.35-2.89.76-3.49 2.46l-.75.5-2-2.14.57-.82h-2.57M349.16 487.74l-.44-1.76-2 2h2.2m-35.37 24.36l-1.14 3.39-1.42-1.6m-83.27 94.52l-1.83 1.83 1.32 2.27m-78.14-8.45l.33 2.3 2.23-1.28M390.41 492.1l2.09-1.4-.74-2.57-1.86-.64m.76 46.36c-1.41.76-2.83 1.36-4.35.26m-135.79 80.43l-.63-1.65.49-.35 1.18.71 1.5-1.24 1.17.82-1.14 1.71m113.23-112.71v4.1M588.7 739l-1.15 4.24c-2.65-.53-2.42-2.45-2.43-4.24M355.05 609.93l-.6 3.32 3.16 1.8m-49.7-110.14l1.54 2.3 2.05-1.28M419.1 510c1.25 1.48-1.06 1.18-1 2l.77 1.08.58.11.18-1.9m-263.39 86.86a2.87 2.87 0 0 0-2.13 2.81c-.07 1-.94 1.88-1.45 2.82m-64.05-37.4h-4.1M478 737c-2.72 3-2.77 3.49-.52 5.63M251.29 606.6l4.36 1.79m106.58-93.75l-2.35.8-2.19-1.22-1.36.68M332.51 467c-.1 1.54 2.94 1.51 1.79 3.58m-3.3 47.13l2.27 2.61.93-1.77-.42-.49-1.24.94m281.78 219c-.1 1.17 0 2.11 1.65 1.26l-.62-1.26M139.33 478.78l2.82 3.84m172.42 23.82h-2.7a11.1 11.1 0 0 0 6.55 3.85m103.76-17.17l-4.05.47c-.47-2.62 2.14-.72 2.51-2m-23.06 9.22c-.19 1.6.72 2.48 2.06 3.06 0 0 .21-.15.24-.25a2.17 2.17 0 0 0 0-.51m-54.05-4.35h-3.68l.86 2.3m65.84-7.17l.19-3.29-3.35 1.66 3.93 4.19m-59.69 24.34l3.07 3.07m-10.5-59.43l-3.84 1.57M83.48 572.53c-1.66-1.19-2.25-.23-2.76 1.54h-3.9m258.25-99.39c1.36 1.41 1 3.18 1 5.12h2.55m-189.04.52l-2.36 2.06a4.32 4.32 0 0 0 5.18.24m-32.54 102.72h-1.73l1.73 2.56M355.82 518l1.5-1.5-2.52-1.57m-14.09-16.17c-2.22.51-3.13 2.34-4.1 4.1m-15.89-5.13c0 .35.06.7.11 1.34l-2.93.29v2.47M25.07 461.36l2.8 2.51-1 .82m355.34 30.48l-1.44 1.83 5.54 6.13m12.3 30.98l-3.85-.26m-78.39-26.64l1.43.73-.51.71-1.18-1.18m-106.58 2.05l.55 6.66h-.8m124 5.89l-1.21 2.41-1.61-1.13m254.91-396.79l2.4-3.08c-2.71 0-2.71 0-2.14 2.06M33.78 429.08c-1.28.35-2.07 2.53-3.84 1M299.46 517l-3.82 2.22-.57-.4.29 2.27m34.07-31.55v-1.41h-1.53l-.52.64 1 .25M67.6 478l-3.84 2.05m328.7 26.39c.42.35.82.91 1.29 1a5.08 5.08 0 0 0 1.78-.45M30.45 488.26l-3.84-.77M421.92 499l1.21.79 2.38 3.56M550.27 97.87c1.32-2.05.07-2.18-1.94-2.42.7 1.07-.25 2.65 1.69 2.16M357.87 502.6l.77 1.54-.28.42-1.77-1.19M494.42 739l-1.5-.63-.06.88h1.56M235.66 125.54c1.31-2.05.1-2.21-1.91-2.38.67 1-.28 2.6 1.66 2.12m33.82-1.54c-1.65-1.14-2.22-.37-2.38 1.57 1-.17 2.34.84 2.12-1.31M113 580l2.3-.38v5.25m170.07-110.19l-1.75 1.47 1.33 2.08.42-1.5m59.43 28.18l-2.78-.63c1 3 1 3 5.45 2.44a18.19 18.19 0 0 1 1.46-2.82 2 2 0 0 0-.28-3.09m-157.31 92.73l4.1 2.3m205.47-16.39l-2 .79-1.88-.53m-51.2-49.19l-3.33.77m-17.17-11.78l-3.58.77m37.15 85.81l-.46-2.82H354M743.45 377.6v2.17h-2.22a28.16 28.16 0 0 0 1.93-2.45c.13-.21-.14-.66-.22-1M194.16 521.81c-.79 1.64-2.09 1.07-3.33.77m157.82-23.82l-.54-1.71-1.8 1.35 2.08.62m-112.98-19.47c-.37 1.27-.67 2.53.51 3.58m-72.5-3.84l2.81 3.33m67.13 108.61l-1.36 2 1.1 1.3m165.51-61.96a2.56 2.56 0 0 1 3.08-1.07 33.41 33.41 0 0 0 4.6.56m-65.58-48.16a7.15 7.15 0 0 0 .54 1.77 5 5 0 0 0 1.25 1.05m85.57 18.44a17.9 17.9 0 0 1-3.07 1.74 9.32 9.32 0 0 1-2.8.06"/><path d="M30.19 596.61l-1 1-1.79 1.54m454.21-425.71l-1.4-.43-.15.82 1.55-.14M239.25 474.68l-1.46-2.34-2.6 1.27c1.14 1.41 2.16 1.53 3.29.3m124 46.88l1.24-2h-2M270 586.62l-3.08 3.38M435 504.91c-1.18 2.22-1.18 2.22-4.91 1.67l3.37-2.7m-135.03 13.83l-.6-.76h-2.73m-185.74 62.76l3.33 1m49.45 4.89l2.39 1.6-.6 1.21m48.16 24.34l-2.09-.7-1 1.47M434.73 509c-1 .37-2.74-1-2.82 1.28m-271.82 90.17l1.33.46-.55.65-2.58.43m-39.71 9.73c1.25 1.71.13 2.33-1.28 2.82m194.2-117.32c.6-1.35.6-1.35-.4-2.44l-2.68.91m435.03 131.92v2.17h-2.21a29.76 29.76 0 0 0 1.92-2.45c.13-.21-.14-.66-.22-1m-489.09-21.01c.86.34 2.07 1.22 2.5.93 1.8-1.19 2.52 0 3.69 1.18l-1.32.45"/><path d="M214.66 598.66c-.81 1.49-1.89 1.3-3.08.51m110.17-104.25l.29 1.69-.63.22-1.71-1.14m-74.3 115.52l1 3.33M70.93 477.24h1.62l-1.22 1.83-.66-1.32m264.4 42.53c.06 1.35.42 2.46 2.05 2.56m-179.85-9.22c-.51 2.19-2.43 3.39-3.59 5.12m-73.02 53.79l-3.33.51m-41.76-82.22l-.31-1.88h-.63l-.63 1.11m232.41-22.54l3.33 2.82m2.05 48.67h-3.33m-108.12 80.69c-.84 1.89-2.58-.38-3.84 1l1.54 1.52m177.28-125.99l-3.84 3.58m56.88 8.71l2.39 1.37-1.37.68m-66.86 13.58l2.28 1.5-2 1.83m35.07 95.8a5.15 5.15 0 0 0 .22-1.53c-.06-.37-.48-.69-.73-1l-1 1m68.89-102.98c0 2.36 0 2.36 2.32 2.77l1 1.58m-278.73 94.78l.91-.6.37 1.12.32 1.26-1.35 2.33m49.96-5.13l.7 1.36c-.66.75-1.24.58-1.72-.34m-89.42 4.87c2.25-1.1 5.35-.63 6.67 1.79l-.77 1.54M416.28 580c.75-1.09.75-1.09 0-1.84l-2.73 2.51 1 2.66m-70.77-113.26c-1.07.22-2.5-.66-3.07 1m-22.81 51.51l.26 3.33M227 475.19l-2.31 1.91-3.32-1.4m189.53 8.2l-1.51 1.77 3 4.64s-.15.19-.25.24-.17 0-.25 0M255.14 609.68l.63 4.64 1.41.73m129.64-129.61l-3.33 4.87M171.1 506.44q1 2.56 2.05 5.13m238.78 66.09l2.3 2.05m-77.88-54.57l-5.12 1M26.86 483.13c.35-1.5-.6-2-1.79-2.3m329.98 5.63l-1.87 1.34.85 1.74m-130.15-8.71l-3.08 1.53m151.67 50.21L369.4 531m-138.86 77.39l2.56 2.61m9.23-147.59l-1.33 2.82m150.43 33.04c-.67-1-1.34-2-2.82-1.28m-212.38-34.58q1.28 2.82 2.56 5.63m33.3 47.65a3.77 3.77 0 0 0-.05-1.51c-.12-.24-.8-.2-1.23-.28m124.51-51.23l-2.81 1.79M218.24 612l-2.3 1.54.5 1h3.34m9.22-16.9c-.23-.93 1.55-2-.25-2.82m-59.7 16.65l-.51-.77L173 608l.2 2.45h1.45m172.46-124.76V484l-1.34 1.51 1.08.95m37.41 9.23l-2.56 2m-66.1 17.46l.51 3.08m-269.78 68.9l-.59.6 2.39 2.73m317.17-74.28c1.13.94.13 1.18-.51 1.54l-1.28.76m73.49-.77c1.19 1.56 2.6 1.33 4.09.52M243.86 600.2l1.46-1.46 1.36.69m-61.23 6.92l-.43 2.06c3.23-.61 4.35 2.16 6.07 4.08M57.35 598.66c-.17.26-.53.7-.48.74 1.29 1.28 2.73 1.11 4.32-.48M147 571.51l2.82.77M61.71 598.4c-1.5-.71-2.53.2-3.59 1m91.97-26.4l1-2.92-3-.15m282.28-67.58l-2.14 2.23-1.19-.95m-114.52 1.79l-2.55-.78a13.88 13.88 0 0 1-1.55-.76m-45.34 105.03l.66 1.33-5 .72m131.16-124.5c-.13-2.4-1.4-.21-2-.51M29.68 429.08l-1.54 4.1m413.51 70.19c-1.63-.48-1.77-.32-1.8 2.05h-.77m-246.71 8.45l-1.28 2.82m92.48 79.67l1.26.55-1.51 2.26m-62.26-150.62l2.82 2.05m93.25 67.63l.89-2.65 2.7.34"/><path d="M348.39 508l2.72.82.87-1.33m-8.2-5.14l2.82-.21v2.51m-13.6-.77l-1.28 2.82M63 613.52l-.54-.8 4.11-1.72M414 495.69c.79 1 .79 1-.77 2.56M44.8 512.34c-1.07-1.23-1.68-3.09-3.85-2.82M383 493.89l2.82.26m-121.97 24.08a16.25 16.25 0 0 0 2.06 1.76c1.12.69 2 .48 2.41-1.33l-2.42.34m-44.58 84.78v2.56l3.84.77m120.16 1.28L343 609.7l-.62-1.07 1.88-1.27a14 14 0 0 0 1.29-1.27m-150.88-13.58v2.82m225.97-100.16c-.51 1.48-.51 1.48 1.16 3.22l-1.67 1.39m-94.28-13.32c-2 .37-4.24.39-5.13 2.82m-34.58-17.42c-.28 1.48-.8 3 .25 4.36m-86.34 101.69c.3 1.8.3 1.8-2.3 1.8m43.81-118.61l-2.31 1.8m146.55 42.01c-.63.89-1.19 1.89-2.57 1.53m-35.35-43.54l-2.56-1m38.94 29.17c.71.59 1.34 1.95 2.3.26m-66.35-11.78c-.5 1.38-.5 1.38 1.28 2l-1-1.71m-165.78-17.46l-1.54 2.05M47.62 585.34l1.12-1.6-.87-.7m171.91-117.58l.77 2.3m112.73 29.72l-2.49 3.89-3.15-2.1M27.12 598.92c.09-1.12-.21-1.9-1.54-1.8m373.28-65.57l-2.3 1m-276.18 77.89c-1.25.47-2.38 1.75-3.83.5-1 .85-1.8 1.13-2.32.78m52.52-1.53l-.93-1.89-1.82 3.36-3.14.32M323 472.37l2.06-.88 1.78 1.14m7.72-1.28c.63 1.36 1.6 1.92 3.07 1.28m-24.85 47.65h-1.54l-.77 1m15.38 2.07l-.9-3.51-1.95 2.23m-85.8-44.83v1.36l-1.28.43m-59.69 130.9l1.53 2.31M367.61 508l.83 1.48.5-.79 3 .34m-13.3 93.22l3.84 2.81m57.39-96.82c.6.25 1.24.8 1.79.71a3.76 3.76 0 0 1 3.59 1.59M249.5 604.81l-.42 1.22.93 1.34m4.36-3.37a14 14 0 0 1-1.55 1.26c-.82.5-1.7.87-2.55 1.3M395 511.31v-2.43l-2.56.64m-144.73 99.13l-2.31 2.05m-59.18-1.79L188 611m227.51-119.41l.8.46-.08.59-2.51-.28m-177.03-32.02l1 2M291 480.83l1 2.05m35.9-22.8v2.3m-88.65 143.71l-1.64.92 1.38 1.13m-124.25.25l1.24-1.77-1-1-.73.14-.53 2.65m100.42-4.11l.56.83-.18.81 4-.88m9.71 131.16l.37-1.15h-2.18l1.56 1.15m154.74-245.66l.77 2.05m-76.09 21.52v3.58M25.07 463.92l2.05 2.08m143.98 18.41l-2.66 1.6-.67-.83m70.71 119.37L237 606.6m84.23-142.17l-2.05 1m93.26 38.45l1.95 1.3-.28.72-1.93-.48m-362 82.48c-.33 1.32 1.17 1.26 1.39 1.74l-2.42 2.87m293.6-95.29l-2.3-.25m-15.63-5.9l-2.05-1.53m91.98-3.08l-1.62-.54-.15 1 2-.19c1-.2.07 2.44 2 1.26m-140.07-15.62a6 6 0 0 0-3.33 1.8M156.5 516.43l.26 2.31m117.85-50.21c-.43.34-1.09.61-1.23 1a11.27 11.27 0 0 0-.31 2.55"/><path d="M336.61 468.53l-1 2.31-2.85.25m98.9 27.41l-2.11 1.5 1.87 1.55 1.26-1m-22.8-13.32l-1 2.31m-120.95 10.24v2.05m-21.27 97.34H269m-24.11 11.27l-3.33 1.28M180.84 487l.51 3.58m139.37-12.83l2 1m-38.63 120.17l.24 1.53c.04.53 0 1.2 0 1.8m-47.64-119.89l-1 2.05m91.18-5.63l1.79 1.28m86.34 2.3l-.77-.51-.25 1M188.78 610.7l-1.3.74 1.67 2.1-1.14 1M323 470.07l1.28 1.54m-112.7 143.44l1.12-3.36 3 1.53v-3.29m149.09-88.63l-1.3 2-2.29-3.49m-158.07 76.55c.6.24.48 2.18 1.79.76m144.24-108.86l.26 2.05M290.23 520c.48.92 1.07 1.08 1.8.26m33.56-2.8h2.05M84.25 595.84l1.75 1.28m117.13-1.79l-1.22 2.14 2 1.7M413.72 499l-.6-1.6-2 2.36m-7.9-1.51l1.53 1.53M270.51 601.22l-1.8-.25m89.42-132.44l-2.05 1m-330.5 43.06l1 2m325.65-36.07l.29-.85.61.33-2.13 2.83M179.3 518l-1 1.28-.26-1.54m-57.92 76.31l.26 2.05M411.16 489l-2.05 2.05m-80.19 102.23v1.79m-264.4 17.42l1 2m203.71-148.26l2 1.53M45.05 593.54l-1.72-.86-1.86 3.42M195.7 591c-.34.42-.84 1.27-1 1.21-1.89-.67-.69.94-1 1.35m.46-4.12c.73 1.78-1.11 1.77-1.8 2.55s-2.7 1.29-1.27 3.08m161.66-86.32l-.77.77-.48.48a6.75 6.75 0 0 0 1.25.52 10.61 10.61 0 0 0 1.79 0L353 508m-19.72-34.6c-1.19.11-1.19.11-1 1.77l2.24-2.8m11.05 136.79l1.8 1.28m-101.46-21.51V591m-23.57 13.3l.26 2.05M27.12 433.69l1.79 1.31m366.37 74l1.28 1.53m-75.84-7.16h1.54M233.36 519l1.25.54-.47.65-1 .09m121.4-6.15l-.77 2m-17.16-39.4l2.05.51m-130.15 37.91l-1.38.34 1.89.94m90.98-8.71l-1.79-1.28m35.79-46.1h-2m-53.29 58.91l-.43 1.23 2.19.63.28-1.86m33.82-4.61l.78 3.84c0 .1.16.17.25.26l.25-.26m102.23-9.99v2.05M333 492.1l-1.79 1m-90.93-18.42h3.07m109.14 17.93c-1.31.71-.1.91.26 1.28m-8.97-31.51l1 1.54m58.44 37.91l1.79.77m-183.44-39.7l1.8.51m-63.8 56.1l1.8.51m21.77 93.5h1.8m202.39-121.93l-2.3-1.8m-42.28-26.38c.4 2.19 2.12 2.38 3.85 2.56"/><path d="M257.7 607.88a13.65 13.65 0 0 0-1.79.53 18.77 18.77 0 0 0-1.8 1m84.29-95.54l-1.79.26m-174.22 98.36l1.54 1m276.18-107.81l1.68 2.47-2.19 1.37m-177.8 98.36l-1.54.51m95.82-121.93v2.05h-1.8m80.96 17.68l-1 1m-233.16 88.65l-3.3 2.35c-.25.22 0 1 0 1.5m33.78-1.54l-1.79-1.28m-68.4-76.08c.17-1.62 1.16-1.06 2-.77m154.79-8.45h-.94l-.09 1M322 497c.85 1.09 1.81 1 2.82.25m-58.67 100.64c-1.15-1.68 1-2 1.22-2.88l2.11 3.14M324.82 488l1.54 1.54m14.86-11.02l-1.54-.25M83.48 596.36L82 598.15m.2-2.31l-1.28 1.8m87.36 12.8l-1.79.52m-86.08-16.91l-.61.73 1.12.55m237.5-73.26l.93-1.54-.48-.45-3.53 1m2.05-22.08l-1.79-.26m101.2-9.97c.42 1.12.5 2.57 2.3 2.3M383 498.5l.77-.51.56.16-.56 1.89m-182.95 94.01l1.18-.41 1.9 1.43m124.51-3.58l1 1.54M315.34 519l-1.28 1.28m12.55 0h-1.28l-.11-.69 2.55-.66-1.67 3.65m89.41-20.23c0 .34-.14.85 0 1 .86.75.89 1.4 0 2.08m-87.1-22.55c.24 1 .59 1.65 1.53.51m-179.85 3.07l1 1.54m208.06-2.56c1.08 1.42-.95 1.6-1 2.56m-25.39-5.38l-.83.84 1.6 1.21m108.63 29.46l-.72-.6-.56.85m-108.37-42.77l-.77 1.28M264.1 607.11l-2.05 1.54M45.31 433.44l-1.54-.51m364.06 66.85l2.82 1.8m-292.07 81.97l-.51 1.53M310 522.84l-.51 1.53m-244.2-38.93H64m261.85 20.49v1.28l-.5.27-.79-.78m-83.26 97.6l-.77 1.28m-.25-1.8l-1.29.77M394 518.23l.26 1.28m-177.55 83.25l.49 1.54a4.33 4.33 0 0 1 0 1M414.75 500l.76 1.28M168.54 601.73L168 603m98.41 4.88l-.3-.6-.73.6m124-105.79c-.09 1.12.21 1.9 1.54 1.79m-62.77-33.04l1.79 1.79m-95.81 10.25l-.26 1.28m36.89-14.35l-.77 1.28m52.27-2.56l-.26 2.82m117.34 32.79l-1.28-.26m-157.31-37.4l-1 1M234.64 593l-1 1m156-89.86l-1.28.25m-154.23 86.07c-1.64 1.84 1.62.4 1 1.54m-74.28-88.63l-.51 2.56M249.5 590l-1.5 2m91.42-76.59l-.76 1.28m-65.59 2.82l.51 1.28m68.15-39.45l-1.28 1M159.06 586.11l-1.28.26M354 495.17l-.26 1.28M112.69 583.8l1.54 1.54m159.35-104.51l1.09 2.18 1-1.67m51.97 34.58l1.28-.25m-216.74 67.11l1.28-.26M333 458.54l.49-.74.41.53-1.16.47m6.68 47.39l-1 .51m-2.58-26.64l-.77.77m-.26-3.33l2.31.25m-83.78-.75l-.77.76m166.53 30.73l2-1M319.44 481.6v1m-44.32 36.14l1.54 1M91.17 611l-.77.76M34.29 503.37l-.79 1.06 1 .73m298.78-33.81l.51 1m69.43 58.17l-.77 1m-168.32-43.01l-.77-.77m87.36-17.67l1 .51m-3.82-1.28v2.05m-107.09 44.83l2.31 1.53m121.18-52l-1 1m-7.71 22.57l-.51 1M344 464.69l.95-.61.84.87M196.72 576.12l-2.05 1.54M322 515.41l-1.53 1.59m-86.6-56.41l1 1m315.66-293.53v1M300 513.62a5.65 5.65 0 0 1-.79 1.25 4.1 4.1 0 0 1-1.26.54m-143.5 86.84l2.05-.26m164.73-108.35l.58.68-1.34 1.11m230.06-321.74v1m0 10.31v1M148.56 597.12l1 1.54m-1.26-.77l-.77.77m-98.38-9.22l-.26-.53-.51.27m592.33-212.61l.77.26m-.77-49.44l.77.26M244.63 592.77l-.25.51a.75.75 0 0 0 0 .26m3.33-3.84l.76.76m-91.71 6.66l-.77-.25m-.77-8.2l2.05 1.28M200.05 497l-.25.51a.7.7 0 0 0 0 .25m440.91-70.98l.77.25M276.91 455l-.77-.26m-250.3 59.64l-.51.77m119.38-56.61l-.25.52a.7.7 0 0 0 0 .25m110.16 143.96l1 1m142.47-89.63l.52.51m242.1 62.25l.77.26M298.69 461.87l.51.51m43.04 38.94l.51.51m-168.06 104l2.05-.51m169.09 0l.51.51m-48.93-96.57a5 5 0 0 0-.25.52.68.68 0 0 0 0 .25m-145.02 62.5l-.76-.25M289 466.48l-.77.26m31.98.26l-.92 1.1 1.18-.34m15.11.24l-.77.77m-45.81-.24l-.77.26m95.77 33.3l-.77.26m44.33.25l-1.31 1.31-.33-.59.61-.21m-64.3 28.95l-1.7 1.54-.87-1.54m-125.79-45.85l.77.77m84.03 29.71v2.15l-1.79-.36m-270.29-9.99l-.77.26m366.11-23.82l.77.76m110.93-359.9l-.5.52a2.29 2.29 0 0 0 .24.25m-235.7 346.07a2.71 2.71 0 0 0-.24.52c0 .06.16.16.24.25m353.04 53.79l.77.26m-485.75-8.71l-.77-.26m338.95-392.69l-.5.52a2.29 2.29 0 0 0 .24.25M222.6 474.94l-.77-.26m-155.51 7.94l-.77.26m345.35 21l-.51.51M625.6 107.86l.77.26M331.48 522.33l-.25.76M71.44 475.45l-.77.25m365.85 31.77l-.77-.26M316.62 519h.77m3.08-14.86l-.77.25M640.71 477l.77.25m-349.48 42l-.77-.25m349.48 107.58l.77.26m-407.1-106.31l.26.77m406.07 155.49l.77.26M301.25 506.44l-.28-.55-1 .81m-61.23 97.08l.25.77m171.4-105.28l1.28 1.28m-71.99-18.7l.77.51M200.82 595.07l1.28.77M84 595.07l-.26.77m132.97-463.9l-1.54 1.91c1.86.2 3.2.49 3.06-1.91H217m455.74-3.07c-.52.42-1.41.81-1.47 1.28-.13 1.25-.58 2.83 1 3.52a2.57 2.57 0 0 0 2.24-.25 2.25 2.25 0 0 0 .26-3.5 5.88 5.88 0 0 0-1.76-1m-349.21 3.02l-1.54 1.91c1.86.2 3.2.49 3.06-1.91h-1.27m153.46 0l-1.53 1.91c1.86.2 3.2.49 3.06-1.91h-1.27m90.44-3.07l-1.71 2.33 1.12 2.66h2.59c1.23-3.55.77-4.79-1.75-5m-23.31 3.08l-1.53 1.91c1.86.2 3.19.49 3-1.91h-1.26m-33-3.07c-2.16 2-2.16 3.07 0 5.13 2.13-.38 2.08-1.95 2.07-3.6 0-1.33-.7-1.63-1.82-1.53m141.17 3.07l-1.53 1.91c1.86.2 3.19.49 3-1.91H654m-357.87-3.07a7.78 7.78 0 0 0-1.48 2.32 2.13 2.13 0 0 0 1.74 2.77c1.5.28 2.13-.83 2.26-2 .17-1.6-.12-3.08-2.27-3.07m-11.01-.02l-1.72 2.33 1.07 2.52c3.15.31 3.94-1.12 2.6-4.85h-1.7m-58.62 0c-.51.51-1.37 1-1.46 1.54-.22 1.38-.39 3 1.47 3.55a2.06 2.06 0 0 0 2.55-1.51c.59-1.59-.32-3-2.3-3.58m464.95 3.07l-1.53 1.91c1.85.2 3.19.49 3.05-1.91h-1.27m-251.58-3.33l1.54 1.2-.26.47h-2.56l-.25-.47 1.27-.94m20.75 4.13c-2.11 1.14-2.36 3-2.29 5.2a3.72 3.72 0 0 0 2.55-5.2M415 157.56c-.34.68-1 1.36-1 2.05v30.73c0 .18.16.35.5 1h134.06l.66-5.89V164.7c0-2.06-.24-4.11-.4-6.53a49.29 49.29 0 0 0-5.47-.62q-64 0-128.1 0m-17.67 10.76a10.78 10.78 0 0 0-1.76 1.82 25.21 25.21 0 0 0-1.38 3.25c2.78 1.34-.05 2.88 0 4.54h6.22v-1.28h-3.6l2.15-3.75-1.5-.75v-2a7.41 7.41 0 0 0 1.9-.34c.34-.17.48-.74.92-1.5h-2.69"/><path d="M452.92 168.31a7.75 7.75 0 0 0-1.56 8.21c.68 1.4 1.73 1.59 3.1 1.55a3 3 0 0 0 3-2.6 12 12 0 0 0 0-4.58c-.44-2.27-2.17-2.89-4.3-2.58m7.96 0l-2.05 1.79v6.5l3.72 1.79c2.94-2.62 3.49-4.7 2.44-7.77a3.2 3.2 0 0 0-3.86-2.31"/><path d="M453.94 169.85c-1.56 2.47-1.47 5 .26 6.66a4.67 4.67 0 0 0 0-6.66m7.94 0c-2.21 2.32-2.21 4.35 0 6.66 2.06-2.41 2.13-4.17.26-6.66m56.6.51c-1.52 2-2 4.39-1.52 7.56h3l-1.76-2.3 2.38-3.66-1.88-1.6m180.16-43.54c-1.58 1.9-1.49 7.3.29 8.66a4.57 4.57 0 0 0 2.53.53c1.36 0 2.72-.15 4.14-.24.76-5.63.42-8.07-1.83-9.21l-.77 7.14-2.48.47-.36-4.53c-.12-1.06.66-2.56-1.26-2.82m-8.97 0l-1.6.8.58.86 4.14.42v.46l-5.07 2.39c-.41 4 .78 4.48 3.52 4.3 1.2-.08 2.4 0 3.54 0 1.41-7.4.61-9.87-4.82-9.22m-38.72-.01l-1.44 1.8 4.55.27v.57a22.51 22.51 0 0 0-4.11 1.76c-1.47 1-1.42 2.55.15 4.55l6.48.34v-5.19c0-3.28-.83-4.1-4.1-4.1h-1.27m-171.65 44.57c-2.22 1.08-2.22 1.08-3.38 5 .89 2.44 2.92 1.47 4.66 1.65v-1.43l-3.14-.26v-.62h3.65l1.4-3-3-1.33m164.03-44.58l-.5 4.61c-.09 1.54 0 2.9 0 4.48h2c.12-2.83-.67-6.27 3.9-8a15.31 15.31 0 0 0-2.62-1.08 15.59 15.59 0 0 0-2.56 0m-10.47-.01c-1.59 1.9-1.5 7.3.29 8.66a4.57 4.57 0 0 0 2.53.53c1.36 0 2.72-.15 4.23-.25v-8.82h-2.1l-.52 6.74-2.55.49-.36-4.53c-.12-1.06.66-2.56-1.26-2.82m-15.63 0l-1.26 1.57c1.43 1.4 3.4-1.56 4.41 1.2-1.81 1.13-5.18.42-4.92 4.5.89 4 4.73.94 7.28 2.12v-7.65c-1-2.27-3.21-1.71-5.26-1.74M488 171.39l-2.75.78L484 178l.66.26a11.27 11.27 0 0 0 1-1.47c.65-1.35.66-3.11 2.55-3.65.16-.05 0-1.12 0-1.72m120.48-44.6c-.34.42-1 .84-1 1.28v6.4c0 .59.56 1.16.95 1.92 3.36-1.9-.45-6.36 3.36-7.63 2 .58 1.11 2.21 1.28 3.41l.39 3.71h2a2.93 2.93 0 0 0 .13-.64v-4.61c0-3.3-1.44-4.36-4.62-3.62a7.67 7.67 0 0 1-2.3-.22M495.7 171.39l-3.25.76-1.29 6c3.38-.27 1.25-4.91 4.84-4.73l-.62 4.85c3.2-.87 1.32-3.74 3.14-5.31l-2.52-1.57m101.93-44.57c-3 2.63-3 2.63 1.75 6.85a10.72 10.72 0 0 1-2 .55 8.53 8.53 0 0 1-1.89-.3c.64 2.12.64 2.12 4.2 2.12 3-2.64 3-2.64-1.87-7l3.51-.89c-.61-2.11-2.25-1.16-3.44-1.37m-92.75 44.61c-.77.51-1.78.86-2.26 1.56-2 2.88-1.42 4.26 2 5.87h-3.49v1.66h3.83c2.54-2 2.69-5.22 3.35-8.38l-3.21-.71m80.48-44.57a7.68 7.68 0 0 0-1 2.31c-.13 2.21 0 4.43 0 6.78h2.37l-.6-9.09h-.49m-18.98 0c-4 2.82-4.13 6-.06 9.34a16.34 16.34 0 0 0 4.13-.71c1.51-.63 2.54-4.2 1.79-5.8s-2-3.19-4.32-2.84a9.11 9.11 0 0 1-1.28 0m-62 46.12c-1.77.71-1.69 2.09-1.42 3.62 2.73-.84 2.94-1.32 1.67-3.62m37.66-46.11l-1.44 1.8 4.55.27.15.63c-2.25 1.41-7.11.77-4.45 6.22l6.83.45v-5.27c0-3.28-.83-4.1-4.1-4.1h-1.28m-15.12 0c-.34.34-1 .67-1 1v6.92c0 .46.55.91.81 1.3 2.36-.05 1.59-1.71 1.7-2.84.17-1.64-.65-3.67 2-4.49 2.48 1.9 1.18 4.69 1.7 7.18h1.79v-7.34c-1.06-1.6-2.51-2.46-4.77-1.3-.47.24-1.34-.28-2-.45m-4.84.02c-.34.42-.95.84-1 1.28v6.4c0 .59.56 1.16.86 1.74l.89.31a5.42 5.42 0 0 0 .25-1l.22-7.94c0-.26-.64-.52-1-.77m-13.03-.02c-2.29.82-3.14 2.5-3.09 4.86a4.22 4.22 0 0 0 3.4 4.38l2.51-.67c0 1.84 0 1.84-5 2.46.92 3.26 3.62 1 5.31 2 4.44-3.63 1.63-8.56 2.79-13h-5.64m125.26 121.9a11.12 11.12 0 0 0-.49 2.3v29.33h4.93c.86-1.7 1.24-25.22.38-31.63h-4.54M499 126.82c-.35.34-1 .67-1 1v6.92c0 .46.56.91.81 1.3 2.37-.05 1.59-1.71 1.7-2.84.17-1.64-.65-3.67 1.74-4.4 2 1.47 1.91 1.2 1.86 7.09h1.92v-7.34c-1.06-1.6-2.51-2.46-4.77-1.3-.47.24-1.34-.28-2-.45m-4.84.02c-.34.42-.95.84-1 1.28a62.1 62.1 0 0 0 0 6.4c0 .59.56 1.16.75 1.54h.74c1.63-1.57 1.46-7.69-.25-9.21m-18.66-.01l-1.6.8.59.9 4.13.37.08.68c-1.87.87-4.71.44-5.18 3.15-.19 1.07.44 2.28.62 3.06h6.48c2-5.82.3-9-4.87-9m-42.8.04c-.34.42-1 .84-1 1.28v6.4c0 .59.55 1.16.86 1.77 3-1.83 1.22-4.34 1.58-6.39.18-1 .84-2.71-1.21-3.06m-19.45 0c-3.6 1-3.53 3.78-3.25 6.84l1.87 2.25h4.59V134c-2 .28-4 .09-4.33-2.84 1.22-2.26 1.22-2.26 4.33-2.26v-2.05h-2.95m212.13 122.92c-2.23 1.26-2.64 3-1.1 5.32 1.23.67 2.55 1.38 4.2.1a3.1 3.1 0 0 0 .92-3.6c-.48-1.76-2.12-2-3.76-1.82m-65.33.52a12.44 12.44 0 0 0-1.51 2.57l-7.74 25.08a6.92 6.92 0 0 1-1 1.6c1.66 1.94 3.78.47 5.7 1.12l2.91-8.29 8.94-.66 2.74 8.67h6.22l-2.4-7.3-6.16-19.46c-1.06-3.31-1.13-3.33-4.61-3.33h-2.84M407.32 126.82c-.35.34-1 .67-1 1v6.92c0 .46.56.91 1.11 1.76.6-.74 1.33-1.23 1.36-1.77a59 59 0 0 0 0-6.65c0-.45-.8-.86-1.23-1.28m335.12 123.49l-2.69.76v29.42c5.64 0 11.43.91 17-1.46 4.64-2 7-5.54 7.94-10.28a16.94 16.94 0 0 0-1.46-11.57 11.37 11.37 0 0 0-8.82-6.26c-3.85-.64-7.84-.44-11.76-.61m3.63 4.61c-1.47.4-1 1.61-1 2.56v18.18c7.23 2.19 13.76-2.43 13.83-9.73 0-6-2-9.32-6.93-10.69-1.77-.49-3.74-.24-5.62-.32M777 258a27.3 27.3 0 0 1-2.82.5c-3.77.27-4.64 1.58-3.33 5.14 8.3-2.16 8.45-1.07 10.27 2-1.92.38-3.68.63-5.4 1.09-3.25.86-6.15 2-7.28 5.84-.82 2.81.14 4.83 1.7 6.64s4.24 2.12 6.59 1.77c1.45-.22 2.78-1.21 4.31-1.92 1.2 2.48 3.48 1.15 5.62 1.6a14.55 14.55 0 0 0 .32-2.17l-.48-12.29c-.09-4.31-2.65-7.21-6.94-7.7a22.42 22.42 0 0 1-2.3-.5m-380.7-131.18l-.5 4.61c-.09 1.54 0 2.9 0 4.35 2.23.24 2.13.21 2.09-1.79a33.31 33.31 0 0 1 .52-4.43l2-.8c2.43 2-.33 5.5 2.79 8a5.42 5.42 0 0 0 .82-1.7 28.51 28.51 0 0 0 0-5.62c-.29-1.92-2.57-3-4.56-2.6a15.48 15.48 0 0 1-2.81 0m-8.04-.02c-2.44 1-3.31 2.89-3.06 5.37.17 1.75.91 3.2 2.81 3.57 1.68.33 3.46.9 5.48-1.11l-6.39-1.33c2.18-2.07 4.23-1.07 6.48-1.52l-1-4.45-4.07-.53m-8.19 0c-3.47 2.48-3.88 3.44-2.82 6.66.88 2.67 4.34 3.47 7.05 1.21l-4.51-1.33-.29-3.73 4.64-1.43c-1-2.09-2.62-1.13-3.84-1.38M816.46 258a19.16 19.16 0 0 0-3.32.54c-3.76 1.3-7.29 5.75-7.24 10 0 3.65.22 7 3.12 9.75 2.73 2.54 6.06 2.95 9.49 2.75a41.67 41.67 0 0 0 6-1.28l-.54-3.76c-2.39.16-4.69.45-7 .45-3.32 0-5.12-1.71-5.39-5h13.54c2.38-6.47-1-11.91-7.89-13-.2 0-.35-.32-.52-.49M295.1 126.82c-3.16 2.78-3.66 4.07-2.56 6.66a4.25 4.25 0 0 0 5.37 2.53c2.51-.7 3.49-2 3.34-5.09a3.91 3.91 0 0 0-3.84-4.09 20 20 0 0 0-2.05 0m-23.36-.01l-.49 4.61c-.09 1.54 0 2.9 0 4.48 1.91.42 2.47-.15 2.1-2.19a4 4 0 0 1 2.56-4.87c2.32 1.89-.43 5.41 2.69 7.86.34-.67.79-1.17.81-1.7a28.51 28.51 0 0 0 0-5.62c-.29-1.92-2.58-3-4.56-2.6a15.48 15.48 0 0 1-2.81 0m-4.3.03a7.44 7.44 0 0 0-1 2.31c-.14 2.21-.05 4.43-.05 6.65 2.22.24 2.17.21 2.07-1.79l-.05-6.15c0-.35-.48-.68-.74-1m-28.98-.02l-.49 4.61c-.09 1.54 0 2.9 0 4.35 2.22.24 2.14.21 2.09-1.79a33.1 33.1 0 0 1 .43-4.39l2-.84c2.43 2-.32 5.5 2.8 8 .33-.67.79-1.17.81-1.7a29.3 29.3 0 0 0 0-5.62c-.29-1.92-2.58-3-4.56-2.6a15.49 15.49 0 0 1-2.81 0m-4.88-.02c-1.91 2.89-.94 5.94-.58 9.09h2a2.37 2.37 0 0 0 .14-.64v-6.4c0-.94.22-2-1.27-2.05m481.62 135.25a6.2 6.2 0 0 0-4.82 4.14c1.11 1 1.11 1 8.4 1 .43-3.18 0-3.84-3.33-5.12M215.17 126.82l-1.6.8.59.9 4.28.39c-2 1.34-3.86 2.25-5.21 3.65-.45.46.36 2.16.58 3.22h6.48c2-5.82.3-9-4.87-9M816 262.07l-4.67 3.11.08.87c.68.38 1.4 1.15 2 1.07 2.32-.28 5 1.07 7-.93-.72-2.34-2-3.7-4.18-4.12m-135.55.51c-4.32 2.07-5.6 4.48-4.87 9.22a6 6 0 0 0 4.87 4.61 5.19 5.19 0 0 0 4.81-3.85 23.17 23.17 0 0 0 0-4.86c0-3-1.91-4.45-4.6-5.12M208.25 126.82l-3.25 2.63c-.15 2.43-.54 4.78 2 6a5 5 0 0 0 5.78-.64c-2.85-1.2-7.76-.91-4.27-5.72l3.91-.81c-1.11-2.21-2.68-1.25-3.9-1.5M610 270.27a6.27 6.27 0 0 0-1.53.52c-2.73 1.86-2.4 4.43.76 6.14 4.26-1.54 4.61-2 4.61-6.66h-3.59m44.81 0l-3.61 2.79.94 2.73c1.63 1.64 4 .87 6.51-1.94v-3.58h-3.58m122.2 0l-3.33 2.11c0 3.17 0 3.17 2.56 4.55 4.93-1.71 4.09-2.42 4.1-6.66h-3.07m-181.9 43.03c-2 .67-2.61 2.06-2.59 4.1v27.66c0 3.11 1 4.1 4.09 4.1h75.84c3.11 0 4.09-1 4.1-4.1V317.4c0-3.11-1-4.1-4.1-4.1h-77.09m124.77 0c-2 .67-2.61 2.06-2.59 4.1v27.66c0 3.11 1 4.1 4.1 4.1h76.89c3.11 0 4.09-1 4.1-4.1V317.4c0-3.11-1-4.1-4.1-4.1h-78.14m-124 1.02c-2.32.56-2.85 2.21-2.84 4.36v25.1a26 26 0 0 0 .59 3.73 29.94 29.94 0 0 0 4.25.6q36.12.06 72.25 0a37.11 37.11 0 0 0 4.23-.54 32.1 32.1 0 0 0 .61-4.31q.08-12 0-24.08a36.89 36.89 0 0 0-.53-4.23 30.77 30.77 0 0 0-4.31-.61q-37 0-74.05 0m124.82-.02c-2.32.56-2.85 2.21-2.83 4.36v25.1a26.11 26.11 0 0 0 .6 3.73 29.81 29.81 0 0 0 4.24.6q36.64.06 73.28 0a37.11 37.11 0 0 0 4.23-.54 32.1 32.1 0 0 0 .61-4.31q.07-12 0-24.08a39.27 39.27 0 0 0-.53-4.23 30.77 30.77 0 0 0-4.31-.61q-37.54 0-75.07 0m-93.99 10.23l-3.9 2.59c.24 2.55-.64 5 2 7.21l4 .61c4.3-3.79 4.38-6.89.13-10.41h-2m.54-199.8l-2.27 2.49a41.07 41.07 0 0 1 .71 4.43c.2 3.72 1.11 4.57 5.16 4l-2.57-2.65v-3.43l2.2-1.91-3-3M754 324.57c-4.72 2.32-5.16 6.57-1 10 4.16.57 6.17-.58 6.41-3.58.35-4.4-.82-6.56-5.13-6.41M591.27 124.77l-2.67 3h.64a28.71 28.71 0 0 1 1 4.69c.14 3.87.06 3.88 4.57 3.27-2.72-2.76-3.93-5.57-.34-8.08l-2.91-2.87m-260.08-.01l-2.27 2.49a43.72 43.72 0 0 1 .71 4.43c.2 3.72 1.11 4.57 5.16 4l-2.57-2.65v-3.38l2.19-2-3-3m101.75-1.43l-1.54 1.92h3.76l-2-1.92m174.51 201.85c-3.3 1.37-3.19 6.35-1.5 8.94 1.08 1.64 4 .92 5.1-1s.77-4 .38-5.87a2.91 2.91 0 0 0-3.73-2.08m8.2.01l-2.9 1.48 2.64 1.4v6.88l.64.27c.47-.61 1.3-1.19 1.35-1.83a43.42 43.42 0 0 0 0-6.65c0-.55-1-1-1.46-1.55m116.81 0a6.9 6.9 0 0 0-1.81 7.7c.74 1.84 2 2.37 3.94 2 2.66-2.37 2.92-4 2-7.13-.63-2.28-2-2.66-3.91-2.54M407.32 123.23l-1.54 1.92h3.76l-2-1.92m253.46-.51a12 12 0 0 0-1 3.07c-.12 3.33 0 6.66 0 10.12h2.43v-13.19h-1.15m125.46 202.36l-2.82 1.4 2.55 1.65c.7 1.82-1 4.58 1.24 7.33a11.49 11.49 0 0 0 .8-2.44v-5.89c0-1.07-.06-2.09-1.54-2.05M577.94 122.72l-2 2.32a15.46 15.46 0 0 0-1.12 1.89l.62 6.8a4.87 4.87 0 0 0 1.11 2.45c2.38-1.91.88-4.43 1.62-6.76l2.58-1.73-3.41-1.69 3.5-2.54-.33-.74h-2.31m-21.26 0a5 5 0 0 0-.49 1.54v11.65h1.92v-13.19h-1.15m-4.9 0c-.34.6-1 1.19-1 1.79-.1 3.76-.05 7.52-.05 11.4h2.43v-13.19h-1.15m-263.55 0c-2 .84-.54 2.6-1.17 4h-3.07l-2.93 2.92v2.59c-.27 3.26 2.37 4.13 4.62 3.84l3.55-.34a2.66 2.66 0 0 0 .52-1.2v-10c0-.61-.79-1.19-1.22-1.79m339.63 203.62c1.89 0 2.63 1.25 2.78 2.83a3.84 3.84 0 0 1-2.21 4.19c-1.67-.51-3-1.14-2.89-3.17.08-1.58-.23-3.31 2.06-3.59m126.33-.51c-3.61 2.58-3.77 4.78-.05 7.52.76-.86 2-1.64 2.26-2.68.48-1.89.21-3.84-2-4.84m-145.75.51c-2.62 2.06-2.62 4.6 0 6.71a5.56 5.56 0 0 0 .2-6.45m125.08-.26c-2.07 2.42-2.12 3.69-.26 6.66 2.34-1.85 2.51-4 .51-6.66m-96.33.51c-3.57 1.43-4.51 3.19-3.35 5.9 1 2.44 3.12 1.59 5 1.83v-.92c-1.23-.78-3-1.27-3.33-2.24-.93-2.84 2.66-1.95 3.66-3.6l-1.74-1m-11.25-221.29l-1 1.8 2.44 1.15v-3h-1.19m-32.02 257.75c-2 .66-2.61 2.06-2.59 4.1v26.64c0 3.1 1 4.09 4.09 4.09q37.92 0 75.84 0c3.11 0 4.09-1 4.1-4.09v-26.64c0-3.11-1-4.1-4.1-4.1h-77.09m124.77 0c-2 .66-2.61 2.06-2.59 4.1v26.64c0 3.1 1 4.09 4.1 4.09q38.43 0 76.86 0c3.11 0 4.09-1 4.1-4.09v-26.64c0-3.11-1-4.1-4.1-4.1h-78.11m-124 1.02c-2.32.56-2.85 2.21-2.84 4.36v24.08a26.38 26.38 0 0 0 .59 3.73 31.39 31.39 0 0 0 4.25.59q36.12.06 72.25 0a36.89 36.89 0 0 0 4.23-.53 32.24 32.24 0 0 0 .61-4.32q.08-11.52 0-23.05a36.62 36.62 0 0 0-.53-4.23 30.77 30.77 0 0 0-4.31-.61q-37-.06-74.05 0m124.82-.02c-2.32.56-2.85 2.21-2.83 4.36v24.08a26.56 26.56 0 0 0 .6 3.73 31.25 31.25 0 0 0 4.24.59q36.64.06 73.28 0a36.89 36.89 0 0 0 4.23-.53 32.24 32.24 0 0 0 .61-4.32q.07-11.52 0-23.05a39 39 0 0 0-.53-4.23 30.77 30.77 0 0 0-4.31-.61q-37.54-.06-75.07 0m-93.99 9.2l-3.9 2.59c.24 2.55-.64 5 2 7.21l4 .61c4.3-3.79 4.38-6.89.13-10.41h-2m125.36 0c-4.72 2.32-5.16 6.58-1 10 4.16.57 6.17-.58 6.41-3.58.35-4.4-.82-6.55-5.13-6.41M520.3 105.3c-1.7 1.35-1.83 3.17-1.78 5.34 2.56-.64 2.06-3 3.33-4.37l-1.29-1m87.62 269c-3.3 1.36-3.15 6.32-1.5 8.94.82 1.31 4 1.14 4.79-.26a8.28 8.28 0 0 0 .51-6.88c-.53-1.6-1.92-2.08-3.55-1.8m5.89-270l-1.53 1.92c1.86.19 3.2.49 3.06-1.92h-1.27m-18.7 509.25c-2 .66-2.61 2.06-2.59 4.1v26.64c0 3.1 1 4.09 4.09 4.09h75.84c3.11 0 4.09-1 4.1-4.09v-26.64c0-3.11-1-4.1-4.1-4.1h-77.09m124.77 0c-2 .66-2.61 2.06-2.59 4.1v26.64c0 3.1 1 4.09 4.1 4.09h76.89c3.11 0 4.09-1 4.1-4.09v-26.64c0-3.11-1-4.1-4.1-4.1h-78.14"/><use xlink:href="#G"/><path d="M628.93 375.55c1.89 0 2.63 1.25 2.78 2.82a3.84 3.84 0 0 1-2.21 4.19c-1.67-.51-3-1.13-2.89-3.17.08-1.58-.23-3.31 2.06-3.59m126.33-.51c-3.61 2.58-3.77 4.79-.05 7.52.76-.85 2-1.64 2.26-2.68.48-1.88.21-3.84-2-4.84M478 104.27l-1.54 1.92c1.86.19 3.2.49 3.06-1.92h-1.27M609.46 375.8c-2.62 2.06-2.62 4.6 0 6.71a5.56 5.56 0 0 0 .2-6.45M444.21 104.27l-1.53 1.92c1.86.19 3.19.49 3.05-1.92h-1.26m152.69 510.27c-2.32.56-2.85 2.21-2.84 4.36v24.08a26.38 26.38 0 0 0 .59 3.73 31.39 31.39 0 0 0 4.25.59q36.12.06 72.25 0a36.89 36.89 0 0 0 4.23-.53 32.24 32.24 0 0 0 .61-4.32q.08-11.52 0-23.05a36.89 36.89 0 0 0-.53-4.23 30.77 30.77 0 0 0-4.31-.61q-37-.06-74.05 0m124.82-.02c-2.32.56-2.85 2.21-2.83 4.36v24.08a26.56 26.56 0 0 0 .6 3.73 31.25 31.25 0 0 0 4.24.59q36.64.06 73.28 0a36.89 36.89 0 0 0 4.23-.53 33.94 33.94 0 0 0 .61-4.32q.07-11.52 0-23.05a39.27 39.27 0 0 0-.53-4.23 30.77 30.77 0 0 0-4.31-.61q-37.54-.06-75.07 0m-93.99 9.2l-3.9 2.59c.24 2.55-.64 5 2 7.21l4 .61c4.3-3.79 4.38-6.89.13-10.41h-2m125.36 0c-4.72 2.32-5.16 6.58-1 10 4.16.57 6.17-.58 6.41-3.58.35-4.4-.82-6.55-5.13-6.41M381.7 104.27l-1.54 1.92c1.86.19 3.2.49 3.06-1.92H382m-154.53 0l-1.54 1.92c1.86.19 3.2.49 3.06-1.92h-1.27M734.74 375.8c-2.07 2.42-2.12 3.69-.26 6.66 2.34-1.85 2.51-4 .51-6.66m-.51 248.48l-2.82 1.39 2.54 1.65c.7 1.82-1 4.58 1.24 7.33a10.53 10.53 0 0 0 .8-2.43v-5.89c0-1.08-.07-2.09-1.54-2.05m8.75 0c-2.05 1.9-3.78 4-4.3 7.17h3.93l.73 3.27 2.38-3.45q-.72-3.51-1.45-7h-1m7.39-523.07a2.41 2.41 0 0 0-1.46 3c.29.82 1.29 1.92 2 1.92s1.79-1.12 2-1.91c.33-1.55-.06-3.07-2.21-3.06"/><use xlink:href="#G" y="250.01"/><path d="M628.93 625.56c1.89 0 2.63 1.25 2.78 2.82a3.84 3.84 0 0 1-2.21 4.19c-1.67-.5-3-1.13-2.89-3.17.08-1.57-.23-3.31 2.06-3.59m78.91-524.61a2.4 2.4 0 0 0-1.46 3c.28.82 1.29 1.92 2 1.92s1.8-1.12 2-1.91c.32-1.55-.07-3.07-2.21-3.06m-69.25 275.17c-3.72 1.48-4.34 2.76-3.37 5.65 1 3 3.3 1.64 5.17 2.13v-.9c-1.36-.86-3.15-1.35-3.46-2.32-.93-2.84 2.66-1.95 3.66-3.6l-1.74-1M755 625.3c-3.61 2.58-3.77 4.79-.05 7.52.76-.85 2-1.64 2.26-2.68.48-1.88.21-3.84-2-4.84m-61.98-524.1c-2 2.14-2.05 2.25 0 5.58l2.91-2.82c-1-1.16-.62-3.07-2.68-2.76m-54.8 525.13c-3.57 1.42-4.51 3.19-3.35 5.9 1 2.43 3.12 1.58 5 1.82v-.92c-1.23-.78-3-1.27-3.33-2.23-.93-2.84 2.66-2 3.66-3.61l-1.74-1m18.98-525.09a2.4 2.4 0 0 0-1.46 3c.28.82 1.29 1.92 2 1.92s1.79-1.12 2-1.91c.32-1.55-.07-3.07-2.22-3.06M288.44 512.59c-1.5.7-1.34 1.7-.28 2.95h2.71v-2.71l-2.17-.24m307.18-98.88c-2 .67-2.61 2.06-2.59 4.1v26.64c0 3.11 1 4.1 4.09 4.1h75.84c3.11 0 4.09-1 4.1-4.1v-26.64c0-3.1-1-4.09-4.1-4.09h-77.09m124.77-.01c-2 .67-2.61 2.06-2.59 4.1v26.64c0 3.11 1 4.1 4.1 4.1h76.89c3.11 0 4.09-1 4.1-4.1v-26.64c0-3.1-1-4.09-4.1-4.09h-78.14m-124 1.02c-2.32.56-2.85 2.2-2.84 4.35v24.08a26 26 0 0 0 .59 3.73 29.94 29.94 0 0 0 4.25.6q36.12.06 72.25 0a37.11 37.11 0 0 0 4.23-.54 32.1 32.1 0 0 0 .61-4.31q.08-11.52 0-23.05a36.77 36.77 0 0 0-.53-4.24 32.23 32.23 0 0 0-4.31-.6q-37-.06-74.05 0m124.82-.02c-2.32.56-2.85 2.2-2.83 4.35v24.08a26.11 26.11 0 0 0 .6 3.73 29.81 29.81 0 0 0 4.24.6q36.64.06 73.28 0a37.11 37.11 0 0 0 4.23-.54 32.1 32.1 0 0 0 .61-4.31q.07-11.52 0-23.05a39.12 39.12 0 0 0-.53-4.24 32.23 32.23 0 0 0-4.31-.6q-37.54-.06-75.07 0M647.63 101.2a2.4 2.4 0 0 0-1.46 3c.28.82 1.29 1.39 2 2.07.69-.68 1.8-1.27 2-2.06.32-1.55-.07-3.07-2.21-3.06m-117.16.05c-1.82.63-1.81 2.25-1.45 3.56a2 2 0 0 0 3.13 1.29l1-2.38c-.77-.87-.36-2.78-2.42-2.47M628.41 424l-3.9 2.59c.24 2.55-.64 5 2 7.21l4 .61c4.3-3.79 4.38-6.89.13-10.41h-2M754 424c-4.72 2.32-5.16 6.57-1 10 4.16.56 6.17-.58 6.41-3.58.35-4.4-.82-6.56-5.13-6.41m-146.1.46c-3.3 1.37-3.18 6.35-1.5 8.94 1 1.54 4.48 1.06 5-.76a14.26 14.26 0 0 0 .47-6.11 2.89 2.89 0 0 0-3.72-2.07m6.92 0c-2.15 1-.34 3-1.31 4.41l3.89 1.42c-.73 2.37-.73 2.37-4 2.37v1.6a24.8 24.8 0 0 0 4-.36 2.79 2.79 0 0 0 2.07-3c0-1.62-1-2.31-2.32-2.82l-1.94-.67v-.88l3.7-.76v-1.28h-3.84m118.11-.03a6.9 6.9 0 0 0-1.81 7.7c.74 1.84 2 2.37 3.94 2 2.51-2.24 2.85-4.14 2-7.12-.62-2.29-2-2.68-3.91-2.55M595.88 663.73c-2 .66-2.61 2-2.59 4.09v26.64c0 3.11 1 4.1 4.09 4.1h75.84c3.11 0 4.09-1 4.1-4.1v-26.64c0-3.1-1-4.09-4.1-4.09h-77.09"/><path d="M597.16 664.75c-2.32.56-2.85 2.21-2.84 4.35v24.08a26 26 0 0 0 .59 3.73 29.94 29.94 0 0 0 4.25.6q36.12.06 72.25 0a37.11 37.11 0 0 0 4.23-.54 32.1 32.1 0 0 0 .61-4.31q.08-11.52 0-23a36.77 36.77 0 0 0-.53-4.24 32.23 32.23 0 0 0-4.31-.6q-37-.06-74.05 0"/><path d="M628.41 674l-3.9 2.59c.24 2.55-.64 5 2 7.21l4 .61c4.3-3.79 4.38-6.89.13-10.41h-2M512.36 101.2c-2.16 2-2.16 3.07 0 5.13 2.13-.37 2.08-1.94 2.07-3.59 0-1.33-.7-1.63-1.82-1.54m102.74 573.28c-2.15 1-.34 3-1.31 4.41l3.89 1.42c-.73 2.37-.73 2.37-4 2.37v1.55c2-.25 4.57.91 5.75-2.07 1.48-3.72-2.27-3.62-4-5l.06-.66 3.7-.76v-1.28h-3.84m171.14-249.99l-2.82 1.4 2.55 1.65c.7 1.81-1 4.58 1.24 7.33a11.67 11.67 0 0 0 .8-2.44v-5.89c0-1.07-.06-2.09-1.54-2M423.71 101.2l-1.71 2.33 1.13 2.67h2.59c1.22-3.56.76-4.8-1.75-5m204.96 574.56c1.89 0 2.63 1.25 2.78 2.83a3.84 3.84 0 0 1-2.21 4.19c-1.67-.51-3-1.14-2.89-3.17.08-1.58-.23-3.31 2.06-3.59M344.29 101.2a2.4 2.4 0 0 0-1.46 3c.29.82 1.29 1.39 2 2.07.69-.68 1.8-1.27 2-2.06.33-1.55-.06-3.07-2.21-3.06m284.31 324.6c1.89 0 2.63 1.25 2.78 2.83a3.84 3.84 0 0 1-2.21 4.19c-1.67-.51-3-1.14-2.89-3.17.08-1.58-.23-3.31 2.06-3.59m-32.79 87.09c-2 .67-2.61 2.06-2.59 4.1v27.67c0 3.1 1 4.09 4.09 4.09h75.84c3.11 0 4.09-1 4.1-4.09V517.2c0-3.1-1-4.09-4.1-4.09h-77.09m42.53 163.42c-3.57 1.43-4.51 3.19-3.35 5.9 1 2.44 3.12 1.59 5 1.83v-.92c-1.23-.78-3-1.27-3.33-2.24-.93-2.84 2.66-2 3.66-3.6l-1.74-1m82-163.4c-2 .67-2.61 2.06-2.59 4.1v27.67c0 3.1 1 4.09 4.1 4.09h76.89c3.11 0 4.09-1 4.1-4.09V517.2c0-3.1-1-4.09-4.1-4.09h-78.14M755 425.5c-3.61 2.57-3.77 4.78-.05 7.52.76-.86 2-1.64 2.26-2.68.48-1.89.21-3.85-2-4.84m-145.75.5c-2.62 2.06-2.62 4.6 0 6.71a5.56 5.56 0 0 0 .2-6.45m125.08-.26c-2.07 2.42-2.12 3.69-.26 6.66 2.34-1.85 2.51-4 .51-6.66m-521.1 308.42l-1.67.69v8.58c1.81-.33 3.95.76 5.52-1.4l-.37-6.39-3.23-1.48m16.4 0l-.49 4.62c-.09 1.54 0 2.9 0 4.48h1.53v-8.58c0-.18-.48-.34-.73-.52m10.45 0c-.34.43-1 .85-1 1.29v7.34c4 1.37 5.32.85 6.66-2.48-.66-2.15-1.28-4.36-4.25-3.51l-1.13-2.64m69.15 0l-2.56.86v7.85c3.65 1.26 5.77.48 6.92-2.56s-.2-5.2-3.33-5.65c-.28 0-.52-.32-.77-.5m8.45 0l-3.05 1.78.91 2.84 3 1.69c-.52 2.37-2.61.79-4 1.83 1.67 1.75 3.43 1.14 5.26.55l.9-2.61-4.25-3.61 3.64-1v-.61l-2.14-.83M283.83 101.2l-1.71 2.33 1.12 2.67h2.59c1.23-3.56.77-4.8-1.74-5m124.25 633.22l-1.47 2.38c-3.05.44-4.07 1.66-3.65 4.8.27 2.07 1.26 2.38 5.89 1.76v-8.94h-.49m35.38 0l-4.22 2.28v4.62l2 2.2h4.5l.15-.67a9.85 9.85 0 0 0-2.47-.7c-2-.06-2.32-1.21-2.32-2.86s.34-2.81 2.32-2.85a11.34 11.34 0 0 0 2.44-.57v-.62l-2.15-.83m11.23 0c-.34.43-1 .85-1 1.29v6.65c0 .48.53.94.8 1.4h.62l1.17-5.34h.93l1.18 5.68c2.73-2 0-4.1 1.28-6l-3.76-1.38-1-2.25M263.33 101.2c-2.15 2-2.15 3.07 0 5.13 2.13-.37 2.08-1.94 2.07-3.59 0-1.33-.7-1.63-1.82-1.54m264.66 633.22c-.34.43-1 .85-1 1.29v7.34c5 1.74 6.15.83 6.15-5.25l-3.91-1.13-1-2.25M237.71 101.2a2.06 2.06 0 0 0-1.49 2.55 5.68 5.68 0 0 0 1.56 2.5c.26.22 1.66-.26 1.9-.73a4.48 4.48 0 0 0 .48-3c-.17-.6-1.42-.88-2.19-1.31m-75.07-.01c-1.64 2.59-1.51 3.45.83 5.17 1.59-.46 1.9-1.64 1.74-3.12a2 2 0 0 0-2.31-2m538.01 633.17l-2.3.77c-1.27 2.58-1.15 3 1 4.63a19.92 19.92 0 0 1 1.83 1.73l-.27.56h-3.81c1.63 2 2.9 2 5.9.34l-.34-2.69-3.47-2.82.14-.47H703l.2-.58-1.78-1.47M582.81 100.94c.82.26 2.12 0 1.76 1.67h-3.47l1.46-1.41m-326.4 633.74c-1 2.33 1 1.23 1.89 1.66.84 2.17-.82 4.94 1.16 7.42 1.9-2.45.6-5 1.13-7.24l2.11-1.07-.12-.77h-5.91m300.26-634c.82.26 2.12 0 1.75 1.67H555l1.46-1.41m82.2 325.32c-3.57 1.43-4.51 3.19-3.35 5.9 1 2.44 3.12 1.59 5 1.83v-.92c-1.23-.78-3-1.27-3.33-2.24-.93-2.84 2.66-1.95 3.66-3.6l-1.74-1m-41.74 87.64c-2.32.56-2.85 2.2-2.84 4.35v25.11a26.38 26.38 0 0 0 .59 3.73 33.13 33.13 0 0 0 4.25.6q36.12 0 72.25 0a36.89 36.89 0 0 0 4.23-.53 32.24 32.24 0 0 0 .61-4.32q.08-12 0-24.07a36.77 36.77 0 0 0-.53-4.24 34 34 0 0 0-4.31-.61q-37 0-74.05 0M385.8 734.94c-2.27 2.47-2.36 5.65-3.34 8.54l.94.48 2.05-2.75H387l2.16 2.77.93-.47-2.59-8c-.11-.31-1-.36-1.48-.53m336.16-220.85c-2.32.56-2.85 2.2-2.83 4.35v25.11a26.56 26.56 0 0 0 .6 3.73 33 33 0 0 0 4.24.6q36.64 0 73.28 0a36.89 36.89 0 0 0 4.23-.53 32.24 32.24 0 0 0 .61-4.32q.07-12 0-24.07a39.12 39.12 0 0 0-.53-4.24 34 34 0 0 0-4.31-.61q-37.54 0-75.07 0M558.22 734.94a5.32 5.32 0 0 0-2.31 7.17 3 3 0 0 0 5.12.26c1.68-2.63.28-6.69-2.56-7.43M758.82 99.15c-.34.43-1 .84-1 1.28v6.4c0 .6.55 1.17 1 2 3.34-2-.53-6.24 3.31-7.51 2.95 1.45-.11 5.41 2.43 7.38 3.12-1.92-.19-5.8 2.55-7.59 2 1.5 2 1.5 2 7.19H771v-7.19c-2.16-2.43-2.91-2.57-4.54-1.4h-5.32a10.72 10.72 0 0 1-2-.49m-9.03-.07c-2.46 1.45-3.66 3.74-3.08 5.89.71 2.62 2 3.33 6.41 3.33 1.53-1.66 3.79-3 2.34-6.16-1.22-2.66-1.66-3.06-5.42-3.06m-8.45 0c-1.68 2.48-.93 5.28-.93 7.94 0 .56 1.23 1.11 1.89 1.66l.58-.36c0-1.46-.37-3 .1-4.34.54-1.48 1.82-2.69 2.8-4l-.42-.6-3.76-.25m-26.9-.05c-2 2.73-1.2 5.57.12 8.13.39.76 2.25.89 3.47 1a19.24 19.24 0 0 0 3.58-.3v-8.8c-2.41-.26-2 1.28-2.06 2.53-.08 1.73.57 3.76-1.78 4.72-2-.75-1.71-2.38-1.84-3.94-.1-1.17.91-2.89-1.24-3.34m-101.2 635.79l-3.07 7.68.65.73 2.57-3.22 3.75 4c.73-3.53-1.47-6-1.88-9.14h-1.76m91.98-635.84c-3.17 2.79-3.67 4.08-2.57 6.66a4.24 4.24 0 0 0 5.37 2.53c2.51-.7 3.49-2 3.34-5.09a3.91 3.91 0 0 0-3.84-4.09c-.68-.06-1.37 0-2.05 0m-26.9-.01c-1.86 2.63-1.1 5.42-.52 8.2a5.18 5.18 0 0 1 0 .9h1.88c.94-2.17-1.23-5.37 1.85-7.19 3.72 1.42.33 5.71 3.41 7.77 1.94-3.21.93-6.06-.15-9.48l-4.17.28a8.36 8.36 0 0 1-2.05-.48M234.13 736a2.86 2.86 0 0 0-.82 3.35 24.86 24.86 0 0 1 .5 4.08h2.88c-2.12-3-2.12-3.71.16-5.51l-2.47-1.92"/><use xlink:href="#H"/><path d="M656.85 99.15c-2.19 1.39-3.32 3.19-2.57 5.9s2.42 3.74 5.13 3.32c2.46-.37 3.67-2 3.59-4.86s-1.45-4.19-4.1-4.35h-1.79M613 99.15l-1.82 1.79 4.67.29.18.65c-2.52 1.19-6.86 1-4.5 6.19l6.85.46v-4.77c0-4-.67-4.61-5.12-4.61m25.4 477.99c-3.72 1.49-4.34 2.77-3.37 5.65 1 3.06 3.3 1.65 5.17 2.14V584c-1.36-.86-3.15-1.35-3.46-2.32-.93-2.84 2.66-2 3.66-3.6l-1.74-1M596.39 99.15c-.34.43-1 .84-1 1.28v6.4c0 .6.56 1.17 1.1 2.23 2.26-2.28 1-4.62 1.51-6.52l3.26-3.18-4.63-.21M690.16 736l-1.49.82.69.75c.51-.24 1.91.63 1-1.31M755 576.12c-3.61 2.58-3.77 4.78-.05 7.52.76-.86 2-1.64 2.26-2.68.48-1.89.21-3.84-2-4.84M582 99.15c-3 1.85-3 1.85-3 6.75l2.16 2.6c2-.48 4 .63 6.16-1.51l-5.87-1.22v-.94l5.48-.78c.42-3.37-1-4.9-4.64-4.9m-26.38 0c-3.69 2.16-4.32 6.43-1.28 8.71 1.24.93 4.5.65 6.36-.9l-5.7-1.19.05-.86 5.46-.84c.43-3.39-.95-4.92-4.63-4.92m72.76 477.23c1.89 0 2.63 1.25 2.78 2.82a3.84 3.84 0 0 1-2.21 4.19c-1.67-.51-3-1.14-2.89-3.17.08-1.58-.23-3.31 2.06-3.59m-318.2 159.84l-.75 5.32c2.22 1 2.86-.68 3.83-1.49 0-3.39-.16-3.59-2.82-3.83m247.74 0c-1.46 1.76-1.46 3.88.25 5.94 1-2.13 1.31-4 0-5.94m97.62 0c-1.91 1.63-.85 3.54-.68 5.83a6.84 6.84 0 0 0 2.43-.75 4.25 4.25 0 0 0 1.28-2.27c.31-1.83-.56-2.61-2.77-2.81m-407.87.53l-1.29.74 2 5.25-1.7 2.83.74.5c3.79-1.42 3.42-5.7 5.2-8.51l-1.57-1-1.59 4.24-1.52-3.81m15.61-.24l-3 3c1.66 4 1.24 3.85 5.85 3.35l.18-.54-4-1.27 4.59-1.47c-1.09-1.69-1.3-3.52-3.37-3.12m284.39-637.8c-1.91 2.89-.94 5.94-.58 9.1h2a2.37 2.37 0 0 0 .14-.65v-6.4c0-1-.07-1.86-1.29-2M539 99.15c-.34.51-.93 1-1 1.54a35.45 35.45 0 0 0 0 4.61c.09 2.12 1.47 3.22 3.57 3.09 1.45-.09 2.91 0 4.66 0-.52-3.08.86-6.35-1-9.6-3.35 1.9.46 6.36-3.3 7.61-1.92-.34-1.13-1.82-1.36-2.87-.32-1.48 1-3.45-1.26-4.36m-9.53-.02c-4.06 2.38-4.25 5.9-.8 9h4.26v3.71h2.18V99.15H530m-18.67 0c-2.29.82-3.14 2.51-3.09 4.87a4.23 4.23 0 0 0 3.4 4.38l2.51-.68c0 1.84 0 1.84-5 2.47.92 3.25 3.62 1 5.16 1.87 2.73-2.43 3.68-8.24 2.16-12.68l-4.86-.23m-12.61 0c-1.87 2.63-1.11 5.42-.52 8.2a5.34 5.34 0 0 1 0 .9h1.89c.94-2.17-1.24-5.37 1.84-7.19 3.73 1.42.34 5.71 3.34 7.72 1.85-2.08 1.32-4.3.82-6.29-.93-3.78-1.06-3.72-5.08-2.87-.62.13-1.36-.3-2-.47M365.56 737c-1.8.92-2.69 2.18-2.09 4.36.73 2.65 2.68 2.39 4.78 2.25v-1.4l-3-.24v-.61l3.38-.62c.42-3.12.13-3.5-2.8-3.74M494.42 99.15c-.34.43-.95.84-1 1.28a62.11 62.11 0 0 0 0 6.4c0 .6.56 1.17.87 1.77 3-1.82 1.22-4.33 1.58-6.39.18-1 .83-2.71-1.21-3.06m-18.17 0l-1.44 1.8 4.54.28.16.63c-2.25 1.41-7.12.76-4.45 6.21l6.83.46v-5.28c0-3.27-.83-4.1-4.1-4.1h-1.28M393.23 737c-.77.85-2 1.61-2.22 2.58-.67 3.25.73 4.33 4.81 3.78l-4-3.2 3.78-2.23c.25-1.64-1.26-.73-2.09-.93m69.66-637.85c-3.49 3.07-3.76 4.24-2.08 7.44 1.21 2.31 3.29 1.77 5.15 1.71.63 0 1.23-.85 2.25-1.61l-5.92-.91v-.91l5.47-.78c.54-4-.35-4.94-4.64-4.94M413.21 737c-1.95 1-3.06 3.27-2.28 5.11 1.08 2.56 3.31 1.2 5 1.6l.26-.86-3.78-1.2v-.3h3.34c.52-3.85.52-3.85-2.27-4.35m42-637.85c-.34.43-1 .84-1 1.28v6.4c0 .6.56 1.17.86 1.75h.83a8.42 8.42 0 0 0 .78-2.47c0-2.18-.15-4.31 2.34-5.42.25-.11.24-.8.37-1.32l-3.94-.18m-13.05-.04l-1.44 1.8 4.55.28.15.63c-2.25 1.41-7.12.76-4.45 6.22l6.57.35c.71-8 .61-9.7-5.12-9.28m-11.53 0l-.5 4.61c-.1 1.54 0 2.91 0 4.49h2.05c0-2.86-.55-6.22 3.86-8a14.1 14.1 0 0 0-2.59-1.07 14.45 14.45 0 0 0-2.55 0m-8.73-.03c-4.15 3-4.22 5.73-.14 9.32a14.65 14.65 0 0 0 3.46-.4c2.19-.78 3.2-3.32 2.58-5.84-.49-2-2.08-3.07-4.36-3.08h-1.28m172.68 364.77c-2 .67-2.61 2.06-2.59 4.1v26.64c0 3.11 1 4.1 4.09 4.1h75.84c3.11 0 4.09-1 4.1-4.1V468c0-3.11-1-4.1-4.1-4.1h-77.09M393.48 99.15c-1.86 2.63-1.1 5.42-.52 8.2a5.18 5.18 0 0 1 0 .9h1.89c.93-2.17-1.24-5.37 1.84-7.19 3.72 1.42.33 5.71 3.15 7.59 2.24-1.75 1.47-4.1 1.21-5.9-.51-3.5-1.49-3.83-5.28-3.13a5.43 5.43 0 0 1-2-.47"/><use xlink:href="#H" x="-286.43"/><path d="M512.1 737c-2.09.29-2.16 2.17-2.88 3.44 1.51 3.65 1.09 3.46 5.7 3l.19-.55-3.79-1.2v-.3h3.33c.52-3.85.52-3.85-2.27-4.35M380.16 99.15l-1.6.8.59.9 4.13.38.08.69c-1.86.78-4.49.51-5.16 2.89-.28 1 .38 2.24.61 3.31h6.47c2-5.83.3-9-4.86-9M537.21 737c-2 1-3.06 3.27-2.28 5.11 1.08 2.56 3.3 1.2 5 1.6l.26-.86-3.78-1.2v-.3h3.34c.52-3.85.52-3.85-2.28-4.35M362.23 99.15l-.5 4.61c-.09 1.54 0 2.91 0 4.49h1.88l.58-6.29 2.1-.86c2.43 2-.33 5.5 2.47 7.69 2-2.11 1.05-4.51 1.05-6.56 0-1-1.08-2.24-2-3-.5-.42-1.65-.08-2.5-.08h-2.82m-10.49 0c-2 2.73-1.2 5.57.12 8.13.39.76 2.25.89 3.47 1a19.17 19.17 0 0 0 3.58-.3v-8.8c-2.41-.26-2 1.28-2 2.53-.08 1.73.56 3.76-1.78 4.72-2-.75-1.72-2.38-1.85-3.94-.1-1.17.92-2.89-1.24-3.34m-8.78 0c-2 .77-3.28 2.08-3.33 4.36 0 1.8.3 3.38 2.05 4.36 1.57.88 4.32.78 5.61-.55a4.55 4.55 0 0 0 1.33-4.85c-.72-2.15-1.83-3.63-4.38-3.32a8.68 8.68 0 0 1-1 0m-17.95 0c-2.12 3-.85 6.13-.49 9.18 2.13.29 2-1 2-2.26.06-1.59-.52-3.35 1-4.6a3.22 3.22 0 0 1 1-.35c2.39 2-.36 5.48 2.25 7.53 3-1.87-.49-6 2.89-7.49 3.17 1.56.11 5.52 2.9 7.68 1.91-2.49 1.29-4.82.69-7.13s-2.06-3.12-4.09-2.53c-.56.16-1 .68-1.53.46l-3.86-.24-2.56-.25m-42.99 0l-3.88 4.23 3.16 5.15a19.14 19.14 0 0 0 4-.46c2.16-.76 3-2.89 2.58-5.59-.34-2-1.95-3.28-4.35-3.33h-1.28M706.81 737c-1.83 1-2.72 2.17-1.9 4.64 1 3 3 1.67 4.72 2.08v-1.5l-3.14-.25v-.61l3.38-.62c.43-3.12.13-3.5-2.79-3.74m6.92.24l.91.29-2.3 5.6h-.78v-5.63h1.92M262.31 99.15c-2.3.82-3.15 2.51-3.1 4.87a4.23 4.23 0 0 0 3.4 4.38l2.52-.68c0 1.84 0 1.84-5 2.47.92 3.25 3.62 1 5.16 1.87 2.73-2.43 3.68-8.24 2.15-12.68l-4.86-.23m-12.58 0c-1.86 2.63-1.1 5.42-.52 8.2a5.18 5.18 0 0 1 0 .9h1.86c1.06-2.14-1.34-5.41 1.88-7.19 3.71 1.42.32 5.71 3.33 7.72 1.84-2.08 1.31-4.3.82-6.29-.93-3.78-1.07-3.72-5.08-2.87-.62.13-1.36-.3-2-.47m536.45 475.94l-2.82 1.4 2.55 1.65c.7 1.82-1 4.58 1.24 7.33a11.49 11.49 0 0 0 .8-2.44v-5.89c0-1.07-.06-2.09-1.54-2M720.9 463.92c-2 .67-2.61 2.06-2.59 4.1v26.64c0 3.11 1 4.1 4.1 4.1h76.89c3.11 0 4.09-1 4.1-4.1V468c0-3.11-1-4.1-4.1-4.1h-78.14m13.32 111.19l-2.82 1.4 2.54 1.65c.7 1.82-1 4.58 1.24 7.33a10.42 10.42 0 0 0 .8-2.44v-5.89c0-1.07-.07-2.09-1.54-2m-522.35-85.6l-10.75 2.59a9.38 9.38 0 0 0-2.12 1.24l.37.79 13.39-2.81-.63-1.81M245.4 99.15c-.34.34-1 .67-1 1v6.91c0 .47.55.92 1.1 1.77.6-.75 1.33-1.24 1.36-1.77a56.74 56.74 0 0 0 0-6.65c0-.45-.8-.86-1.22-1.29m370.99 475.97l-2.9 1.48 2.64 1.4v6.88l.64.27c.47-.61 1.3-1.19 1.35-1.83a43.42 43.42 0 0 0 0-6.65c0-.55-1-1-1.46-1.55M597.16 465c-2.32.55-2.85 2.2-2.84 4.35v24.08a26.38 26.38 0 0 0 .59 3.73 29.94 29.94 0 0 0 4.25.6q36.12 0 72.25 0a34.78 34.78 0 0 0 4.23-.53 32.1 32.1 0 0 0 .61-4.31q.08-11.53 0-23.06a36.89 36.89 0 0 0-.53-4.23 30.77 30.77 0 0 0-4.31-.61q-37 0-74.05 0m124.82-.02c-2.32.55-2.85 2.2-2.83 4.35v24.08a26.56 26.56 0 0 0 .6 3.73 29.81 29.81 0 0 0 4.24.6q36.64 0 73.28 0a34.78 34.78 0 0 0 4.23-.53 32.1 32.1 0 0 0 .61-4.31q.07-11.53 0-23.06a39.27 39.27 0 0 0-.53-4.23 30.77 30.77 0 0 0-4.31-.61q-37.54 0-75.07 0M234.64 99.15c-.34.6-1 1.19-1 1.8v9a8.12 8.12 0 0 0 .7 2.2c1.83-.93 1.83-.93 1.83-3.74h2c1.49 0 2.74 0 3.67-1.74 1-2 1.34-3.87.35-5.65s-2.71-2.31-4.81-1.62a6.8 6.8 0 0 1-2.54-.21m-8.66-.04l-1.85.8.59.9 4.13.38.08.69c-1.86.78-4.49.51-5.17 2.89-.28 1 .36 2.24.56 3.31h6.66v-8.34l-4.74-.63m-7.68 0c-2.74.95-3.35 3-3.09 5.64a3.62 3.62 0 0 0 2.58 3.3c1.6.52 3.26.66 4.65-.45l.06-.72a12.22 12.22 0 0 0-2.41-.57c-1.77 0-2.32-1-2.32-2.59s.54-2.57 2.32-2.58a17.86 17.86 0 0 0 2.46-.34c-.88-2.5-2.67-1.42-4-1.69m-17.68 0c-3.49 3.07-3.75 4.24-2.07 7.44 1.21 2.31 3.28 1.77 5.15 1.71.63 0 1.23-.85 2.25-1.61l-5.92-.91v-.82l5.47-.87c.53-4-.35-4.94-4.64-4.94M754 574.58c-4.72 2.32-5.16 6.57-1 10 4.16.57 6.17-.58 6.41-3.58.35-4.4-.82-6.56-5.13-6.41M175.71 99.15c-1.86 2.63-1.1 5.42-.52 8.2a4.34 4.34 0 0 1 0 .9h1.89c.93-2.17-1.24-5.37 1.84-7.19 3.72 1.42.34 5.71 3.06 7.53 2.12-1.21 1.38-3.07 1.37-4.57 0-4.17-1.24-5.06-5.35-4.39a5.81 5.81 0 0 1-2-.48m-24.37 0l-1.25 1.57c1.42 1.4 3.39-1.55 4.4 1.21-1.8 1.12-5.18.41-4.91 4.56 1 3.67 4.61 1.18 7.27 2.05v-7.65c-.94-2.27-3.21-1.71-5.25-1.74m476.52 475.43l-3.9 2.59c.24 2.55-.64 5 2 7.21l4 .61c4.3-3.79 4.38-6.89.13-10.41h-2m93.54-10.24c-2.32.55-2.85 2.2-2.83 4.35v25.1a26.11 26.11 0 0 0 .6 3.73 29.81 29.81 0 0 0 4.24.6q36.64.06 73.28 0a35 35 0 0 0 4.23-.54 32.1 32.1 0 0 0 .61-4.31q.07-12 0-24.08a39.27 39.27 0 0 0-.53-4.23 30.77 30.77 0 0 0-4.31-.61q-37.54 0-75.07 0M479.56 737.5l-1.17 1.33 1.17 1.17 1.82-1.82-1.56-.68m117.34-173.16c-2.32.55-2.85 2.2-2.84 4.35v25.1a26 26 0 0 0 .59 3.73 29.94 29.94 0 0 0 4.25.6q36.12.06 72.25 0a35 35 0 0 0 4.23-.54 32.1 32.1 0 0 0 .61-4.31q.08-12 0-24.08a36.89 36.89 0 0 0-.53-4.23 30.77 30.77 0 0 0-4.31-.61q-37 0-74.05 0m72.82 173.15c-.18 1.62-.95 3.51-.39 4.81 1.06 2.41 3.38 1.11 5.38.88v-5.69H674c-1.08 1.35 1.07 4-2.16 4.88l-.68-3.59a5.28 5.28 0 0 0-.75-1.29M590.24 97.1l-1.79 2.24a40.23 40.23 0 0 1 .73 4.94c.11 3.53 1 4.33 5.17 3.77l-2.57-2.65v-3.93l2.31-1.17-3.59-3.2m-26.39 0l-1.92 2.19 1.65 9.23c1.52-.42 3 .62 3.86-1.43l-1.93-1.38v-4.29l2.31-.94-3.71-3.38M720.9 563.31c-2 .67-2.61 2.06-2.59 4.1v27.66c0 3.11 1 4.1 4.1 4.1h76.89c3.11 0 4.09-1 4.1-4.1v-27.66c0-3.11-1-4.1-4.1-4.1h-78.14M296.13 97.1c-1.58 1.46-2.86 2.73-1.15 5.21.86 1.23.45 3.33.65 5 0 .28.3.53.61 1.06 1.13-.3 2.61.73 3.47-1.32l-1.92-1.38v-4.29l2.23-.91-3.64-3.41m378.92-1.49l-1.54 1.92h3.76l-2-1.92m-79.64 467.74c-2 .67-2.61 2.06-2.59 4.1v27.66c0 3.11 1 4.1 4.09 4.1h75.84c3.11 0 4.09-1 4.1-4.1v-27.66c0-3.11-1-4.1-4.1-4.1h-77.09M494.42 95.57l-1.53 1.92h3.76l-2-1.92m-105.78 0l-1.69 1.26 3.11.92.39-.67-1.55-1.51m-143.73 0l-1.54 1.92h3.76l-2-1.92m-114.74.25c1.47-.15 1.28.89 1.28 1.79v10.57c-1.72.57-2.59 0-2.57-1.86l.06-8.19c0-.7.63-1.37 1-2m133.96 642.39l-1.35.8 2.6.26.14-.49-1.13-.57m101.2 0l-1.36.8 2.6.26.15-.49-1.14-.57m40.23 0l-2 1.64 1 2c2 0 2.22-.61 1.28-3.33m6.38-.31l-1.15.68a12.68 12.68 0 0 0 1.41.34 1.4 1.4 0 0 0 1.13-.45l-1.13-.57m36.89 0c-2.06 2-2.08 2.16-.14 3.68 1.77-1 1.51-2.3.39-3.68m14.09 0c-1.49 1.79-1.46 2.23.38 3.69 1.69-1.21 1.46-2.32-.12-3.43M737.81 95.05l-3.23 4.4 1.16 8.8h1.93c.91-2.54-1.54-6.17 2.5-8l-2.48-2.18 3-2.37-.29-.66h-2.31m-266.72.01a6.87 6.87 0 0 0-1 2.31c-.11 3.58-.05 7.17-.05 11l2.56-.26V96.81c0-.61-.8-1.2-1.23-1.8m29.69 643.51c-2.35 1.73-2.41 2.09-.41 3.67 1.62-.85 1.56-2 .67-3.41m10.5-.26l-1.35.8 2.6.26c0-.16.09-.33.14-.49l-1.13-.57m24.85 0l-1.36.8 2.6.26.15-.49-1.14-.57M417.56 95.05c-2.51.66-2.54 3.18-3.47 4.93-.35.66.77 2 .87 3 .16 1.69 0 3.41 0 5.18 1.72.57 2.62 0 2.57-1.86v-1.28c0-2.35 0-2.35 1.65-5.59l-2.27-.74 3.42-2.9-2.54-.76m247.26 643.49c-1.49 1.79-1.46 2.23.39 3.69 2.07-1.3 1.19-2.49-.13-3.69m14.6 0c-1.83 1.2-1.22 2.39 0 3.87 1.46-1.38 1.51-2.58.29-3.87m27.12 0l-1.35.8 2.6.26.14-.49-1.13-.57m11.27 0c-1.83 1.2-1.22 2.39 0 3.87 1.46-1.38 1.51-2.58.29-3.87m6.63 0l-1.35.8 2.59.26.15-.49-1.13-.57m-87.37-211.58c-3.72 1.48-4.34 2.76-3.37 5.65 1 3 3.3 1.64 5.17 2.13v-.9c-1.36-.86-3.15-1.35-3.46-2.31-.93-2.84 2.66-2 3.66-3.61l-1.74-1m-279.51-54.01c3.89 0 3.66 3.24 4.31 5.64a50.8 50.8 0 0 1 1 6.4c.05.4-.31.85-.57 1.51-1.8.07-3.21.13-3.59-2.53-.52-3.58-1.67-7.08-1.45-10.77m384.08 53.28c-2.61 2.07-2.61 4.6.06 6.71a5.58 5.58 0 0 0 .2-6.45M242.84 739c-.73 1.89-.73 1.89 1.15 3.37.33-.77 1-1.54.8-2.06s-1.1-.89-1.7-1.31m373.28-212.58l-1.27 2.31.58.82 2.8-.38.25-.74-2.1-2m-7.17-.01c-2.62 2.07-2.62 4.6 0 6.71a5.56 5.56 0 0 0 .2-6.45M529.78 739c-.73 1.89-.73 1.89 1.15 3.37.33-.77 1-1.54.8-2.06s-1.1-.89-1.69-1.31M755 525.91c-3.61 2.58-3.77 4.79-.05 7.52.76-.85 2-1.64 2.26-2.68.48-1.88.21-3.84-2-4.84m-126.28.26c1.89 0 2.63 1.25 2.78 2.82a3.84 3.84 0 0 1-2.21 4.19c-1.67-.5-3-1.13-2.89-3.17.08-1.57-.23-3.31 2.06-3.59m-22.29-470.3l-3.33 2.11c0 3.17 0 3.17 2.56 4.55 4.93-1.71 4.09-2.42 4.1-6.66h-3.07m-170.89 0l-2.94 1.68v3.81c3.61 1.38 4 1.26 6.79-1.91v-3.58H436m192.41 418.05l-3.9 2.58c.24 2.55-.64 5 2 7.21l4 .61c4.3-3.78 4.38-6.89.13-10.4h-2m158.1 50.72l-2.82 1.4 2.55 1.64c.7 1.82-1 4.58 1.24 7.33a11.44 11.44 0 0 0 .8-2.43v-5.89c0-1.08-.06-2.09-1.54-2.05M754 474.17c-4.72 2.32-5.16 6.57-1 10 4.16.56 6.17-.59 6.41-3.59.35-4.4-.82-6.55-5.13-6.4m-12.37 50.71c-3.29 1.36-3.18 6.35-1.49 8.93 1.07 1.64 4 .93 5.09-1s.78-4 .39-5.88a2.91 2.91 0 0 0-3.73-2.07m-7.69.02l-2.82 1.4 2.54 1.64c.7 1.82-1 4.58 1.24 7.33a10.38 10.38 0 0 0 .8-2.43v-5.89c0-1.08-.07-2.09-1.54-2.05m-126.52 0c-3.3 1.36-3.21 6.36-1.49 8.93 1.22 1.83 5 .82 5.52-1.52a11.81 11.81 0 0 0 0-5.09 3 3 0 0 0-3.76-2.32M214.14 740.06l-.88 2.2 3-.51.1-.74-2-1M754 524.37c-4.72 2.32-5.16 6.58-1 10 4.16.56 6.17-.59 6.41-3.59.35-4.4-.82-6.55-5.13-6.41m-65.15 215.69l-.77 1.92h2.69l-1.66-1.92m-60.98-215.69l-3.9 2.59c.24 2.55-.64 5 2 7.21l4 .61c4.3-3.79 4.38-6.89.13-10.41h-2m-20.46-49.69c-3.3 1.36-3.19 6.35-1.5 8.94 1.08 1.63 4 .92 5.1-1s.77-4 .38-5.88a2.91 2.91 0 0 0-3.73-2.07m125.28.01a6.88 6.88 0 0 0-1.81 7.69c.74 1.84 2 2.38 3.94 2 2.51-2.23 2.85-4.13 2-7.12-.62-2.29-2-2.67-3.91-2.54m52.81-.03l-2.82 1.4 2.55 1.64c.7 1.82-1 4.58 1.24 7.34a11.67 11.67 0 0 0 .8-2.44v-5.89c0-1.08-.06-2.09-1.54-2.05M345.83 48.43c-3.9 3.44-4.37 6.56-2.68 11.06a4.55 4.55 0 0 0 4.23 3.13c1.63.13 3.23-1.23 4.08-2.92a10 10 0 0 0-.07-8.93c-.93-2-3-2.74-5.3-2.34m7.17 692.14l-1.37.9.1.57 2.16-.12-.64-1.09M584.86 47.92a6.22 6.22 0 0 0-4.86 4.14c1.12 1 1.12 1 8.41 1 .43-3.18 0-3.84-3.33-5.12m-54.02-.02a6.22 6.22 0 0 0-4.82 4.14c1.12 1 1.12 1 8.41 1 .43-3.18 0-3.84-3.33-5.12m-79.17-3.61c-.43.52-1.22 1-1.22 1.54l-.06 18.7v1.54h5.38V44.63l-3.84-.3M435 741.6c-1.29.89-1.7 2.09-1.44 3.88 1.55-1.11 3-1.91 1.69-3.88m44.31 0l-1.43 1.07 1.21 1.2.81-.28-.33-2m97.61.01l-1.43 1.07 1.2 1.2.82-.28-.33-2M344 44.33c-3.45 1.22-6.07 3.3-7.17 6.92-2 6.62.49 12.81 6.13 14.88 5.88 2.15 13.45-.91 14.94-7.18s-1.06-12.57-6.76-14.27c-2.14-.64-4.58-.26-6.89-.35m262.13-.51a26.89 26.89 0 0 1-3.07.5c-4 .18-4.92 1.52-3.59 5.14 8.3-2.16 8.45-1.07 10.27 2-1.92.38-3.67.67-5.4 1.08-3.33.8-6.13 2-7.28 5.85-.83 2.81.14 4.83 1.7 6.64s4.24 2.12 6.59 1.77c1.45-.22 2.78-1.21 4.32-1.92 1.27 2.63 3.66 1.06 5.43 1.52V55.09a26.3 26.3 0 0 0 0-4.35c-.66-3.86-3-5.9-7.13-6.42a8.65 8.65 0 0 1-1.54-.5M628.93 476c1.89 0 2.63 1.25 2.78 2.82a3.85 3.85 0 0 1-2.21 4.2c-1.67-.51-3-1.14-2.89-3.18.08-1.57-.23-3.3 2.06-3.58M474.18 44.08c3.1 0 5.58 1.37 6.84 4.13a15.48 15.48 0 0 1 1.06 5.6c.16 3.41.08 6.83 0 10.25a9.74 9.74 0 0 1-.58 2.18h-5c-1.12-3.65-.33-7.56-.54-11.4a16.38 16.38 0 0 0-.05-2.81c-.56-2.27-2-3.09-4.86-3.09-2.77 1.41-3.46 3.63-3.34 6.41.16 3.5 0 7 0 10.76h-5.31V45c2.7-1.36 3.94-.95 5.2 2.12 1.72-1.9 3.7-3.12 6.33-2.76M755 475.7c-3.61 2.58-3.77 4.79-.05 7.52.76-.85 2-1.64 2.26-2.67.48-1.89.21-3.85-2-4.85m-145.75.52c-2.62 2.06-2.62 4.6 0 6.7a5.56 5.56 0 0 0 .2-6.45m125.08-.25c-2.07 2.41-2.12 3.68-.26 6.66 2.34-1.85 2.51-4 .51-6.66m7.43 0c-.17.17-.46.32-.49.51a15.73 15.73 0 0 0 0 1.88l2.42-1.12-1.65-1.27m-104.04.51c-3.72 1.48-4.34 2.76-3.37 5.65 1 3.05 3.3 1.65 5.17 2.14v-.9c-1.36-.87-3.15-1.35-3.46-2.32-.93-2.84 2.66-1.95 3.66-3.6l-1.74-1m103.5 3.62c-1.19 1.41-1.19 1.41.37 2.65 1.56-1 2.06-1.8-.11-2.65M504.93 40.24l-2.18.72v8.31a6.07 6.07 0 0 0 8.07-2.12 4.39 4.39 0 0 0-2.57-6.38 24 24 0 0 0-3.07-.53m44.33-1.03l-3.85 1.48v3.21l-2.94.93v3.56l2.63.88a21 21 0 0 1 .3 2.49v8.2c-.3 5.75 6 8.77 10.53 5.89.46-3.41.46-3.41-4.12-4.41-1.49-3.86-.43-8-.8-12.37h4.92v-4.44l-4.87-.45V41c0-1.12-.22-1.89-1.55-1.79m-131.94 0L414 40.39l-.66 3.37-3.15 2.3c.78 1.57.66 3.6 3.28 2.67v8.92a24.31 24.31 0 0 0 .53 5.12c.77 3.12 5.29 5 8.92 3.85l1.16-.38v-3.53c-1.3-.57-3-.83-3.87-1.82s-1-2.63-1.08-4c-.16-2.55 0-5.12 0-7.81h5v-4.44l-4.7-.49-.34-3.65c-.08-.47-.64-.86-1-1.29m34.83-3.59l-2.76 2.71c2 3.64 2.55 3.88 6 2.62l.91-2.14c-.43-2.24-1.6-3.41-3.87-3.19"/></g><defs ><path id="B" d="M653.78 681.66c2.7-2.54 3-3.27 1.93-6.79h-5.85l1.1 1.66 2.9-.6c1.41 4.16-3.37 5.05-3.8 8.16h6.15v-1.41h-2.43"/><path id="C" d="M659.16 676.53c1.22.19 1.34 1 1.29 2.05v3.59c0 1.2.22 2.22 1.92 2v-9.27c-1.78-.91-2.82-.31-3.46 1.35"/><path id="D" d="M659.16 626.33c1.22.18 1.34 1 1.29 2v3.58c0 1.19.22 2.22 1.92 2v-9.27c-1.78-.91-2.82-.3-3.46 1.35"/><path id="E" d="M641.48 628.12a17.83 17.83 0 0 1 1 3.33c.22 2.36.47 2.63 3.4 2.27-1.26-2.19-3.57-4.52.54-6.26l-3.42-2.58-1.75 3.49H641a2 2 0 0 1-.26-.25"/><path id="F" d="M641.48 678.33a17.83 17.83 0 0 1 1 3.33c.22 2.36.47 2.63 3.4 2.27-1.26-2.19-3.57-4.53.54-6.26l-3.42-2.58-1.75 3.49H641a2 2 0 0 1-.26-.25"/><path id="G" d="M786.74 374.27l-2.82 1.39 2.55 1.65c.7 1.82-1 4.58 1.24 7.33a11.63 11.63 0 0 0 .8-2.43v-5.89c0-1.08-.06-2.09-1.54-2.05"/><path id="H" d="M675.3,99.15a8.53,8.53,0,0,0-1,2.31,29.21,29.21,0,0,0,0,4.86,9.74,9.74,0,0,0,.82,2.31c3-1.85,1.27-4.36,1.63-6.42.18-1,.84-2.71-1.2-3.06"/></defs></svg>