<svg id="Layer_1" data-name="Layer 1" xmlns="http://www.w3.org/2000/svg" viewBox="0 0 522.4 1057.12"><defs><style>.cls-1{fill:none;stroke:#4057A1;stroke-miterlimit:10;stroke-width:0.75px;}</style></defs><path class="cls-1" d="M537,1069.68" transform="translate(-8.1 -11.62)"/><path class="cls-1" d="M462.23,1068.32l-385.79,0c-41.39-6.94-65.3-35-65.31-77.13q-.08-305.26,0-610.52c0-4-.1-8-.16-12,.91-2.31,2.59-4.61,2.62-6.93q.33-27.16,0-54.32c0-2.34-1.69-4.65-2.59-7q0-7.29,0-14.58c.9-2.33,2.55-4.66,2.58-7,.22-17.35.15-34.7.05-52,0-2.07-.78-4.14-1.2-6.21l-2.7.32v63.59a57.52,57.52,0,0,1-1.1-6.47c-.19-2.87-.11-5.78,0-8.66q1.24-43.49,2.52-87c.09-3.32-.13-6.66-.2-10,4-4.95,4.1-32.33.15-37.51.36-19.79-.47-39.68,1.33-59.33C15.62,40,46.62,12.51,82.47,12.15c28.25-.28,56.5-.08,84.75-.08q142.16,0,284.29,0c25.84,0,46.64,9.91,61.91,30.84,9.52,13,13.48,27.86,12.94,43.94-.43,2.82-1.23,5.64-1.24,8.46q-.14,93.42-.07,186.85c0,3,.86,6.08,1.31,9.12.1,2.44.27,4.88.27,7.32q0,346,.11,692c0,26.75-8.94,48.63-30.66,64.73C486,1062.79,474.44,1066.42,462.23,1068.32ZM18.91,1008.54q2.63,8,5.24,15.93l9.48,14.61c13.72,16.68,31.81,23.52,52.94,23.52H225.39q113.48,0,226.93,0c33,0,59-19.93,66.28-51.19,2-8.54,2-17.66,2-26.51q.15-325.14.08-650.26,0-124.19,0-248.36c0-27.08-15-51.54-37.06-60.79-10.51-6.49-22.23-7-34.1-7l-361,0a111.52,111.52,0,0,0-13.32.46c-14.1,1.71-26.49,7.23-36.81,17.16C24.34,49.58,17.46,66,17.48,85.56q.12,136.84,0,273.68,0,313.38.05,626.78C17.53,993.53,18.43,1001,18.91,1008.54Z" transform="translate(-8.1 -11.62)"/><path class="cls-1" d="M526.36,291.26c-.45-3-1.3-6.08-1.31-9.12q-.07-93.42.07-186.85c0-2.82.81-5.64,1.24-8.46,0,41.92,0,83.84.23,125.77,0,3.07,1.54,6.14,2.36,9.21q0,32,0,64.06Z" transform="translate(-8.1 -11.62)"/><path class="cls-1" d="M11,300.49c.9,2.32,2.56,4.63,2.59,7q.33,27.15,0,54.32c0,2.32-1.71,4.62-2.62,6.93-.74-2.43-2.08-4.86-2.11-7.3q-.27-26.46,0-52.92C8.86,305.81,10.22,303.16,11,300.49Z" transform="translate(-8.1 -11.62)"/><path class="cls-1" d="M9.69,284.55V221l2.7-.32c.42,2.07,1.19,4.14,1.2,6.21.1,17.35.17,34.7-.05,52,0,2.35-1.68,4.68-2.58,7C10.53,285.46,10.11,285,9.69,284.55Z" transform="translate(-8.1 -11.62)"/><path class="cls-1" d="M11,135c4,5.18,3.83,32.56-.15,37.51-.71-1.77-2-3.53-2-5.31-.2-9-.21-18,0-27C8.91,138.42,10.28,136.7,11,135Z" transform="translate(-8.1 -11.62)"/><path class="cls-1" d="M529,285.87q0-32,0-64.06c.39,1.25,1.11,2.5,1.12,3.75q.1,28.27,0,56.54C530.07,283.35,529.37,284.61,529,285.87Z" transform="translate(-8.1 -11.62)"/><path class="cls-1" d="M270.23,69.54c-9.76,0-19.52-.2-29.26.16-2.16.07-4.25,2.12-6.37,3.25,2.09,1.09,4.15,3.07,6.25,3.11,14.85.27,29.71.15,44.56.15,4.66,0,9.36.3,13.95-.25,2-.24,3.86-2.25,5.78-3.46-1.88-1-3.74-2.78-5.65-2.84C289.74,69.37,280,69.53,270.23,69.54Zm-10.63,970.2c8,5.5,21.76,3.48,30.82-3.38,11.85-9,17-22.36,12.44-34.24-.29,11.31-3.94,21.25-11.87,29.2C282.69,1039.65,271.39,1038.87,259.6,1039.74Z" transform="translate(-8.1 -11.62)"/><path class="cls-1" d="M18.91,1008.54l.43-9.58,2-.19q1.39,12.86,2.8,25.7Q21.54,1016.5,18.91,1008.54Z" transform="translate(-8.1 -11.62)"/><path class="cls-1" d="M37.51,133.66c1.87-1.36,3.68-3.79,5.61-3.88,4.4-.21,8.86.73,13.29,1.19-.44,0-.88,0-1.33,0-15.93-.15-15.93-.15-15.89,15.68,0,9.59,0,9.59,9.93,9.59q217.8,0,435.6.07c3.22,0,6.44.8,9.66,1.22l-149.08.26-48.86-.06q-37.29,0-74.58-.09-87.24,0-174.48.09c-2.24,0-4.48,1.62-6.72,2.49-.91,5,1.12,7.25,6.22,7,1.44-.06,2.9.61,4.35.95l-10.9.3c-.44,1.91-1.26,3.82-1.26,5.73,0,26.53.1,53.06.18,79.59-.06,1.1-.14,2.2-.16,3.3-.19,9.61-.18,9.46,9.17,9.8,7.22.26,14.42,1,21.63,1.46l-28.32,2.45-.07,1.84a40.55,40.55,0,0,0,5.31.88c15.45.57,30.93.69,46.35,1.7,9.58.62,19.08,2.56,28.61,3.92,0,.44,0,.88.08,1.33-23.69-1.35-47.36-2.88-71-4-10.15-.46-10.26.34-10.4,10.37-.08,5.89,2.7,8,8,8.14,4,.11,8,.18,12,.27C56.9,296.63,53.47,298,50,299.18c-3.11,1.05-6.28,1.9-9.42,2.83l-.13,6.51.06,4.12c0,2.87,0,5.75,0,8.63,0,10.12,0,10,10.37,10.13s20.71.6,31.06.92l-10.82.45c-8.21,0-16.43.24-24.61-.26-6-.36-7.68,1.89-7.48,7.63.4,11.67.21,23.37.26,35.06-.07,4.36-.56,8.77,0,13.06.26,2,2.5,3.82,3.85,5.72,0,.41,0,.83,0,1.25-.92,2-2.39,4-2.63,6.13-.47,4.27-.26,8.62-.33,12.93q-.49,6.61-1,13.21c-.25,10.39-.25,10.38,9.93,10.33,1.09,0,2.18.15,3.27.23-3.81,1.22-9.17,1.34-11,3.95-2,2.85-.76,8-.93,12.15a44,44,0,0,1,1.12,6.09c.06,1-.77,2.13-1.19,3.2L38,463.39q-.14-93.11-.25-186.22Q37.61,205.41,37.51,133.66Z" transform="translate(-8.1 -11.62)"/><path class="cls-1" d="M38,463.39l2.46.06v13.46c.67.79,1.35,1.57,2,2.36,8.88-13,21.46-12.32,34-11.75a7.5,7.5,0,0,1-2.44.93c-7.83-.13-13.88,1.72-13.54,11.36,0,.76-.76,1.55-1.16,2.32-.56-3.25-2-3.22-4.63-1.74-3,1.71-6.7,2.41-9.6,4.3-2,1.3-4.25,3.82-4.4,5.93-.5,7.28-.13,14.62-.09,21.93v47.19l0,4q0,6.49.08,13l-1.59,1.66q0,50.37,0,100.75.06,102.4.16,204.83v2.92l-.18,57.27-1.37.06q0-183.39,0-366.79C37.71,539.41,37.87,501.4,38,463.39Z" transform="translate(-8.1 -11.62)"/><path class="cls-1" d="M270.23,69.53c9.75,0,19.51-.16,29.26.13,1.91.06,3.77,1.85,5.65,2.84-1.92,1.21-3.74,3.22-5.78,3.46-4.59.55-9.29.24-13.95.25-14.85,0-29.71.12-44.56-.15-2.1,0-4.16-2-6.25-3.11,2.12-1.13,4.21-3.18,6.37-3.25C250.71,69.34,260.47,69.54,270.23,69.53Z" transform="translate(-8.1 -11.62)"/><path class="cls-1" d="M259.6,1039.74c11.79-.87,23.09-.09,31.39-8.42,7.93-7.95,11.58-17.89,11.87-29.2,4.54,11.88-.59,25.27-12.44,34.24C281.36,1043.22,267.59,1045.24,259.6,1039.74Z" transform="translate(-8.1 -11.62)"/><path class="cls-1" d="M39.27,884q-.08-102.42-.16-204.83,0-50.39,0-100.75c2.22-.08,4.44-.23,6.66-.23q164.21,0,328.39-.12c16.87,0,33.74-.63,50.61-1a56.55,56.55,0,0,0,7.8,1.11c21.43.12,42.86.12,64.3.16q.08,91.44.15,182.88,0,61.41-.14,122.82c-1.11.06-2.22.18-3.33.18q-183.55,0-367.1,0a21.42,21.42,0,0,1-3.88-.43c-2.37-3.87-3.36-7.17-5.54-8.45-1.38-.82-4.53,1.36-6.86,2.18-1.91-5.77-6.7-.48-9.78-1.76-4.89-2-6.18.37-7.55,4.31-.6,1.74-2.84,2.92-4.34,4.35L86.94,883c.33-2.29.65-4.59.78-5.48-2.42-.72-4.23-1.69-6-1.7-5.77-.05-11.62-5.19-17.16-.58-2.35,2-3.34,5.58-5.72,9.81a44.64,44.64,0,0,0-2.2-5.6,46.19,46.19,0,0,0-3.29-4.4c-1.28,1.22-3.31,2.24-3.71,3.7C48,884.58,44.17,885.15,39.27,884Zm37-167.08a11.33,11.33,0,0,0-2.48-.64c-2.83-.12-7-1.25-8.19.14-1.54,1.77-.71,5.6-.9,8.55l1.83.12q1.17-3.64,2.32-7.27l1.71.07c.73,2.48,1.47,5,2.25,7.62l3.46-1.36,6.71.12c-1-2.21-1.91-4.42-2.86-6.62h2.62l-.2-2.12Zm25.47,7.06c2.91,2.94,5.51,2.85,7.68,0l-5.93-3.57,5.48-3.6-.09-1.59L101.77,717c-3.23.38-6.82-5.54-10,.67l2.43.51-3,5.81a49.65,49.65,0,0,0,7.11,1.55C99.4,725.62,100.61,724.51,101.79,723.94ZM83.08,654.56l-6.26-2.76v11.55l4.78-.79,13.54-.13,7.1.18c-.06-2.31.77-5.55-.41-6.67s-4.4-.28-6.72-.3Zm41.71,174.05c3.62,2.92,7.2,4.92,10.48-.43,6.93-.81.17,5,4.81,7l5.58-12.49c-3.17-.17-5.09-.62-6.85-.26-1.26.25-2.31,1.57-3.45,2.42l-7.79-6.48c-1.2,2.2-2.1,3.83-3,5.47l-8.08-5.49v13.9ZM174,687.92q.74,3.86,1.48,7.71c5.63.29,13.36,4.73,13.09-6.63l3.49,8.37,3.76-3.94,4,4.33c1.18-4.2,2.06-7.35,2.94-10.49l-1.26-.6-2.77,3.22-2.57-3.53c-.23.57-.45,1.14-.67,1.71a33.71,33.71,0,0,0-5.29-1.06c-.47,0-1,1.39-1.54,2.15-4.1-5.88-10.08-.18-14.77-2.4L169,691l-3.1-4.39-1.46.87,4.05,9.39,1.75-.14Zm108.11-.22,4.69,9.92,4.3-4.79c0,.67.06,1.34.1,2l8.9,1.11c.11-2.81,1.29-6.23.1-8.27-1.93-3.31-9.43-1.47-12.35,1.81l-5.64-1.69c-.61-.25-1.24-.47-1.83-.76-3.81-1.91-6.91-.77-7.6,3.2-.34,1.92,1.35,5.41,3.06,6.23,4.38,2.11,4.81-2.09,5.72-4.9A21.72,21.72,0,0,0,282.08,687.7Zm62.71,8,4.2-6.88c.82,2.1,1.61,4.2,2.48,6.27.13.3.62.44.94.66,3-7.53.87-10.1-7.58-9.12h-19.5l6.46,9.7ZM183.49,824.35c.92,8.72,6.94,7.07,12.64,6,.54-1.63,1.12-3.44,2.09-6.43l1.92,6.57,5.68-.62v-6.49l-5.15-3.59c.12.45.24.91.37,1.37l-16.4.14a4.8,4.8,0,0,0,0-.66,4.6,4.6,0,0,0-.25-.61l-4,3.44c-.83-1.28-1.86-2.84-3.18-4.85l-3.34,5.2-3-4.22-1.28.61c1.08,3.5,2.15,7,3.7,12l3.89-6.59,4.34,6.26C182.42,828.48,183,826.41,183.49,824.35ZM65.71,842.87l9.58-1.3c7.7-4.68,10.33-12.41,6.71-19.78a14,14,0,0,0-16.75-7.48,14.57,14.57,0,0,0-9.85,17.43C56.72,837.27,59.94,841.32,65.71,842.87ZM74,773.5c12.45-4.31,15.81-15.28,7.84-25.66-2.72-.79-5.8-1-8.08-2.5-4-2.59-7.47-4.82-11.42,0-2.7,3.32-6.9,5.82-8.53,9.52-2.51,5.75-.38,11.51,4.53,15.42C62.83,773.91,67.86,777,74,773.5Zm373.52,1.09c1.24,3.17,2.48,6.35,3.8,9.75,4.52-.42,10-.7,15.33-1.46,7.68-1.1,13.22-7.39,13.08-14.37s-6.19-13-13.65-13.85a19,19,0,0,0-17.19,6.56l-4,3.41c0-5.66.13-10.51,0-15.36-.28-8.18-2.84-10.71-11-10.75-15.79-.08-31.57,0-47.36,0q-120.06,0-240.13,0c-10.52,0-12.42,1.94-12.47,12.51,0,11.12,0,22.24,0,33.36,0,12.84,1.38,14.23,14.09,14.23H429.43c1.78,0,3.56-.05,5.33,0,6.32.06,9.42-3.41,9.88-9.37.32-4.2.07-8.45.37-12.66C445.07,775.83,446.64,775.24,447.51,774.59ZM62.18,597.82c-6.82-1.37-12.73,5.32-9.63,11.33,3.31,6.41,9.12,11.55,14,17.07.54.62,2.89.64,3.46,0,4.82-5.07,10.54-9.74,13.77-15.73,3.66-6.77-1.87-14.15-9.09-13.82C70.53,596.92,66.36,597.45,62.18,597.82ZM106.74,629c5.08-.47,11.05-.45,16.76-1.66,9.38-2,14.32-10.13,11.83-18.26s-12.88-12.61-22.06-9.66c-8.48,2.73-12.74,11.08-9.83,18.93C104.69,621.71,105.57,625.19,106.74,629ZM256.46,827.36l8.32,3.92c1.09-3.75,2.18-7.5,3.09-10.65-7.16.38-12.83.25-18.31,1.21-1.89.33-3.95,3.16-4.65,5.28-.33,1,2.26,4.16,3.73,4.31C252.52,831.82,256.86,831.58,256.46,827.36ZM130.4,695.2a33,33,0,0,0,5.67,1.08c2,0,5.32.13,5.76-.84a10.43,10.43,0,0,0,.29-7.32c-.38-1-3.66-1.14-5.66-1.4a33.46,33.46,0,0,0-5.84-.2c-4.07.18-8.32-.06-12.08,1.15-1,.32-.48,5.31-.65,8.16l1.62.19,2.3-7,1.35.21,2.26,7.93c1.26-3.39,2-5.42,3.35-9.06C129.61,691.77,130,693.63,130.4,695.2ZM95.7,830.58c5.39.3,10.29,1.06,15.06.56,1.7-.18,3.09-3.41,4.62-5.25-1.9-1.49-4.72-4.64-5.53-4.19-5.55,3.1-9.38-.77-14.15-3.39Zm120-5.85,1.43.31c.22,1,.11,2.37.72,3a37,37,0,0,0,6.85,6.24c.77.49,4-.92,4.26-1.93a18.28,18.28,0,0,0,.35-9c-.24-.88-4.45-.68-6.84-1-1.64-.22-3.32-.81-4.9-.6-2,.26-4.68.6-5.68,1.95s-.21,3.92-.21,6l1.5-.08ZM71.07,690.45c-4.85-1.51-5.88-12.75-13.14-5.58-1.76,1.73-1.78,8.13,0,10C64.07,701.5,66.32,691.73,71.07,690.45Zm24.64,64c4.53,3.85,7.17,6.67,10.4,8.35.63.33,4.87-3.63,5-5.79s-2.57-6.17-4.36-6.37C103.94,750.3,100.83,752.49,95.71,754.42Zm-33.2-41.16c-3.72,0-8.44-1.33-10,.3-2.37,2.56-2.57,7.14-3.68,10.86L51,725.81l9.14-6.53c.28.81.84,2.47,1.4,4.13l1-.24ZM160,822.39c-1,3-2,5.62-2.93,8.28l2.19.88,6.17-12.18H145l5.21,3.54c-1.11,2.9-2,5.3-3.21,8.35C153.65,830.17,151.37,819.41,160,822.39ZM272.48,684.21l-2.25-.26c-2.24,1-5.39,1.49-6.57,3.25-3.94,5.9-3,10.81,5.11,8.93C270.82,695.65,271.29,688.37,272.48,684.21Zm31.32,6.38.09,2.7c2.44,1.21,5,3.49,7.31,3.32,2-.15,3.74-3.15,5.6-4.89-1.8-1.84-3.64-5.21-5.39-5.16C308.84,686.62,306.33,689.12,303.8,690.59ZM81.66,689.08c1,2.89,1.79,5.27,2.59,7.64l2.16-.33c-.32-3,.38-7.59-1.18-8.56-2.82-1.75-7-1.31-12.41-2l4.23,11C78.45,694.41,79.86,692.07,81.66,689.08Zm296,2.11c-3.75-2.33-6-4.82-8.05-4.66-1.66.13-4.58,3.79-4.24,5.26.47,2,3.32,4.5,5.44,4.82C372.39,696.84,374.42,693.92,377.69,691.19Zm-258,20.92c-2.41,4.25-4.92,6.69-4.58,8.63s3.47,3.51,5.38,5.24c1.51-1.87,4.19-3.73,4.2-5.61C124.67,718.26,122.26,716.15,119.66,712.11Zm21.57.33c-2.34,3.86-4.71,6.06-4.63,8.17.06,1.83,2.89,3.57,4.5,5.34,1.75-1.91,4.53-3.63,4.92-5.79C146.33,718.45,143.71,716.21,141.23,712.44Zm78.89-20.52c-3.15-2.63-5.27-5.62-6.77-5.34-2,.38-4.51,3.16-4.83,5.22-.23,1.44,2.7,4.62,4.45,4.8S216.81,694.23,220.12,691.92Zm-69.28-4.67c1.15,3.75-4.22,8.79,3,9.66,1.62.2,4.83-2.23,5.18-3.89C160.31,687.12,155.46,687.86,150.84,687.25Zm-50.65,9.52c3-1.67,4.54-3.29,6.07-3.24,1.73.05,3.41,1.61,6.45,3.22-2.1-5.58-3.67-9.77-5.25-14l-2.2-.08C103.71,687,102.16,691.3,100.19,696.77Zm315.7-10c-5.69-.8-8.64-.23-8.88,4.74-.17,3.62,1.52,5.75,4.93,5.38C420.45,696,412.53,690.05,415.89,686.75ZM237.72,684l-2.23-.65c-1.3,2.59-3.32,5.09-3.65,7.8-.19,1.59,2.31,3.51,3.6,5.28,1-1.66,2.5-3.23,2.76-5C238.55,689.08,237.93,686.53,237.72,684ZM258,692.17c-3.55-2-5.46-4-7.07-3.83s-3.25,2.5-4.86,3.89c1.85,1.62,3.48,3.91,5.63,4.6C252.75,697.17,254.76,694.64,258,692.17ZM133.58,725l2.64-.57c-1.14-3.11-1.89-6.48-3.66-9.17-.52-.78-5.48-.16-5.76.7-.92,2.77-.61,6-.78,9l1.74,0c.76-2.39,1.51-4.79,2.26-7.18l1.54.2C132.23,720.35,132.9,722.7,133.58,725Zm260.09-42v14.46c1.83-4.21,2.87-6.61,4.66-10.76,1.39,4.45,2.1,6.75,3,9.69C406,687.38,398,686.84,393.67,683.08Zm-345-19.77h7.86c0-2.32.09-3.83,0-5.33-.15-2.06-.45-4.11-.68-6.17l-6.3.88.33,2h5.31Zm5.92,33.25c-.63-4.73-1.17-8.71-1.71-12.7C47.74,689.35,49.21,695.23,54.63,696.56ZM123,761.93l1.82-.35c-.55-2.49-.36-5.72-1.88-7.26-1.36-1.38-4.6-.93-7.34-1.33.43,3.67.74,6.27,1.18,10l3.79-8.15C121.69,758.15,122.33,760,123,761.93ZM93.54,682.12l-4.66,2.46c1.31,4.66,2.31,8.23,3.31,11.8l1.35-.17ZM69.87,663.71c-2.06-4.59-3.66-8.14-5.26-11.69a19.67,19.67,0,0,0-.3,11C64.52,663.8,68.41,663.56,69.87,663.71Zm150.21,32,1.61.09L223,683.08l-2.92-.13ZM88.37,713.43l-3.28.31,1.65,12L89,725.4Z" transform="translate(-8.1 -11.62)"/><path class="cls-1" d="M39.09,944.15l.18-57.27c4.22,0,8.45-.11,12.67-.11H496.87V944c-2.79.17-5.14.44-7.5.44q-221.82,0-443.63,0C43.52,944.45,41.31,944.25,39.09,944.15Zm57.12-13.81c-1.63-9.3-3.1-17.69-5-28.4-4.94,8.12-6.56.45-9.69.26-13,9.63-15.83,16.29-12.15,28h6.94c2.09-3.46,3.61-6,5.14-8.51,1.61,2.6,3.21,5.21,5.32,8.63ZM360.5,899.73c-10.09-.05-14.7,3.09-14.71,10,0,10.48,7.93,23,14.6,23.06s14.82-12.72,14.87-23C375.29,902.92,370.69,899.78,360.5,899.73Zm-93.21,29.41c17.75,0,17.79-.07,17.22-13.89-.17-4.26-1.13-7.27-6.25-7.55-1.77-.1-3.4-2.3-5.2-2.49a52.33,52.33,0,0,0-11.26.07c-1.82.21-3.45,2.32-5.24,2.44-4.74.32-5.72,3-5.89,7.1-.59,14-.43,14.3,13.3,14.31Zm-93-23.47-2.65-.23q-2.08,10.29-4.18,20.59l2.25.6,4.18-6.2,2.89,7.08c3.56-7.67,6.72-14.16,4.17-22.55l-5.39,7.2C174.93,908.82,174.62,907.25,174.31,905.67ZM452.53,929a60.47,60.47,0,0,0,8-.09c1.74-.24,4.52-1.1,4.75-2.15.35-1.51-.78-3.84-2-5.15-4.19-4.46-15.38-4.59-19.61-.17-1.35,1.41-1.66,3.82-2.44,5.77a34.13,34.13,0,0,0,5.36,1.73A39.61,39.61,0,0,0,452.53,929Zm1-9.64c2.93-4.47,6-7.11,5.73-9.29s-3.88-5.72-6-5.72-5.51,3.65-5.73,5.93S450.43,915,453.5,919.34Z" transform="translate(-8.1 -11.62)"/><path class="cls-1" d="M494.38,157.57c-3.22-.42-6.44-1.22-9.66-1.22q-217.8-.09-435.6-.07c-9.9,0-9.9,0-9.93-9.59,0-15.83,0-15.83,15.89-15.68.45,0,.89,0,1.33,0h0l6.9,5.12c6.63,2.09,12.42.93,18.18-3.24,2.55-1.84,6.56-2.28,9.9-2.29q188-.15,376-.06c8,0,16,.18,24,0,4.36-.12,5.9,1.54,5.7,5.85-.3,6.66-.17,13.33-.22,20L495.56,158l-1.3-.28Z" transform="translate(-8.1 -11.62)"/><path class="cls-1" d="M496.87,886.78H51.94c-4.22,0-8.45.07-12.67.11V884c4.9,1.19,8.73.62,10.33-5.18.4-1.46,2.43-2.48,3.71-3.7a46.19,46.19,0,0,1,3.29,4.4,44.64,44.64,0,0,1,2.2,5.6c2.38-4.23,3.37-7.85,5.72-9.81,5.54-4.61,11.39.53,17.16.58,1.81,0,3.62,1,6,1.7-.13.89-.45,3.19-.78,5.48l1.55,1.4c1.5-1.43,3.74-2.61,4.34-4.35,1.37-3.94,2.66-6.33,7.55-4.31,3.08,1.28,7.87-4,9.78,1.76,2.33-.82,5.48-3,6.86-2.18,2.18,1.28,3.17,4.58,5.54,8.45a21.42,21.42,0,0,0,3.88.43q183.54,0,367.1,0c1.11,0,2.22-.12,3.33-.18Z" transform="translate(-8.1 -11.62)"/><path class="cls-1" d="M495.56,158l1.29-1.68c.13,2.21.37,4.42.37,6.63q0,204,0,408.08c0,2.44-.23,4.87-.35,7.31-21.44,0-42.87,0-64.3-.16a56.55,56.55,0,0,1-7.8-1.11l7-.32,13.21.08,19.88,0h10.82l18.62,0a47.72,47.72,0,0,0,1.08-7c.1-12-.55-24.05.2-36,.63-9.92-1.84-17.8-9.8-23.89-1.27-1-2.08-2.57-3.11-3.87l1.11-1.59L494,510.09c.28-.35,1-.85,1-1.35.2-9.11.31-18.22.45-27.33q0-9.2,0-18.37l0-30.94L493.24,418l-2.64.3v15.91l0,.12c-1,2.51-2.63,4.95-2.94,7.55-1.19,10.07-1.89,20.21-3,30.3-.18,1.59-1.55,3-2.37,4.56-.07-2.43-.33-4.88-.18-7.3.93-15.73,2-31.45,3-47.17,1.2-13.71,2.3-27.43,3.72-41.11.24-2.38,1.82-4.65,2.89-6.92s3.26-4.5,3.32-6.79c.37-13.34.3-26.68.32-40Q495.47,242.73,495.56,158Z" transform="translate(-8.1 -11.62)"/><path class="cls-1" d="M63.31,136.09,56.41,131c5.8.61,12-3.44,17.74,2.88Z" transform="translate(-8.1 -11.62)"/><path class="cls-1" d="M39.25,253.85c-.08-26.53-.19-53.06-.18-79.59,0-1.91.82-3.82,1.26-5.73L96.48,179c8.43,1.78,16.82,3.82,25.31,5.29,14.15,2.45,28.37,4.54,42.57,6.79l.39-.12q-.15,36.77-.29,73.54c-2.38-1.32-4.68-3.63-7.14-3.81-37.63-2.83-75.29-5.4-112.95-7.93C42.7,252.67,41,253.47,39.25,253.85Z" transform="translate(-8.1 -11.62)"/><path class="cls-1" d="M164.46,264.52q.14-36.76.29-73.54l1,.08c.1,18.45.12,36.89.33,55.33.08,7.59-1.87,15.62,4.24,22.13a5,5,0,0,1,.74,3.19c-.1,7.32.15,14.68-.58,22-1.7,16.92-5.12,33.76-5.62,50.69-.93,31.31-.23,62.66-.27,94,0,8.28-.9,8.77-9.27,9.26a47,47,0,0,0-11.3,2.56c-3.42,1.09-6.66,2.74-10,4.14.27-2.83.08-5.81.91-8.47,1.37-4.39,3.94-8.44,5-12.86,2.55-10.29-1.94-14.94-12.63-13.69-.06-13.31-.16-26.62-.16-39.93,0-29,.08-58,0-87.07,0-4.34.59-9.25-5.44-10.62l.06-1.13c0-.45-.06-.89-.08-1.33h40.52l2.16-7Z" transform="translate(-8.1 -11.62)"/><path class="cls-1" d="M39.27,375.2c-.05-11.69.14-23.39-.26-35.06-.2-5.74,1.49-8,7.48-7.63,8.18.5,16.4.21,24.61.26a77.08,77.08,0,0,0,8.52,1c11.34.19,22.67.36,34,.19,5.22-.08,7.14,2,7,7.11-.25,8.88-.29,17.79,0,26.67.15,5.36-1.75,7.61-7.31,7.57C88.61,375.16,63.94,375.22,39.27,375.2Z" transform="translate(-8.1 -11.62)"/><path class="cls-1" d="M40.66,160.26c2.24-.87,4.48-2.49,6.72-2.49q87.24-.2,174.48-.09,37.29,0,74.58.09c1.07,4.23,4.16,5.28,8,5.08q12.09-.61,24.17-1.26c20.51.15,41,.54,61.52.37,12.84-.1,25.67-1.27,38.51-1.5,7.51-.14,15.05,1.14,22.55.9,10.39-.34,20.75-1.72,31.14-2.22,3.89-.19,7.84.84,11.76,1.32q0,3.25,0,6.51c-4.64-1-9.27-2.84-13.94-2.92-6.61-.13-13.24,1.42-19.87,1.52-16.12.26-32.23.08-48.35.12-9.93,0-19.88-.13-29.8.26-14.4.58-28.79,1.37-43.15,2.48-7.87.6-16.07-3.09-23.61,1.72-5.06-4.72-10.95-1.85-16.54-1.84q-42.26,0-84.51,0c-4.13,0-8.25,0-12.38,0h-36l8.72-2.43a6.1,6.1,0,0,0-4.12-1.53C127.19,164,83.81,165.91,40.66,160.26Z" transform="translate(-8.1 -11.62)"/><path class="cls-1" d="M81.92,332.32c-10.35-.32-20.7-.77-31.06-.92s-10.4,0-10.37-10.13c0-2.88,0-5.76,0-8.63l37.31-2.39c-.25,6,2.84,9.11,8,7.89,2.14-.51,3.45-4.48,5.14-6.87-.15-1.26,1-1.47,1.89-1.06,6.59,3,13.6,3.34,19.66,0,5.72-3.17,7.34-.15,9.42,3.73q.12,20,.23,40c-.08-4.66-.45-9.35-.14-14,.34-5.13-1.41-7.11-6.74-7C104.13,333,93,332.53,81.92,332.32Z" transform="translate(-8.1 -11.62)"/><path class="cls-1" d="M81.92,332.32c11.11.21,22.21.67,33.31.54,5.33-.07,7.08,1.91,6.74,7-.31,4.63.06,9.32.13,14q-.21,12.06-.44,24.11c-.4,5.27-.4,10.62-1.37,15.78-.44,2.29-3.33,6.22-4.23,6-7.54-1.93-15.86-3.24-22-7.52-8.09-5.6-19.91-6.26-27.31.93-1.32,1.28-3.92,1.78-5.91,1.76-5.91-.08-11.81-.6-17.71-.95-1.35-1.9-3.59-3.69-3.85-5.72-.55-4.29-.06-8.7,0-13.06,24.67,0,49.34,0,74,.15,5.56,0,7.46-2.21,7.31-7.57-.25-8.88-.21-17.79,0-26.67.14-5.12-1.78-7.19-7-7.11-11.34.17-22.67,0-34-.19a77.08,77.08,0,0,1-8.52-1Z" transform="translate(-8.1 -11.62)"/><path class="cls-1" d="M121.66,378q.23-12.06.44-24.11-.1-20-.22-40l-.21-17.28,2.74-.12.15,40.14q-.14,51-.31,102.08c0,2.83-.78,5.66-1.2,8.49l-22.54,5.59c-2.11-.71-4.25-2.12-6.32-2-17.91,1-35.8,2.2-53.7,3.36.17-4.15-1.08-9.3.93-12.15,1.83-2.61,7.19-2.73,11-3.95l68.08-4q.63-7.86,1.25-15.7v-7.24Z" transform="translate(-8.1 -11.62)"/><path class="cls-1" d="M164.46,264.52v7.7l-94.56-3.81c-7.21-.5-14.41-1.2-21.63-1.46-9.35-.34-9.36-.19-9.17-9.8,0-1.1.1-2.2.16-3.3,1.71-.38,3.45-1.18,5.12-1.07,37.66,2.53,75.32,5.1,113,7.93C159.78,260.89,162.08,263.2,164.46,264.52Z" transform="translate(-8.1 -11.62)"/><path class="cls-1" d="M124.41,296.51l-2.74.12-61.32-1.29c-4-.09-8-.16-12-.27-5.26-.15-8-2.25-8-8.14.14-10,.25-10.83,10.4-10.37,23.69,1.09,47.36,2.62,71.05,4l-.06,1.13,2.79,9.48Z" transform="translate(-8.1 -11.62)"/><path class="cls-1" d="M60.35,295.34l61.32,1.29.21,17.28c-2.08-3.88-3.7-6.9-9.42-3.73-6.06,3.37-13.07,3.07-19.66,0-.88-.41-2-.2-1.89,1.06-1.69,2.39-3,6.36-5.14,6.87-5.13,1.22-8.22-1.9-8-7.89l-37.31,2.39-.06-4.12,23.78-1.72c-2.64-2.85-5.75-5.43-9.1-5.8-4.76-.51-9.69.6-14.55,1,3.14-.93,6.31-1.78,9.42-2.83C53.47,298,56.9,296.63,60.35,295.34Z" transform="translate(-8.1 -11.62)"/><path class="cls-1" d="M121.66,378l.09,33.14c-3.45-4.15-7.31-3.87-10.33,0-1.35,1.72-1.84,6.64-1.18,7,3.57,1.75,7.64,7,11.51.27q-.63,7.85-1.25,15.7c.3-10.63.3-10.77-10.31-10.53-7.25.17-14.49.78-21.73,1.19,1.87-2.2,3.63-4.5,5.62-6.59,3.07-3.23,3-5.87-.28-6.77-5.55-1-11.07-2.16-16.66-2.76-2-.21-4.06,1.05-6.09,1.64q0,.63-.09,1.26l-8.47-6.38L63.75,412l-6.12-2.07,6.43-12.83-20.91-1.83c0-.42,0-.84,0-1.25,5.9.35,11.8.87,17.71.95,2,0,4.59-.48,5.91-1.76C74.13,386,86,386.64,94,392.24c6.16,4.28,14.48,5.59,22,7.52.9.23,3.79-3.7,4.23-6C121.26,388.61,121.26,383.26,121.66,378ZM88.92,402.24l.65,1.51c1.29-1.05,3.27-1.86,3.74-3.2,1.28-3.65-4.92-10.63-8.79-10.43-2.77.15-6.09-.88-8.21.31-2.85,1.6-5.9,4.48-6.84,7.45-1.16,3.64,2.4,4.42,5.58,4.38C79.67,402.2,84.29,402.24,88.92,402.24Z" transform="translate(-8.1 -11.62)"/><path class="cls-1" d="M40.49,454.16c17.9-1.16,35.79-2.4,53.7-3.36,2.07-.11,4.21,1.3,6.32,2l.13,2.56c-1,11.88-1.37,12.23-12.92,12.13-3.76,0-7.52,0-11.27,0-12.54-.57-25.12-1.26-34,11.75-.68-.79-1.36-1.57-2-2.36V463.45c.42-1.07,1.25-2.16,1.19-3.2A44,44,0,0,0,40.49,454.16Z" transform="translate(-8.1 -11.62)"/><path class="cls-1" d="M88.46,424.73c7.24-.41,14.48-1,21.73-1.19,10.61-.24,10.61-.1,10.31,10.53l-68.08,4c-1.09-.08-2.18-.23-3.27-.23-10.18.05-10.18.06-9.93-10.33l29.31-1.68,6.58.1Z" transform="translate(-8.1 -11.62)"/><path class="cls-1" d="M69.89,268.41l94.56,3.81-2.16,7H121.77c-9.53-1.36-19-3.3-28.61-3.92-15.42-1-30.9-1.13-46.35-1.7a40.55,40.55,0,0,1-5.31-.88l.07-1.84Z" transform="translate(-8.1 -11.62)"/><path class="cls-1" d="M96.48,179,40.33,168.53l10.9-.3c13.34-.89,26.69-1.81,40-2.63,2.62-.17,5.27.08,7.91.14,2.92,1.32,5.73,3,8.79,3.89,14.15,4,28.37,7.81,42.57,11.69l-.33,2.24c-3.12-.28-6.24-.57-9.37-.83Z" transform="translate(-8.1 -11.62)"/><path class="cls-1" d="M88.46,424.73l-13.35,1.19,10.32-3.26-.13-2.25-17.71-1.68-.34,1.57,3.39,2-2.11,3.48L39.22,427.5q.48-6.6,1-13.21l17.44-4.4L63.75,412l-1.26-6.83L71,411.51c-.21,1.1-1,2.86-.57,3.19,4.14,3.36,16.27,2.09,20.76-2l2.65-1.36c3.31.9,3.35,3.54.28,6.77C92.09,420.23,90.33,422.53,88.46,424.73Z" transform="translate(-8.1 -11.62)"/><path class="cls-1" d="M494.1,160.46c-3.92-.48-7.87-1.51-11.76-1.32-10.39.5-20.75,1.88-31.14,2.22-7.5.24-15-1-22.55-.9-12.84.23-25.67,1.4-38.51,1.5-20.5.17-41-.22-61.52-.37l16.68-3.76,149.08-.26-.12.14C494.21,158.63,494.16,159.54,494.1,160.46Z" transform="translate(-8.1 -11.62)"/><path class="cls-1" d="M99.17,165.74c-2.64-.06-5.29-.31-7.91-.14-13.34.82-26.69,1.74-40,2.63-1.45-.34-2.91-1-4.35-.95-5.1.23-7.13-2-6.22-7,43.15,5.65,86.53,3.72,129.85,4.14a6.1,6.1,0,0,1,4.12,1.53l-8.72,2.43q-.06,11.35-.14,22.7l-1-.08-.39.12c0-6.22,0-12.44.15-18.66.13-3.93-1.44-5.61-5.43-5.67C139.11,166.5,119.14,166.1,99.17,165.74Z" transform="translate(-8.1 -11.62)"/><path class="cls-1" d="M57.63,409.89l-17.44,4.4c.07-4.31-.14-8.66.33-12.93.24-2.12,1.71-4.09,2.63-6.13l20.91,1.83Z" transform="translate(-8.1 -11.62)"/><path class="cls-1" d="M345.3,157.83l-16.68,3.76q-12.09.63-24.17,1.26c-3.85.2-6.94-.85-8-5.08Z" transform="translate(-8.1 -11.62)"/><path class="cls-1" d="M40.56,302c4.86-.41,9.79-1.52,14.55-1,3.35.37,6.46,2.95,9.1,5.8l-23.78,1.72Q40.5,305.27,40.56,302Z" transform="translate(-8.1 -11.62)"/><path class="cls-1" d="M40.61,563.71l0-4c10.61,1.06,21.16,1.91,30.82-4.31,1.33-.85,3.52-.25,5.15-.8,3.75-1.26,8.85-1.76,10.82-4.46a48.43,48.43,0,0,1,19-15.82,36.31,36.31,0,0,0,7.11-4.9c4.84-3.94,4.89-8.45-.16-12.06-2.25-1.62-5.21-2.28-7.88-3.29-6.61-2.49-13.86-4-19.67-7.7-4.39-2.81-8.34-4.58-13.36-4.32l6.22-13c2.78-.36,7.4-.77,12-1.58,3.34-.59,6.58-1.69,9.87-2.57q1.35,3.33,2.72,6.66c7.26.44,15.27,3,21.61.82,10.2-3.55,20.19-3.49,30.46-3.47,5.43.72,11.5.15,16.18,2.43,12.31,6,24.34,12.79,33.08,23.91l-20.07.88c0,.73,0,1.47,0,2.2l5.86,1.91-8.6,2c0,.54.08,1.09.13,1.63l7.59,2.36-10.19,2.55.31,2.65c3.83,0,7.86.75,11.43-.22,3.25-.88,6-3.61,10.06-6.24-1.07,2.89-1.58,4.27-1.9,5.11,6.77,5.55,8.93-2.55,13.68-4.62-1.61,6.88-.51,7.65,8.95,7.27v-6.83l6.77,1.55-3.33,3c1,.64,2.14,1.9,3.09,1.79,2-.23,3.88-1.19,5.81-1.85l-2.64-3c.4-.44.8-.87,1.19-1.31h6.75c-.61,1.86-1.08,3.29-1.38,4.22,7.12,6.76,8-5.66,13-4,.4,2.26.32,5.19,1.08,5.43a12.54,12.54,0,0,0,7,0c.71-.2.64-3.14,1-5.27l5.29.4c-.31,2.09-.53,3.61-.76,5.14l7.68.28V527l5.4.64c.11,1.95,0,4.36.31,4.43a18.32,18.32,0,0,0,7.05.39c.63-.12.71-3.06,1.47-6.88,1.84,2.42,2.61,4.07,3.9,5a44,44,0,0,0,6.28,3.17c.39-1.6.77-3.21,1.16-4.81.09-.36.2-.72.38-1.33l4.19.24c1.61,2.64,2.24,5,3.66,5.64a6.59,6.59,0,0,0,5.54-.46c.78-.49.14-3.23.14-5.13h6.19q-1.05,2.52-2.08,5c2.62.07,4.29-.46,5-1.59,2.61-4.39,4.22-4.35,9-1.45,4.11,2.48,10.9.6,16.49.41.41,0,.76-1.91,1.13-2.92L370,528.48l-14.5,3.2,3.85,2.77L372.85,537H348.3l-.35,2.07,3.44,2a53.7,53.7,0,0,0,6.48,1.07c4.64.22,9.67-.93,13.82.54s7.1,1.25,10.53-1c3.81-2.44,6.14-.67,7.56,3.1.43,1.14,1,2.21,2,4.39l6.56-7.17,5.21,5.45c-3.1,4.5-8.74,8.53-2.81,14.82,0,0-1.73,1.71-2.66,2.62l-2.81-2.45L388.85,557l6.38-1.28-.18-3.05a96.91,96.91,0,0,0-10.09.23c-.26,0-.17,3.34-.25,5.13l.09,6.89c-4.74-1.65-8.64-3.48-14.72-1.95-4.81,1.21-11.41-2.14-17.27.59-.2.09-.68-.66-1.06-.7-3.08-.32-6.17-.5-9.24-.86a45.84,45.84,0,0,1-4.49-.93l-1.48-5.59c-1.17-1.61-2.05-4-3.61-4.62s-3.92.54-5.93.92l2,3.67L325,557l-1.71-5.22-9.24-2.39.15-3.25,9.86,1.38.12-2.8c-3.37-1.35-6.79-4.41-9.94,1.43l-3.06,1.33c-1.49-1.66-2.94-4.64-4.46-4.67-2,0-4.07,2.21-6.11,3.48L297.78,544c-3.5-2-7-3.1-10.86.06,3.22,4.9,7,3.66,10.92,1.93.07,1,.13,2,.19,3l-74.78-.33c.46-.78.91-1.57,1.36-2.35l3.31-3.32c-1.29-.67-2.52-1.73-3.87-1.94a34.2,34.2,0,0,0-6,.07l-2.9,0-11.63,1.48-4.47,2.2c2-4-.93-3.88-3.36-3.9-5.89-.06-11.81-.26-17.66.22-1.78.14-3.39,2.31-5.07,3.56q-1.47,1.67-2.93,3.35c1.42,1.26,2.8,3.52,4.26,3.58,3.4.12,6.85-.83,10.27-1.34l2.76,5.44-1.87,4-.56-1.91c-4,.18-8,.1-11.92.6-4.91.62-7.68,3.71-7.24,8.7.45,5.17,4.82,4.39,8.23,4.46,15.48.35,31,.57,46.46.84,34,.59,67.94,1,101.91,1.83,19.06.46,38.12,1.56,57.18,2.37-2.89.08-5.77.25-8.66.24q-66.66,0-133.31-.07l-172-.15c-1.86-1.75-3.44-4.11-5.63-5.12C53.64,568.63,47.08,566.28,40.61,563.71Zm322.62-15c.07-1.29.13-2.59.2-3.88L343.3,544l-.18,3.47ZM176.87,535l0,1.78h18.24l0-1.78Zm203.47,21.62c.18-.92.35-1.85.53-2.78-3.17-3.6-6.89-2.53-10.64-1.13l-.33,2.3Zm-135-23.38L240,536.9c1.52.84,3,2.33,4.58,2.35s3.22-1.37,4.84-2.14C248.22,536,247,534.87,245.31,533.23ZM232,542.5c.1,1.12.19,2.24.28,3.36l9.23-.75c-.06-.87-.11-1.74-.16-2.61Zm-5.3-7.36-.06,3.37c2.82,0,5.65.07,8.45-.14.19,0,.23-2.11.34-3.23Zm80.55,1.18c-.07,1.1-.14,2.2-.22,3.3,2.78.17,5.56.41,8.33.38a20.38,20.38,0,0,0,.45-3.25Zm-54.05.37.06,2c2.86,0,5.74.1,8.58-.13.35,0,.57-1.8.84-2.77-2.5-.19-5-.49-7.5-.51C254.51,535.33,253.85,536.21,253.19,536.69Zm40.73-.53c0,1.12-.09,2.24-.13,3.36,2.77,0,5.54.06,8.29-.12.19,0,.27-1.8.39-2.76Zm35.77,6.74c-.2,1.2-.41,2.41-.62,3.62l9.26.77.36-3.11ZM267,536.14c5.66,4.51,7.38,4.15,9.22-1.08Zm83.45,19.32.48-3.21-10-1.21c-.14.94-.29,1.89-.44,2.83Zm-67.88-10.05c0-.79,0-1.59,0-2.38h-9v2.38Zm74,7.21c-.07.68-.14,1.35-.22,2h9.85c0-.67,0-1.34.05-2Zm-34.45-16.31-.9,3.45c2.72.27,5.43.61,8.15.69.24,0,.54-1.74.81-2.67Zm-53,9c-.06-1-.11-2-.16-3l-9.09.47.13,2.53Z" transform="translate(-8.1 -11.62)"/><path class="cls-1" d="M72.39,502.08c5-.26,9,1.51,13.36,4.32,5.81,3.73,13.06,5.21,19.67,7.7,2.67,1,5.63,1.67,7.88,3.29,5,3.61,5,8.12.16,12.06a36.31,36.31,0,0,1-7.11,4.9,48.43,48.43,0,0,0-19,15.82c-2,2.7-7.07,3.2-10.82,4.46-1.63.55-3.82,0-5.15.8-9.66,6.22-20.21,5.37-30.82,4.31q0-23.6,0-47.18Z" transform="translate(-8.1 -11.62)"/><path class="cls-1" d="M72.39,502.08l-31.8,10.48c0-7.32-.41-14.66.09-21.94.15-2.11,2.43-4.63,4.4-5.93,2.9-1.89,6.55-2.59,9.6-4.3,2.62-1.48,4.07-1.51,4.62,1.74,1.89,1.09,3.78,3.12,5.66,3.11,8.84,0,17.68-.72,26.52-1a82,82,0,0,1,9,.65c-3.29.88-6.53,2-9.87,2.57-4.56.81-9.18,1.22-12,1.58Z" transform="translate(-8.1 -11.62)"/><path class="cls-1" d="M100.44,484.91a82,82,0,0,0-9-.65c-8.84.26-17.68.94-26.52,1-1.88,0-3.77-2-5.66-3.11.41-.77,1.2-1.56,1.17-2.32-.34-9.64,5.71-11.49,13.54-11.36a7.5,7.5,0,0,0,2.44-.93c3.75,0,7.51,0,11.27,0,11.55.1,11.93-.25,12.92-12.13,4,.12,8.2-.49,11.91.62,2.75.82,4.84,3.86,7.23,5.91l-4.58,4.29c2.25-7.61-4.47-6.08-7.92-7.87,1.54,3.76,1.71,8.92,8,7.86,0,.4,0,.81,0,1.21l-5.52,1.22c-4.87-.35-6.87,2-6.56,6.77.17,2.65,0,5.32,0,8s0,5.47,0,8.21Q101.8,488.24,100.44,484.91Z" transform="translate(-8.1 -11.62)"/><path class="cls-1" d="M65.59,576.65l172,.15q66.66.06,133.31.07c2.89,0,5.77-.16,8.66-.24l17.27,0h20.14c-3.61-3.65-6.28-6.55-9.17-9.21s-4-5.67-1.91-9.35l1.71-2.43,19.85,10.66a23.89,23.89,0,0,0-1.78,1.85c-1.32,1.67-2.58,3.38-3.87,5.07a56.29,56.29,0,0,0,5.66,2.29,15.87,15.87,0,0,0,3.86.21c.14.34.28.66.43,1l-7,.32c-16.87.34-33.74,1-50.61,1q-164.19.16-328.39.12c-2.22,0-4.44.15-6.66.23l1.59-1.66Z" transform="translate(-8.1 -11.62)"/><path class="cls-1" d="M65.59,576.65l-24.9.07q0-6.51-.08-13c6.47,2.57,13,4.92,19.35,7.82C62.15,572.54,63.73,574.9,65.59,576.65Z" transform="translate(-8.1 -11.62)"/><path class="cls-1" d="M447.51,774.59c-.87.65-2.44,1.24-2.5,1.95-.3,4.21-.05,8.46-.37,12.66-.46,6-3.56,9.43-9.88,9.37-1.77,0-3.55,0-5.33,0H147.94c-12.71,0-14.08-1.39-14.09-14.23,0-11.12,0-22.24,0-33.36,0-10.57,1.95-12.5,12.47-12.51q120.07,0,240.13,0c15.79,0,31.57,0,47.36,0,8.17,0,10.73,2.57,11,10.75.16,4.85,0,9.7,0,15.36l4-3.41Q448.19,767.9,447.51,774.59ZM289.36,743.87q-70.41,0-140.82,0c-8.32,0-9.19.8-9.26,8.41-.09,9.79,0,19.59,0,29.38,0,11.48,0,11.52,11.51,11.52H401c10,0,20-.12,30,0,5.12.07,7.22-2.18,7.16-7.24-.13-10.9,0-21.81,0-32.71,0-9.16-.24-9.39-9.35-9.39Q359.1,743.85,289.36,743.87Z" transform="translate(-8.1 -11.62)"/><path class="cls-1" d="M447.51,774.59q.67-6.69,1.37-13.37a19,19,0,0,1,17.19-6.56c7.46.87,13.51,6.89,13.65,13.85s-5.4,13.27-13.08,14.37c-5.37.76-10.81,1-15.33,1.46C450,780.94,448.75,777.76,447.51,774.59Z" transform="translate(-8.1 -11.62)"/><path class="cls-1" d="M62.18,597.82c4.18-.37,8.35-.9,12.54-1.1,7.22-.33,12.75,7,9.09,13.82-3.23,6-9,10.66-13.77,15.73-.57.59-2.92.57-3.46,0-4.91-5.52-10.72-10.66-14-17.07C49.45,603.14,55.36,596.45,62.18,597.82Z" transform="translate(-8.1 -11.62)"/><path class="cls-1" d="M74,773.5c-6.13,3.52-11.16.41-15.66-3.17-4.91-3.91-7-9.67-4.53-15.42,1.63-3.7,5.83-6.2,8.53-9.52,4-4.87,7.38-2.64,11.42,0,2.28,1.47,5.36,1.71,8.08,2.5-2.07,1.82-5.53,3.37-5.94,5.5C74.63,759.94,74.53,766.76,74,773.5Z" transform="translate(-8.1 -11.62)"/><path class="cls-1" d="M65.71,842.87c-5.77-1.55-9-5.6-10.31-11.13a14.57,14.57,0,0,1,9.85-17.43A14,14,0,0,1,82,821.79c3.62,7.37,1,15.1-6.71,19.78l-2.91-3.08,3.38-1.75c-.34-.64-.67-1.29-1-1.94l-12.93-1.42.46-6.86c12.54-.18,12.54-.18,16,5.56,1.37-5.82.87-11.13-4.69-13.11-3.6-1.29-10.22-1.41-11.86.73-2.58,3.37-4.59,9.19.1,13.68l4,5C65.8,839.91,65.76,841.39,65.71,842.87Z" transform="translate(-8.1 -11.62)"/><path class="cls-1" d="M106.74,629c-1.17-3.83-2-7.31-3.3-10.65-2.91-7.85,1.35-16.2,9.83-18.93,9.18-3,19.58,1.6,22.06,9.66s-2.45,16.28-11.83,18.26C117.79,628.57,111.82,628.55,106.74,629Zm2.78-3.84c4,0,7.49.17,11,0,6.51-.4,11.56-4.44,12.5-9.95,1-5.82-1.78-9.78-6.69-12.46-5.39-2.94-13-2-17.27,2.22s-5.26,9-2,14.36A39.93,39.93,0,0,1,109.52,625.18Z" transform="translate(-8.1 -11.62)"/><path class="cls-1" d="M74,773.5c.54-6.74.64-13.56,1.9-20.16.41-2.13,3.87-3.68,5.94-5.5C89.8,758.22,86.44,769.19,74,773.5Z" transform="translate(-8.1 -11.62)"/><path class="cls-1" d="M256.46,827.36c.4,4.22-3.94,4.46-7.82,4.07-1.47-.15-4.06-3.32-3.73-4.31.7-2.12,2.76-5,4.65-5.28,5.48-1,11.15-.83,18.31-1.21-.91,3.15-2,6.9-3.09,10.65Z" transform="translate(-8.1 -11.62)"/><path class="cls-1" d="M130.4,695.2c-.36-1.57-.79-3.43-1.63-7.06-1.34,3.64-2.09,5.67-3.35,9.06l-2.26-7.93-1.35-.21-2.3,7-1.62-.19c.17-2.85-.34-7.84.65-8.16,3.76-1.21,8-1,12.08-1.15a33.46,33.46,0,0,1,5.84.2c2,.26,5.28.36,5.66,1.4a10.43,10.43,0,0,1-.29,7.32c-.44,1-3.75.86-5.76.84A33,33,0,0,1,130.4,695.2Z" transform="translate(-8.1 -11.62)"/><path class="cls-1" d="M95.7,830.58V818.31c4.77,2.62,8.6,6.49,14.15,3.39.81-.45,3.63,2.7,5.53,4.19-1.53,1.84-2.92,5.07-4.62,5.25C106,831.64,101.09,830.88,95.7,830.58Z" transform="translate(-8.1 -11.62)"/><path class="cls-1" d="M184.64,821.3l16.4-.14c-.13-.46-.25-.92-.37-1.37l5.15,3.59v6.49l-5.68.62-1.92-6.57c-1,3-1.55,4.8-2.09,6.43-5.7,1.07-11.72,2.72-12.64-6C183.87,823.33,184.25,822.32,184.64,821.3Z" transform="translate(-8.1 -11.62)"/><path class="cls-1" d="M215.67,824.73l-2.52,4.94-1.5.08c0-2-.76-4.65.21-6s3.67-1.69,5.68-1.95c1.58-.21,3.26.38,4.9.6,2.39.31,6.6.11,6.84,1a18.28,18.28,0,0,1-.35,9c-.26,1-3.49,2.42-4.26,1.93a37,37,0,0,1-6.85-6.24c-.61-.66-.5-2-.72-3Z" transform="translate(-8.1 -11.62)"/><path class="cls-1" d="M344.79,695.74l-13,.63-6.46-9.7h19.5Q344.82,691.2,344.79,695.74Z" transform="translate(-8.1 -11.62)"/><path class="cls-1" d="M71.07,690.45c-4.75,1.28-7,11-13.19,4.41-1.73-1.86-1.71-8.26,0-10C65.19,677.7,66.22,688.94,71.07,690.45Z" transform="translate(-8.1 -11.62)"/><path class="cls-1" d="M282.18,687.81l5.64,1.69c2.92-3.28,10.42-5.12,12.35-1.81,1.19,2,0,5.46-.1,8.27l-8.9-1.11c0-.68-.07-1.35-.1-2l-4.3,4.79-4.69-9.92Z" transform="translate(-8.1 -11.62)"/><path class="cls-1" d="M95.71,754.42c5.12-1.93,8.23-4.12,11.07-3.81,1.79.2,4.52,4.24,4.36,6.37s-4.4,6.12-5,5.79C102.88,761.09,100.24,758.27,95.71,754.42Z" transform="translate(-8.1 -11.62)"/><path class="cls-1" d="M62.51,713.26v9.91l-1,.24c-.56-1.66-1.12-3.32-1.4-4.13L51,725.81l-2.11-1.39c1.11-3.72,1.31-8.3,3.68-10.86C54.07,711.93,58.79,713.26,62.51,713.26Z" transform="translate(-8.1 -11.62)"/><path class="cls-1" d="M160,822.39c-8.62-3-6.34,7.78-13,8.87,1.18-3,2.1-5.45,3.21-8.35L145,819.37h20.41l-6.17,12.18-2.19-.88C158,828,159,825.35,160,822.39Z" transform="translate(-8.1 -11.62)"/><path class="cls-1" d="M173.87,686.76c4.69,2.22,10.67-3.48,14.77,2.4l-.1-.16c.27,11.36-7.46,6.92-13.1,6.63L174,687.92A8.93,8.93,0,0,1,173.87,686.76Z" transform="translate(-8.1 -11.62)"/><path class="cls-1" d="M272.48,684.21c-1.19,4.16-1.66,11.44-3.71,11.92-8.12,1.88-9-3-5.11-8.93,1.18-1.76,4.33-2.21,6.57-3.25Z" transform="translate(-8.1 -11.62)"/><path class="cls-1" d="M303.8,690.59c2.53-1.47,5-4,7.61-4,1.75,0,3.59,3.32,5.39,5.16-1.86,1.74-3.62,4.74-5.6,4.89-2.34.17-4.87-2.11-7.31-3.32Z" transform="translate(-8.1 -11.62)"/><path class="cls-1" d="M135.27,828.18c-3.28,5.35-6.86,3.35-10.48.43l-.21-4.82c.89-1.64,1.79-3.27,3-5.47l7.79,6.48Z" transform="translate(-8.1 -11.62)"/><path class="cls-1" d="M95.14,662.43l-13.54.13q.74-4,1.48-8l12,1.08Z" transform="translate(-8.1 -11.62)"/><path class="cls-1" d="M101.79,723.94c-1.18.57-2.39,1.68-3.52,1.59A49.65,49.65,0,0,1,91.16,724l3-5.81-2.43-.51c3.22-6.21,6.81-.29,10-.67C101.77,719.31,101.78,721.62,101.79,723.94Z" transform="translate(-8.1 -11.62)"/><path class="cls-1" d="M184.64,821.3c-.39,1-.77,2-1.15,3.05-.54,2.06-1.07,4.13-2,7.57l-4.34-6.26-3.89,6.59c-1.55-5-2.62-8.54-3.7-12l1.28-.61,3,4.22,3.34-5.2c1.32,2,2.35,3.57,3.18,4.85l4-3.44a4.6,4.6,0,0,1,.25.61A4.8,4.8,0,0,1,184.64,821.3Z" transform="translate(-8.1 -11.62)"/><path class="cls-1" d="M81.66,689.08c-1.8,3-3.21,5.33-4.61,7.67l-4.23-11c5.42.72,9.59.28,12.41,2,1.56,1,.86,5.59,1.18,8.56l-2.16.33C83.45,694.35,82.64,692,81.66,689.08Z" transform="translate(-8.1 -11.62)"/><path class="cls-1" d="M377.69,691.19c-3.27,2.73-5.3,5.65-6.85,5.42-2.12-.32-5-2.8-5.44-4.82-.34-1.47,2.58-5.13,4.24-5.26C371.68,686.37,373.94,688.86,377.69,691.19Z" transform="translate(-8.1 -11.62)"/><path class="cls-1" d="M119.66,712.11c2.6,4,5,6.15,5,8.26,0,1.88-2.69,3.74-4.2,5.61-1.91-1.73-5-3.24-5.38-5.24S117.25,716.36,119.66,712.11Z" transform="translate(-8.1 -11.62)"/><path class="cls-1" d="M141.23,712.44c2.48,3.77,5.1,6,4.79,7.72-.39,2.16-3.17,3.88-4.92,5.79-1.61-1.77-4.44-3.51-4.5-5.34C136.52,718.5,138.89,716.3,141.23,712.44Z" transform="translate(-8.1 -11.62)"/><path class="cls-1" d="M188.64,689.16c.51-.76,1.07-2.18,1.54-2.15a33.71,33.71,0,0,1,5.29,1.06c.22-.57.44-1.14.67-1.71l2.57,3.53,2.77-3.22,1.26.6c-.88,3.14-1.76,6.29-2.94,10.49l-4-4.33L192,697.37,188.54,689Z" transform="translate(-8.1 -11.62)"/><path class="cls-1" d="M282.08,687.7a21.72,21.72,0,0,1-.55,3.88c-.91,2.81-1.34,7-5.72,4.9-1.71-.82-3.4-4.31-3.06-6.23.69-4,3.79-5.11,7.6-3.2.59.29,1.22.51,1.83.76Z" transform="translate(-8.1 -11.62)"/><path class="cls-1" d="M220.12,691.92c-3.31,2.31-5.37,4.86-7.15,4.68s-4.68-3.36-4.45-4.8c.32-2.06,2.85-4.84,4.83-5.22C214.85,686.3,217,689.29,220.12,691.92Z" transform="translate(-8.1 -11.62)"/><path class="cls-1" d="M150.84,687.25c4.62.61,9.47-.13,8.22,5.77-.35,1.66-3.56,4.09-5.18,3.89C146.62,696,152,691,150.84,687.25Z" transform="translate(-8.1 -11.62)"/><path class="cls-1" d="M100.19,696.77c2-5.47,3.52-9.76,5.07-14l2.2.08c1.58,4.18,3.15,8.37,5.25,14-3-1.61-4.72-3.17-6.45-3.22C104.73,693.48,103.14,695.1,100.19,696.77Z" transform="translate(-8.1 -11.62)"/><path class="cls-1" d="M124.58,823.79l.21,4.82-8.29,3.59V818.3Z" transform="translate(-8.1 -11.62)"/><path class="cls-1" d="M76.32,724.11l-3.46,1.36c-.78-2.66-1.52-5.14-2.25-7.62l-1.71-.07q-1.16,3.63-2.32,7.27l-1.83-.12c.19-2.95-.64-6.78.9-8.55,1.21-1.39,5.36-.26,8.19-.14a11.33,11.33,0,0,1,2.48.64Z" transform="translate(-8.1 -11.62)"/><path class="cls-1" d="M415.89,686.75c-3.36,3.3,4.56,9.21-3.95,10.12-3.41.37-5.1-1.76-4.93-5.38C407.25,686.52,410.2,686,415.89,686.75Z" transform="translate(-8.1 -11.62)"/><path class="cls-1" d="M237.72,684c.21,2.49.83,5,.48,7.44-.26,1.76-1.8,3.33-2.76,5-1.29-1.77-3.79-3.69-3.6-5.28.33-2.71,2.35-5.21,3.65-7.8Z" transform="translate(-8.1 -11.62)"/><path class="cls-1" d="M258,692.17c-3.2,2.47-5.21,5-6.3,4.66-2.15-.69-3.78-3-5.63-4.6,1.61-1.39,3.1-3.66,4.86-3.89S254.41,690.12,258,692.17Z" transform="translate(-8.1 -11.62)"/><path class="cls-1" d="M135.27,828.18l.09-3.38c1.14-.85,2.19-2.17,3.45-2.42,1.76-.36,3.68.09,6.85.26l-5.58,12.49C135.44,833.17,142.2,827.37,135.27,828.18Z" transform="translate(-8.1 -11.62)"/><path class="cls-1" d="M133.58,725c-.68-2.34-1.35-4.69-2-7l-1.54-.2c-.75,2.39-1.5,4.79-2.26,7.18L126,725c.17-3-.14-6.2.78-9,.28-.86,5.24-1.48,5.76-.7,1.77,2.69,2.52,6.06,3.66,9.17Z" transform="translate(-8.1 -11.62)"/><path class="cls-1" d="M393.67,683.08c4.29,3.76,12.31,4.3,7.68,13.39-.92-2.94-1.63-5.24-3-9.69-1.79,4.15-2.83,6.55-4.66,10.76Z" transform="translate(-8.1 -11.62)"/><path class="cls-1" d="M95.14,662.43l0-6.79c2.32,0,5.49-.86,6.72.3s.35,4.36.41,6.67Z" transform="translate(-8.1 -11.62)"/><path class="cls-1" d="M76.32,724.11v-7.23l6.27-1.39.2,2.12H80.17c1,2.2,1.91,4.41,2.86,6.62Z" transform="translate(-8.1 -11.62)"/><path class="cls-1" d="M48.71,663.31l6.5-8.57H49.9l-.33-2,6.3-.88c.23,2.06.53,4.11.68,6.17.11,1.5,0,3,0,5.33Z" transform="translate(-8.1 -11.62)"/><path class="cls-1" d="M54.63,696.56c-5.42-1.33-6.89-7.21-1.71-12.7C53.46,687.85,54,691.83,54.63,696.56Z" transform="translate(-8.1 -11.62)"/><path class="cls-1" d="M83.08,654.56q-.75,4-1.48,8l-4.78.79V651.8Z" transform="translate(-8.1 -11.62)"/><path class="cls-1" d="M101.79,723.94c0-2.32,0-4.63,0-7l7.16-1.79.09,1.59-5.48,3.6,5.93,3.57C107.3,726.79,104.7,726.88,101.79,723.94Z" transform="translate(-8.1 -11.62)"/><path class="cls-1" d="M123,761.93c-.65-1.89-1.29-3.78-2.43-7.12L116.76,763c-.44-3.7-.75-6.3-1.18-10,2.74.4,6,0,7.34,1.33,1.52,1.54,1.33,4.77,1.88,7.26Z" transform="translate(-8.1 -11.62)"/><path class="cls-1" d="M93.54,682.12v14.09l-1.35.17c-1-3.57-2-7.14-3.31-11.8Z" transform="translate(-8.1 -11.62)"/><path class="cls-1" d="M173.87,686.76a8.93,8.93,0,0,0,.1,1.16l-3.75,8.83-1.75.14-4.05-9.39,1.46-.87L169,691Z" transform="translate(-8.1 -11.62)"/><path class="cls-1" d="M69.87,663.71c-1.46-.15-5.35.09-5.56-.67a19.67,19.67,0,0,1,.3-11C66.21,655.57,67.81,659.12,69.87,663.71Z" transform="translate(-8.1 -11.62)"/><path class="cls-1" d="M72.38,838.49l2.91,3.08-9.58,1.3c.05-1.48.09-3,.14-4.44Z" transform="translate(-8.1 -11.62)"/><path class="cls-1" d="M220.08,695.76V683l2.92.13-1.31,12.77Z" transform="translate(-8.1 -11.62)"/><path class="cls-1" d="M344.79,695.74q0-4.54,0-9.07c8.45-1,10.6,1.59,7.58,9.12-.32-.22-.81-.36-.94-.66-.87-2.07-1.66-4.17-2.48-6.27Z" transform="translate(-8.1 -11.62)"/><path class="cls-1" d="M88.37,713.43l.6,12-2.23.31-1.65-12Z" transform="translate(-8.1 -11.62)"/><path class="cls-1" d="M96.21,930.34H86.79c-2.11-3.42-3.71-6-5.32-8.63-1.53,2.52-3,5-5.14,8.51H69.39c-3.68-11.73-.83-18.39,12.15-28,3.13.19,4.75,7.86,9.69-.26C93.11,912.65,94.58,921,96.21,930.34Z" transform="translate(-8.1 -11.62)"/><path class="cls-1" d="M360.5,899.73c10.19,0,14.79,3.19,14.76,10.09-.05,10.25-8.3,23-14.87,23s-14.61-12.58-14.6-23.06C345.8,902.82,350.41,899.68,360.5,899.73Zm-11.84,11.12c.12,8.39,6.78,19,11.85,19s11.94-11.52,11.88-19.81c0-4.83-5-7.87-12.35-7.64C352,902.62,348.58,905.13,348.66,910.85Z" transform="translate(-8.1 -11.62)"/><path class="cls-1" d="M267.29,929.14H264c-13.73,0-13.89-.26-13.3-14.31.17-4.07,1.15-6.78,5.89-7.1,1.79-.12,3.42-2.23,5.24-2.44a52.33,52.33,0,0,1,11.26-.07c1.8.19,3.43,2.39,5.2,2.49,5.12.28,6.08,3.29,6.25,7.55C285.08,929.07,285,929.15,267.29,929.14Zm.52-2.58v0c3.33,0,6.71.35,10-.16,1.45-.23,3.66-2.15,3.72-3.4.21-3.88,1-9.47-1.09-11.33-3.47-3-9-4.48-13.8-5-2.8-.32-5.83,3-9,3.59-3.88.73-4.33,2.89-4.44,6.08-.37,10.29-.45,10.29,9.95,10.3Z" transform="translate(-8.1 -11.62)"/><path class="cls-1" d="M174.31,905.67c.31,1.58.62,3.15,1.27,6.49L181,905c2.55,8.39-.61,14.88-4.17,22.55l-2.89-7.08-4.18,6.2-2.25-.6q2.09-10.29,4.18-20.59Z" transform="translate(-8.1 -11.62)"/><path class="cls-1" d="M452.53,929a39.61,39.61,0,0,1-6-.06,34.13,34.13,0,0,1-5.36-1.73c.78-2,1.09-4.36,2.44-5.77,4.23-4.42,15.42-4.29,19.61.17,1.22,1.31,2.35,3.64,2,5.15-.23,1-3,1.91-4.75,2.15A60.47,60.47,0,0,1,452.53,929Zm-8.34-2.91h18.47C457.39,918.57,448.88,918.63,444.19,926.07Z" transform="translate(-8.1 -11.62)"/><path class="cls-1" d="M453.5,919.34c-3.07-4.35-6.23-6.87-6-9.08s3.69-5.93,5.73-5.93,5.72,3.43,6,5.72S456.43,914.87,453.5,919.34Z" transform="translate(-8.1 -11.62)"/><path class="cls-1" d="M494.1,160.46c.06-.92.11-1.83.16-2.75l1.3.28q-.1,84.73-.21,169.47c0,13.35,0,26.69-.32,40-.06,2.29-2.23,4.49-3.32,6.79s-2.65,4.54-2.89,6.92c-1.42,13.68-2.52,27.4-3.72,41.11-5.56-4.71-3.18-11.9-5.5-17.62L481,334l4,0c9.1-.1,9.23-.19,9.22-9.49,0-14.24-.08-28.48-.13-42.72q0-16.55,0-33.08l.06-20.33q0-4-.07-7.92,0-17.37,0-34.74,0-9.36,0-18.7Q494.1,163.72,494.1,160.46Z" transform="translate(-8.1 -11.62)"/><path class="cls-1" d="M494.25,576.78l-18.62,0c0-.36,0-.71,0-1.07a2.84,2.84,0,0,1,.87-.39c.3-1.84,1.32-4,.76-5.47a129.58,129.58,0,0,0-6.85-15.71c-3.79-7.18-7.38-14.75-16.24-17.23l-4.07-2.5c4.46-5,10.69-8,13.33-15.41,1.56-4.36,6.14-9.86,13.5-8.72,8.67,1.34,17.22,10.34,17.27,19.12C494.27,545.21,494.24,561,494.25,576.78Z" transform="translate(-8.1 -11.62)"/><path class="cls-1" d="M494.25,576.78c0-15.79,0-31.57-.06-47.36-.05-8.78-8.6-17.78-17.27-19.12-7.36-1.14-11.94,4.36-13.5,8.72-2.64,7.41-8.87,10.37-13.33,15.41l-27.85-5.64c-.83-.3-1.65-.64-2.48-.9-2.11-.67-4.22-1.3-6.33-1.95,1.08-2.27,1.69-5,3.36-6.68,1.95-2,4.76-3.11,7.3-4.42,4.68-2.43,9.62-4.42,14.1-7.16s8.1-6.45,12.54-9c3-1.73,6.78-2.19,10.21-3.22,7.83.9,15.64,2.09,23.49,2.53,2.3.12,5.9-1.29,6.83-3.08,1.75-3.35,2-7.49,2.86-11.3l-11.84-5.5,13.15,3.3c-.14,9.11-.25,18.22-.45,27.33,0,.5-.73,1-1,1.35l-10.24-5.72L482.62,506c1,1.3,1.84,2.89,3.11,3.87,8,6.09,10.43,14,9.8,23.89-.75,12-.1,24-.2,36A47.72,47.72,0,0,1,494.25,576.78Z" transform="translate(-8.1 -11.62)"/><path class="cls-1" d="M407.57,555.67l-1.71,2.43c-6.86-2.21-.65-7.23-2.28-10.57l-5.21-5.45c-1-5.85,1.74-8.19,7.35-8,2.43.08,4.86-.06,7.29-.1l19.76,8.39c1.49.95,3,1.87,4.47,2.86,10.62,7.16,23.61,12.14,25.17,27.63.14,1.39,1.57,2.64,2.4,3.95l-19.88,0c-8.19-11.42-20.21-17.41-32.64-22.69C411.14,553.64,409.16,555.11,407.57,555.67Z" transform="translate(-8.1 -11.62)"/><path class="cls-1" d="M482.28,478.11l11.85,5.5c-5.52,1.81-10.16.38-15.05-2.72-2.74-1.73-7.05-2.21-10.35-1.6-7,1.31-13.81,3.71-20.33,5.55-3-11.57-14.47-10.42-22.19-17.2,4.23-.67,6.9-1.51,9.55-1.45,12.37.29,24.73.89,37.1,1.2,2.47.06,6.85-.16,7.09-1.1a15,15,0,0,0-.65-8.85c-1.84-4.55-5.3-7.26-10.77-7.49-4.35-.19-8.65-1.62-13-2.5,4.28-1.75,8.41-4.23,12.86-5.05s6.07-2.87,5.86-7.1c-.11-2.21,0-4.44.07-6.67,1.3-3.49,3.05-6.9,3.8-10.51.92-4.39,1-8.94,1.46-13.43,2.32,5.72-.06,12.91,5.5,17.62-1,15.72-2,31.44-3,47.17-.15,2.42.11,4.87.18,7.3A3.71,3.71,0,0,0,482.28,478.11Z" transform="translate(-8.1 -11.62)"/><path class="cls-1" d="M464.81,576.8c-.83-1.31-2.26-2.56-2.4-3.95-1.56-15.49-14.55-20.47-25.17-27.63-1.47-1-3-1.91-4.47-2.86,6.54-1.23,12.24-7.12,19.7-3.59.22.11,1.11-1.2,1.69-1.84,8.86,2.48,12.45,10.05,16.24,17.23a129.58,129.58,0,0,1,6.85,15.71c.56,1.52-.46,3.63-.75,5.47-1-2.63-1.66-5.5-3.17-7.81-1-1.51-3.22-2.21-4.9-3.27-.13,1.9-1.1,4.51-.22,5.56,2,2.38,4.89,4,7.41,5.91,0,.36,0,.71,0,1.07Z" transform="translate(-8.1 -11.62)"/><path class="cls-1" d="M482.28,478.11a3.71,3.71,0,0,1,.05-1.33c.82-1.52,2.19-3,2.37-4.56,1.12-10.09,1.82-20.23,3-30.3.31-2.6,1.93-5,2.94-7.55-.53,6.06-1.93,12.22-1.28,18.16.41,3.68,3.92,7,6,10.51q0,9.18,0,18.37Z" transform="translate(-8.1 -11.62)"/><path class="cls-1" d="M407.57,555.67c1.59-.56,3.57-2,4.72-1.54,12.43,5.28,24.45,11.27,32.64,22.69l-13.21-.08c-.15-.33-.29-.65-.43-1l-3.87-9.42Z" transform="translate(-8.1 -11.62)"/><path class="cls-1" d="M495.41,463c-2.12-3.5-5.63-6.83-6-10.51-.65-5.94.75-12.1,1.28-18.16l0-.12,4.83-2.15Z" transform="translate(-8.1 -11.62)"/><path class="cls-1" d="M495.43,432.1l-4.83,2.15V418.34l2.64-.3Z" transform="translate(-8.1 -11.62)"/><path class="cls-1" d="M99.17,165.74c20,.36,39.94.76,59.91,1,4,.06,5.56,1.74,5.43,5.67-.19,6.22-.12,12.44-.15,18.66-14.2-2.25-28.42-4.34-42.57-6.79-8.49-1.47-16.88-3.51-25.31-5.29l44.35,3.71c3.13.26,6.25.55,9.37.83l.33-2.24c-14.2-3.88-28.42-7.66-42.57-11.69C104.9,168.77,102.09,167.06,99.17,165.74Z" transform="translate(-8.1 -11.62)"/><path class="cls-1" d="M455.55,447.45c4.33.88,8.63,2.31,13,2.5,5.47.23,8.93,2.94,10.77,7.49a15,15,0,0,1,.65,8.85c-.24.94-4.62,1.16-7.09,1.1-12.37-.31-24.73-.91-37.1-1.2-2.65-.06-5.32.78-9.55,1.45,7.72,6.78,19.19,5.63,22.19,17.2,6.52-1.84,13.32-4.24,20.33-5.55,3.3-.61,7.61-.13,10.35,1.6,4.89,3.1,9.53,4.53,15.05,2.72-.87,3.81-1.12,7.95-2.87,11.3-.93,1.79-4.53,3.2-6.83,3.08-7.85-.44-15.66-1.63-23.49-2.53l-10.75.07-70.76-8c-.17-6.92-3.93-10.27-10.63-10.84q-14.44-1.23-28.88-2.62c-4.12-.39-8.23-.91-12.34-1.36-6.14-.75-12.26-1.84-18.42-2.12-4.44-.2-7-2-8.17-6.09l-1.82-3.45c-2.43-9.23-11.85-8.9-18.11-11.61-5.11-2.21-12.56.25-18.77,1.58-3.78.82-6.93,3.56-4.24,8.43-.18,7.72-5.24,13.65-13.48,15.8-2.17-1.54-6-2.9-6.22-4.66-.83-7.49-5.4-7.86-11.06-7.14q-16.6-.75-33.22-1.49c-10.63-.5-21.29-.68-31.87-1.65-13.54-1.25-15.93-.32-21.87,11.14l-6.21,1.28-.47-9.35q0-3.22,0-6.45l.39-2.64c3.32-1.4,6.56-3.05,10-4.14a47,47,0,0,1,11.3-2.56c8.37-.49,9.25-1,9.27-9.26,0-31.33-.66-62.68.27-94,.5-16.93,3.92-33.77,5.62-50.69.73-7.27.48-14.63.58-22a5,5,0,0,0-.74-3.19c-6.11-6.51-4.16-14.54-4.24-22.13-.21-18.44-.23-36.88-.33-55.33q.07-11.34.14-22.7h36l11.39,3c-2.7,1.84-3.93,3.24-5.41,3.58-5.12,1.21-10.53,1.47-15.41,3.23-2.84,1-4.9,4.22-7.3,6.44,2.18,1.72,4.19,3.76,6.6,5.07a14,14,0,0,0,5.84,1.1c5.65.26,12-5,16.73,2.27,6.32-3.28,11.2-1.13,15.38,4,.33.4,1.26.39,1.91.4,5.75.09,11.55.6,17.26.12,11.59-1,22.9-5.25,34.8-2.67a6.48,6.48,0,0,0,4.44-1c5.56-3.66,10-2.1,13.89,2.59,3.85,7.52,6.62,15.9,11.81,22.34,6.41,7.94,13.75,15.65,24.11,19l4.12,2.77c.64,2.95,3.31,7.74-2.94,6.36-5.45-1.21-10.35-4.78-15.62-7-4.32-1.82-8.77-4.3-13.27-4.56-13.16-.76-26.37-.74-39.55-.63-4.36,0-10.37-.29-12.75,2.24-8.86,9.46-18,6.87-27.8,2.92a5.2,5.2,0,0,0-1.3-.28c-12.13-1.57-23.48,5.15-25.44,15.28a77,77,0,0,0-7.84.52c-6.84,1.09-10.46,5.07-9.68,10.37l-8,1.51v0c-1.3,1-3.67,1.94-3.74,3a123.1,123.1,0,0,0,.06,17.07c.1,1.37,2.36,2.58,3.63,3.86-.12,13.29-.08,26.58-.38,39.86-.64,28.1-1.47,56.2-2.21,84.3-2.29,8.2-1.77,9.11,5.29,9.27l40,1.4a63.14,63.14,0,0,0,7.78,1.3q34.29,1.51,68.57,2.84c3.82.15,6.87.91,8.09,5.37.32,1.15,3.25,2.34,4.89,2.24,8.55-.55,17.07-2.21,25.59-2.17,19.54.08,39.12.38,58.61,1.66,9.95.66,19.75,3.6,29,5.39,5.12-1,10.21-2.48,15.37-2.75C445.22,439.54,451,442.47,455.55,447.45Zm-273.64-2.59c2.5,1.7,5.54,2.64,6.27,4.49,2,5.16,5.85,4.43,9.77,4,2.61-.26,5.32-.3,7.77-1.09s4.37-2.38,6.53-3.62c-1.69-2-3.23-5.42-5.1-5.61-7.41-.74-14.93-.53-22.41-.49C184,442.6,183.18,443.8,181.91,444.86Zm94.68-215.18c0-1.1-.11-2.2-.16-3.29-4.66-.59-9.31-1.41-14-1.6-1.21,0-2.49,1.9-3.74,2.93,1.21,1.36,2.47,3.91,3.62,3.86C267.09,231.37,271.83,230.38,276.59,229.68ZM382.77,458.1c-.49,8.91,1.66,10.35,9.16,7.13Z" transform="translate(-8.1 -11.62)"/><path class="cls-1" d="M124.58,291.14l-2.79-9.48c6,1.37,5.44,6.28,5.44,10.62,0,29,0,58.05,0,87.07,0,13.31.1,26.62.16,39.93q-.75,14-1.48,28.1l-2.83-.16c.42-2.83,1.18-5.66,1.2-8.49q.25-51,.31-102.08Q124.57,313.9,124.58,291.14Z" transform="translate(-8.1 -11.62)"/><path class="cls-1" d="M125.88,447.38q.74-14.06,1.48-28.1C138.05,418,142.54,422.68,140,433c-1.09,4.42-3.66,8.47-5,12.86-.83,2.66-.64,5.64-.91,8.47-.12.88-.25,1.76-.38,2.64C133.14,452.06,131.66,448,125.88,447.38Z" transform="translate(-8.1 -11.62)"/><path class="cls-1" d="M302.05,196.39c-3.91-4.69-8.33-6.25-13.89-2.59a6.48,6.48,0,0,1-4.44,1c-11.9-2.58-23.21,1.71-34.8,2.67-5.71.48-11.51,0-17.26-.12-.65,0-1.58,0-1.91-.4-4.18-5.1-9.06-7.25-15.38-4-4.71-7.27-11.08-2-16.73-2.27a14,14,0,0,1-5.84-1.1c-2.41-1.31-4.42-3.35-6.6-5.07,2.4-2.22,4.46-5.42,7.3-6.44,4.88-1.76,10.29-2,15.41-3.23,1.48-.34,2.71-1.74,5.41-3.58l-11.39-3c4.13,0,8.25,0,12.38,0q42.26,0,84.51,0c5.59,0,11.48-2.88,16.54,1.84,7.54-4.81,15.74-1.12,23.61-1.72,14.36-1.11,28.75-1.9,43.15-2.48,9.92-.39,19.87-.24,29.8-.26,16.12,0,32.23.14,48.35-.12,6.63-.1,13.26-1.65,19.87-1.52,4.67.08,9.3,1.88,13.94,2.92q0,9.34,0,18.7c-1.49-.43-3-1.26-4.46-1.23-7,.13-13.93.85-20.89.7-12.46-.25-24.72,0-36.43,5.24a32.72,32.72,0,0,1-12.19,3.1c-8.07.16-16.16-1-24.24-1-9,0-18.07.93-27.11,1.18-8.48.24-17.22-5.43-25.46,1.23-.69.55-2.18.26-3.27.13-9.36-1.18-18.76-2.18-28.06-3.74-4.06-.67-4.32.67-3.27,3.79Z" transform="translate(-8.1 -11.62)"/><path class="cls-1" d="M125.88,447.38c5.78.59,7.26,4.68,7.79,9.56q0,3.22,0,6.45c-5.19,5.7-12.07,3.54-18.39,4,0-.4,0-.81,0-1.21h0l4.58-4.29c-2.39-2-4.48-5.09-7.23-5.91-3.71-1.11-7.92-.5-11.91-.62l-.13-2.56,22.54-5.59Z" transform="translate(-8.1 -11.62)"/><path class="cls-1" d="M121.75,418.37c-3.87,6.71-7.94,1.48-11.51-.27-.66-.33-.17-5.25,1.18-7,3-3.87,6.88-4.15,10.33,0Z" transform="translate(-8.1 -11.62)"/><path class="cls-1" d="M124.58,291.14q0,22.75,0,45.51l-.15-40.14C124.47,294.72,124.52,292.93,124.58,291.14Z" transform="translate(-8.1 -11.62)"/><path class="cls-1" d="M88.92,402.24c-4.63,0-9.25,0-13.87,0-3.18,0-6.74-.74-5.58-4.38.94-3,4-5.85,6.84-7.45,2.12-1.19,5.44-.16,8.21-.31,3.87-.2,10.07,6.78,8.79,10.43-.47,1.34-2.45,2.15-3.74,3.2Z" transform="translate(-8.1 -11.62)"/><path class="cls-1" d="M91.15,412.73c-4.49,4.06-16.62,5.33-20.76,2-.4-.33.36-2.09.57-3.19q.06-.63.09-1.26C77.81,410.61,84,415.74,91.15,412.73Z" transform="translate(-8.1 -11.62)"/><path class="cls-1" d="M91.15,412.73c-7.17,3-13.34-2.12-20.1-2.48,2-.59,4.14-1.85,6.09-1.64,5.59.6,11.11,1.8,16.66,2.76Z" transform="translate(-8.1 -11.62)"/><path class="cls-1" d="M68.53,425.82l2.11-3.48-3.39-2,.34-1.57,17.71,1.68.13,2.25-10.32,3.26Z" transform="translate(-8.1 -11.62)"/><path class="cls-1" d="M379.43,487.54l70.76,8c-1.49.41-3,1.19-4.45,1.16-8.19-.12-16.41-.17-24.57-.8-5.6-.43-10.06-.67-13.2,5.68s-8.16,10.77-16.11,10.92c-9.31.18-14.54,8-21.65,12.4-4.37-.1-8.78-.57-13.11-.18-3.26.29-6.43,1.7-9.64,2.61-.37,1-.72,2.92-1.13,2.93-5.59.19-12.38,2.07-16.49-.41-4.82-2.9-6.43-2.94-9,1.45-.67,1.13-2.34,1.66-5,1.59q1-2.52,2.08-5c1.45-2.26,2.14-4.27-1.73-4.32-8.91-.09-17.82-.08-26.73-.19-1.88,0-3.75-.38-5.63-.58l.22-1.15,7.46-1.88c-.11-.63-.21-1.25-.31-1.88H271.68c-.09.6-.17,1.19-.25,1.79l7.37,1.89c-4.31,1.2-8.47.9-12.64.74q-16.79-.63-33.58-1.19l0-1.62,13.07-7c-6.75-4-12.72-8-19.11-11.24-8-4-16.43-7.38-24.66-11l16.07-.08,10.66.08,2.69-.05c8.12.46,16.26.63,24.34,1.51,3.69.4,7.16,2.62,10.86,3.23,2.8.46,5.81-.33,8.72-.57a66.12,66.12,0,0,0,7.42,2.72c16.65,4,33.32,7.87,50,11.78q.82-3.35,1.66-6.69c2,.93,4.11,2.84,6,2.64,9.17-.95,18.26-2.63,27.42-3.7,4.37-.51,6.91-2.47,7.68-6.76l4.09-6.83Zm-45,24.42-10.83,5.58C332.27,521.25,334.73,519.92,334.41,512Z" transform="translate(-8.1 -11.62)"/><path class="cls-1" d="M396.8,576.66l-17.27,0c-19.06-.81-38.12-1.91-57.18-2.37-34-.81-67.94-1.24-101.91-1.83-15.49-.27-31-.49-46.46-.84-3.41-.07-7.78.71-8.23-4.46-.44-5,2.33-8.08,7.24-8.7,3.94-.5,7.94-.42,11.92-.6l.56,1.91,1.87-4c6.38,2.22,12,5.16,19.78,2.69,6.62-2.1,14.28.3,21.9-.83,11.3-1.67,23.22.9,34.89,1.6a21.86,21.86,0,0,0,5.24-.29c13.7-2.61,27.25-3.94,40,3.61a4.62,4.62,0,0,0,2.55.37c8.76-.57,17.52-1.19,26.28-1.79a45.84,45.84,0,0,0,4.49.93c3.07.36,6.16.54,9.24.86.38,0,.86.79,1.06.7,5.86-2.73,12.46.62,17.27-.59,6.08-1.53,10,.3,14.72,1.95l10.5-2.38,2.81,2.45Q397.45,570.82,396.8,576.66Z" transform="translate(-8.1 -11.62)"/><path class="cls-1" d="M370.21,524.89c7.11-4.35,12.34-12.22,21.65-12.4,7.95-.15,13.06-4.72,16.11-10.92s7.6-6.11,13.2-5.68c8.16.63,16.38.68,24.57.8,1.48,0,3-.75,4.45-1.16l10.75-.07c-3.43,1-7.18,1.49-10.21,3.22-4.44,2.55-8.16,6.33-12.54,9s-9.42,4.73-14.1,7.16c-2.54,1.31-5.35,2.46-7.3,4.42-1.67,1.68-2.28,4.41-3.36,6.68,2.11.65,4.22,1.28,6.33,1.95.83.26,1.65.6,2.48.9L413,534c-2.43,0-4.86.18-7.29.1-5.61-.18-8.36,2.16-7.35,8l-6.56,7.17c-1-2.18-1.6-3.25-2-4.39-1.42-3.77-3.75-5.54-7.56-3.1-3.43,2.2-6.37,2.41-10.53,1s-9.18-.32-13.82-.54a53.7,53.7,0,0,1-6.48-1.07c6.51,0,13,0,19.52-.11,2.72-.06,5.38-.64,1.94-4l-13.46-2.59,11.79-.63c0-.72-.09-1.43-.13-2.14H355.54l14.5-3.2C370.1,527.29,370.16,526.09,370.21,524.89Z" transform="translate(-8.1 -11.62)"/><path class="cls-1" d="M218,490.09l-16.07.08-46.69-1.25c-10.27,0-20.26-.08-30.46,3.47-6.34,2.2-14.35-.38-21.61-.82,0-2.74,0-5.47,0-8.21,1.53-2.44,2.86-3.66,5.45-.67,1,1.19,5.24,1.65,5.45,1.22,3.33-7,6.58-6.05,10,.5,4.39-4.13,2.6-8.52,1.08-12-.82-1.85-4.36-2.93-6.87-3.5-2.76-.62-5.73-.27-8.61-.34l5.52-1.22c6.32-.46,13.2,1.7,18.39-4q.22,4.68.47,9.36l4.65,9.16a18.94,18.94,0,0,0,3.52.4c18,0,35.91-.13,53.86,0,4.59,0,9.21,1.3,13.77,1.06,7.14-.37,14.25-1.54,21.37-2.37l.05,9.14-2.69.05c-2.29-5.81-4.92-6.63-14-4.23Z" transform="translate(-8.1 -11.62)"/><path class="cls-1" d="M155.23,488.92l46.69,1.25c8.23,3.64,16.62,7,24.66,11,6.39,3.2,12.36,7.23,19.11,11.24l-13.07,7c-2.48-.79-4.91-2-7.45-2.31-6.87-.83-13.78-1.28-20.68-1.89-8.74-11.11-20.77-17.91-33.08-23.9C166.73,489.07,160.66,489.64,155.23,488.92Z" transform="translate(-8.1 -11.62)"/><path class="cls-1" d="M338,561.05c-8.76.6-17.52,1.22-26.28,1.79a4.62,4.62,0,0,1-2.55-.37c-12.79-7.55-26.34-6.22-40-3.61a21.86,21.86,0,0,1-5.24.29c-11.67-.7-23.59-3.27-34.89-1.6-7.62,1.13-15.28-1.27-21.9.83-7.77,2.47-13.4-.47-19.78-2.69l-2.76-5.44L170.05,548l2.92-3.35,26.1.12,4.47-2.2,4,5c-.41,1.53-1.65,3.82-1.07,4.45,2.17,2.37,9.94.66,12.54-2.74l-5.68-2.87,1.89-5.33,2.9,0c-2.29,7.38,3.82,4.15,6.54,5.19-.45.78-.9,1.57-1.36,2.35-2.3,5.69,2.16,4.52,4.89,4.57q36.68.67,73.36,1.13a54.37,54.37,0,0,0,6.71-.72c.11-1,.21-1.91.32-2.86L298,549l-.18-3c0-.66-.05-1.33-.07-2l2.84,2.32,10.57,1.19,3.06-1.33h0l-.15,3.25c-.39,1.51-1.6,3.67-1,4.41,2.33,3,7.69,1.73,10.25-2L325,557l4-1.55,7.55,0Zm-135.4-13.3c-4.57,0-8.39-.12-12.19.09-.85,0-1.88,1.11-2.35,2-.25.45.31,1.71.86,2.19C191.63,554.33,199.66,552.41,202.62,547.75Z" transform="translate(-8.1 -11.62)"/><path class="cls-1" d="M232.58,521.07q16.78.58,33.58,1.19c4.17.16,8.33.46,12.64-.74l-7.37-1.89c.08-.6.16-1.19.25-1.79H291.2c.1.63.2,1.25.31,1.88l-7.46,1.88-.22,1.15c1.88.2,3.75.55,5.63.58,8.91.11,17.82.1,26.73.19,3.87.05,3.18,2.06,1.73,4.32h-6.19c0,1.9.64,4.64-.14,5.13a6.59,6.59,0,0,1-5.54.46c-1.42-.69-2.05-3-3.66-5.64l-4.19-.24c-.18.61-.29,1-.38,1.33-.39,1.6-.77,3.21-1.16,4.81a44,44,0,0,1-6.28-3.17c-1.29-.91-2.06-2.56-3.9-5-.76,3.82-.84,6.76-1.47,6.88A18.32,18.32,0,0,1,278,532c-.34-.07-.2-2.48-.31-4.43l-5.4-.64v5.37l-7.68-.28c.23-1.53.45-3,.76-5.14l-5.29-.4c-.36,2.13-.29,5.07-1,5.27a12.54,12.54,0,0,1-7,0c-.76-.24-.68-3.17-1.08-5.43-5-1.65-5.87,10.77-13,4,.3-.93.77-2.36,1.38-4.22h-6.75C232.63,524.42,232.6,522.75,232.58,521.07Z" transform="translate(-8.1 -11.62)"/><path class="cls-1" d="M232.58,521.07c0,1.68,0,3.35.07,5-.39.44-.79.87-1.19,1.31l-2.93.05-6.77-1.55v6.83c-9.46.38-10.56-.39-8.95-7.27-4.75,2.07-6.91,10.17-13.68,4.62.32-.84.83-2.22,1.9-5.11-4.06,2.63-6.81,5.36-10.06,6.24-3.57,1-7.6.22-11.43.22l-.31-2.65,10.19-2.55-7.59-2.36c-.05-.54-.09-1.09-.13-1.63l8.6-2-5.86-1.91c0-.73,0-1.47,0-2.2l20.07-.88c6.9.6,13.81,1,20.68,1.88,2.54.31,5,1.52,7.45,2.31C232.6,520,232.59,520.53,232.58,521.07Z" transform="translate(-8.1 -11.62)"/><path class="cls-1" d="M298,549l10.5,1.79c-.11,1-.21,1.9-.32,2.86a54.37,54.37,0,0,1-6.71.72q-36.67-.47-73.36-1.13c-2.73-.05-7.19,1.12-4.89-4.57Z" transform="translate(-8.1 -11.62)"/><path class="cls-1" d="M396.8,576.66q.65-5.85,1.31-11.69c.93-.91,2.68-2.6,2.66-2.62-5.93-6.29-.29-10.32,2.81-14.82,1.63,3.34-4.58,8.36,2.28,10.57-2.11,3.68-1.05,6.62,1.91,9.35s5.56,5.56,9.17,9.21Z" transform="translate(-8.1 -11.62)"/><path class="cls-1" d="M199.07,544.78l-26.1-.12c1.69-1.25,3.3-3.42,5.08-3.56,5.85-.48,11.77-.28,17.66-.22C198.14,540.9,201.11,540.76,199.07,544.78Z" transform="translate(-8.1 -11.62)"/><path class="cls-1" d="M372.85,537c3.44,3.31.78,3.89-1.94,4-6.5.16-13,.09-19.52.11l-3.44-2,.35-2.07Z" transform="translate(-8.1 -11.62)"/><path class="cls-1" d="M363.23,548.76l-20.11-1.29.18-3.47,20.13.88C363.36,546.17,363.3,547.47,363.23,548.76Z" transform="translate(-8.1 -11.62)"/><path class="cls-1" d="M370.21,524.89c0,1.2-.11,2.4-.17,3.59l-22.58-1.15c3.21-.92,6.38-2.33,9.64-2.62C361.43,524.32,365.84,524.79,370.21,524.89Z" transform="translate(-8.1 -11.62)"/><path class="cls-1" d="M176.87,535h18.24l0,1.78H176.89Z" transform="translate(-8.1 -11.62)"/><path class="cls-1" d="M207.49,547.59l-4-5,11.63-1.48-1.89,5.33Z" transform="translate(-8.1 -11.62)"/><path class="cls-1" d="M224.61,546.31c-2.72-1-8.83,2.19-6.54-5.19a34.2,34.2,0,0,1,6-.07c1.35.21,2.58,1.27,3.87,1.94Z" transform="translate(-8.1 -11.62)"/><path class="cls-1" d="M323.3,551.76c-2.56,3.75-7.92,5-10.25,2-.59-.74.62-2.9,1-4.41Z" transform="translate(-8.1 -11.62)"/><path class="cls-1" d="M380.34,556.61,369.9,555l.33-2.3c3.75-1.4,7.47-2.47,10.64,1.13C380.69,554.76,380.52,555.69,380.34,556.61Z" transform="translate(-8.1 -11.62)"/><path class="cls-1" d="M170.05,548l14.53,2.24c-3.42.51-6.87,1.46-10.27,1.34C172.85,551.53,171.47,549.27,170.05,548Z" transform="translate(-8.1 -11.62)"/><path class="cls-1" d="M384.71,558c.08-1.79,0-5.1.25-5.13a96.91,96.91,0,0,1,10.09-.23l.18,3.05L388.85,557Z" transform="translate(-8.1 -11.62)"/><path class="cls-1" d="M245.31,533.23c1.72,1.64,2.91,2.76,4.1,3.88-1.62.77-3.24,2.16-4.84,2.14s-3.06-1.51-4.58-2.35Z" transform="translate(-8.1 -11.62)"/><path class="cls-1" d="M232,542.5h9.35c0,.87.1,1.74.16,2.61l-9.23.75C232.18,544.74,232.09,543.62,232,542.5Z" transform="translate(-8.1 -11.62)"/><path class="cls-1" d="M226.69,535.14h8.73c-.11,1.12-.15,3.21-.34,3.23-2.8.21-5.63.14-8.45.14Z" transform="translate(-8.1 -11.62)"/><path class="cls-1" d="M307.24,536.32l8.56.43a20.38,20.38,0,0,1-.45,3.25c-2.77,0-5.55-.21-8.33-.38C307.1,538.52,307.17,537.42,307.24,536.32Z" transform="translate(-8.1 -11.62)"/><path class="cls-1" d="M336.54,555.46l-7.55,0c-.66-1.23-1.32-2.45-2-3.67,2-.38,4.3-1.53,5.93-.92S335.37,553.85,336.54,555.46Z" transform="translate(-8.1 -11.62)"/><path class="cls-1" d="M297.78,544c0,.66,0,1.33.07,2-3.9,1.73-7.71,3-10.93-1.93C290.8,540.85,294.28,541.93,297.78,544Z" transform="translate(-8.1 -11.62)"/><path class="cls-1" d="M311.19,547.46l-10.57-1.19c2-1.27,4.1-3.53,6.11-3.48C308.25,542.82,309.7,545.8,311.19,547.46Z" transform="translate(-8.1 -11.62)"/><path class="cls-1" d="M384.71,558l4.14-1,6.45,5.54-10.5,2.38Z" transform="translate(-8.1 -11.62)"/><path class="cls-1" d="M253.19,536.69c.66-.48,1.32-1.36,2-1.36,2.5,0,5,.32,7.5.51-.27,1-.49,2.75-.84,2.77-2.84.23-5.72.13-8.58.13Z" transform="translate(-8.1 -11.62)"/><path class="cls-1" d="M293.92,536.16l8.55.48c-.12,1-.2,2.75-.39,2.76-2.75.18-5.52.12-8.29.12C293.83,538.4,293.88,537.28,293.92,536.16Z" transform="translate(-8.1 -11.62)"/><path class="cls-1" d="M228.53,527.46l2.93-.05,2.64,3c-1.93.66-3.83,1.62-5.81,1.85-.95.11-2.06-1.15-3.09-1.79Z" transform="translate(-8.1 -11.62)"/><path class="cls-1" d="M329.69,542.9l9,1.28-.36,3.11-9.26-.77C329.28,545.31,329.49,544.1,329.69,542.9Z" transform="translate(-8.1 -11.62)"/><path class="cls-1" d="M267,536.14l9.22-1.08C274.35,540.29,272.63,540.65,267,536.14Z" transform="translate(-8.1 -11.62)"/><path class="cls-1" d="M350.42,555.46l-10-1.59c.15-.94.3-1.89.44-2.83l10,1.21Z" transform="translate(-8.1 -11.62)"/><path class="cls-1" d="M282.54,545.41h-9V543h9C282.56,543.82,282.55,544.62,282.54,545.41Z" transform="translate(-8.1 -11.62)"/><path class="cls-1" d="M356.52,552.62h9.68c0,.68,0,1.35-.05,2H356.3C356.38,554,356.45,553.3,356.52,552.62Z" transform="translate(-8.1 -11.62)"/><path class="cls-1" d="M322.07,536.31l8.06,1.47c-.27.93-.57,2.67-.81,2.67-2.72-.08-5.43-.42-8.15-.69Z" transform="translate(-8.1 -11.62)"/><path class="cls-1" d="M314.25,546.13c3.15-5.84,6.57-2.78,9.94-1.43l-.12,2.8-9.86-1.38Z" transform="translate(-8.1 -11.62)"/><path class="cls-1" d="M269.11,545.28H260l-.13-2.53,9.09-.47C269,543.28,269.05,544.28,269.11,545.28Z" transform="translate(-8.1 -11.62)"/><path class="cls-1" d="M355.54,531.68h15.51c0,.71.09,1.42.13,2.14l-11.79.63Z" transform="translate(-8.1 -11.62)"/><path class="cls-1" d="M109.74,468.61c2.88.07,5.85-.28,8.61.34,2.51.57,6.05,1.65,6.87,3.5,1.52,3.44,3.31,7.83-1.08,12-3.46-6.55-6.71-7.45-10-.5-.21.43-4.42,0-5.45-1.22-2.59-3-3.92-1.77-5.45.67,0-2.66.15-5.33,0-8C102.87,470.61,104.87,468.26,109.74,468.61Z" transform="translate(-8.1 -11.62)"/><path class="cls-1" d="M115.24,466.18c-6.25,1.06-6.42-4.1-8-7.86,3.45,1.79,10.17.26,7.92,7.87Z" transform="translate(-8.1 -11.62)"/><path class="cls-1" d="M427.42,566.33l3.87,9.42a15.87,15.87,0,0,1-3.86-.21,56.29,56.29,0,0,1-5.66-2.29c1.29-1.69,2.55-3.4,3.87-5.07A23.89,23.89,0,0,1,427.42,566.33Z" transform="translate(-8.1 -11.62)"/><path class="cls-1" d="M289.36,743.87q69.75,0,139.49,0c9.11,0,9.33.23,9.35,9.39,0,10.9-.1,21.81,0,32.71.06,5.06-2,7.31-7.16,7.24-10-.14-20,0-30,0H150.76c-11.47,0-11.5,0-11.51-11.52,0-9.79-.06-19.59,0-29.38.07-7.61.94-8.4,9.26-8.41Q219,743.84,289.36,743.87Zm-127.5,28c10,4.43,11.25,4.12,16.06-3.94l1.08-.61-2.4-.62c-5.1-2.66-10.14-4.32-14.77.9l-3.63-5.35c-.47,2.08-.86,3.83-1.36,6.1L149.22,760v13.41l1.21.1q.6-2.7,1.19-5.38C155.6,768.65,155.91,777.83,161.86,771.85Zm54.37,4c1.45-4.11,2.16-6.11,3.17-9,1.12,3.07,1.82,5,2.52,6.85l1.18-.19c.49-4.1,1-8.2,1.39-11.69-3.5-.28-7-1.46-7.82-.47-2.49,3.15-3.94,7.11-5.79,10.76l2.15,1c.49-1.31,1-2.63,1.48-3.94C214.92,770.82,215.33,772.39,216.23,775.82Zm-28.34-8c2.51,3,4.13,4.94,5.74,6.88,1.71-1.67,5-3.57,4.77-4.94-.32-2.07-2.84-4.14-4.91-5.41C192.84,764,190.63,766.08,187.89,767.84Z" transform="translate(-8.1 -11.62)"/><path class="cls-1" d="M61.81,833.38c-4.69-4.49-2.68-10.31-.1-13.68,1.64-2.14,8.26-2,11.86-.73,5.56,2,6.06,7.29,4.69,13.11-3.44-5.74-3.44-5.74-16-5.56-.15,2.23-.31,4.54-.46,6.86Z" transform="translate(-8.1 -11.62)"/><path class="cls-1" d="M72.38,838.49l-6.53-.06-4-5h0l12.93,1.42c.34.65.67,1.3,1,1.94Z" transform="translate(-8.1 -11.62)"/><path class="cls-1" d="M109.52,625.18a39.93,39.93,0,0,0-2.47-5.87c-3.28-5.4-2.31-10.14,2-14.36s11.88-5.16,17.27-2.22c4.91,2.68,7.68,6.64,6.69,12.46-.94,5.51-6,9.55-12.5,9.95C117,625.35,113.5,625.18,109.52,625.18Z" transform="translate(-8.1 -11.62)"/><path class="cls-1" d="M348.66,910.85c-.08-5.72,3.29-8.23,11.38-8.49,7.39-.23,12.31,2.81,12.35,7.64.06,8.29-6.79,19.72-11.88,19.81S348.78,919.24,348.66,910.85Zm11,10.79,1.58-.15a71.4,71.4,0,0,0,2-8.45c.1-.77-1.54-2.55-2.26-2.48-1.24.11-3.46,1.43-3.39,2A73.68,73.68,0,0,0,359.67,921.64Z" transform="translate(-8.1 -11.62)"/><path class="cls-1" d="M267.81,926.56h-4.66c-10.4,0-10.32,0-9.95-10.3.11-3.19.56-5.35,4.44-6.08,3.13-.59,6.16-3.91,9-3.59,4.83.56,10.33,2,13.8,5,2.12,1.86,1.3,7.45,1.09,11.33-.06,1.25-2.27,3.17-3.72,3.4-3.25.51-6.63.16-10,.16Zm-.29-19.6c-3.4,4.66-6.5,7.13-7.06,10.08-.87,4.54,2.36,7.55,7,7.62s7.85-3.14,7.17-7.53C274.17,914.19,271,911.68,267.52,907Z" transform="translate(-8.1 -11.62)"/><path class="cls-1" d="M444.19,926.07c4.69-7.44,13.2-7.5,18.47,0Z" transform="translate(-8.1 -11.62)"/><path class="cls-1" d="M185.9,265.73c-.78-5.29,2.84-9.27,9.68-10.36a77,77,0,0,1,7.84-.52c2-10.13,13.31-16.85,25.44-15.28a5.2,5.2,0,0,1,1.3.28c9.75,4,18.94,6.54,27.8-2.92,2.38-2.53,8.39-2.2,12.75-2.24,13.18-.11,26.39-.13,39.55.63,4.5.26,8.95,2.74,13.27,4.56,5.27,2.22,10.17,5.79,15.62,7,6.25,1.38,3.58-3.41,2.94-6.36,2.14.32,5.24-.14,6.25,1.1,4.56,5.62,7.11,1.78,10.27-2.65v7.95c12.56-.18,24.68.62,36.39-5.19,8.38-4.16,17.4-6.67,16.53-18.6.43,1.91.85,3.82,1.29,5.72.6,2.62-1.51,7.09,3.7,6.46.86-.1,1.23-4.48,1.78-6.89a4.29,4.29,0,0,0-.13-1.31c2,.68,4.18,2.13,6.12,1.9a141.41,141.41,0,0,0,20.2-3.47c9.05-2.43,17.85-4,27.43-2.95,7.23.78,14.76-1.34,22.15-2.18q0,4,.07,7.93l-11.75,5.37-6.65,0,1.26,6.71,17.08,8.27q0,16.54,0,33.08c-2.3,2.55-4.54,5.16-6.91,7.63-1.69,1.77-3.55,3.36-5.34,5-.73-2.15-2-4.3-2.07-6.47a195.78,195.78,0,0,1,.22-22.47c.51-5.82-1.82-7.76-7.07-7.6-6.77.22-13.55.6-20.32.64-7,0-14.62,4.36-20.75-2.9-.66-.79-2.91-.24-4.43-.31-4.63.34-9.25.91-13.88,1-26.17.44-52.34.67-78.51,1.2-7,.14-14,1.08-21,1.66-13.88-.73-27.76-2-41.63-2s-27.82,1.21-41.72,1.87c-13.6.64-27.36-.89-40.88,1l0,2.41,2.91.7a2.5,2.5,0,0,1,1.18.21Zm62.78-17.22c-3.39-.89-7.26-1-10.08-2.81-10.66-6.76-25.19-4.41-30.52,6.71h40.61l35.83-1.91C275.71,239.6,261,239,248.68,248.51Zm218.21-21c-3.31-1.32-5.14-2.53-7-2.62-1,0-2.14,1.82-3.22,2.83,1.84.89,3.6,2.13,5.54,2.53C463.12,230.4,464.38,229,466.89,227.47Z" transform="translate(-8.1 -11.62)"/><path class="cls-1" d="M494.07,220.41c-7.39.84-14.92,3-22.15,2.18-9.58-1-18.38.52-27.43,2.95a141.41,141.41,0,0,1-20.2,3.47c-1.94.23-4.08-1.22-6.12-1.9-.59-2.49-1.55-5-1.71-7.47-.84-13.09-5.12-17.95-18.31-20.15-2.18-.36-4.43-.29-6.65-.43-3.52.31-7.12.26-10.55,1-12.54,2.65-25,5.56-37.52,8.37-13-.72-24.83-4.51-34.72-13.33-1-3.12-.79-4.46,3.27-3.79,9.3,1.56,18.7,2.56,28.06,3.74,1.09.13,2.58.42,3.27-.13,8.24-6.66,17-1,25.46-1.23,9-.25,18.07-1.15,27.11-1.18,8.08,0,16.17,1.15,24.24,1a32.72,32.72,0,0,0,12.19-3.1c11.71-5.22,24-5.49,36.43-5.24,7,.15,13.93-.57,20.89-.7,1.48,0,3,.8,4.46,1.23Q494.08,203,494.07,220.41Z" transform="translate(-8.1 -11.62)"/><path class="cls-1" d="M472.89,257.85c5.25-.16,7.58,1.78,7.07,7.6a195.78,195.78,0,0,0-.22,22.47c.06,2.17,1.34,4.32,2.07,6.47,1.79-1.66,3.65-3.25,5.34-5,2.37-2.47,4.61-5.08,6.91-7.63.05,14.24.12,28.48.13,42.72,0,9.3-.12,9.39-9.22,9.49l-4,0c.08-6.6-1.14-13.56.56-19.71,2.58-9.35-2.13-15.86-5.9-23.05q-.06-11.35-.14-22.69c0-2.67.06-5.33.08-8Z" transform="translate(-8.1 -11.62)"/><path class="cls-1" d="M475.63,291.21c3.77,7.19,8.48,13.7,5.9,23.05-1.7,6.15-.48,13.11-.56,19.71q-.69,35.37-1.37,70.72c-.45,4.49-.54,9-1.46,13.43-.75,3.61-2.5,7-3.8,10.51q-.1-26-.19-52.09Q474.89,333.88,475.63,291.21Z" transform="translate(-8.1 -11.62)"/><path class="cls-1" d="M494.08,248.66,477,240.39q2.7-3.34,5.39-6.68l11.75-5.37Z" transform="translate(-8.1 -11.62)"/><path class="cls-1" d="M413,534l9.23-5.18,27.85,5.64,4.07,2.5c-.58.64-1.47,2-1.69,1.84-7.46-3.53-13.16,2.36-19.7,3.59Z" transform="translate(-8.1 -11.62)"/><path class="cls-1" d="M475.62,575.73c-2.52-1.92-5.43-3.53-7.41-5.91-.88-1.05.09-3.66.22-5.56,1.68,1.06,3.91,1.76,4.9,3.27,1.51,2.31,2.15,5.18,3.17,7.81A2.79,2.79,0,0,0,475.62,575.73Z" transform="translate(-8.1 -11.62)"/><path class="cls-1" d="M474.15,376.54q.09,26,.19,52.09c0,2.23-.18,4.46-.07,6.67.21,4.23-1.3,6.26-5.86,7.1s-8.58,3.3-12.86,5.05c-4.59-5-10.33-7.91-17.05-7.55-5.16.27-10.25,1.78-15.37,2.75-9.21-1.79-19-4.73-29-5.39-19.49-1.28-39.07-1.58-58.61-1.66-8.52,0-17,1.62-25.59,2.17-1.64.1-4.57-1.09-4.89-2.24-1.22-4.46-4.27-5.22-8.09-5.37q-34.29-1.37-68.57-2.84a63.14,63.14,0,0,1-7.78-1.3H270c16.34,1,32.69,1.93,49,3q28.17,1.92,56.32,4.13c21.41,1.63,42.82,3.36,64.22,5.05,9.38.82,18.75,1.78,28.15,2.34,1.64.09,3.39-1.53,5.08-2.36l.06-10.84q0-12.69,0-25.37Q473.53,389.29,474.15,376.54Z" transform="translate(-8.1 -11.62)"/><path class="cls-1" d="M472.9,402l0,25.37c-4.26,1.32-8.59,4-12.76,3.74-20.81-1.17-41.57-3.15-62.37-4.67-2.52-.18-5.12.73-7.69,1.13l-6.36-1.73a22.34,22.34,0,0,0-3.87-.9c-42.89-2.29-85.78-4.59-128.69-6.66-2.54-.12-5.18,1.62-7.77,2.49l-50.78-2.73c-4,0-8-.29-11.93,0-1.67.13-3.24,1.5-4.86,2.3l4.66,3.21c.06.34.12.68.16,1-7.06-.16-7.58-1.07-5.29-9.27.78-5.43,1.57-10.86,2.63-18.15l5.31,8.31c.77-2,1.46-3.17,1.59-4.36.73-6.84,1-13.77,2.21-20.5.38-2,3.28-4.57,5.44-5.08,3.38-.78,7.56-.95,9.39,4.53l-10.14,1,.07.51,9.55.91c-2.16,1.28-4.13.88-6.05,1.07-4,.38-5.31,2.8-4.22,6.54.82,2.87,1.8,5.69,2.7,8.53l-1.53.85,5.62,2.14L195,405.36c8.84,4.19,14.74.76,15-8.25.1-4.21.49-8.42.72-12.63.89-16.54,1.83-33.08,2.65-49.62.7-14,1.93-28,1.69-41.91-.25-14.21-8.9-21.17-23.2-20.32-4.2.25-8.39.79-12.58,1.2l-1.29-6.6v0l1.53.16c1.93,1.24,3.79,3.4,5.8,3.56,6.35.52,12.76.29,19.14.35,3.29.34,6.58.92,9.87,1q50.86,1,101.74,1.71c1.94,0,3.9-.72,5.85-1.08,3-.57,6-1.5,9.07-1.6,29.72-1.05,59.46-1.82,89.18-2.95,15.95-.61,31.88-1.74,47.82-2.74a27.47,27.47,0,0,0,5.11-1.27c-.05-.64-.09-1.27-.14-1.91l-8.1-.79,10.75-1.15c0,2.67-.05,5.33-.08,8l-7.66,7.72,2.34,3.1c-5.89.81-11.78,2.31-17.1-2.26-1.06-.91-3.44-.42-5.19-.33-6.63.31-13.24.71-19.86,1.12-1.86.11-3.72.37-5.57.56l-.58,1.39,3.34.65-1.13.87h-16l0-.42,10.77-1c-2-1.15-2.6-1.75-3.11-1.71-6.3.51-12.27,1.62-18.36-2.64-3.52-2.46-6.29,1.51-7,5.53-.61,3.76.7,6.11,4.85,6.12,4.39,0,8.77,0,13.16,0-4.85,1.32-9.73,1-14.51,1.51-1.64.18-3.78,2.33-4.3,4a5.87,5.87,0,0,0,1.73,5.24c1.23.89,3.86.61,5.54,0,2.55-1,4.81-2.69,7.19-4.1l1,1.6c-.48.95-1,1.9-1.45,2.85l.84,2.08c10.26-10.52,23.36-8,35.85-8.26-.09-.56-.17-1.11-.25-1.66l-4-1.18.15-.81h11.32l13.4.31c-2.15,1.5-4.59,2.72-6.38,4.57-2.35,2.43-5.66,5.22-5.93,8.12-.5,5.1-3.09,6.51-7.18,7-5,.54-10,.88-15,1.31-.25.64-.5,1.29-.74,1.94,2.07.82,5.09,2.95,6.06,2.25,8.45-6.09,15.42-.16,22.94,2.55a152.57,152.57,0,0,1-25.23,2.45c-4.86.1-9.73-.9-14.59-.79-1.76,0-3.49,1.86-5.24,2.86,1.9,1.12,3.73,3.09,5.7,3.23,17.63,1.25,35.28,2.19,52.92,3.26.24,0,.44.62,1.31,1.91-11,.74-22.18-1.93-32.59,4.88,10.71,7.37,22.12,4.48,32.64,7.1l-56.2,2.28c-.19,1.5-.41,3.19-.63,4.89-7.92,0-16.37,1.95-22-8.55-1.52,4.79-2.81,7.44-3.05,10.17-.12,1.46,1.22,3.63,2.54,4.51,2.36,1.58,5.21,2.43,8.58,3.9l4.34-3.19-.09,1.61,13.15,3.23c-.48,4-1.36,8.69-1.4,13.35,0,1.37,2.2,3.74,3.61,3.91a8.1,8.1,0,0,0,5.71-2.19c.92-.86,1.08-3.48.46-4.78-.76-1.62-2.67-2.7-4-4,1.62-2.76,3.25-5.56,4.74-8.09l-8.66-1.92c.1-.86.19-1.72.29-2.58h14.44c-.56,3-.48,6.41-1.84,9-2.24,4.3-1.4,7.63,3.05,7.78,8.83.3,12.06,6.95,16.7,12.39,2.75,3.21,5.94,7.79,9.42,8.28C466.07,392.45,470.3,395.72,472.9,402ZM325.56,293.28l.48-2.11c-3.08-.89-6.14-2.52-9.23-2.55-22.33-.22-44.66-.12-67-.1a69.92,69.92,0,0,0-10.14.31c-1.31.2-2.39,2-3.58,3.08l.82,1.37Zm-96.4,23,1.44,2.33h63.25v-1.76c-8.56-.53-17.15-.78-25.66-1.74-2.77-.32-5.27-3.48-8-3.65a169.41,169.41,0,0,0-24,.11C233.76,311.77,231.51,314.64,229.16,316.29Zm1,32c-.09.81-.18,1.63-.28,2.44,1.69,1,3.28,2.63,5.08,2.89,20.29,3,40.41-1.7,60.65-1.56.18,0,.37-.66.65-1.18a6,6,0,0,0-1.76-.72q-24.67-1.6-49.34-3.16a19.82,19.82,0,0,0-3.29-.4C238,347.08,234.06,347.72,230.16,348.3Zm7.14-18.72L274.1,333c-1-5.94-3.67-7.67-10.33-6.79-8.69,1.15-17.08,1.3-25.39-2.3-2.42-1.05-6.33-1.28-8.34,0-2.59,1.65-4,5.22-5.86,8,2.36.68,5,2.33,7,1.79C233.85,332.93,236,330.48,237.3,329.58Zm151.68,60c.92,7.29,1.59,8.29,5.38,8.13,6.11-.27,13.19,3.46,17.69-4.22.34-.57,2.81.17,4.29.19,4.46,0,8.91,0,13.36,0l.05-2.32Zm14.08,18.17-.09-2.07h26.56c0-.73,0-1.46,0-2.18l-40.35-1.84c-.52,6.11,1.74,8.12,6,8.5,3.56.32,7.1.76,10.66,1.15.09-.5.19-1,.28-1.51ZM232.5,368.5c1.2-2.12,2.34-4.13,3.52-6.23,4.19,4.83,9,5.06,13,.85-6.13-4.37-15.4-6.27-20.29-3.77-2.94,1.5-9.26,2.84-1.49,6.89-.45.67-.9,1.35-1.52,2.26Zm155.26,45.17c3.56,7.6,28.35,8.51,38.44,2.09ZM401,309.54l1.11,2.65,16.8-6.9c-.21-.7-.43-1.4-.64-2.1-7.72,0-15.44-.11-23.15.08a11,11,0,0,0-5.27,1.91c-.33.21.3,3.21,1.22,3.82,1.63,1.07,3.83,1.3,5.79,1.89l1.21-2.16-4.15-1.21,1.18-1.69,11.31.9Zm10.16,55.73c-15.62-2-15.75-1.95-16.49,9.23l16.49-2.63Zm-63-72.62c-5.65-6.06-15.86-5.11-18.5,1.34ZM296,363.94V362.6H273.28v1.34Z" transform="translate(-8.1 -11.62)"/><path class="cls-1" d="M179.25,273.83c4.19-.41,8.38-.95,12.58-1.2,14.3-.85,22.95,6.11,23.2,20.32.24,13.95-1,27.94-1.69,41.91-.82,16.54-1.76,33.08-2.65,49.62-.23,4.21-.62,8.42-.72,12.63-.22,9-6.12,12.44-15,8.25l2.88-3.68-5.62-2.14,1.53-.85c-.9-2.84-1.88-5.66-2.7-8.53-1.09-3.74.24-6.16,4.22-6.54,1.92-.19,3.89.21,6.05-1.07l-9.55-.91-.07-.51,10.14-1c-1.83-5.48-6-5.31-9.39-4.53-2.16.51-5.06,3-5.44,5.08-1.26,6.73-1.48,13.66-2.21,20.5-.13,1.19-.82,2.32-1.59,4.36L178,397.2c-1.06,7.29-1.85,12.72-2.63,18.15.74-28.1,1.57-56.2,2.21-84.3.3-13.28.26-26.57.38-39.86Q178.59,282.51,179.25,273.83ZM203,285.13l.28-2.23-16.11-3c1.22,3.84,2.12,5.63,2.3,7.49.33,3.35-.15,6.82.53,10.07.23,1.11,2.93,1.7,4.5,2.53,1.61-4.2,3.22-8.39,5.34-13.89Zm6.92,24.26a26.84,26.84,0,0,0-3.27-.78c-3.95-.31-8.87,1.25-9.57-5.12-1.8.2-4.08-.2-5.27.76-1.71,1.36-2.62,3.72-3.83,5.59C193.76,315.65,203.54,315.67,209.93,309.39Zm-9,64.33c-3.49-7-6.55-7-12.13,0Zm-3.28-12-2.28-2.9c-1.76,1.23-3.81,2.23-5.09,3.84-.4.51,1.28,2.67,2,4.07Z" transform="translate(-8.1 -11.62)"/><path class="cls-1" d="M411.53,223.13c.87,11.93-8.15,14.44-16.53,18.6-11.71,5.81-23.83,5-36.39,5.19V239c-3.16,4.43-5.71,8.27-10.27,2.65-1-1.24-4.11-.78-6.25-1.1L338,237.75l9-4.24c.12-.75.23-1.49.35-2.23-2.12-1.08-4.23-2.15-7.67-3.88,7.71-2.92,13.09-5.21,18.63-7,12.15-3.95,24.17-9.49,36.64-11C410.23,207.58,414.28,211,411.53,223.13Z" transform="translate(-8.1 -11.62)"/><path class="cls-1" d="M411.53,223.13c2.75-12.1-1.3-15.55-16.58-13.72-12.47,1.49-24.49,7-36.64,11-5.54,1.8-10.92,4.09-18.63,7,3.44,1.73,5.55,2.8,7.67,3.88-.12.74-.23,1.48-.35,2.23l-9,4.24c-10.36-3.37-17.7-11.08-24.11-19-5.19-6.44-8-14.82-11.81-22.34l6.66-1.31c9.89,8.82,21.72,12.61,34.72,13.33a47.87,47.87,0,0,0,7.05,1.27c14.7.53,28.11-4.13,41-10.62,2.22.14,4.47.07,6.65.43,13.19,2.2,17.47,7.06,18.31,20.15.16,2.52,1.12,5,1.71,7.47a4.29,4.29,0,0,1,.13,1.31c-.55,2.41-.92,6.79-1.78,6.89-5.21.63-3.1-3.84-3.7-6.46C412.38,227,412,225,411.53,223.13Z" transform="translate(-8.1 -11.62)"/><path class="cls-1" d="M179.48,267.41l-1.53-.16,8-1.51,8-2.44c2.22,0,4.43.06,6.65,0l57.73-1.26,17.31.05h17l-.18-1.48H228.77c-10.49-.05-21-.2-31.47,0-1.55,0-3.07,1.63-4.6,2.5l-2.91-.7,0-2.41c13.52-1.9,27.28-.37,40.88-1,13.9-.66,27.81-1.9,41.72-1.87s27.75,1.3,41.63,2c3.05.76,6.12,2.19,9.16,2.16,16.41-.13,32.82-.62,49.23-1,11.87.07,23.74,0,35.6.33,2.55.07,5,1.71,7.57,2.62a26.7,26.7,0,0,1-5.11,1.16c-29.7.9-59.4,1.68-89.09,2.58a57.81,57.81,0,0,0-7.65,1.26c-4.43.07-8.86.21-13.29.18Q239.95,268,179.48,267.41Z" transform="translate(-8.1 -11.62)"/><path class="cls-1" d="M140.33,471.46c5.94-11.46,8.33-12.39,21.87-11.14,10.58,1,21.24,1.15,31.87,1.65q16.6.76,33.22,1.49l8.54,5c-.3.87-.6,1.73-.91,2.59l-21.33,1,.07,1.75,23,1.75c.41.83.82,1.65,1.24,2.48l-5.33,2.65c-1.54-1.25-3-3.49-4.65-3.58-5.27-.33-10.59.33-15.88.18-2.15-.06-4.34-1.08-6.4-1.92-2.69-1.11-5.27-3.52-7.92-3.56-10.8-.13-21.61.65-32.42.67C157,472.41,148.65,471.79,140.33,471.46Z" transform="translate(-8.1 -11.62)"/><path class="cls-1" d="M140.33,471.46c8.32.33,16.65,1,25,.94,10.81,0,21.62-.8,32.42-.67,2.65,0,5.23,2.45,7.92,3.56,2.06.84,4.25,1.86,6.4,1.92,5.29.15,10.61-.51,15.88-.18,1.62.09,3.11,2.33,4.65,3.58l-1.28.37c-7.12.83-14.23,2-21.37,2.37-4.56.24-9.18-1-13.77-1.06-18-.11-35.9,0-53.86,0a18.94,18.94,0,0,1-3.52-.4l-4.65-9.16Z" transform="translate(-8.1 -11.62)"/><path class="cls-1" d="M237.9,478c-.42-.83-.83-1.65-1.24-2.48l7.91-.22c8.24-2.15,13.3-8.08,13.48-15.8l1.39.1c.12,8.74,1.51,10.52,9.84,10.43,8.87-.1,17.75-.6,26.58-1.45,1.82-.17,3.42-2.63,5.13-4,1.17,4.12,3.73,5.89,8.17,6.09,6.16.28,12.28,1.37,18.41,2.12-2.44,0-4.89,0-7.33.13-7.06.3-14.56-3-21,2.5-1.4-.86-2.78-2.43-4.21-2.47-6.66-.21-13.34-.07-20,.09-4.58.1-9.15.45-13.73.68,0,.7,0,1.39.05,2.09h26.12c-.06.31-.1.63-.15.94H272.24c1.1,7.19,5.11,6.05,8.67,5.8,3.52,1.66,6.89,4,10.59,4.83,7.47,1.76,15.13,2.74,22.71,4l-9.52,1.5a89.51,89.51,0,0,0-9.56-1.6c-3.45-.23-6.94.12-10.42.22-9.3-4.36-17.73-10.18-28.53-11.73-5.93-.85-7.65-.64-7.56,5.09C247.41,478.85,242,479.38,237.9,478Z" transform="translate(-8.1 -11.62)"/><path class="cls-1" d="M287.3,476.68c.05-.31.09-.63.15-.94l11.78-.39c6.45-5.47,13.95-2.2,21-2.5,2.44-.11,4.89-.09,7.33-.13,4.12.45,8.23,1,12.35,1.36q14.44,1.37,28.88,2.62c6.7.57,10.46,3.92,10.63,10.84l.09-.09-5.45,1.28a10.65,10.65,0,0,0-.06-1.12c-6.7-2-13.28-4.75-20.12-5.94-6-1-12.3,0-18.42-.54C319.4,479.82,303.35,478.19,287.3,476.68Z" transform="translate(-8.1 -11.62)"/><path class="cls-1" d="M259.44,459.56l-1.39-.1c-2.69-4.87.46-7.61,4.24-8.43,6.21-1.33,13.66-3.79,18.77-1.58,6.26,2.71,15.68,2.38,18.11,11.61L292.7,461l-11.81-.45Z" transform="translate(-8.1 -11.62)"/><path class="cls-1" d="M292.7,461l6.47.07,1.82,3.45c-1.71,1.4-3.31,3.86-5.13,4-8.83.85-17.71,1.35-26.58,1.45-8.33.09-9.72-1.69-9.84-10.43l21.45,1-12.87.79C275.87,464.62,288.56,463.86,292.7,461Z" transform="translate(-8.1 -11.62)"/><path class="cls-1" d="M192.58,418.06l50.78,2.73c-.65,4.36,2.53,3.73,5.09,3.89L270,426H220.64l-40-1.4c0-.34-.1-.68-.16-1H201l.08-1.55Z" transform="translate(-8.1 -11.62)"/><path class="cls-1" d="M181.91,444.86c1.27-1.06,2.05-2.26,2.83-2.27,7.48,0,15-.25,22.41.49,1.87.19,3.41,3.65,5.1,5.61-2.16,1.24-4.21,2.86-6.53,3.62s-5.16.83-7.77,1.09c-3.92.38-7.73,1.11-9.77-4C187.45,447.5,184.41,446.56,181.91,444.86Z" transform="translate(-8.1 -11.62)"/><path class="cls-1" d="M244.57,475.26l-7.91.22-23-1.75-.07-1.75,21.33-1c.31-.86.61-1.72.91-2.59l-8.54-5c5.66-.72,10.23-.35,11.06,7.14C238.54,472.36,242.4,473.72,244.57,475.26Z" transform="translate(-8.1 -11.62)"/><path class="cls-1" d="M276.59,229.68c-4.76.7-9.5,1.69-14.27,1.9-1.15,0-2.41-2.5-3.62-3.86,1.25-1,2.53-3,3.74-2.93,4.68.19,9.33,1,14,1.6C276.48,227.48,276.54,228.58,276.59,229.68Z" transform="translate(-8.1 -11.62)"/><path class="cls-1" d="M179.25,273.83q-.67,8.69-1.34,17.36c-1.27-1.28-3.53-2.49-3.63-3.86a123.1,123.1,0,0,1-.06-17.07c.07-1.09,2.44-2,3.74-3Z" transform="translate(-8.1 -11.62)"/><path class="cls-1" d="M382.77,458.1l9.16,7.13C384.43,468.45,382.28,467,382.77,458.1Z" transform="translate(-8.1 -11.62)"/><path class="cls-1" d="M248.62,484.83c-.09-5.73,1.63-5.94,7.56-5.09,10.8,1.55,19.23,7.37,28.53,11.73L332,502.08l.64,6.71c-16.67-3.91-33.34-7.79-50-11.78a66.12,66.12,0,0,1-7.42-2.72c-5.94-5.1-12.44-8.32-20.65-7.31C252.73,487.21,250.62,485.59,248.62,484.83Z" transform="translate(-8.1 -11.62)"/><path class="cls-1" d="M374.07,488.73l5.45-1.28-4.09,6.83-61.22-2.93c-7.58-1.3-15.24-2.28-22.71-4-3.7-.87-7.07-3.17-10.59-4.83l-.21-.34a83.93,83.93,0,0,0,8.44,1.41c11.49.81,23,1.48,34.5,2.17Q348.86,487.25,374.07,488.73Z" transform="translate(-8.1 -11.62)"/><path class="cls-1" d="M314.21,491.35l61.22,2.93c-.77,4.29-3.31,6.25-7.68,6.76-9.16,1.07-18.25,2.75-27.42,3.7-1.89.2-4-1.71-6-2.64-1.29-1.36-2.38-3.56-3.9-3.92-8.52-2-17.15-3.6-25.74-5.33Z" transform="translate(-8.1 -11.62)"/><path class="cls-1" d="M248.62,484.83c2,.76,4.11,2.38,6,2.15,8.21-1,14.71,2.21,20.65,7.31-2.91.24-5.92,1-8.72.57-3.7-.61-7.17-2.83-10.86-3.23-8.08-.88-16.22-1.05-24.34-1.51,0-3.05,0-6.09-.05-9.14l1.28-.37L237.9,478C242,479.38,247.41,478.85,248.62,484.83Z" transform="translate(-8.1 -11.62)"/><path class="cls-1" d="M304.69,492.85c8.59,1.73,17.22,3.31,25.74,5.33,1.52.36,2.61,2.56,3.9,3.92q-.84,3.34-1.66,6.69c-.21-2.18-.42-4.36-.64-6.71l-47.32-10.61c3.48-.1,7-.45,10.42-.22A89.51,89.51,0,0,1,304.69,492.85Z" transform="translate(-8.1 -11.62)"/><path class="cls-1" d="M218,490.09l-3.3-4.15c9-2.4,11.67-1.58,14,4.23Z" transform="translate(-8.1 -11.62)"/><path class="cls-1" d="M334.41,512c.32,8-2.14,9.29-10.83,5.58Z" transform="translate(-8.1 -11.62)"/><path class="cls-1" d="M207.49,547.59l5.79-1.16L219,549.3c-2.6,3.4-10.37,5.11-12.54,2.74C205.84,551.41,207.08,549.12,207.49,547.59Z" transform="translate(-8.1 -11.62)"/><path class="cls-1" d="M202.62,547.75c-3,4.66-11,6.58-13.68,4.24-.55-.48-1.11-1.74-.86-2.19.47-.85,1.5-1.91,2.35-2C194.23,547.63,198.05,547.75,202.62,547.75Z" transform="translate(-8.1 -11.62)"/><path class="cls-1" d="M161.83,767.58c4.63-5.22,9.67-3.56,14.77-.9l1.32,1.23c-4.81,8.06-6.08,8.37-16.06,3.94Z" transform="translate(-8.1 -11.62)"/><path class="cls-1" d="M216.23,775.82c-.9-3.43-1.31-5-1.73-6.58-.5,1.31-1,2.63-1.47,3.94l-2.15-1c1.85-3.65,3.3-7.61,5.79-10.76.78-1,4.32.19,7.82.47-.41,3.49-.9,7.59-1.39,11.69l-1.18.19c-.7-1.89-1.4-3.78-2.52-6.85C218.39,769.71,217.68,771.71,216.23,775.82Z" transform="translate(-8.1 -11.62)"/><path class="cls-1" d="M161.83,767.58l0,4.27c-6,6-6.26-3.2-10.24-3.75q-.59,2.68-1.19,5.38l-1.21-.1V760l7.62,8.36c.5-2.27.89-4,1.36-6.1Z" transform="translate(-8.1 -11.62)"/><path class="cls-1" d="M187.89,767.84c2.74-1.76,5-3.88,5.6-3.47,2.07,1.27,4.59,3.34,4.91,5.41.21,1.37-3.06,3.27-4.77,4.94C192,772.78,190.4,770.85,187.89,767.84Z" transform="translate(-8.1 -11.62)"/><path class="cls-1" d="M177.92,767.91l-1.32-1.23,2.4.62Z" transform="translate(-8.1 -11.62)"/><path class="cls-1" d="M359.67,921.64a73.68,73.68,0,0,1-2.08-9.06c-.07-.59,2.15-1.91,3.39-2,.72-.07,2.36,1.71,2.26,2.48a71.4,71.4,0,0,1-2,8.45Z" transform="translate(-8.1 -11.62)"/><path class="cls-1" d="M267.52,907c3.45,4.72,6.65,7.23,7.11,10.17.68,4.39-2.47,7.59-7.17,7.53s-7.87-3.08-7-7.62C261,914.09,264.12,911.62,267.52,907Zm-.4,3.49c-1.94,3.3-4.06,5.3-3.83,7s2.95,4.14,4.41,4,4.05-2.8,4.11-4.43S269.49,913.57,267.12,910.45Z" transform="translate(-8.1 -11.62)"/><path class="cls-1" d="M372.38,260.3c-16.41.37-32.82.86-49.23,1-3,0-6.11-1.4-9.16-2.16,7-.58,14-1.52,21-1.66,26.17-.53,52.34-.76,78.51-1.2,4.63-.08,9.25-.65,13.88-1l3.81,1.88c-.05.52-.11,1-.16,1.57Z" transform="translate(-8.1 -11.62)"/><path class="cls-1" d="M248.69,252.41H208.08c5.33-11.12,19.86-13.47,30.52-6.71,2.82,1.79,6.69,1.92,10.08,2.81C248.68,249.81,248.68,251.11,248.69,252.41Z" transform="translate(-8.1 -11.62)"/><path class="cls-1" d="M372.38,260.3,431,258.73c0-.53.11-1.05.16-1.57l-3.81-1.88c1.52.07,3.77-.48,4.43.31,6.13,7.26,13.75,2.93,20.75,2.9,6.77,0,13.55-.42,20.32-.64l2.68,2.67-10.75,1.15-49.27,1.58c-2.52-.91-5-2.55-7.57-2.62C396.12,260.28,384.25,260.37,372.38,260.3Z" transform="translate(-8.1 -11.62)"/><path class="cls-1" d="M248.69,252.41c0-1.3,0-2.6,0-3.9,12.36-9.49,27-8.91,35.84,2Z" transform="translate(-8.1 -11.62)"/><path class="cls-1" d="M192.7,263.09c1.53-.87,3.05-2.47,4.6-2.5,10.49-.17,21,0,31.47,0l29.49,1.43-57.73,1.26c-2.22.05-4.43,0-6.65,0A2.5,2.5,0,0,0,192.7,263.09Z" transform="translate(-8.1 -11.62)"/><path class="cls-1" d="M466.89,227.47c-2.51,1.53-3.77,2.93-4.7,2.74-1.94-.4-3.7-1.64-5.54-2.53,1.08-1,2.19-2.87,3.22-2.83C461.75,224.94,463.58,226.15,466.89,227.47Z" transform="translate(-8.1 -11.62)"/><path class="cls-1" d="M482.39,233.71q-2.7,3.33-5.39,6.68l-1.26-6.71Z" transform="translate(-8.1 -11.62)"/><path class="cls-1" d="M391.5,199.06c-12.91,6.49-26.32,11.15-41,10.62a47.87,47.87,0,0,1-7.05-1.27c12.5-2.81,25-5.72,37.52-8.37C384.38,199.32,388,199.37,391.5,199.06Z" transform="translate(-8.1 -11.62)"/><path class="cls-1" d="M470.17,279.34l-2.34-3.1,7.66-7.72q.08,11.34.14,22.69-.74,42.66-1.48,85.33-.63,12.73-1.25,25.48c-2.6-6.3-6.83-9.57-14-10.59-3.48-.49-6.67-5.07-9.42-8.28-4.64-5.44-7.87-12.09-16.7-12.39-4.45-.15-5.29-3.48-3.05-7.78,1.36-2.62,1.28-6,1.84-9,13.31.2,14.09,0,17.32-5.41h-36c.22-1.7.44-3.39.63-4.89l56.2-2.28c-10.52-2.62-21.93.27-32.64-7.1,10.41-6.81,21.62-4.14,32.59-4.88-.87-1.29-1.07-1.9-1.31-1.91-17.64-1.07-35.29-2-52.92-3.26-2-.14-3.8-2.11-5.7-3.23,1.75-1,3.48-2.82,5.24-2.86,4.86-.11,9.73.89,14.59.79a152.57,152.57,0,0,0,25.23-2.45c-7.52-2.71-14.49-8.64-22.94-2.55-1,.7-4-1.43-6.06-2.25.24-.65.49-1.3.74-1.94,5-.43,10-.77,15-1.31,4.09-.45,6.68-1.86,7.18-7,.27-2.9,3.58-5.69,5.93-8.12,1.79-1.85,4.23-3.07,6.38-4.57l9.23-2.83,1.38-4.13Zm-2.06,24.52v-1.32H452.31l0,1.32Z" transform="translate(-8.1 -11.62)"/><path class="cls-1" d="M270,426l-21.56-1.35c-2.56-.16-5.74.47-5.09-3.89,2.59-.87,5.23-2.61,7.77-2.49,42.91,2.07,85.8,4.37,128.69,6.66a22,22,0,0,1,3.86.9l-6,.58c4.22,2.33,7.6,5.32,11.41,6,6.9,1.3,14.08,1,21.1,1.79,9.83,1.12,19.62,2.64,29.42,4-21.4-1.69-42.81-3.42-64.22-5.05Q347.19,431,319,429.07C302.7,428,286.35,427,270,426Z" transform="translate(-8.1 -11.62)"/><path class="cls-1" d="M390.05,427.59c2.57-.4,5.17-1.31,7.69-1.13,20.8,1.52,41.56,3.5,62.37,4.67,4.17.23,8.5-2.42,12.76-3.74,0,3.61-.05,7.23-.07,10.84-25-2.71-49.94-5.38-74.89-8.21C395.23,429.71,392.67,428.43,390.05,427.59Z" transform="translate(-8.1 -11.62)"/><path class="cls-1" d="M390.05,427.59c2.62.84,5.18,2.12,7.86,2.43,24.95,2.83,49.92,5.5,74.89,8.21-1.69.83-3.44,2.45-5.08,2.36-9.4-.56-18.77-1.52-28.15-2.34-9.8-1.35-19.59-2.87-29.42-4-7-.8-14.2-.49-21.1-1.79-3.81-.71-7.19-3.7-11.41-6l6-.58Z" transform="translate(-8.1 -11.62)"/><path class="cls-1" d="M470.17,279.34l1.41,2.47c-5.31.09-10.62.06-15.91.29-5.51.24-11,1-16.51,1.06-11.27.18-11.27.06-14.31,4.09h22.72v1.21H436.25l-.15.81,4,1.18c.08.55.16,1.1.25,1.66-12.49.28-25.59-2.26-35.85,8.26l-.84-2.08c.49-1,1-1.9,1.45-2.85l-1-1.6c-2.38,1.41-4.64,3.13-7.19,4.1-1.68.65-4.31.93-5.54,0a5.87,5.87,0,0,1-1.73-5.24c.52-1.67,2.66-3.82,4.3-4,4.78-.53,9.66-.19,14.51-1.51-4.39,0-8.77,0-13.16,0-4.15,0-5.46-2.36-4.85-6.12.66-4,3.43-8,7-5.53,6.09,4.26,12.06,3.15,18.36,2.64.51,0,1.07.56,3.11,1.71l-10.77,1,0,.42h16l1.13-.87-3.34-.65.58-1.39c1.85-.19,3.71-.45,5.57-.56,6.62-.41,13.23-.81,19.86-1.12,1.75-.09,4.13-.58,5.19.33C458.39,281.65,464.28,280.15,470.17,279.34Z" transform="translate(-8.1 -11.62)"/><path class="cls-1" d="M415.55,263.25l49.27-1.58,8.1.79c.05.64.09,1.27.14,1.91a27.47,27.47,0,0,1-5.11,1.27c-15.94,1-31.87,2.13-47.82,2.74-29.72,1.13-59.46,1.9-89.18,2.95-3,.1-6.05,1-9.07,1.6-1.95.36-3.91,1.11-5.85,1.08q-50.86-.75-101.74-1.71c-3.29-.06-6.58-.64-9.87-1H320l.07-2.23-6.36-.83a57.81,57.81,0,0,1,7.65-1.26c29.69-.9,59.39-1.68,89.09-2.58A26.7,26.7,0,0,0,415.55,263.25Z" transform="translate(-8.1 -11.62)"/><path class="cls-1" d="M412.88,348.54h36c-3.23,5.41-4,5.61-17.32,5.41H417.1c-.1.86-.19,1.72-.29,2.58l8.66,1.92c-1.49,2.53-3.12,5.33-4.74,8.09,1.37,1.27,3.28,2.35,4,4,.62,1.3.46,3.92-.46,4.78a8.1,8.1,0,0,1-5.71,2.19c-1.41-.17-3.62-2.54-3.61-3.91,0-4.66.92-9.3,1.4-13.35L403.24,357l.09-1.61L399,358.57c-3.37-1.47-6.22-2.32-8.58-3.9-1.32-.88-2.66-3.05-2.54-4.51.24-2.73,1.53-5.38,3.05-10.17C396.51,350.49,405,348.58,412.88,348.54Z" transform="translate(-8.1 -11.62)"/><path class="cls-1" d="M325.56,293.28H236.92l-.82-1.37c1.19-1.07,2.27-2.88,3.58-3.08a69.92,69.92,0,0,1,10.14-.31c22.33,0,44.66-.12,67,.1,3.09,0,6.15,1.66,9.23,2.55Z" transform="translate(-8.1 -11.62)"/><path class="cls-1" d="M313.7,268.25l6.36.83-.07,2.23H204.42c-6.38-.05-12.79.18-19.14-.34-2-.16-3.87-2.32-5.8-3.56q60.47.51,120.93,1C304.84,268.46,309.27,268.32,313.7,268.25Z" transform="translate(-8.1 -11.62)"/><path class="cls-1" d="M229.16,316.29c2.35-1.65,4.6-4.52,7.06-4.71a169.41,169.41,0,0,1,24-.11c2.74.17,5.24,3.33,8,3.65,8.51,1,17.1,1.21,25.66,1.74v1.76H230.6Z" transform="translate(-8.1 -11.62)"/><path class="cls-1" d="M230.16,348.3c3.9-.58,7.8-1.22,11.71-1.69a19.82,19.82,0,0,1,3.29.4q24.68,1.59,49.34,3.16a6,6,0,0,1,1.76.72c-.28.52-.47,1.18-.65,1.18-20.24-.14-40.36,4.54-60.65,1.56-1.8-.26-3.39-1.89-5.08-2.89C230,349.93,230.07,349.11,230.16,348.3Z" transform="translate(-8.1 -11.62)"/><path class="cls-1" d="M237.3,329.58c-1.26.9-3.45,3.35-6.09,4-2.05.54-4.67-1.11-7-1.79,1.9-2.74,3.27-6.31,5.86-8,2-1.29,5.92-1.06,8.34,0,8.31,3.6,16.7,3.45,25.39,2.3,6.66-.88,9.33.85,10.33,6.79Z" transform="translate(-8.1 -11.62)"/><path class="cls-1" d="M389,389.61l40.77,1.79-.05,2.32c-4.45,0-8.9,0-13.36,0-1.48,0-3.95-.76-4.29-.19-4.5,7.68-11.58,4-17.69,4.22C390.57,397.9,389.9,396.9,389,389.61Z" transform="translate(-8.1 -11.62)"/><path class="cls-1" d="M403.06,407.78l3,2.05c-.09.5-.19,1-.28,1.51-3.56-.39-7.1-.83-10.66-1.15-4.22-.38-6.48-2.39-6-8.5l40.35,1.84c0,.72,0,1.45,0,2.18H403Z" transform="translate(-8.1 -11.62)"/><path class="cls-1" d="M232.5,368.5h-6.79c.62-.91,1.07-1.59,1.52-2.26-7.77-4.05-1.45-5.39,1.49-6.89,4.89-2.5,14.16-.6,20.29,3.77-3.95,4.21-8.8,4-13-.85C234.84,364.37,233.7,366.38,232.5,368.5Z" transform="translate(-8.1 -11.62)"/><path class="cls-1" d="M387.76,413.67l38.44,2.09C416.11,422.18,391.32,421.27,387.76,413.67Z" transform="translate(-8.1 -11.62)"/><path class="cls-1" d="M401,309.54l5.41-2.81-11.31-.9-1.18,1.69,4.15,1.21-1.21,2.16c-2-.59-4.16-.82-5.79-1.89-.92-.61-1.55-3.61-1.22-3.82a11,11,0,0,1,5.27-1.91c7.71-.19,15.43-.08,23.15-.08.21.7.43,1.4.64,2.1l-16.8,6.9Z" transform="translate(-8.1 -11.62)"/><path class="cls-1" d="M411.17,365.27v6.6l-16.49,2.63C395.42,363.32,395.55,363.25,411.17,365.27Z" transform="translate(-8.1 -11.62)"/><path class="cls-1" d="M192.58,418.06l8.47,4L201,423.6H180.45l-4.66-3.21c1.62-.8,3.19-2.17,4.86-2.3C184.6,417.77,188.6,418,192.58,418.06Z" transform="translate(-8.1 -11.62)"/><path class="cls-1" d="M348.21,292.65,329.71,294C332.35,287.54,342.56,286.59,348.21,292.65Z" transform="translate(-8.1 -11.62)"/><path class="cls-1" d="M296,363.94H273.28V362.6h22.66Z" transform="translate(-8.1 -11.62)"/><path class="cls-1" d="M447.57,288.46v-1.21l22.63-1.31L461,288.77Z" transform="translate(-8.1 -11.62)"/><path class="cls-1" d="M203,285.13l-3.16,1c-2.12,5.5-3.73,9.69-5.34,13.89-1.57-.83-4.27-1.42-4.5-2.53-.68-3.25-.2-6.72-.53-10.07-.18-1.86-1.08-3.65-2.3-7.49l16.11,3Z" transform="translate(-8.1 -11.62)"/><path class="cls-1" d="M209.93,309.39c-6.39,6.28-16.17,6.26-21.94.45,1.21-1.87,2.12-4.23,3.83-5.59,1.19-1,3.47-.56,5.27-.76.7,6.37,5.62,4.81,9.57,5.12A26.84,26.84,0,0,1,209.93,309.39Z" transform="translate(-8.1 -11.62)"/><path class="cls-1" d="M201,373.72H188.84C194.42,366.71,197.48,366.69,201,373.72Z" transform="translate(-8.1 -11.62)"/><path class="cls-1" d="M197.69,361.76l-5.36,5c-.73-1.4-2.41-3.56-2-4.07,1.28-1.61,3.33-2.61,5.09-3.84Z" transform="translate(-8.1 -11.62)"/><path class="cls-1" d="M258.26,262.05l-29.49-1.43h63.58l.18,1.48h-17Z" transform="translate(-8.1 -11.62)"/><path class="cls-1" d="M287.3,476.68c16.05,1.51,32.1,3.14,48.17,4.45,6.12.5,12.43-.5,18.42.54,6.84,1.19,13.42,3.9,20.12,5.94l-95.56-9.41-.44,1.48,2.69,2.46.21.34c-3.56.25-7.57,1.39-8.67-5.8Z" transform="translate(-8.1 -11.62)"/><path class="cls-1" d="M299.23,475.35l-11.78.39H261.33c0-.7,0-1.39-.05-2.09,4.58-.23,9.15-.58,13.73-.68,6.67-.16,13.35-.3,20-.09C296.45,472.92,297.83,474.49,299.23,475.35Z" transform="translate(-8.1 -11.62)"/><path class="cls-1" d="M280.7,482.14,278,479.68l.44-1.48L374,487.61a10.65,10.65,0,0,1,.06,1.12q-25.21-1.5-50.43-3c-11.5-.69-23-1.36-34.5-2.17A83.93,83.93,0,0,1,280.7,482.14Z" transform="translate(-8.1 -11.62)"/><path class="cls-1" d="M292.7,461c-4.14,2.87-16.83,3.63-24.68.34l12.87-.79Z" transform="translate(-8.1 -11.62)"/><path class="cls-1" d="M267.12,910.45c2.37,3.12,4.74,4.89,4.69,6.58s-2.53,4.31-4.11,4.43-4.19-2.4-4.41-4S265.18,913.75,267.12,910.45Z" transform="translate(-8.1 -11.62)"/><path class="cls-1" d="M470.2,285.94l-22.63,1.31H424.85c3-4,3-3.91,14.31-4.09,5.51-.09,11-.82,16.51-1.06,5.29-.23,10.6-.2,15.91-.29Z" transform="translate(-8.1 -11.62)"/><ellipse class="cls-1" cx="452.11" cy="291.57" rx="11.18" ry="0.93"/></svg>